<?xml version="1.0" standalone="no"?>
<!DOCTYPE svg PUBLIC "-//W3C//DTD SVG 1.1//EN" "http://www.w3.org/Graphics/SVG/1.1/DTD/svg11.dtd" >
<svg xmlns="http://www.w3.org/2000/svg" xmlns:xlink="http://www.w3.org/1999/xlink" version="1.1">
<metadata>
Created by FontForge 20170731 at Wed Sep  1 02:33:57 2021
 By Aleksey,,,
Copyright 2019 The Birthstone Bounce Project Authors (https://github.com/googlefonts/birthstone-bounce)
</metadata>
<defs>
<font id="BirthstoneBounce-Medium" horiz-adv-x="0" >
  <font-face 
    font-family="Birthstone Bounce Medium"
    font-weight="500"
    font-stretch="normal"
    units-per-em="1000"
    panose-1="0 0 0 0 0 0 0 0 0 0"
    ascent="800"
    descent="-200"
    x-height="342"
    cap-height="679"
    bbox="-679 -543 1876 1076.67"
    underline-thickness="50"
    underline-position="-175"
    unicode-range="U+0020-FB02"
  />
<missing-glyph horiz-adv-x="484" 
d="M47 -5l-12 12v568l12 12h391l11 -12v-568l-11 -12h-391zM425 21v540h-364v-540h364zM82 538h320v-498h-320v498zM153 117l83 150l85 -150l13 22l-86 151l86 153l-13 23l-85 -152l-83 151l-11 -22l83 -151l-83 -153z" />
    <glyph glyph-name="fi" unicode="fi" horiz-adv-x="670" 
d="M142 -422q-47 0 -62 32q-11 23 -11 64q0 23 4 51t12 59q7 26 15 51.5t16 50.5q17 50 33.5 88.5t23.5 54.5q30 62 62 124.5t67 125.5q-36 -30 -77.5 -63t-82 -56.5t-72.5 -23.5q-34 0 -54 17.5t-20 48.5q0 21 10 24h3q11 0 8 -14q-1 -2 -1 -4.5v-4.5q0 -17 14 -19
q3 -1 7 -1h8q14 0 33 3t41 10q50 17 104 53.5t111 90.5l82 143q32 55 57.5 94.5t49.5 56.5q26 12 41 12q23 0 23 -24q0 -28 -27 -70q-22 -35 -54 -70.5t-69 -64.5q-23 -40 -45 -80t-42 -80l-77 -151q-6 -11 -13.5 -28.5t-18.5 -40.5q-20 -46 -41.5 -102.5t-40.5 -115.5
q-10 -29 -16.5 -56t-11.5 -51q-6 -33 -6 -56q0 -51 28 -51q23 0 45.5 20t43 49.5t36.5 59t25 48.5q21 42 30.5 88t8.5 80q-15 -7 -30.5 -11t-29.5 -4t-21 4q-12 6 -12 17q0 14 18 30.5t43 21.5q5 1 9.5 1.5t8.5 0.5q11 0 18 -4q4 -3 7 -5.5t5 -4.5q11 8 29 23.5t37 34
t35.5 35l25.5 25.5q18 17 27 17q8 0 3.5 -14t-22.5 -36q-17 -20 -40.5 -43.5t-46.5 -44t-40 -32.5q2 -10 3 -25.5t1 -34.5q0 -25 -3 -53t-12 -52q-12 -33 -31 -70.5t-45 -71.5t-60 -55t-77 -21zM701 481q-13 0 -21.5 9t-8.5 22q0 17 12 28.5t28 11.5q14 0 22 -8.5t8 -21.5
q0 -17 -11.5 -29t-28.5 -12zM525 -5q-28 0 -42.5 18.5t-14.5 51.5q0 15 3 33q12 61 40 112t52 89q7 13 26.5 21t35.5 8q20 0 20 -12q0 -7 -6 -16q-20 -31 -46 -72.5t-44.5 -84.5t-18.5 -79q0 -28 21 -28q14 0 34 15t39 34t29 30l20 21q5 5 9 10.5t8 10.5q3 5 8 5
q12 0 12 -14q0 -7 -5 -12q-11 -14 -22 -27t-23 -26q-17 -20 -38 -40.5t-45 -34t-52 -13.5z" />
    <glyph glyph-name="fl" unicode="fl" horiz-adv-x="790" 
d="M142 -422q-47 0 -62 32q-11 23 -11 64q0 23 4 51t12 59q7 26 15 51.5t16 50.5q17 50 33.5 88.5t23.5 54.5q30 62 62 124.5t67 125.5q-36 -30 -77.5 -63t-82 -56.5t-72.5 -23.5q-34 0 -54 17.5t-20 48.5q0 21 10 24h3q11 0 8 -14q-1 -2 -1 -4.5v-4.5q0 -17 14 -19
q3 -1 7 -1h8q14 0 33 3t41 10q50 17 104 53.5t111 90.5l82 143q32 55 57.5 94.5t49.5 56.5q26 12 41 12q23 0 23 -24q0 -28 -27 -70q-22 -35 -54 -70.5t-69 -64.5q-23 -40 -45 -80t-42 -80l-77 -151q-6 -11 -13.5 -28.5t-18.5 -40.5q-20 -46 -41.5 -102.5t-40.5 -115.5
q-10 -29 -16.5 -56t-11.5 -51q-6 -33 -6 -56q0 -51 28 -51q23 0 45.5 20t43 49.5t36.5 59t25 48.5q21 42 30.5 88t8.5 80q-15 -7 -30.5 -11t-29.5 -4t-21 4q-12 6 -12 17q0 14 18 30.5t43 21.5q5 1 9.5 1.5t8.5 0.5q11 0 18 -4q4 -3 7 -5.5t5 -4.5q11 8 29 23.5t37 34
t35.5 35l25.5 25.5q18 17 27 17q8 0 3.5 -14t-22.5 -36q-17 -20 -40.5 -43.5t-46.5 -44t-40 -32.5q2 -10 3 -25.5t1 -34.5q0 -25 -3 -53t-12 -52q-12 -33 -31 -70.5t-45 -71.5t-60 -55t-77 -21zM514 -176q-26 0 -44 24q-15 23 -13 81q0 15 4 41t10.5 56t14.5 58.5t15 47.5
q-57 -18 -93 -18q-22 0 -33.5 6t-11.5 11q0 12 25 9q4 -1 7.5 -1h7.5q45 0 114 27q73 179 179 329q48 69 94 121.5t83 87.5q58 52 106 52q33 0 46.5 -16.5t13.5 -42.5q0 -28 -13 -63t-30 -64q-32 -55 -83 -118t-110 -122q-61 -59 -119.5 -103t-104.5 -65q-9 -20 -21 -50
t-18 -51q-8 -29 -13.5 -64t-6.5 -82q0 -41 20 -41q10 0 27 11q28 19 49.5 38.5t44.5 44.5q11 12 30.5 35t41.5 48q14 17 27.5 33t25.5 30q20 24 40 46q4 5 9 5q12 0 12 -13q0 -7 -6 -13q-11 -14 -23.5 -29t-23.5 -28q-6 -7 -23.5 -27.5t-40.5 -48.5q-21 -25 -43.5 -52.5
t-41.5 -49.5t-31 -34q-22 -21 -43.5 -33.5t-56.5 -12.5zM596 206q30 18 64 46q41 33 85.5 78t88.5 97q22 26 41.5 50t36.5 47q35 47 59.5 87t31.5 63q4 12 4 23q0 25 -20 25q-14 0 -30 -13q-33 -26 -82 -81.5t-100 -123.5q-49 -67 -96.5 -144.5t-82.5 -153.5z" />
    <glyph glyph-name="f_f" unicode="ff" horiz-adv-x="611" 
d="M69 -422q-47 0 -62 32q-11 23 -11 64q0 23 4 51t12 59q7 26 15 51.5t16 50.5q17 50 33.5 88.5t23.5 54.5q30 62 62 124.5t67 125.5q-36 -30 -77.5 -63t-82 -56.5t-72.5 -23.5q-34 0 -54 17.5t-20 48.5q0 21 10 24h3q11 0 8 -14q-1 -2 -1 -4.5v-4.5q0 -17 14 -19
q3 -1 7 -1h8q14 0 33 3t41 10q50 17 104 53.5t111 90.5l82 143q32 55 57.5 94.5t49.5 56.5q26 12 41 12q23 0 23 -24q0 -28 -27 -70q-22 -35 -54 -70.5t-69 -64.5q-23 -40 -45 -80t-42 -80l-77 -151q-6 -11 -13.5 -28.5t-18.5 -40.5q-20 -46 -41.5 -102.5t-40.5 -115.5
q-10 -29 -16.5 -56t-11.5 -51q-6 -33 -6 -56q0 -51 28 -51q23 0 45.5 20t43 49.5t36.5 59t25 48.5q21 42 30.5 88t8.5 80q-15 -7 -30.5 -11t-29.5 -4t-21 4q-12 6 -12 17q0 14 18 30.5t43 21.5q5 1 9.5 1.5t8.5 0.5q11 0 18 -4q4 -3 7 -5.5t5 -4.5q11 8 29 23.5t37 34
t35.5 35l25.5 25.5q3 2 5 4q6 7 12 15t13 15q14 16 28 33t30 34l108 125q15 27 28 53l25 49l23 47q8 15 23 40.5t34 51.5t38.5 44t36.5 18q12 0 12 -17t-12 -48.5t-35 -72.5q-9 -18 -19.5 -36t-22.5 -38q-22 -38 -45.5 -71t-43.5 -53q-20 -35 -36.5 -68t-31.5 -65
q-9 -17 -17.5 -34t-17.5 -34q-16 -31 -31 -68q-21 -47 -42 -103.5t-41 -115.5q-9 -28 -16 -55t-12 -52q-6 -33 -6 -56q0 -51 29 -51q23 0 45 20t42.5 50t36.5 59.5t25 47.5q22 42 31.5 88t7.5 80q-14 -7 -29.5 -11t-29.5 -4t-21 4q-13 6 -13 17q0 14 18 30.5t43 21.5
q5 1 10 1.5t9 0.5q11 0 18 -4q9 -5 11 -10q16 11 41.5 34t49.5 47t36 37q18 17 27 17q6 0 6 -6q0 -16 -25 -44q-15 -19 -38.5 -42.5t-46.5 -44t-39 -31.5q3 -18 3 -47t-4 -62t-13 -58q-12 -33 -31 -70.5t-45 -71.5t-60 -55t-77 -21q-46 0 -62 32q-11 27 -11 64
q0 23 4.5 50.5t11.5 58.5q8 26 15.5 52t16.5 51q17 50 33.5 88.5t24.5 54.5q26 52 53 105.5t51 98.5q-20 -23 -39.5 -45.5t-39.5 -45.5q-13 -14 -26 -29t-27 -31l-2 -2q-17 -20 -40 -43.5t-46 -44t-40 -31.5q2 -10 3 -25.5t1 -34.5q0 -25 -3 -53t-12 -52q-12 -33 -31 -70.5
t-45 -71.5t-60 -55t-77 -21z" />
    <glyph glyph-name="f_f_i" unicode="ffi" horiz-adv-x="1003" 
d="M142 -422q-47 0 -62 32q-11 23 -11 64q0 23 4 51t12 59q7 26 15 51.5t16 50.5q17 50 33.5 88.5t23.5 54.5q30 62 62 124.5t67 125.5q-36 -30 -77.5 -63t-82 -56.5t-72.5 -23.5q-34 0 -54 17.5t-20 48.5q0 21 10 24h3q11 0 8 -14q-1 -2 -1 -4.5v-4.5q0 -17 14 -19
q3 -1 7 -1h8q14 0 33 3t41 10q50 17 104 53.5t111 90.5l82 143q32 55 57.5 94.5t49.5 56.5q26 12 41 12q23 0 23 -24q0 -28 -27 -70q-22 -35 -54 -70.5t-69 -64.5q-23 -40 -45 -80t-42 -80l-77 -151q-6 -11 -13.5 -28.5t-18.5 -40.5q-20 -46 -41.5 -102.5t-40.5 -115.5
q-10 -29 -16.5 -56t-11.5 -51q-6 -33 -6 -56q0 -51 28 -51q23 0 45.5 20t43 49.5t36.5 59t25 48.5q21 42 30.5 88t8.5 80q-15 -7 -30.5 -11t-29.5 -4t-21 4q-12 6 -12 17q0 14 18 30.5t43 21.5q5 1 9.5 1.5t8.5 0.5q11 0 18 -4q4 -3 7 -5.5t5 -4.5q11 8 29 23.5t37 34
t35.5 35l25.5 25.5q3 2 5 4q6 7 12 15t13 15q14 16 28 33t30 34l108 125q15 27 28 53l25 49l23 47q8 15 23 40.5t34 51.5t38.5 44t36.5 18q12 0 12 -17t-12 -48.5t-35 -72.5q-9 -18 -19.5 -36t-22.5 -38q-22 -38 -45.5 -71t-43.5 -53q-20 -35 -36.5 -68t-31.5 -65
q-9 -17 -17.5 -34t-17.5 -34q-16 -31 -31 -68q-21 -47 -42 -103.5t-41 -115.5q-9 -28 -16 -55t-12 -52q-6 -33 -6 -56q0 -51 29 -51q23 0 45 20t42.5 50t36.5 59.5t25 47.5q22 42 31.5 88t7.5 80q-14 -7 -29.5 -11t-29.5 -4t-21 4q-13 6 -13 17q0 14 18 30.5t43 21.5
q5 1 10 1.5t9 0.5q11 0 18 -4q9 -5 11 -10q15 11 39.5 32.5t47.5 44.5t37 38v1q12 61 40 112t52 89q7 13 26.5 21t35.5 8q20 0 20 -12q0 -7 -6 -16q-20 -31 -46 -72.5t-44.5 -84.5t-18.5 -79q0 -28 21 -28q14 0 34 15t39 34t29 30l20 21q5 5 9 10.5t8 10.5q3 5 8 5
q12 0 12 -14q0 -7 -5 -12q-11 -14 -22 -27t-23 -26q-17 -20 -38 -40.5t-45 -34t-52 -13.5q-50 0 -56 56q-25 -27 -57.5 -57.5t-53.5 -44.5q3 -18 3 -47t-4 -62t-13 -58q-12 -33 -31 -70.5t-45 -71.5t-60 -55t-77 -21q-46 0 -62 32q-11 27 -11 64q0 23 4.5 50.5t11.5 58.5
q8 26 15.5 52t16.5 51q17 50 33.5 88.5t24.5 54.5q26 52 53 105.5t51 98.5q-20 -23 -39.5 -45.5t-39.5 -45.5q-13 -14 -26 -29t-27 -31l-2 -2q-17 -20 -40 -43.5t-46 -44t-40 -31.5q2 -10 3 -25.5t1 -34.5q0 -25 -3 -53t-12 -52q-12 -33 -31 -70.5t-45 -71.5t-60 -55
t-77 -21zM1059 495q-13 0 -21.5 9t-8.5 22q0 17 12 28.5t28 11.5q14 0 22 -8.5t8 -21.5q0 -17 -11.5 -29t-28.5 -12z" />
    <glyph glyph-name="f_f_l" unicode="ffl" horiz-adv-x="1142" 
d="M142 -422q-47 0 -62 32q-11 23 -11 64q0 23 4 51t12 59q7 26 15 51.5t16 50.5q17 50 33.5 88.5t23.5 54.5q30 62 62 124.5t67 125.5q-36 -30 -77.5 -63t-82 -56.5t-72.5 -23.5q-34 0 -54 17.5t-20 48.5q0 21 10 24h3q11 0 8 -14q-1 -2 -1 -4.5v-4.5q0 -17 14 -19
q3 -1 7 -1h8q14 0 33 3t41 10q50 17 104 53.5t111 90.5l82 143q32 55 57.5 94.5t49.5 56.5q26 12 41 12q23 0 23 -24q0 -28 -27 -70q-22 -35 -54 -70.5t-69 -64.5q-23 -40 -45 -80t-42 -80l-77 -151q-6 -11 -13.5 -28.5t-18.5 -40.5q-20 -46 -41.5 -102.5t-40.5 -115.5
q-10 -29 -16.5 -56t-11.5 -51q-6 -33 -6 -56q0 -51 28 -51q23 0 45.5 20t43 49.5t36.5 59t25 48.5q21 42 30.5 88t8.5 80q-15 -7 -30.5 -11t-29.5 -4t-21 4q-12 6 -12 17q0 14 18 30.5t43 21.5q5 1 9.5 1.5t8.5 0.5q11 0 18 -4q4 -3 7 -5.5t5 -4.5q11 8 29 23.5t37 34
t35.5 35l25.5 25.5l4 4l15 17l69 80l108 125q15 27 28 53l25 49l14 30q2 5 4.5 9t4.5 8q8 15 23 40.5t34 51.5t38.5 44t36.5 18q12 0 12 -17t-12 -48.5t-35 -72.5q-9 -18 -19.5 -36t-22.5 -38q-22 -38 -45.5 -71t-43.5 -53q-20 -35 -36.5 -68t-31.5 -65q-9 -17 -17.5 -34
t-17.5 -34q-16 -31 -31 -68q-21 -47 -42 -103.5t-41 -115.5q-9 -28 -16 -55t-12 -52q-6 -33 -6 -56q0 -51 29 -51q23 0 45 20t42.5 50t36.5 59.5t25 47.5q22 42 31.5 88t7.5 80q-14 -7 -29.5 -11t-29.5 -4t-21 4q-13 6 -13 17q0 14 18 30.5t43 21.5q5 1 10 1.5t9 0.5
q11 0 18 -4q9 -5 11 -10q16 11 41.5 34t49.5 47t36 37q4 4 7 6q7 26 14 43q-57 -18 -93 -18q-22 0 -33.5 6t-11.5 11q0 12 25 9q4 -1 7.5 -1h7.5q45 0 114 27q73 179 179 329q48 69 94 121.5t83 87.5q58 52 106 52q33 0 46.5 -16.5t13.5 -42.5q0 -28 -13 -63t-30 -64
q-32 -55 -83 -118t-110 -122q-61 -59 -119.5 -103t-104.5 -65q-9 -20 -21 -50t-18 -51q-8 -29 -13.5 -64t-6.5 -82q0 -41 20 -41q10 0 27 11q28 19 49.5 38.5t44.5 44.5q11 12 30.5 35t41.5 48q14 17 27.5 33t25.5 30q20 24 40 46q4 5 9 5q12 0 12 -13q0 -7 -6 -13
q-11 -14 -23.5 -29t-23.5 -28q-6 -7 -23.5 -27.5t-40.5 -48.5q-21 -25 -43.5 -52.5t-41.5 -49.5t-31 -34q-22 -21 -43.5 -33.5t-56.5 -12.5q-26 0 -44 24q-15 23 -13 81q0 16 4.5 44t11.5 59q-25 -27 -56.5 -56.5t-52.5 -43.5q3 -18 3 -47t-4 -62t-13 -58q-12 -33 -31 -70.5
t-45 -71.5t-60 -55t-77 -21q-46 0 -62 32q-11 27 -11 64q0 23 4.5 50.5t11.5 58.5q8 26 15.5 52t16.5 51q17 50 33.5 88.5t24.5 54.5q26 52 53 105.5t51 98.5q-20 -23 -39.5 -45.5t-39.5 -45.5q-13 -14 -26 -29t-27 -31l-2 -2q-17 -20 -40 -43.5t-46 -44t-40 -31.5
q2 -10 3 -25.5t1 -34.5q0 -25 -3 -53t-12 -52q-12 -33 -31 -70.5t-45 -71.5t-60 -55t-77 -21zM948 237q30 18 64 46q41 33 85.5 78t88.5 97q22 26 41.5 50t36.5 47q35 47 59.5 87t31.5 63q4 12 4 23q0 25 -20 25q-14 0 -30 -13q-33 -26 -82 -81.5t-100 -123.5
q-49 -67 -96.5 -144.5t-82.5 -153.5z" />
    <glyph glyph-name=".notdef" horiz-adv-x="484" 
d="M47 -5l-12 12v568l12 12h391l11 -12v-568l-11 -12h-391zM425 21v540h-364v-540h364zM82 538h320v-498h-320v498zM153 117l83 150l85 -150l13 22l-86 151l86 153l-13 23l-85 -152l-83 151l-11 -22l83 -151l-83 -153z" />
    <glyph glyph-name=".null" 
 />
    <glyph glyph-name="nonmarkingreturn" horiz-adv-x="333" 
 />
    <glyph glyph-name="space" unicode=" " horiz-adv-x="170" 
 />
    <glyph glyph-name="exclam" unicode="!" horiz-adv-x="223" 
d="M160 130q-7 0 -7 19q0 12 3 30q4 21 18 59.5t33.5 83.5t40 85t37.5 63q39 57 77 83.5t80 26.5l4 -8q-24 -25 -55 -65.5t-64 -89.5t-62 -99t-49 -95q-6 -13 -18 -38t-21 -39q-10 -16 -17 -16zM99 -12q-19 4 -25 22q-3 5 -3 12q0 14 12 23l15 11q4 3 8.5 5.5t8.5 4.5l13 6
l14 7q2 1 5 1q5 0 8 -4t-1 -9q-4 -7 -7 -16.5t-5 -18.5q-4 -17 -12 -32t-31 -12z" />
    <glyph glyph-name="quotedbl" unicode="&#x22;" horiz-adv-x="179" 
d="M28 443q-7 0 -7 7q0 5 4 9q7 9 20.5 29.5t28.5 45t26.5 46t14.5 31.5q2 6 2 15q0 5 -0.5 7l-0.5 2l4 8q47 3 47 -37q0 -12 -4 -23q-6 -27 -28 -55t-49.5 -50.5t-52.5 -33.5q-2 -1 -5 -1zM125 444q-5 0 -5 5t4 10q6 8 18.5 27t27.5 42.5t27 46t17 36.5q2 3 2 7v8q0 8 -1 9
l4 8q47 3 47 -38q0 -27 -20.5 -60t-51.5 -60.5t-62 -40.5q-1 0 -3 -0.5t-4 0.5z" />
    <glyph glyph-name="numbersign" unicode="#" horiz-adv-x="540" 
d="M133 51q-8 0 -8 10v5t1 6q2 11 10 31t17.5 41t16.5 35h-8q-7 0 -14.5 -0.5t-14.5 -0.5q-62 0 -62 22q0 13 14 18t20 5h86l49 119q-4 0 -9 -0.5t-10 -0.5q-7 -1 -13.5 -1h-13.5q-23 0 -37 5.5t-14 15.5q0 14 14.5 19.5t20.5 5.5h22t21 -1t19.5 -1h18.5q26 67 40 97.5
t21 30.5q9 0 9 -13q0 -10 -3 -22l-1 -2q-4 -25 -12.5 -47t-18.5 -45l37 -1h54q3 8 13 28.5t21.5 44t20.5 40.5t12 17q9 0 9 -12q0 -8 -3 -19l-1 -5q-4 -25 -13.5 -47.5t-19.5 -45.5q9 0 18.5 0.5t19.5 1.5q11 1 22.5 1.5t23.5 0.5q8 0 14.5 -2.5t6.5 -9.5q-2 -9 -18 -16
t-33 -11.5t-23 -4.5h-48l-52 -119h68q13 0 22.5 -2t9.5 -10q-1 -9 -17 -16t-33 -11t-23 -4l-46 -1q-12 -34 -25.5 -63.5t-25.5 -47.5t-20 -18q-10 0 -10 14q0 7 2 11q2 8 9.5 27.5t17 41t16.5 35.5h-94q-3 -9 -12 -29.5t-20.5 -43.5t-22 -39.5t-18.5 -16.5zM317 224l50 118
h-92l-50 -118h92z" />
    <glyph glyph-name="dollar" unicode="$" horiz-adv-x="407" 
d="M78 22q-6 0 -12 7t-6 17q0 9 6 19q6 14 14 28t18 28q-23 17 -38 35q-14 17 -19 17l-5 6q8 27 34 27q16 0 26 -10.5t24 -26.5q23 -28 41 -38.5t40 -10.5q17 0 28.5 10.5t11.5 24.5q0 19 -16 35.5t-38 35.5q-25 23 -49 49.5t-24 62.5q0 35 17 69t45 62t62 45t69 18
q10 13 24.5 32.5t27.5 37.5t16 23l4 2q15 0 15 -24q0 -18 -16 -47l-4 -9q-4 -7 -9.5 -17t-10.5 -17q22 -25 22 -64q0 -14 -7.5 -30.5t-16.5 -33.5q-8 -16 -14.5 -29.5t-6.5 -24.5l-5 -5q-15 0 -26.5 10.5t-11.5 23.5q0 17 7.5 32t15.5 28q8 14 14.5 27t6.5 26l-2 9
q-2 5 -12 5q-21 0 -45.5 -14t-46.5 -36.5t-36 -47.5t-14 -46q0 -39 64 -83q23 -16 46 -38t23 -48q0 -27 -19 -46.5t-47 -29.5t-54 -10q-29 0 -52 10q-14 -17 -28.5 -38t-21.5 -32q-4 -6 -9 -6z" />
    <glyph glyph-name="percent" unicode="%" horiz-adv-x="419" 
d="M78 95q-9 0 -9 14q0 17 22.5 59t56.5 96q30 47 68.5 99t82.5 103q-15 0 -33.5 5.5t-35.5 15.5v-5q0 -13 -3 -30q-15 -51 -48.5 -85.5t-68.5 -34.5q-27 0 -41 15t-14 40q0 28 18 64q19 40 46.5 64t55.5 24q13 0 24 -4h1l4 -2q8 -5 17 -16q15 -9 34 -13.5t37 -4.5
q29 0 46 10v3h6q8 0 17.5 -13t9.5 -23l-1 -5l-1 -1v-1q-5 -6 -13 -15.5t-19 -23.5q-22 -27 -49.5 -62t-58.5 -75l-57 -76q-27 -37 -48 -66t-29 -43q-7 -13 -17 -13zM113 361q14 0 31.5 21t29.5 52q11 30 11 50t-9 20q-14 0 -27.5 -13t-24 -33t-17 -40.5t-6.5 -35.5
q0 -21 12 -21zM370 472v-1v1zM262 111q-25 2 -38.5 16.5t-13.5 39.5q0 14 4 30.5t13 35.5q19 39 46.5 62.5t57.5 23.5q26 0 40.5 -15.5t14.5 -41.5q0 -16 -4 -29q-15 -52 -49.5 -87t-70.5 -35zM268 142q14 0 31.5 21t29.5 52q11 31 11 51t-9 20q-14 0 -27.5 -13t-24.5 -33
t-17.5 -40.5t-6.5 -35.5q0 -22 13 -22z" />
    <glyph glyph-name="ampersand" unicode="&#x26;" horiz-adv-x="431" 
d="M165 -8q-55 0 -88.5 31.5t-33.5 84.5q0 60 34 108t98 77q-18 12 -25 29t-7 48q0 32 18 62.5t48.5 55.5t68.5 40t77 15q31 0 50 -22.5t19 -58.5q0 -21 -8 -42t-18 -41q-4 -10 -8.5 -19t-7.5 -19l-5 -3q-12 0 -21 11.5t-9 26.5q0 18 7 33t14 28t12.5 25t5.5 26q0 3 -4 12
q-3 7 -18 7q-25 0 -60.5 -21.5t-62.5 -52.5q-22 -25 -33 -48.5t-11 -40.5q0 -28 27 -28q19 0 41 -1.5t38 -10t16 -29.5l-5 -5q-52 2 -101.5 -18t-82 -59t-32.5 -95q0 -27 15.5 -47t35.5 -20q46 0 83.5 32.5t48.5 80.5l-23 -4l-20 -4t-19 -2q-46 0 -46 58l8 4q9 -6 35 -6
q27 0 64 3q10 1 32.5 3.5t44 5t27.5 2.5q20 0 32.5 -15t12.5 -39l-9 -3q-3 5 -27 8q-4 1 -9 1h-11q-9 0 -19.5 -0.5t-22.5 -1.5q-1 -46 -23 -82.5t-59.5 -58t-83.5 -21.5z" />
    <glyph glyph-name="quotesingle" unicode="'" horiz-adv-x="80" 
d="M28 443q-7 0 -7 7q0 5 4 9q7 9 20.5 29.5t28.5 45t26.5 46t14.5 31.5q2 6 2 15q0 5 -0.5 7l-0.5 2l4 8q47 3 47 -37q0 -12 -4 -23q-6 -27 -28 -55t-49.5 -50.5t-52.5 -33.5q-2 -1 -5 -1z" />
    <glyph glyph-name="parenleft" unicode="(" horiz-adv-x="303" 
d="M200 -51q-9 0 -18 3q-54 20 -82 63t-28 104q0 12 1 23.5t3 24.5q8 50 33 103t61.5 99.5t77.5 75t81 28.5q9 0 16 -2t5 -8l-4 -4q-57 -18 -120 -102q-39 -53 -65.5 -114.5t-36.5 -121.5q-2 -12 -3 -23t-1 -22q0 -44 18.5 -69.5t55.5 -27.5q22 -3 22 -16q0 -14 -16 -14z
" />
    <glyph glyph-name="parenright" unicode=")" horiz-adv-x="320" 
d="M59 -51h-7.5t-6.5 1q-11 4 -6 10l3 3q36 11 65.5 40t55.5 63q41 57 67 117.5t34 118.5q2 12 3 23.5t1 21.5q0 44 -18.5 69.5t-54.5 27.5q-25 3 -22 18q0 11 16 11q5 0 17 -3q54 -19 82.5 -63t28.5 -106q0 -10 -1 -21.5t-3 -23.5q-8 -50 -33 -103.5t-61.5 -100t-78 -75
t-81.5 -28.5z" />
    <glyph glyph-name="asterisk" unicode="*" horiz-adv-x="317" 
d="M164 285q-7 0 -10.5 8.5t-3.5 19.5v7q0 22 3 46l3 29q-10 -9 -24 -22t-28 -23t-23 -10q-13 0 -13 12q0 5 4.5 13.5t9.5 13.5l50 47l1 1q-4 -1 -9.5 -1h-10.5q-74 0 -78 22q0 8 10 13.5t19 5.5l77 4q-8 12 -21.5 33t-24 41t-10.5 27l4 4q-3 -1 -3 1q0 9 10 9
q5 0 12.5 -5.5t11.5 -12.5l49 -67l10 75q0 15 4 30t13 15q12 0 18 2q6 6 6 3q0 -1 -6 -3q-4 -4 -8.5 -16.5t-4.5 -37.5h10q0 -10 -0.5 -21t-1.5 -22l-3 -30q26 26 47.5 43.5t28.5 17.5q4 0 7 -3.5t3 -6.5q0 -17 -20 -39t-37 -39q-1 0 -3 -2h73q22 0 22 -13q0 -14 -27.5 -20
t-72.5 -7q6 -9 16.5 -25t22 -33t19 -30.5t7.5 -17.5q0 -10 -9 -10t-25 15t-32.5 35t-27.5 33q-10 -58 -16.5 -83.5t-17.5 -25.5z" />
    <glyph glyph-name="plus" unicode="+" horiz-adv-x="381" 
d="M138 54q-7 0 -11 6t-4 14q0 6 1 9q3 9 13 31.5t20 43.5q4 9 7.5 16.5t5.5 12.5q-49 1 -81.5 7.5t-28.5 19.5q8 26 29 26h28t28 1t27 1h26q8 20 17 39.5t18 39.5q20 41 36 82l5 3q13 0 13 -28q0 -10 -2 -21.5t-5 -25.5q-7 -22 -16.5 -47t-19.5 -42q19 0 45 0.5t47.5 1.5
t27.5 1l6 -6l-1 -5q-3 -8 -8 -15q-4 -7 -24.5 -12t-66.5 -10q-13 -1 -24.5 -2.5t-17.5 -3.5q-3 -7 -14.5 -29t-26.5 -47t-28 -43t-21 -18z" />
    <glyph glyph-name="comma" unicode="," horiz-adv-x="242" 
d="M46 -114q-4 0 -7 4q-4 5 1 10l33 38q15 17 31 39t26 41t5 27q-6 8 -6 12q0 6 8 6q16 0 28.5 -14.5t12.5 -34.5q0 -5 -2 -13.5t-6 -14.5q-16 -27 -36.5 -39t-48.5 -35q-4 -4 -15 -12t-14 -11q-4 -3 -10 -3z" />
    <glyph glyph-name="hyphen" unicode="-" horiz-adv-x="351" 
d="M85 181q-43 0 -43 48l6 5q18 -3 42 -3q17 0 36.5 1t38.5 2q27 2 54 3.5t49 -0.5q32 -2 38.5 -19.5t6.5 -33.5l-9 -3q-1 3 -25 9q-6 2 -13.5 2h-16.5h-19.5t-23.5 -2q-3 0 -15 -1t-27 -2q-22 -2 -45.5 -4t-33.5 -2z" />
    <glyph glyph-name="period" unicode="." horiz-adv-x="223" 
d="M104 -12q-16 4 -26 21q-3 6 -3 12q0 15 12 24q7 5 15 11t18 10l13 6l13 7q2 1 5 1q5 0 7.5 -3.5t0.5 -8.5q-4 -8 -7 -17l-6 -18q-4 -18 -12 -33t-30 -12z" />
    <glyph glyph-name="slash" unicode="/" horiz-adv-x="361" 
d="M71 -65q-9 0 -16.5 11.5t-7.5 23.5q0 35 25 103t70 155q44 84 101 178t121 179q1 4 7 4t13.5 -9.5t13.5 -21.5t6 -21q0 -3 -3 -9q-7 -9 -17 -24l-24 -36q-28 -42 -63 -97.5t-73 -117.5q-19 -31 -36 -61t-32 -59q-70 -132 -70 -171v-6q1 -2 1 -6q0 -15 -16 -15z" />
    <glyph glyph-name="zero" unicode="0" horiz-adv-x="443" 
d="M106 -9q-65 0 -65 91q0 14 1.5 31t5.5 36q7 38 22.5 82t40 83t59.5 61q6 4 14 8q48 27 59 27q9 0 9 -9q0 -12 -12 -15l-12 -4q-17 -10 -38 -42.5t-41.5 -74.5t-36 -84.5t-21.5 -74.5q-2 -11 -3 -20t-1 -17q0 -35 23 -35q19 0 43.5 15.5t48 38t40.5 42.5q20 24 45 63
t49 84t41.5 87t22.5 71q1 6 1.5 11.5t0.5 10.5q0 34 -26 34q-35 0 -110 -45q-12 -7 -33 -21.5t-43 -31t-37 -28.5l-13 -10q-5 -4 -14.5 -13t-21 -17t-23.5 -8v-10q-9 0 -9 10q2 12 15.5 30t34 39t43 40.5t41.5 33.5q15 12 44 27t63 26t63 11q64 0 79 -59q2 -8 3.5 -16.5
t1.5 -18.5q0 -9 -1.5 -18.5t-3.5 -20.5q-9 -42 -29 -88q-21 -45 -50.5 -89t-64.5 -85q-16 -20 -34 -37.5t-36 -33.5q-39 -32 -73 -49.5t-62 -17.5z" />
    <glyph glyph-name="one" unicode="1" horiz-adv-x="189" 
d="M52 -27q-14 0 -19.5 18t-5.5 41q0 20 2.5 39.5t5.5 31.5q8 33 23 71.5t38 84.5q12 25 29 56.5t32 59.5q-15 -16 -27 -27.5t-15 -11.5l-5 6l1 4q0 4 14 23.5t45 62.5q29 39 49 61t27 22t19.5 -4.5t23 -12t8.5 -15.5q0 -6 -2 -8q-8 -11 -17 -24.5t-20 -29.5
q-21 -32 -44 -71t-46 -82q-12 -22 -22.5 -43l-20.5 -41q-20 -41 -35 -78t-22 -65q-1 -4 -1.5 -9.5t-0.5 -13.5v-7q0 -13 -3 -28q-5 -10 -11 -10z" />
    <glyph glyph-name="two" unicode="2" horiz-adv-x="387" 
d="M13 -27q-12 2 -22.5 15.5t-12.5 18.5l2 6q58 37 119.5 87t118.5 106q59 57 109 119t84 120l6 17q0 6 -6 7q-6 0 -8 -1q-1 0 -3.5 -0.5t-4.5 -0.5q-22 -7 -60 -24.5t-76 -37.5q-22 -12 -47 -28.5t-43.5 -32.5t-20.5 -28l-2 -4q10 -2 8 -14q0 -4 -4 -6.5t-9 -2.5
q-13 0 -26 16t-13 29q0 20 38 50.5t99 61.5q35 18 73 32t69.5 21t56.5 7q29 0 45.5 -13.5t14.5 -39.5l-2 -3l-1 -6q-6 -26 -31 -61q-52 -70 -146 -155l-44 -38t-44 -37q-27 -22 -52.5 -41t-47.5 -34q48 17 99 29.5t89 10.5q20 -2 34.5 -9.5t12.5 -30.5q0 -9 -9 -24.5
t-15 -17.5h-2q-6 0 -8 11q-1 8 -3.5 10.5t-10.5 2.5q-17 0 -46 -6t-60 -14.5t-56 -16.5q-42 -13 -76 -25.5t-58 -22.5l-4 -1q-1 -1 -4 -1z" />
    <glyph glyph-name="three" unicode="3" horiz-adv-x="432" 
d="M136 -33q-46 0 -72.5 32t-26.5 81q0 23 6 48q10 34 27 34q10 0 10 -11q0 -7 -2.5 -14t-4.5 -13q-4 -8 -7 -20t-3 -21q0 -24 16.5 -37.5t46.5 -13.5q23 0 55.5 10.5t54.5 24.5q22 15 49 37.5t49.5 49.5t29.5 54q1 3 1 6v5q0 20 -19 27.5t-45 7.5q-31 0 -52 -4t-43 -15
q-1 0 -2.5 -0.5t-2.5 -0.5q-12 0 -21 30q-2 6 -4 11t-4 8l3 8q40 5 81 26t79 43q11 6 33 19.5t42 30.5t23 30l1 4q0 6 -11 9q-8 2 -18 3.5t-22 1.5q-32 0 -44 -2q-16 -3 -44 -10.5t-52 -20t-29 -31.5q-1 -2 -1 -7q1 -2 1 -5q0 -16 -13 -16q-6 0 -10.5 10t-6.5 22.5t-1 20.5
l1 5v5q7 26 34.5 44.5t67.5 25.5q11 2 31 4t32 3h1q4 0 7 -2.5t4 -4.5v8q56 0 87 -16.5t31 -48.5q0 -11 -3 -16q-8 -27 -30.5 -51.5t-50 -43.5t-52.5 -32q28 -13 45 -43t17 -63q0 -12 -3 -26q-10 -40 -40 -76t-70.5 -64t-82 -44t-73.5 -16z" />
    <glyph glyph-name="four" unicode="4" horiz-adv-x="394" 
d="M212 -55q-17 0 -23.5 15t-6.5 36t5 43t10 34h-2q8 30 20 57.5t26 57.5h-7q-43 0 -88.5 -13.5t-88.5 -24.5q-12 -3 -26 -9q-4 -2 -5 -2h-1q-8 0 -14 13.5t-6 27.5q0 11 7.5 26t23.5 33q26 31 61 64.5t75 65.5q21 17 41 32.5t39 29.5q41 32 70 50t42 21l9 2q2 0 4.5 0.5
t5.5 0.5q12 0 17 -6l5 10q6 16 17 16q10 0 17 -14.5t10 -31.5t1 -25q-4 -10 -19.5 -39t-34.5 -65t-36 -68q-8 -14 -14.5 -26.5t-11.5 -21.5q14 -3 31.5 -12.5t30 -22t9.5 -27.5q-4 -13 -19.5 -31.5t-31.5 -18.5q-8 0 -8 12q2 6 6 12.5t8 12.5q5 7 8.5 13t4.5 11q0 2 -17.5 5
t-36.5 3l-5 -1q-9 -15 -23 -42.5t-28.5 -59t-26 -59.5t-15.5 -44q-4 -11 0 -15q8 -6 6 -16l-1 -1q-1 -3 -6 -5.5t-8 -2.5zM162 288q-18 -16 -37 -32.5t-39 -33.5q87 23 160 23l13 -1h10l123 240q-14 -5 -39.5 -28t-52.5 -47q-13 -12 -24.5 -22.5t-20.5 -18.5
q-23 -19 -46.5 -39t-46.5 -41z" />
    <glyph glyph-name="five" unicode="5" horiz-adv-x="369" 
d="M57 -65q-17 0 -37 9.5t-33.5 26.5t-13.5 39q0 4 0.5 8t1.5 8q1 3 5 13.5t10 21.5t12 17t11 0v-6l-2 -7q-1 -2 -1 -6q-3 -16 -3 -30q0 -50 41 -50q22 0 46.5 11.5t48.5 31.5q19 16 44 41.5t50 56.5t44.5 64.5t26.5 65.5q3 15 3 26q0 37 -35 37q-23 0 -52 -14t-54.5 -36
t-39.5 -46l-4 -3q-5 0 -10 9t-7.5 20t-1.5 17l51 105l4.5 9t4.5 10l19.5 39l19 38t11.5 21q6 17 17 17q7 0 14.5 -1.5t14.5 -3.5q9 -3 18 -5t19 -2q40 0 72.5 1.5t68.5 12.5q6 1 9.5 1.5t5.5 0.5h3q9 0 7 -8q-1 -3 -3 -6t-4 -5l-5 -6q-35 -36 -80.5 -51.5t-80.5 -15.5
q-9 0 -30 3.5t-32 9.5l-43 -92q40 17 79 17q43 0 70.5 -32t27.5 -79v-8.5t-1 -9.5q-12 -48 -41.5 -98.5t-71.5 -92.5t-91.5 -68t-102.5 -26z" />
    <glyph glyph-name="six" unicode="6" horiz-adv-x="390" 
d="M95 -27q-43 0 -65.5 26.5t-22.5 75.5q0 7 0.5 15t1.5 16q5 36 24 79q21 45 50.5 92t64.5 90q17 22 35.5 42t37.5 37q84 79 136 79q13 0 26 -8.5t21.5 -20.5t6.5 -23q0 -5 -2 -9.5t-7 -3.5q-9 4 -11 14q-1 3 -9 3q-16 0 -45.5 -18.5t-64.5 -50.5q-7 -7 -17 -16.5
t-21 -21.5q-44 -44 -97 -114q-25 -33 -45 -66q-53 -83 -53 -136q0 -20 8 -28.5t25 -8.5q16 0 39 12t48 29.5t45 35.5q21 19 41.5 41.5t35 45t17.5 40.5v6q0 18 -18 18q-12 0 -37.5 -12.5t-53.5 -32t-50 -41t-29 -38.5q-1 -4 -4 -10.5t-8 -6.5q-8 0 -8 13l1 10q4 27 21.5 54
t43 49.5t54 36t55.5 13.5q40 0 64 -28.5t19 -69.5q-6 -40 -33.5 -77.5t-66.5 -67t-80 -47t-73 -17.5z" />
    <glyph glyph-name="seven" unicode="7" horiz-adv-x="343" 
d="M88 -45q-17 0 -26 12.5t-9 34.5q0 13 3 28q5 25 18 54.5t27.5 57.5t25.5 45q28 47 65.5 97.5t76.5 94t70 68.5h4q-3 1 -7.5 1h-9.5q-26 0 -66 -8t-78.5 -22.5t-59.5 -34.5q-4 -4 -9 -15t-9 -22q-2 -6 -4 -11.5t-7 -5.5q-16 0 -13 27l8 50q2 5 3 9.5t2 8.5q2 5 3 8t2 5
l1 2q31 18 73.5 34t85 26t74.5 10q22 0 46.5 -10.5t41.5 -28.5t15 -40l-1 -7q-31 -21 -60 -44.5t-58 -51.5q-10 -9 -31.5 -32.5t-45.5 -51t-43 -50.5q-12 -15 -23 -30.5t-22 -30.5q-24 -34 -38 -62.5t-19 -48.5l-1 -7q0 -7 2.5 -14t3.5 -13q5 -12 5 -19v-1q-3 -12 -16 -12z
" />
    <glyph glyph-name="eight" unicode="8" horiz-adv-x="397" 
d="M125 -22q-23 0 -49 8.5t-44 25.5t-18 44q0 29 19 56t48 52.5t57 48.5q19 15 37 31q-38 44 -38 94v8.5t1 8.5q5 33 34.5 62t70.5 50.5t81 34t65 12.5q35 0 50 -20l4 7l7 15q5 15 12 15q8 0 10 -12t0 -24q-6 -38 -34.5 -72.5t-65.5 -66.5q-16 -13 -35.5 -28.5t-38.5 -30.5
q-18 -13 -34 -25.5t-28 -23.5q23 -25 45 -58t22 -73q0 -39 -24.5 -70.5t-65 -50t-88.5 -18.5zM212 276q15 14 35.5 30t39.5 31q11 8 21 16t18 14q27 23 52 47t45 52l-2 1q-24 0 -59.5 -13t-71 -33.5t-60.5 -45.5t-29 -50q-1 -4 -1 -11q0 -18 12 -38zM93 25q17 0 35 3t26 7
q31 15 58.5 39.5t32.5 53.5q3 12 -5 33t-19 38.5t-19 18.5q-16 -9 -38 -31t-44.5 -49t-38 -53.5t-18.5 -45.5q-3 -14 30 -14z" />
    <glyph glyph-name="nine" unicode="9" horiz-adv-x="349" 
d="M207 -47q-18 0 -27.5 14t-9.5 39q0 11 2 22.5t5 25.5q9 35 27.5 79.5t41 89.5t44.5 81q-28 -26 -61.5 -53t-66 -45t-56.5 -18q-25 0 -38 15.5t-13 42.5q0 8 1.5 16.5t3.5 18.5q8 32 34.5 68.5t63.5 70.5t75 60t68 38q5 1 8 1.5t5 0.5q16 0 30 -10.5t21.5 -25.5t4.5 -30
q-10 -29 -30 -32q-4 8 -6 15.5t-2 13.5q-1 10 -2.5 14.5t-9.5 4.5q-12 0 -32.5 -13.5t-42.5 -33.5t-41 -39q-20 -21 -41 -47.5t-37 -52.5t-21 -46q-4 -19 1 -19q10 0 29.5 11t42.5 27t40 30q16 13 35.5 30t36.5 32t23 20q6 6 12 15q23 27 35 38.5t19 11.5q11 0 23.5 -5
t12.5 -13q0 -4 -14 -29l-74 -135q-22 -42 -44 -85q-25 -52 -40 -88.5t-21 -60.5q-5 -17 -5 -25q0 -14 10 -14l4 1q1 0 3 0.5t3 0.5q9 0 9 -7q-1 -8 -13 -14.5t-26 -6.5z" />
    <glyph glyph-name="colon" unicode=":" horiz-adv-x="260" 
d="M209 168q-23 0 -31 22q-3 5 -3 12q0 14 12 23q7 5 14.5 10.5t17.5 9.5l14 7q2 1 5.5 3t7.5 4q2 2 5 2q5 0 8 -4.5t-1 -9.5q-4 -7 -7 -16t-6 -19q-4 -16 -10.5 -30t-25.5 -14zM101 -12q-23 0 -31 22q-3 5 -3 12q0 14 12 23l15 11q4 3 8.5 5.5t8.5 4.5l13 6l13 7q4 2 5 2
q5 0 8.5 -4.5t-0.5 -9.5q-4 -7 -7 -16t-6 -19q-4 -16 -10.5 -30t-25.5 -14z" />
    <glyph glyph-name="semicolon" unicode=";" horiz-adv-x="281" 
d="M228 168q-14 4 -25 21q-3 5 -3 11q0 13 12 25q3 3 7 5.5t8 5.5l17 9q4 2 7.5 4t6.5 3l14 7q2 2 5 2q5 0 8 -4.5t-1 -9.5q-4 -7 -7.5 -16t-5.5 -19q-4 -17 -12 -32t-31 -12zM86 -111q-14 -7 -17 1q-2 6 2 10l33 38q41 41 58 86q3 9 3 15q0 5 -2 9q-3 5 -3 9q0 6 8 6
q5 0 11 -2.5t10 -5.5q19 -15 19 -42q0 -11 -3 -23q-10 -29 -43 -50t-65 -38q-3 0 -4 -4q-1 -3 -3 -5z" />
    <glyph glyph-name="less" unicode="&#x3c;" horiz-adv-x="320" 
d="M214 73l-7 2q-10 19 -37 43.5t-56 48t-48 36.5q-1 1 -1.5 2.5t-1.5 2.5q-7 2 9.5 17t46.5 37t65 45t66 41.5t48 26.5q16 8 27 8q13 0 13 -10q0 -4 -3 -10q0 -1 -23 -18.5t-58.5 -43.5t-73.5 -54q-11 -9 -18 -14t-10 -8q13 -13 31 -35.5t32 -46.5t14 -44q0 -18 -15 -26z
" />
    <glyph glyph-name="equal" unicode="=" horiz-adv-x="397" 
d="M128 233q-8 0 -10 1h-1q-10 0 -3 13q36 50 53 50h2l3 -1q13 -11 80 -11q15 0 43.5 1.5t55 3.5t34.5 3q6 0 6 -7l-1 -3q-9 -12 -15.5 -19.5t-9.5 -9.5q-12 -6 -40.5 -10t-64 -6.5t-67.5 -3.5t-50 -1h-15zM72 116h-13t-9 1h-2q-4 0 -5.5 4t1.5 9q16 21 31 35t22 14h4
q9 -11 81 -11q17 0 45 1.5t53.5 3.5t34.5 3l1 -10l1.5 1t2.5 1v1v0v-1l-1 -1q-1 -4 -10 -16t-11 -14l-2 -1q-13 -5 -42 -9t-64 -6.5t-67 -3.5t-51 -1z" />
    <glyph glyph-name="greater" unicode="&#x3e;" horiz-adv-x="378" 
d="M87 83q-13 0 -13 10q0 4 3 10q2 6 71 55l16 11q16 11 35 24.5t36.5 26t26.5 20.5q-12 12 -30.5 34.5t-32.5 48t-14 44.5q0 16 13 25l7 -1q11 -18 36 -41.5t54 -46.5t51 -41q4 -4 4 -9l-1 -3q-5 -8 -29 -26.5t-61 -44.5q-35 -24 -74 -48.5t-71 -39.5q-18 -8 -27 -8z" />
    <glyph glyph-name="question" unicode="?" horiz-adv-x="311" 
d="M192 120q-11 0 -19.5 8.5t-10.5 21.5v11q0 9 1 13q9 39 57 92q23 26 49.5 59.5t50.5 68.5q22 36 28 60q1 5 1.5 10.5t0.5 10.5q0 43 -37 43q-26 0 -51.5 -20.5t-44.5 -47.5t-28 -48q-7 -18 -14 -18q-8 0 -8 15q0 10 4 19q23 64 70.5 99t111.5 35q79 0 79 -68
q0 -37 -18.5 -71t-45 -62.5t-52.5 -49.5l-58 -45q-13 -11 -25.5 -25t-23.5 -33q-2 -4 -3.5 -7.5t-3.5 -7.5l-4 -12q-1 -4 -1 -10q0 -13 9 -18q6 -3 6 -10q-4 -11 -13 -12q-2 -1 -7 -1zM121 -12q-16 4 -26 21q-3 6 -3 12q0 15 12 24q7 5 15 11t18 10l13 6l13 7q2 1 5 1
q5 0 7.5 -3.5t0.5 -8.5q-4 -8 -7 -17l-6 -18q-4 -18 -12 -33t-30 -12z" />
    <glyph glyph-name="at" unicode="@" horiz-adv-x="568" 
d="M244 -7q-71 0 -109 36q-44 46 -44 119q0 39 14 87q19 62 58 115q44 60 100.5 92.5t115.5 32.5q66 0 106 -29q61 -46 61 -128q0 -16 -3 -33q-4 -24 -11 -46.5t-18 -43.5q-24 -46 -60 -72.5t-75 -26.5q-26 0 -37 14.5t-11 33.5q0 13 4 29q-21 -26 -46.5 -46t-51.5 -20
q-25 0 -35.5 14t-10.5 36t9.5 48.5t22.5 48.5q19 30 46 57t57.5 44.5t59.5 17.5q44 0 61 -23q9 -13 9 -27q0 -10 -4 -16.5t-10 -6.5q-8 0 -14 16q-9 24 -29 24q-32 0 -79 -50q-26 -26 -45.5 -57t-29.5 -56q-10 -21 -10 -33q0 -8 7 -8q9 0 33 18q16 13 35.5 32.5t36.5 39.5
t25 32l12 20q10 10 28 10q12 0 19.5 -5t2.5 -15l-9 2l-30 -76q-20 -45 -20 -61q0 -11 9 -11q27 0 49 23q48 50 59 139q1 8 1.5 16t0.5 15q0 12 -1.5 24t-3.5 23q-20 82 -94 82q-50 0 -97 -31q-45 -31 -80 -78t-55 -103q-19 -54 -19 -102q2 -107 96 -107q38 0 66 16t54 33
l8 -5q-7 -33 -42 -53.5t-82 -20.5z" />
    <glyph glyph-name="A" unicode="A" horiz-adv-x="707" 
d="M496 -233q-13 0 -26 5t-25 15q-13 12 -19 30.5t-6 40.5q0 32 8 68t18.5 70.5t18.5 59.5q7 21 18 51.5t23.5 62.5t21.5 55q-12 -1 -34.5 -3.5t-47.5 -5.5t-44.5 -5.5t-24.5 -4.5q-10 -10 -23 -23.5t-27 -28.5q-19 -21 -39 -42t-38 -38q-89 -82 -161 -82q-56 0 -83 37.5
t-27 90.5q0 31 9 64.5t28 64.5q20 35 52.5 75t72.5 75t83 57t83 22q11 0 21.5 -3t5.5 -13l-17 -2q-25 -3 -59 -23q-33 -19 -66.5 -49.5t-65.5 -68.5q-16 -19 -29.5 -38.5t-25.5 -39.5q-53 -84 -53 -152q0 -29 14 -45t37 -16q24 0 53 17q44 26 71 51.5t52 53.5q7 8 15 17
t17 19l-23 -5q-13 -3 -24.5 -4t-21.5 -1q-31 0 -46.5 11t-15.5 24q0 23 31 38q11 4 22 6.5t21 4.5l36 7q1 0 1.5 0.5t1.5 0.5q7 0 7 -6q0 -7 -7 -7q-4 -1 -11 -4q21 2 51 6.5t43 7.5q45 43 91 103t87.5 124t70.5 119l35 67l42 80q4 9 9 9t7 -5.5t-1 -11.5
q-49 -115 -110 -236.5t-142 -242.5q5 1 12.5 1t14.5 1q41 1 62 2t27 2q16 39 35 90.5t35 106t25.5 103.5t6.5 83q4 2 8.5 5.5t9.5 7.5q11 8 21 8q26 0 36.5 -26.5t10.5 -54.5q0 -25 -9 -60t-22.5 -73t-29.5 -74q-24 -55 -43 -94q-3 -6 -5.5 -11.5t-4.5 -9.5q27 -1 56 -8
t49.5 -21.5t20.5 -40.5q0 -16 -5 -23.5t-10 -7.5q-4 0 -6.5 4t-0.5 11q3 5 0 10q-7 11 -29 15.5t-49 5t-49 0.5q-9 -16 -24.5 -51t-32.5 -76.5t-31 -78.5t-20 -58q-30 -97 -30 -133q0 -19 9 -21q20 -4 41 12.5t43 37.5q10 8 19 16.5t18 15.5q6 2 7 2q5 0 6.5 -4t-3.5 -9
l-1 -1q-5 -5 -13.5 -18.5t-16 -27.5t-11.5 -21q-20 -41 -62 -41z" />
    <glyph glyph-name="B" unicode="B" horiz-adv-x="865" 
d="M247 -195q-7 0 -10 1q-13 5 -18 24.5t-5 47.5q0 41 8 87t16 72q-15 8 -30.5 25t-20.5 31q-1 2 -1 5v5t-0.5 4t-0.5 3q0 15 10 15q9 0 9 -8q1 -4 5 -10.5t8 -10.5q8 -8 17 -15t14 -11q8 23 27 62q23 47 54.5 107.5t67.5 130.5l71 137q25 48 47 91.5t38 78.5
q-9 -14 -19 -30t-19 -31q-4 -7 -8.5 -14.5t-9.5 -14.5q-13 -22 -27 -45t-28 -47q-62 -107 -121 -178q-16 -19 -33.5 -36.5t-36.5 -32.5q-85 -64 -174 -61q-34 2 -56.5 32t-22.5 66q0 19 7 36q10 23 31.5 49t47.5 49.5t49 35.5q2 1 5 1q7 0 7 -6q0 -4 -4 -10
q-13 -12 -29 -36.5t-30 -52.5t-22 -53q-7 -24 -7 -45q0 -40 29 -40q37 0 80 29q83 59 177 181q23 29 43.5 58t39.5 57l20 28t20 30q26 36 49.5 71t38.5 54q17 20 26 31t27 11q19 0 26.5 -12t7.5 -29q0 -18 -5.5 -37t-11.5 -33q-37 -77 -78 -153l-82 -152q-40 -75 -78 -151
t-67 -154l38 -7q17 47 33.5 89.5t36.5 89.5q21 49 49 107t67 136q16 33 37.5 73.5t48 78.5t59 62.5t69.5 24.5q38 0 62 -24t24 -59q0 -11 -3 -25q-11 -53 -56.5 -106.5t-110.5 -89.5q92 -16 146.5 -58.5t54.5 -98.5q0 -45 -22 -79q-41 -68 -141 -109q-48 -19 -101 -30
q-77 -17 -153 -17q-29 0 -58 3q-8 -29 -23 -66t-36.5 -69.5t-49.5 -50.5q-24 -12 -39 -12zM403 33q17 -1 36 -0.5t39 2.5q44 4 86.5 14.5t79.5 26.5q38 17 66 39q62 51 62 115q0 53 -39.5 89.5t-102.5 43.5l-12 -17q-5 -6 -10 -12.5t-7 -8.5q-4 -7 -10 -7q-8 0 -15 12.5
t-7 27.5q0 18 10 29q5 7 19.5 9.5t30.5 0.5l28 33q24 29 49 61.5t42 68.5t17 74q0 29 -19 29t-42 -18q-23 -19 -46.5 -48.5t-46.5 -65.5q-12 -18 -22 -35l-20 -34q-19 -34 -32 -62t-19 -41q-54 -124 -81 -213zM262 -163q8 0 25.5 35.5t45.5 109.5q4 8 6.5 15t4.5 12
q-24 2 -41 7q-4 -8 -10.5 -25t-12 -35t-7.5 -29q-4 -18 -7 -39t-4 -36t0 -15z" />
    <glyph glyph-name="C" unicode="C" horiz-adv-x="662" 
d="M258 -88q-86 0 -135.5 54.5t-49.5 148.5q0 11 0.5 21t1.5 21q11 95 57.5 185t124.5 166q-40 8 -86.5 21.5t-87.5 33.5t-67.5 47t-26.5 62q0 27 26 43.5t67 16.5q34 0 78.5 -11t87.5 -28t70 -35q4 -3 10 -8.5t6 -13.5q0 -7 -6.5 -10t-11.5 1q-49 26 -114.5 41t-125.5 15
q-37 0 -37 -18q0 -16 23 -39q41 -38 101 -61t119 -34q36 31 74.5 56t79.5 44q117 51 263 51q62 -4 96.5 -24t34.5 -55t-33.5 -60t-97.5 -39q-30 -6 -65 -10t-67 -5.5t-53 -1.5q-38 0 -76 1t-76 5q-32 -28 -60.5 -60.5t-53.5 -70.5q-66 -105 -84 -208q-4 -18 -5.5 -36
t-1.5 -36q0 -137 111 -137q34 0 76 15q80 31 161 104q19 17 35.5 35.5t30.5 37.5q63 85 63 154q0 18 -8.5 25.5t-28.5 7.5q-25 0 -55 -15q-57 -29 -124 -97q-16 -16 -29 -32.5t-24 -32.5q-51 -71 -51 -118q0 -9 -4 -16.5t-12 -7.5q-13 0 -13 20q0 29 11.5 60.5t22.5 56.5
q20 37 49 76.5t65.5 73.5t78 55t85.5 21q89 0 89 -78q0 -71 -36 -140t-102 -125q-64 -53 -140 -83t-150 -30zM420 522q45 0 96.5 4t103 13t93.5 23q11 3 22.5 7t21.5 9q8 5 20.5 13.5t12.5 16.5q0 11 -21.5 16t-61.5 5q-169 0 -310 -107h23z" />
    <glyph glyph-name="D" unicode="D" horiz-adv-x="950" 
d="M227 -134q-29 0 -29 41q0 8 1 17.5t3 19.5q6 28 21 73t35 95.5t40.5 97t36.5 76.5q14 28 32.5 69t37.5 87t34.5 90t24.5 78q-26 -56 -57.5 -100.5t-67.5 -83.5q-21 -22 -50.5 -51t-63 -56t-66 -45t-58.5 -18q-84 0 -92 65v8q0 17 7 20q2 1 4 1q10 0 10 -14q0 -10 3.5 -21
t14.5 -11q14 0 45 8t69 30q48 27 112.5 83.5t143.5 159.5q11 16 21 34l20 36q13 25 25.5 46t27.5 28q13 5 21 5q19 0 29.5 -15.5t10.5 -42.5q0 -13 -3 -30q-3 -15 -17 -50q-13 -33 -32 -74.5t-42 -88.5l-45 -90q-7 -16 -16.5 -32.5t-17.5 -33.5l-40 -77q-9 -20 -24.5 -52.5
t-30.5 -66t-25 -57.5q-8 -19 -18.5 -43.5t-19 -44.5t-10.5 -27q-3 -9 -5 -13t-2 -5l9 17q2 2 5.5 9.5t8.5 19.5q3 6 7 15t8 19l56 123q12 26 25 52.5t26 54.5q28 56 58 112t62 106q48 75 88 131t77 93q76 75 156 75q57 0 100.5 -33t68 -91t24.5 -134q0 -34 -6.5 -68.5
t-18.5 -68.5q-25 -67 -67.5 -130.5t-101.5 -120.5q-28 -28 -58.5 -52t-63.5 -45q-68 -43 -137.5 -65.5t-131.5 -22.5q-47 0 -77 13q-31 13 -41 21q-10 12 -10 19t6 7t14 -5q8 -6 34 -9.5t62 -3.5q51 0 106.5 24.5t109.5 64.5t100 87t76 91q63 93 96 176.5t33 148.5
q0 73 -29 111.5t-85 38.5q-24 0 -50.5 -14t-52.5 -36t-48 -46t-38 -44q-86 -115 -166.5 -239t-136.5 -263q-6 -16 -15.5 -43t-22 -54.5t-27 -46.5t-30.5 -19z" />
    <glyph glyph-name="E" unicode="E" horiz-adv-x="696" 
d="M161 -99q-16 0 -32 1t-32 3q-54 8 -84 39.5t-30 76.5q0 19 4 35q9 33 38 67t70.5 66.5t89 59t95.5 44.5q-48 5 -76 30t-28 65q0 62 39 120q-57 8 -103.5 21t-71.5 28q-14 11 -14 18q0 6 9 6q8 0 19 -4q32 -16 79 -26t105 -15q35 38 84 68t104 51t108.5 32t96.5 11
q25 0 56 -7.5t54 -24t23 -44.5q0 -49 -62.5 -80.5t-175.5 -43.5q-25 -2 -52 -3.5t-53 -1.5q-33 0 -66.5 2t-65.5 5q-28 -27 -48 -57t-20 -60q0 -28 30.5 -49t75.5 -21q14 0 30 3t30 6q23 5 33 5q13 2 24 -12.5t11 -28.5q0 -15 -16 -15q-14 -1 -30.5 -4.5t-35.5 -9.5
q-72 -21 -147 -68q-19 -12 -36 -24t-33 -25q-69 -56 -98 -112q-8 -16 -8 -26q0 -37 95 -37q34 0 79 8t93 22.5t91 32.5q24 11 57 32t64.5 46.5t52 52.5t20.5 51q0 14 -20 14q-17 0 -43.5 -9t-56.5 -24t-57.5 -33.5t-47.5 -37.5q-10 -9 -20 -9q-11 0 -11 12t15 26
q12 11 36 29.5t54.5 38t60.5 33t54 13.5q79 0 79 -71q0 -33 -19 -65.5t-49.5 -61.5t-64.5 -52.5t-63 -37.5q-58 -31 -133.5 -52.5t-155.5 -21.5zM417 586q-17 -10 -39.5 -23.5t-45.5 -29.5q101 0 194 14q82 11 135 32t53 42q0 17 -99 17q-56 -1 -108 -17t-90 -35z" />
    <glyph glyph-name="F" unicode="F" horiz-adv-x="619" 
d="M316 -179q-6 0 -12 6q-13 15 -20 41.5t-7 59.5t8 75q19 103 105 273q-40 -6 -86 -12.5t-85.5 -11.5t-60.5 -5q-14 1 -22 10t-8 19q0 16 15 28q19 10 37 11l17.5 3.5t14.5 2.5h2q5 0 6.5 -5t-5.5 -6q-4 -1 -9 -4q47 6 101 11t110 9q32 59 66 113t65 99q31 46 57 78.5
t42 46.5q2 3 7 7q-19 -1 -40.5 -3t-46.5 -5q-122 -17 -241 -58q-31 -10 -57.5 -22t-49.5 -26q-104 -60 -107 -128q0 -11 3.5 -22t23.5 -17q10 -3 10 -9q0 -8 -12 -8q-11 0 -30.5 4.5t-39.5 14t-34 25t-14 36.5q0 48 41 86q35 32 91 57.5t129 44.5q67 17 127 27q33 6 66 10.5
t59 7t38 3.5q16 1 40.5 2t47 2t31.5 1q30 17 51 17q25 0 25 -21q0 -10 -9 -26t-29 -33q-32 -31 -70 -80.5t-76.5 -107.5t-72.5 -115h4q56 0 86.5 -13.5t30.5 -40.5q0 -8 -3 -17q-7 -16 -15 -12q-6 4 -3 13q3 4 1 10q-7 11 -25 16t-40 6t-41 -1l-18 -2q-34 -60 -66 -124.5
t-56 -126t-37 -111.5q-6 -22 -8.5 -38.5t-2.5 -27.5q0 -15 5 -23q3 -3 3 -7q0 -7 -7 -7z" />
    <glyph glyph-name="G" unicode="G" horiz-adv-x="644" 
d="M35 -368q-39 0 -59.5 17.5t-20.5 48.5q0 26 15.5 59.5t48.5 71.5q35 41 91.5 86.5t124.5 86.5q69 42 136 71t120 40q21 44 32 88t11 77q0 14 -1.5 26t-6.5 21l-8 -17q-4 -10 -15 -27q-21 -38 -52.5 -80.5t-72 -79.5t-89 -60.5t-104.5 -23.5q-7 0 -15.5 0.5t-16.5 1.5
q-56 7 -88 43t-32 93q0 7 0.5 15t1.5 15q8 68 42.5 138t84 132t103.5 105q65 53 135 81.5t135 28.5h18t18 -2q35 -5 55 -25.5t20 -49.5q0 -12 -5 -27q-11 -37 -39 -78.5t-66 -79.5q-16 -16 -47 -40t-68.5 -48t-74 -40t-62.5 -15h-2q-10 0 -10 9q0 7 6 8q65 24 122 65
t113 104q7 8 19 24t24 34t19 32q8 16 12 29.5t4 24.5q0 23 -18 35q-11 7 -28 7q-31 0 -73.5 -21.5t-85.5 -53.5t-77 -63q-17 -15 -41 -44q-52 -61 -103 -143q-13 -21 -24 -41t-19 -40q-13 -30 -20.5 -56t-7.5 -48q0 -16 5 -31q18 -49 66 -49q32 0 70 19q26 12 54 30.5
t52 36.5t37 30q57 53 87.5 92t47.5 63q-1 0 -1.5 0.5t-1.5 0.5q-13 1 -13 12t14 15q11 0 29 -3t30 -17q24 -27 24 -87q0 -58 -33 -138q57 -2 84 -29q4 -5 4 -12q0 -10 -8 -10q-4 0 -8 4q-6 8 -39 8q-19 0 -51 -3q-86 -186 -217 -304q-49 -44 -103 -76.5t-107 -51.5
q-46 -15 -81 -15zM25 -336q37 0 93 34q45 28 97 73.5t104 103.5q45 50 82.5 99t61.5 88q-47 -15 -102.5 -40t-111.5 -57t-105.5 -68.5t-84.5 -72.5q-39 -40 -56.5 -72t-17.5 -53q0 -35 40 -35z" />
    <glyph glyph-name="H" unicode="H" horiz-adv-x="873" 
d="M673 -64q-19 0 -29 38q-14 17 -40.5 42.5t-59 53t-65.5 48.5q-29 3 -46.5 15t-17.5 30q0 23 16 26t33 2q5 -1 9.5 -1h8.5q41 -1 75 -2.5t65 -1.5q20 0 38 0.5t36 1.5q20 44 44.5 94.5t52.5 100.5q21 41 49.5 87t59.5 91t60 81.5t53 57.5q14 12 37 29.5t48 31t43 13.5
q14 0 14 -12q0 -7 -9 -6q-5 1 -14.5 -5t-26.5 -23q-4 -4 -7.5 -7t-7.5 -6q-54 -57 -95 -116.5t-76 -124.5t-72 -137q-16 -34 -33 -71t-33 -74q49 2 76.5 -4.5t25.5 -22.5q-5 -15 -20 -12l-17 3l-16 5q-7 2 -13.5 4t-15.5 2h-6.5t-8.5 -1l-18 -3q-24 -55 -40.5 -102.5
t-21.5 -73.5q-6 -25 -15.5 -38t-19.5 -13zM133 230q-37 -1 -60 19.5t-23 56.5v6q0 17 8 21q2 1 5 1q9 0 9 -13q0 -33 18 -33q13 0 44.5 8t68.5 30q48 27 112.5 83.5t143.5 159.5q11 16 22.5 36t21.5 40q12 24 24 44.5t22 27.5q11 6 19 6q16 0 16 -16q0 -6 -4.5 -14
t-13.5 -15q-6 -4 -15.5 -13t-17.5 -19q5 2 12 0q34 -10 34 -53q0 -11 -2.5 -24.5t-8.5 -28.5q-13 -46 -52.5 -123t-95.5 -179q-19 -37 -42 -78q-46 -86 -74 -152.5t-43 -116.5q-10 -33 -16 -64.5t-6 -50.5t4 -29t10 -14q12 -7 18 -9q8 -3 8 -8q0 -9 -13 -9q-24 0 -48.5 9.5
t-41.5 50.5q-10 24 -10 61q0 38 9.5 79.5t24 78t27.5 59.5q20 37 44.5 75t48.5 73q8 12 17 25l18 26q14 20 26.5 38t19.5 30l22 35q16 25 35 57t38 69q10 19 18 36t14 33q16 39 16 62q0 18 -10 26q-7 4 -7 8q-3 -5 -5 -9q-33 -78 -70 -140.5t-77 -103.5q-29 -31 -67.5 -67.5
t-83 -62t-91.5 -25.5zM638 21q1 11 3 21.5t4 19.5q3 13 11 34t20 49q-31 -7 -64.5 -12.5t-64.5 -10.5q22 -21 47.5 -49.5t43.5 -51.5z" />
    <glyph glyph-name="I" unicode="I" horiz-adv-x="584" 
d="M412 -190q-5 0 -10 6q-13 14 -19.5 42.5t-8.5 60t-1 54.5q-10 -3 -22 -5.5t-25 -5.5q-26 -6 -53 -12.5t-48 -11t-30 -5.5q-22 -2 -51 -5t-54 -3q-30 0 -44 6q-13 4 -13 23q0 16 8.5 33.5t18.5 24.5t24 7h5t6 -1q8 -1 15.5 -2.5t14.5 -2.5q6 -2 30.5 -4.5t53.5 -5t52 -4.5
t26 -2q14 0 36.5 1.5t50.5 4.5q3 23 9.5 49.5t15.5 55.5q20 60 48.5 126.5t63.5 133.5q17 33 33 63t32 57q31 54 57.5 94t40.5 56q9 9 17 15q-22 -2 -51 -9q-85 -22 -154 -66q-38 -24 -65 -53q-33 -34 -48.5 -70t-15.5 -73q0 -10 3 -21.5t16 -16.5q7 -3 7 -9q0 -8 -9 -8
q-13 0 -34 9t-37 28.5t-16 49.5q0 49 26 87q50 71 153 113q23 9 45 17t44 14q35 11 67.5 18t45.5 8q9 1 17.5 2t15.5 2l25 4q7 0 11 -4q14 3 24 3q36 0 36 -24q0 -19 -24 -42q-14 -12 -33.5 -38t-41 -58.5t-42 -66.5t-38.5 -64q-30 -53 -63 -115t-63.5 -128t-51.5 -131
q2 1 4 1l1 1q11 2 19.5 3.5t15.5 1.5q17 0 17 -6q0 -4 -12.5 -12t-37.5 -11l-15 -2q-19 -67 -21 -125v-9q0 -22 7 -28q3 -3 3 -7q0 -8 -9 -8z" />
    <glyph glyph-name="J" unicode="J" horiz-adv-x="701" 
d="M47 -245q-77 0 -101 53q-9 20 -9 43q0 35 19 76.5t53 84.5q41 51 109.5 105t149.5 100q83 47 162.5 77t142.5 38q22 50 33 104.5t11 97.5q0 28 -4.5 49t-14.5 32q-49 -5 -100.5 -18t-96 -34.5t-74.5 -52.5t-38 -73q0 -4 -0.5 -7.5t-0.5 -7.5q0 -8 3 -16t13 -13
q6 -4 6 -10q0 -3 -3.5 -5t-8.5 -1q-12 3 -31 14t-34 30.5t-15 44.5v6.5t1 6.5q14 73 101.5 113t243.5 47q0 1 -0.5 2t-0.5 2q0 8 9 11q10 5 22 5q27 0 47 -20q8 0 15 -0.5t14 -1.5l18 -1q12 -1 21.5 -1.5t17.5 -0.5q7 0 13.5 -0.5t12.5 -1.5q17 -4 17 -13q0 -5 -7.5 -8
t-21.5 -1q-18 5 -39 6t-45 1q10 -18 14.5 -42t4.5 -53q0 -85 -38 -190q72 -11 99 -47q7 -10 7 -17q0 -9 -8 -9q-5 0 -10 7q-9 9 -39.5 13.5t-68.5 2.5q-95 -234 -246 -373q-66 -60 -129.5 -93.5t-116.5 -48.5q-43 -12 -79 -12zM31 -206q20 0 45 8.5t54 27.5q79 51 145.5 110
t118.5 120q50 57 87.5 111.5t62.5 100.5q-58 -13 -123 -38t-127 -57q-67 -36 -129 -80t-108 -94q-44 -47 -64 -86t-20 -67q0 -26 15.5 -41t42.5 -15z" />
    <glyph glyph-name="K" unicode="K" horiz-adv-x="654" 
d="M799 -231q-49 0 -87 30q-43 33 -79.5 96.5t-71.5 130.5q-25 50 -50 96t-52 80q-50 -63 -90 -124t-75 -128q-24 -44 -40 -63.5t-30 -19.5q-28 0 -28 41q0 17 4 34q6 27 20.5 70t34 92t38.5 93.5t34 73.5l4 8q-56 2 -106 -31q-8 -5 -13 -5q-7 0 -7 7q0 15 28 29
q14 8 37 16.5t54 8.5h9.5t9.5 -1q17 35 38 84t39.5 99t28.5 88q-24 -51 -53.5 -92t-63.5 -78q-20 -21 -49 -48.5t-61.5 -54t-63.5 -43.5t-57 -17q-39 0 -62.5 16.5t-26.5 46.5v5q0 17 9 21q1 1 4 1q9 0 9 -14q0 -29 18 -29q13 0 42.5 7.5t66.5 27.5q47 26 109 80.5
t138 151.5q14 17 23.5 35.5t17.5 35.5q11 23 22 42t27 26q8 3 15 3q20 0 33 -23t13 -57q0 -14 -3 -29q-3 -18 -19.5 -55t-39.5 -82.5t-47 -90t-42 -77.5q24 -15 45 -33q6 8 12 16.5t12 15.5q7 10 13.5 19.5t13.5 17.5q44 59 101 126.5t121 131.5q148 145 277 201
q15 6 30.5 11.5t30.5 8.5q3 1 5.5 1.5t4.5 0.5q9 0 12 -8q0 -1 0.5 -2t0.5 -3q0 -10 -9 -7q-16 5 -53 -16t-87 -62q-22 -18 -49.5 -43t-50.5 -46.5t-33 -31.5q-14 -13 -39 -39t-57 -59.5t-65 -69.5t-63.5 -70t-53.5 -61q-13 -15 -25 -29t-22 -28q30 -31 63 -76t66 -92
q35 -50 69.5 -96t63.5 -74q29 -25 56.5 -47.5t49.5 -22.5q15 0 25 12q14 14 19 35.5t9 44.5q2 10 3.5 20t3.5 19q3 5 8 5t5.5 -5t0.5 -10q0 -10 1 -18.5t2 -17.5q3 -15 3 -31q0 -13 -5 -27.5t-19 -28.5q-22 -23 -49 -34.5t-56 -11.5zM223 -107l2 4t6 11q4 8 23 39.5t41 65.5
q28 44 64 99.5t79 114.5q-24 24 -42 33l-33 -63q-6 -10 -17 -33.5t-24.5 -51.5t-24.5 -52t-17 -36q-21 -45 -35 -75.5t-16 -37.5z" />
    <glyph glyph-name="L" unicode="L" horiz-adv-x="850" 
d="M-10 -149q-28 3 -45 22t-17 45v7.5t1 7.5q8 36 41 70t89 56.5t130 22.5q18 0 37.5 -1.5t37.5 -6.5q23 26 44.5 58t43.5 68h-10h-9.5t-9.5 1q-79 7 -120.5 43t-41.5 97q0 9 1.5 18t2.5 19q8 51 40 90t75.5 66t87 42.5t74.5 19.5q2 0 3 0.5t2 0.5q11 0 11 -8q0 -9 -14 -11
q-28 -5 -64 -22t-71 -44.5t-60.5 -64.5t-33.5 -82q-1 -7 -1.5 -14.5t-0.5 -14.5q0 -46 30.5 -72.5t94.5 -34.5q4 -1 16 -1h16q30 53 63 108q33 59 68.5 114.5t74.5 105.5q39 51 81 89q94 83 194 83q33 0 51 -20.5t18 -55.5q0 -5 -0.5 -11t-1.5 -13q-14 -72 -57 -143
t-110 -130t-148.5 -97.5t-167.5 -52.5q-30 -45 -57.5 -82t-50.5 -65q29 -9 57 -19t54 -20q18 -7 42 -19t49 -26q17 -8 32.5 -16t28.5 -14q30 -14 59 -23t54 -9q19 0 37 6q13 5 21 33.5t8 77.5q0 26 -3 55t-11 56q0 1 -0.5 1.5t-0.5 1.5q0 6 5 6q7 0 14 -15l12 -20t11 -20
q14 -24 25 -46.5t11 -48.5q0 -14 -5 -32q-7 -25 -33.5 -45.5t-47.5 -27.5q-27 -8 -56 -8q-46 0 -98 14t-99 33t-80 33q-25 11 -60.5 21.5t-72.5 18.5q-28 -28 -64 -57t-75.5 -52.5t-78 -36.5t-72.5 -9zM457 239q67 17 136.5 55t129.5 90q67 58 108 121.5t52 122.5q1 4 1 7v6
q0 35 -37 35q-22 0 -47 -16q-55 -36 -132 -129q-17 -22 -35.5 -45.5t-37.5 -49.5q-35 -48 -70 -98.5t-68 -98.5zM10 -119q34 0 70.5 22t70.5 53.5t62 61.5q-7 0 -14.5 0.5t-13.5 1.5q-56 3 -104.5 -8.5t-81 -32.5t-39.5 -49q-1 -4 -1 -11q0 -17 13 -27.5t38 -10.5z" />
    <glyph glyph-name="M" unicode="M" horiz-adv-x="1065" 
d="M1026 -220q-46 0 -72 28.5t-37 71t-11 85.5q0 27 3 51q5 37 16 81t26 88.5t30 83.5t27 66q23 55 41.5 103.5t24.5 85.5q0 2 0.5 3.5t0.5 2.5q0 11 -10 11q-13 0 -41.5 -23t-59.5 -55q-50 -50 -93 -105.5t-75 -110.5q-71 -122 -71 -218l-5 -5q-63 0 -63 67q0 8 1 17.5
t3 19.5q7 35 22 75.5t25 62.5q3 4 6 14q7 18 17.5 46t20.5 55q14 41 31 88.5t30 94.5q17 56 29 108.5t12 86.5q0 44 -18 44q-26 0 -57.5 -23t-62 -59t-54.5 -74q-49 -79 -83 -150t-60 -145q-14 -40 -33.5 -102t-39.5 -124q-8 -28 -16.5 -54.5t-15.5 -49.5
q-19 -56 -43 -106.5t-56 -81.5t-76 -31q-25 0 -37.5 22t-12.5 59q0 21 4 46.5t12 53.5q27 92 73.5 188.5t96.5 192.5q22 43 49.5 95t54.5 105t49 100q-8 -12 -17 -26t-17.5 -27.5t-15.5 -24.5q-13 -22 -27.5 -45t-28.5 -47q-28 -47 -58 -92.5t-63 -85.5q-16 -19 -33.5 -36.5
t-36.5 -32.5q-85 -64 -174 -61q-34 2 -56.5 31.5t-22.5 65.5q0 18 8 37q11 23 32 49.5t46.5 49.5t48.5 35q2 1 5 1q8 0 8 -7q0 -4 -6 -9q-12 -12 -27 -36.5t-29 -52.5t-23 -53q-4 -13 -6 -24.5t-2 -21.5q0 -39 29 -39q37 0 80 29q44 29 88.5 75t89.5 104q23 29 43.5 57
t39.5 56q17 24 36 51.5t36 53.5q17 25 31.5 46.5t24.5 35.5q7 11 20 26.5t32 15.5t26 -12.5t7 -29.5q0 -18 -5 -37t-10 -32q-31 -63 -62 -121.5t-63 -116.5q-31 -58 -62.5 -116t-60.5 -122q-8 -17 -23 -51t-31.5 -73.5t-29.5 -73.5t-17 -51q-4 -19 -5.5 -33.5t-1.5 -25.5
q0 -32 13 -32q11 0 29 24.5t37 72.5q23 54 37.5 94t27.5 76l24 66q15 39 31 82.5t31.5 84.5t28.5 73q32 78 70.5 154t86.5 144q89 128 183 128q44 0 68.5 -23.5t24.5 -64.5v-12.5t-2 -13.5q-9 -53 -30.5 -121.5t-49.5 -139.5t-56 -133q37 49 82 99t88.5 89t76.5 57
q23 14 46 14q19 0 34 -8.5t22 -24.5q5 -10 6.5 -20.5t1.5 -21.5q0 -26 -9 -55t-24 -61q-4 -10 -10.5 -23.5t-13.5 -28.5q-18 -36 -37.5 -77.5t-30.5 -75.5q-4 -10 -9 -24.5t-11 -32.5q-12 -39 -20.5 -81t-12.5 -83q-1 -8 -1.5 -16.5t-0.5 -16.5q0 -12 1.5 -23t2.5 -22
q13 -76 77 -76q34 0 53 16h1q9 5 16 5q8 0 8 -6q0 -7 -12 -18q-34 -32 -97 -32z" />
    <glyph glyph-name="N" unicode="N" horiz-adv-x="791" 
d="M88 -211q-16 0 -31.5 8.5t-27.5 24.5q-11 17 -11 41q0 36 24.5 89.5t71.5 126.5q19 32 48.5 75t60.5 86q20 29 39 56.5t34 50.5q47 71 85.5 141t57.5 135l3 3q8 5 16 8l-6 -1q-46 -7 -93 -21t-91 -35q-23 -10 -43.5 -22t-37.5 -25q-79 -59 -85 -132q-1 -4 -1 -10
q0 -11 5.5 -18t14.5 -12l2 -1q5 -4 5 -9q0 -8 -12 -7q-12 0 -33.5 9.5t-38.5 28.5t-17 45q0 56 41 97q72 72 205 102q31 7 60 12.5t57 9.5q35 5 70 8t58 4q7 0 12.5 0.5t9.5 0.5h3q16 0 16 -9q0 -12 -25 -12h-22t-24 -1q11 -6 14 -16h2q3 1 8 1q26 -2 26 -26q0 -7 -2 -14.5
t-5 -16.5q-9 -19 -21.5 -57.5t-26 -87t-25.5 -99t-20 -94.5q-15 -87 -15 -148q0 -60 14.5 -92.5t42.5 -32.5q18 0 49 26q64 56 139 187q18 32 34.5 65t32.5 67q30 69 52 138t29 129q1 12 2 28.5t1 33.5q0 13 -1 25.5t-3 22.5q-8 38 -32 38q-16 0 -38 -16q-5 -4 -10 -4
q-6 0 -6 7q0 6 6 16l1 1q10 10 28.5 19.5t37.5 9.5q47 0 73.5 -31.5t26.5 -87.5q0 -52 -19.5 -125t-52.5 -156q-28 -69 -63.5 -138t-74.5 -128q-30 -45 -67 -80.5t-74.5 -56t-69.5 -20.5q-38 0 -60 28q-21 27 -30 72t-9 110q0 23 1.5 45.5t3.5 45.5q5 51 13 102t18 97
q-15 -21 -35 -48l-40 -54l-54 -72q-43 -57 -87.5 -124.5t-88.5 -144.5q-62 -107 -62 -136q0 -8 5 -10q7 -4 16 -4q16 0 35.5 10t40.5 22q12 7 24 13.5t23 10.5q4 2 5 2q7 0 7 -7q0 -5 -7 -8t-18.5 -14.5t-22 -24t-15.5 -18.5q-24 -27 -56 -27z" />
    <glyph glyph-name="O" unicode="O" horiz-adv-x="681" 
d="M210 -135q-59 0 -97 26q-75 50 -90 162q-2 15 -3 30t-1 30q0 11 0.5 23t1.5 23q4 54 18 105t35 90q34 64 84 122t108 104q63 48 126 73.5t120 25.5q72 0 109.5 -37.5t37.5 -105.5q0 -25 -5 -52.5t-14 -58.5q17 -25 25 -57.5t8 -66.5q0 -29 -5.5 -57t-15.5 -52
q-66 -149 -199 -242q-58 -41 -121.5 -63t-121.5 -22zM239 -102q94 0 181 76q96 81 165 240q14 29 28.5 73.5t14.5 82.5q0 6 -1 12q-20 -51 -40 -84q-51 -85 -91 -136.5t-75 -83.5q-30 -28 -69 -51.5t-74 -44.5q-4 -3 -8 -3t-4 5t2 8q5 8 12 14q53 40 104 96.5t95.5 123
t76.5 135.5l2 7q5 11 12 34t11 54l-15 6q-19 8 -42 5l-31 -5h-3q-8 0 -8 6q0 4 3 8q6 8 18 11q10 1 29.5 0t43.5 -9l8 -4q3 24 3 50q0 50 -15 87t-55 37q-110 0 -214 -105q-87 -88 -153 -239q-28 -63 -42.5 -120.5t-14.5 -105.5q0 -20 2.5 -39t7.5 -36q15 -49 51 -77t85 -28
z" />
    <glyph glyph-name="P" unicode="P" horiz-adv-x="843" 
d="M229 -189h-5t-5 1q-23 8 -23 60q0 17 3 38q4 55 26 118q21 63 52.5 129t68.5 133q18 34 36.5 67.5t37.5 66.5q31 55 60 108t51 102l-10 -18q-17 -31 -35 -63t-32 -52q-55 -85 -112 -164.5t-134 -134.5q-31 -20 -74 -35.5t-77 -15.5q-37 0 -57.5 24t-20.5 61q0 33 16 66
q12 26 41 61t70 69.5t86 56.5q3 2 7 2q3 0 4 -3t-2 -8q-5 -6 -11 -11q-108 -102 -140 -201q-13 -35 -13 -58q0 -29 20 -29q17 0 42 12t49.5 27.5t39.5 27.5q15 13 31.5 28.5t33.5 34.5q33 36 65 76t62 82l56 80q27 38 49.5 69t38.5 51q8 11 19 22t29 11q23 0 31.5 -12.5
t8.5 -29.5q0 -23 -11 -40q-12 -23 -25.5 -48.5t-30.5 -54.5q-32 -56 -67.5 -117.5t-70.5 -126.5q-18 -32 -34.5 -64t-32.5 -62q-31 -62 -53 -119t-32 -104q-4 -18 -6.5 -33t-3.5 -28l-1 -21q-1 0 3.5 6t6.5 10q19 36 55 121l36 86q20 46 39.5 92.5t38.5 88.5q12 27 30 64
t40.5 77.5t46.5 78.5t46 67q66 90 127 138t136 55q5 0 9 0.5t8 0.5q63 0 102.5 -41t39.5 -110q0 -50 -28.5 -102.5t-74 -100.5t-97.5 -86q-67 -46 -135 -73.5t-129 -33.5q-9 -1 -16.5 -1.5t-15.5 -0.5q-17 0 -31 3q-25 6 -33 12q-5 3 -8 6v0l-11 -32l-49 -141
q-8 -23 -17 -45t-18 -43q-43 -96 -78 -116q-17 -11 -38 -11zM455 210q10 -5 30 -5q10 0 22 1.5t26 2.5q39 4 82 25.5t85 51.5t77 60q12 10 32 32t42 51t41.5 59.5t32.5 57.5q24 48 24 81q0 63 -69 63q-25 0 -57 -9q-38 -12 -74 -36t-64 -56q-71 -80 -125.5 -162t-95.5 -167
q-10 -19 -20 -48h1q2 0 4.5 -0.5t5.5 -1.5z" />
    <glyph glyph-name="Q" unicode="Q" horiz-adv-x="752" 
d="M701 -307q-36 1 -77.5 21.5t-82.5 50.5t-76.5 61t-58.5 52l-38 31q-67 -29 -130 -29q-77 0 -128 41t-70 117q-61 -8 -79 -40q-7 -16 -19 -16q-7 0 -7 9t7 20q10 23 35 42.5t56 29.5q-1 8 -1 15v14q0 55 15.5 112.5t40 110.5t51.5 93q30 45 72.5 88.5t93 80t105.5 60.5
t109 29q9 1 18 1h16q74 0 107.5 -29t33.5 -93q0 -22 -11 -22q-10 0 -10 20q0 32 -26 53t-64 21q-123 0 -249 -112q-55 -49 -98 -107.5t-73 -113.5q-62 -112 -72 -211q5 1 10 1h10q27 0 57 -6t64 -20q38 -15 78.5 -41t83.5 -62q37 23 69 51.5t58 64.5q32 43 58.5 99.5
t45.5 129.5q21 84 21 141q0 134 -114 134q-25 0 -51 -8t-45 -14q-3 -1 -7 -1q-7 0 -7 7q0 5 6 12.5t16 11.5q11 4 40 11t60 6q51 -2 89.5 -30.5t60 -76.5t21.5 -110q0 -59 -24 -125.5t-70 -134.5q-42 -61 -93 -112.5t-104 -83.5l18 -15q15 -13 35 -33t39 -41
q14 -14 27 -27.5t24 -24.5q35 -33 69 -55.5t65 -21.5q28 0 51 80q10 38 14.5 72t3.5 60q0 9 6 9q5 0 7.5 -6t3.5 -14l9 -36q6 -22 11 -44t5 -43q0 -16 -4 -31.5t-13 -29.5q-13 -20 -40.5 -32.5t-53.5 -10.5zM235 -84q51 0 99 19q-34 25 -68 45.5t-61 30.5q-26 12 -55 19
t-60 10q6 -60 44 -92t101 -32z" />
    <glyph glyph-name="R" unicode="R" horiz-adv-x="848" 
d="M224 -162q-4 0 -7 0.5t-6 1.5q-15 6 -18 33q-1 6 -1.5 13t-0.5 14q0 8 0.5 15.5t1.5 15.5q2 26 8.5 53.5t16.5 56.5q18 53 45.5 114t65.5 130l69 125q26 47 51 92.5t46 87.5q-18 -31 -37 -64t-27 -45q-50 -79 -104 -153t-125 -125q-19 -14 -46 -25t-54 -17t-47 -6
q-31 2 -48.5 24.5t-17.5 55.5q0 14 3.5 29.5t10.5 31.5q12 25 38.5 58t64.5 64.5t82 51.5q2 2 6 2q3 0 4.5 -2.5t-2.5 -7.5l-9 -11q-96 -86 -133 -187q-6 -17 -8.5 -30.5t-2.5 -23.5q0 -29 24 -26q15 1 37.5 12t44.5 25.5t33 23.5q46 38 91.5 93.5t87.5 112.5q14 19 28.5 40
t28.5 41q23 32 43 61t34 45l19 21q11 11 26 11q21 0 30 -12.5t9 -28.5q0 -19 -10 -36q-10 -22 -23.5 -46t-28.5 -50q-31 -52 -63.5 -109.5t-66.5 -118.5q-17 -31 -32.5 -60t-29.5 -58q-63 -127 -80 -207q-8 -35 -9 -57q0 -1 0.5 -10.5t-0.5 -9.5q2 0 17 30t43 97l43 101
q17 40 33.5 79t29.5 69q16 36 40 86.5t53 102.5t58 90q43 57 80 92.5t76.5 54t87.5 24.5q4 0 8 0.5t8 0.5q59 0 96.5 -38t37.5 -99q2 -64 -43 -128.5t-125 -111.5q-51 -31 -105.5 -51t-107.5 -27q13 -20 26.5 -43.5t23.5 -45.5q8 -12 14 -24t12 -25q10 -19 20.5 -39.5
t24.5 -44.5q31 -50 55.5 -77t40.5 -27q10 0 19 26q8 24 9.5 52t1.5 45q0 12 9 12q7 0 9 -11q1 -4 3.5 -11.5t7.5 -18.5q9 -21 9 -52t-19 -53.5t-50 -27.5q-6 -1 -12 -1.5t-12 -0.5q-46 0 -78 27t-56.5 77t-50.5 117q-17 49 -35 86t-35 56q-16 0 -26.5 1.5t-16.5 2.5l-1 1
q-6 6 -8 9.5t2 8.5q4 12 17.5 21t27.5 9q26 0 48 -27q50 6 96 32t96 69q41 35 73 70.5t59 90.5q22 47 22 76q0 56 -57 59q-13 0 -28.5 -2t-32.5 -8q-73 -24 -127 -84q-119 -135 -205 -315q-5 -11 -10.5 -25t-12.5 -32q-4 -10 -8.5 -23t-9.5 -27q-9 -27 -19.5 -55.5
t-18.5 -51.5q-7 -21 -15.5 -41t-16.5 -39q-40 -85 -73 -106q-19 -11 -34 -11z" />
    <glyph glyph-name="S" unicode="S" horiz-adv-x="546" 
d="M316 -93q-12 0 -24.5 1t-26.5 3q-50 8 -96.5 34t-83.5 66t-60 89q-3 5 -3 8q0 7 7 7q6 0 9 -6q8 -14 20 -28.5t28 -29.5q79 -70 171 -70q65 0 98 17.5t33 48.5q0 32 -37 75q-10 11 -21 23t-22 26l-49 61q-43 53 -71 96.5t-28 88.5q0 23 9 48.5t28 54.5
q-70 11 -115.5 23.5t-62.5 25.5q-13 8 -19 15.5t-6 11.5q0 7 10 7q11 0 28 -10q27 -19 75.5 -29.5t108.5 -15.5l21 24q33 38 79.5 64.5t98.5 43t102.5 24.5t91.5 8q27 0 58 -8.5t53 -25.5t22 -44q0 -12 -4 -21q-25 -69 -177 -93q-37 -6 -78.5 -8.5t-84.5 -2.5
q-32 0 -64.5 1.5t-63.5 3.5q-52 -52 -52 -119q0 -70 57 -141q23 -28 47.5 -53.5t49.5 -51.5q5 -4 10 -9l10 -10q33 -32 48.5 -63.5t15.5 -58.5q0 -44 -37 -72.5t-103 -28.5zM305 543q68 1 141 8.5t135 23.5t97 42q17 14 17 18q0 8 -35 12q-14 2 -29 3t-29 1q-108 0 -208 -52
q-24 -13 -46.5 -26.5t-42.5 -29.5z" />
    <glyph glyph-name="T" unicode="T" horiz-adv-x="677" 
d="M359 -156q-4 0 -6.5 1t-4.5 2q-30 9 -41 40q-8 26 -8 55q0 45 15 105q6 24 13.5 47.5t15.5 47.5q17 47 34 88.5t30 69.5q29 62 59.5 119.5t57.5 104.5q25 44 46 78t36 54q-36 6 -73.5 10t-80.5 4q-85 0 -162 -22.5t-132 -63.5q-31 -23 -46 -46t-15 -41q0 -20 18.5 -32
t55.5 -12q72 0 138.5 20t135.5 63q5 3 9 3q8 0 8 -7q0 -6 -6 -10q-39 -29 -93.5 -55.5t-115 -43t-119.5 -16.5h-13.5t-13.5 1q-34 2 -59.5 22.5t-25.5 45.5q0 45 26 80q47 64 150 98q26 9 51.5 15.5t50.5 11.5q53 10 105.5 14.5t98.5 4.5q38 0 73.5 -2.5t69.5 -7.5
q17 11 33.5 16.5t29.5 5.5q16 0 26.5 -7t10.5 -18q0 -6 -3 -14q21 -4 43.5 -10t44.5 -11q34 -8 66.5 -15.5t57.5 -12.5q34 -7 64 -11t49 -4q29 0 29 7q1 12 -10.5 26.5t-28 24.5t-31.5 10q-8 0 -8 6q0 7 10 7q13 0 53 -10q6 -2 7 -2q18 -7 27.5 -19.5t9.5 -26.5
q0 -18 -13 -32q-16 -22 -30 -29q-16 -6 -34.5 -8.5t-39.5 -2.5q-48 0 -103 11.5t-107 27.5t-92 30q-28 -35 -49.5 -62t-47.5 -69q-43 -68 -80 -134.5t-67 -131.5q-76 -161 -97 -290q-6 -34 -6 -57q0 -20 7 -29q3 -3 3 -7q0 -5 -6 -5z" />
    <glyph glyph-name="U" unicode="U" horiz-adv-x="868" 
d="M689 -283q-13 0 -26 3.5t-24 10.5q-19 13 -27.5 38t-8.5 55q0 45 12.5 93.5t23.5 79.5t27.5 74t35.5 92q26 69 53 140.5t45 123.5q8 23 17 53t17 59q-35 -80 -91 -171q-37 -60 -76.5 -115.5t-77.5 -100.5q-27 -32 -63.5 -68t-77 -66t-80.5 -48q-16 -7 -31 -10.5t-28 -3.5
q-31 0 -49.5 19t-18.5 52q0 32 18 72q10 18 30 55t45 83l106 192q35 63 64.5 119.5t43.5 98.5l-8 -14l-8 -14q-30 -54 -56 -96q-24 -39 -49 -74.5t-52 -63.5q-29 -31 -67.5 -67.5t-83 -62t-91.5 -25.5q-37 -1 -60 20t-23 56v6q0 17 8 21q2 1 5 1q9 0 9 -13q0 -33 18 -33
q13 0 44.5 8t68.5 30q48 27 112.5 83.5t143.5 159.5q12 17 23 35.5t21 36.5q13 23 25 43t24 28q11 7 19 7q6 0 10 -4q14 -8 19.5 -24t5.5 -37q0 -31 -11 -71t-28.5 -81t-38.5 -77q-18 -34 -40.5 -74.5t-44.5 -79.5q-25 -43 -45 -78.5t-29 -53.5q-9 -20 -20 -44t-19 -46.5
t-8 -37.5q0 -17 14 -17q9 0 27 8q26 11 55.5 35.5t59 55t55.5 60.5t43 52q41 51 82.5 108.5t77.5 115.5q37 58 65 114t44 105l3 3q11 4 24 7t26 3q8 0 16 -1.5t14 -6.5q25 -18 25 -51q0 -17 -13 -56q-10 -29 -25.5 -67.5t-36.5 -87.5l-38 -88q-4 -11 -10 -23.5t-11 -26.5
q-12 -26 -23 -51.5t-17 -41.5q-10 -24 -23 -57.5t-26.5 -70t-24.5 -69t-17 -53.5q-1 -6 -3 -13.5t-4 -15.5q-10 -38 -15 -64.5t-5 -42.5q0 -24 11 -24q20 -1 40.5 16.5t42.5 39.5l24 24t25 21q4 4 8 4q6 0 6 -6q0 -5 -4 -9q-6 -5 -15 -20t-17 -30t-12 -23q-11 -24 -33.5 -37
t-47.5 -13z" />
    <glyph glyph-name="V" unicode="V" horiz-adv-x="604" 
d="M192 -131q-22 0 -35 22t-18.5 51t-5.5 49q0 27 4 56t12 60q15 62 39.5 127t56.5 131q15 32 30.5 61t31.5 56q31 55 58.5 95.5t45.5 60.5l7.5 7.5t7.5 5.5q-22 -2 -48 -8q-79 -19 -154 -62q-38 -22 -66 -50q-64 -62 -64 -130q0 -10 2.5 -21t17.5 -16l1 -1q5 -2 5 -8
q0 -8 -10 -8q-11 0 -31.5 8.5t-37 26.5t-16.5 46q0 46 26 81q49 65 152 106q23 8 45 15.5t43 13.5q35 10 68 16t46 7q18 2 36.5 4.5t38.5 2.5q56 0 56 -23q0 -17 -25 -39q-16 -14 -39 -46q-23 -31 -49.5 -73t-53.5 -89l-51 -92q-24 -45 -43 -83t-29 -62q-15 -36 -27 -79
t-19.5 -81t-7.5 -59q0 -39 9 -39q6 0 15 17q24 46 64.5 106.5t90.5 128.5q51 68 108 139t113 137q242 289 501 351q30 6 54 6q27 0 43 -5.5t16 -10.5q0 -11 -43 -11q-35 0 -77 -16q-84 -32 -188 -111q-25 -19 -49 -38.5t-48 -41.5q-49 -43 -91.5 -86t-75.5 -83
q-59 -71 -117.5 -142t-109.5 -135q-50 -63 -89.5 -115t-59.5 -84q-29 -46 -66 -46z" />
    <glyph glyph-name="W" unicode="W" horiz-adv-x="1195" 
d="M902 -163q-23 0 -43 12q-58 39 -87 162q-7 30 -11.5 60.5t-8.5 61.5q-9 93 -9 184v24.5v23.5q-35 -57 -75 -111.5t-79 -101.5q-27 -32 -63.5 -68t-77 -66t-80.5 -48q-16 -7 -31 -10.5t-28 -3.5q-31 0 -49.5 19t-18.5 52q0 32 18 72q10 18 30 55t45 83l106 192
q22 39 46 85t43.5 88t25.5 72q-13 -22 -29 -46.5t-33 -49.5l-28 -41q-24 -35 -50.5 -74t-53.5 -75t-53 -63q-115 -124 -248 -124q-39 0 -64.5 28t-25.5 62q0 20 9 36q9 22 32 47t51 47t50 31q5 3 7 3q6 0 6 -6t-7 -10q-11 -12 -27.5 -34.5t-32 -48.5t-24.5 -51
q-7 -24 -7 -42q0 -36 29 -36q39 0 84 27q46 28 93.5 72t93.5 99q23 28 45.5 55t42.5 53q12 16 26 33t27 35q24 31 46 58.5t35 43.5l6 6t5 7q5 6 10 6q6 0 12 -7q27 -30 27 -78q0 -79 -73 -209q-18 -32 -40 -70t-44 -75q-27 -46 -50 -85t-33 -59q-9 -20 -20 -44t-19 -46.5
t-8 -37.5q0 -17 14 -17q9 0 27 8q26 11 55.5 35.5t59 55t55.5 60.5t43 52q44 55 89 115t82 121q1 35 4.5 59.5l5.5 38.5q5 20 17 28.5t25 8.5q17 0 30.5 -14t8.5 -40q-5 -28 -11.5 -84t-11 -123t-4.5 -131v-25t1 -24q9 -265 96 -265q9 0 19 3q26 7 54 37q29 31 55 77.5
t48 104.5q11 29 20.5 60.5t16.5 64.5q20 95 20 182q0 22 -1.5 43t-3.5 41q-4 25 -11 56t-21 57t-37 26q-27 0 -56 -35q-6 -9 -12 -9q-5 0 -5 8t4 17q3 9 15.5 21t28 22t26.5 13t21 4t19 1q110 0 110 -175q0 -26 -3 -58q-4 -47 -13.5 -97.5t-21.5 -98t-24 -86.5t-21 -64
q-22 -55 -53 -106t-68 -87.5t-80 -49.5q-8 -3 -16 -4t-16 -1z" />
    <glyph glyph-name="X" unicode="X" horiz-adv-x="765" 
d="M625 -129q-36 0 -65 56q-13 26 -24 60.5t-19 60.5q-5 18 -11 39t-12 44l-23 91q-35 -40 -77.5 -84.5t-90.5 -84t-98.5 -64.5t-101.5 -25q-47 0 -73 23t-26 58q0 31 21 67q14 24 47.5 46t61.5 34q17 8 33 12.5t32 5.5q8 0 12 -3q2 -1 2 -5q0 -6 -7 -7q-22 -1 -46.5 -18
t-45.5 -39t-35 -40q-13 -16 -20 -33.5t-7 -31.5q0 -13 6.5 -22t19.5 -9q26 0 74 26t109 72q53 41 105.5 87.5t90.5 87.5l-46 189q-7 26 -16 55.5t-20 54.5q-8 -35 -20 -67t-26 -63q-12 -24 -30.5 -57t-41.5 -65.5t-47 -56t-48 -29.5q-10 -2 -19 -3.5t-17 -1.5q-54 0 -71 41
q-5 12 -5 18t4 9q2 2 6 2q7 0 11 -9q3 -10 10 -18.5t18 -5.5q13 4 39 18t54 42q92 91 158 277l3 6q-1 3 -5 7q-8 -5 -11 -5q-6 0 -1 12.5t16.5 30t25.5 33t26 21.5q12 5 20 5q19 0 31 -17q9 -13 17.5 -54.5t17 -96.5t16.5 -109l14 -94q55 63 102 125t84 116q39 56 66 101
t40 72q5 10 14 13q2 1 5 1q5 0 5 -6q0 -4 -3 -9q-66 -139 -135 -248q-37 -56 -78 -110.5t-91 -108.5q5 -23 13 -60.5t17 -78t18 -75t16 -52.5q7 -22 16 -49t19 -47t19 -20q3 0 8 5q18 23 25.5 54t12.5 65q4 19 7.5 38.5t8.5 38.5q5 9 9 9q8 0 5 -12q-1 -4 -1.5 -8.5
t-0.5 -9.5q0 -10 1 -20.5t2 -20.5q1 -8 1.5 -15.5t0.5 -13.5q0 -3 0.5 -6t0.5 -6q0 -37 -22 -74t-54 -54q-13 -7 -26 -7z" />
    <glyph glyph-name="Y" unicode="Y" horiz-adv-x="868" 
d="M167 -418q-78 0 -102 54q-8 19 -8 40q0 71 71 161q41 51 109 105t151 101t162 77t141 38q17 41 29.5 89t19 96t6.5 88q0 22 -2 42q-2 -3 -3.5 -6.5t-3.5 -6.5q-30 -55 -65.5 -108t-68.5 -96q-30 -38 -75.5 -78t-89.5 -61q-24 -11 -41 -11q-24 0 -37.5 16.5t-13.5 44.5
q0 12 2.5 26t8.5 30q5 10 13 29.5t18 41.5l18 41q17 38 34.5 80t32.5 81q14 35 29 73.5t27 73.5t16 60l-28 -50q-9 -16 -19 -32.5t-20 -33.5l-45 -75q-29 -49 -58 -92.5t-58 -81.5q-16 -21 -34 -40t-37 -36q-85 -75 -171 -75q-45 0 -70.5 26t-25.5 72q0 32 16.5 60
t41.5 51.5t49 39.5l27 18q4 2 6 2q6 0 6 -7q0 -5 -5 -9q-12 -12 -27 -36.5t-29 -52.5t-23 -53q-4 -13 -6 -24.5t-2 -21.5q0 -39 29 -39q37 0 80 29q44 30 88.5 77t89.5 105q45 59 84 114q13 18 26 37.5t26 38.5q22 32 42 61.5t33 45.5q5 6 8.5 11t7.5 8q6 6 11 6t8 -3
q39 -30 39 -86q0 -46 -27 -114q-12 -29 -36.5 -77t-48.5 -95q-20 -39 -35.5 -69.5t-18.5 -41.5q-32 -82 -32 -107q0 -15 11 -15q4 0 16 5q18 8 39 27t42.5 43t40 47.5t30.5 39.5q5 7 11 14.5t12 15.5q29 38 59 80t45 75q5 11 10 19.5t9 15.5q-2 5 -4.5 7.5l-4.5 4.5
q-13 6 -13 16q0 9 10 17t23 8q11 0 21.5 -6t19.5 -20t13.5 -42t4.5 -64q0 -43 -5.5 -93.5t-15.5 -100t-24 -90.5q68 -8 98 -47q9 -13 6 -19q-1 -6 -6 -6q-4 0 -9 6q-7 9 -25.5 12.5t-41 4.5t-42.5 1q-98 -237 -246 -373q-66 -60 -129.5 -93.5t-116.5 -48.5q-43 -12 -78 -12z
M149 -382q41 0 100 38q79 51 145.5 110t118.5 120q50 58 88 112.5t63 100.5q-57 -13 -122 -37.5t-128 -58.5q-67 -36 -129.5 -80.5t-109.5 -93.5q-36 -39 -53 -72q-26 -47 -26 -82q0 -15 5 -28q8 -19 26 -25q9 -4 22 -4z" />
    <glyph glyph-name="Z" unicode="Z" horiz-adv-x="805" 
d="M746 -91q-7 0 -15 0.5t-16 1.5q-39 4 -90.5 21.5t-107.5 39.5q-37 15 -84.5 36t-85.5 37q-8 4 -15.5 7t-13.5 6q-52 -38 -101.5 -56.5t-104.5 -18.5q-57 0 -82.5 18t-25.5 58q0 35 27 60t75 34q11 2 22.5 3t23.5 1q35 0 74 -7.5t79 -22.5q47 47 92.5 100.5t87.5 103.5
q39 45 91 91.5t106 87.5t98 67l-17 3q-13 2 -28 7t-32 10q-19 5 -38.5 10.5t-33.5 8.5q-27 7 -55.5 11.5t-60.5 4.5q-149 0 -218 -66q-37 -34 -37 -67q0 -17 12 -28.5t35 -11.5q36 0 80.5 15t89.5 41t81 58q5 3 8 3q6 0 10.5 -4.5t4.5 -9.5t-3 -8q-18 -18 -47.5 -37.5
t-63.5 -38t-65.5 -33t-53.5 -22.5q-22 -7 -40.5 -10.5t-34.5 -3.5q-40 0 -61.5 19t-21.5 48q0 23 13 49t40 51t66 42.5t82 28.5t83 16.5t69 5.5q35 0 72 -3t77 -8q20 -3 40.5 -6.5t36.5 -5.5q8 -1 14 -2t10 -2q20 -4 37 -5.5t30 -1.5q40 0 51 14l8 1q7 -7 7 -20
q0 -15 -12 -29q-20 -22 -86 -28q-52 -34 -136 -127q-12 -13 -25.5 -28t-28.5 -32l-96 -105q-24 -25 -47 -49.5t-45 -48.5q-21 -22 -41.5 -43t-41.5 -41l59 -29l112 -55q49 -23 94 -42.5t76 -28.5q23 -6 39 -6q37 0 48 28.5t11 80.5q-1 35 -6.5 67t-13.5 55q-1 1 -1 3
q0 5 6 6h2q3 0 5.5 -3.5t4.5 -8.5q24 -40 42.5 -74.5t18.5 -81.5q0 -49 -30.5 -75t-87.5 -26zM109 12q63 0 148 70q-21 5 -48 8.5t-54 3.5q-25 0 -49.5 -7.5t-40.5 -19t-17 -23.5q0 -9 13 -21q13 -11 48 -11z" />
    <glyph glyph-name="bracketleft" unicode="[" horiz-adv-x="250" 
d="M12 -157q-14 0 -38 1.5t-41.5 9.5t-14.5 26q2 10 4.5 20.5t6.5 23.5q12 41 36 96q24 58 55 121t65 124q17 32 34.5 61t33.5 56q35 57 63 93.5t47 48.5q11 7 34.5 9.5t36.5 2.5q21 0 43 -3t22 -13l-1 -12q-6 -2 -15 -2h-10.5t-10.5 1q-4 1 -9.5 1h-11.5q-7 0 -16 -0.5
t-15 -2.5q-8 -8 -18.5 -21t-23.5 -32q-27 -37 -58.5 -87.5t-64.5 -109.5q-17 -30 -33 -58.5t-30 -56.5q-34 -64 -55 -111.5t-30 -77.5q-10 -33 -10 -53q0 -8 1 -11q5 -15 20 -15h10.5t10.5 1q6 2 11.5 2h10.5q21 0 20 -15v-1q-7 -16 -59 -16z" />
    <glyph glyph-name="backslash" unicode="\" horiz-adv-x="378" 
d="M254 -76q-7 0 -10 4.5t0 11.5l4 12q5 13 5 34q0 47 -11.5 107.5t-28.5 130.5l-29 111q-14 53 -26.5 93t-18.5 56v7q2 7 10.5 18.5t18 21t14.5 9.5q4 0 6 -4v0q30 -82 52.5 -169.5t35.5 -167.5q8 -51 12.5 -94.5t4.5 -78.5q0 -43 -8 -70q-3 -11 -13 -21.5t-18 -10.5z" />
    <glyph glyph-name="bracketright" unicode="]" horiz-adv-x="315" 
d="M-20 -159q-21 0 -42 3t-21 13l1 13q4 2 7.5 2h6.5h10.5t11.5 -2q5 0 9.5 -0.5t10.5 -0.5q8 0 16 0.5t15 2.5q8 8 18.5 21t23.5 32q27 38 58.5 88.5t64.5 108.5q17 30 33 58.5t30 56.5q29 57 51.5 106.5t32.5 83.5q6 19 8.5 32.5t2.5 22.5q0 24 -21 24q-5 0 -10.5 -0.5
t-10.5 -1.5t-11 -1.5t-12 -0.5q-20 0 -20 14q0 10 16 14.5t44 4.5q47 0 72 -9t22 -29q-2 -10 -4.5 -21t-5.5 -23q-6 -20 -15.5 -44t-21.5 -52q-25 -57 -55.5 -119.5t-65.5 -125.5q-17 -31 -34 -60.5t-34 -56.5q-34 -57 -63 -94t-47 -48q-11 -7 -34 -9.5t-37 -2.5z" />
    <glyph glyph-name="asciicircum" unicode="^" horiz-adv-x="319" 
d="M261 377q-7 1 -20.5 12.5t-28.5 27.5t-27.5 33t-17.5 29q-2 -3 -5.5 -6t-8.5 -8q-46 -45 -68.5 -65.5t-27.5 -20.5q-11 0 -11 10q0 5 3 11q5 12 17 27q3 4 20.5 20t40.5 35.5t42.5 35.5t27.5 19l7 -4q4 -20 15 -47t24 -54t23 -48z" />
    <glyph glyph-name="underscore" unicode="_" horiz-adv-x="456" 
d="M-12 -42q-8 0 -8 7q0 8 8 17t15 9h459q10 0 10 -12q-1 -4 -3 -7t-4 -5l-10 -9h-467z" />
    <glyph glyph-name="grave" unicode="`" horiz-adv-x="134" 
d="M128 440q-3 0 -7 2l-11 5q-4 2 -8 4.5t-10 6.5q-7 4 -22 14t-31.5 22t-27.5 22.5t-11 14.5q0 10 12.5 17t16.5 7q9 0 14 -5q11 -8 22.5 -21t23.5 -27q18 -23 36 -39q9 -9 9 -17q0 -6 -6 -6z" />
    <glyph glyph-name="a" unicode="a" horiz-adv-x="366" 
d="M244 -9q-20 0 -32.5 15t-12.5 42q0 19 6 41q2 8 10.5 27.5t17.5 39.5q3 5 5 10q-29 -38 -64 -67.5t-74 -29.5q-34 1 -48 18.5t-14 42.5q0 28 12.5 61t27.5 58q26 41 63.5 80.5t80.5 65.5t82 26q44 0 80 -29q9 -7 12.5 -15t3.5 -14q0 -9 -5 -15t-12 -6q-11 0 -17 16
q-6 17 -16 24t-22 7q-24 0 -55 -22t-61 -54q-35 -35 -61.5 -76.5t-40.5 -75.5q-13 -29 -13 -44q0 -14 11 -14q15 0 46 25q22 17 47.5 44t48.5 54t36 42q5 8 9.5 15t8.5 12q11 15 34 15q15 0 25.5 -7t5.5 -19q-3 -5 -8 -14.5t-12 -23.5q-13 -24 -29 -56l-30 -60t-21 -44
q-15 -30 -15 -43q0 -9 7 -9q3 0 7.5 2t10.5 5q18 10 39 28t45 46q11 11 20 21.5t17 20.5q3 5 8 5q12 0 12 -14q0 -7 -5 -12q-11 -14 -22 -27t-23 -26q-11 -13 -22.5 -26t-24.5 -24q-22 -22 -42.5 -32t-36.5 -10z" />
    <glyph glyph-name="b" unicode="b" horiz-adv-x="305" 
d="M80 -86q-78 0 -78 89q0 26 7.5 60t20.5 74q13 35 33.5 80.5t42.5 88.5q-55 -18 -93 -18q-15 0 -24 3q-19 4 -19 14q0 5 6.5 8t18.5 1q4 -1 7.5 -1h7.5q47 0 113 28q118 211 261 344q26 26 60.5 41t64.5 15q26 0 43.5 -14.5t17.5 -46.5q0 -24 -12 -51q-29 -62 -107 -128
q-19 -16 -39 -31.5t-41 -29.5q-85 -59 -175 -99q-18 -32 -36 -69t-35 -78q-7 -16 -14 -34t-13 -35l-17 -42q-9 -22 -16 -48t-7 -48q0 -19 6.5 -31t21.5 -12q23 0 47.5 29.5t43.5 62.5q13 23 24.5 49.5t19 51t8.5 38.5l1 10q-27 11 -27 49q0 26 10.5 44t25.5 18q32 0 32 -58
q0 -10 -1 -22.5t-3 -26.5q7 -2 19.5 -4t21.5 -2q34 0 57.5 21t45.5 50q4 5 9 5t8 -5t3 -12q0 -6 -3 -12q-52 -77 -119 -77q-20 0 -46 8l-5 -17q-1 -5 -2.5 -9.5t-2.5 -8.5q-9 -24 -26.5 -59.5t-40.5 -70.5t-50 -58.5t-56 -23.5zM468 690q-21 -12 -54 -45.5t-70 -79.5
t-72.5 -94.5t-61.5 -91.5q66 35 130.5 76.5t115 91.5t76.5 112q6 14 6 24q0 23 -24 23q-20 0 -46 -16z" />
    <glyph glyph-name="c" unicode="c" horiz-adv-x="299" 
d="M100 -35q-40 0 -62 24.5t-22 70.5q0 29 7.5 64t19 68.5t23.5 55.5q20 42 48 84.5t61 78t68 57.5t69 22q29 0 46.5 -22t17.5 -51t-18 -55q-16 -25 -31 -37.5t-23 -12.5t-8 11q0 5 2 13t6 18q4 9 9.5 24.5t10.5 33.5t4 31q-19 3 -43.5 -13.5t-49.5 -43t-47 -56.5t-36 -56
q-11 -19 -24 -48t-24 -60t-18 -57q-4 -16 -6 -29.5t-2 -24.5q0 -47 34 -47q83 0 183 106q22 22 37 43q3 5 8 5q12 0 12 -14q0 -7 -5 -12l-44 -52q-22 -26 -55.5 -53.5t-72 -46.5t-75.5 -19z" />
    <glyph glyph-name="d" unicode="d" horiz-adv-x="411" 
d="M198 -151q-22 0 -37.5 16.5t-12.5 47.5q4 32 22 81.5t44 110.5q-20 -29 -44.5 -55t-51.5 -42.5t-55 -16.5q-62 0 -62 59v8t1 8q3 25 16 57t23 48q26 41 63.5 80.5t80 65.5t82.5 26q25 0 49 -10q23 47 46 89t42 73q33 57 61 87.5t55.5 43.5t56.5 17l5 -8
q-67 -85 -119 -166.5t-101 -175.5q1 -3 1 -9q0 -17 -15 -20q-11 -21 -27 -54t-33.5 -73t-34 -81.5t-27.5 -77.5q-7 -25 -11.5 -40t-4.5 -23q0 -19 44 28l47 50q11 11 19 20t13 15l74 86q10 12 20 23.5t19 22.5q4 5 10 5q11 0 11 -12q0 -6 -6 -14q-10 -14 -22.5 -29
t-23.5 -28q-3 -3 -17 -20t-33 -41.5t-39 -51t-37 -48.5t-26 -34q-14 -19 -31.5 -28.5t-33.5 -9.5zM71 25q15 0 46 25q21 16 47.5 43.5t50 54.5t34.5 42q11 29 25 58.5t29 60.5q-3 1 -6 1.5t-6 0.5q-25 0 -57 -23.5t-59 -52.5q-33 -34 -61 -75t-42 -77q-12 -28 -12 -44
q0 -14 11 -14z" />
    <glyph glyph-name="e" unicode="e" horiz-adv-x="365" 
d="M71 -149q-42 0 -64.5 33.5t-22.5 92.5q0 20 3 42q7 56 34 115t73 118q33 43 74 66.5t80 23.5q28 0 49 -11q26 -15 26 -51q0 -26 -18 -57.5t-62 -60.5q-56 -35 -94.5 -47.5t-61.5 -14.5q-7 -11 -14.5 -33.5t-13 -47t-7.5 -43.5q0 -4 -0.5 -8.5t-0.5 -9.5q0 -68 43 -68
q23 0 52.5 17t58 41t51 46.5t31.5 33.5l74 86l20 23l10 12t10 11q4 5 9 5q11 0 11 -12q0 -6 -6 -14q-10 -14 -22.5 -29t-23.5 -28l-34 -41q-20 -24 -43 -51.5t-45 -48.5q-93 -90 -176 -90zM103 128q20 5 47.5 21t53 34t39.5 30q21 17 32 38t11 36q0 21 -17 21q-8 0 -17 -4
q-24 -11 -52 -42t-53.5 -68t-43.5 -66z" />
    <glyph glyph-name="f" unicode="f" horiz-adv-x="257" 
d="M-23 -354q-54 0 -54 79q0 19 3 42t10 50q14 56 34 111.5t44 109.5q13 28 30.5 65.5t36 76t32.5 67.5h-11q-17 0 -17 10q0 6 7 11.5t20 5.5h12q13 27 37 71.5t54 96.5t59.5 102.5t53.5 88.5q20 33 45 57.5t51 37.5t47 9l3 -8q-24 -34 -61 -89.5t-78 -120.5
q-38 -61 -75.5 -125t-64.5 -120h114q10 0 10 -10q0 -6 -4.5 -11.5t-12.5 -5.5h-121l-16 -32q7 -21 9.5 -48t2.5 -57q0 -46 -5 -92.5t-11 -78.5q-26 -139 -74 -216t-110 -77zM-12 -327q23 0 53 47.5t61 130.5q11 31 21 76.5t16.5 96t6.5 95.5q0 13 -0.5 25.5t-1.5 24.5
l-36 -79q-24 -53 -48.5 -110t-44.5 -113q-10 -28 -18 -53t-14 -47q-10 -39 -10 -64q0 -28 15 -30z" />
    <glyph glyph-name="g" unicode="g" horiz-adv-x="399" 
d="M-90 -476q-35 0 -58.5 22t-23.5 62q0 50 33.5 106.5t94.5 114.5q33 32 78.5 66.5t93 66t84.5 52.5q23 49 44 98.5t39 96.5q-20 -33 -43 -69.5t-49.5 -67.5t-55 -50t-58.5 -19q-40 0 -56 24.5t-16 60.5q0 37 12 78.5t26 72.5q20 42 49 83.5t64 75t71 54t69 20.5
q56 0 87.5 -39t31.5 -108q0 -19 -6 -30.5t-13 -11.5q-10 0 -10 25q2 25 -5.5 51.5t-23 45t-38.5 19.5q-35 2 -75 -26.5t-76 -81.5q-11 -16 -21 -32t-19 -32q-36 -67 -49 -113q-6 -17 -8.5 -32t-2.5 -26q0 -36 22 -36q20 0 50 30q18 19 40 45t43.5 53.5t39 51t27.5 36.5
q2 3 4.5 7t6.5 9q7 10 14 32q4 13 10.5 19t12.5 6q15 0 15 -24q-2 -21 -14.5 -65t-29 -95.5t-32.5 -95.5l12 6t11 5l25 10q2 1 6 1q8 0 12 -4.5t4 -9.5q0 -10 -10 -13q-12 -4 -31.5 -12.5t-43.5 -21.5q-26 -73 -57.5 -142t-60.5 -119q-99 -169 -183 -213q-16 -9 -32.5 -13
t-30.5 -4zM-96 -443q19 0 38 13q23 16 49 47t52 70t49 78.5t38 72.5l59 127q-32 -22 -67 -46.5t-69 -51.5q-33 -28 -67 -61t-62.5 -68t-46 -68t-17.5 -61q0 -25 12.5 -38.5t31.5 -13.5z" />
    <glyph glyph-name="h" unicode="h" horiz-adv-x="396" 
d="M160 -141q-56 0 -56 65q0 33 17 73.5t40.5 80.5t42.5 71q4 6 14 22.5t22.5 37t23.5 39.5t17 29q14 28 14 37q0 10 -14.5 1t-46.5 -36q-18 -17 -45 -44.5t-55.5 -61t-54 -69t-40.5 -68.5q-6 -13 -15.5 -19.5t-18.5 -6.5t-15.5 6t-6.5 17q0 8 4 16q10 27 28 70.5t39 93
t42 97t37 81.5q-19 -6 -33.5 -8.5t-25.5 -2.5q-9 0 -12 1q-16 4 -16 11q0 6 19 9q29 0 81 19q8 17 17.5 36.5t20.5 40.5q22 44 50 89.5t61 88.5q17 21 35 40.5t38 36.5q89 75 179 75q29 0 45 -18t16 -50q0 -30 -19 -62q-16 -30 -46.5 -61.5t-74.5 -65.5q-21 -16 -42 -30.5
t-43 -28.5q-44 -28 -89.5 -52t-86.5 -41q-59 -119 -107 -236q17 21 41 46.5t43 44.5q20 20 45.5 40.5t51.5 34.5t45 14q23 0 32.5 -9.5t9.5 -24.5q0 -22 -14 -51.5t-28 -52.5q-7 -13 -25.5 -42t-36.5 -57q-9 -13 -16.5 -24.5t-12.5 -20.5q-32 -50 -52 -87.5t-22 -53.5
q-1 -6 -1.5 -10.5t-0.5 -8.5q0 -18 13 -18q7 0 16 3q10 3 28 18t38 35.5t37.5 39.5t26.5 30l74 86q5 7 10.5 12t10.5 11t9.5 11.5t9.5 11.5q4 5 10 5q11 0 11 -12q0 -6 -6 -14q-11 -14 -23.5 -29t-23.5 -28q-4 -5 -10.5 -13t-14.5 -19q-16 -19 -35 -43.5t-36 -43.5
q-20 -22 -45.5 -46.5t-51.5 -41t-47 -16.5zM226 455q32 15 67 35q84 47 156 104q18 15 33.5 29.5t28.5 28.5q57 61 57 111q0 8 -3 15t-20 7q-30 0 -61.5 -16.5t-61 -42.5t-55.5 -55t-45 -55q-22 -31 -46.5 -72t-49.5 -89z" />
    <glyph glyph-name="i" unicode="i" horiz-adv-x="196" 
d="M227 432q-13 0 -22 8.5t-9 21.5q0 17 12 29t28 12t24.5 -11t6.5 -26q-4 -15 -15 -24.5t-25 -9.5zM65 -5q-28 0 -42.5 18.5t-14.5 51.5q0 15 3 33q4 21 15.5 50.5t26.5 59.5t27 51q11 19 26.5 44.5t25.5 43.5q8 13 11 16q7 14 26 22.5t35 8.5q21 0 21 -13q0 -6 -6 -15
q-19 -31 -44.5 -71.5t-49.5 -83.5t-39.5 -81.5t-15.5 -65.5q0 -28 21 -28q14 0 34 15t39 34t29 30l20 21q5 5 9 10.5t8 10.5q3 5 8 5q12 0 12 -14q0 -7 -5 -12q-11 -14 -22 -27t-23 -26q-17 -20 -38 -40.5t-45 -34t-52 -13.5z" />
    <glyph glyph-name="j" unicode="j" horiz-adv-x="193" 
d="M179 390q-13 0 -21.5 9t-8.5 22q0 17 12 28.5t28 11.5q14 0 22 -8.5t8 -21.5q0 -17 -11.5 -29t-28.5 -12zM-273 -475q-33 0 -57.5 20t-24.5 63q1 50 34 106.5t94 114.5q33 32 78.5 66.5t93 66t84.5 52.5q35 77 66.5 153.5t49.5 141.5q3 13 9.5 19t12.5 6q5 0 9 -6t2 -18
q-3 -25 -14 -67.5t-26 -92t-32 -96.5l12 6t11 5l25 10q2 1 6 1q8 0 12 -4.5t4 -9.5q0 -10 -10 -13q-12 -4 -31 -12.5t-43 -21.5q-27 -72 -58 -141t-61 -120q-50 -85 -95 -138t-88 -75q-29 -16 -63 -16zM-278 -443q18 0 37 13q23 16 49 47t52.5 69.5t49 78.5t37.5 73
q15 29 30.5 61t30.5 66q-33 -21 -68.5 -45.5t-69.5 -52.5t-68 -61t-62 -68t-45 -68t-17 -61q0 -25 12.5 -38.5t31.5 -13.5z" />
    <glyph glyph-name="k" unicode="k" horiz-adv-x="334" 
d="M207 -8q-35 0 -57.5 27t-22.5 65q0 13 3 26q5 20 22 40.5t30 21.5q2 1 6 1q25 0 51 13t47 31.5t31 34.5q5 10 5 15q0 9 -12 9q-10 0 -25 -6q-27 -9 -54.5 -28t-50.5 -44q-16 -18 -42 -49.5t-51.5 -66t-42.5 -62.5q-6 -11 -15 -16t-18 -5q-10 0 -17.5 6.5t-7.5 17.5
q0 7 3 14t6 15t7 17q11 26 22 53.5t19 45.5q14 31 30 65t37 76q23 45 55 102t68.5 115t74 107t71.5 78q33 29 58.5 35t42.5 8l5 -8q-31 -33 -60.5 -66t-59.5 -74q-48 -65 -93.5 -134.5t-80.5 -140.5q-10 -22 -21 -44t-22 -43q-12 -23 -22.5 -45t-20.5 -44q28 34 61 73
t68.5 69.5t68.5 37.5q7 2 12.5 2h11.5q26 0 40.5 -12.5t14.5 -32.5q0 -27 -27 -63q-17 -21 -46 -38t-60.5 -28t-57.5 -14q-1 -10 -1 -19v-17q0 -38 7 -59t21 -21q9 0 28 8q18 10 39 28t45 46q11 11 20 21.5t17 20.5q3 5 8 5q12 0 12 -14q0 -6 -6 -12q-10 -13 -21.5 -26
t-22.5 -27q-11 -13 -22.5 -26t-24.5 -24q-19 -19 -41.5 -30t-41.5 -11z" />
    <glyph glyph-name="l" unicode="l" horiz-adv-x="301" 
d="M16 -181q-25 0 -38.5 19.5t-13.5 53.5q0 8 1 18t3 20q17 92 51.5 193t86.5 201q-28 -9 -51.5 -13t-42.5 -4q-22 0 -32 5.5t-10 10.5q0 10 20 10q5 0 10 -0.5t9 -0.5q45 0 114 27q58 105 124 192.5t137 152.5q29 26 56.5 38.5t49.5 12.5q26 0 43.5 -17.5t17.5 -54.5
q0 -20 -9 -43q-26 -65 -102 -129q-19 -16 -39 -31t-40 -29q-42 -28 -87.5 -53t-89.5 -43q-68 -118 -108 -230q-43 -123 -45 -210q0 -40 18 -40q6 0 13 3t17 7q30 18 52 37t44 44q8 9 20.5 24t27.5 34q18 22 37.5 46t36.5 44q20 24 40 46q4 5 9 5q12 0 12 -13q0 -7 -6 -13
q-11 -14 -23.5 -29t-23.5 -28q-6 -7 -23.5 -27.5t-40.5 -48.5q-21 -25 -43.5 -52.5t-41.5 -49.5t-31 -34q-54 -51 -109 -51zM468 709q-62 -49 -129.5 -130t-128.5 -181q47 24 95.5 56.5t91.5 69.5t74 75.5t43 74.5q4 12 4 23q0 25 -20 25q-14 0 -30 -13z" />
    <glyph glyph-name="m" unicode="m" horiz-adv-x="579" 
d="M309 -181q-24 0 -38.5 21.5t-14.5 50.5q0 7 1.5 14t2.5 14q5 20 16 49t25 61t29 61.5t28 50.5q5 7 16 25.5t23.5 39.5t20.5 37q9 17 13 27t4 14q0 3 -2 3q-5 0 -25 -17q-25 -22 -56 -55.5t-62 -72.5t-56 -76q-15 -29 -44 -29q-27 0 -27 27q0 23 23 63t51 83q19 29 37 59
t30 55q8 17 12 27.5t4 14.5q0 13 -39 -22q-10 -9 -21 -19.5t-23 -24.5q-24 -26 -49 -57.5t-49 -64.5q-12 -17 -23 -33l-22 -32q-22 -31 -39 -58t-26 -45q-4 -10 -11.5 -14t-15.5 -4q-10 0 -18.5 8.5t-6.5 24.5l1 1q22 43 36.5 77.5t27.5 68.5q11 30 23.5 61t31.5 67
q8 17 30.5 31t39.5 14q21 0 21 -15q0 -10 -11 -27q-11 -18 -29 -51t-35 -66q16 23 36 49.5t42 54.5q27 33 56 62q64 63 103 57q42 -7 42 -50q0 -11 -11.5 -32t-28 -45.5t-32.5 -47.5q-10 -14 -19 -26.5t-14 -21.5q-4 -7 -11.5 -18t-15.5 -24q16 22 34 45t35 42
q38 43 71.5 66.5t55.5 23.5q39 0 39 -39q0 -24 -45 -101q-7 -13 -21 -41t-29.5 -60t-27.5 -57q-12 -26 -25.5 -58.5t-23.5 -62.5t-12 -48q-1 -4 3 -5q7 0 19 7q11 6 34 29t50.5 51.5t50.5 54t33 37.5l47 55q10 12 16.5 19.5t10.5 11.5l20 23l10 12t10 11q4 5 9 5
q12 0 12 -13q0 -7 -6 -13q-11 -14 -23.5 -29t-23.5 -28l-60 -75l-100 -123q-20 -23 -49.5 -44t-64.5 -21z" />
    <glyph glyph-name="n" unicode="n" horiz-adv-x="368" 
d="M233 -6q-36 0 -36 49q0 34 20 78.5t43 88.5q20 41 36.5 77t16.5 60t-13 24q-10 0 -27 -12q-18 -13 -41 -42l-19 -23q-4 -6 -8.5 -12t-9.5 -11q-28 -37 -57.5 -77.5t-53 -74.5t-35.5 -55q-10 -19 -25 -19q-10 0 -17 8.5t-7 22.5q0 8 3 17q20 37 38 77t35 80
q14 33 28.5 64.5t28.5 59.5q9 17 31 31t40 14q20 0 20 -15q0 -11 -10 -27q-14 -22 -37.5 -61.5t-43.5 -76.5q9 12 20 26.5t24 30.5l32 38q29 35 57 51.5t56 16.5q49 0 49 -45q0 -27 -11 -53t-18 -41q-45 -96 -65.5 -155t-10.5 -59t31.5 14.5t52.5 40.5q16 15 32 32t33 37
q7 8 13 8q7 0 7 -11t-7 -22q-6 -10 -19.5 -26.5t-27.5 -31.5q-49 -53 -105 -83q-9 -5 -15.5 -7.5t-11.5 -3.5q-4 -1 -7.5 -1.5t-8.5 -0.5z" />
    <glyph glyph-name="o" unicode="o" horiz-adv-x="333" 
d="M107 -9q-37 0 -60.5 31t-23.5 77q0 38 12 72q24 66 80 125q40 40 83.5 64.5t77.5 24.5q29 0 46.5 -15t17.5 -36q0 -9 -5 -22q11 -1 21 -1.5t20 -0.5q20 0 39.5 2t37.5 6h5q13 0 13 -9q0 -7 -12 -12q-10 -4 -32.5 -8t-48 -6.5t-45.5 -2.5h-12.5t-9.5 1l-4 -2
q10 -16 10 -45q0 -40 -19.5 -82.5t-51 -79t-68.5 -59t-71 -22.5zM116 25q26 0 51 19t46 50t35.5 67t18.5 69q1 6 1 11.5v9.5q0 15 -3 24h-2q-13 3 -19 6.5t-12 9.5l-1 1q-4 4 -4.5 7.5t-0.5 7.5q0 9 7 14.5t17 3.5l50 -9q8 16 8 25q0 20 -31 20q-27 0 -58.5 -27.5t-60 -68
t-49.5 -80.5q-10 -20 -17 -48.5t-7 -54.5q0 -24 7.5 -40.5t23.5 -16.5z" />
    <glyph glyph-name="p" unicode="p" horiz-adv-x="304" 
d="M-138 -429q-10 0 -20.5 23t-10.5 57q0 8 1 17t3 18q12 48 33 108q43 119 110 261q17 34 33 67t32 65q32 63 61.5 118t52.5 95q36 59 65.5 89.5t57.5 43.5t59 19l5 -9q-14 -13 -29.5 -31t-32.5 -41q-33 -44 -67 -98t-69 -113q-17 -30 -33 -59.5t-32 -58.5q-26 -49 -49 -95
q32 57 63.5 108.5t56.5 85.5q35 46 68 72t56 26q55 0 55 -63q0 -13 -3 -30q-7 -44 -32 -92.5t-62 -90.5t-81.5 -68.5t-92.5 -26.5q-18 0 -29 12q-28 -55 -58.5 -119.5t-65.5 -145.5q-10 -37 -19 -70.5t-15 -59.5q-4 -14 -11 -14zM60 -4q32 0 65.5 27t63 68.5t47.5 84.5
q14 36 21.5 65.5t7.5 44.5q0 13 -5 13q-26 0 -79 -73q-35 -50 -69 -103.5t-69 -120.5q5 -6 17 -6z" />
    <glyph glyph-name="q" unicode="q" horiz-adv-x="367" 
d="M105 -456q-54 0 -54 79q0 19 3 42t10 50q14 58 42.5 128t62.5 140q14 30 32 65.5t35 70.5q22 43 39 79q-29 -37 -60 -72t-63.5 -58.5t-64.5 -23.5q-35 1 -49 18.5t-14 42.5q0 29 13 62t28 58q26 41 63.5 80.5t80 65.5t82.5 26q45 0 76 -24q22 35 38 46.5t34 11.5
q8 0 16.5 -1t18.5 -3l3 -8q-25 -32 -44 -61t-44 -70q-4 -7 -9.5 -15t-10.5 -17q-4 -7 -18 -35.5t-28 -59.5q-19 -39 -42.5 -89t-45.5 -101q22 -23 31 -64q4 -16 5.5 -33t1.5 -36q0 -28 -4 -57t-12 -59q-7 -24 -15.5 -46.5t-19.5 -42.5q-48 -89 -117 -89zM95 78q15 0 46 25
q134 108 207 241q-10 21 -31 21q-24 0 -56.5 -22.5t-61.5 -53.5q-33 -34 -61 -75t-42 -77q-12 -28 -12 -44q0 -15 11 -15zM116 -429q18 0 37 23q38 45 63 144q6 23 10.5 45.5t6.5 44.5q2 14 2 26.5v23.5q0 49 -10 69q-30 -67 -57 -134.5t-44 -121.5q-20 -68 -20 -96
q0 -24 12 -24z" />
    <glyph glyph-name="r" unicode="r" horiz-adv-x="382" 
d="M95 -173q-63 0 -63 61q0 17 6 39q9 35 28.5 75t34.5 63q12 18 24 37t25 39l49 78q13 22 13 41q0 22 -17 33l-14 9l-8 5l-11 -18q-7 -12 -14 -22q-21 -29 -48 -64t-52 -67t-42 -51q-5 -5 -10 -5t-9.5 4.5t-4.5 9.5q0 4 4 8q39 44 75.5 90t66.5 98l11 19l11 18
q-8 7 -14.5 20.5t-6.5 25.5q0 9 4 16t14 8h2q14 0 23 -14q11 -14 11 -52q13 -9 26 -14t24 -9q20 -7 34.5 -16t14.5 -34q0 -4 -0.5 -9.5t-1.5 -10.5q-4 -20 -19.5 -48.5t-35.5 -59t-39 -57.5q-6 -8 -11 -15.5t-10 -15.5q-86 -139 -78 -174q2 -6 9 -6q15 0 36 12
q30 17 56 37.5t54 49.5q20 19 52 56t63 72q5 7 10.5 13t10.5 12q8 12 20 24l20 22q4 5 9 5q11 0 11 -12q0 -6 -6 -14q-10 -14 -22.5 -29t-23.5 -28q-10 -12 -21.5 -25t-22.5 -27q-34 -40 -70 -81.5t-68 -70.5q-23 -20 -48.5 -35.5t-60.5 -15.5z" />
    <glyph glyph-name="s" unicode="s" horiz-adv-x="261" 
d="M-63 -164q-40 -3 -62.5 14.5t-22.5 41.5q0 16 10.5 32.5t33.5 29.5q29 17 62.5 27t68.5 18q17 4 35 8.5t35 9.5l18 38q11 24 22 61.5t20 78t13 71.5q-39 -40 -76 -82t-90 -102q-7 -10 -13 -10q-8 0 -8 12q0 13 13 29l72 86q17 21 36.5 42t41.5 43l24 24q15 84 62 84
q17 0 27 -8.5t10 -21.5q0 -6 -1 -9l-3 -4q-7 -2 -26 -18.5t-38 -33.5q1 -9 1.5 -19t0.5 -22q0 -47 -9 -119q-4 -22 -8.5 -44t-10.5 -43q23 13 43 28.5t39 34.5l6 6q7 7 13 15t13 16q3 4 8 4t8.5 -4.5t3.5 -9.5t-3 -8q-19 -27 -41 -49q-39 -37 -102 -71q-65 -165 -226 -176z
M-85 -131q10 0 23 3q32 8 67.5 32t69.5 75q-19 -5 -37.5 -9.5t-37.5 -9.5q-41 -9 -85 -33q-16 -9 -23 -19.5t-7 -18.5q0 -20 30 -20z" />
    <glyph glyph-name="t" unicode="t" horiz-adv-x="341" 
d="M33 -181q-25 0 -38.5 19.5t-13.5 53.5q0 8 1 18t3 20q1 2 1.5 6.5t1.5 8.5q3 15 8 38t11 45q9 38 25.5 85.5t38.5 100.5q17 40 34 75.5t34 68.5h-130q-16 0 -16 9q0 17 27 17h133q25 44 52 84t59 74q18 21 33.5 29.5t31 12t34.5 7.5l5 -8q-43 -53 -77 -101t-63 -98h139
q17 0 17 -10q0 -5 -7.5 -10.5t-19.5 -5.5h-144q-23 -41 -45 -87t-46 -100q-21 -46 -38 -98.5t-26.5 -95.5t-9.5 -62q0 -41 20 -41q10 0 27 11q39 24 69.5 49.5t58.5 52.5q20 19 47 48.5t50 54.5q5 5 9 10t8 9l17 19q4 4 9 4q12 0 12 -12q0 -5 -6 -13q-6 -9 -12 -15l-12 -15
q-43 -54 -95 -108t-108 -99q-23 -18 -48.5 -34.5t-60.5 -16.5z" />
    <glyph glyph-name="u" unicode="u" horiz-adv-x="347" 
d="M219 -8q-43 0 -43 53q0 37 21 99q-19 -27 -42.5 -54t-46.5 -45t-43 -18q-31 0 -42.5 21t-11.5 47q0 17 2.5 33t6.5 28q19 52 48 108t64 108.5t70 90.5q26 26 41 26q10 0 10 -11q0 -8 -7 -22.5t-21 -31.5q-11 -13 -30 -47.5t-40.5 -77.5t-41 -86t-32.5 -75
q-16 -36 -16 -58q0 -19 12 -19q18 0 50 38q8 10 23.5 30t33 44t33.5 47.5t25 39.5l23 41q5 11 20.5 18.5t31.5 7.5q14 0 14 -14q0 -12 -4.5 -24t-12.5 -26q-14 -24 -28.5 -56.5t-24.5 -62.5t-13 -49q-2 -10 -3 -18.5t-1 -16.5q0 -9 1 -13q2 -9 6 -9t8 3q18 10 39 28t45 46
q11 11 19.5 21.5t16.5 20.5q3 5 9 5q12 0 12 -14q0 -6 -6 -12q-10 -13 -21.5 -26t-22.5 -27q-22 -25 -47 -50q-19 -19 -42 -30t-42 -11z" />
    <glyph glyph-name="v" unicode="v" horiz-adv-x="341" 
d="M45 -95q-59 0 -59 69q0 35 14 80.5t37.5 93.5t52 91.5t56.5 73.5q20 19 46 19q12 0 21 -5t9 -14t-10 -19q-8 -8 -22.5 -28.5t-32 -46.5t-33.5 -52t-27 -46q-28 -54 -45 -101.5t-17 -70.5q0 -17 9 -17q29 0 63 25q26 20 53 58t52.5 86t46 99.5t32.5 99t12 83.5
q0 23 -1 41.5t-6 34.5l3 5q3 2 6 3t7 1q19 0 35 -26t16 -60q0 -120 -80 -263q-34 -61 -75.5 -110.5t-82.5 -77.5q-41 -26 -80 -26z" />
    <glyph glyph-name="w" unicode="w" horiz-adv-x="431" 
d="M189 -127q-32 0 -46 35q-6 17 -6 36q0 26 7.5 54t15.5 55q2 9 4.5 17t4.5 16q-24 -34 -53 -62.5t-57 -28.5q-31 0 -42.5 20.5t-11.5 45.5q0 17 3 33.5t7 29.5q17 44 38 85.5t44 84.5q8 17 30 30t41 13q21 0 21 -14q0 -9 -11 -26q-6 -9 -18.5 -30t-27 -47t-28 -52
t-22.5 -46q-19 -42 -19 -68q0 -23 14 -23q16 0 42 35q7 9 23 31.5t32 46t23 34.5q6 17 16 39t20 41t15 26q8 10 17 14t18 4q11 0 19 -6.5t8 -17.5q0 -10 -8 -21q-19 -31 -36.5 -69t-37.5 -93q-6 -17 -15.5 -43t-18 -53t-13.5 -49.5t-3 -31.5q4 -9 16 -8q13 0 32 21
q39 48 80 135q11 22 20.5 43t17.5 41q8 17 16 36t15 36t12.5 31t9.5 22q47 108 93 166t83 58q26 0 45 -26q17 -23 24 -46t13 -50q2 -7 3.5 -13.5t3.5 -14.5v-6q0 -17 -11 -17t-15 16q-8 27 -25 51.5t-28 31.5q-16 17 -32 17q-45 0 -96 -156q-4 -12 -10 -28.5t-14 -36.5
q-16 -40 -35.5 -86t-44.5 -92q-24 -46 -51 -84q-61 -86 -111 -86z" />
    <glyph glyph-name="x" unicode="x" horiz-adv-x="217" 
d="M-113 -42q-7 0 -7 8q0 13 16 32q35 41 71.5 84.5t71.5 88.5q5 29 17.5 70t29.5 69q-3 -2 -8 -5q-13 -7 -27 -13.5t-25 -6.5q-23 0 -37 19.5t-14 33.5q0 11 8 11q6 0 15 -6q8 -5 23.5 -7.5t33.5 -2.5q23 0 44.5 2.5t32.5 4.5q8 2 11 2q12 0 12 -12q0 -9 -7 -22
q-7 -10 -14 -24t-12 -30q-8 -21 -12 -39q8 8 16.5 17t18.5 19q26 29 52 60.5t52 64.5q13 17 25 32.5t22 29.5q23 33 36.5 53.5t16.5 29.5q10 22 16 22q7 0 7 -19q0 -10 -3 -23.5t-10 -27.5q-49 -94 -118.5 -166.5t-136.5 -134.5q-2 -14 -3.5 -28t-1.5 -27v-12t1 -11
q3 -56 22 -56q16 0 57 41q22 19 35 36q11 11 19.5 21.5t16.5 20.5q3 5 8 5q12 0 12 -14q0 -7 -5 -12l-22 -27l-22 -26l-24 -26l-23 -24q-47 -44 -80 -44q-58 0 -58 124l-15 -15q-6 -6 -10 -10.5t-7 -7.5q-13 -14 -24.5 -27.5t-22.5 -26.5l-44 -51q-16 -17 -26 -17z" />
    <glyph glyph-name="y" unicode="y" horiz-adv-x="337" 
d="M-66 -320q-21 0 -33.5 15.5t-12.5 40.5q0 44 26.5 84t68.5 74.5t89.5 62t90.5 45.5q13 27 30 66t35.5 83t34.5 87t25 78q-16 -31 -37.5 -64.5t-45 -63t-46.5 -48t-44 -18.5q-61 0 -61 72q0 36 13.5 77t33.5 80t39 70q-6 -1 -12 -1.5t-11 -0.5q-28 0 -51.5 11t-36.5 30
q-9 17 -9 22v1q0 6 5 6q6 0 12 -6q33 -38 91 -38q16 0 32 3l19 32q11 20 32 39q13 11 20 11q8 0 12 -8t4 -20q0 -19 -10.5 -43.5t-33.5 -38.5q-71 -100 -90 -209q-3 -15 -3 -25q0 -28 17 -28q21 0 52 37q11 13 32 44.5t44.5 71t42.5 78.5t26 66q2 14 12.5 20.5t20.5 6.5
q9 0 15.5 -4.5t6.5 -15.5q0 -13 -1.5 -27.5t-5.5 -30.5q-12 -62 -42 -155q-7 -20 -14 -40.5t-15 -40.5q-13 -34 -26.5 -65t-23.5 -55q24 15 45 31.5t38 35.5q11 11 20 21.5t17 20.5q3 5 8 5q12 0 12 -14q0 -7 -5 -12q-11 -14 -22 -27t-23 -26q-19 -22 -47.5 -43t-64.5 -39
q-23 -48 -52.5 -103t-66.5 -105t-80.5 -81.5t-95.5 -31.5zM-62 -287q16 0 51 31q15 13 32.5 32t32.5 36.5t20 25.5q16 24 33.5 55.5t35.5 68.5q-38 -19 -77 -44t-71 -55t-51.5 -62t-19.5 -64q0 -24 14 -24z" />
    <glyph glyph-name="z" unicode="z" horiz-adv-x="324" 
d="M-175 -361q-31 0 -48.5 17t-17.5 45q0 31 16.5 59t42 53t54 44t52.5 32q24 14 50.5 26t54.5 23q27 11 55 23.5t56 26.5q7 20 11 38.5t4 32.5q0 19 -8 30t-25 11q-8 0 -25 -5q-2 -1 -4 -1.5t-4 -0.5q-6 0 -8.5 4.5t1.5 10.5q14 12 28 24.5t29 26.5q14 14 29.5 28t31.5 29
q21 19 39 36.5t35 34.5l5 5q-9 0 -21 1t-23 1q-46 0 -75 -22.5t-54 -54.5q-6 -7 -12 -16t-14 -20q-14 -21 -30 -42.5t-30 -36.5q-5 -5 -12 -5q-11 0 -11 11q0 6 3 10q19 22 34 47.5t28 50.5q19 34 38.5 63.5t44.5 47.5t59 15q26 -2 48 -3.5t41 -1.5q21 0 38.5 1.5t32.5 2.5
l4 -9l-77 -70q-19 -16 -35 -32t-33 -31q-15 -14 -28 -25.5t-24 -21.5l-27 -25q38 2 59 -16t21 -53q0 -12 -3 -26l17 11q27 17 51 38t35 34q11 11 20 21.5t17 20.5q3 5 8 5q12 0 12 -14q0 -6 -6 -12q-11 -14 -21.5 -27t-22.5 -26q-6 -8 -29.5 -28.5t-50.5 -38.5
q-21 -14 -40 -24q-31 -97 -86 -168q-67 -87 -145 -135.5t-155 -49.5zM-175 -328q41 0 86.5 28t89 72t75.5 90q15 22 27.5 44t22.5 44l-98 -42q-28 -12 -52.5 -23.5t-46.5 -24.5q-27 -16 -59 -41t-55 -55t-23 -63q0 -12 9 -20.5t24 -8.5z" />
    <glyph glyph-name="braceleft" unicode="{" horiz-adv-x="339" 
d="M88 -9q-7 -21 -12 -38t-10 -30h-8q-39 0 -39 34q0 6 1 14t4 17q7 23 16.5 44.5t20.5 43.5q24 43 36 86q3 9 3 17q0 29 -30 29h-3q-5 -2 -11 0l5 20q44 12 69 35t49 74q5 10 10.5 22.5t11.5 25.5q9 23 19 45t19 37q41 69 113 88h1q4 0 18 2t16 3h3q14 0 11 -13
q-6 -11 -17 -11q-44 -9 -66.5 -44.5t-43.5 -85.5q-7 -16 -14.5 -32.5t-16.5 -33.5q-10 -19 -31 -41.5t-45 -41.5t-45 -31q17 -5 28.5 -19t11.5 -30q0 -5 -2 -13q-7 -22 -16.5 -44.5t-20.5 -43.5q-11 -22 -20 -43t-15 -42zM54 -115l12 38h3q8 20 21 50.5t31 70.5
q76 169 76 139q0 -14 -17.5 -75t-53.5 -168q-3 -7 -19.5 -11.5t-37.5 -5.5q-8 -19 -11.5 -28.5z" />
    <glyph glyph-name="bar" unicode="|" horiz-adv-x="210" 
d="M11 -35q-14 0 -9 23q3 25 18.5 84t40.5 136q26 77 60.5 165.5t76.5 173.5l3 4l4 1q8 0 20 -14t14 -25q0 -5 -2 -7q-7 -16 -24 -57q-17 -40 -38.5 -93t-44.5 -111l-44 -110q-20 -52 -35.5 -93t-21.5 -59q-7 -18 -18 -18z" />
    <glyph glyph-name="braceright" unicode="}" horiz-adv-x="315" 
d="M271 481q-42 -75 -52 -75q-3 0 -3 7q0 26 34 127q2 10 21 14.5t41 4.5l1 2l-1 -2v0q-3 -6 -12.5 -25.5t-28.5 -52.5zM-13 -78q-12 0 -12 9q0 12 17 15q45 9 67 44t43 84q8 17 15.5 34t16.5 34q10 19 30 41t44 41.5t46 31.5q-17 5 -28 19t-11 30q0 5 2 13q8 23 17 45
t20 43q11 22 19.5 43t14.5 42q9 29 15.5 46t8.5 22h7q39 0 39 -35q0 -7 -1 -14.5t-4 -15.5q-7 -22 -16.5 -44t-20.5 -44q-23 -42 -36 -85q-1 -5 -2.5 -10t-1.5 -10q0 -27 31 -27h14l-6 -20q-43 -12 -68.5 -35t-49.5 -74q-5 -10 -10.5 -22t-11.5 -26q-9 -22 -19 -44.5
t-19 -37.5q-40 -67 -112 -88h-1q-3 0 -11.5 -1t-15.5 -2.5t-5 -1.5h-5z" />
    <glyph glyph-name="asciitilde" unicode="~" horiz-adv-x="286" 
d="M35 417q-5 0 -7 3l-1 4q-1 29 27 48t69 19q17 0 38 -4.5t41 -9.5q19 -4 35.5 -7.5t28.5 -3.5q32 0 40 21l5 3q11 0 11 -14q0 -25 -26 -42t-65 -17q-23 0 -40 5.5t-31 12.5q-13 6 -26 10.5t-29 4.5q-25 0 -38.5 -7.5t-23.5 -24.5q-2 -1 -8 -1z" />
    <glyph glyph-name="uni00A0" unicode="&#xa0;" horiz-adv-x="170" 
 />
    <glyph glyph-name="exclamdown" unicode="&#xa1;" horiz-adv-x="223" 
d="M215 260q-23 0 -31 22q-3 5 -3 11q0 13 11 24l16 11q4 3 8.5 5.5t8.5 4.5l13 6l13 7q4 2 5 2q5 0 8.5 -4.5t-0.5 -9.5q-4 -7 -7 -16l-6 -18q-4 -16 -11 -30.5t-25 -14.5zM-110 -244l-5 8q25 26 56 67t64 89.5t62 98.5t50 94q6 14 18 39.5t21 38.5q10 16 17 16t7 -19
q0 -12 -3 -30q-4 -22 -18.5 -60.5t-33.5 -82.5t-39.5 -84t-38.5 -65q-31 -43 -56 -65.5t-48.5 -32t-52.5 -12.5z" />
    <glyph glyph-name="cent" unicode="&#xa2;" horiz-adv-x="400" 
d="M72 13q-6 0 -11.5 7t-5.5 17q0 9 6 19q5 11 15 28t20 31q-40 25 -40 92q0 38 13.5 75t26.5 63q26 48 60.5 86.5t72 62t71.5 26.5q9 11 24.5 33t30.5 43t20 29l4 2q15 0 15 -24q0 -17 -16 -48l-28 -44q19 -6 28.5 -21t9.5 -32q0 -12 -4.5 -25t-14.5 -24q-17 -22 -32 -32.5
t-23 -10.5t-8 9q0 10 9 28l9 20q11 23 16.5 37t6.5 19q-6 3 -15 3q-22 0 -51.5 -19t-59 -50.5t-50.5 -69.5q-16 -28 -32 -68.5t-23 -75.5q-1 -6 -1.5 -11.5t-0.5 -10.5q0 -39 30 -39q17 0 42 12q22 11 47.5 27.5t48 34t35.5 29.5l7 -2q4 -7 4 -17q0 -32 -55 -75
q-22 -16 -51.5 -31t-60.5 -15q-5 0 -10 0.5t-10 1.5q-8 -10 -20.5 -26.5t-23 -32t-15.5 -23.5q-4 -8 -10 -8z" />
    <glyph glyph-name="sterling" unicode="&#xa3;" horiz-adv-x="649" 
d="M547 -40q-28 0 -60.5 6t-72.5 17q-22 7 -50.5 17t-54.5 20l-28 10q-37 -25 -77 -37.5t-87 -12.5t-73.5 20t-26.5 54q0 32 24.5 54t63.5 24q34 1 75.5 -12.5t88.5 -32.5q17 17 31 34t27 36q-13 -1 -25 -1h-23q-30 0 -37.5 16t-7.5 33l6 5q17 -3 45 -3q37 0 77 3l8 11
q8 12 16 26t17 30q19 33 40 69t45 71t51 63q30 32 59.5 48.5t59.5 17.5q38 0 55 -23.5t17 -56.5q0 -30 -13.5 -61.5t-38.5 -54.5q-19 -16 -35.5 -23.5t-27.5 -7.5t-11 7q0 11 23 28q68 53 68 127q-1 34 -35 34q-23 0 -56.5 -33t-66.5 -87q-13 -19 -25 -41t-25 -45
q-12 -23 -24.5 -45.5t-25.5 -45.5q-3 -3 -4 -5h17q4 1 10 1q30 0 43 -13t13 -43l-9 -3q-3 4 -27 10q-12 3 -30 3t-45 -3h-1q-18 -27 -37.5 -52t-43.5 -47q32 -13 64.5 -25t66.5 -20q23 -5 50 -9t52 -4q22 0 39.5 4t25.5 12h1q10 5 13 5q6 0 6 -7q0 -9 -11 -23.5t-32 -26.5
t-51 -12zM121 10q55 0 107 39q-37 13 -69.5 21.5t-59.5 8.5q-46 0 -46 -28q0 -16 20 -28.5t48 -12.5z" />
    <glyph glyph-name="currency" unicode="&#xa4;" horiz-adv-x="670" 
d="M503 27q-4 0 -8.5 3.5t-9.5 12.5q-20 22 -37 43t-33 40q-62 -47 -126 -47q-65 0 -102 49l-49 -38q-14 -11 -28.5 -22.5t-30.5 -22.5q-17 -17 -27 -17q-7 0 -7 9q0 10 9 26.5t27 34.5q16 14 36.5 31.5t47.5 39.5q-10 29 -10 65q0 30 7 59q18 64 51 107l-64 80q0 25 3 47
t16 22q8 0 18 -10q14 -13 32.5 -38t37.5 -54q64 58 137 58q68 0 107 -51q28 26 53 47t41 31t24 10q7 0 7 -9q0 -17 -19 -62l-82 -65q7 -22 7 -52q0 -15 -1.5 -30.5t-6.5 -32.5q-17 -70 -68 -127q17 -22 29.5 -39t20.5 -31q12 -24 12 -42q0 -25 -14 -25zM282 122
q46 0 94 45.5t82 119.5q7 19 10 37.5t3 34.5q0 42 -18 69t-49 27q-32 0 -67 -23.5t-64 -62.5t-45 -86q-15 -37 -15 -71q0 -39 18.5 -64.5t50.5 -25.5z" />
    <glyph glyph-name="yen" unicode="&#xa5;" horiz-adv-x="294" 
d="M144 -16q-20 5 -33 25t-13 45q0 27 5.5 47.5t12.5 43.5h-37q-21 0 -30 9t-11 21.5t-2 22.5q7 -1 18.5 -2.5t27.5 -1.5q12 0 25 0.5t26 1.5l14 38q-12 -1 -23 -1.5t-19 -0.5q-44 0 -44 48l6 5q17 -3 43 -3q13 0 27.5 0.5t29.5 1.5l6 16l-17 110q-6 48 -23.5 79.5
t-31.5 41.5q27 10 44 10q61 0 73 -111l15 -107q33 33 71 73.5t71 79.5t49 65l4 2q29 0 29 -29q0 -31 -20.5 -59t-43.5 -51q-7 -7 -28.5 -25.5t-46.5 -40t-44 -37.5q-4 -4 -7.5 -7t-6.5 -5h15t13 -1q32 -2 38 -19.5t6 -33.5l-9 -3q-1 3 -25 9q-5 2 -12.5 2h-17.5h-19.5
t-23.5 -2h1q-1 -5 -4 -11t-5 -12l-9 -18h27q5 1 8.5 1h6.5q28 0 39.5 -8.5t14.5 -21t3 -24.5l-9 -3q-3 4 -25 10q-6 2 -13.5 2h-16.5h-19.5t-22.5 -2l-11 -2q-10 -25 -18.5 -48.5t-13.5 -42.5t-8 -32.5t-3 -22.5t3 -15z" />
    <glyph glyph-name="brokenbar" unicode="&#xa6;" horiz-adv-x="303" 
d="M125 317q20 56 45 114t53 114q5 -1 7 -1h3q2 0 -3 1.5t-4 3.5l4 3q7 0 19.5 -14t14.5 -25q0 -5 -2 -7q-5 -10 -15 -34l-22.5 -54t-23.5 -57t-18 -44h-58zM37 -35q-10 0 -10 17q0 24 18.5 96t52.5 167l57 1q-8 -20 -20 -51t-25.5 -65.5t-25.5 -66t-20 -53.5t-10 -27
q-7 -18 -17 -18z" />
    <glyph glyph-name="section" unicode="&#xa7;" horiz-adv-x="457" 
d="M224 -110q-38 0 -75.5 24.5t-67.5 48.5q-19 14 -33 24.5t-24 11.5l-4 6q10 31 39 31q21 0 35.5 -13.5t34.5 -36.5q28 -31 52 -46t60 -15q26 0 44 14t18 33q0 26 -28 48t-59 41q-35 20 -63.5 54t-28.5 80q0 49 20.5 68.5t49.5 32.5q-4 13 -4 32q0 38 21 75t55.5 68.5
t76 50t83.5 18.5q38 0 61.5 -28t23.5 -75q0 -19 -11 -39.5t-24 -40.5q-14 -22 -25.5 -43t-11.5 -41l-5 -5q-16 0 -27.5 14t-11.5 34q0 24 12 45t25 40q13 18 23 35t10 35q0 11 -7.5 18t-19.5 7q-28 0 -58.5 -15.5t-57 -40t-43.5 -52.5t-17 -53q0 -40 72 -82q26 -15 51 -35
t25 -49q0 -31 -22 -61t-59 -48q33 -27 33 -62q0 -49 -38 -78.5t-100 -29.5zM296 86l17 7q49 22 49 53q0 20 -21 35t-50 31q-22 12 -44 25.5t-36 31.5q-32 -32 -32 -62q0 -37 50 -78q8 -6 16 -11.5t18 -11.5z" />
    <glyph glyph-name="dieresis" unicode="&#xa8;" horiz-adv-x="202" 
d="M40 440q-10 0 -18 4.5t-13 16.5q-3 5 -3 11q0 14 11 22q15 13 30 20q3 3 8 4t9 1q9 0 15.5 -4.5t2.5 -12.5q-3 -4 -4.5 -9.5t-3.5 -12.5q-4 -13 -10.5 -26.5t-23.5 -13.5zM165 440q-10 0 -18 4.5t-13 16.5q-3 5 -3 11q0 14 11 22q15 13 30 20q3 3 8 4t9 1q9 0 15.5 -4.5
t2.5 -12.5q-3 -4 -4.5 -9.5t-3.5 -12.5q-4 -13 -10.5 -26.5t-23.5 -13.5z" />
    <glyph glyph-name="copyright" unicode="&#xa9;" horiz-adv-x="572" 
d="M209 -11q-55 0 -95.5 25t-62.5 69t-22 100q0 20 3 42.5t10 44.5q17 59 50 110t77 90t94.5 60.5t101.5 21.5q55 0 94.5 -25.5t61.5 -70.5t22 -102q0 -41 -12 -86q-16 -58 -49.5 -108.5t-77.5 -89t-94 -60t-101 -21.5zM214 30q55 0 108.5 32t96.5 86.5t64 121.5
q13 43 13 84q0 68 -35.5 111.5t-97.5 43.5q-40 0 -81.5 -19t-79 -52t-65.5 -76.5t-43 -93.5q-13 -43 -13 -84q0 -68 35.5 -111t97.5 -43zM249 133q-41 0 -63.5 22t-22.5 63q0 38 17 76.5t45 70.5t62.5 51t68.5 19q30 0 48 -15.5t18 -40.5q0 -9 -3 -20q-5 -14 -11.5 -30.5
t-11.5 -24.5l-4 -8l-4 -1q-21 0 -21 27q0 9 2.5 20.5t8.5 24.5q6 12 6 23q0 20 -18 20q-31 0 -58.5 -20.5t-49 -52t-34 -66.5t-12.5 -64q0 -28 8 -39t29 -11q29 0 58 25t46 66q4 12 12 7q11 -5 11 -23q0 -27 -21 -49.5t-50.5 -36t-55.5 -13.5z" />
    <glyph glyph-name="ordfeminine" unicode="&#xaa;" horiz-adv-x="336" 
d="M81 273q-26 1 -37 15t-11 34q0 21 9.5 45.5t20.5 43.5q19 30 47.5 60t61 49.5t62.5 19.5q32 0 60 -22q8 -6 10.5 -12t2.5 -11q0 -16 -15 -16q-10 0 -14 12q-9 22 -28 22q-28 0 -85 -57q-24 -24 -44 -54t-32 -59q-10 -21 -10 -32q0 -9 7 -9q10 0 34 18q20 15 38.5 35
t35.5 41l25 29l6 10q4 4 7 10q9 11 26 11q10 0 18 -4t8 -12q0 -3 -3 -8q-1 -3 -5 -9q-5 -11 -14 -27.5t-16 -31t-9 -19.5q-6 -13 -8.5 -21t-2.5 -12t3 -4q4 0 14 5q27 14 62 55l15 17l13 15q5 5 8 5q4 0 7 -5q2 -4 2 -7t-1 -5.5t-3 -5.5l-33 -39l-18 -20q-7 -9 -18 -18
q-17 -16 -33 -24t-28 -8q-16 0 -25.5 11.5t-9.5 32.5q0 7 1.5 14.5t3.5 16.5l1 2q-22 -29 -49 -53t-57 -24z" />
    <glyph glyph-name="guillemotleft" unicode="&#xab;" horiz-adv-x="383" 
d="M296 103l-11 3q-7 8 -20 31t-25 48q-8 16 -15.5 29.5l-12.5 22.5l1 7l49 40q8 7 15 13t12 10q38 31 54.5 43.5t20.5 12.5l2 -1l8 -3l3 -10q-2 -10 -16 -27.5t-33 -36t-36 -34.5q-9 -11 -17 -17l33 -115l-3 -13zM175 96q-9 0 -14 5q-11 15 -20.5 31.5t-17.5 32.5
q-9 18 -17.5 34.5t-16.5 32.5l1 6q5 3 16 13t24 21q10 8 19 16t16 13q67 56 76 56l2 -1l8 -3l4 -9q-1 -9 -16 -27t-35.5 -38t-36.5 -36q-5 -4 -9 -8l-7 -7l33 -115l-1 -11z" />
    <glyph glyph-name="logicalnot" unicode="&#xac;" horiz-adv-x="687" 
d="M502 7q-10 0 -16.5 8t-4.5 17l34 158h-438q-22 0 -22 16q0 10 10.5 22t20.5 12h489l-45 -210q-1 -10 -9 -16.5t-19 -6.5z" />
    <glyph glyph-name="uni00AD" unicode="&#xad;" horiz-adv-x="351" 
d="M85 181q-43 0 -43 48l6 5q18 -3 42 -3q17 0 36.5 1t38.5 2q27 2 54 3.5t49 -0.5q32 -2 38.5 -19.5t6.5 -33.5l-9 -3q-1 3 -25 9q-6 2 -13.5 2h-16.5h-19.5t-23.5 -2q-3 0 -15 -1t-27 -2q-22 -2 -45.5 -4t-33.5 -2z" />
    <glyph glyph-name="registered" unicode="&#xae;" horiz-adv-x="572" 
d="M209 -11q-55 0 -95.5 25t-62.5 69t-22 100q0 20 3 42.5t10 44.5q17 59 50 110t77 90t94.5 60.5t101.5 21.5q55 0 94.5 -25.5t61.5 -70.5t22 -102q0 -41 -12 -86q-16 -58 -49.5 -108.5t-77.5 -89t-94 -60t-101 -21.5zM214 30q55 0 108.5 32t96.5 86.5t64 121.5
q13 43 13 84q0 68 -35.5 111.5t-97.5 43.5q-40 0 -81.5 -19t-79 -52t-65.5 -76.5t-43 -93.5q-13 -43 -13 -84q0 -68 35.5 -111t97.5 -43zM300 129l-4 1v1l-3 3q-6 14 -18.5 33.5t-26 37.5t-23.5 29l-19 -35q-8 -19 -15.5 -35t-8.5 -22q0 -8 -9 -8l-2 1q-20 11 -20 42
q0 15 8 30.5t16 27.5h1l5 8l5 6l17 31l34 56q14 23 24 44q-37 -2 -37 19q0 4 3 10q2 6 8 6q10 1 21 3t24 4l3 12q0 6 8 6q14 0 18 -10q17 5 33 7.5t29 2.5q29 0 45 -15.5t16 -44.5q0 -22 -14 -47t-37 -46.5t-49.5 -36t-52.5 -16.5q11 -13 17.5 -25t13.5 -29q2 -6 3 -13
t1 -13q0 -10 -3 -17.5t-11 -7.5zM310 389q-5 -15 -17 -38.5t-25 -45.5t-19 -33l2 -4q22 4 48 15.5t49.5 28t38.5 36t15 38.5q0 13 -29 13q-11 0 -26 -3q-7 -1 -13.5 -2.5t-14.5 -2.5z" />
    <glyph glyph-name="macron" unicode="&#xaf;" horiz-adv-x="201" 
d="M194 450q-5 2 -17 3t-29 1q-19 0 -39.5 -0.5t-39.5 -1.5q-13 0 -24 -0.5t-18 -0.5q-16 0 -21.5 7.5t-5.5 17.5v17q0 8 6 5q8 -2 20.5 -3t26.5 -1q17 0 35 0.5t35 1.5q15 1 28.5 1.5t23.5 0.5q21 0 23.5 -15t2.5 -28q0 -2 -1.5 -4.5t-5.5 -0.5z" />
    <glyph glyph-name="degree" unicode="&#xb0;" horiz-adv-x="326" 
d="M147 292q-27 0 -42.5 19t-15.5 47q0 12 3 25q10 38 38.5 64t59.5 26q28 0 44 -18.5t16 -46.5q0 -31 -15 -57.5t-38.5 -42.5t-49.5 -16zM149 319q14 0 29.5 17t26.5 46q4 13 4 27q0 15 -5 24.5t-14 9.5q-15 0 -31.5 -19t-24.5 -46q-6 -15 -6 -28t5.5 -22t15.5 -9z" />
    <glyph glyph-name="plusminus" unicode="&#xb1;" horiz-adv-x="461" 
d="M193 54q-9 0 -12 8.5t-2 20.5q3 9 13 31.5t20 43.5q5 9 8 16.5l5 12.5q-49 1 -81 7.5t-28 19.5q2 11 10 18.5t18 7.5h28t28 1t27 1h26l36 79q10 20 19 40.5t16 41.5l5 3q13 0 13 -28q0 -10 -2 -21.5t-5 -25.5q-7 -22 -17 -47t-18 -42q19 0 44.5 0.5t47.5 1.5t28 1l6 -7
l-2 -5q-3 -7 -8 -14q-4 -7 -24.5 -12t-65.5 -10q-13 -1 -24.5 -2.5t-18.5 -3.5q-3 -7 -14.5 -29t-26.5 -47t-28.5 -43t-20.5 -18zM92 -35q-43 0 -43 48l6 5q18 -3 42 -3q17 0 36.5 1t38.5 2q27 2 54 3.5t49 -0.5q30 -2 37 -18.5t7 -34.5l-9 -3q-1 3 -25 9q-12 3 -32 3
q-9 0 -19 -0.5t-21 -1.5q-9 -1 -32.5 -3.5t-48.5 -4.5t-40 -2z" />
    <glyph glyph-name="uni00B2" unicode="&#xb2;" horiz-adv-x="359" 
d="M267 179q-7 3 -7 14q2 3 -3 4q-8 4 -30 4q-15 0 -42.5 -3.5t-53 -7.5t-36.5 -7l-3 -1h-5q-7 2 -13.5 14t-5.5 19q0 4 6 6q27 11 61 36q23 18 53.5 45.5t59.5 60.5t48 66t19 61q0 17 -12 17q-14 0 -32 -17.5t-35 -48.5q-14 -25 -33 -33q-17 -7 -26 -7q-8 0 -8 8
q1 21 15 43t35.5 41.5t46.5 31t48 11.5q51 0 51 -51q0 -32 -20 -66.5t-51.5 -68t-65.5 -62t-61 -48.5q15 3 31 5t31 2q9 0 17 -0.5t13 -1.5q35 -13 30 -39v-1q-5 -11 -10 -19t-12 -7z" />
    <glyph glyph-name="uni00B3" unicode="&#xb3;" horiz-adv-x="382" 
d="M160 181q-33 0 -52.5 20.5t-19.5 56.5q0 31 16.5 48.5t46.5 18.5q9 0 9 -6q0 -4 -4 -8q-9 -7 -18 -26.5t-9 -30.5q-1 -40 34 -40q26 0 50 15.5t39.5 39.5t15.5 49q0 30 -25 30q-7 0 -15.5 -2.5t-24.5 -10.5q-10 -4 -18 3.5t-12 22.5v3q-1 2 -1 5q0 7 7 7q30 2 63.5 16.5
t57 39.5t23.5 55q0 22 -17 22q-16 0 -34 -16t-30 -39q-15 -22 -31 -28t-24 -6t-8 8q2 25 23 50t51.5 42t58.5 17q27 0 42.5 -15.5t15.5 -42.5q0 -24 -15 -44t-36.5 -35t-41.5 -24q44 -14 44 -62q0 -38 -25.5 -68t-62.5 -47.5t-73 -17.5z" />
    <glyph glyph-name="acute" unicode="&#xb4;" horiz-adv-x="134" 
d="M7 440q-7 0 -7 6q0 8 9 17q9 8 18 18t18 21q12 14 24 27t22 22q6 5 14 5q4 0 16.5 -7.5t12.5 -17.5q0 -4 -11 -14.5t-27 -22.5t-31 -22t-22 -14l-18 -10l-11 -6q-5 -2 -7 -2z" />
    <glyph glyph-name="uni03BC" unicode="&#xb5;" horiz-adv-x="347" 
d="M-80 -262q-14 0 -9 23q3 46 19 109t43 138q26 71 58 142t64 131q5 10 18 20t28 17t26 7q21 0 21 -15q0 -10 -11 -27q-21 -34 -47.5 -77t-46.5 -84q-12 -23 -17.5 -41t-5.5 -29q0 -19 13 -19q16 0 47 34q14 16 37.5 49t50 71t46.5 68q23 43 50.5 61.5t68.5 18.5l3 -9
q-10 -6 -23.5 -26t-28.5 -43q-9 -13 -21 -35.5t-23 -47.5t-19.5 -47t-11.5 -35q-4 -15 -5.5 -25.5t-0.5 -18.5q2 -8 9 -8q2 0 8 2q2 0 3 0.5t2 0.5q8 0 8 -8q0 -10 -16 -26.5t-42 -16.5q-39 0 -39 48q0 26 13 67q-78 -111 -133 -111q-12 0 -24 5l-17 -42l-41 -105l-15 -41
q-16 -38 -21 -57q-7 -18 -18 -18z" />
    <glyph glyph-name="paragraph" unicode="&#xb6;" horiz-adv-x="343" 
d="M96 -35q-14 0 -9 23q1 17 9.5 52t22 80t29 93.5t31.5 90.5h-29q-51 0 -81 24t-30 63q0 35 19.5 67t51 56.5t68.5 34.5q44 12 88 12h177q6 -6 6 -15t-7.5 -18.5t-18.5 -14.5v0q0 -5 -2 -7q-7 -16 -24 -57q-10 -25 -25.5 -62.5t-30.5 -75.5l-27 -66l-44 -110
q-20 -52 -35.5 -93t-21.5 -59q-7 -18 -17 -18t-10 17q0 22 15 80t39 131q24 71 55 153t68 162h-40q0 -1 -1 -2q-7 -16 -24 -57q-17 -40 -38.5 -93t-44.5 -111l-44 -110q-20 -52 -35.5 -93t-21.5 -59q-7 -18 -18 -18zM422 514q0 4 -4 4z" />
    <glyph glyph-name="periodcentered" unicode="&#xb7;" horiz-adv-x="310" 
d="M189 183q-18 4 -26 22q-3 5 -3 11q0 14 12 23q18 15 33 22l14 6q5 2 12 6q4 2 6 2q5 0 7.5 -4t0.5 -9l-1 -1q-5 -7 -8 -16t-6 -19q-4 -17 -11.5 -31.5t-29.5 -11.5z" />
    <glyph glyph-name="cedilla" unicode="&#xb8;" horiz-adv-x="163" 
d="M43 -197q-22 0 -31.5 6.5t-11.5 17.5q5 -1 15 -1h20q14 0 32.5 11t18.5 31q0 16 -4.5 25t-9.5 19.5t-5 30.5q0 27 25.5 48t55.5 21q4 0 9.5 -3t5.5 -9q-20 -3 -34.5 -18.5t-14.5 -27.5q0 -16 6 -26t12 -21t6 -31q0 -22 -16 -38.5t-38 -25.5t-41 -9z" />
    <glyph glyph-name="uni00B9" unicode="&#xb9;" horiz-adv-x="339" 
d="M166 168q-19 0 -19 34q0 15 2 31t4 24q11 42 35 86.5t47 84.5l7 11q0 1 2 3q-4 1 -7.5 2t-6.5 3v6q0 4 8 15.5t19.5 25t21.5 23t14 9.5q13 0 28 -9t15 -17q0 -6 -5 -8q-20 -32 -46 -74t-46 -77q-16 -31 -27 -57t-18 -46q-14 -42 -14 -59q0 -11 -14 -11z" />
    <glyph glyph-name="ordmasculine" unicode="&#xba;" horiz-adv-x="300" 
d="M125 275q-28 0 -43 19.5t-15 50.5q0 34 16 70q16 35 41 63.5t54 45.5t55 17q30 0 46 -20t16 -52t-16 -67q-11 -25 -36.5 -55t-56.5 -51t-61 -21zM141 301q19 0 38 17t35.5 39t24.5 37q24 48 24 83q0 31 -22 31t-49.5 -27t-45.5 -67q-12 -22 -18.5 -41.5t-8.5 -36.5v-9
q0 -22 13 -25q3 -1 9 -1z" />
    <glyph glyph-name="guillemotright" unicode="&#xbb;" horiz-adv-x="397" 
d="M222 103l-8 3l-4 9q2 10 16.5 28t34.5 37.5t36 35.5q5 5 9.5 9t7.5 7l-33 115l1 11l8 6h2q3 0 11 -4l1 -1q11 -15 20.5 -31t17.5 -33q9 -18 17.5 -34.5t16.5 -32.5l-1 -6q-4 -3 -15.5 -13t-24.5 -21q-10 -7 -19 -15.5t-16 -13.5q-31 -26 -51 -41t-25 -15h-2zM101 97l-2 1
l-8 3l-3 9q2 11 16.5 28.5t34 37l35.5 35.5l16 15l-33 115l3 11l8 5l12 -3q8 -10 19.5 -30.5t22.5 -43.5q8 -16 16 -31t15 -26l-1 -7l-49 -40q-7 -7 -14.5 -13l-12.5 -10q-37 -31 -53.5 -43.5t-21.5 -12.5z" />
    <glyph glyph-name="onequarter" unicode="&#xbc;" horiz-adv-x="713" 
d="M166 168q-19 0 -19 34q0 15 2 31t4 24q11 42 35 86.5t47 84.5l7 11q0 1 2 3q-4 1 -7.5 2t-6.5 3v6q0 4 8 15.5t19.5 25t21.5 23t14 9.5q13 0 28 -9t15 -17q0 -6 -5 -8q-20 -32 -46 -74t-46 -77q-16 -31 -27 -57t-18 -46q-14 -42 -14 -59q0 -11 -14 -11zM172 -98
q-7 0 -7 11q0 10 13.5 43t37.5 81.5t55 106.5q41 77 94.5 164.5t112.5 172.5q5 -1 7 -1h3q2 0 -3 1.5t-4 3.5l3 3q9 2 18.5 -12.5t9.5 -25.5q0 -6 -2 -8q-6 -8 -15 -22.5t-22 -34.5q-25 -40 -57.5 -92.5t-67.5 -111.5l-66 -110q-31 -52 -55 -93t-35 -59q-10 -17 -20 -17z
M516 -19q-20 0 -20 35q0 14 2.5 29t4.5 23q4 14 8 26.5t11 26.5q-24 -1 -49 -8t-44 -13l-14 -4q-5 -1 -11.5 6.5t-11 18.5t-4.5 18q3 13 21.5 33.5t43.5 42t45 37.5q22 17 49 36t51.5 35t36.5 20q4 2 6 2q3 0 5.5 -1t5.5 -3q8 -6 14 -18.5t6 -20.5q0 -4 -14 -30.5t-29 -54.5
q-13 -22 -23 -40l-12 -21q15 -5 25 -14.5t10 -19.5q0 -4 -3 -6.5t-8 -0.5q-2 2 -6.5 2t-10.5 1l-27 3q-26 -51 -35 -80q-10 -31 -10 -48q0 -12 -13 -12zM508 209l-32 -26t-35 -32q21 6 43 9.5t46 3.5l5 -1h7q7 14 13.5 27.5t13.5 26.5q15 34 33 66l-69 -53l-13 -11z" />
    <glyph glyph-name="onehalf" unicode="&#xbd;" horiz-adv-x="617" 
d="M166 168q-19 0 -19 34q0 15 2 31t4 24q11 42 35 86.5t47 84.5l7 11q0 1 2 3q-4 1 -7.5 2t-6.5 3v6q0 4 8 15.5t19.5 25t21.5 23t14 9.5q13 0 28 -9t15 -17q0 -6 -5 -8q-20 -32 -46 -74t-46 -77q-16 -31 -27 -57t-18 -46q-14 -42 -14 -59q0 -11 -14 -11zM172 -98
q-7 0 -7 11q0 10 13.5 43t37.5 81.5t55 106.5q41 77 94.5 164.5t112.5 172.5q5 -1 7 -1h3q2 0 -3 1.5t-4 3.5l3 3q9 2 18.5 -12.5t9.5 -25.5q0 -6 -2 -8q-6 -8 -15 -22.5t-22 -34.5q-25 -40 -57.5 -92.5t-67.5 -111.5l-66 -110q-31 -52 -55 -93t-35 -59q-10 -17 -20 -17z
M566 -19l-4 1q-3 5 -3 13q0 4 -3 5q-5 2 -13 2.5t-18 0.5q-19 0 -45.5 -3t-50.5 -7t-36 -7h-2q-2 -1 -5 -1q-7 2 -13.5 13t-6.5 19q0 6 6 7q27 11 61 36q23 18 53.5 45.5t59.5 60t48 65.5t19 61q0 17 -12 17q-14 0 -32 -17.5t-35 -47.5q-14 -25 -32.5 -32.5t-26.5 -7.5
q-7 0 -7 8q1 21 15 43t35.5 41.5t46.5 31t47 11.5q51 0 51 -47q0 -33 -20 -68t-51 -69t-65 -63t-62 -49q15 3 31 5t32 2q17 0 30 -3q29 -8 29 -33q0 -9 -7 -21t-14 -12z" />
    <glyph glyph-name="threequarters" unicode="&#xbe;" horiz-adv-x="645" 
d="M160 181q-33 0 -52.5 20.5t-19.5 56.5q0 31 16.5 48.5t46.5 18.5q9 0 9 -6q0 -4 -4 -8q-9 -7 -18 -26.5t-9 -30.5q-1 -40 34 -40q26 0 50 15.5t39.5 39.5t15.5 49q0 30 -25 30q-7 0 -15.5 -2.5t-24.5 -10.5q-10 -4 -18 3.5t-12 22.5v3q-1 2 -1 5q0 7 7 7q30 2 63.5 16.5
t57 39.5t23.5 55q0 22 -17 22q-16 0 -34 -16t-30 -39q-15 -22 -31 -28t-24 -6t-8 8q2 25 23 50t51.5 42t58.5 17q27 0 42.5 -15.5t15.5 -42.5q0 -24 -15 -44t-36.5 -35t-41.5 -24q44 -14 44 -62q0 -38 -25.5 -68t-62.5 -47.5t-73 -17.5zM172 -98q-7 0 -7 11q0 10 13.5 43
t37.5 81.5t55 106.5q41 77 94.5 164.5t112.5 172.5q5 -1 7 -1h3q2 0 -3 1.5t-4 3.5l3 3q9 2 18.5 -12.5t9.5 -25.5q0 -6 -2 -8q-6 -8 -15 -22.5t-22 -34.5q-25 -40 -57.5 -92.5t-67.5 -111.5l-66 -110q-31 -52 -55 -93t-35 -59q-10 -17 -20 -17zM516 -19q-20 0 -20 35
q0 14 2.5 29t4.5 23q4 14 8 26.5t11 26.5q-24 -1 -49 -8t-44 -13l-14 -4q-5 -1 -11.5 6.5t-11 18.5t-4.5 18q3 13 21.5 33.5t43.5 42t45 37.5q22 17 49 36t51.5 35t36.5 20q4 2 6 2q3 0 5.5 -1t5.5 -3q8 -6 14 -18.5t6 -20.5q0 -4 -14 -30.5t-29 -54.5q-13 -22 -23 -40
l-12 -21q15 -5 25 -14.5t10 -19.5q0 -4 -3 -6.5t-8 -0.5q-2 2 -6.5 2t-10.5 1l-27 3q-26 -51 -35 -80q-10 -31 -10 -48q0 -12 -13 -12zM508 209l-32 -26t-35 -32q21 6 43 9.5t46 3.5l5 -1h7q7 14 13.5 27.5t13.5 26.5q15 34 33 66l-69 -53l-13 -11z" />
    <glyph glyph-name="questiondown" unicode="&#xbf;" horiz-adv-x="408" 
d="M271 223q11 0 19.5 -8.5t10.5 -21.5v-11q0 -9 -1 -13q-9 -39 -58 -92q-23 -25 -49.5 -58.5t-50.5 -68.5q-22 -36 -29 -60q0 -6 -1 -11t-1 -10q0 -43 38 -43q26 0 51.5 20.5t45 47.5t28.5 48q7 18 14 18q8 0 8 -15q0 -10 -4 -19q-24 -64 -71.5 -99t-112.5 -35
q-79 0 -79 68q0 37 18.5 70.5t45.5 62.5t53 49l58 45q14 12 26.5 26t22.5 32q3 4 4.5 8t3.5 7l4 12q1 4 1 10q0 14 -10 18q-6 3 -6 10q4 11 14 12q2 1 7 1zM342 355q16 -4 26 -21q3 -6 3 -12q0 -15 -12 -24q-7 -5 -15 -10.5t-18 -10.5l-13 -6l-13 -7q-2 -1 -5 -1q-5 0 -8 4
t0 8q4 8 7 17l6 18q4 18 12 33t30 12z" />
    <glyph glyph-name="Agrave" unicode="&#xc0;" horiz-adv-x="707" 
d="M496 -233q-13 0 -26 5t-25 15q-13 12 -19 30.5t-6 40.5q0 32 8 68t18.5 70.5t18.5 59.5q7 21 18 51.5t23.5 62.5t21.5 55q-12 -1 -34.5 -3.5t-47.5 -5.5t-44.5 -5.5t-24.5 -4.5q-10 -10 -23 -23.5t-27 -28.5q-19 -21 -39 -42t-38 -38q-89 -82 -161 -82q-56 0 -83 37.5
t-27 90.5q0 31 9 64.5t28 64.5q20 35 52.5 75t72.5 75t83 57t83 22q11 0 21.5 -3t5.5 -13l-17 -2q-25 -3 -59 -23q-33 -19 -66.5 -49.5t-65.5 -68.5q-16 -19 -29.5 -38.5t-25.5 -39.5q-53 -84 -53 -152q0 -29 14 -45t37 -16q24 0 53 17q44 26 71 51.5t52 53.5q7 8 15 17
t17 19l-23 -5q-13 -3 -24.5 -4t-21.5 -1q-31 0 -46.5 11t-15.5 24q0 23 31 38q11 4 22 6.5t21 4.5l36 7q1 0 1.5 0.5t1.5 0.5q7 0 7 -6q0 -7 -7 -7q-4 -1 -11 -4q21 2 51 6.5t43 7.5q45 43 91 103t87.5 124t70.5 119l35 67l42 80q4 9 9 9t7 -5.5t-1 -11.5
q-49 -115 -110 -236.5t-142 -242.5q5 1 12.5 1t14.5 1q41 1 62 2t27 2q16 39 35 90.5t35 106t25.5 103.5t6.5 83q4 2 8.5 5.5t9.5 7.5q11 8 21 8q26 0 36.5 -26.5t10.5 -54.5q0 -25 -9 -60t-22.5 -73t-29.5 -74q-24 -55 -43 -94q-3 -6 -5.5 -11.5t-4.5 -9.5q27 -1 56 -8
t49.5 -21.5t20.5 -40.5q0 -16 -5 -23.5t-10 -7.5q-4 0 -6.5 4t-0.5 11q3 5 0 10q-7 11 -29 15.5t-49 5t-49 0.5q-9 -16 -24.5 -51t-32.5 -76.5t-31 -78.5t-20 -58q-30 -97 -30 -133q0 -19 9 -21q20 -4 41 12.5t43 37.5q10 8 19 16.5t18 15.5q6 2 7 2q5 0 6.5 -4t-3.5 -9
l-1 -1q-5 -5 -13.5 -18.5t-16 -27.5t-11.5 -21q-20 -41 -62 -41zM778 796l-12 4q-4 2 -8 3l-12 3t-29 11.5t-45 21t-41.5 22t-18.5 14.5q-1 10 9.5 19.5t14.5 10.5q2 0 3 0.5t2 0.5q6 0 10 -3q11 -6 36 -23.5t43 -30.5q11 -7 24.5 -16.5t23.5 -14.5q12 -9 12 -15q2 -5 -5 -7
q-1 -1 -3 -0.5t-4 0.5z" />
    <glyph glyph-name="Aacute" unicode="&#xc1;" horiz-adv-x="707" 
d="M496 -233q-13 0 -26 5t-25 15q-13 12 -19 30.5t-6 40.5q0 32 8 68t18.5 70.5t18.5 59.5q7 21 18 51.5t23.5 62.5t21.5 55q-12 -1 -34.5 -3.5t-47.5 -5.5t-44.5 -5.5t-24.5 -4.5q-10 -10 -23 -23.5t-27 -28.5q-19 -21 -39 -42t-38 -38q-89 -82 -161 -82q-56 0 -83 37.5
t-27 90.5q0 31 9 64.5t28 64.5q20 35 52.5 75t72.5 75t83 57t83 22q11 0 21.5 -3t5.5 -13l-17 -2q-25 -3 -59 -23q-33 -19 -66.5 -49.5t-65.5 -68.5q-16 -19 -29.5 -38.5t-25.5 -39.5q-53 -84 -53 -152q0 -29 14 -45t37 -16q24 0 53 17q44 26 71 51.5t52 53.5q7 8 15 17
t17 19l-23 -5q-13 -3 -24.5 -4t-21.5 -1q-31 0 -46.5 11t-15.5 24q0 23 31 38q11 4 22 6.5t21 4.5l36 7q1 0 1.5 0.5t1.5 0.5q7 0 7 -6q0 -7 -7 -7q-4 -1 -11 -4q21 2 51 6.5t43 7.5q45 43 91 103t87.5 124t70.5 119l35 67l42 80q4 9 9 9t7 -5.5t-1 -11.5
q-49 -115 -110 -236.5t-142 -242.5q5 1 12.5 1t14.5 1q41 1 62 2t27 2q16 39 35 90.5t35 106t25.5 103.5t6.5 83q4 2 8.5 5.5t9.5 7.5q11 8 21 8q26 0 36.5 -26.5t10.5 -54.5q0 -25 -9 -60t-22.5 -73t-29.5 -74q-24 -55 -43 -94q-3 -6 -5.5 -11.5t-4.5 -9.5q27 -1 56 -8
t49.5 -21.5t20.5 -40.5q0 -16 -5 -23.5t-10 -7.5q-4 0 -6.5 4t-0.5 11q3 5 0 10q-7 11 -29 15.5t-49 5t-49 0.5q-9 -16 -24.5 -51t-32.5 -76.5t-31 -78.5t-20 -58q-30 -97 -30 -133q0 -19 9 -21q20 -4 41 12.5t43 37.5q10 8 19 16.5t18 15.5q6 2 7 2q5 0 6.5 -4t-3.5 -9
l-1 -1q-5 -5 -13.5 -18.5t-16 -27.5t-11.5 -21q-20 -41 -62 -41zM690 796q-7 0 -7 5q0 8 12 17q10 5 23.5 14.5t24.5 16.5q18 13 43 30.5t36 23.5q6 4 15 2q4 -1 15 -10.5t9 -19.5q-1 -4 -18.5 -14.5t-41.5 -22t-45 -21t-29 -11.5q-7 -2 -11.5 -3t-8.5 -3l-12 -4h-5z" />
    <glyph glyph-name="Acircumflex" unicode="&#xc2;" horiz-adv-x="707" 
d="M496 -233q-13 0 -26 5t-25 15q-13 12 -19 30.5t-6 40.5q0 32 8 68t18.5 70.5t18.5 59.5q7 21 18 51.5t23.5 62.5t21.5 55q-12 -1 -34.5 -3.5t-47.5 -5.5t-44.5 -5.5t-24.5 -4.5q-10 -10 -23 -23.5t-27 -28.5q-19 -21 -39 -42t-38 -38q-89 -82 -161 -82q-56 0 -83 37.5
t-27 90.5q0 31 9 64.5t28 64.5q20 35 52.5 75t72.5 75t83 57t83 22q11 0 21.5 -3t5.5 -13l-17 -2q-25 -3 -59 -23q-33 -19 -66.5 -49.5t-65.5 -68.5q-16 -19 -29.5 -38.5t-25.5 -39.5q-53 -84 -53 -152q0 -29 14 -45t37 -16q24 0 53 17q44 26 71 51.5t52 53.5q7 8 15 17
t17 19l-23 -5q-13 -3 -24.5 -4t-21.5 -1q-31 0 -46.5 11t-15.5 24q0 23 31 38q11 4 22 6.5t21 4.5l36 7q1 0 1.5 0.5t1.5 0.5q7 0 7 -6q0 -7 -7 -7q-4 -1 -11 -4q21 2 51 6.5t43 7.5q45 43 91 103t87.5 124t70.5 119l35 67l42 80q4 9 9 9t7 -5.5t-1 -11.5
q-49 -115 -110 -236.5t-142 -242.5q5 1 12.5 1t14.5 1q41 1 62 2t27 2q16 39 35 90.5t35 106t25.5 103.5t6.5 83q4 2 8.5 5.5t9.5 7.5q11 8 21 8q26 0 36.5 -26.5t10.5 -54.5q0 -25 -9 -60t-22.5 -73t-29.5 -74q-24 -55 -43 -94q-3 -6 -5.5 -11.5t-4.5 -9.5q27 -1 56 -8
t49.5 -21.5t20.5 -40.5q0 -16 -5 -23.5t-10 -7.5q-4 0 -6.5 4t-0.5 11q3 5 0 10q-7 11 -29 15.5t-49 5t-49 0.5q-9 -16 -24.5 -51t-32.5 -76.5t-31 -78.5t-20 -58q-30 -97 -30 -133q0 -19 9 -21q20 -4 41 12.5t43 37.5q10 8 19 16.5t18 15.5q6 2 7 2q5 0 6.5 -4t-3.5 -9
l-1 -1q-5 -5 -13.5 -18.5t-16 -27.5t-11.5 -21q-20 -41 -62 -41zM619 790q-8 0 -8 10q0 5 8 12q14 9 35 22t40 25.5t27 18.5q14 13 30 13q6 0 13 -4t11 -9q6 -6 19.5 -18.5t29.5 -25.5t28 -23q4 -4 4 -8t-4 -7.5t-8 -3.5q-5 2 -19.5 7.5t-34.5 16.5q-12 7 -22.5 14.5
t-23.5 16.5q-13 -7 -29 -14t-27 -13q-19 -10 -40.5 -19t-27.5 -11h-1z" />
    <glyph glyph-name="Atilde" unicode="&#xc3;" horiz-adv-x="707" 
d="M496 -233q-13 0 -26 5t-25 15q-13 12 -19 30.5t-6 40.5q0 32 8 68t18.5 70.5t18.5 59.5q7 21 18 51.5t23.5 62.5t21.5 55q-12 -1 -34.5 -3.5t-47.5 -5.5t-44.5 -5.5t-24.5 -4.5q-10 -10 -23 -23.5t-27 -28.5q-19 -21 -39 -42t-38 -38q-89 -82 -161 -82q-56 0 -83 37.5
t-27 90.5q0 31 9 64.5t28 64.5q20 35 52.5 75t72.5 75t83 57t83 22q11 0 21.5 -3t5.5 -13l-17 -2q-25 -3 -59 -23q-33 -19 -66.5 -49.5t-65.5 -68.5q-16 -19 -29.5 -38.5t-25.5 -39.5q-53 -84 -53 -152q0 -29 14 -45t37 -16q24 0 53 17q44 26 71 51.5t52 53.5q7 8 15 17
t17 19l-23 -5q-13 -3 -24.5 -4t-21.5 -1q-31 0 -46.5 11t-15.5 24q0 23 31 38q11 4 22 6.5t21 4.5l36 7q1 0 1.5 0.5t1.5 0.5q7 0 7 -6q0 -7 -7 -7q-4 -1 -11 -4q21 2 51 6.5t43 7.5q45 43 91 103t87.5 124t70.5 119l35 67l42 80q4 9 9 9t7 -5.5t-1 -11.5
q-49 -115 -110 -236.5t-142 -242.5q5 1 12.5 1t14.5 1q41 1 62 2t27 2q16 39 35 90.5t35 106t25.5 103.5t6.5 83q4 2 8.5 5.5t9.5 7.5q11 8 21 8q26 0 36.5 -26.5t10.5 -54.5q0 -25 -9 -60t-22.5 -73t-29.5 -74q-24 -55 -43 -94q-3 -6 -5.5 -11.5t-4.5 -9.5q27 -1 56 -8
t49.5 -21.5t20.5 -40.5q0 -16 -5 -23.5t-10 -7.5q-4 0 -6.5 4t-0.5 11q3 5 0 10q-7 11 -29 15.5t-49 5t-49 0.5q-9 -16 -24.5 -51t-32.5 -76.5t-31 -78.5t-20 -58q-30 -97 -30 -133q0 -19 9 -21q20 -4 41 12.5t43 37.5q10 8 19 16.5t18 15.5q6 2 7 2q5 0 6.5 -4t-3.5 -9
l-1 -1q-5 -5 -13.5 -18.5t-16 -27.5t-11.5 -21q-20 -41 -62 -41zM641 793q-8 0 -8 3q0 13 10 29.5t26 29t32 12.5q20 0 37.5 -8t34 -16.5t32.5 -8.5q12 0 18.5 7.5t15.5 24.5q3 0 6 -1.5t3 -12.5q-6 -26 -29.5 -42.5t-40.5 -16.5q-21 0 -35 8.5t-26 16.5t-30 8t-27 -12.5
t-15 -19.5z" />
    <glyph glyph-name="Adieresis" unicode="&#xc4;" horiz-adv-x="707" 
d="M496 -233q-13 0 -26 5t-25 15q-13 12 -19 30.5t-6 40.5q0 32 8 68t18.5 70.5t18.5 59.5q7 21 18 51.5t23.5 62.5t21.5 55q-12 -1 -34.5 -3.5t-47.5 -5.5t-44.5 -5.5t-24.5 -4.5q-10 -10 -23 -23.5t-27 -28.5q-19 -21 -39 -42t-38 -38q-89 -82 -161 -82q-56 0 -83 37.5
t-27 90.5q0 31 9 64.5t28 64.5q20 35 52.5 75t72.5 75t83 57t83 22q11 0 21.5 -3t5.5 -13l-17 -2q-25 -3 -59 -23q-33 -19 -66.5 -49.5t-65.5 -68.5q-16 -19 -29.5 -38.5t-25.5 -39.5q-53 -84 -53 -152q0 -29 14 -45t37 -16q24 0 53 17q44 26 71 51.5t52 53.5q7 8 15 17
t17 19l-23 -5q-13 -3 -24.5 -4t-21.5 -1q-31 0 -46.5 11t-15.5 24q0 23 31 38q11 4 22 6.5t21 4.5l36 7q1 0 1.5 0.5t1.5 0.5q7 0 7 -6q0 -7 -7 -7q-4 -1 -11 -4q21 2 51 6.5t43 7.5q45 43 91 103t87.5 124t70.5 119l35 67l42 80q4 9 9 9t7 -5.5t-1 -11.5
q-49 -115 -110 -236.5t-142 -242.5q5 1 12.5 1t14.5 1q41 1 62 2t27 2q16 39 35 90.5t35 106t25.5 103.5t6.5 83q4 2 8.5 5.5t9.5 7.5q11 8 21 8q26 0 36.5 -26.5t10.5 -54.5q0 -25 -9 -60t-22.5 -73t-29.5 -74q-24 -55 -43 -94q-3 -6 -5.5 -11.5t-4.5 -9.5q27 -1 56 -8
t49.5 -21.5t20.5 -40.5q0 -16 -5 -23.5t-10 -7.5q-4 0 -6.5 4t-0.5 11q3 5 0 10q-7 11 -29 15.5t-49 5t-49 0.5q-9 -16 -24.5 -51t-32.5 -76.5t-31 -78.5t-20 -58q-30 -97 -30 -133q0 -19 9 -21q20 -4 41 12.5t43 37.5q10 8 19 16.5t18 15.5q6 2 7 2q5 0 6.5 -4t-3.5 -9
l-1 -1q-5 -5 -13.5 -18.5t-16 -27.5t-11.5 -21q-20 -41 -62 -41zM678 795q-10 0 -18 4.5t-13 16.5q-3 5 -3 11q0 14 11 22q15 13 30 20q3 3 8 4t9 1q9 0 15.5 -4.5t2.5 -12.5q-3 -4 -4.5 -9.5t-3.5 -12.5q-4 -13 -10.5 -26.5t-23.5 -13.5zM803 795q-10 0 -18 4.5t-13 16.5
q-3 5 -3 11q0 14 11 22q15 13 30 20q3 3 8 4t9 1q9 0 15.5 -4.5t2.5 -12.5q-3 -4 -4.5 -9.5t-3.5 -12.5q-4 -13 -10.5 -26.5t-23.5 -13.5z" />
    <glyph glyph-name="Aring" unicode="&#xc5;" horiz-adv-x="707" 
d="M496 -233q-13 0 -26 5t-25 15q-13 12 -19 30.5t-6 40.5q0 32 8 68t18.5 70.5t18.5 59.5q7 21 18 51.5t23.5 62.5t21.5 55q-12 -1 -34.5 -3.5t-47.5 -5.5t-44.5 -5.5t-24.5 -4.5q-10 -10 -23 -23.5t-27 -28.5q-19 -21 -39 -42t-38 -38q-89 -82 -161 -82q-56 0 -83 37.5
t-27 90.5q0 31 9 64.5t28 64.5q20 35 52.5 75t72.5 75t83 57t83 22q11 0 21.5 -3t5.5 -13l-17 -2q-25 -3 -59 -23q-33 -19 -66.5 -49.5t-65.5 -68.5q-16 -19 -29.5 -38.5t-25.5 -39.5q-53 -84 -53 -152q0 -29 14 -45t37 -16q24 0 53 17q44 26 71 51.5t52 53.5q7 8 15 17
t17 19l-23 -5q-13 -3 -24.5 -4t-21.5 -1q-31 0 -46.5 11t-15.5 24q0 23 31 38q11 4 22 6.5t21 4.5l36 7q1 0 1.5 0.5t1.5 0.5q7 0 7 -6q0 -7 -7 -7q-4 -1 -11 -4q21 2 51 6.5t43 7.5q45 43 91 103t87.5 124t70.5 119l35 67l42 80q4 9 9 9t7 -5.5t-1 -11.5
q-49 -115 -110 -236.5t-142 -242.5q5 1 12.5 1t14.5 1q41 1 62 2t27 2q16 39 35 90.5t35 106t25.5 103.5t6.5 83q4 2 8.5 5.5t9.5 7.5q11 8 21 8q26 0 36.5 -26.5t10.5 -54.5q0 -25 -9 -60t-22.5 -73t-29.5 -74q-24 -55 -43 -94q-3 -6 -5.5 -11.5t-4.5 -9.5q27 -1 56 -8
t49.5 -21.5t20.5 -40.5q0 -16 -5 -23.5t-10 -7.5q-4 0 -6.5 4t-0.5 11q3 5 0 10q-7 11 -29 15.5t-49 5t-49 0.5q-9 -16 -24.5 -51t-32.5 -76.5t-31 -78.5t-20 -58q-30 -97 -30 -133q0 -19 9 -21q20 -4 41 12.5t43 37.5q10 8 19 16.5t18 15.5q6 2 7 2q5 0 6.5 -4t-3.5 -9
l-1 -1q-5 -5 -13.5 -18.5t-16 -27.5t-11.5 -21q-20 -41 -62 -41zM738 793q-23 0 -47 14.5t-24 36.5q0 28 16 43.5t38.5 22t43.5 6.5q24 0 48.5 -13.5t24.5 -34.5q0 -30 -16.5 -46t-40 -22.5t-43.5 -6.5zM742 817q17 0 30 16t13 35q0 23 -21 23q-19 0 -31 -15t-12 -32
q0 -12 6 -19.5t15 -7.5z" />
    <glyph glyph-name="AE" unicode="&#xc6;" horiz-adv-x="1155" 
d="M496 -233q-13 0 -26 5t-25 15q-13 12 -19 30.5t-6 40.5q0 32 8 68t18.5 70.5t18.5 59.5q0 4 4 10q7 20 17.5 48.5t22 58.5t19.5 52q-12 -1 -34.5 -3.5t-47.5 -5.5t-44.5 -5.5t-24.5 -4.5q-10 -10 -23 -23.5t-27 -28.5q-19 -21 -39 -42t-38 -38q-89 -82 -161 -82
q-56 0 -83 37.5t-27 90.5q0 31 9 64.5t28 64.5q20 35 52.5 75t72.5 75t83 57t83 22q11 0 21.5 -3t5.5 -13l-17 -2q-25 -3 -59 -23q-33 -19 -66.5 -49.5t-65.5 -68.5q-16 -19 -29.5 -38.5t-25.5 -39.5q-53 -84 -53 -152q0 -29 14 -45t37 -16q24 0 53 17q44 26 71 51.5
t52 53.5q7 8 15 17t17 19l-23 -5q-13 -3 -24.5 -4t-21.5 -1q-31 0 -46.5 11t-15.5 24q0 23 31 38q11 4 22 6.5t21 4.5l36 7q1 0 1.5 0.5t1.5 0.5q7 0 7 -6q0 -7 -7 -7q-4 -1 -11 -4q21 2 51 6.5t43 7.5q45 43 91 103t87.5 124t70.5 119l35 67l42 80q4 9 9 9t7 -5.5t-1 -11.5
q-49 -115 -110 -236.5t-142 -242.5q5 1 12.5 1t14.5 1q41 1 62 2t27 2q16 39 35 90.5t35 106t25.5 103.5t6.5 83q4 2 8.5 5.5t9.5 7.5q11 8 21 8q26 0 36.5 -26.5t10.5 -54.5q0 -7 -0.5 -13.5t-1.5 -11.5l-9 -31q36 36 84.5 64.5t102 48.5t105 30.5t94.5 10.5q25 0 56 -7.5
t53.5 -24t22.5 -44.5q0 -49 -62.5 -80.5t-175.5 -43.5q-25 -2 -52 -3.5t-54 -1.5q-33 0 -65.5 2t-64.5 5q-29 -28 -48.5 -57.5t-19.5 -60.5q0 -26 30.5 -47.5t74.5 -21.5q14 0 30 3t30 6q23 5 33 5q14 2 24.5 -12.5t10.5 -27.5q0 -16 -15 -16q-47 -4 -103.5 -26.5
t-111.5 -57t-99 -76t-66 -83.5q-8 -16 -8 -27q0 -36 94 -36q34 0 79 8t93 22.5t91 32.5q24 11 57 32t64.5 47t52.5 53t21 50q0 14 -21 14q-17 0 -43.5 -9t-56.5 -24t-57.5 -33.5t-47.5 -37.5q-11 -11 -19 -11q-10 0 -10 13q0 14 13 27q12 11 36 29.5t54.5 38t60.5 33
t54 13.5q79 0 79 -71q0 -33 -19 -65.5t-49 -61.5t-64 -52.5t-63 -37.5q-58 -30 -134 -52t-156 -22q-16 0 -32 1t-32 3q-59 11 -88 44q-4 -16 -11 -38t-12 -44.5t-5 -38.5q0 -24 16 -24q19 0 38.5 16t39.5 35q10 8 19 16.5t18 15.5q6 2 7 2q5 0 6.5 -4t-3.5 -9l-1 -1
q-5 -5 -13.5 -18.5t-16 -27.5t-11.5 -21q-20 -41 -62 -41zM810 533q103 -2 194 14q53 7 95.5 19t67.5 26.5t25 28.5q0 17 -98 17q-56 -1 -108 -17t-90 -35q-17 -10 -40 -23t-46 -30zM659 357q-17 -42 -35 -79.5t-36 -76.5q80 59 170 92q-79 9 -99 64z" />
    <glyph glyph-name="Ccedilla" unicode="&#xc7;" horiz-adv-x="662" 
d="M258 -88q-86 0 -135.5 54.5t-49.5 148.5q0 11 0.5 21t1.5 21q11 95 57.5 185t124.5 166q-40 8 -86.5 21.5t-87.5 33.5t-67.5 47t-26.5 62q0 27 26 43.5t67 16.5q34 0 78.5 -11t87.5 -28t70 -35q4 -3 10 -8.5t6 -13.5q0 -7 -6.5 -10t-11.5 1q-49 26 -114.5 41t-125.5 15
q-37 0 -37 -18q0 -16 23 -39q41 -38 101 -61t119 -34q36 31 74.5 56t79.5 44q117 51 263 51q62 -4 96.5 -24t34.5 -55t-33.5 -60t-97.5 -39q-30 -6 -65 -10t-67 -5.5t-53 -1.5q-38 0 -76 1t-76 5q-32 -28 -60.5 -60.5t-53.5 -70.5q-66 -105 -84 -208q-4 -18 -5.5 -36
t-1.5 -36q0 -137 111 -137q34 0 76 15q80 31 161 104q19 17 35.5 35.5t30.5 37.5q63 85 63 154q0 18 -8.5 25.5t-28.5 7.5q-25 0 -55 -15q-57 -29 -124 -97q-16 -16 -29 -32.5t-24 -32.5q-51 -71 -51 -118q0 -9 -4 -16.5t-12 -7.5q-13 0 -13 20q0 29 11.5 60.5t22.5 56.5
q20 37 49 76.5t65.5 73.5t78 55t85.5 21q89 0 89 -78q0 -71 -36 -140t-102 -125q-64 -53 -140 -83t-150 -30zM420 522q45 0 96.5 4t103 13t93.5 23q11 3 22.5 7t21.5 9q8 5 20.5 13.5t12.5 16.5q0 11 -21.5 16t-61.5 5q-169 0 -310 -107h23zM159 -276q-22 0 -31.5 6.5
t-11.5 17.5q5 -1 15 -1h20q14 0 32.5 11t18.5 31q0 16 -4.5 25t-9.5 19.5t-5 30.5q0 27 25.5 48t55.5 21q4 0 9.5 -3t5.5 -9q-20 -3 -34.5 -18.5t-14.5 -27.5q0 -16 6 -26t12 -21t6 -31q0 -22 -16 -38.5t-38 -25.5t-41 -9z" />
    <glyph glyph-name="Egrave" unicode="&#xc8;" horiz-adv-x="696" 
d="M161 -99q-16 0 -32 1t-32 3q-54 8 -84 39.5t-30 76.5q0 19 4 35q9 33 38 67t70.5 66.5t89 59t95.5 44.5q-48 5 -76 30t-28 65q0 62 39 120q-57 8 -103.5 21t-71.5 28q-14 11 -14 18q0 6 9 6q8 0 19 -4q32 -16 79 -26t105 -15q35 38 84 68t104 51t108.5 32t96.5 11
q25 0 56 -7.5t54 -24t23 -44.5q0 -49 -62.5 -80.5t-175.5 -43.5q-25 -2 -52 -3.5t-53 -1.5q-33 0 -66.5 2t-65.5 5q-28 -27 -48 -57t-20 -60q0 -28 30.5 -49t75.5 -21q14 0 30 3t30 6q23 5 33 5q13 2 24 -12.5t11 -28.5q0 -15 -16 -15q-14 -1 -30.5 -4.5t-35.5 -9.5
q-72 -21 -147 -68q-19 -12 -36 -24t-33 -25q-69 -56 -98 -112q-8 -16 -8 -26q0 -37 95 -37q34 0 79 8t93 22.5t91 32.5q24 11 57 32t64.5 46.5t52 52.5t20.5 51q0 14 -20 14q-17 0 -43.5 -9t-56.5 -24t-57.5 -33.5t-47.5 -37.5q-10 -9 -20 -9q-11 0 -11 12t15 26
q12 11 36 29.5t54.5 38t60.5 33t54 13.5q79 0 79 -71q0 -33 -19 -65.5t-49.5 -61.5t-64.5 -52.5t-63 -37.5q-58 -31 -133.5 -52.5t-155.5 -21.5zM417 586q-17 -10 -39.5 -23.5t-45.5 -29.5q101 0 194 14q82 11 135 32t53 42q0 17 -99 17q-56 -1 -108 -17t-90 -35zM638 751
l-12 4q-4 2 -8 3l-12 3t-29 11.5t-45 21t-41.5 22t-18.5 14.5q-1 10 9.5 19.5t14.5 10.5q2 0 3 0.5t2 0.5q6 0 10 -3q11 -6 36 -23.5t43 -30.5q11 -7 24.5 -16.5t23.5 -14.5q12 -9 12 -15q2 -5 -5 -7q-1 -1 -3 -0.5t-4 0.5z" />
    <glyph glyph-name="Eacute" unicode="&#xc9;" horiz-adv-x="696" 
d="M161 -99q-16 0 -32 1t-32 3q-54 8 -84 39.5t-30 76.5q0 19 4 35q9 33 38 67t70.5 66.5t89 59t95.5 44.5q-48 5 -76 30t-28 65q0 62 39 120q-57 8 -103.5 21t-71.5 28q-14 11 -14 18q0 6 9 6q8 0 19 -4q32 -16 79 -26t105 -15q35 38 84 68t104 51t108.5 32t96.5 11
q25 0 56 -7.5t54 -24t23 -44.5q0 -49 -62.5 -80.5t-175.5 -43.5q-25 -2 -52 -3.5t-53 -1.5q-33 0 -66.5 2t-65.5 5q-28 -27 -48 -57t-20 -60q0 -28 30.5 -49t75.5 -21q14 0 30 3t30 6q23 5 33 5q13 2 24 -12.5t11 -28.5q0 -15 -16 -15q-14 -1 -30.5 -4.5t-35.5 -9.5
q-72 -21 -147 -68q-19 -12 -36 -24t-33 -25q-69 -56 -98 -112q-8 -16 -8 -26q0 -37 95 -37q34 0 79 8t93 22.5t91 32.5q24 11 57 32t64.5 46.5t52 52.5t20.5 51q0 14 -20 14q-17 0 -43.5 -9t-56.5 -24t-57.5 -33.5t-47.5 -37.5q-10 -9 -20 -9q-11 0 -11 12t15 26
q12 11 36 29.5t54.5 38t60.5 33t54 13.5q79 0 79 -71q0 -33 -19 -65.5t-49.5 -61.5t-64.5 -52.5t-63 -37.5q-58 -31 -133.5 -52.5t-155.5 -21.5zM417 586q-17 -10 -39.5 -23.5t-45.5 -29.5q101 0 194 14q82 11 135 32t53 42q0 17 -99 17q-56 -1 -108 -17t-90 -35zM550 751
q-7 0 -7 5q0 8 12 17q10 5 23.5 14.5t24.5 16.5q18 13 43 30.5t36 23.5q6 4 15 2q4 -1 15 -10.5t9 -19.5q-1 -4 -18.5 -14.5t-41.5 -22t-45 -21t-29 -11.5q-7 -2 -11.5 -3t-8.5 -3l-12 -4h-5z" />
    <glyph glyph-name="Ecircumflex" unicode="&#xca;" horiz-adv-x="696" 
d="M161 -99q-16 0 -32 1t-32 3q-54 8 -84 39.5t-30 76.5q0 19 4 35q9 33 38 67t70.5 66.5t89 59t95.5 44.5q-48 5 -76 30t-28 65q0 62 39 120q-57 8 -103.5 21t-71.5 28q-14 11 -14 18q0 6 9 6q8 0 19 -4q32 -16 79 -26t105 -15q35 38 84 68t104 51t108.5 32t96.5 11
q25 0 56 -7.5t54 -24t23 -44.5q0 -49 -62.5 -80.5t-175.5 -43.5q-25 -2 -52 -3.5t-53 -1.5q-33 0 -66.5 2t-65.5 5q-28 -27 -48 -57t-20 -60q0 -28 30.5 -49t75.5 -21q14 0 30 3t30 6q23 5 33 5q13 2 24 -12.5t11 -28.5q0 -15 -16 -15q-14 -1 -30.5 -4.5t-35.5 -9.5
q-72 -21 -147 -68q-19 -12 -36 -24t-33 -25q-69 -56 -98 -112q-8 -16 -8 -26q0 -37 95 -37q34 0 79 8t93 22.5t91 32.5q24 11 57 32t64.5 46.5t52 52.5t20.5 51q0 14 -20 14q-17 0 -43.5 -9t-56.5 -24t-57.5 -33.5t-47.5 -37.5q-10 -9 -20 -9q-11 0 -11 12t15 26
q12 11 36 29.5t54.5 38t60.5 33t54 13.5q79 0 79 -71q0 -33 -19 -65.5t-49.5 -61.5t-64.5 -52.5t-63 -37.5q-58 -31 -133.5 -52.5t-155.5 -21.5zM417 586q-17 -10 -39.5 -23.5t-45.5 -29.5q101 0 194 14q82 11 135 32t53 42q0 17 -99 17q-56 -1 -108 -17t-90 -35zM479 745
q-8 0 -8 10q0 5 8 12q14 9 35 22t40 25.5t27 18.5q14 13 30 13q6 0 13 -4t11 -9q6 -6 19.5 -18.5t29.5 -25.5t28 -23q4 -4 4 -8t-4 -7.5t-8 -3.5q-5 2 -19.5 7.5t-34.5 16.5q-12 7 -22.5 14.5t-23.5 16.5q-13 -7 -29 -14t-27 -13q-19 -10 -40.5 -19t-27.5 -11h-1z" />
    <glyph glyph-name="Edieresis" unicode="&#xcb;" horiz-adv-x="696" 
d="M161 -99q-16 0 -32 1t-32 3q-54 8 -84 39.5t-30 76.5q0 19 4 35q9 33 38 67t70.5 66.5t89 59t95.5 44.5q-48 5 -76 30t-28 65q0 62 39 120q-57 8 -103.5 21t-71.5 28q-14 11 -14 18q0 6 9 6q8 0 19 -4q32 -16 79 -26t105 -15q35 38 84 68t104 51t108.5 32t96.5 11
q25 0 56 -7.5t54 -24t23 -44.5q0 -49 -62.5 -80.5t-175.5 -43.5q-25 -2 -52 -3.5t-53 -1.5q-33 0 -66.5 2t-65.5 5q-28 -27 -48 -57t-20 -60q0 -28 30.5 -49t75.5 -21q14 0 30 3t30 6q23 5 33 5q13 2 24 -12.5t11 -28.5q0 -15 -16 -15q-14 -1 -30.5 -4.5t-35.5 -9.5
q-72 -21 -147 -68q-19 -12 -36 -24t-33 -25q-69 -56 -98 -112q-8 -16 -8 -26q0 -37 95 -37q34 0 79 8t93 22.5t91 32.5q24 11 57 32t64.5 46.5t52 52.5t20.5 51q0 14 -20 14q-17 0 -43.5 -9t-56.5 -24t-57.5 -33.5t-47.5 -37.5q-10 -9 -20 -9q-11 0 -11 12t15 26
q12 11 36 29.5t54.5 38t60.5 33t54 13.5q79 0 79 -71q0 -33 -19 -65.5t-49.5 -61.5t-64.5 -52.5t-63 -37.5q-58 -31 -133.5 -52.5t-155.5 -21.5zM417 586q-17 -10 -39.5 -23.5t-45.5 -29.5q101 0 194 14q82 11 135 32t53 42q0 17 -99 17q-56 -1 -108 -17t-90 -35zM538 750
q-10 0 -18 4.5t-13 16.5q-3 5 -3 11q0 14 11 22q15 13 30 20q3 3 8 4t9 1q9 0 15.5 -4.5t2.5 -12.5q-3 -4 -4.5 -9.5t-3.5 -12.5q-4 -13 -10.5 -26.5t-23.5 -13.5zM663 750q-10 0 -18 4.5t-13 16.5q-3 5 -3 11q0 14 11 22q15 13 30 20q3 3 8 4t9 1q9 0 15.5 -4.5t2.5 -12.5
q-3 -4 -4.5 -9.5t-3.5 -12.5q-4 -13 -10.5 -26.5t-23.5 -13.5z" />
    <glyph glyph-name="Igrave" unicode="&#xcc;" horiz-adv-x="584" 
d="M412 -190q-5 0 -10 6q-13 14 -19.5 42.5t-8.5 60t-1 54.5q-10 -3 -22 -5.5t-25 -5.5q-26 -6 -53 -12.5t-48 -11t-30 -5.5q-22 -2 -51 -5t-54 -3q-30 0 -44 6q-13 4 -13 23q0 16 8.5 33.5t18.5 24.5t24 7h5t6 -1q8 -1 15.5 -2.5t14.5 -2.5q6 -2 30.5 -4.5t53.5 -5t52 -4.5
t26 -2q14 0 36.5 1.5t50.5 4.5q3 23 9.5 49.5t15.5 55.5q20 60 48.5 126.5t63.5 133.5q17 33 33 63t32 57q31 54 57.5 94t40.5 56q9 9 17 15q-22 -2 -51 -9q-85 -22 -154 -66q-38 -24 -65 -53q-33 -34 -48.5 -70t-15.5 -73q0 -10 3 -21.5t16 -16.5q7 -3 7 -9q0 -8 -9 -8
q-13 0 -34 9t-37 28.5t-16 49.5q0 49 26 87q50 71 153 113q23 9 45 17t44 14q35 11 67.5 18t45.5 8q9 1 17.5 2t15.5 2l25 4q7 0 11 -4q14 3 24 3q36 0 36 -24q0 -19 -24 -42q-14 -12 -33.5 -38t-41 -58.5t-42 -66.5t-38.5 -64q-30 -53 -63 -115t-63.5 -128t-51.5 -131
q2 1 4 1l1 1q11 2 19.5 3.5t15.5 1.5q17 0 17 -6q0 -4 -12.5 -12t-37.5 -11l-15 -2q-19 -67 -21 -125v-9q0 -22 7 -28q3 -3 3 -7q0 -8 -9 -8zM806 729l-12 4q-4 2 -8 3l-12 3t-29 11.5t-45 21t-41.5 22t-18.5 14.5q-1 10 9.5 19.5t14.5 10.5q2 0 3 0.5t2 0.5q6 0 10 -3
q11 -6 36 -23.5t43 -30.5q11 -7 24.5 -16.5t23.5 -14.5q12 -9 12 -15q2 -5 -5 -7q-1 -1 -3 -0.5t-4 0.5z" />
    <glyph glyph-name="Iacute" unicode="&#xcd;" horiz-adv-x="584" 
d="M412 -190q-5 0 -10 6q-13 14 -19.5 42.5t-8.5 60t-1 54.5q-10 -3 -22 -5.5t-25 -5.5q-26 -6 -53 -12.5t-48 -11t-30 -5.5q-22 -2 -51 -5t-54 -3q-30 0 -44 6q-13 4 -13 23q0 16 8.5 33.5t18.5 24.5t24 7h5t6 -1q8 -1 15.5 -2.5t14.5 -2.5q6 -2 30.5 -4.5t53.5 -5t52 -4.5
t26 -2q14 0 36.5 1.5t50.5 4.5q3 23 9.5 49.5t15.5 55.5q20 60 48.5 126.5t63.5 133.5q17 33 33 63t32 57q31 54 57.5 94t40.5 56q9 9 17 15q-22 -2 -51 -9q-85 -22 -154 -66q-38 -24 -65 -53q-33 -34 -48.5 -70t-15.5 -73q0 -10 3 -21.5t16 -16.5q7 -3 7 -9q0 -8 -9 -8
q-13 0 -34 9t-37 28.5t-16 49.5q0 49 26 87q50 71 153 113q23 9 45 17t44 14q35 11 67.5 18t45.5 8q9 1 17.5 2t15.5 2l25 4q7 0 11 -4q14 3 24 3q36 0 36 -24q0 -19 -24 -42q-14 -12 -33.5 -38t-41 -58.5t-42 -66.5t-38.5 -64q-30 -53 -63 -115t-63.5 -128t-51.5 -131
q2 1 4 1l1 1q11 2 19.5 3.5t15.5 1.5q17 0 17 -6q0 -4 -12.5 -12t-37.5 -11l-15 -2q-19 -67 -21 -125v-9q0 -22 7 -28q3 -3 3 -7q0 -8 -9 -8zM718 729q-7 0 -7 5q0 8 12 17q10 5 23.5 14.5t24.5 16.5q18 13 43 30.5t36 23.5q6 4 15 2q4 -1 15 -10.5t9 -19.5
q-1 -4 -18.5 -14.5t-41.5 -22t-45 -21t-29 -11.5q-7 -2 -11.5 -3t-8.5 -3l-12 -4h-5z" />
    <glyph glyph-name="Icircumflex" unicode="&#xce;" horiz-adv-x="584" 
d="M412 -190q-5 0 -10 6q-13 14 -19.5 42.5t-8.5 60t-1 54.5q-10 -3 -22 -5.5t-25 -5.5q-26 -6 -53 -12.5t-48 -11t-30 -5.5q-22 -2 -51 -5t-54 -3q-30 0 -44 6q-13 4 -13 23q0 16 8.5 33.5t18.5 24.5t24 7h5t6 -1q8 -1 15.5 -2.5t14.5 -2.5q6 -2 30.5 -4.5t53.5 -5t52 -4.5
t26 -2q14 0 36.5 1.5t50.5 4.5q3 23 9.5 49.5t15.5 55.5q20 60 48.5 126.5t63.5 133.5q17 33 33 63t32 57q31 54 57.5 94t40.5 56q9 9 17 15q-22 -2 -51 -9q-85 -22 -154 -66q-38 -24 -65 -53q-33 -34 -48.5 -70t-15.5 -73q0 -10 3 -21.5t16 -16.5q7 -3 7 -9q0 -8 -9 -8
q-13 0 -34 9t-37 28.5t-16 49.5q0 49 26 87q50 71 153 113q23 9 45 17t44 14q35 11 67.5 18t45.5 8q9 1 17.5 2t15.5 2l25 4q7 0 11 -4q14 3 24 3q36 0 36 -24q0 -19 -24 -42q-14 -12 -33.5 -38t-41 -58.5t-42 -66.5t-38.5 -64q-30 -53 -63 -115t-63.5 -128t-51.5 -131
q2 1 4 1l1 1q11 2 19.5 3.5t15.5 1.5q17 0 17 -6q0 -4 -12.5 -12t-37.5 -11l-15 -2q-19 -67 -21 -125v-9q0 -22 7 -28q3 -3 3 -7q0 -8 -9 -8zM647 723q-8 0 -8 10q0 5 8 12q14 9 35 22t40 25.5t27 18.5q14 13 30 13q6 0 13 -4t11 -9q6 -6 19.5 -18.5t29.5 -25.5t28 -23
q4 -4 4 -8t-4 -7.5t-8 -3.5q-5 2 -19.5 7.5t-34.5 16.5q-12 7 -22.5 14.5t-23.5 16.5q-13 -7 -29 -14t-27 -13q-19 -10 -40.5 -19t-27.5 -11h-1z" />
    <glyph glyph-name="Idieresis" unicode="&#xcf;" horiz-adv-x="584" 
d="M412 -190q-5 0 -10 6q-13 14 -19.5 42.5t-8.5 60t-1 54.5q-10 -3 -22 -5.5t-25 -5.5q-26 -6 -53 -12.5t-48 -11t-30 -5.5q-22 -2 -51 -5t-54 -3q-30 0 -44 6q-13 4 -13 23q0 16 8.5 33.5t18.5 24.5t24 7h5t6 -1q8 -1 15.5 -2.5t14.5 -2.5q6 -2 30.5 -4.5t53.5 -5t52 -4.5
t26 -2q14 0 36.5 1.5t50.5 4.5q3 23 9.5 49.5t15.5 55.5q20 60 48.5 126.5t63.5 133.5q17 33 33 63t32 57q31 54 57.5 94t40.5 56q9 9 17 15q-22 -2 -51 -9q-85 -22 -154 -66q-38 -24 -65 -53q-33 -34 -48.5 -70t-15.5 -73q0 -10 3 -21.5t16 -16.5q7 -3 7 -9q0 -8 -9 -8
q-13 0 -34 9t-37 28.5t-16 49.5q0 49 26 87q50 71 153 113q23 9 45 17t44 14q35 11 67.5 18t45.5 8q9 1 17.5 2t15.5 2l25 4q7 0 11 -4q14 3 24 3q36 0 36 -24q0 -19 -24 -42q-14 -12 -33.5 -38t-41 -58.5t-42 -66.5t-38.5 -64q-30 -53 -63 -115t-63.5 -128t-51.5 -131
q2 1 4 1l1 1q11 2 19.5 3.5t15.5 1.5q17 0 17 -6q0 -4 -12.5 -12t-37.5 -11l-15 -2q-19 -67 -21 -125v-9q0 -22 7 -28q3 -3 3 -7q0 -8 -9 -8zM706 728q-10 0 -18 4.5t-13 16.5q-3 5 -3 11q0 14 11 22q15 13 30 20q3 3 8 4t9 1q9 0 15.5 -4.5t2.5 -12.5q-3 -4 -4.5 -9.5
t-3.5 -12.5q-4 -13 -10.5 -26.5t-23.5 -13.5zM831 728q-10 0 -18 4.5t-13 16.5q-3 5 -3 11q0 14 11 22q15 13 30 20q3 3 8 4t9 1q9 0 15.5 -4.5t2.5 -12.5q-3 -4 -4.5 -9.5t-3.5 -12.5q-4 -13 -10.5 -26.5t-23.5 -13.5z" />
    <glyph glyph-name="Eth" unicode="&#xd0;" horiz-adv-x="950" 
d="M227 -134q-29 0 -29 41q0 8 1 17.5t3 19.5q8 35 25.5 85.5t39.5 104.5q-11 -1 -22 -1h-21q-53 0 -50 59q17 -4 55 -4q14 0 29.5 0.5t31.5 1.5q11 27 22.5 51.5t22.5 44.5q14 28 32.5 69t37.5 87t34.5 90t24.5 78q-26 -56 -57.5 -100.5t-67.5 -83.5q-21 -22 -50.5 -51
t-63 -56t-66 -45t-58.5 -18q-84 0 -92 65v8q0 17 7 20q2 1 4 1q10 0 10 -14q0 -10 3.5 -21t14.5 -11q14 0 45 8t69 30q48 27 112.5 83.5t143.5 159.5q11 16 21 34l20 36q13 25 25.5 46t27.5 28q13 5 21 5q19 0 29.5 -15.5t10.5 -42.5q0 -13 -3 -30q-3 -15 -17 -50
q-13 -33 -32 -74.5t-42 -88.5l-45 -90q-7 -16 -16.5 -32.5t-17.5 -33.5q-12 -23 -22.5 -43.5t-16.5 -33.5l-3 -5h8q29 56 61 114t63 110q48 75 88 131t77 93q76 75 156 75q57 0 100.5 -33t68 -91t24.5 -134q0 -34 -6.5 -68.5t-18.5 -68.5q-25 -67 -67.5 -130.5
t-101.5 -120.5q-28 -28 -58.5 -52t-63.5 -45q-68 -43 -137.5 -65.5t-131.5 -22.5q-47 0 -77 13q-31 13 -41 21q-10 12 -10 19t6 7t14 -5q8 -6 34 -9.5t62 -3.5q51 0 106.5 24.5t109.5 64.5t100 87t76 91q63 93 96 176.5t33 148.5q0 73 -29 111.5t-85 38.5q-24 0 -50.5 -14
t-52.5 -36t-48 -46t-38 -44q-60 -79 -117 -162t-106 -172h17.5t15.5 -1q36 -4 43 -22.5t7 -38.5l-9 -3q-4 4 -28 11q-13 3 -33 3q-9 0 -19 -0.5t-22 -1.5q-13 -28 -27 -57t-25 -58q-6 -16 -15.5 -43t-22 -54.5t-27 -46.5t-30.5 -19zM225 -109l9 16q3 6 13.5 29t21.5 49
q14 31 32 71t39 85l-8 -1q-16 -35 -34 -73.5t-32 -72.5q-11 -27 -21.5 -52t-12.5 -32q-3 -9 -5 -13.5t-2 -5.5z" />
    <glyph glyph-name="Ntilde" unicode="&#xd1;" horiz-adv-x="791" 
d="M88 -211q-16 0 -31.5 8.5t-27.5 24.5q-11 17 -11 41q0 36 24.5 89.5t71.5 126.5q19 32 48.5 75t60.5 86q20 29 39 56.5t34 50.5q47 71 85.5 141t57.5 135l3 3q8 5 16 8l-6 -1q-46 -7 -93 -21t-91 -35q-23 -10 -43.5 -22t-37.5 -25q-79 -59 -85 -132q-1 -4 -1 -10
q0 -11 5.5 -18t14.5 -12l2 -1q5 -4 5 -9q0 -8 -12 -7q-12 0 -33.5 9.5t-38.5 28.5t-17 45q0 56 41 97q72 72 205 102q31 7 60 12.5t57 9.5q35 5 70 8t58 4q7 0 12.5 0.5t9.5 0.5h3q16 0 16 -9q0 -12 -25 -12h-22t-24 -1q11 -6 14 -16h2q3 1 8 1q26 -2 26 -26q0 -7 -2 -14.5
t-5 -16.5q-9 -19 -21.5 -57.5t-26 -87t-25.5 -99t-20 -94.5q-15 -87 -15 -148q0 -60 14.5 -92.5t42.5 -32.5q18 0 49 26q64 56 139 187q18 32 34.5 65t32.5 67q30 69 52 138t29 129q1 12 2 28.5t1 33.5q0 13 -1 25.5t-3 22.5q-8 38 -32 38q-16 0 -38 -16q-5 -4 -10 -4
q-6 0 -6 7q0 6 6 16l1 1q10 10 28.5 19.5t37.5 9.5q47 0 73.5 -31.5t26.5 -87.5q0 -52 -19.5 -125t-52.5 -156q-28 -69 -63.5 -138t-74.5 -128q-30 -45 -67 -80.5t-74.5 -56t-69.5 -20.5q-38 0 -60 28q-21 27 -30 72t-9 110q0 23 1.5 45.5t3.5 45.5q5 51 13 102t18 97
q-15 -21 -35 -48l-40 -54l-54 -72q-43 -57 -87.5 -124.5t-88.5 -144.5q-62 -107 -62 -136q0 -8 5 -10q7 -4 16 -4q16 0 35.5 10t40.5 22q12 7 24 13.5t23 10.5q4 2 5 2q7 0 7 -7q0 -5 -7 -8t-18.5 -14.5t-22 -24t-15.5 -18.5q-24 -27 -56 -27zM562 748q-8 0 -8 3
q0 13 10 29.5t26 29t32 12.5q20 0 37.5 -8t34 -16.5t32.5 -8.5q12 0 18.5 7.5t15.5 24.5q3 0 6 -1.5t3 -12.5q-6 -26 -29.5 -42.5t-40.5 -16.5q-21 0 -35 8.5t-26 16.5t-30 8t-27 -12.5t-15 -19.5z" />
    <glyph glyph-name="Ograve" unicode="&#xd2;" horiz-adv-x="681" 
d="M210 -135q-59 0 -97 26q-75 50 -90 162q-2 15 -3 30t-1 30q0 11 0.5 23t1.5 23q4 54 18 105t35 90q34 64 84 122t108 104q63 48 126 73.5t120 25.5q72 0 109.5 -37.5t37.5 -105.5q0 -25 -5 -52.5t-14 -58.5q17 -25 25 -57.5t8 -66.5q0 -29 -5.5 -57t-15.5 -52
q-66 -149 -199 -242q-58 -41 -121.5 -63t-121.5 -22zM239 -102q94 0 181 76q96 81 165 240q14 29 28.5 73.5t14.5 82.5q0 6 -1 12q-20 -51 -40 -84q-51 -85 -91 -136.5t-75 -83.5q-30 -28 -69 -51.5t-74 -44.5q-4 -3 -8 -3t-4 5t2 8q5 8 12 14q53 40 104 96.5t95.5 123
t76.5 135.5l2 7q5 11 12 34t11 54l-15 6q-19 8 -42 5l-31 -5h-3q-8 0 -8 6q0 4 3 8q6 8 18 11q10 1 29.5 0t43.5 -9l8 -4q3 24 3 50q0 50 -15 87t-55 37q-110 0 -214 -105q-87 -88 -153 -239q-28 -63 -42.5 -120.5t-14.5 -105.5q0 -20 2.5 -39t7.5 -36q15 -49 51 -77t85 -28
zM591 730l-12 4q-4 2 -8 3l-12 3t-29 11.5t-45 21t-41.5 22t-18.5 14.5q-1 10 9.5 19.5t14.5 10.5q2 0 3 0.5t2 0.5q6 0 10 -3q11 -6 36 -23.5t43 -30.5q11 -7 24.5 -16.5t23.5 -14.5q12 -9 12 -15q2 -5 -5 -7q-1 -1 -3 -0.5t-4 0.5z" />
    <glyph glyph-name="Oacute" unicode="&#xd3;" horiz-adv-x="681" 
d="M210 -135q-59 0 -97 26q-75 50 -90 162q-2 15 -3 30t-1 30q0 11 0.5 23t1.5 23q4 54 18 105t35 90q34 64 84 122t108 104q63 48 126 73.5t120 25.5q72 0 109.5 -37.5t37.5 -105.5q0 -25 -5 -52.5t-14 -58.5q17 -25 25 -57.5t8 -66.5q0 -29 -5.5 -57t-15.5 -52
q-66 -149 -199 -242q-58 -41 -121.5 -63t-121.5 -22zM239 -102q94 0 181 76q96 81 165 240q14 29 28.5 73.5t14.5 82.5q0 6 -1 12q-20 -51 -40 -84q-51 -85 -91 -136.5t-75 -83.5q-30 -28 -69 -51.5t-74 -44.5q-4 -3 -8 -3t-4 5t2 8q5 8 12 14q53 40 104 96.5t95.5 123
t76.5 135.5l2 7q5 11 12 34t11 54l-15 6q-19 8 -42 5l-31 -5h-3q-8 0 -8 6q0 4 3 8q6 8 18 11q10 1 29.5 0t43.5 -9l8 -4q3 24 3 50q0 50 -15 87t-55 37q-110 0 -214 -105q-87 -88 -153 -239q-28 -63 -42.5 -120.5t-14.5 -105.5q0 -20 2.5 -39t7.5 -36q15 -49 51 -77t85 -28
zM503 730q-7 0 -7 5q0 8 12 17q10 5 23.5 14.5t24.5 16.5q18 13 43 30.5t36 23.5q6 4 15 2q4 -1 15 -10.5t9 -19.5q-1 -4 -18.5 -14.5t-41.5 -22t-45 -21t-29 -11.5q-7 -2 -11.5 -3t-8.5 -3l-12 -4h-5z" />
    <glyph glyph-name="Ocircumflex" unicode="&#xd4;" horiz-adv-x="681" 
d="M210 -135q-59 0 -97 26q-75 50 -90 162q-2 15 -3 30t-1 30q0 11 0.5 23t1.5 23q4 54 18 105t35 90q34 64 84 122t108 104q63 48 126 73.5t120 25.5q72 0 109.5 -37.5t37.5 -105.5q0 -25 -5 -52.5t-14 -58.5q17 -25 25 -57.5t8 -66.5q0 -29 -5.5 -57t-15.5 -52
q-66 -149 -199 -242q-58 -41 -121.5 -63t-121.5 -22zM239 -102q94 0 181 76q96 81 165 240q14 29 28.5 73.5t14.5 82.5q0 6 -1 12q-20 -51 -40 -84q-51 -85 -91 -136.5t-75 -83.5q-30 -28 -69 -51.5t-74 -44.5q-4 -3 -8 -3t-4 5t2 8q5 8 12 14q53 40 104 96.5t95.5 123
t76.5 135.5l2 7q5 11 12 34t11 54l-15 6q-19 8 -42 5l-31 -5h-3q-8 0 -8 6q0 4 3 8q6 8 18 11q10 1 29.5 0t43.5 -9l8 -4q3 24 3 50q0 50 -15 87t-55 37q-110 0 -214 -105q-87 -88 -153 -239q-28 -63 -42.5 -120.5t-14.5 -105.5q0 -20 2.5 -39t7.5 -36q15 -49 51 -77t85 -28
zM432 724q-8 0 -8 10q0 5 8 12q14 9 35 22t40 25.5t27 18.5q14 13 30 13q6 0 13 -4t11 -9q6 -6 19.5 -18.5t29.5 -25.5t28 -23q4 -4 4 -8t-4 -7.5t-8 -3.5q-5 2 -19.5 7.5t-34.5 16.5q-12 7 -22.5 14.5t-23.5 16.5q-13 -7 -29 -14t-27 -13q-19 -10 -40.5 -19t-27.5 -11h-1z
" />
    <glyph glyph-name="Otilde" unicode="&#xd5;" horiz-adv-x="681" 
d="M210 -135q-59 0 -97 26q-75 50 -90 162q-2 15 -3 30t-1 30q0 11 0.5 23t1.5 23q4 54 18 105t35 90q34 64 84 122t108 104q63 48 126 73.5t120 25.5q72 0 109.5 -37.5t37.5 -105.5q0 -25 -5 -52.5t-14 -58.5q17 -25 25 -57.5t8 -66.5q0 -29 -5.5 -57t-15.5 -52
q-66 -149 -199 -242q-58 -41 -121.5 -63t-121.5 -22zM239 -102q94 0 181 76q96 81 165 240q14 29 28.5 73.5t14.5 82.5q0 6 -1 12q-20 -51 -40 -84q-51 -85 -91 -136.5t-75 -83.5q-30 -28 -69 -51.5t-74 -44.5q-4 -3 -8 -3t-4 5t2 8q5 8 12 14q53 40 104 96.5t95.5 123
t76.5 135.5l2 7q5 11 12 34t11 54l-15 6q-19 8 -42 5l-31 -5h-3q-8 0 -8 6q0 4 3 8q6 8 18 11q10 1 29.5 0t43.5 -9l8 -4q3 24 3 50q0 50 -15 87t-55 37q-110 0 -214 -105q-87 -88 -153 -239q-28 -63 -42.5 -120.5t-14.5 -105.5q0 -20 2.5 -39t7.5 -36q15 -49 51 -77t85 -28
zM454 727q-8 0 -8 3q0 13 10 29.5t26 29t32 12.5q20 0 37.5 -8t34 -16.5t32.5 -8.5q12 0 18.5 7.5t15.5 24.5q3 0 6 -1.5t3 -12.5q-6 -26 -29.5 -42.5t-40.5 -16.5q-21 0 -35 8.5t-26 16.5t-30 8t-27 -12.5t-15 -19.5z" />
    <glyph glyph-name="Odieresis" unicode="&#xd6;" horiz-adv-x="681" 
d="M210 -135q-59 0 -97 26q-75 50 -90 162q-2 15 -3 30t-1 30q0 11 0.5 23t1.5 23q4 54 18 105t35 90q34 64 84 122t108 104q63 48 126 73.5t120 25.5q72 0 109.5 -37.5t37.5 -105.5q0 -25 -5 -52.5t-14 -58.5q17 -25 25 -57.5t8 -66.5q0 -29 -5.5 -57t-15.5 -52
q-66 -149 -199 -242q-58 -41 -121.5 -63t-121.5 -22zM239 -102q94 0 181 76q96 81 165 240q14 29 28.5 73.5t14.5 82.5q0 6 -1 12q-20 -51 -40 -84q-51 -85 -91 -136.5t-75 -83.5q-30 -28 -69 -51.5t-74 -44.5q-4 -3 -8 -3t-4 5t2 8q5 8 12 14q53 40 104 96.5t95.5 123
t76.5 135.5l2 7q5 11 12 34t11 54l-15 6q-19 8 -42 5l-31 -5h-3q-8 0 -8 6q0 4 3 8q6 8 18 11q10 1 29.5 0t43.5 -9l8 -4q3 24 3 50q0 50 -15 87t-55 37q-110 0 -214 -105q-87 -88 -153 -239q-28 -63 -42.5 -120.5t-14.5 -105.5q0 -20 2.5 -39t7.5 -36q15 -49 51 -77t85 -28
zM491 729q-10 0 -18 4.5t-13 16.5q-3 5 -3 11q0 14 11 22q15 13 30 20q3 3 8 4t9 1q9 0 15.5 -4.5t2.5 -12.5q-3 -4 -4.5 -9.5t-3.5 -12.5q-4 -13 -10.5 -26.5t-23.5 -13.5zM616 729q-10 0 -18 4.5t-13 16.5q-3 5 -3 11q0 14 11 22q15 13 30 20q3 3 8 4t9 1q9 0 15.5 -4.5
t2.5 -12.5q-3 -4 -4.5 -9.5t-3.5 -12.5q-4 -13 -10.5 -26.5t-23.5 -13.5z" />
    <glyph glyph-name="multiply" unicode="&#xd7;" horiz-adv-x="401" 
d="M102 76q-6 0 -6 8q0 7 6 18.5t17 22.5q17 16 45.5 38.5t66.5 53.5l-19 30q-2 4 -4.5 7.5t-4.5 6.5q-2 4 -4.5 7.5t-4.5 6.5q-4 8 -7.5 13.5t-5.5 9.5q-6 12 -6 22q0 13 10 21t28 8q17 0 26.5 -17.5t16.5 -38.5q4 -10 8 -20.5t9 -20.5q14 11 29 24t29 26q20 17 38.5 32.5
t31.5 24.5q11 7 17 7q5 0 5 -7q0 -12 -12 -41l-120 -95q11 -21 28 -49.5t41 -65.5l1 -2v-1q0 -7 -6.5 -11t-14.5 -4q-9 0 -17.5 3.5t-10.5 9.5q-14 13 -30 34.5t-35 50.5l-53 -43q-16 -13 -34.5 -27t-39.5 -30q-12 -12 -18 -12z" />
    <glyph glyph-name="Oslash" unicode="&#xd8;" horiz-adv-x="681" 
d="M123 -183q-10 2 -15.5 21t-2.5 37q10 53 54.5 150t116.5 219q69 117 155.5 247t178.5 246q2 5 8 4t12 -16.5t9.5 -35.5t1.5 -32q-1 -5 -6 -13q-9 -13 -24 -33.5t-36 -48.5q-41 -58 -94 -134.5t-110 -162.5q-29 -43 -55 -85t-50 -82q-110 -185 -120 -243l-2 -9q1 -3 0 -9
q-4 -23 -21 -20zM210 -135q-59 0 -97 26q-75 50 -90 162q-2 15 -3 30t-1 30q0 11 0.5 23t1.5 23q4 54 18 105t35 90q34 64 84 122t108 104q63 48 126 73.5t120 25.5q72 0 109.5 -37.5t37.5 -105.5q0 -25 -5 -52.5t-14 -58.5q17 -25 25 -57.5t8 -66.5q0 -29 -5.5 -57
t-15.5 -52q-66 -149 -199 -242q-58 -41 -121.5 -63t-121.5 -22zM239 -102q94 0 181 76q96 81 165 240q14 29 28.5 73.5t14.5 82.5q0 6 -1 12q-20 -51 -40 -84q-51 -85 -91 -136.5t-75 -83.5q-30 -28 -69 -51.5t-74 -44.5q-4 -3 -8 -3t-4 5t2 8q5 8 12 14q53 40 104 96.5
t95.5 123t76.5 135.5l2 7q5 11 12 34t11 54l-15 6q-19 8 -42 5l-31 -5h-3q-8 0 -8 6q0 4 3 8q6 8 18 11q10 1 29.5 0t43.5 -9l8 -4q3 24 3 50q0 50 -15 87t-55 37q-110 0 -214 -105q-87 -88 -153 -239q-28 -63 -42.5 -120.5t-14.5 -105.5q0 -20 2.5 -39t7.5 -36
q15 -49 51 -77t85 -28z" />
    <glyph glyph-name="Ugrave" unicode="&#xd9;" horiz-adv-x="868" 
d="M689 -283q-13 0 -26 3.5t-24 10.5q-19 13 -27.5 38t-8.5 55q0 45 12.5 93.5t23.5 79.5t27.5 74t35.5 92q26 69 53 140.5t45 123.5q8 23 17 53t17 59q-35 -80 -91 -171q-37 -60 -76.5 -115.5t-77.5 -100.5q-27 -32 -63.5 -68t-77 -66t-80.5 -48q-16 -7 -31 -10.5t-28 -3.5
q-31 0 -49.5 19t-18.5 52q0 32 18 72q10 18 30 55t45 83l106 192q35 63 64.5 119.5t43.5 98.5l-8 -14l-8 -14q-30 -54 -56 -96q-24 -39 -49 -74.5t-52 -63.5q-29 -31 -67.5 -67.5t-83 -62t-91.5 -25.5q-37 -1 -60 20t-23 56v6q0 17 8 21q2 1 5 1q9 0 9 -13q0 -33 18 -33
q13 0 44.5 8t68.5 30q48 27 112.5 83.5t143.5 159.5q12 17 23 35.5t21 36.5q13 23 25 43t24 28q11 7 19 7q6 0 10 -4q14 -8 19.5 -24t5.5 -37q0 -31 -11 -71t-28.5 -81t-38.5 -77q-18 -34 -40.5 -74.5t-44.5 -79.5q-25 -43 -45 -78.5t-29 -53.5q-9 -20 -20 -44t-19 -46.5
t-8 -37.5q0 -17 14 -17q9 0 27 8q26 11 55.5 35.5t59 55t55.5 60.5t43 52q41 51 82.5 108.5t77.5 115.5q37 58 65 114t44 105l3 3q11 4 24 7t26 3q8 0 16 -1.5t14 -6.5q25 -18 25 -51q0 -17 -13 -56q-10 -29 -25.5 -67.5t-36.5 -87.5l-38 -88q-4 -11 -10 -23.5t-11 -26.5
q-12 -26 -23 -51.5t-17 -41.5q-10 -24 -23 -57.5t-26.5 -70t-24.5 -69t-17 -53.5q-1 -6 -3 -13.5t-4 -15.5q-10 -38 -15 -64.5t-5 -42.5q0 -24 11 -24q20 -1 40.5 16.5t42.5 39.5l24 24t25 21q4 4 8 4q6 0 6 -6q0 -5 -4 -9q-6 -5 -15 -20t-17 -30t-12 -23q-11 -24 -33.5 -37
t-47.5 -13zM789 751l-12 4q-4 2 -8 3l-12 3t-29 11.5t-45 21t-41.5 22t-18.5 14.5q-1 10 9.5 19.5t14.5 10.5q2 0 3 0.5t2 0.5q6 0 10 -3q11 -6 36 -23.5t43 -30.5q11 -7 24.5 -16.5t23.5 -14.5q12 -9 12 -15q2 -5 -5 -7q-1 -1 -3 -0.5t-4 0.5z" />
    <glyph glyph-name="Uacute" unicode="&#xda;" horiz-adv-x="868" 
d="M689 -283q-13 0 -26 3.5t-24 10.5q-19 13 -27.5 38t-8.5 55q0 45 12.5 93.5t23.5 79.5t27.5 74t35.5 92q26 69 53 140.5t45 123.5q8 23 17 53t17 59q-35 -80 -91 -171q-37 -60 -76.5 -115.5t-77.5 -100.5q-27 -32 -63.5 -68t-77 -66t-80.5 -48q-16 -7 -31 -10.5t-28 -3.5
q-31 0 -49.5 19t-18.5 52q0 32 18 72q10 18 30 55t45 83l106 192q35 63 64.5 119.5t43.5 98.5l-8 -14l-8 -14q-30 -54 -56 -96q-24 -39 -49 -74.5t-52 -63.5q-29 -31 -67.5 -67.5t-83 -62t-91.5 -25.5q-37 -1 -60 20t-23 56v6q0 17 8 21q2 1 5 1q9 0 9 -13q0 -33 18 -33
q13 0 44.5 8t68.5 30q48 27 112.5 83.5t143.5 159.5q12 17 23 35.5t21 36.5q13 23 25 43t24 28q11 7 19 7q6 0 10 -4q14 -8 19.5 -24t5.5 -37q0 -31 -11 -71t-28.5 -81t-38.5 -77q-18 -34 -40.5 -74.5t-44.5 -79.5q-25 -43 -45 -78.5t-29 -53.5q-9 -20 -20 -44t-19 -46.5
t-8 -37.5q0 -17 14 -17q9 0 27 8q26 11 55.5 35.5t59 55t55.5 60.5t43 52q41 51 82.5 108.5t77.5 115.5q37 58 65 114t44 105l3 3q11 4 24 7t26 3q8 0 16 -1.5t14 -6.5q25 -18 25 -51q0 -17 -13 -56q-10 -29 -25.5 -67.5t-36.5 -87.5l-38 -88q-4 -11 -10 -23.5t-11 -26.5
q-12 -26 -23 -51.5t-17 -41.5q-10 -24 -23 -57.5t-26.5 -70t-24.5 -69t-17 -53.5q-1 -6 -3 -13.5t-4 -15.5q-10 -38 -15 -64.5t-5 -42.5q0 -24 11 -24q20 -1 40.5 16.5t42.5 39.5l24 24t25 21q4 4 8 4q6 0 6 -6q0 -5 -4 -9q-6 -5 -15 -20t-17 -30t-12 -23q-11 -24 -33.5 -37
t-47.5 -13zM701 751q-7 0 -7 5q0 8 12 17q10 5 23.5 14.5t24.5 16.5q18 13 43 30.5t36 23.5q6 4 15 2q4 -1 15 -10.5t9 -19.5q-1 -4 -18.5 -14.5t-41.5 -22t-45 -21t-29 -11.5q-7 -2 -11.5 -3t-8.5 -3l-12 -4h-5z" />
    <glyph glyph-name="Ucircumflex" unicode="&#xdb;" horiz-adv-x="868" 
d="M689 -283q-13 0 -26 3.5t-24 10.5q-19 13 -27.5 38t-8.5 55q0 45 12.5 93.5t23.5 79.5t27.5 74t35.5 92q26 69 53 140.5t45 123.5q8 23 17 53t17 59q-35 -80 -91 -171q-37 -60 -76.5 -115.5t-77.5 -100.5q-27 -32 -63.5 -68t-77 -66t-80.5 -48q-16 -7 -31 -10.5t-28 -3.5
q-31 0 -49.5 19t-18.5 52q0 32 18 72q10 18 30 55t45 83l106 192q35 63 64.5 119.5t43.5 98.5l-8 -14l-8 -14q-30 -54 -56 -96q-24 -39 -49 -74.5t-52 -63.5q-29 -31 -67.5 -67.5t-83 -62t-91.5 -25.5q-37 -1 -60 20t-23 56v6q0 17 8 21q2 1 5 1q9 0 9 -13q0 -33 18 -33
q13 0 44.5 8t68.5 30q48 27 112.5 83.5t143.5 159.5q12 17 23 35.5t21 36.5q13 23 25 43t24 28q11 7 19 7q6 0 10 -4q14 -8 19.5 -24t5.5 -37q0 -31 -11 -71t-28.5 -81t-38.5 -77q-18 -34 -40.5 -74.5t-44.5 -79.5q-25 -43 -45 -78.5t-29 -53.5q-9 -20 -20 -44t-19 -46.5
t-8 -37.5q0 -17 14 -17q9 0 27 8q26 11 55.5 35.5t59 55t55.5 60.5t43 52q41 51 82.5 108.5t77.5 115.5q37 58 65 114t44 105l3 3q11 4 24 7t26 3q8 0 16 -1.5t14 -6.5q25 -18 25 -51q0 -17 -13 -56q-10 -29 -25.5 -67.5t-36.5 -87.5l-38 -88q-4 -11 -10 -23.5t-11 -26.5
q-12 -26 -23 -51.5t-17 -41.5q-10 -24 -23 -57.5t-26.5 -70t-24.5 -69t-17 -53.5q-1 -6 -3 -13.5t-4 -15.5q-10 -38 -15 -64.5t-5 -42.5q0 -24 11 -24q20 -1 40.5 16.5t42.5 39.5l24 24t25 21q4 4 8 4q6 0 6 -6q0 -5 -4 -9q-6 -5 -15 -20t-17 -30t-12 -23q-11 -24 -33.5 -37
t-47.5 -13zM630 745q-8 0 -8 10q0 5 8 12q14 9 35 22t40 25.5t27 18.5q14 13 30 13q6 0 13 -4t11 -9q6 -6 19.5 -18.5t29.5 -25.5t28 -23q4 -4 4 -8t-4 -7.5t-8 -3.5q-5 2 -19.5 7.5t-34.5 16.5q-12 7 -22.5 14.5t-23.5 16.5q-13 -7 -29 -14t-27 -13q-19 -10 -40.5 -19
t-27.5 -11h-1z" />
    <glyph glyph-name="Udieresis" unicode="&#xdc;" horiz-adv-x="868" 
d="M689 -283q-13 0 -26 3.5t-24 10.5q-19 13 -27.5 38t-8.5 55q0 45 12.5 93.5t23.5 79.5t27.5 74t35.5 92q26 69 53 140.5t45 123.5q8 23 17 53t17 59q-35 -80 -91 -171q-37 -60 -76.5 -115.5t-77.5 -100.5q-27 -32 -63.5 -68t-77 -66t-80.5 -48q-16 -7 -31 -10.5t-28 -3.5
q-31 0 -49.5 19t-18.5 52q0 32 18 72q10 18 30 55t45 83l106 192q35 63 64.5 119.5t43.5 98.5l-8 -14l-8 -14q-30 -54 -56 -96q-24 -39 -49 -74.5t-52 -63.5q-29 -31 -67.5 -67.5t-83 -62t-91.5 -25.5q-37 -1 -60 20t-23 56v6q0 17 8 21q2 1 5 1q9 0 9 -13q0 -33 18 -33
q13 0 44.5 8t68.5 30q48 27 112.5 83.5t143.5 159.5q12 17 23 35.5t21 36.5q13 23 25 43t24 28q11 7 19 7q6 0 10 -4q14 -8 19.5 -24t5.5 -37q0 -31 -11 -71t-28.5 -81t-38.5 -77q-18 -34 -40.5 -74.5t-44.5 -79.5q-25 -43 -45 -78.5t-29 -53.5q-9 -20 -20 -44t-19 -46.5
t-8 -37.5q0 -17 14 -17q9 0 27 8q26 11 55.5 35.5t59 55t55.5 60.5t43 52q41 51 82.5 108.5t77.5 115.5q37 58 65 114t44 105l3 3q11 4 24 7t26 3q8 0 16 -1.5t14 -6.5q25 -18 25 -51q0 -17 -13 -56q-10 -29 -25.5 -67.5t-36.5 -87.5l-38 -88q-4 -11 -10 -23.5t-11 -26.5
q-12 -26 -23 -51.5t-17 -41.5q-10 -24 -23 -57.5t-26.5 -70t-24.5 -69t-17 -53.5q-1 -6 -3 -13.5t-4 -15.5q-10 -38 -15 -64.5t-5 -42.5q0 -24 11 -24q20 -1 40.5 16.5t42.5 39.5l24 24t25 21q4 4 8 4q6 0 6 -6q0 -5 -4 -9q-6 -5 -15 -20t-17 -30t-12 -23q-11 -24 -33.5 -37
t-47.5 -13zM689 750q-10 0 -18 4.5t-13 16.5q-3 5 -3 11q0 14 11 22q15 13 30 20q3 3 8 4t9 1q9 0 15.5 -4.5t2.5 -12.5q-3 -4 -4.5 -9.5t-3.5 -12.5q-4 -13 -10.5 -26.5t-23.5 -13.5zM814 750q-10 0 -18 4.5t-13 16.5q-3 5 -3 11q0 14 11 22q15 13 30 20q3 3 8 4t9 1
q9 0 15.5 -4.5t2.5 -12.5q-3 -4 -4.5 -9.5t-3.5 -12.5q-4 -13 -10.5 -26.5t-23.5 -13.5z" />
    <glyph glyph-name="Yacute" unicode="&#xdd;" horiz-adv-x="868" 
d="M167 -418q-78 0 -102 54q-8 19 -8 40q0 71 71 161q41 51 109 105t151 101t162 77t141 38q17 41 29.5 89t19 96t6.5 88q0 22 -2 42q-2 -3 -3.5 -6.5t-3.5 -6.5q-30 -55 -65.5 -108t-68.5 -96q-30 -38 -75.5 -78t-89.5 -61q-24 -11 -41 -11q-24 0 -37.5 16.5t-13.5 44.5
q0 12 2.5 26t8.5 30q5 10 13 29.5t18 41.5l18 41q17 38 34.5 80t32.5 81q14 35 29 73.5t27 73.5t16 60l-28 -50q-9 -16 -19 -32.5t-20 -33.5l-45 -75q-29 -49 -58 -92.5t-58 -81.5q-16 -21 -34 -40t-37 -36q-85 -75 -171 -75q-45 0 -70.5 26t-25.5 72q0 32 16.5 60
t41.5 51.5t49 39.5l27 18q4 2 6 2q6 0 6 -7q0 -5 -5 -9q-12 -12 -27 -36.5t-29 -52.5t-23 -53q-4 -13 -6 -24.5t-2 -21.5q0 -39 29 -39q37 0 80 29q44 30 88.5 77t89.5 105q45 59 84 114q13 18 26 37.5t26 38.5q22 32 42 61.5t33 45.5q5 6 8.5 11t7.5 8q6 6 11 6t8 -3
q39 -30 39 -86q0 -46 -27 -114q-12 -29 -36.5 -77t-48.5 -95q-20 -39 -35.5 -69.5t-18.5 -41.5q-32 -82 -32 -107q0 -15 11 -15q4 0 16 5q18 8 39 27t42.5 43t40 47.5t30.5 39.5q5 7 11 14.5t12 15.5q29 38 59 80t45 75q5 11 10 19.5t9 15.5q-2 5 -4.5 7.5l-4.5 4.5
q-13 6 -13 16q0 9 10 17t23 8q11 0 21.5 -6t19.5 -20t13.5 -42t4.5 -64q0 -43 -5.5 -93.5t-15.5 -100t-24 -90.5q68 -8 98 -47q9 -13 6 -19q-1 -6 -6 -6q-4 0 -9 6q-7 9 -25.5 12.5t-41 4.5t-42.5 1q-98 -237 -246 -373q-66 -60 -129.5 -93.5t-116.5 -48.5q-43 -12 -78 -12z
M149 -382q41 0 100 38q79 51 145.5 110t118.5 120q50 58 88 112.5t63 100.5q-57 -13 -122 -37.5t-128 -58.5q-67 -36 -129.5 -80.5t-109.5 -93.5q-36 -39 -53 -72q-26 -47 -26 -82q0 -15 5 -28q8 -19 26 -25q9 -4 22 -4zM708 751q-7 0 -7 5q0 8 12 17q10 5 23.5 14.5
t24.5 16.5q18 13 43 30.5t36 23.5q6 4 15 2q4 -1 15 -10.5t9 -19.5q-1 -4 -18.5 -14.5t-41.5 -22t-45 -21t-29 -11.5q-7 -2 -11.5 -3t-8.5 -3l-12 -4h-5z" />
    <glyph glyph-name="Thorn" unicode="&#xde;" horiz-adv-x="489" 
d="M32 -132q-9 0 -14.5 6t-4.5 18q5 24 19.5 80t39.5 133q24 75 57 167t73 191q-4 -1 -8 -1h-7q-4 -2 -9 -2.5t-9 -0.5q-28 0 -42.5 10.5t-14.5 26.5q0 5 1 11t4 11l6 4q27 2 55.5 7.5t57.5 12.5l41 97q11 26 22.5 50.5t22.5 47.5l-1 -2q0 6 7 9l3 1q8 0 19 -10.5
t20.5 -24.5t10.5 -24q0 -6 -3 -12l-20 -48q-6 -13 -12.5 -28t-13.5 -32q35 8 60 11.5t47 3.5q62 0 96 -34.5t34 -97.5q0 -35 -19 -79q-17 -41 -49 -82.5t-74 -81.5q-19 -17 -41.5 -32t-45.5 -28q-33 -18 -65.5 -26.5t-61.5 -8.5q-16 0 -31.5 3t-30.5 7l-87 -226
q-4 -13 -14 -20t-18 -7zM172 176q14 1 30.5 5t34.5 8q39 14 79 35t78 51q34 25 64 56.5t48.5 66t18.5 67.5q0 43 -80 43q-26 0 -63.5 -5.5t-82.5 -17.5q-31 -71 -63.5 -151.5t-63.5 -157.5z" />
    <glyph glyph-name="germandbls" unicode="&#xdf;" horiz-adv-x="402" 
d="M-116 -183q-33 0 -57 21t-24 49q0 10 4.5 26t18 29t39.5 13l4 -8q-10 -13 -16 -30t-6 -28q0 -21 10.5 -34t29.5 -13q25 0 51 33t59 108q12 27 28 68t34 87q20 51 40.5 105.5t42 105t40.5 88.5q27 54 65 92.5t93 38.5q36 0 58.5 -20.5t22.5 -54.5q0 -65 -104 -106
q-18 -6 -27 -16.5t-5 -18.5q26 -43 40 -86t14 -99q0 -66 -22 -124q25 18 47 38t34 33q11 11 20 21.5t17 21.5q4 5 9 5q11 0 11 -13q0 -5 -5 -13q-4 -5 -8.5 -10.5t-9.5 -11.5q-16 -21 -34.5 -42.5t-39.5 -38.5q-6 -4 -11 -9q-10 -9 -24 -19.5t-28 -17.5q-25 -14 -54 -14
q-41 0 -82 31q-19 12 -33 38q-8 16 -8 28q0 21 16 21q15 0 31 -33q10 -20 18.5 -33t27.5 -13q17 0 29.5 16.5t20.5 42t12.5 54t4.5 51.5q2 60 -6.5 95.5t-16.5 56.5q-3 10 -5 17.5t-2 14.5q0 12 6 18q10 11 31 28q18 15 38 33.5t34 37.5t14 37q0 23 -33 23q-28 0 -53.5 -32
t-57.5 -106q-14 -32 -29 -73t-32 -87q-20 -55 -42 -113t-44.5 -110.5t-46.5 -92.5q-64 -106 -149 -106z" />
    <glyph glyph-name="agrave" unicode="&#xe0;" horiz-adv-x="366" 
d="M244 -9q-20 0 -32.5 15t-12.5 42q0 19 6 41q2 8 10.5 27.5t17.5 39.5q3 5 5 10q-29 -38 -64 -67.5t-74 -29.5q-34 1 -48 18.5t-14 42.5q0 28 12.5 61t27.5 58q26 41 63.5 80.5t80.5 65.5t82 26q44 0 80 -29q9 -7 12.5 -15t3.5 -14q0 -9 -5 -15t-12 -6q-11 0 -17 16
q-6 17 -16 24t-22 7q-24 0 -55 -22t-61 -54q-35 -35 -61.5 -76.5t-40.5 -75.5q-13 -29 -13 -44q0 -14 11 -14q15 0 46 25q22 17 47.5 44t48.5 54t36 42q5 8 9.5 15t8.5 12q11 15 34 15q15 0 25.5 -7t5.5 -19q-3 -5 -8 -14.5t-12 -23.5q-13 -24 -29 -56l-30 -60t-21 -44
q-15 -30 -15 -43q0 -9 7 -9q3 0 7.5 2t10.5 5q18 10 39 28t45 46q11 11 20 21.5t17 20.5q3 5 8 5q12 0 12 -14q0 -7 -5 -12q-11 -14 -22 -27t-23 -26q-11 -13 -22.5 -26t-24.5 -24q-22 -22 -42.5 -32t-36.5 -10zM356 471q-3 0 -7 2l-11 5q-4 2 -8 4.5t-10 6.5q-7 4 -22 14
t-31.5 22t-27.5 22.5t-11 14.5q0 10 12.5 17t16.5 7q9 0 14 -5q11 -8 22.5 -21t23.5 -27q18 -23 36 -39q9 -9 9 -17q0 -6 -6 -6z" />
    <glyph glyph-name="aacute" unicode="&#xe1;" horiz-adv-x="366" 
d="M244 -9q-20 0 -32.5 15t-12.5 42q0 19 6 41q2 8 10.5 27.5t17.5 39.5q3 5 5 10q-29 -38 -64 -67.5t-74 -29.5q-34 1 -48 18.5t-14 42.5q0 28 12.5 61t27.5 58q26 41 63.5 80.5t80.5 65.5t82 26q44 0 80 -29q9 -7 12.5 -15t3.5 -14q0 -9 -5 -15t-12 -6q-11 0 -17 16
q-6 17 -16 24t-22 7q-24 0 -55 -22t-61 -54q-35 -35 -61.5 -76.5t-40.5 -75.5q-13 -29 -13 -44q0 -14 11 -14q15 0 46 25q22 17 47.5 44t48.5 54t36 42q5 8 9.5 15t8.5 12q11 15 34 15q15 0 25.5 -7t5.5 -19q-3 -5 -8 -14.5t-12 -23.5q-13 -24 -29 -56l-30 -60t-21 -44
q-15 -30 -15 -43q0 -9 7 -9q3 0 7.5 2t10.5 5q18 10 39 28t45 46q11 11 20 21.5t17 20.5q3 5 8 5q12 0 12 -14q0 -7 -5 -12q-11 -14 -22 -27t-23 -26q-11 -13 -22.5 -26t-24.5 -24q-22 -22 -42.5 -32t-36.5 -10zM306 471q-7 0 -7 6q0 8 9 17q9 8 18 18t18 21q12 14 24 27
t22 22q6 5 14 5q4 0 16.5 -7.5t12.5 -17.5q0 -4 -11 -14.5t-27 -22.5t-31 -22t-22 -14l-18 -10l-11 -6q-5 -2 -7 -2z" />
    <glyph glyph-name="acircumflex" unicode="&#xe2;" horiz-adv-x="366" 
d="M244 -9q-20 0 -32.5 15t-12.5 42q0 19 6 41q2 8 10.5 27.5t17.5 39.5q3 5 5 10q-29 -38 -64 -67.5t-74 -29.5q-34 1 -48 18.5t-14 42.5q0 28 12.5 61t27.5 58q26 41 63.5 80.5t80.5 65.5t82 26q44 0 80 -29q9 -7 12.5 -15t3.5 -14q0 -9 -5 -15t-12 -6q-11 0 -17 16
q-6 17 -16 24t-22 7q-24 0 -55 -22t-61 -54q-35 -35 -61.5 -76.5t-40.5 -75.5q-13 -29 -13 -44q0 -14 11 -14q15 0 46 25q22 17 47.5 44t48.5 54t36 42q5 8 9.5 15t8.5 12q11 15 34 15q15 0 25.5 -7t5.5 -19q-3 -5 -8 -14.5t-12 -23.5q-13 -24 -29 -56l-30 -60t-21 -44
q-15 -30 -15 -43q0 -9 7 -9q3 0 7.5 2t10.5 5q18 10 39 28t45 46q11 11 20 21.5t17 20.5q3 5 8 5q12 0 12 -14q0 -7 -5 -12q-11 -14 -22 -27t-23 -26q-11 -13 -22.5 -26t-24.5 -24q-22 -22 -42.5 -32t-36.5 -10zM234 466q-8 0 -8 10q0 5 8 12q14 9 31 24.5t32.5 30
t23.5 21.5q15 13 30 13q6 0 13 -4t11 -9q5 -7 16.5 -21.5t25 -30.5t25.5 -25q4 -3 4 -8q0 -4 -3.5 -7.5t-7.5 -3.5q-2 0 -12.5 6.5t-22 14.5t-17.5 13t-17.5 13.5t-21.5 17.5q-13 -9 -27.5 -17.5t-22.5 -13.5q-18 -12 -25.5 -16t-10.5 -6t-7.5 -4.5t-16.5 -9.5z" />
    <glyph glyph-name="atilde" unicode="&#xe3;" horiz-adv-x="366" 
d="M244 -9q-20 0 -32.5 15t-12.5 42q0 19 6 41q2 8 10.5 27.5t17.5 39.5q3 5 5 10q-29 -38 -64 -67.5t-74 -29.5q-34 1 -48 18.5t-14 42.5q0 28 12.5 61t27.5 58q26 41 63.5 80.5t80.5 65.5t82 26q44 0 80 -29q9 -7 12.5 -15t3.5 -14q0 -9 -5 -15t-12 -6q-11 0 -17 16
q-6 17 -16 24t-22 7q-24 0 -55 -22t-61 -54q-35 -35 -61.5 -76.5t-40.5 -75.5q-13 -29 -13 -44q0 -14 11 -14q15 0 46 25q22 17 47.5 44t48.5 54t36 42q5 8 9.5 15t8.5 12q11 15 34 15q15 0 25.5 -7t5.5 -19q-3 -5 -8 -14.5t-12 -23.5q-13 -24 -29 -56l-30 -60t-21 -44
q-15 -30 -15 -43q0 -9 7 -9q3 0 7.5 2t10.5 5q18 10 39 28t45 46q11 11 20 21.5t17 20.5q3 5 8 5q12 0 12 -14q0 -7 -5 -12q-11 -14 -22 -27t-23 -26q-11 -13 -22.5 -26t-24.5 -24q-22 -22 -42.5 -32t-36.5 -10zM382 472q-20 0 -32.5 7.5t-23.5 15t-27 7.5t-24.5 -11.5
t-14.5 -17.5q-4 -1 -7 0t-3 2q0 12 9 27t23.5 26.5t29.5 11.5q18 0 33.5 -7.5t30.5 -15t30 -7.5q11 0 17 6.5t14 22.5q3 0 5.5 -1.5t2.5 -11.5q-5 -24 -26.5 -39t-36.5 -15z" />
    <glyph glyph-name="adieresis" unicode="&#xe4;" horiz-adv-x="366" 
d="M244 -9q-20 0 -32.5 15t-12.5 42q0 19 6 41q2 8 10.5 27.5t17.5 39.5q3 5 5 10q-29 -38 -64 -67.5t-74 -29.5q-34 1 -48 18.5t-14 42.5q0 28 12.5 61t27.5 58q26 41 63.5 80.5t80.5 65.5t82 26q44 0 80 -29q9 -7 12.5 -15t3.5 -14q0 -9 -5 -15t-12 -6q-11 0 -17 16
q-6 17 -16 24t-22 7q-24 0 -55 -22t-61 -54q-35 -35 -61.5 -76.5t-40.5 -75.5q-13 -29 -13 -44q0 -14 11 -14q15 0 46 25q22 17 47.5 44t48.5 54t36 42q5 8 9.5 15t8.5 12q11 15 34 15q15 0 25.5 -7t5.5 -19q-3 -5 -8 -14.5t-12 -23.5q-13 -24 -29 -56l-30 -60t-21 -44
q-15 -30 -15 -43q0 -9 7 -9q3 0 7.5 2t10.5 5q18 10 39 28t45 46q11 11 20 21.5t17 20.5q3 5 8 5q12 0 12 -14q0 -7 -5 -12q-11 -14 -22 -27t-23 -26q-11 -13 -22.5 -26t-24.5 -24q-22 -22 -42.5 -32t-36.5 -10zM285 471q-10 0 -18 4.5t-13 16.5q-3 5 -3 11q0 14 11 22
q15 13 30 20q3 3 8 4t9 1q9 0 15.5 -4.5t2.5 -12.5q-3 -4 -4.5 -9.5t-3.5 -12.5q-4 -13 -10.5 -26.5t-23.5 -13.5zM410 471q-10 0 -18 4.5t-13 16.5q-3 5 -3 11q0 14 11 22q15 13 30 20q3 3 8 4t9 1q9 0 15.5 -4.5t2.5 -12.5q-3 -4 -4.5 -9.5t-3.5 -12.5q-4 -13 -10.5 -26.5
t-23.5 -13.5z" />
    <glyph glyph-name="aring" unicode="&#xe5;" horiz-adv-x="366" 
d="M244 -9q-20 0 -32.5 15t-12.5 42q0 19 6 41q2 8 10.5 27.5t17.5 39.5q3 5 5 10q-29 -38 -64 -67.5t-74 -29.5q-34 1 -48 18.5t-14 42.5q0 28 12.5 61t27.5 58q26 41 63.5 80.5t80.5 65.5t82 26q44 0 80 -29q9 -7 12.5 -15t3.5 -14q0 -9 -5 -15t-12 -6q-11 0 -17 16
q-6 17 -16 24t-22 7q-24 0 -55 -22t-61 -54q-35 -35 -61.5 -76.5t-40.5 -75.5q-13 -29 -13 -44q0 -14 11 -14q15 0 46 25q22 17 47.5 44t48.5 54t36 42q5 8 9.5 15t8.5 12q11 15 34 15q15 0 25.5 -7t5.5 -19q-3 -5 -8 -14.5t-12 -23.5q-13 -24 -29 -56l-30 -60t-21 -44
q-15 -30 -15 -43q0 -9 7 -9q3 0 7.5 2t10.5 5q18 10 39 28t45 46q11 11 20 21.5t17 20.5q3 5 8 5q12 0 12 -14q0 -7 -5 -12q-11 -14 -22 -27t-23 -26q-11 -13 -22.5 -26t-24.5 -24q-22 -22 -42.5 -32t-36.5 -10zM345 469q-23 0 -42 14.5t-19 36.5q0 35 28.5 53.5t59.5 18.5
q24 0 43.5 -13.5t19.5 -34.5q0 -25 -14 -42t-35 -25t-41 -8zM349 493q17 0 30 16t13 35q0 23 -21 23q-18 0 -30.5 -15.5t-12.5 -31.5q0 -12 6 -19.5t15 -7.5z" />
    <glyph glyph-name="ae" unicode="&#xe6;" horiz-adv-x="580" 
d="M405 -20q-65 0 -82 53q-50 -41 -79 -41q-45 0 -45 53q0 20 6 44l2 8q-76 -106 -142 -106q-37 0 -51 17t-14 42q0 32 15 67t26 54q27 43 65 82.5t80 64.5t81 25q44 0 79 -29q10 -7 14 -15t4 -14q0 -9 -5.5 -15t-12.5 -6q-12 0 -18 16q-11 31 -38 31q-23 0 -54 -22t-61 -54
q-32 -34 -60 -75.5t-43 -76.5q-12 -30 -12 -44t11 -14q15 0 46 25q24 19 49 46t47 53t35 41q5 8 9.5 15t8.5 12q5 7 14.5 10.5t19.5 3.5q15 0 26 -7t5 -19q-1 -1 -2.5 -4t-5.5 -9q-9 -17 -25.5 -47.5t-28.5 -58.5q-7 -16 -10.5 -27t-3.5 -17q0 -8 6 -8q3 0 7.5 2t10.5 5
q5 2 8.5 4.5t7.5 4.5q8 3 13.5 6t9.5 4v4q0 32 11.5 66t23.5 54q25 45 58 80.5t68 56.5t64 21t49.5 -17t20.5 -43q0 -12 -5 -25.5t-16 -27.5q-40 -50 -87.5 -80t-109.5 -45q-4 -11 -7.5 -22t-5.5 -22q-1 -4 -1 -8.5v-8.5q0 -33 27 -33q21 0 45.5 11.5t46 26t32.5 23.5
q11 10 21.5 20t22.5 23q2 3 4.5 5.5t3.5 4.5q8 8 14.5 16t13.5 17q4 5 9 5q11 0 11 -13q0 -5 -5 -13q-3 -4 -6 -7.5t-6 -6.5q-15 -19 -30 -37t-31 -34q-23 -24 -62 -47.5t-87 -23.5zM407 132q26 12 57 32.5t60 48.5t48 59q6 11 6 18q0 8 -9 8q-7 0 -23 -8q-28 -15 -63 -50
t-58 -74q-4 -7 -8.5 -16t-9.5 -18z" />
    <glyph glyph-name="ccedilla" unicode="&#xe7;" horiz-adv-x="299" 
d="M100 -35q-40 0 -62 24.5t-22 70.5q0 29 7.5 64t19 68.5t23.5 55.5q20 42 48 84.5t61 78t68 57.5t69 22q29 0 46.5 -22t17.5 -51t-18 -55q-16 -25 -31 -37.5t-23 -12.5t-8 11q0 5 2 13t6 18q4 9 9.5 24.5t10.5 33.5t4 31q-19 3 -43.5 -13.5t-49.5 -43t-47 -56.5t-36 -56
q-11 -19 -24 -48t-24 -60t-18 -57q-4 -16 -6 -29.5t-2 -24.5q0 -47 34 -47q83 0 183 106q22 22 37 43q3 5 8 5q12 0 12 -14q0 -7 -5 -12l-44 -52q-22 -26 -55.5 -53.5t-72 -46.5t-75.5 -19zM3 -223q-22 0 -31.5 6.5t-11.5 17.5q5 -1 15 -1h20q14 0 32.5 11t18.5 31
q0 16 -4.5 25t-9.5 19.5t-5 30.5q0 27 25.5 48t55.5 21q4 0 9.5 -3t5.5 -9q-20 -3 -34.5 -18.5t-14.5 -27.5q0 -16 6 -26t12 -21t6 -31q0 -22 -16 -38.5t-38 -25.5t-41 -9z" />
    <glyph glyph-name="egrave" unicode="&#xe8;" horiz-adv-x="365" 
d="M71 -149q-42 0 -64.5 33.5t-22.5 92.5q0 20 3 42q7 56 34 115t73 118q33 43 74 66.5t80 23.5q28 0 49 -11q26 -15 26 -51q0 -26 -18 -57.5t-62 -60.5q-56 -35 -94.5 -47.5t-61.5 -14.5q-7 -11 -14.5 -33.5t-13 -47t-7.5 -43.5q0 -4 -0.5 -8.5t-0.5 -9.5q0 -68 43 -68
q23 0 52.5 17t58 41t51 46.5t31.5 33.5l74 86l20 23l10 12t10 11q4 5 9 5q11 0 11 -12q0 -6 -6 -14q-10 -14 -22.5 -29t-23.5 -28l-34 -41q-20 -24 -43 -51.5t-45 -48.5q-93 -90 -176 -90zM103 128q20 5 47.5 21t53 34t39.5 30q21 17 32 38t11 36q0 21 -17 21q-8 0 -17 -4
q-24 -11 -52 -42t-53.5 -68t-43.5 -66zM271 392q-3 0 -7 2l-11 5q-4 2 -8 4.5t-10 6.5q-7 4 -22 14t-31.5 22t-27.5 22.5t-11 14.5q0 10 12.5 17t16.5 7q9 0 14 -5q11 -8 22.5 -21t23.5 -27q18 -23 36 -39q9 -9 9 -17q0 -6 -6 -6z" />
    <glyph glyph-name="eacute" unicode="&#xe9;" horiz-adv-x="365" 
d="M71 -149q-42 0 -64.5 33.5t-22.5 92.5q0 20 3 42q7 56 34 115t73 118q33 43 74 66.5t80 23.5q28 0 49 -11q26 -15 26 -51q0 -26 -18 -57.5t-62 -60.5q-56 -35 -94.5 -47.5t-61.5 -14.5q-7 -11 -14.5 -33.5t-13 -47t-7.5 -43.5q0 -4 -0.5 -8.5t-0.5 -9.5q0 -68 43 -68
q23 0 52.5 17t58 41t51 46.5t31.5 33.5l74 86l20 23l10 12t10 11q4 5 9 5q11 0 11 -12q0 -6 -6 -14q-10 -14 -22.5 -29t-23.5 -28l-34 -41q-20 -24 -43 -51.5t-45 -48.5q-93 -90 -176 -90zM103 128q20 5 47.5 21t53 34t39.5 30q21 17 32 38t11 36q0 21 -17 21q-8 0 -17 -4
q-24 -11 -52 -42t-53.5 -68t-43.5 -66zM221 392q-7 0 -7 6q0 8 9 17q9 8 18 18t18 21q12 14 24 27t22 22q6 5 14 5q4 0 16.5 -7.5t12.5 -17.5q0 -4 -11 -14.5t-27 -22.5t-31 -22t-22 -14l-18 -10l-11 -6q-5 -2 -7 -2z" />
    <glyph glyph-name="ecircumflex" unicode="&#xea;" horiz-adv-x="365" 
d="M71 -149q-42 0 -64.5 33.5t-22.5 92.5q0 20 3 42q7 56 34 115t73 118q33 43 74 66.5t80 23.5q28 0 49 -11q26 -15 26 -51q0 -26 -18 -57.5t-62 -60.5q-56 -35 -94.5 -47.5t-61.5 -14.5q-7 -11 -14.5 -33.5t-13 -47t-7.5 -43.5q0 -4 -0.5 -8.5t-0.5 -9.5q0 -68 43 -68
q23 0 52.5 17t58 41t51 46.5t31.5 33.5l74 86l20 23l10 12t10 11q4 5 9 5q11 0 11 -12q0 -6 -6 -14q-10 -14 -22.5 -29t-23.5 -28l-34 -41q-20 -24 -43 -51.5t-45 -48.5q-93 -90 -176 -90zM103 128q20 5 47.5 21t53 34t39.5 30q21 17 32 38t11 36q0 21 -17 21q-8 0 -17 -4
q-24 -11 -52 -42t-53.5 -68t-43.5 -66zM149 387q-8 0 -8 10q0 5 8 12q14 9 31 24.5t32.5 30t23.5 21.5q15 13 30 13q6 0 13 -4t11 -9q5 -7 16.5 -21.5t25 -30.5t25.5 -25q4 -3 4 -8q0 -4 -3.5 -7.5t-7.5 -3.5q-2 0 -12.5 6.5t-22 14.5t-17.5 13t-17.5 13.5t-21.5 17.5
q-13 -9 -27.5 -17.5t-22.5 -13.5q-18 -12 -25.5 -16t-10.5 -6t-7.5 -4.5t-16.5 -9.5z" />
    <glyph glyph-name="edieresis" unicode="&#xeb;" horiz-adv-x="365" 
d="M71 -149q-42 0 -64.5 33.5t-22.5 92.5q0 20 3 42q7 56 34 115t73 118q33 43 74 66.5t80 23.5q28 0 49 -11q26 -15 26 -51q0 -26 -18 -57.5t-62 -60.5q-56 -35 -94.5 -47.5t-61.5 -14.5q-7 -11 -14.5 -33.5t-13 -47t-7.5 -43.5q0 -4 -0.5 -8.5t-0.5 -9.5q0 -68 43 -68
q23 0 52.5 17t58 41t51 46.5t31.5 33.5l74 86l20 23l10 12t10 11q4 5 9 5q11 0 11 -12q0 -6 -6 -14q-10 -14 -22.5 -29t-23.5 -28l-34 -41q-20 -24 -43 -51.5t-45 -48.5q-93 -90 -176 -90zM103 128q20 5 47.5 21t53 34t39.5 30q21 17 32 38t11 36q0 21 -17 21q-8 0 -17 -4
q-24 -11 -52 -42t-53.5 -68t-43.5 -66zM200 392q-10 0 -18 4.5t-13 16.5q-3 5 -3 11q0 14 11 22q15 13 30 20q3 3 8 4t9 1q9 0 15.5 -4.5t2.5 -12.5q-3 -4 -4.5 -9.5t-3.5 -12.5q-4 -13 -10.5 -26.5t-23.5 -13.5zM325 392q-10 0 -18 4.5t-13 16.5q-3 5 -3 11q0 14 11 22
q15 13 30 20q3 3 8 4t9 1q9 0 15.5 -4.5t2.5 -12.5q-3 -4 -4.5 -9.5t-3.5 -12.5q-4 -13 -10.5 -26.5t-23.5 -13.5z" />
    <glyph glyph-name="igrave" unicode="&#xec;" horiz-adv-x="207" 
d="M76 -5q-28 0 -42.5 18.5t-14.5 51.5q0 15 3 33q4 22 15.5 51.5t26.5 59t27 50.5q8 14 19 32.5t21 34.5l23 37q7 14 26.5 22.5t35.5 8.5q20 0 20 -12q0 -7 -6 -16q-19 -31 -44.5 -71.5t-49.5 -83.5t-39.5 -81.5t-15.5 -65.5q0 -28 21 -28q15 0 34.5 15t38.5 34t29 30
l20 21q5 5 9 10.5t8 10.5t9 5q11 0 11 -13q0 -5 -5 -13q-11 -14 -22 -27t-23 -26q-17 -20 -38 -40.5t-45 -34t-52 -13.5zM231 440q-3 0 -7 2l-11 5q-4 2 -8 4.5t-10 6.5q-7 4 -22 14t-31.5 22t-27.5 22.5t-11 14.5q0 10 12.5 17t16.5 7q9 0 14 -5q11 -8 22.5 -21t23.5 -27
q18 -23 36 -39q9 -9 9 -17q0 -6 -6 -6z" />
    <glyph glyph-name="iacute" unicode="&#xed;" horiz-adv-x="207" 
d="M76 -5q-28 0 -42.5 18.5t-14.5 51.5q0 15 3 33q4 22 15.5 51.5t26.5 59t27 50.5q8 14 19 32.5t21 34.5l23 37q7 14 26.5 22.5t35.5 8.5q20 0 20 -12q0 -7 -6 -16q-19 -31 -44.5 -71.5t-49.5 -83.5t-39.5 -81.5t-15.5 -65.5q0 -28 21 -28q15 0 34.5 15t38.5 34t29 30
l20 21q5 5 9 10.5t8 10.5t9 5q11 0 11 -13q0 -5 -5 -13q-11 -14 -22 -27t-23 -26q-17 -20 -38 -40.5t-45 -34t-52 -13.5zM181 440q-7 0 -7 6q0 8 9 17q9 8 18 18t18 21q12 14 24 27t22 22q6 5 14 5q4 0 16.5 -7.5t12.5 -17.5q0 -4 -11 -14.5t-27 -22.5t-31 -22t-22 -14
l-18 -10l-11 -6q-5 -2 -7 -2z" />
    <glyph glyph-name="icircumflex" unicode="&#xee;" horiz-adv-x="207" 
d="M76 -5q-28 0 -42.5 18.5t-14.5 51.5q0 15 3 33q4 22 15.5 51.5t26.5 59t27 50.5q8 14 19 32.5t21 34.5l23 37q7 14 26.5 22.5t35.5 8.5q20 0 20 -12q0 -7 -6 -16q-19 -31 -44.5 -71.5t-49.5 -83.5t-39.5 -81.5t-15.5 -65.5q0 -28 21 -28q15 0 34.5 15t38.5 34t29 30
l20 21q5 5 9 10.5t8 10.5t9 5q11 0 11 -13q0 -5 -5 -13q-11 -14 -22 -27t-23 -26q-17 -20 -38 -40.5t-45 -34t-52 -13.5zM109 435q-8 0 -8 10q0 5 8 12q14 9 31 24.5t32.5 30t23.5 21.5q15 13 30 13q6 0 13 -4t11 -9q5 -7 16.5 -21.5t25 -30.5t25.5 -25q4 -3 4 -8
q0 -4 -3.5 -7.5t-7.5 -3.5q-2 0 -12.5 6.5t-22 14.5t-17.5 13t-17.5 13.5t-21.5 17.5q-13 -9 -27.5 -17.5t-22.5 -13.5q-18 -12 -25.5 -16t-10.5 -6t-7.5 -4.5t-16.5 -9.5z" />
    <glyph glyph-name="idieresis" unicode="&#xef;" horiz-adv-x="207" 
d="M76 -5q-28 0 -42.5 18.5t-14.5 51.5q0 15 3 33q4 22 15.5 51.5t26.5 59t27 50.5q8 14 19 32.5t21 34.5l23 37q7 14 26.5 22.5t35.5 8.5q20 0 20 -12q0 -7 -6 -16q-19 -31 -44.5 -71.5t-49.5 -83.5t-39.5 -81.5t-15.5 -65.5q0 -28 21 -28q15 0 34.5 15t38.5 34t29 30
l20 21q5 5 9 10.5t8 10.5t9 5q11 0 11 -13q0 -5 -5 -13q-11 -14 -22 -27t-23 -26q-17 -20 -38 -40.5t-45 -34t-52 -13.5zM160 440q-10 0 -18 4.5t-13 16.5q-3 5 -3 11q0 14 11 22q15 13 30 20q3 3 8 4t9 1q9 0 15.5 -4.5t2.5 -12.5q-3 -4 -4.5 -9.5t-3.5 -12.5
q-4 -13 -10.5 -26.5t-23.5 -13.5zM285 440q-10 0 -18 4.5t-13 16.5q-3 5 -3 11q0 14 11 22q15 13 30 20q3 3 8 4t9 1q9 0 15.5 -4.5t2.5 -12.5q-3 -4 -4.5 -9.5t-3.5 -12.5q-4 -13 -10.5 -26.5t-23.5 -13.5z" />
    <glyph glyph-name="eth" unicode="&#xf0;" horiz-adv-x="303" 
d="M97 -13q-44 0 -62.5 31t-18.5 71q0 35 11 70q26 81 78.5 129t116.5 48q26 0 42 -16q-2 65 -25 112q-13 -10 -26.5 -18.5t-24.5 -13.5q-6 -4 -10.5 -5t-8.5 -1q-14 0 -20.5 12t-11.5 22q-8 0 -5 8q2 -2 5 -8v0q9 0 31.5 13t47.5 29q-30 33 -72 33q-4 0 -7.5 -0.5
t-8.5 -1.5q-4 0 -7.5 -0.5t-7.5 -0.5q-14 0 -14 11q0 23 54 23q58 0 101 -38q12 8 23 14.5t18 9.5q9 5 19 5q14 0 22.5 -11t12.5 -22l-8 -6q-5 4 -22 -2t-38 -20q18 -28 27.5 -65.5t9.5 -78.5q0 -52 -14 -109.5t-41.5 -108.5t-69 -83t-96.5 -32zM99 19q20 0 41.5 18.5
t40.5 48t34 63.5t24 66.5t9 55.5q0 37 -22 37q-23 0 -45 -18t-40 -47.5t-32 -63.5t-21.5 -66.5t-7.5 -55.5q0 -17 4.5 -27.5t14.5 -10.5z" />
    <glyph glyph-name="ntilde" unicode="&#xf1;" horiz-adv-x="368" 
d="M233 -6q-36 0 -36 49q0 34 20 78.5t43 88.5q20 41 36.5 77t16.5 60t-13 24q-10 0 -27 -12q-18 -13 -41 -42l-19 -23q-4 -6 -8.5 -12t-9.5 -11q-28 -37 -57.5 -77.5t-53 -74.5t-35.5 -55q-10 -19 -25 -19q-10 0 -17 8.5t-7 22.5q0 8 3 17q20 37 38 77t35 80
q14 33 28.5 64.5t28.5 59.5q9 17 31 31t40 14q20 0 20 -15q0 -11 -10 -27q-14 -22 -37.5 -61.5t-43.5 -76.5q9 12 20 26.5t24 30.5l32 38q29 35 57 51.5t56 16.5q49 0 49 -45q0 -27 -11 -53t-18 -41q-45 -96 -65.5 -155t-10.5 -59t31.5 14.5t52.5 40.5q16 15 32 32t33 37
q7 8 13 8q7 0 7 -11t-7 -22q-6 -10 -19.5 -26.5t-27.5 -31.5q-49 -53 -105 -83q-9 -5 -15.5 -7.5t-11.5 -3.5q-4 -1 -7.5 -1.5t-8.5 -0.5zM371 441q-20 0 -32.5 7.5t-23.5 15t-27 7.5t-24.5 -11.5t-14.5 -17.5q-4 -1 -7 0t-3 2q0 12 9 27t23.5 26.5t29.5 11.5
q18 0 33.5 -7.5t30.5 -15t30 -7.5q11 0 17 6.5t14 22.5q3 0 5.5 -1.5t2.5 -11.5q-5 -24 -26.5 -39t-36.5 -15z" />
    <glyph glyph-name="ograve" unicode="&#xf2;" horiz-adv-x="333" 
d="M107 -9q-37 0 -60.5 31t-23.5 77q0 38 12 72q24 66 80 125q40 40 83.5 64.5t77.5 24.5q29 0 46.5 -15t17.5 -36q0 -9 -5 -22q11 -1 21 -1.5t20 -0.5q20 0 39.5 2t37.5 6h5q13 0 13 -9q0 -7 -12 -12q-10 -4 -32.5 -8t-48 -6.5t-45.5 -2.5h-12.5t-9.5 1l-4 -2
q10 -16 10 -45q0 -40 -19.5 -82.5t-51 -79t-68.5 -59t-71 -22.5zM116 25q26 0 51 19t46 50t35.5 67t18.5 69q1 6 1 11.5v9.5q0 15 -3 24h-2q-13 3 -19 6.5t-12 9.5l-1 1q-4 4 -4.5 7.5t-0.5 7.5q0 9 7 14.5t17 3.5l50 -9q8 16 8 25q0 20 -31 20q-27 0 -58.5 -27.5t-60 -68
t-49.5 -80.5q-10 -20 -17 -48.5t-7 -54.5q0 -24 7.5 -40.5t23.5 -16.5zM320 440q-3 0 -7 2l-11 5q-4 2 -8 4.5t-10 6.5q-7 4 -22 14t-31.5 22t-27.5 22.5t-11 14.5q0 10 12.5 17t16.5 7q9 0 14 -5q11 -8 22.5 -21t23.5 -27q18 -23 36 -39q9 -9 9 -17q0 -6 -6 -6z" />
    <glyph glyph-name="oacute" unicode="&#xf3;" horiz-adv-x="333" 
d="M107 -9q-37 0 -60.5 31t-23.5 77q0 38 12 72q24 66 80 125q40 40 83.5 64.5t77.5 24.5q29 0 46.5 -15t17.5 -36q0 -9 -5 -22q11 -1 21 -1.5t20 -0.5q20 0 39.5 2t37.5 6h5q13 0 13 -9q0 -7 -12 -12q-10 -4 -32.5 -8t-48 -6.5t-45.5 -2.5h-12.5t-9.5 1l-4 -2
q10 -16 10 -45q0 -40 -19.5 -82.5t-51 -79t-68.5 -59t-71 -22.5zM116 25q26 0 51 19t46 50t35.5 67t18.5 69q1 6 1 11.5v9.5q0 15 -3 24h-2q-13 3 -19 6.5t-12 9.5l-1 1q-4 4 -4.5 7.5t-0.5 7.5q0 9 7 14.5t17 3.5l50 -9q8 16 8 25q0 20 -31 20q-27 0 -58.5 -27.5t-60 -68
t-49.5 -80.5q-10 -20 -17 -48.5t-7 -54.5q0 -24 7.5 -40.5t23.5 -16.5zM270 440q-7 0 -7 6q0 8 9 17q9 8 18 18t18 21q12 14 24 27t22 22q6 5 14 5q4 0 16.5 -7.5t12.5 -17.5q0 -4 -11 -14.5t-27 -22.5t-31 -22t-22 -14l-18 -10l-11 -6q-5 -2 -7 -2z" />
    <glyph glyph-name="ocircumflex" unicode="&#xf4;" horiz-adv-x="333" 
d="M107 -9q-37 0 -60.5 31t-23.5 77q0 38 12 72q24 66 80 125q40 40 83.5 64.5t77.5 24.5q29 0 46.5 -15t17.5 -36q0 -9 -5 -22q11 -1 21 -1.5t20 -0.5q20 0 39.5 2t37.5 6h5q13 0 13 -9q0 -7 -12 -12q-10 -4 -32.5 -8t-48 -6.5t-45.5 -2.5h-12.5t-9.5 1l-4 -2
q10 -16 10 -45q0 -40 -19.5 -82.5t-51 -79t-68.5 -59t-71 -22.5zM116 25q26 0 51 19t46 50t35.5 67t18.5 69q1 6 1 11.5v9.5q0 15 -3 24h-2q-13 3 -19 6.5t-12 9.5l-1 1q-4 4 -4.5 7.5t-0.5 7.5q0 9 7 14.5t17 3.5l50 -9q8 16 8 25q0 20 -31 20q-27 0 -58.5 -27.5t-60 -68
t-49.5 -80.5q-10 -20 -17 -48.5t-7 -54.5q0 -24 7.5 -40.5t23.5 -16.5zM198 435q-8 0 -8 10q0 5 8 12q14 9 31 24.5t32.5 30t23.5 21.5q15 13 30 13q6 0 13 -4t11 -9q5 -7 16.5 -21.5t25 -30.5t25.5 -25q4 -3 4 -8q0 -4 -3.5 -7.5t-7.5 -3.5q-2 0 -12.5 6.5t-22 14.5
t-17.5 13t-17.5 13.5t-21.5 17.5q-13 -9 -27.5 -17.5t-22.5 -13.5q-18 -12 -25.5 -16t-10.5 -6t-7.5 -4.5t-16.5 -9.5z" />
    <glyph glyph-name="otilde" unicode="&#xf5;" horiz-adv-x="333" 
d="M107 -9q-37 0 -60.5 31t-23.5 77q0 38 12 72q24 66 80 125q40 40 83.5 64.5t77.5 24.5q29 0 46.5 -15t17.5 -36q0 -9 -5 -22q11 -1 21 -1.5t20 -0.5q20 0 39.5 2t37.5 6h5q13 0 13 -9q0 -7 -12 -12q-10 -4 -32.5 -8t-48 -6.5t-45.5 -2.5h-12.5t-9.5 1l-4 -2
q10 -16 10 -45q0 -40 -19.5 -82.5t-51 -79t-68.5 -59t-71 -22.5zM116 25q26 0 51 19t46 50t35.5 67t18.5 69q1 6 1 11.5v9.5q0 15 -3 24h-2q-13 3 -19 6.5t-12 9.5l-1 1q-4 4 -4.5 7.5t-0.5 7.5q0 9 7 14.5t17 3.5l50 -9q8 16 8 25q0 20 -31 20q-27 0 -58.5 -27.5t-60 -68
t-49.5 -80.5q-10 -20 -17 -48.5t-7 -54.5q0 -24 7.5 -40.5t23.5 -16.5zM346 441q-20 0 -32.5 7.5t-23.5 15t-27 7.5t-24.5 -11.5t-14.5 -17.5q-4 -1 -7 0t-3 2q0 12 9 27t23.5 26.5t29.5 11.5q18 0 33.5 -7.5t30.5 -15t30 -7.5q11 0 17 6.5t14 22.5q3 0 5.5 -1.5t2.5 -11.5
q-5 -24 -26.5 -39t-36.5 -15z" />
    <glyph glyph-name="odieresis" unicode="&#xf6;" horiz-adv-x="333" 
d="M107 -9q-37 0 -60.5 31t-23.5 77q0 38 12 72q24 66 80 125q40 40 83.5 64.5t77.5 24.5q29 0 46.5 -15t17.5 -36q0 -9 -5 -22q11 -1 21 -1.5t20 -0.5q20 0 39.5 2t37.5 6h5q13 0 13 -9q0 -7 -12 -12q-10 -4 -32.5 -8t-48 -6.5t-45.5 -2.5h-12.5t-9.5 1l-4 -2
q10 -16 10 -45q0 -40 -19.5 -82.5t-51 -79t-68.5 -59t-71 -22.5zM116 25q26 0 51 19t46 50t35.5 67t18.5 69q1 6 1 11.5v9.5q0 15 -3 24h-2q-13 3 -19 6.5t-12 9.5l-1 1q-4 4 -4.5 7.5t-0.5 7.5q0 9 7 14.5t17 3.5l50 -9q8 16 8 25q0 20 -31 20q-27 0 -58.5 -27.5t-60 -68
t-49.5 -80.5q-10 -20 -17 -48.5t-7 -54.5q0 -24 7.5 -40.5t23.5 -16.5zM249 440q-10 0 -18 4.5t-13 16.5q-3 5 -3 11q0 14 11 22q15 13 30 20q3 3 8 4t9 1q9 0 15.5 -4.5t2.5 -12.5q-3 -4 -4.5 -9.5t-3.5 -12.5q-4 -13 -10.5 -26.5t-23.5 -13.5zM374 440q-10 0 -18 4.5
t-13 16.5q-3 5 -3 11q0 14 11 22q15 13 30 20q3 3 8 4t9 1q9 0 15.5 -4.5t2.5 -12.5q-3 -4 -4.5 -9.5t-3.5 -12.5q-4 -13 -10.5 -26.5t-23.5 -13.5z" />
    <glyph glyph-name="divide" unicode="&#xf7;" horiz-adv-x="363" 
d="M246 230q-19 4 -25 22q-3 5 -3 10q0 13 12 25q7 5 14.5 10.5t17.5 9.5q7 5 14 8q7 2 13 6q4 2 5 2q5 0 8 -4.5t-1 -9.5q-4 -7 -7 -16.5t-5 -18.5q-4 -17 -12 -32t-31 -12zM88 130q-44 0 -44 48l6 5q18 -3 42 -3q17 0 37 1l40 2q27 2 53.5 3.5t47.5 -0.5q32 -2 38.5 -19.5
t6.5 -33.5l-9 -3q-1 3 -25 9q-5 2 -12.5 2h-17.5h-19.5t-23.5 -2q-7 0 -22 -1t-33 -3q-43 -5 -65 -5zM101 -12q-23 0 -31 22q-3 5 -3 12q0 14 12 23l15 11q4 3 8.5 5.5t8.5 4.5l13 6l13 7q4 2 5 2q5 0 8.5 -4.5t-0.5 -9.5q-4 -7 -7 -16t-6 -19q-4 -16 -10.5 -30t-25.5 -14z
" />
    <glyph glyph-name="oslash" unicode="&#xf8;" horiz-adv-x="333" 
d="M50 -122q-4 1 -5 12t1 22q7 32 30.5 91t59.5 134q34 72 76 152t86 152q1 4 4 3q2 0 3.5 -9.5t1.5 -21t-1 -19.5q-1 -3 -3 -8q-5 -7 -12 -20t-17 -31q-20 -35 -45.5 -82t-53.5 -100q-14 -27 -27 -53t-24 -50q-55 -114 -63 -149l-1 -6v-5q-3 -14 -10 -12zM107 -9
q-37 0 -60.5 31t-23.5 77q0 38 12 72q24 66 80 125q40 40 83.5 64.5t77.5 24.5q29 0 46.5 -15t17.5 -36q0 -9 -5 -22q11 -1 21 -1.5t20 -0.5q20 0 39.5 2t37.5 6h5q13 0 13 -9q0 -7 -12 -12q-10 -4 -32.5 -8t-48 -6.5t-45.5 -2.5h-12.5t-9.5 1l-4 -2q10 -16 10 -45
q0 -40 -19.5 -82.5t-51 -79t-68.5 -59t-71 -22.5zM116 25q26 0 51 19t46 50t35.5 67t18.5 69q1 6 1 11.5v9.5q0 15 -3 24h-2q-13 3 -19 6.5t-12 9.5l-1 1q-4 4 -4.5 7.5t-0.5 7.5q0 9 7 14.5t17 3.5l50 -9q8 16 8 25q0 20 -31 20q-27 0 -58.5 -27.5t-60 -68t-49.5 -80.5
q-10 -20 -17 -48.5t-7 -54.5q0 -24 7.5 -40.5t23.5 -16.5z" />
    <glyph glyph-name="ugrave" unicode="&#xf9;" horiz-adv-x="347" 
d="M219 -8q-43 0 -43 53q0 37 21 99q-19 -27 -42.5 -54t-46.5 -45t-43 -18q-31 0 -42.5 21t-11.5 47q0 17 2.5 33t6.5 28q19 52 48 108t64 108.5t70 90.5q26 26 41 26q10 0 10 -11q0 -8 -7 -22.5t-21 -31.5q-11 -13 -30 -47.5t-40.5 -77.5t-41 -86t-32.5 -75
q-16 -36 -16 -58q0 -19 12 -19q18 0 50 38q8 10 23.5 30t33 44t33.5 47.5t25 39.5l23 41q5 11 20.5 18.5t31.5 7.5q14 0 14 -14q0 -12 -4.5 -24t-12.5 -26q-14 -24 -28.5 -56.5t-24.5 -62.5t-13 -49q-2 -10 -3 -18.5t-1 -16.5q0 -9 1 -13q2 -9 6 -9t8 3q18 10 39 28t45 46
q11 11 19.5 21.5t16.5 20.5q3 5 9 5q12 0 12 -14q0 -6 -6 -12q-10 -13 -21.5 -26t-22.5 -27q-22 -25 -47 -50q-19 -19 -42 -30t-42 -11zM347 519q-3 0 -7 2l-11 5q-4 2 -8 4.5t-10 6.5q-7 4 -22 14t-31.5 22t-27.5 22.5t-11 14.5q0 10 12.5 17t16.5 7q9 0 14 -5
q11 -8 22.5 -21t23.5 -27q18 -23 36 -39q9 -9 9 -17q0 -6 -6 -6z" />
    <glyph glyph-name="uacute" unicode="&#xfa;" horiz-adv-x="347" 
d="M219 -8q-43 0 -43 53q0 37 21 99q-19 -27 -42.5 -54t-46.5 -45t-43 -18q-31 0 -42.5 21t-11.5 47q0 17 2.5 33t6.5 28q19 52 48 108t64 108.5t70 90.5q26 26 41 26q10 0 10 -11q0 -8 -7 -22.5t-21 -31.5q-11 -13 -30 -47.5t-40.5 -77.5t-41 -86t-32.5 -75
q-16 -36 -16 -58q0 -19 12 -19q18 0 50 38q8 10 23.5 30t33 44t33.5 47.5t25 39.5l23 41q5 11 20.5 18.5t31.5 7.5q14 0 14 -14q0 -12 -4.5 -24t-12.5 -26q-14 -24 -28.5 -56.5t-24.5 -62.5t-13 -49q-2 -10 -3 -18.5t-1 -16.5q0 -9 1 -13q2 -9 6 -9t8 3q18 10 39 28t45 46
q11 11 19.5 21.5t16.5 20.5q3 5 9 5q12 0 12 -14q0 -6 -6 -12q-10 -13 -21.5 -26t-22.5 -27q-22 -25 -47 -50q-19 -19 -42 -30t-42 -11zM297 519q-7 0 -7 6q0 8 9 17q9 8 18 18t18 21q12 14 24 27t22 22q6 5 14 5q4 0 16.5 -7.5t12.5 -17.5q0 -4 -11 -14.5t-27 -22.5
t-31 -22t-22 -14l-18 -10l-11 -6q-5 -2 -7 -2z" />
    <glyph glyph-name="ucircumflex" unicode="&#xfb;" horiz-adv-x="347" 
d="M219 -8q-43 0 -43 53q0 37 21 99q-19 -27 -42.5 -54t-46.5 -45t-43 -18q-31 0 -42.5 21t-11.5 47q0 17 2.5 33t6.5 28q19 52 48 108t64 108.5t70 90.5q26 26 41 26q10 0 10 -11q0 -8 -7 -22.5t-21 -31.5q-11 -13 -30 -47.5t-40.5 -77.5t-41 -86t-32.5 -75
q-16 -36 -16 -58q0 -19 12 -19q18 0 50 38q8 10 23.5 30t33 44t33.5 47.5t25 39.5l23 41q5 11 20.5 18.5t31.5 7.5q14 0 14 -14q0 -12 -4.5 -24t-12.5 -26q-14 -24 -28.5 -56.5t-24.5 -62.5t-13 -49q-2 -10 -3 -18.5t-1 -16.5q0 -9 1 -13q2 -9 6 -9t8 3q18 10 39 28t45 46
q11 11 19.5 21.5t16.5 20.5q3 5 9 5q12 0 12 -14q0 -6 -6 -12q-10 -13 -21.5 -26t-22.5 -27q-22 -25 -47 -50q-19 -19 -42 -30t-42 -11zM225 514q-8 0 -8 10q0 5 8 12q14 9 31 24.5t32.5 30t23.5 21.5q15 13 30 13q6 0 13 -4t11 -9q5 -7 16.5 -21.5t25 -30.5t25.5 -25
q4 -3 4 -8q0 -4 -3.5 -7.5t-7.5 -3.5q-2 0 -12.5 6.5t-22 14.5t-17.5 13t-17.5 13.5t-21.5 17.5q-13 -9 -27.5 -17.5t-22.5 -13.5q-18 -12 -25.5 -16t-10.5 -6t-7.5 -4.5t-16.5 -9.5z" />
    <glyph glyph-name="udieresis" unicode="&#xfc;" horiz-adv-x="347" 
d="M219 -8q-43 0 -43 53q0 37 21 99q-19 -27 -42.5 -54t-46.5 -45t-43 -18q-31 0 -42.5 21t-11.5 47q0 17 2.5 33t6.5 28q19 52 48 108t64 108.5t70 90.5q26 26 41 26q10 0 10 -11q0 -8 -7 -22.5t-21 -31.5q-11 -13 -30 -47.5t-40.5 -77.5t-41 -86t-32.5 -75
q-16 -36 -16 -58q0 -19 12 -19q18 0 50 38q8 10 23.5 30t33 44t33.5 47.5t25 39.5l23 41q5 11 20.5 18.5t31.5 7.5q14 0 14 -14q0 -12 -4.5 -24t-12.5 -26q-14 -24 -28.5 -56.5t-24.5 -62.5t-13 -49q-2 -10 -3 -18.5t-1 -16.5q0 -9 1 -13q2 -9 6 -9t8 3q18 10 39 28t45 46
q11 11 19.5 21.5t16.5 20.5q3 5 9 5q12 0 12 -14q0 -6 -6 -12q-10 -13 -21.5 -26t-22.5 -27q-22 -25 -47 -50q-19 -19 -42 -30t-42 -11zM276 519q-10 0 -18 4.5t-13 16.5q-3 5 -3 11q0 14 11 22q15 13 30 20q3 3 8 4t9 1q9 0 15.5 -4.5t2.5 -12.5q-3 -4 -4.5 -9.5
t-3.5 -12.5q-4 -13 -10.5 -26.5t-23.5 -13.5zM401 519q-10 0 -18 4.5t-13 16.5q-3 5 -3 11q0 14 11 22q15 13 30 20q3 3 8 4t9 1q9 0 15.5 -4.5t2.5 -12.5q-3 -4 -4.5 -9.5t-3.5 -12.5q-4 -13 -10.5 -26.5t-23.5 -13.5z" />
    <glyph glyph-name="yacute" unicode="&#xfd;" horiz-adv-x="337" 
d="M-66 -320q-21 0 -33.5 15.5t-12.5 40.5q0 44 26.5 84t68.5 74.5t89.5 62t90.5 45.5q13 27 30 66t35.5 83t34.5 87t25 78q-16 -31 -37.5 -64.5t-45 -63t-46.5 -48t-44 -18.5q-61 0 -61 72q0 36 13.5 77t33.5 80t39 70q-6 -1 -12 -1.5t-11 -0.5q-28 0 -51.5 11t-36.5 30
q-9 17 -9 22v1q0 6 5 6q6 0 12 -6q33 -38 91 -38q16 0 32 3l19 32q11 20 32 39q13 11 20 11q8 0 12 -8t4 -20q0 -19 -10.5 -43.5t-33.5 -38.5q-71 -100 -90 -209q-3 -15 -3 -25q0 -28 17 -28q21 0 52 37q11 13 32 44.5t44.5 71t42.5 78.5t26 66q2 14 12.5 20.5t20.5 6.5
q9 0 15.5 -4.5t6.5 -15.5q0 -13 -1.5 -27.5t-5.5 -30.5q-12 -62 -42 -155q-7 -20 -14 -40.5t-15 -40.5q-13 -34 -26.5 -65t-23.5 -55q24 15 45 31.5t38 35.5q11 11 20 21.5t17 20.5q3 5 8 5q12 0 12 -14q0 -7 -5 -12q-11 -14 -22 -27t-23 -26q-19 -22 -47.5 -43t-64.5 -39
q-23 -48 -52.5 -103t-66.5 -105t-80.5 -81.5t-95.5 -31.5zM-62 -287q16 0 51 31q15 13 32.5 32t32.5 36.5t20 25.5q16 24 33.5 55.5t35.5 68.5q-38 -19 -77 -44t-71 -55t-51.5 -62t-19.5 -64q0 -24 14 -24zM287 568q-7 0 -7 6q0 8 9 17q9 8 18 18t18 21q12 14 24 27t22 22
q6 5 14 5q4 0 16.5 -7.5t12.5 -17.5q0 -4 -11 -14.5t-27 -22.5t-31 -22t-22 -14l-18 -10l-11 -6q-5 -2 -7 -2z" />
    <glyph glyph-name="thorn" unicode="&#xfe;" horiz-adv-x="299" 
d="M-29 -137q-10 0 -10 17q0 11 9.5 48t26 92t39 121.5t49 137.5t55 139.5t57.5 127.5l3 3q1 1 1 2l4 1q8 0 20.5 -14t13.5 -25q0 -5 -2 -7q-6 -13 -19 -43.5t-31 -73.5q26 6 44 8.5t34 2.5q43 0 66 -23t23 -66q0 -32 -21 -70.5t-56.5 -73.5t-79 -57.5t-87.5 -22.5
q-21 0 -42 6q-29 -75 -51 -133.5t-29 -78.5q-7 -18 -17 -18zM84 130q35 3 76 21t78 45.5t60.5 60t23.5 64.5q0 28 -53 28q-17 0 -43.5 -4t-60.5 -12q-19 -47 -40 -99.5t-41 -103.5z" />
    <glyph glyph-name="ydieresis" unicode="&#xff;" horiz-adv-x="337" 
d="M-66 -320q-21 0 -33.5 15.5t-12.5 40.5q0 44 26.5 84t68.5 74.5t89.5 62t90.5 45.5q13 27 30 66t35.5 83t34.5 87t25 78q-16 -31 -37.5 -64.5t-45 -63t-46.5 -48t-44 -18.5q-61 0 -61 72q0 36 13.5 77t33.5 80t39 70q-6 -1 -12 -1.5t-11 -0.5q-28 0 -51.5 11t-36.5 30
q-9 17 -9 22v1q0 6 5 6q6 0 12 -6q33 -38 91 -38q16 0 32 3l19 32q11 20 32 39q13 11 20 11q8 0 12 -8t4 -20q0 -19 -10.5 -43.5t-33.5 -38.5q-71 -100 -90 -209q-3 -15 -3 -25q0 -28 17 -28q21 0 52 37q11 13 32 44.5t44.5 71t42.5 78.5t26 66q2 14 12.5 20.5t20.5 6.5
q9 0 15.5 -4.5t6.5 -15.5q0 -13 -1.5 -27.5t-5.5 -30.5q-12 -62 -42 -155q-7 -20 -14 -40.5t-15 -40.5q-13 -34 -26.5 -65t-23.5 -55q24 15 45 31.5t38 35.5q11 11 20 21.5t17 20.5q3 5 8 5q12 0 12 -14q0 -7 -5 -12q-11 -14 -22 -27t-23 -26q-19 -22 -47.5 -43t-64.5 -39
q-23 -48 -52.5 -103t-66.5 -105t-80.5 -81.5t-95.5 -31.5zM-62 -287q16 0 51 31q15 13 32.5 32t32.5 36.5t20 25.5q16 24 33.5 55.5t35.5 68.5q-38 -19 -77 -44t-71 -55t-51.5 -62t-19.5 -64q0 -24 14 -24zM266 568q-10 0 -18 4.5t-13 16.5q-3 5 -3 11q0 14 11 22
q15 13 30 20q3 3 8 4t9 1q9 0 15.5 -4.5t2.5 -12.5q-3 -4 -4.5 -9.5t-3.5 -12.5q-4 -13 -10.5 -26.5t-23.5 -13.5zM391 568q-10 0 -18 4.5t-13 16.5q-3 5 -3 11q0 14 11 22q15 13 30 20q3 3 8 4t9 1q9 0 15.5 -4.5t2.5 -12.5q-3 -4 -4.5 -9.5t-3.5 -12.5q-4 -13 -10.5 -26.5
t-23.5 -13.5z" />
    <glyph glyph-name="Amacron" unicode="&#x100;" horiz-adv-x="707" 
d="M496 -233q-13 0 -26 5t-25 15q-13 12 -19 30.5t-6 40.5q0 32 8 68t18.5 70.5t18.5 59.5q7 21 18 51.5t23.5 62.5t21.5 55q-12 -1 -34.5 -3.5t-47.5 -5.5t-44.5 -5.5t-24.5 -4.5q-10 -10 -23 -23.5t-27 -28.5q-19 -21 -39 -42t-38 -38q-89 -82 -161 -82q-56 0 -83 37.5
t-27 90.5q0 31 9 64.5t28 64.5q20 35 52.5 75t72.5 75t83 57t83 22q11 0 21.5 -3t5.5 -13l-17 -2q-25 -3 -59 -23q-33 -19 -66.5 -49.5t-65.5 -68.5q-16 -19 -29.5 -38.5t-25.5 -39.5q-53 -84 -53 -152q0 -29 14 -45t37 -16q24 0 53 17q44 26 71 51.5t52 53.5q7 8 15 17
t17 19l-23 -5q-13 -3 -24.5 -4t-21.5 -1q-31 0 -46.5 11t-15.5 24q0 23 31 38q11 4 22 6.5t21 4.5l36 7q1 0 1.5 0.5t1.5 0.5q7 0 7 -6q0 -7 -7 -7q-4 -1 -11 -4q21 2 51 6.5t43 7.5q45 43 91 103t87.5 124t70.5 119l35 67l42 80q4 9 9 9t7 -5.5t-1 -11.5
q-49 -115 -110 -236.5t-142 -242.5q5 1 12.5 1t14.5 1q41 1 62 2t27 2q16 39 35 90.5t35 106t25.5 103.5t6.5 83q4 2 8.5 5.5t9.5 7.5q11 8 21 8q26 0 36.5 -26.5t10.5 -54.5q0 -25 -9 -60t-22.5 -73t-29.5 -74q-24 -55 -43 -94q-3 -6 -5.5 -11.5t-4.5 -9.5q27 -1 56 -8
t49.5 -21.5t20.5 -40.5q0 -16 -5 -23.5t-10 -7.5q-4 0 -6.5 4t-0.5 11q3 5 0 10q-7 11 -29 15.5t-49 5t-49 0.5q-9 -16 -24.5 -51t-32.5 -76.5t-31 -78.5t-20 -58q-30 -97 -30 -133q0 -19 9 -21q20 -4 41 12.5t43 37.5q10 8 19 16.5t18 15.5q6 2 7 2q5 0 6.5 -4t-3.5 -9
l-1 -1q-5 -5 -13.5 -18.5t-16 -27.5t-11.5 -21q-20 -41 -62 -41zM820 805q-5 2 -17 3t-29 1q-19 0 -39.5 -0.5t-39.5 -1.5q-13 0 -24 -0.5t-18 -0.5q-16 0 -21.5 7.5t-5.5 17.5v17q0 8 6 5q8 -2 20.5 -3t26.5 -1q17 0 35 0.5t35 1.5q15 1 28.5 1.5t23.5 0.5q21 0 23.5 -15
t2.5 -28q0 -2 -1.5 -4.5t-5.5 -0.5z" />
    <glyph glyph-name="amacron" unicode="&#x101;" horiz-adv-x="366" 
d="M244 -9q-20 0 -32.5 15t-12.5 42q0 19 6 41q2 8 10.5 27.5t17.5 39.5q3 5 5 10q-29 -38 -64 -67.5t-74 -29.5q-34 1 -48 18.5t-14 42.5q0 28 12.5 61t27.5 58q26 41 63.5 80.5t80.5 65.5t82 26q44 0 80 -29q9 -7 12.5 -15t3.5 -14q0 -9 -5 -15t-12 -6q-11 0 -17 16
q-6 17 -16 24t-22 7q-24 0 -55 -22t-61 -54q-35 -35 -61.5 -76.5t-40.5 -75.5q-13 -29 -13 -44q0 -14 11 -14q15 0 46 25q22 17 47.5 44t48.5 54t36 42q5 8 9.5 15t8.5 12q11 15 34 15q15 0 25.5 -7t5.5 -19q-3 -5 -8 -14.5t-12 -23.5q-13 -24 -29 -56l-30 -60t-21 -44
q-15 -30 -15 -43q0 -9 7 -9q3 0 7.5 2t10.5 5q18 10 39 28t45 46q11 11 20 21.5t17 20.5q3 5 8 5q12 0 12 -14q0 -7 -5 -12q-11 -14 -22 -27t-23 -26q-11 -13 -22.5 -26t-24.5 -24q-22 -22 -42.5 -32t-36.5 -10zM427 481q-5 2 -17 3t-29 1q-19 0 -39.5 -0.5t-39.5 -1.5
q-13 0 -24 -0.5t-18 -0.5q-16 0 -21.5 7.5t-5.5 17.5v17q0 8 6 5q8 -2 20.5 -3t26.5 -1q17 0 35 0.5t35 1.5q15 1 28.5 1.5t23.5 0.5q21 0 23.5 -15t2.5 -28q0 -2 -1.5 -4.5t-5.5 -0.5z" />
    <glyph glyph-name="Abreve" unicode="&#x102;" horiz-adv-x="707" 
d="M496 -233q-13 0 -26 5t-25 15q-13 12 -19 30.5t-6 40.5q0 32 8 68t18.5 70.5t18.5 59.5q7 21 18 51.5t23.5 62.5t21.5 55q-12 -1 -34.5 -3.5t-47.5 -5.5t-44.5 -5.5t-24.5 -4.5q-10 -10 -23 -23.5t-27 -28.5q-19 -21 -39 -42t-38 -38q-89 -82 -161 -82q-56 0 -83 37.5
t-27 90.5q0 31 9 64.5t28 64.5q20 35 52.5 75t72.5 75t83 57t83 22q11 0 21.5 -3t5.5 -13l-17 -2q-25 -3 -59 -23q-33 -19 -66.5 -49.5t-65.5 -68.5q-16 -19 -29.5 -38.5t-25.5 -39.5q-53 -84 -53 -152q0 -29 14 -45t37 -16q24 0 53 17q44 26 71 51.5t52 53.5q7 8 15 17
t17 19l-23 -5q-13 -3 -24.5 -4t-21.5 -1q-31 0 -46.5 11t-15.5 24q0 23 31 38q11 4 22 6.5t21 4.5l36 7q1 0 1.5 0.5t1.5 0.5q7 0 7 -6q0 -7 -7 -7q-4 -1 -11 -4q21 2 51 6.5t43 7.5q45 43 91 103t87.5 124t70.5 119l35 67l42 80q4 9 9 9t7 -5.5t-1 -11.5
q-49 -115 -110 -236.5t-142 -242.5q5 1 12.5 1t14.5 1q41 1 62 2t27 2q16 39 35 90.5t35 106t25.5 103.5t6.5 83q4 2 8.5 5.5t9.5 7.5q11 8 21 8q26 0 36.5 -26.5t10.5 -54.5q0 -25 -9 -60t-22.5 -73t-29.5 -74q-24 -55 -43 -94q-3 -6 -5.5 -11.5t-4.5 -9.5q27 -1 56 -8
t49.5 -21.5t20.5 -40.5q0 -16 -5 -23.5t-10 -7.5q-4 0 -6.5 4t-0.5 11q3 5 0 10q-7 11 -29 15.5t-49 5t-49 0.5q-9 -16 -24.5 -51t-32.5 -76.5t-31 -78.5t-20 -58q-30 -97 -30 -133q0 -19 9 -21q20 -4 41 12.5t43 37.5q10 8 19 16.5t18 15.5q6 2 7 2q5 0 6.5 -4t-3.5 -9
l-1 -1q-5 -5 -13.5 -18.5t-16 -27.5t-11.5 -21q-20 -41 -62 -41zM733 793q-36 0 -54 14.5t-18 36.5q0 11 4 22q5 15 16 15q10 0 11 -12q5 -33 58 -33q28 0 51 10t38 29q6 8 14 8q5 0 8 -4t1 -10q-10 -30 -47.5 -53t-81.5 -23z" />
    <glyph glyph-name="abreve" unicode="&#x103;" horiz-adv-x="366" 
d="M244 -9q-20 0 -32.5 15t-12.5 42q0 19 6 41q2 8 10.5 27.5t17.5 39.5q3 5 5 10q-29 -38 -64 -67.5t-74 -29.5q-34 1 -48 18.5t-14 42.5q0 28 12.5 61t27.5 58q26 41 63.5 80.5t80.5 65.5t82 26q44 0 80 -29q9 -7 12.5 -15t3.5 -14q0 -9 -5 -15t-12 -6q-11 0 -17 16
q-6 17 -16 24t-22 7q-24 0 -55 -22t-61 -54q-35 -35 -61.5 -76.5t-40.5 -75.5q-13 -29 -13 -44q0 -14 11 -14q15 0 46 25q22 17 47.5 44t48.5 54t36 42q5 8 9.5 15t8.5 12q11 15 34 15q15 0 25.5 -7t5.5 -19q-3 -5 -8 -14.5t-12 -23.5q-13 -24 -29 -56l-30 -60t-21 -44
q-15 -30 -15 -43q0 -9 7 -9q3 0 7.5 2t10.5 5q18 10 39 28t45 46q11 11 20 21.5t17 20.5q3 5 8 5q12 0 12 -14q0 -7 -5 -12q-11 -14 -22 -27t-23 -26q-11 -13 -22.5 -26t-24.5 -24q-22 -22 -42.5 -32t-36.5 -10zM340 469q-28 0 -45 14.5t-17 36.5q0 11 4 22q5 15 16 15
q10 0 11 -12q2 -16 15.5 -24.5t32.5 -8.5q20 0 42 10t37 29q6 8 14 8q5 0 8 -4t1 -10q-7 -20 -26 -37.5t-44 -28t-49 -10.5z" />
    <glyph glyph-name="Aogonek" unicode="&#x104;" horiz-adv-x="707" 
d="M496 -233q-13 0 -26 5t-25 15q-13 12 -19 30.5t-6 40.5q0 32 8 68t18.5 70.5t18.5 59.5q7 21 18 51.5t23.5 62.5t21.5 55q-12 -1 -34.5 -3.5t-47.5 -5.5t-44.5 -5.5t-24.5 -4.5q-10 -10 -23 -23.5t-27 -28.5q-19 -21 -39 -42t-38 -38q-89 -82 -161 -82q-56 0 -83 37.5
t-27 90.5q0 31 9 64.5t28 64.5q20 35 52.5 75t72.5 75t83 57t83 22q11 0 21.5 -3t5.5 -13l-17 -2q-25 -3 -59 -23q-33 -19 -66.5 -49.5t-65.5 -68.5q-16 -19 -29.5 -38.5t-25.5 -39.5q-53 -84 -53 -152q0 -29 14 -45t37 -16q24 0 53 17q44 26 71 51.5t52 53.5q7 8 15 17
t17 19l-23 -5q-13 -3 -24.5 -4t-21.5 -1q-31 0 -46.5 11t-15.5 24q0 23 31 38q11 4 22 6.5t21 4.5l36 7q1 0 1.5 0.5t1.5 0.5q7 0 7 -6q0 -7 -7 -7q-4 -1 -11 -4q21 2 51 6.5t43 7.5q45 43 91 103t87.5 124t70.5 119l35 67l42 80q4 9 9 9t7 -5.5t-1 -11.5
q-49 -115 -110 -236.5t-142 -242.5q5 1 12.5 1t14.5 1q41 1 62 2t27 2q16 39 35 90.5t35 106t25.5 103.5t6.5 83q4 2 8.5 5.5t9.5 7.5q11 8 21 8q26 0 36.5 -26.5t10.5 -54.5q0 -25 -9 -60t-22.5 -73t-29.5 -74q-24 -55 -43 -94q-3 -6 -5.5 -11.5t-4.5 -9.5q27 -1 56 -8
t49.5 -21.5t20.5 -40.5q0 -16 -5 -23.5t-10 -7.5q-4 0 -6.5 4t-0.5 11q3 5 0 10q-7 11 -29 15.5t-49 5t-49 0.5q-9 -16 -24.5 -51t-32.5 -76.5t-31 -78.5t-20 -58q-30 -97 -30 -133q0 -19 9 -21q20 -4 41 12.5t43 37.5q10 8 19 16.5t18 15.5q6 2 7 2q5 0 6.5 -4t-3.5 -9
l-1 -1q-5 -5 -13.5 -18.5t-16 -27.5t-11.5 -21q-20 -41 -62 -41zM443 -406q-31 0 -44 13t-13 33q0 24 13 52.5t30 52.5t28 33t19 9q10 0 10 -9q0 -6 -9 -14t-17 -19q-18 -25 -24 -47.5t-5 -43.5q0 -8 7 -12t15 -4q32 0 57.5 11t53.5 35q23 20 23 6q0 -18 -13 -31
q-15 -15 -38 -30t-47.5 -25t-45.5 -10z" />
    <glyph glyph-name="aogonek" unicode="&#x105;" horiz-adv-x="366" 
d="M244 -9q-20 0 -32.5 15t-12.5 42q0 19 6 41q2 8 10.5 27.5t17.5 39.5q3 5 5 10q-29 -38 -64 -67.5t-74 -29.5q-34 1 -48 18.5t-14 42.5q0 28 12.5 61t27.5 58q26 41 63.5 80.5t80.5 65.5t82 26q44 0 80 -29q9 -7 12.5 -15t3.5 -14q0 -9 -5 -15t-12 -6q-11 0 -17 16
q-6 17 -16 24t-22 7q-24 0 -55 -22t-61 -54q-35 -35 -61.5 -76.5t-40.5 -75.5q-13 -29 -13 -44q0 -14 11 -14q15 0 46 25q22 17 47.5 44t48.5 54t36 42q5 8 9.5 15t8.5 12q11 15 34 15q15 0 25.5 -7t5.5 -19q-3 -5 -8 -14.5t-12 -23.5q-13 -24 -29 -56l-30 -60t-21 -44
q-15 -30 -15 -43q0 -9 7 -9q3 0 7.5 2t10.5 5q18 10 39 28t45 46q11 11 20 21.5t17 20.5q3 5 8 5q12 0 12 -14q0 -7 -5 -12q-11 -14 -22 -27t-23 -26q-11 -13 -22.5 -26t-24.5 -24q-22 -22 -42.5 -32t-36.5 -10zM208 -182q-31 0 -44 13t-13 33q0 24 13 52.5t30 52.5t28 33
t19 9q10 0 10 -9q0 -6 -9 -14t-17 -19q-18 -25 -24 -47.5t-5 -43.5q0 -8 7 -12t15 -4q32 0 57.5 11t53.5 35q23 20 23 6q0 -18 -13 -31q-15 -15 -38 -30t-47.5 -25t-45.5 -10z" />
    <glyph glyph-name="Cacute" unicode="&#x106;" horiz-adv-x="662" 
d="M258 -88q-86 0 -135.5 54.5t-49.5 148.5q0 11 0.5 21t1.5 21q11 95 57.5 185t124.5 166q-40 8 -86.5 21.5t-87.5 33.5t-67.5 47t-26.5 62q0 27 26 43.5t67 16.5q34 0 78.5 -11t87.5 -28t70 -35q4 -3 10 -8.5t6 -13.5q0 -7 -6.5 -10t-11.5 1q-49 26 -114.5 41t-125.5 15
q-37 0 -37 -18q0 -16 23 -39q41 -38 101 -61t119 -34q36 31 74.5 56t79.5 44q117 51 263 51q62 -4 96.5 -24t34.5 -55t-33.5 -60t-97.5 -39q-30 -6 -65 -10t-67 -5.5t-53 -1.5q-38 0 -76 1t-76 5q-32 -28 -60.5 -60.5t-53.5 -70.5q-66 -105 -84 -208q-4 -18 -5.5 -36
t-1.5 -36q0 -137 111 -137q34 0 76 15q80 31 161 104q19 17 35.5 35.5t30.5 37.5q63 85 63 154q0 18 -8.5 25.5t-28.5 7.5q-25 0 -55 -15q-57 -29 -124 -97q-16 -16 -29 -32.5t-24 -32.5q-51 -71 -51 -118q0 -9 -4 -16.5t-12 -7.5q-13 0 -13 20q0 29 11.5 60.5t22.5 56.5
q20 37 49 76.5t65.5 73.5t78 55t85.5 21q89 0 89 -78q0 -71 -36 -140t-102 -125q-64 -53 -140 -83t-150 -30zM420 522q45 0 96.5 4t103 13t93.5 23q11 3 22.5 7t21.5 9q8 5 20.5 13.5t12.5 16.5q0 11 -21.5 16t-61.5 5q-169 0 -310 -107h23zM672 732q-7 0 -7 6q0 8 9 17
q9 8 18 18t18 21q12 14 24 27t22 22q6 5 14 5q4 0 16.5 -7.5t12.5 -17.5q0 -4 -11 -14.5t-27 -22.5t-31 -22t-22 -14l-18 -10l-11 -6q-5 -2 -7 -2z" />
    <glyph glyph-name="cacute" unicode="&#x107;" horiz-adv-x="299" 
d="M100 -35q-40 0 -62 24.5t-22 70.5q0 29 7.5 64t19 68.5t23.5 55.5q20 42 48 84.5t61 78t68 57.5t69 22q29 0 46.5 -22t17.5 -51t-18 -55q-16 -25 -31 -37.5t-23 -12.5t-8 11q0 5 2 13t6 18q4 9 9.5 24.5t10.5 33.5t4 31q-19 3 -43.5 -13.5t-49.5 -43t-47 -56.5t-36 -56
q-11 -19 -24 -48t-24 -60t-18 -57q-4 -16 -6 -29.5t-2 -24.5q0 -47 34 -47q83 0 183 106q22 22 37 43q3 5 8 5q12 0 12 -14q0 -7 -5 -12l-44 -52q-22 -26 -55.5 -53.5t-72 -46.5t-75.5 -19zM285 540q-7 0 -7 6q0 8 9 17q9 8 18 18t18 21q12 14 24 27t22 22q6 5 14 5
q4 0 16.5 -7.5t12.5 -17.5q0 -4 -11 -14.5t-27 -22.5t-31 -22t-22 -14l-18 -10l-11 -6q-5 -2 -7 -2z" />
    <glyph glyph-name="Ccircumflex" unicode="&#x108;" horiz-adv-x="662" 
d="M258 -88q-86 0 -135.5 54.5t-49.5 148.5q0 11 0.5 21t1.5 21q11 95 57.5 185t124.5 166q-40 8 -86.5 21.5t-87.5 33.5t-67.5 47t-26.5 62q0 27 26 43.5t67 16.5q34 0 78.5 -11t87.5 -28t70 -35q4 -3 10 -8.5t6 -13.5q0 -7 -6.5 -10t-11.5 1q-49 26 -114.5 41t-125.5 15
q-37 0 -37 -18q0 -16 23 -39q41 -38 101 -61t119 -34q36 31 74.5 56t79.5 44q117 51 263 51q62 -4 96.5 -24t34.5 -55t-33.5 -60t-97.5 -39q-30 -6 -65 -10t-67 -5.5t-53 -1.5q-38 0 -76 1t-76 5q-32 -28 -60.5 -60.5t-53.5 -70.5q-66 -105 -84 -208q-4 -18 -5.5 -36
t-1.5 -36q0 -137 111 -137q34 0 76 15q80 31 161 104q19 17 35.5 35.5t30.5 37.5q63 85 63 154q0 18 -8.5 25.5t-28.5 7.5q-25 0 -55 -15q-57 -29 -124 -97q-16 -16 -29 -32.5t-24 -32.5q-51 -71 -51 -118q0 -9 -4 -16.5t-12 -7.5q-13 0 -13 20q0 29 11.5 60.5t22.5 56.5
q20 37 49 76.5t65.5 73.5t78 55t85.5 21q89 0 89 -78q0 -71 -36 -140t-102 -125q-64 -53 -140 -83t-150 -30zM420 522q45 0 96.5 4t103 13t93.5 23q11 3 22.5 7t21.5 9q8 5 20.5 13.5t12.5 16.5q0 11 -21.5 16t-61.5 5q-169 0 -310 -107h23zM600 727q-8 0 -8 10q0 5 8 12
q14 9 31 24.5t32.5 30t23.5 21.5q15 13 30 13q6 0 13 -4t11 -9q5 -7 16.5 -21.5t25 -30.5t25.5 -25q4 -3 4 -8q0 -4 -3.5 -7.5t-7.5 -3.5q-2 0 -12.5 6.5t-22 14.5t-17.5 13t-17.5 13.5t-21.5 17.5q-13 -9 -27.5 -17.5t-22.5 -13.5q-18 -12 -25.5 -16t-10.5 -6t-7.5 -4.5
t-16.5 -9.5z" />
    <glyph glyph-name="ccircumflex" unicode="&#x109;" horiz-adv-x="299" 
d="M100 -35q-40 0 -62 24.5t-22 70.5q0 29 7.5 64t19 68.5t23.5 55.5q20 42 48 84.5t61 78t68 57.5t69 22q29 0 46.5 -22t17.5 -51t-18 -55q-16 -25 -31 -37.5t-23 -12.5t-8 11q0 5 2 13t6 18q4 9 9.5 24.5t10.5 33.5t4 31q-19 3 -43.5 -13.5t-49.5 -43t-47 -56.5t-36 -56
q-11 -19 -24 -48t-24 -60t-18 -57q-4 -16 -6 -29.5t-2 -24.5q0 -47 34 -47q83 0 183 106q22 22 37 43q3 5 8 5q12 0 12 -14q0 -7 -5 -12l-44 -52q-22 -26 -55.5 -53.5t-72 -46.5t-75.5 -19zM213 535q-8 0 -8 10q0 5 8 12q14 9 31 24.5t32.5 30t23.5 21.5q15 13 30 13
q6 0 13 -4t11 -9q5 -7 16.5 -21.5t25 -30.5t25.5 -25q4 -3 4 -8q0 -4 -3.5 -7.5t-7.5 -3.5q-2 0 -12.5 6.5t-22 14.5t-17.5 13t-17.5 13.5t-21.5 17.5q-13 -9 -27.5 -17.5t-22.5 -13.5q-18 -12 -25.5 -16t-10.5 -6t-7.5 -4.5t-16.5 -9.5z" />
    <glyph glyph-name="Cdotaccent" unicode="&#x10a;" horiz-adv-x="662" 
d="M258 -88q-86 0 -135.5 54.5t-49.5 148.5q0 11 0.5 21t1.5 21q11 95 57.5 185t124.5 166q-40 8 -86.5 21.5t-87.5 33.5t-67.5 47t-26.5 62q0 27 26 43.5t67 16.5q34 0 78.5 -11t87.5 -28t70 -35q4 -3 10 -8.5t6 -13.5q0 -7 -6.5 -10t-11.5 1q-49 26 -114.5 41t-125.5 15
q-37 0 -37 -18q0 -16 23 -39q41 -38 101 -61t119 -34q36 31 74.5 56t79.5 44q117 51 263 51q62 -4 96.5 -24t34.5 -55t-33.5 -60t-97.5 -39q-30 -6 -65 -10t-67 -5.5t-53 -1.5q-38 0 -76 1t-76 5q-32 -28 -60.5 -60.5t-53.5 -70.5q-66 -105 -84 -208q-4 -18 -5.5 -36
t-1.5 -36q0 -137 111 -137q34 0 76 15q80 31 161 104q19 17 35.5 35.5t30.5 37.5q63 85 63 154q0 18 -8.5 25.5t-28.5 7.5q-25 0 -55 -15q-57 -29 -124 -97q-16 -16 -29 -32.5t-24 -32.5q-51 -71 -51 -118q0 -9 -4 -16.5t-12 -7.5q-13 0 -13 20q0 29 11.5 60.5t22.5 56.5
q20 37 49 76.5t65.5 73.5t78 55t85.5 21q89 0 89 -78q0 -71 -36 -140t-102 -125q-64 -53 -140 -83t-150 -30zM420 522q45 0 96.5 4t103 13t93.5 23q11 3 22.5 7t21.5 9q8 5 20.5 13.5t12.5 16.5q0 11 -21.5 16t-61.5 5q-169 0 -310 -107h23zM712 732q-20 0 -30 19
q-3 5 -3 10q0 13 14.5 24t24.5 15q3 2 7.5 3t8.5 1q18 0 18 -12q0 -4 -3 -10t-6 -16t-8.5 -22t-22.5 -12z" />
    <glyph glyph-name="cdotaccent" unicode="&#x10b;" horiz-adv-x="299" 
d="M100 -35q-40 0 -62 24.5t-22 70.5q0 29 7.5 64t19 68.5t23.5 55.5q20 42 48 84.5t61 78t68 57.5t69 22q29 0 46.5 -22t17.5 -51t-18 -55q-16 -25 -31 -37.5t-23 -12.5t-8 11q0 5 2 13t6 18q4 9 9.5 24.5t10.5 33.5t4 31q-19 3 -43.5 -13.5t-49.5 -43t-47 -56.5t-36 -56
q-11 -19 -24 -48t-24 -60t-18 -57q-4 -16 -6 -29.5t-2 -24.5q0 -47 34 -47q83 0 183 106q22 22 37 43q3 5 8 5q12 0 12 -14q0 -7 -5 -12l-44 -52q-22 -26 -55.5 -53.5t-72 -46.5t-75.5 -19zM325 540q-20 0 -30 19q-3 5 -3 10q0 13 14.5 24t24.5 15q3 2 7.5 3t8.5 1
q18 0 18 -12q0 -4 -3 -10t-6 -16t-8.5 -22t-22.5 -12z" />
    <glyph glyph-name="Ccaron" unicode="&#x10c;" horiz-adv-x="662" 
d="M822 841q8 0 8 -10q0 -5 -8 -12q-14 -9 -31 -24.5t-32.5 -30t-23.5 -21.5q-15 -13 -30 -13q-6 0 -13 4t-11 9q-5 7 -16.5 21.5t-25 30.5t-25.5 25q-4 3 -4 8q0 4 3.5 7.5t7.5 3.5q3 0 13 -6.5t21.5 -14.5t17.5 -12q6 -6 17.5 -14.5t21.5 -17.5q13 9 27.5 17.5t22.5 14.5
q18 11 25.5 15t10.5 6t7.5 4.5t16.5 9.5zM258 -88q-86 0 -135.5 54.5t-49.5 148.5q0 11 0.5 21t1.5 21q11 95 57.5 185t124.5 166q-40 8 -86.5 21.5t-87.5 33.5t-67.5 47t-26.5 62q0 27 26 43.5t67 16.5q34 0 78.5 -11t87.5 -28t70 -35q4 -3 10 -8.5t6 -13.5q0 -7 -6.5 -10
t-11.5 1q-49 26 -114.5 41t-125.5 15q-37 0 -37 -18q0 -16 23 -39q41 -38 101 -61t119 -34q36 31 74.5 56t79.5 44q117 51 263 51q62 -4 96.5 -24t34.5 -55t-33.5 -60t-97.5 -39q-30 -6 -65 -10t-67 -5.5t-53 -1.5q-38 0 -76 1t-76 5q-32 -28 -60.5 -60.5t-53.5 -70.5
q-66 -105 -84 -208q-4 -18 -5.5 -36t-1.5 -36q0 -137 111 -137q34 0 76 15q80 31 161 104q19 17 35.5 35.5t30.5 37.5q63 85 63 154q0 18 -8.5 25.5t-28.5 7.5q-25 0 -55 -15q-57 -29 -124 -97q-16 -16 -29 -32.5t-24 -32.5q-51 -71 -51 -118q0 -9 -4 -16.5t-12 -7.5
q-13 0 -13 20q0 29 11.5 60.5t22.5 56.5q20 37 49 76.5t65.5 73.5t78 55t85.5 21q89 0 89 -78q0 -71 -36 -140t-102 -125q-64 -53 -140 -83t-150 -30zM420 522q45 0 96.5 4t103 13t93.5 23q11 3 22.5 7t21.5 9q8 5 20.5 13.5t12.5 16.5q0 11 -21.5 16t-61.5 5
q-169 0 -310 -107h23z" />
    <glyph glyph-name="ccaron" unicode="&#x10d;" horiz-adv-x="299" 
d="M435 649q8 0 8 -10q0 -5 -8 -12q-14 -9 -31 -24.5t-32.5 -30t-23.5 -21.5q-15 -13 -30 -13q-6 0 -13 4t-11 9q-5 7 -16.5 21.5t-25 30.5t-25.5 25q-4 3 -4 8q0 4 3.5 7.5t7.5 3.5q3 0 13 -6.5t21.5 -14.5t17.5 -12q6 -6 17.5 -14.5t21.5 -17.5q13 9 27.5 17.5t22.5 14.5
q18 11 25.5 15t10.5 6t7.5 4.5t16.5 9.5zM100 -35q-40 0 -62 24.5t-22 70.5q0 29 7.5 64t19 68.5t23.5 55.5q20 42 48 84.5t61 78t68 57.5t69 22q29 0 46.5 -22t17.5 -51t-18 -55q-16 -25 -31 -37.5t-23 -12.5t-8 11q0 5 2 13t6 18q4 9 9.5 24.5t10.5 33.5t4 31
q-19 3 -43.5 -13.5t-49.5 -43t-47 -56.5t-36 -56q-11 -19 -24 -48t-24 -60t-18 -57q-4 -16 -6 -29.5t-2 -24.5q0 -47 34 -47q83 0 183 106q22 22 37 43q3 5 8 5q12 0 12 -14q0 -7 -5 -12l-44 -52q-22 -26 -55.5 -53.5t-72 -46.5t-75.5 -19z" />
    <glyph glyph-name="Dcaron" unicode="&#x10e;" horiz-adv-x="950" 
d="M873 766q-4 2 -12.5 14.5t-28.5 43.5q-12 19 -23.5 36t-16.5 21l4 9q25 0 45 -11t34.5 -25.5t21.5 -26.5q18 8 45 22t53 30t41 27l8 -4q0 -21 -22 -43t-53.5 -41.5t-60.5 -35.5q-8 -4 -15.5 -8t-13.5 -8h-6zM227 -134q-29 0 -29 41q0 8 1 17.5t3 19.5q6 28 21 73t35 95.5
t40.5 97t36.5 76.5q14 28 32.5 69t37.5 87t34.5 90t24.5 78q-26 -56 -57.5 -100.5t-67.5 -83.5q-21 -22 -50.5 -51t-63 -56t-66 -45t-58.5 -18q-84 0 -92 65v8q0 17 7 20q2 1 4 1q10 0 10 -14q0 -10 3.5 -21t14.5 -11q14 0 45 8t69 30q48 27 112.5 83.5t143.5 159.5
q11 16 21 34l20 36q13 25 25.5 46t27.5 28q13 5 21 5q19 0 29.5 -15.5t10.5 -42.5q0 -13 -3 -30q-3 -15 -17 -50q-13 -33 -32 -74.5t-42 -88.5l-45 -90q-7 -16 -16.5 -32.5t-17.5 -33.5l-40 -77q-9 -20 -24.5 -52.5t-30.5 -66t-25 -57.5q-8 -19 -18.5 -43.5t-19 -44.5
t-10.5 -27q-3 -9 -5 -13t-2 -5l9 17q2 2 5.5 9.5t8.5 19.5q3 6 7 15t8 19l56 123q12 26 25 52.5t26 54.5q28 56 58 112t62 106q48 75 88 131t77 93q76 75 156 75q57 0 100.5 -33t68 -91t24.5 -134q0 -34 -6.5 -68.5t-18.5 -68.5q-25 -67 -67.5 -130.5t-101.5 -120.5
q-28 -28 -58.5 -52t-63.5 -45q-68 -43 -137.5 -65.5t-131.5 -22.5q-47 0 -77 13q-31 13 -41 21q-10 12 -10 19t6 7t14 -5q8 -6 34 -9.5t62 -3.5q51 0 106.5 24.5t109.5 64.5t100 87t76 91q63 93 96 176.5t33 148.5q0 73 -29 111.5t-85 38.5q-24 0 -50.5 -14t-52.5 -36
t-48 -46t-38 -44q-86 -115 -166.5 -239t-136.5 -263q-6 -16 -15.5 -43t-22 -54.5t-27 -46.5t-30.5 -19z" />
    <glyph glyph-name="dcaron" unicode="&#x10f;" horiz-adv-x="411" 
d="M198 -151q-22 0 -37.5 16.5t-12.5 47.5q4 32 22 81.5t44 110.5q-20 -29 -44.5 -55t-51.5 -42.5t-55 -16.5q-62 0 -62 59v8t1 8q3 25 16 57t23 48q26 41 63.5 80.5t80 65.5t82.5 26q25 0 49 -10q23 47 46 89t42 73q33 57 61 87.5t55.5 43.5t56.5 17l5 -8
q-67 -85 -119 -166.5t-101 -175.5q1 -3 1 -9q0 -17 -15 -20q-11 -21 -27 -54t-33.5 -73t-34 -81.5t-27.5 -77.5q-7 -25 -11.5 -40t-4.5 -23q0 -19 44 28l47 50q11 11 19 20t13 15l74 86q10 12 20 23.5t19 22.5q4 5 10 5q11 0 11 -12q0 -6 -6 -14q-10 -14 -22.5 -29
t-23.5 -28q-3 -3 -17 -20t-33 -41.5t-39 -51t-37 -48.5t-26 -34q-14 -19 -31.5 -28.5t-33.5 -9.5zM71 25q15 0 46 25q21 16 47.5 43.5t50 54.5t34.5 42q11 29 25 58.5t29 60.5q-3 1 -6 1.5t-6 0.5q-25 0 -57 -23.5t-59 -52.5q-33 -34 -61 -75t-42 -77q-12 -28 -12 -44
q0 -14 11 -14zM591 475q-7 -2 -9 5v3q0 7 5 19q6 11 13 26t13 30q8 20 16.5 38.5t16.5 30.5q7 11 16 11q6 0 19 -4.5t15 -15.5q1 -4 -7.5 -19.5t-21.5 -34t-25.5 -35t-19.5 -22.5l-15 -18l-10 -10q-5 -3 -6 -4z" />
    <glyph glyph-name="Dcroat" unicode="&#x110;" horiz-adv-x="826" 
d="M197 -117q-26 0 -26 36q0 7 1 15t3 17q6 28 20 70t32 87q-9 -1 -17 -1h-15q-46 0 -43 54q8 -2 22.5 -3t33.5 -1h20.5t20.5 1q11 25 21.5 48.5t20.5 42.5q11 23 26 57t31 73t30 76t22 67q-22 -46 -48.5 -82.5t-56.5 -69.5q-18 -19 -44 -44t-55.5 -49t-57.5 -39.5
t-50 -15.5q-73 0 -81 57v8q0 15 7 17q2 1 4 1q9 0 9 -13q0 -9 2.5 -18t12.5 -9q11 0 38.5 7t60.5 26q53 30 108.5 83.5t113.5 127.5q11 14 19.5 29.5t16.5 31.5q11 23 22 41.5t24 23.5q8 4 18 4q17 0 26 -14t9 -39v-11t-2 -13q-3 -14 -15 -43q-11 -28 -27.5 -65t-36.5 -78
l-39 -78q-12 -22 -24 -48q-11 -22 -22 -43t-18 -33l-5 -12h6q25 52 53 103.5t58 99.5q42 65 76.5 114t67.5 81q66 65 135 65q50 0 88 -28.5t59.5 -79t21.5 -117.5q0 -30 -5.5 -60t-16.5 -59q-43 -119 -147 -219q-25 -23 -51 -44.5t-55 -39.5q-123 -77 -235 -77
q-40 0 -67 11.5t-35 18.5q-10 10 -10 17v1q-11 -26 -24.5 -46t-30.5 -20zM271 -50q8 -5 30 -8t53 -3q45 0 93 21.5t95 56t86 75t66 79.5q55 81 83.5 153t28.5 129q0 63 -24.5 96.5t-73.5 33.5q-28 0 -59.5 -21t-59 -49.5t-45.5 -51.5q-52 -70 -103 -143.5t-94 -153.5h17
t15 -1q32 -2 38 -19.5t6 -33.5l-9 -3q-1 3 -25 9q-5 2 -12.5 2h-15.5h-18t-22 -2q-10 -22 -20 -44.5t-20 -46.5q-3 -7 -6.5 -15.5t-6.5 -18.5q-3 -9 -6.5 -18.5t-7.5 -18.5q2 1 4 1q5 0 13 -5zM203 -80q2 2 6 11.5t9 22.5q3 7 6.5 15t6.5 15q12 26 27 59.5t32 70.5
q-1 -1 -5 -1q-8 -18 -21.5 -47t-27 -60t-23 -54.5t-11.5 -29.5q-1 -6 -2 -8t0 0q1 3 3 6z" />
    <glyph glyph-name="dcroat" unicode="&#x111;" horiz-adv-x="411" 
d="M198 -151q-22 0 -37.5 16.5t-12.5 47.5q4 32 22 81.5t44 110.5q-20 -29 -44.5 -55t-51.5 -42.5t-55 -16.5q-62 0 -62 59v8t1 8q3 25 16 57t23 48q26 41 63.5 80.5t80 65.5t82.5 26q25 0 49 -10q23 47 46 89t42 73q33 57 61 87.5t55.5 43.5t56.5 17l5 -8
q-67 -85 -119 -166.5t-101 -175.5q1 -3 1 -9q0 -17 -15 -20q-11 -21 -27 -54t-33.5 -73t-34 -81.5t-27.5 -77.5q-7 -25 -11.5 -40t-4.5 -23q0 -19 44 28l47 50q11 11 19 20t13 15l74 86q10 12 20 23.5t19 22.5q4 5 10 5q11 0 11 -12q0 -6 -6 -14q-10 -14 -22.5 -29
t-23.5 -28q-3 -3 -17 -20t-33 -41.5t-39 -51t-37 -48.5t-26 -34q-14 -19 -31.5 -28.5t-33.5 -9.5zM71 25q15 0 46 25q21 16 47.5 43.5t50 54.5t34.5 42q11 29 25 58.5t29 60.5q-3 1 -6 1.5t-6 0.5q-25 0 -57 -23.5t-59 -52.5q-33 -34 -61 -75t-42 -77q-12 -28 -12 -44
q0 -14 11 -14zM514 429q-5 2 -17 3t-29 1q-19 0 -39.5 -0.5t-39.5 -1.5q-13 0 -24 -0.5t-18 -0.5q-16 0 -21.5 7.5t-5.5 17.5v17q0 8 6 5q8 -2 20.5 -3t26.5 -1q17 0 35 0.5t35 1.5q15 1 28.5 1.5t23.5 0.5q21 0 23.5 -15t2.5 -28q0 -2 -1.5 -4.5t-5.5 -0.5z" />
    <glyph glyph-name="Emacron" unicode="&#x112;" horiz-adv-x="696" 
d="M161 -99q-16 0 -32 1t-32 3q-54 8 -84 39.5t-30 76.5q0 19 4 35q9 33 38 67t70.5 66.5t89 59t95.5 44.5q-48 5 -76 30t-28 65q0 62 39 120q-57 8 -103.5 21t-71.5 28q-14 11 -14 18q0 6 9 6q8 0 19 -4q32 -16 79 -26t105 -15q35 38 84 68t104 51t108.5 32t96.5 11
q25 0 56 -7.5t54 -24t23 -44.5q0 -49 -62.5 -80.5t-175.5 -43.5q-25 -2 -52 -3.5t-53 -1.5q-33 0 -66.5 2t-65.5 5q-28 -27 -48 -57t-20 -60q0 -28 30.5 -49t75.5 -21q14 0 30 3t30 6q23 5 33 5q13 2 24 -12.5t11 -28.5q0 -15 -16 -15q-14 -1 -30.5 -4.5t-35.5 -9.5
q-72 -21 -147 -68q-19 -12 -36 -24t-33 -25q-69 -56 -98 -112q-8 -16 -8 -26q0 -37 95 -37q34 0 79 8t93 22.5t91 32.5q24 11 57 32t64.5 46.5t52 52.5t20.5 51q0 14 -20 14q-17 0 -43.5 -9t-56.5 -24t-57.5 -33.5t-47.5 -37.5q-10 -9 -20 -9q-11 0 -11 12t15 26
q12 11 36 29.5t54.5 38t60.5 33t54 13.5q79 0 79 -71q0 -33 -19 -65.5t-49.5 -61.5t-64.5 -52.5t-63 -37.5q-58 -31 -133.5 -52.5t-155.5 -21.5zM417 586q-17 -10 -39.5 -23.5t-45.5 -29.5q101 0 194 14q82 11 135 32t53 42q0 17 -99 17q-56 -1 -108 -17t-90 -35zM680 760
q-5 2 -17 3t-29 1q-19 0 -39.5 -0.5t-39.5 -1.5q-13 0 -24 -0.5t-18 -0.5q-16 0 -21.5 7.5t-5.5 17.5v17q0 8 6 5q8 -2 20.5 -3t26.5 -1q17 0 35 0.5t35 1.5q15 1 28.5 1.5t23.5 0.5q21 0 23.5 -15t2.5 -28q0 -2 -1.5 -4.5t-5.5 -0.5z" />
    <glyph glyph-name="emacron" unicode="&#x113;" horiz-adv-x="365" 
d="M71 -149q-42 0 -64.5 33.5t-22.5 92.5q0 20 3 42q7 56 34 115t73 118q33 43 74 66.5t80 23.5q28 0 49 -11q26 -15 26 -51q0 -26 -18 -57.5t-62 -60.5q-56 -35 -94.5 -47.5t-61.5 -14.5q-7 -11 -14.5 -33.5t-13 -47t-7.5 -43.5q0 -4 -0.5 -8.5t-0.5 -9.5q0 -68 43 -68
q23 0 52.5 17t58 41t51 46.5t31.5 33.5l74 86l20 23l10 12t10 11q4 5 9 5q11 0 11 -12q0 -6 -6 -14q-10 -14 -22.5 -29t-23.5 -28l-34 -41q-20 -24 -43 -51.5t-45 -48.5q-93 -90 -176 -90zM103 128q20 5 47.5 21t53 34t39.5 30q21 17 32 38t11 36q0 21 -17 21q-8 0 -17 -4
q-24 -11 -52 -42t-53.5 -68t-43.5 -66zM342 402q-5 2 -17 3t-29 1q-19 0 -39.5 -0.5t-39.5 -1.5q-13 0 -24 -0.5t-18 -0.5q-16 0 -21.5 7.5t-5.5 17.5v17q0 8 6 5q8 -2 20.5 -3t26.5 -1q17 0 35 0.5t35 1.5q15 1 28.5 1.5t23.5 0.5q21 0 23.5 -15t2.5 -28q0 -2 -1.5 -4.5
t-5.5 -0.5z" />
    <glyph glyph-name="Ebreve" unicode="&#x114;" horiz-adv-x="696" 
d="M161 -99q-16 0 -32 1t-32 3q-54 8 -84 39.5t-30 76.5q0 19 4 35q9 33 38 67t70.5 66.5t89 59t95.5 44.5q-48 5 -76 30t-28 65q0 62 39 120q-57 8 -103.5 21t-71.5 28q-14 11 -14 18q0 6 9 6q8 0 19 -4q32 -16 79 -26t105 -15q35 38 84 68t104 51t108.5 32t96.5 11
q25 0 56 -7.5t54 -24t23 -44.5q0 -49 -62.5 -80.5t-175.5 -43.5q-25 -2 -52 -3.5t-53 -1.5q-33 0 -66.5 2t-65.5 5q-28 -27 -48 -57t-20 -60q0 -28 30.5 -49t75.5 -21q14 0 30 3t30 6q23 5 33 5q13 2 24 -12.5t11 -28.5q0 -15 -16 -15q-14 -1 -30.5 -4.5t-35.5 -9.5
q-72 -21 -147 -68q-19 -12 -36 -24t-33 -25q-69 -56 -98 -112q-8 -16 -8 -26q0 -37 95 -37q34 0 79 8t93 22.5t91 32.5q24 11 57 32t64.5 46.5t52 52.5t20.5 51q0 14 -20 14q-17 0 -43.5 -9t-56.5 -24t-57.5 -33.5t-47.5 -37.5q-10 -9 -20 -9q-11 0 -11 12t15 26
q12 11 36 29.5t54.5 38t60.5 33t54 13.5q79 0 79 -71q0 -33 -19 -65.5t-49.5 -61.5t-64.5 -52.5t-63 -37.5q-58 -31 -133.5 -52.5t-155.5 -21.5zM417 586q-17 -10 -39.5 -23.5t-45.5 -29.5q101 0 194 14q82 11 135 32t53 42q0 17 -99 17q-56 -1 -108 -17t-90 -35zM593 748
q-36 0 -54 14.5t-18 36.5q0 11 4 22q5 15 16 15q10 0 11 -12q5 -33 58 -33q28 0 51 10t38 29q6 8 14 8q5 0 8 -4t1 -10q-10 -30 -47.5 -53t-81.5 -23z" />
    <glyph glyph-name="ebreve" unicode="&#x115;" horiz-adv-x="365" 
d="M71 -149q-42 0 -64.5 33.5t-22.5 92.5q0 20 3 42q7 56 34 115t73 118q33 43 74 66.5t80 23.5q28 0 49 -11q26 -15 26 -51q0 -26 -18 -57.5t-62 -60.5q-56 -35 -94.5 -47.5t-61.5 -14.5q-7 -11 -14.5 -33.5t-13 -47t-7.5 -43.5q0 -4 -0.5 -8.5t-0.5 -9.5q0 -68 43 -68
q23 0 52.5 17t58 41t51 46.5t31.5 33.5l74 86l20 23l10 12t10 11q4 5 9 5q11 0 11 -12q0 -6 -6 -14q-10 -14 -22.5 -29t-23.5 -28l-34 -41q-20 -24 -43 -51.5t-45 -48.5q-93 -90 -176 -90zM103 128q20 5 47.5 21t53 34t39.5 30q21 17 32 38t11 36q0 21 -17 21q-8 0 -17 -4
q-24 -11 -52 -42t-53.5 -68t-43.5 -66zM255 390q-28 0 -45 14.5t-17 36.5q0 11 4 22q5 15 16 15q10 0 11 -12q2 -16 15.5 -24.5t32.5 -8.5q20 0 42 10t37 29q6 8 14 8q5 0 8 -4t1 -10q-7 -20 -26 -37.5t-44 -28t-49 -10.5z" />
    <glyph glyph-name="Edotaccent" unicode="&#x116;" horiz-adv-x="696" 
d="M161 -99q-16 0 -32 1t-32 3q-54 8 -84 39.5t-30 76.5q0 19 4 35q9 33 38 67t70.5 66.5t89 59t95.5 44.5q-48 5 -76 30t-28 65q0 62 39 120q-57 8 -103.5 21t-71.5 28q-14 11 -14 18q0 6 9 6q8 0 19 -4q32 -16 79 -26t105 -15q35 38 84 68t104 51t108.5 32t96.5 11
q25 0 56 -7.5t54 -24t23 -44.5q0 -49 -62.5 -80.5t-175.5 -43.5q-25 -2 -52 -3.5t-53 -1.5q-33 0 -66.5 2t-65.5 5q-28 -27 -48 -57t-20 -60q0 -28 30.5 -49t75.5 -21q14 0 30 3t30 6q23 5 33 5q13 2 24 -12.5t11 -28.5q0 -15 -16 -15q-14 -1 -30.5 -4.5t-35.5 -9.5
q-72 -21 -147 -68q-19 -12 -36 -24t-33 -25q-69 -56 -98 -112q-8 -16 -8 -26q0 -37 95 -37q34 0 79 8t93 22.5t91 32.5q24 11 57 32t64.5 46.5t52 52.5t20.5 51q0 14 -20 14q-17 0 -43.5 -9t-56.5 -24t-57.5 -33.5t-47.5 -37.5q-10 -9 -20 -9q-11 0 -11 12t15 26
q12 11 36 29.5t54.5 38t60.5 33t54 13.5q79 0 79 -71q0 -33 -19 -65.5t-49.5 -61.5t-64.5 -52.5t-63 -37.5q-58 -31 -133.5 -52.5t-155.5 -21.5zM417 586q-17 -10 -39.5 -23.5t-45.5 -29.5q101 0 194 14q82 11 135 32t53 42q0 17 -99 17q-56 -1 -108 -17t-90 -35zM599 750
q-20 0 -30 19q-3 5 -3 10q0 13 14.5 24t24.5 15q3 2 7.5 3t8.5 1q18 0 18 -12q0 -4 -3 -10t-6 -16t-8.5 -22t-22.5 -12z" />
    <glyph glyph-name="edotaccent" unicode="&#x117;" horiz-adv-x="365" 
d="M71 -149q-42 0 -64.5 33.5t-22.5 92.5q0 20 3 42q7 56 34 115t73 118q33 43 74 66.5t80 23.5q28 0 49 -11q26 -15 26 -51q0 -26 -18 -57.5t-62 -60.5q-56 -35 -94.5 -47.5t-61.5 -14.5q-7 -11 -14.5 -33.5t-13 -47t-7.5 -43.5q0 -4 -0.5 -8.5t-0.5 -9.5q0 -68 43 -68
q23 0 52.5 17t58 41t51 46.5t31.5 33.5l74 86l20 23l10 12t10 11q4 5 9 5q11 0 11 -12q0 -6 -6 -14q-10 -14 -22.5 -29t-23.5 -28l-34 -41q-20 -24 -43 -51.5t-45 -48.5q-93 -90 -176 -90zM103 128q20 5 47.5 21t53 34t39.5 30q21 17 32 38t11 36q0 21 -17 21q-8 0 -17 -4
q-24 -11 -52 -42t-53.5 -68t-43.5 -66zM261 392q-20 0 -30 19q-3 5 -3 10q0 13 14.5 24t24.5 15q3 2 7.5 3t8.5 1q18 0 18 -12q0 -4 -3 -10t-6 -16t-8.5 -22t-22.5 -12z" />
    </font>
</defs>
</svg>
