<?xml version="1.0" standalone="no"?>
<!DOCTYPE svg PUBLIC "-//W3C//DTD SVG 1.1//EN" "http://www.w3.org/Graphics/SVG/1.1/DTD/svg11.dtd" >
<svg xmlns="http://www.w3.org/2000/svg" xmlns:xlink="http://www.w3.org/1999/xlink" version="1.1">
<metadata>
Created by FontForge 20170731 at Mon Feb  6 18:07:54 2012
 By Aleksey,,,
Copyright (c) 2012 Sabrina Mariela Lopez (typesenses@live.com.ar), with Reserved Font Name "Euphoria Script"
</metadata>
<defs>
<font id="EuphoriaScript-Regular" horiz-adv-x="1057" >
  <font-face 
    font-family="Euphoria Script"
    font-weight="400"
    font-stretch="normal"
    units-per-em="1250"
    panose-1="2 0 0 0 0 0 0 0 0 0"
    ascent="1000"
    descent="-250"
    x-height="484"
    cap-height="762"
    bbox="-367 -442 1483 1013"
    underline-thickness="62"
    underline-position="-187"
    unicode-range="U+0020-2122"
  />
<missing-glyph horiz-adv-x="187" 
 />
    <glyph glyph-name=".notdef" horiz-adv-x="187" 
 />
    <glyph glyph-name=".null" horiz-adv-x="0" 
 />
    <glyph glyph-name="nonmarkingreturn" horiz-adv-x="416" 
 />
    <glyph glyph-name="space" unicode=" " horiz-adv-x="267" 
 />
    <glyph glyph-name="exclam" unicode="!" horiz-adv-x="236" 
d="M96 109q24 0 24 -23q0 -20 -22 -76l-8 -18q-17 0 -26 29q-4 15 -4 29.5t4 29.5q8 29 32 29zM66 239q0 96 23 221t61.5 219.5t76.5 94.5q16 0 16 -16q-40 -90 -86.5 -288.5t-46.5 -276.5q0 -13 -14 -13q-30 0 -30 59z" />
    <glyph glyph-name="quotedbl" unicode="&#x22;" horiz-adv-x="293" 
d="M160 600q-19 -47 -28.5 -47t-9.5 19t1 36q4 41 15 79q5 26 28 26q12 0 17 -8q11 -18 -23 -105zM237.5 553q-9.5 0 -9.5 19t1 36q4 41 15 79q5 26 28 26q21 0 21 -21q0 -25 -23 -82t-32.5 -57z" />
    <glyph glyph-name="numbersign" unicode="#" horiz-adv-x="775" 
d="M392 238q-108 -4 -150 -4q-31 -175 -31 -254q0 -13 -14 -13q-23 0 -23 86.5t11 179.5q-102 -2 -108 -2q-30 0 -34 22q-1 15 12 17q5 -7 22 -7h112q8 61 27 143q-58 -2 -122 -2q-29 0 -33 20q1 15 12 18q4 -6 21 -6h130q26 97 57 157t55 60q16 0 16 -16q-35 -75 -67 -200
q98 0 146 1q26 96 57 155.5t55 59.5q16 0 16 -16q-36 -74 -68 -199q71 1 151 1q9 0 8 -11q-4 -12 -21 -13q-41 0 -144 -3q-11 -45 -31 -147q79 1 170 1q9 0 8 -11q-4 -12 -21 -13q-47 0 -162 -3q-32 -184 -32 -259q0 -13 -14 -13q-23 0 -23 89.5t12 181.5zM247 263
q48 2 148 2q12 75 29 145q-68 0 -146 -3q-7 -22 -31 -144z" />
    <glyph glyph-name="dollar" unicode="$" horiz-adv-x="479" 
d="M29 48q0 -62 80 -62q40 0 71 10q17 101 58 336q-8 7 -28.5 24t-29.5 26t-22 24q-23 28 -23 64q0 59 48 112t111 68q3 22 7.5 47.5t6 33.5t9.5 8q3 0 7 -2q16 -7 16 -26t-8 -57q20 -1 30 -13.5t10 -24.5l-1 -12q-10 7 -26.5 7t-20.5 -1q-31 -169 -49 -258q30 -26 47 -43.5
t33.5 -50.5t16.5 -68q0 -71 -44.5 -131.5t-123.5 -84.5q-14 -67 -17 -91q-2 -9 -7 -9q-3 0 -5 1q-11 5 -11 17t2 20q6 36 8 55q-40 -6 -65 -6q-98 0 -118 66q-5 16 -5 32q0 40 30 83q48 67 126 73l14 1q13 0 21 -8t11 -23q-71 0 -123 -59q-36 -41 -36 -78zM284 81.5
q26 47.5 26 110t-44 111.5l-56 -294q48 25 74 72.5zM223 546q-25 -35 -25 -77.5t49 -89.5q20 124 37 219q-36 -17 -61 -52z" />
    <glyph glyph-name="percent" unicode="%" horiz-adv-x="721" 
d="M160 -89q-11 0 -11 16t24.5 66t167 363.5t157.5 345.5q12 22 26.5 22t19.5 -12q9 -24 -20 -85q-13 -26 -94 -185q-193 -383 -254 -515q-8 -16 -16 -16zM240 635q-59 0 -97 -83t-38 -171t45 -88q48 0 81.5 71.5t33.5 147.5t-42 76q0 8 9.5 16.5t22.5 8.5q47 0 47 -84
t-38 -163q-48 -96 -117.5 -96t-86.5 83q-5 23 -5 48q0 61 30 131q41 95 105 117q16 6 29 6t17.5 -5t3.5 -15zM573 342q-59 0 -97 -83t-38 -171t44 -88q49 0 82.5 72t33.5 147.5t-43 75.5q0 9 10 17t23 8q47 0 47 -84t-44 -171t-113 -87.5t-85 82.5q-5 23 -5 47q0 62 30 132
q40 94 104 117q16 6 29 6t18 -5t4 -15z" />
    <glyph glyph-name="ampersand" unicode="&#x26;" horiz-adv-x="721" 
d="M292 627q-124 0 -124 -150q0 -39 10 -85q45 39 74.5 68.5t61.5 71.5q62 82 62 187q14 -3 23.5 -15.5t9.5 -34.5t-7 -49t-15 -47t-28.5 -47.5t-30.5 -40.5t-40 -42q-72 -68 -81 -74t-11 -8t-4 -3.5t-4 -3.5q42 -153 146 -272q49 57 68 136q12 46 12 79t-6 56
q-14 56 -54 56q6 21 34 21q39 0 52 -64q5 -23 5 -59.5t-14 -92.5q-23 -90 -79 -153q103 -106 204 -106q61 0 80 38q10 21 -1 27q-1 1 -3 1q0 6 6 13q9 11 24 11q23 0 23 -31t-40 -59q-41 -28 -104 -28q-114 0 -226 100q-72 -55 -154.5 -55t-136 38t-53.5 103t37 116t110 114
q-20 68 -20 121.5t15 95.5t54 67t98 25q14 0 18.5 -8t8.5 -17zM154 -1q79 0 141 46q-107 107 -163 258q-110 -101 -110 -193q0 -52 39 -81.5t93 -29.5z" />
    <glyph glyph-name="quotesingle" unicode="'" horiz-adv-x="265" 
d="M201 651.5q10 33.5 10 67.5t27 34t27 -36q0 -55 -38 -93q-19 -17 -31 -18q-20 0 -22 9v3q17 0 27 33.5z" />
    <glyph glyph-name="parenleft" unicode="(" horiz-adv-x="276" 
d="M281 775q10 0 10 -9t-6 -9q-57 -9 -111 -126.5t-79 -247.5t-25 -241q0 -170 55 -205q4 -3 5 -8q2 -8 -6 -8q-2 0 -6 2q-60 33 -84 129q-16 62 -16 117q0 151 53 327q34 113 91.5 192t118.5 87z" />
    <glyph glyph-name="parenright" unicode=")" horiz-adv-x="297" 
d="M5 -83q-9 0 -9 9t7 9q57 9 110.5 127.5t79 250t25.5 242.5q0 170 -56 206q-6 4 -4 9.5t5.5 5.5t6.5 -1q51 -28 75.5 -100t24.5 -158q0 -94 -22 -200t-57.5 -191.5t-85 -144t-100.5 -64.5z" />
    <glyph glyph-name="asterisk" unicode="*" horiz-adv-x="442" 
d="M210 681.5q33 -17.5 45 -37.5q2 8 2 30t-3 50.5t2 37.5q7 11 20.5 11t21 -8.5t9.5 -24.5t0 -34q-4 -41 -23 -66q26 9 77 41q12 6 22.5 6t16.5 -10t6 -17q0 -21 -35.5 -37t-57 -16t-34.5 4q10 -17 65 -67q13 -12 13 -22t-8.5 -19t-23 -9t-36.5 26q-36 44 -35 83
q-20 -18 -51 -79q-10 -19 -20.5 -19t-17.5 4q-14 10 -14 20t5.5 25.5t31 39.5t49.5 31q-18 8 -90 20q-27 4 -27 25v6q7 23 32 23t58 -17.5z" />
    <glyph glyph-name="plus" unicode="+" horiz-adv-x="626" 
d="M490 301q-57 0 -199 -5q-35 -177 -35 -248q0 -10 -10 -10q-13 0 -13 59q0 104 17 198q-134 -2 -158.5 -2t-28.5 20q1 15 12 18q4 -6 21 -6h159q19 93 46 154t47 61q12 0 12 -11q-33 -68 -58 -182q-2 -8 -6 -22h207q8 0 8 -8q0 -16 -21 -16z" />
    <glyph glyph-name="comma" unicode="," horiz-adv-x="204" 
d="M55 10.5q10 33.5 10 67.5t27 34t27 -36q0 -55 -38 -93q-18 -18 -31 -18q-20 0 -22 9v3q17 0 27 33.5z" />
    <glyph glyph-name="hyphen" unicode="-" horiz-adv-x="578" 
d="M446 301l-350 -8q-29 0 -33 20q1 15 12 18q4 -6 21 -6h362q10 0 9 -11q-4 -12 -21 -13z" />
    <glyph glyph-name="period" unicode="." horiz-adv-x="234" 
d="M78 -7q-21 0 -21 39q0 24 13 51t37 27q20 0 20 -23t-37 -77z" />
    <glyph glyph-name="slash" unicode="/" horiz-adv-x="433" 
d="M0 -89q-11 0 -11 16q0 17 24.5 67t170 369.5t156 340t28 20.5t17.5 -25q0 -29 -17 -63.5t-98 -193.5q-193 -383 -254 -515q-8 -16 -16 -16z" />
    <glyph glyph-name="zero" unicode="0" horiz-adv-x="491" 
d="M70 202q0 -174 88 -174t148.5 134t60.5 264q0 150 -72 150q3 14 15.5 24t30.5 10q79 0 79 -158q0 -94 -37 -207q-54 -162 -144 -220q-39 -26 -81 -26q-110 0 -145 116q-14 47 -14 111.5t27 153.5q46 151 136 226q57 48 120 48q9 0 14.5 -6.5t7.5 -19.5q-101 0 -170 -150
q-64 -138 -64 -276z" />
    <glyph glyph-name="one" unicode="1" horiz-adv-x="395" 
d="M348 654q16 0 16 -16q-54 -61 -101.5 -289.5t-47.5 -336.5q0 -13 -14 -13q-30 0 -30 80q0 177 34 331.5t87 213.5q-84 -30 -158.5 -119t-74.5 -170q0 -45 26 -45q-5 -23 -28.5 -23t-39.5 21t-16 56q0 66 61.5 140.5t143 122t142.5 47.5z" />
    <glyph glyph-name="two" unicode="2" horiz-adv-x="491" 
d="M-34 47q-6 0 -6 15t7 15q20 0 80 53t124.5 125t115 155t50.5 135q0 77 -84 77t-138 -78q-32 -47 -32 -80t20 -33v-5q0 -23 -19 -34q-8 -4 -18 -4q-39 0 -39 45q0 61 58 129q79 91 186 92q69 0 104.5 -33.5t35.5 -88t-41 -124.5t-102 -134q-130 -133 -240 -200
q27 -2 78 -8q112 -15 155 -15t63 5.5t30 13.5q22 17 29 35q17 0 14 -26q-4 -40 -42.5 -64t-98 -24t-160 28t-130.5 28z" />
    <glyph glyph-name="three" unicode="3" horiz-adv-x="468" 
d="M226 352q135 -38 135 -178q0 -87 -69 -166q-84 -95 -223 -95q-109 0 -145 56q-9 13 -9 25t9.5 23.5t28.5 19.5q0 -20 8 -40t35.5 -38.5t72.5 -18.5q103 0 167 88q48 66 48 139q0 111 -89 148q-34 14 -78 14q0 13 9 23t22 10q46 0 108 66t62 131q0 28 -18.5 45.5
t-55.5 17.5q-70 0 -110 -56q-20 -27 -20 -51t23 -24q0 -15 -12.5 -28.5t-29.5 -13.5q-42 0 -42 43t50 94q68 68 165 68t116 -70q4 -14 4 -30q0 -49 -45 -109.5t-117 -92.5z" />
    <glyph glyph-name="four" unicode="4" horiz-adv-x="547" 
d="M462 311q32 0 32 -39.5t-34 -72.5q-44 -43 -121 -48q-14 -95 -14 -155q0 -14 -14 -14q-31 0 -31 80q0 58 2 88q-46 1 -217 15q-25 -15 -49 -15q-56 0 -56 27q0 14 22 23q13 4 29 4h7q25 22 48 74q37 88 57 228q6 42 6 85.5t-16 43.5q3 19 22 19q30 0 39 -88
q4 -28 4 -75.5t-14 -124.5q-20 -112 -65 -169q118 -16 185 -19q10 146 44 254q18 55 45 87t60 32q16 0 16 -16q-31 -42 -59.5 -142.5t-46.5 -213.5q75 7 99 61q6 15 6 31t-14 18q7 22 28 22z" />
    <glyph glyph-name="five" unicode="5" horiz-adv-x="450" 
d="M192.5 621q30.5 -7 62 -7t55 6.5t35.5 15.5q24 20 31 42q12 0 12 -22q0 -53 -48 -86q-36 -24 -96 -24t-117 30q-3 -16 -8 -52q-11 -83 -23 -123q40 20 83 20q119 0 163 -97q20 -45 20 -95t-18 -105q-39 -116 -135 -173q-64 -38 -140 -38q-109 0 -145 56q-9 13 -9 25
t9.5 23.5t28.5 19.5q0 -20 8 -40t35.5 -38.5t72.5 -18.5q102 0 167 102q52 83 52 177q0 118 -72 156q-26 14 -53.5 14t-46 -9t-29.5 -20q-28 -30 -42.5 -30t-22 6t-10.5 19q27 0 44.5 45t23.5 98q18 144 45 144q2 0 19.5 -7t48 -14z" />
    <glyph glyph-name="six" unicode="6" horiz-adv-x="467" 
d="M81 201q0 49 21 104.5t68.5 100.5t108.5 45q85 0 110 -87q8 -30 8 -76.5t-29 -116.5q-45 -111 -130 -153q-38 -19 -80 -19q-107 0 -143 112q-16 48 -16 113.5t27 154.5q50 164 157 257q88 77 191 77q9 0 14.5 -6.5t7.5 -19.5q-130 0 -225 -153q-79 -127 -96 -286
q-4 -34 -4 -63q0 -93 37 -134q20 -23 50 -23q77 0 131 100q44 85 44 175q0 104 -55 117q-7 2 -15 2q-60 0 -107 -74.5t-47 -147.5q0 -5 -7 -7t-14 0.5t-7 7.5z" />
    <glyph glyph-name="seven" unicode="7" horiz-adv-x="381" 
d="M383 654q16 0 16 -16q-49 -43 -124 -152t-138 -246.5t-63 -225.5q0 -13 -14 -13q-31 0 -31 50q0 30 11 77q33 145 115.5 291.5t150.5 200.5q-27 -4 -108.5 -25t-112.5 -21t-38.5 15t-3.5 31l4 15q18 -16 50.5 -16t137.5 17.5t148 17.5z" />
    <glyph glyph-name="eight" unicode="8" horiz-adv-x="465" 
d="M409 674q0 -80 -46.5 -144t-131.5 -138q9 -11 34.5 -40t38 -45t28.5 -42q32 -50 32 -103q0 -89 -63 -139.5t-143 -50.5t-133.5 38t-53.5 107q0 82 80 162q37 37 105 95q-47 64 -47 128t43.5 107t112.5 43q20 0 31.5 -7t13.5 -15l2 -7q-11 4 -39 4q-52 0 -78.5 -30
t-26.5 -75.5t41 -101.5q79 72 123 141t44 158q14 -3 23.5 -15.5t9.5 -29.5zM302 137q0 30 -14 62t-25 47.5t-44.5 53.5t-40.5 46q-76 -66 -116 -120t-40 -111t39 -86.5t96 -29.5t101 37t44 101z" />
    <glyph glyph-name="nine" unicode="9" horiz-adv-x="477" 
d="M61 362q0 -132 77 -132q60 0 102.5 72t42.5 142v8t7 6q22 6 22 -13q0 -47 -18.5 -101t-64.5 -99t-107 -45q-86 0 -112 88q-10 34 -10 81t24 112q42 111 125 152q38 19 79 19q115 0 156 -118q18 -54 18 -122.5t-23 -153.5q-46 -167 -150 -263q-88 -82 -192 -82
q-64 0 -99.5 27t-36.5 52q0 14 9 25.5t27 19.5q1 -34 24 -65.5t75 -31.5q107 0 194 144q78 129 98 291q5 41 5 76q0 99 -41 144q-26 29 -64 29q-78 0 -126 -98q-41 -82 -41 -164z" />
    <glyph glyph-name="colon" unicode=":" horiz-adv-x="250" 
d="M78 -7q-21 0 -21 39q0 24 13 51t37 27q20 0 20 -23t-37 -77zM102 258q-21 0 -21 40q0 24 13 51t37 27q20 0 20 -24q0 -11 -12 -34.5t-25 -41.5z" />
    <glyph glyph-name="semicolon" unicode=";" horiz-adv-x="240" 
d="M108 258q-21 0 -21 40q0 24 12.5 51t36.5 27q21 0 21 -24q0 -20 -37 -76zM55 10.5q10 33.5 10 67.5t27 34t27 -36q0 -55 -38 -93q-18 -18 -31 -18q-20 0 -22 9v3q17 0 27 33.5z" />
    <glyph glyph-name="less" unicode="&#x3c;" horiz-adv-x="533" 
d="M382 435q0 -43 -81.5 -105.5t-160.5 -70.5q67 -30 123.5 -96.5t56.5 -112.5q0 -15 -7 -26.5t-22 -19.5q0 73 -88 154t-194 81q3 13 21.5 25t40.5 12q105 0 193.5 72t88.5 134q3 -1 8 -3t13 -14t8 -30z" />
    <glyph glyph-name="equal" unicode="=" horiz-adv-x="654" 
d="M490 376l-394 -8q-29 0 -33 20q1 15 12 18q4 -6 21 -6h407q8 0 8 -8q0 -16 -21 -16zM490 226l-394 -8q-29 0 -33 20q1 15 12 18q4 -6 21 -6h407q8 0 8 -8q0 -16 -21 -16z" />
    <glyph glyph-name="greater" unicode="&#x3e;" horiz-adv-x="463" 
d="M27 52q0 43 81 105.5t161 70.5q-67 30 -123.5 96.5t-56.5 112.5q0 15 7 26t21 19q0 -73 88 -153.5t195 -80.5q-3 -12 -22 -24.5t-41 -12.5q-70 0 -137.5 -36t-106 -84t-38.5 -87q-10 3 -19 16.5t-9 31.5z" />
    <glyph glyph-name="question" unicode="?" horiz-adv-x="492" 
d="M193 666q-31 -46 -31 -79.5t20 -33.5q0 -16 -10.5 -29.5t-27.5 -13.5q-39 0 -39 45q0 61 58 129q79 91 187 92q68 0 104 -34t36 -88t-33.5 -110.5t-81 -103.5t-95.5 -90q-114 -105 -114 -160q0 -11 -17 -11.5t-17 11.5q0 56 100 172q42 47 83.5 97t71 105.5t29.5 102.5
q0 77 -84.5 77t-138.5 -78zM142 109q24 0 24 -23q0 -20 -22 -76l-8 -18q-17 0 -26 29q-4 15 -4 29.5t4 29.5q8 29 32 29z" />
    <glyph glyph-name="at" unicode="@" horiz-adv-x="837" 
d="M523 243q0 -88 47 -88q56 0 97.5 77.5t41.5 163.5q0 158 -113 211q-45 22 -106 22q-163 0 -265 -133q-89 -116 -89 -268q0 -126 70 -199q58 -60 152 -60q42 0 76 10.5t52 24.5q38 31 47 56l4 10l18 -1q-3 -16 -19 -41t-36.5 -41.5t-60.5 -30t-90 -13.5q-162 0 -231 121
q-38 67 -38 150q0 47 12 99q34 147 146 243.5t270.5 96.5t214.5 -125q23 -54 23 -109.5t-16 -111.5q-30 -107 -97 -152q-32 -22 -65 -22q-54 0 -76 45q-16 35 -16 84q0 13 1 28h-8q-90 -156 -139 -156q-60 0 -60 95q0 70 40 149q50 99 123 115l23 3q19 0 32 -10t17 -20
l4 -10q3 -15 -13 -15q-14 0 -18 10q-8 20 -27 20q-44 0 -81 -79q-44 -92 -44 -176q0 -42 12 -50q19 0 74 82q13 21 22 36t24 39.5t24 38.5t19.5 32t16.5 28t13 20q13 20 29 20q14 0 14 -18q-20 -36 -35.5 -94.5t-15.5 -106.5z" />
    <glyph glyph-name="A" unicode="A" 
d="M369 -14q-49 47 -49 141q0 105 69 217q38 62 103 102t142 40q34 0 73 -12q76 125 124 181t83 85q79 64 160 64q16 0 16 -16q-66 -145 -101.5 -292.5t-55 -287t-19.5 -236.5q0 -14 -14 -14q-35 0 -35 80q0 101 -19 183q-35 156 -122 206q-11 -21 -41.5 -80t-45 -86.5
t-43 -77t-48.5 -79.5q-48 -72 -104 -126q10 -3 24 -3q84 0 139 55.5t76 131.5q3 11 16 10q8 -1 6 -8q-22 -86 -83.5 -150.5t-154.5 -64.5q-21 0 -47 7q-92 -74 -196 -74q-135 0 -192 106q-31 57 -31 123q0 35 9 73q24 103 98 147q37 22 81 22q14 0 23 -8.5t13 -26.5
q-59 0 -106 -42q-79 -69 -79 -196q0 -77 46.5 -120.5t125 -43.5t159.5 70zM633 450q-84 0 -151 -55t-98 -128.5t-31 -148.5t38 -114q38 36 81 94.5t68 98.5t78 130t69 116q-24 7 -54 7zM1022 765q-80 -21 -146 -99t-135 -207q97 -53 136 -212q18 170 58.5 312.5t86.5 205.5z
" />
    <glyph glyph-name="B" unicode="B" horiz-adv-x="762" 
d="M562 461q119 -38 119 -195q0 -131 -111.5 -256.5t-306.5 -125.5q-153 0 -199 89q-16 30 -16 61.5t16 64.5q30 64 87 64q5 0 7 -5.5t-0.5 -11.5t-7.5 -6q-34 0 -57 -44q-16 -29 -16 -55t12 -50q35 -68 156 -68q152 0 264 128q87 98 107 215q5 28 5 52q0 69 -41 103
q-22 18 -54 21q-54 -23 -116 -23q-7 0 -7 13.5t7 13.5q101 0 177 95q56 71 60 139q-2 60 -47 63q-49 0 -105 -70t-101 -170t-82.5 -204.5t-58.5 -179t-21 -87.5t-14 -13q-30 0 -30 80q0 193 43.5 375t96.5 243q-143 -20 -232 -101q-51 -45 -51 -98q0 -26 20 -26
q-4 -14 -22 -14t-31.5 14t-13.5 39q0 59 71.5 109.5t154.5 75t141 24.5q16 0 16 -16q-65 -151 -118 -441h8q58 181 137 324q42 77 93 121.5t104 44.5q84 0 100 -68q3 -14 3 -30q0 -54 -41.5 -115.5t-104.5 -98.5z" />
    <glyph glyph-name="C" unicode="C" horiz-adv-x="605" 
d="M579 514q0 -4 -8.5 -5t-17 3t-8.5 11q0 102 23 164.5t60 62.5q10 0 17 -7t7 -19q-46 -46 -65 -134q-8 -36 -8 -76zM519 726q-138 0 -247 -161q-94 -139 -123 -324q-10 -61 -10 -112q0 -98 36 -157.5t101 -59.5q88 0 150 101q42 68 42 120q0 23 -12 23q6 23 30 23
q28 0 28 -40q0 -75 -66 -160q-79 -101 -185 -101q-133 0 -180 133q-23 62 -23 140.5t26 175.5q50 192 168.5 319t262.5 128q20 0 29 -13t8 -25v-13q-8 3 -35 3z" />
    <glyph glyph-name="D" unicode="D" horiz-adv-x="750" 
d="M44 478q-37 0 -37 52t54 116q90 108 250 125l55 3q182 0 264 -145q49 -89 49 -205q0 -48 -8 -101q-29 -178 -138 -302q-120 -137 -279.5 -137t-202.5 89q-13 28 -13 59.5t17 66.5q33 64 90 64q5 0 6.5 -5.5t-1 -11.5t-7.5 -6q-34 0 -59 -44q-16 -31 -16 -57t10 -48
q32 -68 153 -68q137 0 248 140q100 126 129 296q10 55 10 104q0 109 -49 184q-65 101 -204 101q-174 0 -261 -117q-44 -60 -44 -112q0 -21 9 -21q-6 -20 -25 -20zM188 99q0 152 27 295.5t66.5 227t76.5 83.5q16 0 16 -16q-45 -93 -79 -248q-63 -283 -63 -409q0 -13 -14 -13
q-30 0 -30 80z" />
    <glyph glyph-name="E" unicode="E" horiz-adv-x="632" 
d="M477 302q49 0 64 -65q6 -24 6 -50q0 -61 -31 -134q-54 -126 -163 -177q-60 -28 -129 -28q-148 0 -202 108q-25 50 -25 107t21 119q46 136 164 222q73 52 161 72q-80 29 -80 100t71 134.5t179 63.5q18 0 27 -14t8 -28v-13q-8 4 -34 4q-91 0 -153 -64q-44 -45 -44 -89
q0 -83 125 -83q11 0 18.5 -6.5t12.5 -19.5q-173 0 -290 -133q-110 -124 -110 -276q0 -86 50 -133q39 -38 102 -38q142 0 218 120q50 78 50 164q0 94 -47 111q-8 3 -17 3q13 23 48 23zM583 548q0 -5 -9 -5t-17.5 4t-8.5 11q0 102 23 164.5t61 62.5q10 0 17 -7.5t7 -18.5
q-46 -46 -65 -134q-8 -37 -8 -77z" />
    <glyph glyph-name="F" unicode="F" horiz-adv-x="680" 
d="M175 512q0 -74 42 -79q-3 -14 -23 -14q-41 0 -58 50q-8 23 -8 56.5t26 80.5q59 109 214 140q53 10 113.5 10t103.5 12t59 27q42 39 62 39t20 -12v-6q-7 -28 -60 -53q-32 -14 -72 -22q-33 -14 -55 -76.5t-46 -180.5q52 5 86 5q9 0 8 -11q-4 -12 -21 -12.5t-79 -10.5
q-47 -232 -82 -328q-88 -243 -251 -243q-117 0 -146 107q-11 37 -11 74q0 70 37 140q56 107 147 107q13 0 21.5 -6t11.5 -18q-86 0 -142 -89q-44 -69 -44 -143q0 -108 76 -132q18 -5 47 -5t61.5 16.5t59 60t43.5 73t39 105.5q26 93 44 172.5t22 95.5q-56 -9 -84.5 -9
t-32.5 25q-1 20 11 23q5 -6 31.5 -6t83.5 5q25 98 48 159.5t54 93.5q-16 -1 -50 -1q-192 0 -269 -113q-37 -53 -37 -107zM615 307q0 -5 -9 -5t-17.5 4t-8.5 11q0 102 23 164.5t61 62.5q10 0 17 -7t7 -19q-45 -45 -65 -134q-8 -37 -8 -77z" />
    <glyph glyph-name="G" unicode="G" horiz-adv-x="755" 
d="M234 444q-55 13 -88 46q-36 38 -36 89q0 83 55 127q32 25 72 25q9 0 14 -5.5t6 -16.5q-41 0 -71 -32q-38 -41 -38 -92q0 -31 21 -66.5t75 -48.5q52 130 131.5 217t164.5 87q73 0 85 -60q3 -12 3 -24q0 -52 -46 -114q-70 -96 -193 -127q-37 -9 -77 -11q-44 -136 -44 -256
t55 -120q38 0 87 53t92 131q84 154 117 242q15 37 29.5 55t35.5 18t21 -23q-36 -85 -70 -285q-35 -188 -53 -243t-37 -101.5t-40 -77t-50.5 -63t-62.5 -51.5q-76 -43 -170 -43q-156 0 -215 104q-28 47 -28 89.5t10 76.5q24 78 85 105q23 9 41 9q32 0 37 -20l1 -6
q-62 0 -97 -68q-23 -44 -23 -81q0 -145 123 -178q30 -8 65 -8q69 0 123.5 36t86.5 78t61 130t39.5 135t21 102t11.5 59t2 9.5t2.5 16t7.5 33.5h-10q-60 -114 -127 -191t-125 -77t-89 37q-39 47 -39 148t48 231zM540 745q-63 0 -120.5 -79.5t-98.5 -200.5q128 9 211 103
q58 65 58 125q-6 49 -50 52z" />
    <glyph glyph-name="H" unicode="H" horiz-adv-x="902" 
d="M506 725.5q61 15.5 86 15.5q33 0 34 -12l1 -4q-21 0 -36 -16.5t-29 -65.5q-16 -61 -28 -129.5t-13.5 -75.5t-3 -17.5t-3.5 -19.5q176 15 234 18q32 166 80 275.5t91 109.5q16 0 16 -16q-66 -145 -101.5 -292.5t-55 -287t-19.5 -236.5q0 -14 -14 -14q-35 0 -35 80
q0 169 32 356q-97 -11 -151.5 -18.5t-82.5 -10.5q-43 -236 -96 -327q-25 -43 -57 -80q-65 -74 -171 -74q-78 0 -125.5 44t-54.5 107q-2 21 -2 52.5t11.5 84t55 96.5t99.5 44q15 0 24 -9t12 -27q-91 0 -142 -89q-34 -58 -34 -116q0 -31 10 -63q28 -89 131 -89q100 0 159 105
q37 67 57 134q28 96 49 198q-32 -4 -57 -4t-29 25q-4 19 8 23q1 1 3 1q4 -7 23.5 -7t60.5 3q19 91 30 137.5t33 102t47 79.5q-92 -17 -172 -64q-41 -24 -67 -59t-26 -73q0 -26 20 -26q-4 -14 -22 -14t-31.5 14t-13.5 39q0 44 42 85t102 66.5t121 41z" />
    <glyph glyph-name="I" unicode="I" horiz-adv-x="587" 
d="M589 762q16 0 19 -12l1 -4q-29 0 -49.5 -37t-30.5 -97.5t-22 -138t-22.5 -158.5t-33.5 -158.5t-53.5 -138t-84.5 -97.5t-128 -37t-121.5 44t-54.5 107q-2 21 -2 52.5t11.5 84t55 96.5t99.5 44q15 0 23.5 -9t11.5 -27q-90 0 -142 -89q-33 -58 -33 -116q0 -31 10 -63
q28 -89 131 -89q56 0 98.5 36.5t68.5 98t45 137t33 157.5t27 155q33 174 81 228q-78 -27 -141.5 -85.5t-63.5 -127.5q0 -31 21 -31q-2 -14 -20.5 -14t-33 15t-14.5 43q0 59 58.5 114.5t131 86t124.5 30.5z" />
    <glyph glyph-name="J" unicode="J" horiz-adv-x="732" 
d="M226 -205q75 0 131 44.5t89 117.5t57 163t40.5 186.5t32.5 181.5q36 197 97 251q-141 -22 -215 -138q-46 -71 -46 -139q0 -83 51 -90q4 -1 8 -1q0 -7 -6 -13q-11 -11 -30 -11q-59 0 -75 63q-6 21 -6 44q0 55 33 118q60 115 187 163q72 27 157 27q11 0 17 -5t7 -15
q-55 0 -83 -122q-12 -57 -23 -129.5t-24 -153t-30 -161t-47.5 -153t-71 -129t-104.5 -89.5t-132 -33t-111 17t-69 46q-57 65 -57 150q0 93 36 156q73 129 191 129q21 0 33.5 -11t14.5 -21l2 -11q-18 2 -25 2q-108 0 -167 -109q-37 -67 -37 -134q0 -41 13 -82
q37 -109 162 -109z" />
    <glyph glyph-name="K" unicode="K" horiz-adv-x="660" 
d="M723 -177q27 0 40 19q6 0 6 -5t-5 -15q-22 -30 -54 -33q-50 0 -101.5 53.5t-92 129.5t-75.5 152.5t-63 130t-44 53.5q-7 7 10 30q271 435 378 435q14 0 22 -12.5t10 -36.5q-43 0 -104 -58q-32 -32 -56.5 -58.5t-65.5 -79.5q-52 -67 -130 -172q40 -27 150 -285
q40 -94 89 -171t86 -77zM367 740q16 0 16 -16q-78 -180 -129 -503q-20 -131 -20 -189q0 -13 -14 -13q-30 0 -30 80q0 193 43.5 375t96.5 243q-143 -20 -232 -101q-51 -45 -51 -98q0 -26 20 -26q-4 -14 -22 -14t-31.5 14t-13.5 39q0 59 71.5 109.5t154.5 75t141 24.5z" />
    <glyph glyph-name="L" unicode="L" horiz-adv-x="584" 
d="M537 728q-45 0 -74.5 -60.5t-48 -157t-38 -199.5t-58.5 -204.5t-95 -156.5q35 -14 104 -42.5t110 -44.5q113 -44 169 -44q55 0 84 35q7 9 11 20q16 0 16 -24q0 -41 -37.5 -65.5t-84.5 -24.5t-106 18.5t-95 34.5t-113.5 56.5t-96.5 49.5q-55 -36 -133.5 -36t-102.5 44
q-7 12 -7 26.5t19 32t67 17.5t151 -37q80 90 128 368q18 108 40 209.5t63.5 166t105.5 64.5q28 0 42.5 -14t14.5 -28l1 -14q-10 10 -36 10zM597 514q0 -4 -8.5 -5t-17.5 3t-9 11q0 102 23 164.5t61 62.5q10 0 17 -7t7 -19q-46 -46 -65 -134q-8 -36 -8 -76zM-31 -52
q0 -18 25.5 -28.5t67.5 -10.5t84 29q-88 40 -138 40q-31 0 -38 -22q-1 -4 -1 -8z" />
    <glyph glyph-name="M" unicode="M" horiz-adv-x="968" 
d="M790 23q0 -136 62 -136q40 0 67 59q6 10 18 6q5 -2 2.5 -8.5t-7.5 -16t-18 -29.5q-30 -44 -69 -44q-121 0 -121 192q0 216 153 675q4 12 -4.5 12t-18.5 -9q-53 -50 -108.5 -134t-97.5 -170q-74 -149 -109 -248q-47 -139 -83 -139q-21 0 -21 21q0 1 1 2q125 453 125 569
q0 52 -23 52q-46 0 -145 -171.5t-149 -343.5q-60 -207 -106 -207q-21 0 -21 22q1 3 6 17t13 41.5t25.5 87t29.5 115.5q40 186 40 268q0 44 -6 87.5t-30 70.5t-63 27q-61 0 -86 -51q-8 -18 -8 -30.5t7 -12.5q-3 -14 -24 -14t-21 27q0 41 41.5 73t94.5 32t84.5 -26.5
t45.5 -70.5q23 -73 23 -158q0 -32 -4 -66h10q159 322 267 322q62 0 62 -106q0 -51 -23 -179h9q183 345 300 345q45 0 45 -50q-31 -77 -69 -210q-96 -329 -96 -493z" />
    <glyph glyph-name="N" unicode="N" horiz-adv-x="693" 
d="M528 26q0 -139 62 -139q38 0 68 59q5 10 17 6q6 -2 3 -8.5t-8 -16t-17.5 -29t-31 -32t-38.5 -12.5q-121 0 -121 191q0 197 129 613l16 51q2 8 -4.5 8t-12.5 -5q-56 -49 -119.5 -144.5t-116.5 -201.5q-98 -194 -142 -302.5t-73 -108.5q-21 0 -21 22v2q12 27 46 149
q60 213 68 380q1 12 1 22q0 65 -23 113t-81 48t-83 -53q-8 -17 -8 -29t7 -12q-2 -14 -23 -14t-21 27q0 41 41.5 73t102.5 32q145 0 145 -264q0 -57 -10 -116h9q232 441 359 441q45 0 45 -50q-31 -77 -69 -210q-96 -328 -96 -490z" />
    <glyph glyph-name="O" unicode="O" horiz-adv-x="684" 
d="M564 468q0 183 -83 183q0 7 7 13q13 11 32 11q67 0 88 -104q9 -42 9 -89q0 -89 -31 -198q-52 -187 -157 -279q-72 -63 -155 -63q-135 0 -183 137q-23 64 -23 142t22 169q45 181 147 290q88 94 189 94q28 0 43 -12.5t15 -25.5l1 -12q-10 4 -37 4q-108 0 -191.5 -138
t-102.5 -311q-5 -44 -5 -81q0 -114 45 -175q36 -47 94 -47q121 0 198.5 165.5t77.5 326.5z" />
    <glyph glyph-name="P" unicode="P" horiz-adv-x="651" 
d="M648 682q0 61 -48 61q-64 0 -134.5 -107.5t-119.5 -242t-81.5 -241.5t-32.5 -120t-14 -13q-30 0 -30 80q0 193 43.5 375t96.5 243q-143 -20 -232 -101q-51 -45 -51 -98q0 -26 20 -26q-4 -14 -22 -14t-31.5 14t-13.5 39q0 59 71.5 109.5t154.5 75t141 24.5q16 0 16 -16
q-63 -146 -118 -442h8q59 184 137 325q42 77 93 121.5t104 44.5q108 0 108 -116q0 -70 -49 -156q-62 -110 -156 -156q-50 -25 -100 -25q-12 0 -18.5 7t-8.5 20q94 0 178 112q69 91 85 186q4 20 4 37z" />
    <glyph glyph-name="Q" unicode="Q" horiz-adv-x="682" 
d="M643 -181q73 0 98 55q15 0 15 -21q0 -42 -45 -71q-34 -22 -76 -22t-77 7t-85 29t-69.5 31t-85.5 44.5t-71 37.5q-70 -26 -152.5 -26t-104.5 44q-6 11 -6 25.5t20.5 32.5t59.5 18q73 0 207 -55q146 70 224.5 237.5t78.5 301.5q0 164 -79 164q0 7 7 13q13 11 32 11
q93 0 93 -170q0 -138 -84.5 -314t-237.5 -257q136 -58 179 -74q106 -41 159 -41zM393 194q19 45 19 75.5t22 40t27 -5.5l1 -7q0 -41 -27.5 -100t-81.5 -108.5t-113 -49.5q-115 0 -148 120q-13 44 -13 111.5t33 169.5q55 167 159 261q83 73 172 73q28 0 42.5 -12.5
t14.5 -25.5v-12q-9 4 -36 4q-109 0 -199 -142q-80 -126 -101 -282q-5 -41 -5 -76q0 -90 38 -131q23 -24 62 -24t77 38t57 83zM53 -22q-31 0 -39 -22q-2 -5 -2 -9q0 -17 24.5 -27.5t72.5 -10.5t104 17q-106 52 -160 52z" />
    <glyph glyph-name="R" unicode="R" horiz-adv-x="732" 
d="M649 682q0 61 -49 61q-52 0 -109.5 -71.5t-101.5 -173t-80.5 -207t-56.5 -178t-20 -81.5q0 -13 -14 -13q-30 0 -30 80q0 193 43.5 375t96.5 243q-143 -20 -232 -101q-51 -45 -51 -98q0 -26 20 -26q-4 -14 -22 -14t-31.5 14t-13.5 39q0 59 71.5 109.5t154.5 75t141 24.5
q16 0 16 -16q-70 -162 -119 -452h7q44 145 91 241.5t82 146t77.5 81.5t85.5 32q88 0 105 -76q4 -17 4 -36q0 -61 -42 -133q-60 -103 -161 -144l-38 -12q29 -3 61.5 -78.5t57.5 -165t60 -163.5t69 -74q27 0 40 19q7 0 7 -5t-6 -14q-22 -30 -54 -33q-52 0 -100.5 71
t-78.5 157.5t-63.5 172.5t-56.5 106q-11 0 -17.5 6.5t-7.5 20.5q106 0 190 106q75 95 75 184z" />
    <glyph glyph-name="S" unicode="S" horiz-adv-x="603" 
d="M49 -41q0 -74 78 -89q15 -3 34 -3q125 0 198 80.5t73 202.5q0 48 -17.5 88.5t-43.5 67t-56.5 53.5t-56.5 49t-43.5 53t-17.5 66q0 92 82.5 169.5t177.5 77.5q19 0 28 -14t9 -28l-1 -13q-7 4 -35 4q-64 0 -124 -60t-60 -139q0 -32 17.5 -62.5t43.5 -53.5t56 -51.5t56 -56
t43.5 -67t17.5 -83.5q0 -121 -100 -215t-247 -94q-124 0 -157 80q-26 66 20 146t133 108q32 10 57 10t34.5 -8.5t12.5 -26.5q-94 0 -161 -76q-51 -57 -51 -115zM513 512q0 -5 -9.5 -5t-17.5 4t-8 11q0 102 23 164t61 62q10 0 17 -7t7 -18q-45 -45 -65 -135q-8 -36 -8 -76z
" />
    <glyph glyph-name="T" unicode="T" horiz-adv-x="591" 
d="M167 511q0 -71 42 -78q-3 -14 -23 -14q-41 0 -58 49q-8 23 -8 56t26 80q60 109 220 141q57 11 125 11t123.5 16t82 36t50 36t39 16t15.5 -14q0 -33 -65 -67t-169 -44q-43 -23 -67 -163q-27 -161 -45 -263t-42.5 -174.5t-55.5 -128t-81.5 -89t-118 -33.5t-109.5 44
q-46 48 -46 130q0 137 73 210q44 44 98 44q13 0 21.5 -6t11.5 -18q-85 0 -138 -88q-39 -65 -39 -135q0 -115 79 -140q18 -6 39 -6q62 0 108.5 51t71 129t47 175.5t37.5 185.5t40.5 164.5t58.5 107.5h-20q-205 0 -286 -115q-37 -52 -37 -106z" />
    <glyph glyph-name="U" unicode="U" horiz-adv-x="767" 
d="M611 36q0 -149 53 -149q28 0 57 59q5 10 13 7.5t8 -6t-10 -25.5t-31.5 -45t-43.5 -23q-104 0 -104 207q0 108 19 229h-10q-153 -290 -236 -290q-101 0 -101 120q0 48 29.5 145.5t59.5 201.5t30 161q0 120 -98 120q-91 0 -136 -104q-30 -70 -30 -140q0 -34 7 -68
q22 -104 93 -104q-7 -14 -19 -14q-90 0 -117 114q-9 36 -9 72q0 77 39 155q58 114 171 114q87 0 126.5 -48.5t39.5 -126t-56 -263t-56 -243t39 -57.5q32 0 96 98q105 163 184 353q31 75 65 75q22 0 22 -23q-43 -102 -68.5 -246.5t-25.5 -255.5z" />
    <glyph glyph-name="V" unicode="V" horiz-adv-x="628" 
d="M43 640q-7 -17 -7 -30t8 -13q-2 -14 -22 -14q-24 0 -24 35t39 66q40 31 102.5 31t104 -46.5t57 -113.5t15.5 -154q0 -181 -65 -419q-4 -12 8 -12q9 0 18 8q105 96 199 328t94 372q0 62 -27 62q3 14 15 23.5t28 9.5q44 0 44 -75q0 -108 -67 -291.5t-166 -331.5t-175 -148
q-52 0 -52 50q28 83 52 227.5t24 246.5q0 240 -120 240q-61 0 -83 -51z" />
    <glyph glyph-name="W" unicode="W" horiz-adv-x="932" 
d="M556 169q0 -134 60 -134q46 0 93.5 81t78.5 197.5t33 220.5q-49 40 -89 104t-40 82.5t17 37t36 18.5q42 0 73.5 -62t34.5 -150q37 -32 64 -32t35 17q12 0 12 -15q0 -28 -31 -37l-18 -2q-31 0 -62 18q-6 -114 -39 -232t-87 -199.5t-111 -81.5q-80 0 -111 78
q-25 63 -25 151q0 23 2 47q-191 -349 -305 -349q-49 0 -49 45v5q119 322 119 543q0 171 -98 171q-62 0 -87 -53q-8 -17 -8 -29t7 -12q-2 -14 -23 -14t-21 27q0 41 41.5 73t102.5 32q151 0 151 -231q0 -86 -20 -192.5t-33.5 -152t-48.5 -157.5q-3 -11 5 -11q7 1 17 9
q70 61 138 170q98 161 144 295q49 152 94 152q20 0 20 -21q-24 -76 -60 -278q-12 -71 -12 -129zM752 745q-4 -2 -4 -9t3.5 -21t23.5 -50t44 -65q-7 62 -27.5 103.5t-39.5 41.5z" />
    <glyph glyph-name="X" unicode="X" horiz-adv-x="649" 
d="M43 640q-7 -17 -7 -30t8 -13q-2 -14 -22 -14q-24 0 -24 34t40.5 66t107.5 32q81 0 139.5 -76.5t103.5 -209.5q145 197 214.5 271t119.5 75q18 0 29 -12t12 -24l2 -12q-75 0 -175 -105q-84 -88 -190 -229q18 -57 40.5 -139.5t38 -139t34.5 -111.5q39 -112 85 -112
q25 0 40 19q9 0 4 -17q-9 -32 -59 -35q-66 0 -115 86q-55 97 -115 328q-7 28 -11 42q-117 -160 -155 -202t-64 -68q-49 -46 -86 -46q-21 0 -33 12t-13 24l-2 12q68 0 151 80.5t191 225.5q-71 254 -140 313q-30 26 -66 26q-61 0 -83 -51z" />
    <glyph glyph-name="Y" unicode="Y" horiz-adv-x="747" 
d="M221 -303q69 0 123.5 36t86.5 78t61 130t39.5 135t21 102t11.5 59t2 9.5l3 16.5t8 41h-7q-140 -272 -226 -272q-100 0 -100 120q0 54 50 228.5t50 253.5q0 51 -23.5 82.5t-74.5 31.5q-91 0 -136 -104q-30 -70 -30 -140q0 -34 7 -68q22 -104 93 -104q-7 -14 -19 -14
q-90 0 -117 114q-9 36 -9 72q0 77 39 155q58 114 171 114q87 0 126.5 -48.5t39.5 -126t-46.5 -247t-46.5 -227t39 -57.5q33 0 93 95q98 151 170 329q28 70 63 70q22 0 22 -23q-35 -85 -70 -285q-41 -234 -85 -335q-19 -44 -51 -94.5t-69.5 -80t-91 -49.5t-116.5 -20
q-153 0 -215 104q-29 50 -29 107q0 31 9 64q23 84 87 115q27 13 48 13q33 0 39 -19l2 -7q-69 0 -108 -72q-25 -47 -25 -86q0 -149 120 -186q32 -10 71 -10z" />
    <glyph glyph-name="Z" unicode="Z" horiz-adv-x="668" 
d="M494 749.5q88 -23.5 114.5 -23.5t56.5 24t53 24q9 0 14.5 -10t4.5 -18.5t-1 -9.5q-32 0 -75 -77q-32 -56 -77.5 -152.5t-64.5 -135.5q52 2 70 2q10 0 8.5 -12t-15 -12t-24 -1t-27 -2t-26.5 -2q-127 -251 -248 -341q31 -14 132.5 -64t158.5 -71.5t88 -21.5t49 5.5t28 13.5
q20 16 27 35q16 0 16 -25q0 -42 -37 -67.5t-85 -25.5t-108 22t-98.5 43t-115 68t-98.5 60q-61 -32 -119 -32q-84 0 -108 44q-7 12 -7 26.5t19 32t67.5 17.5t147.5 -42q91 77 211 313q-48 -6 -84.5 -6t-40.5 24q1 15 12 18q5 -6 40 -6t90 3q15 29 45 89.5t47 93.5
q44 89 82 143q-22 -5 -47.5 -5t-114.5 24t-134 24q-114 0 -161 -94q-24 -47 -24 -85.5t7 -66.5q18 -68 65 -79l16 -2q-5 -23 -33 -23q-59 0 -85 68q-12 34 -12 74t18 88q40 104 143 140q47 17 99.5 17t140.5 -23.5zM8 9q0 -18 25 -28.5t63 -10.5t82 26q-86 42 -123.5 42
t-45.5 -21q-1 -4 -1 -8z" />
    <glyph glyph-name="bracketleft" unicode="[" horiz-adv-x="261" 
d="M90 -75q29 0 48.5 -6t23.5 -12l5 -6h-163q10 74 46 423t43 428h165q-1 -3 -4 -7t-21.5 -10.5t-47.5 -6.5h-44q-69 -617 -91 -803h40z" />
    <glyph glyph-name="backslash" unicode="\" horiz-adv-x="471" 
d="M206.5 335q66.5 -323 76.5 -367.5t10 -64t-13 -19.5q-9 0 -13 19q-18 83 -94 396t-83.5 344.5t-7.5 52.5q0 38 26 38q5 0 11.5 -6.5t13.5 -38t73.5 -354.5z" />
    <glyph glyph-name="bracketright" unicode="]" horiz-adv-x="325" 
d="M186 728q-29 0 -48.5 6t-23.5 12l-5 6h163q-9 -70 -45 -411.5t-45 -439.5h-164q1 3 4 7t21.5 10.5t47.5 6.5h44q28 245 91 803h-40z" />
    <glyph glyph-name="asciicircum" unicode="^" horiz-adv-x="458" 
d="M457 446h-34l-151 141l-235 -141h-35l237 169h49z" />
    <glyph glyph-name="underscore" unicode="_" horiz-adv-x="613" 
d="M465 -68l-449 -1q-11 0 -11 8q0 24 46 29l442 -8q10 0 9 -10q-8 -16 -37 -18z" />
    <glyph glyph-name="grave" unicode="`" horiz-adv-x="425" 
d="M232 684q37 -34 71 -75t34 -50.5t-11.5 -9.5t-46.5 25.5t-74 63.5q-15 14 -15 24.5t6 21t16 10.5t20 -10z" />
    <glyph glyph-name="a" unicode="a" horiz-adv-x="478" 
d="M84 0q-82 0 -82 129q0 77 38 169q53 129 139 176q37 20 69 20t50.5 -14t23.5 -28l6 -13q-3 -17 -17 -17q-16 0 -18.5 7.5t-5.5 13t-14 15t-25 9.5q-65 0 -118 -117q-60 -135 -60 -254q0 -60 24 -60q19 0 53.5 42.5t72.5 106.5q66 110 107 191q34 72 70 72q19 0 19 -23
q-9 -19 -23 -54t-37 -139t-23 -207t31 -103q12 0 22 10.5t18 31.5q3 11 14 11q4 0 6 -3t0 -10t-7 -19.5t-21.5 -33.5t-34.5 -21q-42 0 -64.5 55t-22.5 130t11 144h-10q-127 -217 -191 -217z" />
    <glyph glyph-name="b" unicode="b" horiz-adv-x="501" 
d="M191 92q0 -60 32 -60q41 0 90 110q57 126 57 236q0 75 -39 75t-87.5 -63.5t-84.5 -142.5t-61.5 -142.5t-25.5 -70.5q0 -15 -15 -15q-30 0 -30 80q0 159 32 319.5t76 257t82 96.5q16 0 16 -16q-53 -117 -91.5 -281t-57.5 -311h7q46 117 105 210q33 52 70.5 82.5t72.5 30.5
q71 0 88 -92q6 -27 6 -57q0 -74 -32 -161q-45 -124 -118 -163q-25 -14 -52 -14q-68 0 -68 90q0 48 26.5 110.5t69.5 92.5q9 5 15 -4q1 -5 -1 -7q-38 -30 -60 -88t-22 -102z" />
    <glyph glyph-name="c" unicode="c" horiz-adv-x="388" 
d="M282 92q13 0 13 -6v-3q-4 -11 -22 -35.5t-34.5 -39.5t-42.5 -27.5t-53 -12.5q-105 0 -134 101q-26 94 21 214t131 172q44 27 84 27t58 -23q27 87 69 87q16 0 16 -17q-8 -12 -20.5 -31.5t-33.5 -69.5t-21 -88q0 -13 -11 -13q-13 0 -15 23q0 39 7 73q-6 31 -44 31
q-72 0 -126.5 -109t-54.5 -213q0 -130 82 -130q32 0 60.5 20t40.5 40l13 21q4 9 17 9z" />
    <glyph glyph-name="d" unicode="d" horiz-adv-x="487" 
d="M84 0q-84 0 -84 129q0 75 38 165q52 126 137 171q37 20 67 20t46 -10.5t21 -21.5l5 -11q-3 -17 -18 -17t-21.5 16.5t-30.5 16.5q-65 0 -116 -115q-59 -130 -59 -246q0 -61 25 -61q20 0 58.5 49.5t79.5 120.5q56 98 99 179q36 156 87.5 272.5t85.5 116.5q17 0 17 -17
q-24 -52 -56.5 -142t-55 -171.5t-41 -194.5t-18.5 -213q0 -149 65 -149q25 0 46.5 21.5t30.5 42.5q5 11 18 6q5 -2 4 -6q-6 -13 -15 -30t-35.5 -42t-53.5 -25q-119 0 -119 224q0 79 14 169h-13q-141 -247 -208 -247z" />
    <glyph glyph-name="e" unicode="e" horiz-adv-x="389" 
d="M261 485q76 0 76 -89q0 -51 -34 -107q-58 -93 -154 -93q-15 0 -25 5t-15 15q71 0 130 82q48 66 48 121q0 41 -33 41q-66 0 -123 -103q-61 -112 -61 -230q0 -100 57 -120q11 -4 28 -4t36 8.5t32 20.5q26 24 43 53q4 8 15 8q18 0 17 -6q-3 -11 -22.5 -37t-36 -41.5t-43 -28
t-53.5 -12.5q-106 0 -135 100q-9 34 -9 70q0 67 31 146q49 120 135 173q47 28 96 28z" />
    <glyph glyph-name="f" unicode="f" horiz-adv-x="310" 
d="M-42 -313q-51 0 -51 61q0 43 27 118t54 130q49 96 70 132q23 215 41 308q-24 -3 -48 -3t-29 25q0 20 12 23q4 -6 29 -6t45 2q65 299 222 299q20 0 19 -15q-1 -10 -7 -10q-68 0 -109 -71t-66 -199q119 9 145 9q9 0 7.5 -12t-20.5 -12t-139 -20q-13 -74 -27.5 -215
t-23.5 -215t-21 -130t-29 -103q-35 -96 -101 -96zM-41 -284q31 0 47 52q18 57 26 119q12 93 21 191q-75 -159 -91 -210q-27 -86 -27 -119t24 -33zM360 615q-12 0 -13 20q0 63 21.5 116t53.5 53q12 0 12 -15q-7 -11 -13 -20t-12.5 -21t-13.5 -27t-13 -30q-13 -33 -13 -64
q0 -12 -9 -12z" />
    <glyph glyph-name="g" unicode="g" horiz-adv-x="462" 
d="M84 0q-82 0 -82 129q0 77 38 169q53 129 139 176q37 20 69 20t50.5 -14t23.5 -28l6 -13q-3 -17 -17 -17q-16 0 -18.5 7.5t-5.5 13t-14 15t-25 9.5q-65 0 -118 -117q-60 -135 -60 -254q0 -60 24 -60q33 0 106.5 115.5t132.5 236.5q30 61 63 61q21 0 21 -24q-4 -7 -12 -23
t-29 -91.5t-38 -173t-29 -152.5q76 -13 88 -66q2 -9 2 -24.5t-12 -27t-21 -11.5q2 7 1 24.5t-6.5 29.5t-20.5 25t-39 19q-31 -122 -89 -201q-66 -89 -178 -89q-82 0 -109 58q-1 3 -1 5q0 6 11 8.5t15 -7.5q18 -41 84 -41q90 0 140 85q45 75 69 187q-180 -4 -278 -138
q-6 -9 -19 -3q-7 4 -4 10q43 65 120 110.5t187 49.5q11 50 19.5 105.5t14.5 87.5t8 46h-11q-132 -227 -196 -227z" />
    <glyph glyph-name="h" unicode="h" horiz-adv-x="456" 
d="M100.5 120q-29.5 -74 -29.5 -87.5t-14 -13.5q-30 0 -30 80q0 159 32 319.5t76 257t82 96.5q16 0 16 -16q-53 -117 -88.5 -267t-59.5 -320h7q127 312 249 312q51 0 51 -49q-7 -23 -18 -60.5t-29 -134.5t-18 -170q0 -106 31 -106q11 0 22 9.5t15 9.5q14 0 -1 -22
q-4 -7 -17.5 -19t-26.5 -12q-39 0 -60.5 54.5t-21.5 141.5q0 147 44 303q2 15 -12 13q-7 -1 -14 -8q-50 -45 -103 -141t-82.5 -170z" />
    <glyph glyph-name="i" unicode="i" horiz-adv-x="218" 
d="M26 85q0 148 30.5 264t77.5 116q23 0 23 -25q-10 -26 -25 -69t-39.5 -155.5t-24.5 -200.5q0 -14 -15 -14q-27 0 -27 84zM160 559q-21 0 -21 40q0 24 13 50.5t37 26.5q20 0 20 -23t-37 -77z" />
    <glyph glyph-name="j" unicode="j" horiz-adv-x="251" 
d="M-42 -313q-51 0 -51 61q0 43 29.5 123t57.5 136q37 71 67 125q23 247 65 307q19 26 44 26q23 0 23 -25q-50 -120 -68 -281q-26 -235 -48 -319q-41 -153 -119 -153zM-41 -284q41 0 62 106q18 92 25.5 172t8.5 88q-76 -162 -93 -213q-27 -85 -27 -119t24 -34zM197 559
q-21 0 -21 40q0 24 12.5 50.5t36.5 26.5q21 0 21 -23q0 -12 -12 -35.5t-24 -41.5z" />
    <glyph glyph-name="k" unicode="k" horiz-adv-x="456" 
d="M308 311q33 53 33 99.5t-29 46.5q-35 0 -79.5 -61.5t-79 -139.5t-58.5 -144.5t-24 -80.5q-1 -12 -14 -12q-30 0 -30 80q0 159 32 319.5t76 257t82 96.5q16 0 16 -16q-53 -117 -92 -285q-32 -130 -54 -279h8q114 293 228 293q71 0 71 -81q0 -52 -38.5 -110t-97.5 -77
q12 -11 49 -137q13 -45 36 -82t49.5 -37t39.5 19q6 0 6 -5t-5 -15q-22 -30 -54 -33q-41 0 -77 42t-56 92t-37.5 99.5t-21.5 55.5q-7 5 -9 12q79 0 130 83z" />
    <glyph glyph-name="l" unicode="l" horiz-adv-x="263" 
d="M147 -146q-58 0 -85.5 61t-27.5 183t36 289t84.5 277t84.5 110q17 0 17 -20q-21 -48 -53 -144.5t-53.5 -178.5t-39 -192t-17.5 -188.5t15.5 -121t42.5 -42.5q23 0 44 21.5t30 42.5q5 11 18 6q5 -2 2.5 -8.5t-8 -16.5t-19.5 -31q-30 -47 -71 -47z" />
    <glyph glyph-name="m" unicode="m" horiz-adv-x="665" 
d="M245 122q0 123 45 311q3 10 -6 9q-7 -1 -13 -6q-44 -37 -97 -137t-85 -182.5t-32 -96.5q0 -12 -15 -12q-30 0 -30 79q0 150 30 270.5t73 120.5q19 0 19 -21q-46 -145 -66 -298h9q132 330 243 330q48 0 48 -47q-47 -140 -68 -276h8q33 70 66.5 127.5t78.5 107t81 49.5
q48 0 48 -46q-52 -173 -52 -337q0 -106 32 -106q11 0 22 9.5t15 9.5q14 0 -1 -22q-4 -7 -17.5 -19t-26.5 -12q-39 0 -60.5 54.5t-21.5 141.5q0 153 32 269q2 7 -5 7q-6 -1 -12 -6q-57 -49 -127 -181.5t-70 -156.5q0 -12 -16 -12q-29 0 -29 79z" />
    <glyph glyph-name="n" unicode="n" horiz-adv-x="448" 
d="M77 162q129 319 251 319q51 0 51 -49q-7 -23 -18 -60.5t-29.5 -134.5t-18.5 -170q0 -106 31 -106q12 0 23 9.5t15 9.5q14 0 0 -22q-5 -7 -18.5 -19t-27.5 -12q-38 0 -59.5 54.5t-21.5 141.5q0 138 43 303q4 13 -8 13q-8 0 -18 -8q-48 -42 -101 -139t-83 -173.5t-30 -89
t-14 -12.5q-32 0 -32 79q0 149 30.5 270t73.5 121q18 0 18 -22q-46 -149 -66 -303h9z" />
    <glyph glyph-name="o" unicode="o" horiz-adv-x="413" 
d="M122 -9q-123 0 -123 169q0 95 48 190q61 120 145 120q12 0 20 -6t11 -18q-63 0 -109 -101t-46 -199q0 -119 65 -119q37 0 77 56.5t66.5 148.5t26.5 185v12q-31 20 -51 50t-20 44t12.5 26.5t25.5 12.5q19 0 37 -34t25 -77q31 -21 54.5 -21t37.5 8q0 -14 -10 -25t-31 -11
t-48 10q-1 -96 -29 -193t-78 -162.5t-106 -65.5z" />
    <glyph glyph-name="p" unicode="p" horiz-adv-x="484" 
d="M189 92q0 -60 32 -60q41 0 90 110q57 126 57 236q0 75 -39.5 75t-86.5 -61t-83.5 -141.5t-62.5 -152t-31.5 -106t-8.5 -52t-9.5 -55.5t-12 -58t-14.5 -50.5t-18.5 -47t-21.5 -33.5q-24 -33 -61 -33q-48 0 -48 55q0 98 150 369q15 110 31 178q35 161 74.5 249.5t71.5 88.5
q16 0 16 -19q-48 -127 -99 -322l-6 -23h13q114 248 215 248q94 0 94 -149q0 -108 -55 -216q-61 -122 -146 -122q-69 0 -69 90q0 48 26.5 110.5t69.5 92.5q9 5 15 -4q1 -5 -1 -7q-38 -30 -60 -88t-22 -102zM-102 -273q0 -30 22 -30q45 0 67 122q8 42 28 212
q-91 -176 -113 -273q-4 -18 -4 -31z" />
    <glyph glyph-name="q" unicode="q" horiz-adv-x="480" 
d="M84 0q-82 0 -82 129q0 77 38 169q53 129 139 176q37 20 69 20t50.5 -14t23.5 -28l6 -13q-3 -17 -17 -17q-16 0 -18.5 7.5t-5.5 13t-14 15t-25 9.5q-65 0 -118 -117q-60 -135 -60 -254q0 -60 24 -60q27 0 86.5 88t105.5 176l47 88q30 61 63 61q21 0 21 -24
q-13 -28 -36 -107.5t-38 -148t-27.5 -168.5t-12.5 -204t37 -104q11 0 22.5 9.5t15 9.5t5.5 -2.5t0.5 -7.5t-6 -12t-18.5 -19t-27 -12q-84 0 -84 194q0 170 36 364h-9q-127 -217 -191 -217z" />
    <glyph glyph-name="r" unicode="r" horiz-adv-x="383" 
d="M318 287q-38 0 -38 83q0 47 18 88q-68 -59 -152 -219.5t-84 -209.5q0 -12 -16 -12q-29 0 -29 79q0 149 30 270t73 121q19 0 19 -22q-46 -146 -66 -299h7q81 187 179 292q56 60 102 60q10 0 16.5 -6t6.5 -15q-7 -7 -17 -21t-27 -66.5t-17 -114.5q0 -8 -5 -8z" />
    <glyph glyph-name="s" unicode="s" horiz-adv-x="379" 
d="M71 34q0 -70 45 -70q42 0 78.5 69t36.5 174q0 51 -18.5 144t-18.5 121.5t2 37.5q-13 -21 -75 -139.5t-110 -187.5q-4 -4 -11 -2.5t-11.5 6t-4.5 6.5t1 3q47 68 109.5 187.5t104.5 178.5t83 59q21 0 21 -18q0 -12 -17 -32q-54 -61 -54 -125q0 -38 29 -146.5t29 -157.5
q0 -88 -49 -149.5t-111 -61.5q-88 0 -88 101q0 76 46.5 159t93.5 112q9 6 11.5 -7t-3.5 -17q-53 -30 -92 -128q-27 -69 -27 -117z" />
    <glyph glyph-name="t" unicode="t" horiz-adv-x="289" 
d="M59 433q-39 0 -39 32q0 12 10 15q1 1 3 1q6 -7 22.5 -7t52.5 2q47 127 90 127q17 0 17 -19q-16 -40 -36 -103q99 11 129 11q8 0 8 -8q0 -16 -21 -16q-11 0 -127 -21q-79 -250 -79 -405t62 -155q25 0 47 21.5t31 42.5q4 11 17 6q6 -2 4 -6q-6 -13 -15 -30t-35 -42t-53 -25
q-119 0 -119 207q0 175 65 374q-14 -2 -34 -2z" />
    <glyph glyph-name="u" unicode="u" horiz-adv-x="475" 
d="M350 -75q12 0 22.5 10.5t19.5 32.5q1 9 12 9t8.5 -9t-8 -22t-23 -34.5t-35.5 -21.5q-40 0 -62 50q-23 50 -23 123.5t11 151.5h-9q-121 -211 -186 -211q-77 0 -77 117.5t50 234.5q55 129 97 129q18 0 18 -22q-42 -111 -72 -216t-30 -156.5t24 -51.5q17 0 50.5 41t68.5 100
q75 127 114.5 216t81.5 89q20 0 20 -22q-64 -127 -91 -303q-11 -70 -11 -137q0 -98 30 -98z" />
    <glyph glyph-name="v" unicode="v" horiz-adv-x="389" 
d="M316 453q29 -22 55.5 -22t37.5 7q0 -13 -11.5 -24.5t-33 -11.5t-46.5 10q-3 -94 -36 -192.5t-85 -165t-103.5 -66.5t-73.5 42.5t-22 97.5q0 66 18.5 141.5t43.5 121.5t45 46t20 -21q-63 -218 -63 -306t39 -88q34 0 77.5 59t75.5 155.5t32 188.5v6q-29 21 -47 50t-18 43.5
t13 26.5t28 12q18 0 33.5 -33.5t20.5 -76.5z" />
    <glyph glyph-name="w" unicode="w" horiz-adv-x="629" 
d="M542 453q29 -22 55.5 -22t37.5 7q0 -13 -11.5 -24.5t-33 -11.5t-46.5 10q-2 -94 -31 -192.5t-75 -165t-91 -66.5t-69 35q-25 39 -25 111q0 41 5 88q-124 -222 -190.5 -222t-66.5 112q0 116 57 248q48 105 88 110q19 0 19 -21q-12 -29 -30 -74.5t-47.5 -145.5
t-29.5 -147.5t21 -47.5q26 0 81.5 84t97.5 168l43 83q28 56 50 56t22 -21q-61 -209 -61 -327q0 -55 32 -55q36 0 75.5 59.5t66 155t26.5 188.5v6q-29 21 -47 50t-18 43.5t13 26.5t28 12q19 0 34 -33.5t20 -76.5z" />
    <glyph glyph-name="x" unicode="x" horiz-adv-x="401" 
d="M294 -35q-43 0 -80 58.5t-76 160.5q-52 -82 -84 -123.5t-52 -41.5q-11 0 -16.5 6.5t-5.5 13.5v7q7 0 16 9.5t15.5 16.5t15.5 19.5t16 22.5t18 26.5t18.5 28t20.5 31.5l21 31q-5 14 -13 36t-13 36t-11.5 32.5t-11.5 30.5t-11 26t-10.5 22.5t-10.5 15.5q-10 15 -19 15
q1 4 2.5 10.5t13 17.5t28.5 11q25 0 49.5 -48t53.5 -135q117 164 168 164q12 0 19.5 -7t9.5 -21q-36 0 -80.5 -48.5t-101.5 -134.5q58 -184 80.5 -219.5t36 -35.5t24.5 9.5t15 9.5q14 0 -1 -22q-4 -7 -17.5 -19t-26.5 -12z" />
    <glyph glyph-name="y" unicode="y" horiz-adv-x="465" 
d="M27 -313q90 0 141 85q44 75 68 187q-181 -4 -278 -138q-6 -9 -19 -3q-7 4 -4 10q43 65 120 110.5t187 49.5q11 50 21 117t23 130h-9q-130 -231 -198 -231q-76 0 -76 117t50 235.5t91 127.5l6 1q17 0 17 -22q-11 -27 -28 -70.5t-45 -143t-28 -155t24 -55.5q28 0 90 97
q91 142 158 288q29 61 62 61q21 0 21 -23q-19 -35 -46 -131t-44 -193.5t-29 -152.5q76 -13 88 -66q2 -9 2 -24.5t-12 -27t-21 -11.5q2 7 1 24.5t-6.5 29.5t-20.5 25t-39 19q-77 -290 -267 -290q-82 0 -109 58q-1 3 -1 5q0 6 10.5 7.5t15.5 -6.5q18 -41 84 -41z" />
    <glyph glyph-name="z" unicode="z" horiz-adv-x="417" 
d="M-11 -336q-78 0 -78 75q0 66 67.5 155.5t169.5 128.5q5 2 10 -2.5t5 -10t-6 -8.5q-103 -38 -173 -140q-47 -70 -47 -115t35 -46q83 0 181 114q83 96 112 192q10 33 10 55q0 47 -44 47q-34 0 -83 -22.5t-63 -22.5q-23 0 -29 34l-2 12q74 0 150 102q64 88 78 171q2 15 2 27
q0 48 -39 49q-40 0 -78.5 -30.5t-63 -70t-39.5 -71.5t-15 -39t-9.5 -9.5t-19 2.5t-9.5 16.5t19 47t49.5 77t77 73.5t92 32t70.5 -30t25 -78q0 -129 -132 -245q12 2 19 2q94 0 94 -104q0 -75 -56 -171q-69 -117 -169 -169q-56 -28 -111 -28z" />
    <glyph glyph-name="braceleft" unicode="{" horiz-adv-x="316" 
d="M90 254q0 82 -48 82q-5 0 -5 11q0 29 11 29q30 0 50 30t29 74.5t22 97t28 97t50 74.5t85 30q12 0 19 -6.5t8 -18.5q-56 0 -87 -33.5t-41 -85t-16 -105.5q-15 -138 -79 -177q22 -21 22 -73.5t-10 -109.5q-17 -97 -17 -138q0 -101 78 -101q-2 -20 -26 -20q-44 0 -65.5 31.5
t-21.5 78.5q0 92 7 156t7 77z" />
    <glyph glyph-name="bar" unicode="|" horiz-adv-x="364" 
d="M138 -124q-11 0 -11 20q4 314 16 742q1 83 38 83q7 0 11.5 -7.5t4.5 -17.5l-39 -762q-1 -58 -20 -58z" />
    <glyph glyph-name="braceright" unicode="}" horiz-adv-x="321" 
d="M223 435q0 -82 48 -82q5 0 5 -10.5t-3 -19.5t-8 -9q-36 0 -56.5 -41.5t-32 -101t-26.5 -118.5t-52 -100.5t-96 -41.5q-12 0 -19 6.5t-9 18.5q56 0 87 33.5t41 85t16 105.5q15 138 80 176q-22 22 -22 74t10 110q17 96 17 137q0 101 -78 101q0 7 7 14t18 7q44 0 65.5 -31.5
t21.5 -79.5q0 -90 -7 -154.5t-7 -78.5z" />
    <glyph glyph-name="asciitilde" unicode="~" horiz-adv-x="475" 
d="M355 462h-24t-79.5 -14.5t-86.5 -14.5t-51 15.5t-34 31.5l-11 15h33q17 -22 49 -22t93 19t96 19t68 -19t49 -38l16 -19h-33q-31 27 -85 27z" />
    <glyph glyph-name="exclamdown" unicode="&#xa1;" horiz-adv-x="312" 
d="M172 485q24 0 24 -23q0 -20 -22 -76l-8 -18q-17 0 -26 29q-5 15 -5 29.5t5 29.5q8 29 32 29zM180 220q0 -97 -23 -222t-61.5 -219.5t-76.5 -94.5q-16 0 -16 16q40 89 86 288t46 277q0 14 15 14q30 0 30 -59z" />
    <glyph glyph-name="cent" unicode="&#xa2;" horiz-adv-x="452" 
d="M128 -192q-11 4 -11 19t22 141q-102 2 -130 102q-9 33 -9 69q0 68 31 146q48 121 133 172q31 19 65 24q6 35 13 77q10 62 18 103q1 10 9 10q3 0 6 -1q18 -6 18 -32q0 -7 -1 -13l-5 -30t-10 -54l-12 -60q21 -4 34.5 -18.5t16.5 -27.5l3 -13h-25q0 9 -10.5 19t-23.5 12
q-83 -439 -85 -449q26 7 48.5 27t32.5 36l9 16q4 9 17 9t13 -6v-3q-30 -61 -83 -93q-21 -14 -44 -19q-4 -24 -11 -60q-13 -69 -17 -96q-2 -9 -7 -9q-3 0 -5 2zM69 135q0 -127 76 -133q60 347 78 447q-65 -23 -109.5 -124t-44.5 -190z" />
    <glyph glyph-name="sterling" unicode="&#xa3;" horiz-adv-x="727" 
d="M501 312q-50 0 -125 -3q-44 -197 -122 -273q166 -62 237 -62q35 0 59 13.5t30 26.5l7 14q16 0 15 -26q-2 -40 -38.5 -63.5t-86 -23.5t-103 15t-83 29t-84.5 42q-57 -33 -136.5 -33t-104.5 44q-7 12 -7 26.5t19 32t70 17.5t157 -36q60 68 97 254q-37 -2 -90 -2
q-29 0 -33 22q-1 15 11 17q5 -7 22 -7h95q32 172 48 221q47 145 146 145q28 0 42.5 -14t14.5 -28l1 -14q-10 10 -33 10t-39 -8t-28 -28t-20.5 -38t-17 -53t-13.5 -57.5t-13 -67.5t-13 -68h132q9 0 7.5 -12t-20.5 -12zM583 441q0 -4 -8.5 -4.5t-17.5 3.5t-9 11
q0 102 23 164.5t61 62.5q10 0 17 -7t7 -19q-46 -46 -65 -134q-8 -37 -8 -77zM-12 34q0 -17 24.5 -28t69.5 -11t86 25q-83 43 -141 43q-31 0 -38 -21q-1 -4 -1 -8z" />
    <glyph glyph-name="currency" unicode="&#xa4;" horiz-adv-x="565" 
d="M468 470q13 0 13 -11q0 -7 -6 -14l-69 -69q19 -33 19 -79q0 -89 -52 -166l77 -78q11 -10 2 -19.5t-20 1.5l-75 74q-53 -66 -119.5 -66t-98.5 42l-56 -55q-5 -5 -10 -5q-9 0 -11.5 4.5t-2.5 9.5t5 10l61 61q-7 26 -7 49q0 77 47 135q34 42 79 52q6 2 9.5 -2.5t3 -10.5
t-4.5 -7q-38 -11 -60 -75q-16 -43 -16 -84q0 -100 59.5 -100t99.5 83q34 70 34 141q0 105 -60 105q-37 0 -68 -28q-18 -14 -34 -10q-5 1 -2 5q-34 35 -79 80q-7 7 -5 15.5t9 9.5t16 -6l78 -78q45 35 91.5 35t72.5 -23l69 69q5 5 11 5z" />
    <glyph glyph-name="yen" unicode="&#xa5;" horiz-adv-x="585" 
d="M409 4h-57q-65 -106 -180 -106q-96 0 -123 64q-8 19 -8 40.5t17 48t50 26.5q19 0 24 -13l1 -4q-42 0 -57 -40q-6 -14 -6 -32.5t20.5 -42t66.5 -23.5q80 0 138 80h-40q-21 0 -21 16q1 9 7 10q3 -5 25.5 -5t41.5 -1q16 28 23 43q-22 -1 -61 -1q-21 0 -22 16q1 9 7 10
q3 -5 15 -5h70q30 73 62 207h-8q-80 -131 -152 -131q-68 0 -68 82q0 52 34.5 157.5t34.5 159.5q0 87 -80 87q-68 0 -108 -69q-28 -48 -28 -95q0 -22 6 -43q18 -69 92 -69q-1 -17 -26 -17q-71 0 -92 71q-8 25 -8 61t23 85q47 100 141 100q63 0 97.5 -39t34.5 -99.5
t-33.5 -164.5t-33.5 -142.5t22 -38.5q26 0 58 34t60 83q57 104 82 179t55 75q10 0 14.5 -6t4.5 -9t-1 -5q-29 -64 -67 -226.5t-64 -228.5h40q8 0 6 -8t-20.5 -8t-33.5 -1q-8 -22 -21 -46h54q8 0 6 -8t-14 -8z" />
    <glyph glyph-name="brokenbar" unicode="&#xa6;" horiz-adv-x="417" 
d="M136 329l6 261q1 77 35 77q15 0 15 -25q0 -5 -3 -59t-6.5 -129t-6.5 -125h-40zM137 -125q-10 0 -10 19q1 69 7 345h38q-15 -288 -16 -309q-1 -55 -19 -55z" />
    <glyph glyph-name="section" unicode="&#xa7;" horiz-adv-x="554" 
d="M19 41q0 -10 3 -20q12 -37 71 -37q85 0 135 53t50 136q0 72 -56 122q-24 21 -48 40q-57 45 -57 98t47.5 103.5t106.5 60.5v4q0 63 57 116.5t121 53.5q20 0 30 -11.5t10 -23.5v-12q-9 7 -34 7q-45 0 -85.5 -38.5t-40.5 -93.5q0 -45 57 -93q24 -21 48 -43q56 -53 56 -120
t-41 -122.5t-116 -77.5q-10 -76 -73.5 -129t-161 -53t-115.5 63q-4 14 -4 28q0 40 31 80q50 64 125 65q12 0 20 -7.5t11 -22.5q-68 0 -116 -57q-31 -37 -31 -69zM232 335q23 -20 46 -42q58 -54 58 -120q46 22 71 66.5t25 94.5t-18.5 83t-42 52t-51 43t-38.5 45
q-41 -8 -74 -44t-33 -83t57 -95z" />
    <glyph glyph-name="dieresis" unicode="&#xa8;" horiz-adv-x="450" 
d="M160 559q-21 0 -21 40q0 24 13 50.5t37 26.5q20 0 20 -23t-37 -77zM303 559q-21 0 -21 41q0 24 12.5 50t36.5 26q21 0 21 -23q0 -12 -12 -35.5t-24 -41.5z" />
    <glyph glyph-name="copyright" unicode="&#xa9;" horiz-adv-x="842" 
d="M452 578q127 0 208 -90q70 -78 70 -183q0 -148 -114 -251q-100 -90 -227.5 -90t-207.5 90q-69 77 -69 182q0 149 114 252q99 90 226 90zM133 237q0 -96 64 -167q75 -84 193.5 -84t211.5 84q107 96 107 233q0 97 -65 169q-76 84 -194.5 84t-209.5 -84q-107 -97 -107 -235z
M481 158q2 8 12.5 8t10.5 -6v-2q-2 -3 -5 -9t-14.5 -20.5t-23.5 -26t-32 -20.5t-40 -9q-84 0 -103 84q-5 22 -5 46q0 60 32 128q44 93 114 120q22 8 45 8t36 -17q21 64 53 64q12 0 12 -12q-56 -78 -56 -142q0 -11 -9 -10q-11 1 -11 25.5t2.5 36t2 13t-3 5.5t-5.5 8
q-7 8 -24 8q-54 0 -95 -82t-41 -160q0 -98 62 -98q24 0 45.5 15t31.5 30z" />
    <glyph glyph-name="ordfeminine" unicode="&#xaa;" horiz-adv-x="457" 
d="M133 457q-53 0 -53 83q0 67 40 139q52 89 120 92q17 0 29 -9t19 -27q-1 -11 -14 -11q-9 0 -13 8q-4 18 -23 18q-38 0 -71 -69q-38 -80 -38 -152q0 -38 12 -46q14 0 51.5 55.5t67.5 110.5l30 55q19 37 37.5 37t18.5 -15q-19 -38 -35.5 -113t-16.5 -124t3.5 -63t13.5 -14
q13 0 21 22q2 7 9.5 7t7.5 -5v-2q-16 -48 -40 -48q-27 0 -41.5 34.5t-14.5 86t7 92.5h-5q-84 -142 -122 -142z" />
    <glyph glyph-name="guillemotleft" unicode="&#xab;" horiz-adv-x="610" 
d="M206 61q-171 196 -171 210q0 7 9 13l228 145v-32l-179 -137l113 -165v-34zM251 263q-3 5 -3 10t8 11l229 145v-32l-179 -137l112 -165v-34q-128 148 -167 202z" />
    <glyph glyph-name="logicalnot" unicode="&#xac;" horiz-adv-x="815" 
d="M675 381q25 0 34.5 -11t9.5 -19.5t-3 -16.5l-105 -243h-32l71 233l-588 12v27l609 18h4z" />
    <glyph glyph-name="uni00AD" unicode="&#xad;" horiz-adv-x="495" 
d="M377 254l-282 -2q-10 0 -10 6q0 2 1 4q5 17 44 17l276 -8q9 0 9 -5q-6 -11 -38 -12z" />
    <glyph glyph-name="registered" unicode="&#xae;" horiz-adv-x="449" 
d="M246.5 773q60.5 0 96 -39.5t35.5 -90.5q0 -70 -51 -115.5t-111 -45.5t-95 39.5t-35 89.5q0 71 50 116.5t110.5 45.5zM277 682q10 18 10 30t-11 12q-28 0 -59 -76.5t-31 -94.5q0 -4 -4 -4q-9 0 -9 19q0 49 9 91.5t23 58.5q-23 -4 -43 -16t-20 -30q0 -5 5 -5q-1 -7 -6 -7
q-12 0 -12 17.5t32.5 32.5t46.5 15t14 -3q-14 -35 -20 -66t-7 -34h3q37 111 79 111q28 0 28 -30.5t-33 -54.5q-13 -10 -28 -13q10 0 19.5 -25t19 -54t17.5 -36q57 39 66 107q1 7 1 14q0 47 -33 83.5t-88.5 36.5t-97.5 -39q-50 -45 -50 -111q0 -45 32 -81t87 -36q38 0 71 19
q-18 11 -35.5 63.5t-23.5 57.5q-6 0 -6 6v2q33 0 54 40z" />
    <glyph glyph-name="degree" unicode="&#xb0;" horiz-adv-x="354" 
d="M119.5 642.5q26.5 26.5 66 26.5t66.5 -26t27 -65t-27 -65.5t-66.5 -26.5t-66 27t-26.5 65t26.5 64.5zM140.5 534.5q18.5 -18.5 44 -18.5t44 18.5t18.5 44t-18.5 44t-44.5 18.5t-44 -18.5t-18 -44t18.5 -44z" />
    <glyph glyph-name="plusminus" unicode="&#xb1;" horiz-adv-x="583" 
d="M249 206q-16 0 -16 28t6 63q-59 -2 -143 -2q-29 0 -33 20q1 15 12 18q4 -6 21 -6h148q15 61 37 109t40 48q12 0 12 -11q-21 -44 -48 -146h156q8 0 8 -8q0 -16 -23.5 -16t-147.5 -4l-18 -83q0 -10 -11 -10zM428 153l-332 -8q-29 0 -33 20q1 15 12 18q4 -6 21 -6h345
q8 0 8 -8q0 -16 -21 -16z" />
    <glyph glyph-name="twosuperior" unicode="&#xb2;" horiz-adv-x="279" 
d="M50 522q15 0 54 36.5t73.5 86.5t34.5 81q0 29 -36.5 29t-59.5 -40q-15 -26 -3 -33q2 -1 4 -1q-3 -26 -21.5 -26t-18.5 19q0 6 2 13q9 41 49 69q29 20 60 20q67 0 67 -56q0 -44 -54.5 -103.5t-111.5 -96.5q88 -8 104 -8t28 6t15 12l3 6q10 0 7 -19q-5 -31 -38 -39l-22 -3
q-32 0 -77 13t-59 13q-4 0 -4 10.5t4 10.5z" />
    <glyph glyph-name="threesuperior" unicode="&#xb3;" horiz-adv-x="290" 
d="M176 634q64 -17 64 -82q0 -42 -37.5 -83t-101.5 -41q-25 0 -43 7q-30 12 -30 30q0 8 6 14.5t18 11.5q0 -45 49 -45t75 44q17 28 17 50q0 83 -70 83q1 16 18 16t43 31t26 61q0 25 -32.5 25t-49.5 -29q-11 -21 1 -26l5 -1q-4 -21 -22.5 -21t-18.5 18q0 36 45 63
q25 15 53 15q61 0 61 -49q0 -34 -36 -67q-18 -16 -40 -25z" />
    <glyph glyph-name="acute" unicode="&#xb4;" horiz-adv-x="445" 
d="M382 653q-30 -36 -67 -69t-46.5 -33t-9.5 9.5t23 46t54 71.5q13 15 23.5 15t19.5 -4.5t9 -14t-6 -21.5z" />
    <glyph glyph-name="mu" unicode="&#xb5;" horiz-adv-x="475" 
d="M-28 -288q-51 0 -51 99q0 86 37 245q32 133 68 234q69 195 121 195q18 0 18 -22q-42 -111 -72 -216t-30 -156.5t24 -51.5q35 0 111 126t120 223t84 97q20 0 20 -22q-26 -41 -63 -173t-37 -212t32 -80q13 0 23.5 11t18.5 32q2 9 10 9q13 0 12 -6q-6 -26 -27.5 -53.5
t-39.5 -27.5q-88 0 -88 162q0 38 9 92h-8q-121 -213 -187 -213q-51 0 -69 57q-29 -135 -29 -229t30 -94q0 -10 -11 -18t-26 -8z" />
    <glyph glyph-name="paragraph" unicode="&#xb6;" horiz-adv-x="698" 
d="M206 -101q-135 0 -181 83q-18 32 -18 62.5t12 58.5q29 64 90 64q17 0 28 -17q-45 0 -70 -50q-14 -29 -14 -56t13 -52q34 -68 140 -68q79 0 134 42t82 107t47 150t29 163.5t27.5 156.5t44.5 120q-71 27 -112 27q-97 0 -161 -98q-53 -79 -53 -168q0 -101 66 -127
q18 -7 39 -7q-3 -15 -22 -15q-100 0 -141 85q-20 42 -20 86.5t16 89.5q36 104 131 150q55 27 122 27t148 -32q2 3 7 8q33 124 95 124q13 0 17 -12l2 -4q-52 0 -82 -82q22 12 54 12q46 0 55 -31q2 -7 2 -13q0 -20 -20 -34t-44.5 -14t-63.5 14q-14 -73 -28 -255t-27 -264
q-26 -177 -109 -177q-10 0 -14 6.5t-2 19.5q62 0 89 153q13 73 20 148q27 264 39 331q-25 -63 -38 -159t-24.5 -159t-24.5 -118t-37 -106.5t-55 -88.5t-79 -59t-109 -22zM676 706q-39 0 -65 -29l-1 -8q33 -12 56 -12q37 0 43 22q1 3 1 6q0 13 -18 19q-7 2 -16 2z" />
    <glyph glyph-name="periodcentered" unicode="&#xb7;" horiz-adv-x="302" 
d="M123 240q-21 0 -21 40q0 24 12.5 51t36.5 27q21 0 21 -23q0 -24 -36 -77z" />
    <glyph glyph-name="cedilla" unicode="&#xb8;" horiz-adv-x="254" 
d="M44 -92q0 22 51 95h22l-46 -82q26 13 59 13q50 0 60 -38q1 -7 1 -15q0 -29 -33.5 -59.5t-94.5 -30.5t-61 39q0 15 14 22q4 2 10 2q10 0 14 -12q-14 0 -16 -15q-2 -23 35 -23q60 0 87 44q11 18 11 31.5t-9.5 24.5t-27.5 11t-31 -3.5t-22 -7.5t-12 -5h-2q-9 0 -9 9z" />
    <glyph glyph-name="onesuperior" unicode="&#xb9;" horiz-adv-x="244" 
d="M206 773q8 0 8 -7q-25 -18 -43 -124.5t-18 -164.5q0 -6 -9 -6q-19 0 -19 37q0 78 14 147.5t37 99.5q-39 -15 -71 -53t-32 -75q0 -21 18 -21q0 -15 -16.5 -15t-25.5 11.5t-9 27.5q0 48 56.5 95.5t109.5 47.5z" />
    <glyph glyph-name="ordmasculine" unicode="&#xba;" horiz-adv-x="311" 
d="M111 453q-76 0 -76 104q0 56 29 112q36 72 88 72q10 0 15.5 -4.5t6.5 -12.5q-37 0 -64.5 -59.5t-27.5 -122.5t38 -63q34 0 67 73t33 155v8q-18 12 -29.5 29t-11.5 25.5t7 15.5t17.5 7t21 -20t14.5 -46q17 -10 30.5 -10t20.5 5q0 -22 -20 -22q-17 0 -29 4
q-2 -89 -40 -169.5t-90 -80.5z" />
    <glyph glyph-name="guillemotright" unicode="&#xbb;" horiz-adv-x="578" 
d="M497 226q2 -4 2 -9t-8 -11l-228 -145v32l178 137l-112 164v35q128 -149 168 -203zM284 226q3 -4 3 -9t-8 -11l-229 -145v32l179 137l-112 164v35q128 -149 167 -203z" />
    <glyph glyph-name="onequarter" unicode="&#xbc;" horiz-adv-x="988" 
d="M829 194q25 0 25 -35t-32 -63t-90 -31q-10 -64 -10 -113q0 -10 -11 -10q-28 0 -28 61q0 41 1 62q-53 2 -157 14q-20 -10 -39 -10q-41 0 -44 20q-2 16 21 23q8 3 19 3h10q50 56 71 225q3 27 3 60t-12 33v1q0 16 19 16q26 0 37 -65q5 -29 5 -66t-7 -83q-14 -85 -51 -130
q101 -14 126 -15q8 108 28 170.5t41.5 86.5t48.5 24q12 0 12 -12q-46 -61 -80 -269q61 6 76 49q9 26 -2 33q-2 1 -4 1q3 20 24 20zM315 713q18 0 18 -12q-40 -45 -75 -213.5t-35 -248.5q0 -10 -11 -10q-28 0 -28 59q0 126 23 236.5t60 159.5q-62 -25 -114 -87t-52 -120
q0 -33 20 -33q0 -22 -21.5 -22t-33.5 17t-12 44q0 74 94.5 152t166.5 78zM190 -89q-12 0 -12 16t24.5 66t168 365t156 340.5t30.5 25.5t18 -26q0 -28 -17 -62.5t-98 -193.5q-193 -383 -254 -515q-8 -16 -16 -16z" />
    <glyph glyph-name="onehalf" unicode="&#xbd;" horiz-adv-x="926" 
d="M565 340q-19 -30 -19 -52.5t16 -23.5q0 -13 -9 -23.5t-23 -10.5q-31 0 -31 34q0 55 56 111t128 56q109 0 109 -92q0 -40 -31 -91.5t-77 -98.5q-98 -100 -181 -149q3 0 76 -5t105.5 -5t51.5 10t24 20l5 10q14 0 11 -24q-3 -38 -42 -58q-23 -11 -65 -11t-117 21t-97 21
q-3 0 -4.5 5.5t0.5 11t5 5.5q20 0 85.5 63t125.5 149t60 136q0 53 -62.5 53t-99.5 -62zM315 713q18 0 18 -12q-40 -45 -75 -213.5t-35 -248.5q0 -10 -11 -10q-28 0 -28 59q0 126 23 236.5t60 159.5q-62 -25 -114 -87t-52 -120q0 -33 20 -33q0 -22 -21.5 -22t-33.5 17t-12 44
q0 74 94.5 152t166.5 78zM190 -89q-12 0 -12 16t24.5 66t168 365t156 340.5t30.5 25.5t18 -26q0 -28 -17 -62.5t-98 -193.5q-193 -383 -254 -515q-8 -16 -16 -16z" />
    <glyph glyph-name="threequarters" unicode="&#xbe;" horiz-adv-x="1032" 
d="M873 194q26 0 26 -35t-33 -63t-90 -31q-10 -75 -10 -113q0 -10 -10 -10q-29 0 -29 61q0 41 1 62q-49 2 -157 14q-18 -10 -43 -10t-35.5 11.5t1 23t35.5 11.5h9q51 53 72 225q3 27 3 60t-12 33v3q0 14 18 14q27 0 38 -65q5 -29 5 -65.5t-8 -83.5q-14 -85 -51 -130
q100 -14 127 -15q9 118 37.5 199.5t79.5 81.5q13 0 13 -12q-46 -61 -80 -269q60 6 76 49q9 26 -3 33q-2 1 -4 1q4 20 24 20zM222 501q96 -27 96 -123q0 -62 -50 -118q-61 -67 -159 -67q-54 0 -81 19t-27 33q0 22 22 35l7 4q0 -23 18.5 -45.5t60.5 -22.5q78 0 121 70
q25 42 25 84q0 20 -5 40q-22 75 -108 75q2 23 22 23q33 0 74.5 46.5t41.5 92.5q0 39 -51.5 39t-77.5 -43q-9 -16 -9 -26t4.5 -14t10.5 -4q-4 -35 -29 -35q-33 0 -33 36.5t44 75t106 38.5q80 0 91 -55q2 -9 2 -18q0 -42 -36 -82t-80 -58zM234 -89q-11 0 -11 16q0 17 24.5 67
t170 369.5t156 340t28 20.5t17.5 -25q0 -29 -17 -63.5t-98 -193.5q-193 -383 -254 -515q-8 -16 -16 -16z" />
    <glyph glyph-name="questiondown" unicode="&#xbf;" horiz-adv-x="492" 
d="M298 -190q32 47 32 80t-20 33v5q0 23 19 34q8 4 18 4q39 0 39 -45q0 -61 -58 -129q-78 -92 -186 -92q-69 0 -104.5 34t-35.5 88t33.5 110.5t80.5 103.5t94 90q115 105 115 160q0 11 17.5 11.5t17.5 -11.5q0 -56 -100 -172q-42 -47 -84 -97q-100 -121 -100 -207
q0 -78 84 -78t138 78zM359 484q24 0 24 -23q0 -22 -23 -75l-8 -19q-17 0 -26 29q-4 14 -4 29t4 29q9 30 33 30z" />
    <glyph glyph-name="Agrave" unicode="&#xc0;" 
d="M961 1005q36 -34 70 -75t34 -51t-11 -10t-46.5 26t-73.5 64q-16 14 -16 24t6.5 20t16.5 10t20 -8zM369 -14q-49 47 -49 141q0 105 69 217q38 62 103 102t142 40q34 0 73 -12q76 125 124 181t83 85q79 64 160 64q16 0 16 -16q-66 -145 -101.5 -292.5t-55 -287
t-19.5 -236.5q0 -14 -14 -14q-35 0 -35 80q0 101 -19 183q-35 156 -122 206q-11 -21 -41.5 -80t-45 -86.5t-43 -77t-48.5 -79.5q-48 -72 -104 -126q10 -3 24 -3q84 0 139 55.5t76 131.5q3 11 16 10q8 -1 6 -8q-22 -86 -83.5 -150.5t-154.5 -64.5q-21 0 -47 7
q-92 -74 -196 -74q-135 0 -192 106q-31 57 -31 123q0 35 9 73q24 103 98 147q37 22 81 22q14 0 23 -8.5t13 -26.5q-59 0 -106 -42q-79 -69 -79 -196q0 -77 46.5 -120.5t125 -43.5t159.5 70zM633 450q-84 0 -151 -55t-98 -128.5t-31 -148.5t38 -114q38 36 81 94.5t68 98.5
t78 130t69 116q-24 7 -54 7zM1022 765q-80 -21 -146 -99t-135 -207q97 -53 136 -212q18 170 58.5 312.5t86.5 205.5z" />
    <glyph glyph-name="Aacute" unicode="&#xc1;" 
d="M1143 958q-30 -36 -67 -69.5t-46.5 -33.5t-9.5 9.5t22.5 46t54.5 72.5q14 14 24 14t19.5 -5t9.5 -14t-7 -20zM369 -14q-49 47 -49 141q0 105 69 217q38 62 103 102t142 40q34 0 73 -12q76 125 124 181t83 85q79 64 160 64q16 0 16 -16q-66 -145 -101.5 -292.5t-55 -287
t-19.5 -236.5q0 -14 -14 -14q-35 0 -35 80q0 101 -19 183q-35 156 -122 206q-11 -21 -41.5 -80t-45 -86.5t-43 -77t-48.5 -79.5q-48 -72 -104 -126q10 -3 24 -3q84 0 139 55.5t76 131.5q3 11 16 10q8 -1 6 -8q-22 -86 -83.5 -150.5t-154.5 -64.5q-21 0 -47 7
q-92 -74 -196 -74q-135 0 -192 106q-31 57 -31 123q0 35 9 73q24 103 98 147q37 22 81 22q14 0 23 -8.5t13 -26.5q-59 0 -106 -42q-79 -69 -79 -196q0 -77 46.5 -120.5t125 -43.5t159.5 70zM633 450q-84 0 -151 -55t-98 -128.5t-31 -148.5t38 -114q38 36 81 94.5t68 98.5
t78 130t69 116q-24 7 -54 7zM1022 765q-80 -21 -146 -99t-135 -207q97 -53 136 -212q18 170 58.5 312.5t86.5 205.5z" />
    <glyph glyph-name="Acircumflex" unicode="&#xc2;" 
d="M1060 975q8 0 12 -8l59 -118h-28l-46 77l-130 -77h-29q96 80 144 118q10 8 18 8zM369 -14q-49 47 -49 141q0 105 69 217q38 62 103 102t142 40q34 0 73 -12q76 125 124 181t83 85q79 64 160 64q16 0 16 -16q-66 -145 -101.5 -292.5t-55 -287t-19.5 -236.5q0 -14 -14 -14
q-35 0 -35 80q0 101 -19 183q-35 156 -122 206q-11 -21 -41.5 -80t-45 -86.5t-43 -77t-48.5 -79.5q-48 -72 -104 -126q10 -3 24 -3q84 0 139 55.5t76 131.5q3 11 16 10q8 -1 6 -8q-22 -86 -83.5 -150.5t-154.5 -64.5q-21 0 -47 7q-92 -74 -196 -74q-135 0 -192 106
q-31 57 -31 123q0 35 9 73q24 103 98 147q37 22 81 22q14 0 23 -8.5t13 -26.5q-59 0 -106 -42q-79 -69 -79 -196q0 -77 46.5 -120.5t125 -43.5t159.5 70zM633 450q-84 0 -151 -55t-98 -128.5t-31 -148.5t38 -114q38 36 81 94.5t68 98.5t78 130t69 116q-24 7 -54 7zM1022 765
q-80 -21 -146 -99t-135 -207q97 -53 136 -212q18 170 58.5 312.5t86.5 205.5z" />
    <glyph glyph-name="Atilde" unicode="&#xc3;" 
d="M966 909q-25 0 -48 -41h-32q8 25 27 43q37 35 74 35q18 0 45.5 -23.5t50 -23.5t42.5 36h30q-2 -3 -4.5 -8.5t-12 -19t-20.5 -23.5q-27 -28 -53 -28t-55.5 26.5t-43.5 26.5zM369 -14q-49 47 -49 141q0 105 69 217q38 62 103 102t142 40q34 0 73 -12q76 125 124 181t83 85
q79 64 160 64q16 0 16 -16q-66 -145 -101.5 -292.5t-55 -287t-19.5 -236.5q0 -14 -14 -14q-35 0 -35 80q0 101 -19 183q-35 156 -122 206q-11 -21 -41.5 -80t-45 -86.5t-43 -77t-48.5 -79.5q-48 -72 -104 -126q10 -3 24 -3q84 0 139 55.5t76 131.5q3 11 16 10q8 -1 6 -8
q-22 -86 -83.5 -150.5t-154.5 -64.5q-21 0 -47 7q-92 -74 -196 -74q-135 0 -192 106q-31 57 -31 123q0 35 9 73q24 103 98 147q37 22 81 22q14 0 23 -8.5t13 -26.5q-59 0 -106 -42q-79 -69 -79 -196q0 -77 46.5 -120.5t125 -43.5t159.5 70zM633 450q-84 0 -151 -55
t-98 -128.5t-31 -148.5t38 -114q38 36 81 94.5t68 98.5t78 130t69 116q-24 7 -54 7zM1022 765q-80 -21 -146 -99t-135 -207q97 -53 136 -212q18 170 58.5 312.5t86.5 205.5z" />
    <glyph glyph-name="Adieresis" unicode="&#xc4;" 
d="M969 856q-21 0 -21 40q0 24 13 51t37 27q20 0 20 -23q0 -24 -36 -77zM1112 856q-21 0 -21 41q0 24 12.5 50.5t36.5 26.5q21 0 21 -23q0 -21 -37 -77zM369 -14q-49 47 -49 141q0 105 69 217q38 62 103 102t142 40q34 0 73 -12q76 125 124 181t83 85q79 64 160 64
q16 0 16 -16q-66 -145 -101.5 -292.5t-55 -287t-19.5 -236.5q0 -14 -14 -14q-35 0 -35 80q0 101 -19 183q-35 156 -122 206q-11 -21 -41.5 -80t-45 -86.5t-43 -77t-48.5 -79.5q-48 -72 -104 -126q10 -3 24 -3q84 0 139 55.5t76 131.5q3 11 16 10q8 -1 6 -8
q-22 -86 -83.5 -150.5t-154.5 -64.5q-21 0 -47 7q-92 -74 -196 -74q-135 0 -192 106q-31 57 -31 123q0 35 9 73q24 103 98 147q37 22 81 22q14 0 23 -8.5t13 -26.5q-59 0 -106 -42q-79 -69 -79 -196q0 -77 46.5 -120.5t125 -43.5t159.5 70zM633 450q-84 0 -151 -55
t-98 -128.5t-31 -148.5t38 -114q38 36 81 94.5t68 98.5t78 130t69 116q-24 7 -54 7zM1022 765q-80 -21 -146 -99t-135 -207q97 -53 136 -212q18 170 58.5 312.5t86.5 205.5z" />
    <glyph glyph-name="Aring" unicode="&#xc5;" 
d="M979.5 982q20.5 21 51 21t51.5 -21t21 -51t-21 -51t-51.5 -21t-51 21.5t-20.5 51t20.5 50.5zM1029 891q17 0 29.5 12t12.5 29t-12.5 29t-29.5 12t-29 -12t-12 -29t12 -29t29 -12zM369 -14q-49 47 -49 141q0 105 69 217q38 62 103 102t142 40q34 0 73 -12q76 125 124 181
t83 85q79 64 160 64q16 0 16 -16q-66 -145 -101.5 -292.5t-55 -287t-19.5 -236.5q0 -14 -14 -14q-35 0 -35 80q0 101 -19 183q-35 156 -122 206q-11 -21 -41.5 -80t-45 -86.5t-43 -77t-48.5 -79.5q-48 -72 -104 -126q10 -3 24 -3q84 0 139 55.5t76 131.5q3 11 16 10
q8 -1 6 -8q-22 -86 -83.5 -150.5t-154.5 -64.5q-21 0 -47 7q-92 -74 -196 -74q-135 0 -192 106q-31 57 -31 123q0 35 9 73q24 103 98 147q37 22 81 22q14 0 23 -8.5t13 -26.5q-59 0 -106 -42q-79 -69 -79 -196q0 -77 46.5 -120.5t125 -43.5t159.5 70zM633 450
q-84 0 -151 -55t-98 -128.5t-31 -148.5t38 -114q38 36 81 94.5t68 98.5t78 130t69 116q-24 7 -54 7zM1022 765q-80 -21 -146 -99t-135 -207q97 -53 136 -212q18 170 58.5 312.5t86.5 205.5z" />
    <glyph glyph-name="AE" unicode="&#xc6;" horiz-adv-x="1459" 
d="M826 80l2 65q0 213 -104 280q-88 -167 -105.5 -199t-50.5 -87q-59 -96 -126 -161q21 -3 24 -3q84 0 139 55.5t76 131.5q3 11 16 10q8 -1 6 -8q-22 -86 -83.5 -150.5t-154.5 -64.5q-21 0 -47 7q-92 -74 -196 -74q-135 0 -192 106q-31 57 -31 123q0 35 9 73q24 103 98 147
q37 22 81 22q14 0 23 -8.5t13 -26.5q-59 0 -106 -42q-79 -69 -79 -196q0 -77 46.5 -120.5t125 -43.5t159.5 70q-49 47 -49 141q0 105 69 217q38 62 103 102t142 40q34 0 72 -12q88 144 170 230q93 100 198 100q2 0 2 -8t-1 -24q-104 0 -188 -94q-42 -47 -74.5 -97
t-72.5 -123q98 -59 115 -247q40 95 122 168t192 97q-80 29 -80 100t66 130q76 68 184 68q19 0 28 -14t9 -28l-1 -13q-8 4 -35 4q-90 0 -153 -64q-43 -45 -43 -88q0 -84 125 -84q11 0 18.5 -6.5t11.5 -19.5q-172 0 -289 -133q-110 -124 -110 -275q0 -87 50 -134
q39 -38 102 -38q142 0 218 120q50 78 50 164q0 94 -47 111q-8 3 -17 3q13 23 48 23q49 0 64 -65q5 -24 5 -50q0 -61 -30 -134q-54 -126 -163 -177q-60 -28 -129 -28q-121 0 -173 68t-52 164zM633 450q-84 0 -151 -55t-98 -128.5t-31 -148.5t38 -114q63 60 149 192
q41 65 147 246q-21 8 -54 8zM1410 548q0 -5 -9 -5q-26 0 -26 15q0 102 23 164.5t61 62.5q9 0 16.5 -7.5t7.5 -18.5q-46 -46 -65 -134q-8 -37 -8 -77z" />
    <glyph glyph-name="Ccedilla" unicode="&#xc7;" horiz-adv-x="605" 
d="M519 726q-138 0 -247 -161q-94 -139 -123 -324q-10 -61 -10 -112q0 -98 36 -157.5t101 -59.5q88 0 150 101q42 68 42 120q0 23 -12 23q6 23 30 23q28 0 28 -40q0 -75 -66 -160q-79 -101 -185 -101q-18 0 -40 5l-38 -69q26 13 59 13q50 0 60 -38q1 -7 1 -15
q0 -29 -33.5 -59.5t-91 -30.5t-63.5 31q-4 21 13 30q4 2 10 2q10 0 14 -12q-14 0 -16 -15q-2 -23 35 -23q59 0 87 44q11 18 11 32t-9.5 25t-27.5 11t-31 -3.5t-22 -8t-12 -5.5h-2q-10 0 -10 8.5t12 32.5t34 54q-86 26 -121 126q-22 61 -22 119q0 163 86 355
q54 122 155 204.5t216 82.5q20 0 29 -13t8 -25v-13q-8 3 -35 3zM579 514q0 -5 -12 -5l-13 3q-9 4 -9 11q0 102 23 164.5t60 62.5q10 0 17 -7t7 -19q-46 -46 -65 -134q-8 -36 -8 -76z" />
    <glyph glyph-name="Egrave" unicode="&#xc8;" horiz-adv-x="632" 
d="M453 970q37 -34 70.5 -75.5t33.5 -50.5t-10.5 -9t-47 26t-74.5 63q-14 14 -14 24.5t6 21t16 10.5t20 -10zM477 302q49 0 64 -65q6 -24 6 -50q0 -61 -31 -134q-54 -126 -163 -177q-60 -28 -129 -28q-148 0 -202 108q-25 50 -25 107t21 119q46 136 164 222q73 52 161 72
q-80 29 -80 100t71 134.5t179 63.5q18 0 27 -14t8 -28v-13q-8 4 -34 4q-91 0 -153 -64q-44 -45 -44 -89q0 -83 125 -83q11 0 18.5 -6.5t12.5 -19.5q-173 0 -290 -133q-110 -124 -110 -276q0 -86 50 -133q39 -38 102 -38q142 0 218 120q50 78 50 164q0 94 -47 111q-8 3 -17 3
q13 23 48 23zM583 548q0 -5 -9 -5t-17.5 4t-8.5 11q0 102 23 164.5t61 62.5q10 0 17 -7.5t7 -18.5q-46 -46 -65 -134q-8 -37 -8 -77z" />
    <glyph glyph-name="Eacute" unicode="&#xc9;" horiz-adv-x="632" 
d="M620 925q-28 -35 -65 -69t-47 -34t-10 8q0 12 22.5 48t54.5 72q12 14 22.5 14t20 -5t9.5 -14t-7 -20zM477 302q49 0 64 -65q6 -24 6 -50q0 -61 -31 -134q-54 -126 -163 -177q-60 -28 -129 -28q-148 0 -202 108q-25 50 -25 107t21 119q46 136 164 222q73 52 161 72
q-80 29 -80 100t71 134.5t179 63.5q18 0 27 -14t8 -28v-13q-8 4 -34 4q-91 0 -153 -64q-44 -45 -44 -89q0 -83 125 -83q11 0 18.5 -6.5t12.5 -19.5q-173 0 -290 -133q-110 -124 -110 -276q0 -86 50 -133q39 -38 102 -38q142 0 218 120q50 78 50 164q0 94 -47 111q-8 3 -17 3
q13 23 48 23zM583 548q0 -5 -9 -5t-17.5 4t-8.5 11q0 102 23 164.5t61 62.5q10 0 17 -7.5t7 -18.5q-46 -46 -65 -134q-8 -37 -8 -77z" />
    <glyph glyph-name="Ecircumflex" unicode="&#xca;" horiz-adv-x="632" 
d="M535 950q7 0 11 -8l60 -118h-28l-46 77l-130 -77h-29q96 80 144 118q11 8 18 8zM477 302q49 0 64 -65q6 -24 6 -50q0 -61 -31 -134q-54 -126 -163 -177q-60 -28 -129 -28q-148 0 -202 108q-25 50 -25 107t21 119q46 136 164 222q73 52 161 72q-80 29 -80 100t71 134.5
t179 63.5q18 0 27 -14t8 -28v-13q-8 4 -34 4q-91 0 -153 -64q-44 -45 -44 -89q0 -83 125 -83q11 0 18.5 -6.5t12.5 -19.5q-173 0 -290 -133q-110 -124 -110 -276q0 -86 50 -133q39 -38 102 -38q142 0 218 120q50 78 50 164q0 94 -47 111q-8 3 -17 3q13 23 48 23zM583 548
q0 -5 -9 -5t-17.5 4t-8.5 11q0 102 23 164.5t61 62.5q10 0 17 -7.5t7 -18.5q-46 -46 -65 -134q-8 -37 -8 -77z" />
    <glyph glyph-name="Edieresis" unicode="&#xcb;" horiz-adv-x="632" 
d="M413 819q-21 0 -21 40q0 24 12.5 50.5t36.5 26.5q21 0 21 -23q0 -12 -12 -35.5t-24 -41.5zM555 819q-21 0 -21 40q0 24 13 50.5t37 26.5q20 0 20 -23q0 -12 -12 -35.5t-24 -41.5zM477 302q49 0 64 -65q6 -24 6 -50q0 -61 -31 -134q-54 -126 -163 -177q-60 -28 -129 -28
q-148 0 -202 108q-25 50 -25 107t21 119q46 136 164 222q73 52 161 72q-80 29 -80 100t71 134.5t179 63.5q18 0 27 -14t8 -28v-13q-8 4 -34 4q-91 0 -153 -64q-44 -45 -44 -89q0 -83 125 -83q11 0 18.5 -6.5t12.5 -19.5q-173 0 -290 -133q-110 -124 -110 -276q0 -86 50 -133
q39 -38 102 -38q142 0 218 120q50 78 50 164q0 94 -47 111q-8 3 -17 3q13 23 48 23zM583 548q0 -5 -9 -5t-17.5 4t-8.5 11q0 102 23 164.5t61 62.5q10 0 17 -7.5t7 -18.5q-46 -46 -65 -134q-8 -37 -8 -77z" />
    <glyph glyph-name="Igrave" unicode="&#xcc;" horiz-adv-x="587" 
d="M472 943q37 -34 70.5 -74.5t33.5 -50.5t-11.5 -10t-46.5 25.5t-74 63.5q-15 14 -15 24.5t6 20.5t16 10t21 -9zM589 762q16 0 19 -12l1 -4q-29 0 -49.5 -37t-30.5 -97.5t-22 -138t-22.5 -158.5t-33.5 -158.5t-53.5 -138t-84.5 -97.5t-128 -37t-121.5 44t-54.5 107
q-2 21 -2 52.5t11.5 84t55 96.5t99.5 44q15 0 23.5 -9t11.5 -27q-90 0 -142 -89q-33 -58 -33 -116q0 -31 10 -63q28 -89 131 -89q56 0 98.5 36.5t68.5 98t45 137t33 157.5t27 155q33 174 81 228q-78 -27 -141.5 -85.5t-63.5 -127.5q0 -31 21 -31q-2 -14 -20.5 -14t-33 15
t-14.5 43q0 59 58.5 114.5t131 86t124.5 30.5z" />
    <glyph glyph-name="Iacute" unicode="&#xcd;" horiz-adv-x="587" 
d="M620 896q-28 -35 -65 -68.5t-47 -33.5t-10 8q0 12 23 48.5t44.5 61t32.5 24.5q29 0 29 -20q0 -9 -7 -20zM589 762q16 0 19 -12l1 -4q-29 0 -49.5 -37t-30.5 -97.5t-22 -138t-22.5 -158.5t-33.5 -158.5t-53.5 -138t-84.5 -97.5t-128 -37t-121.5 44t-54.5 107
q-2 21 -2 52.5t11.5 84t55 96.5t99.5 44q15 0 23.5 -9t11.5 -27q-90 0 -142 -89q-33 -58 -33 -116q0 -31 10 -63q28 -89 131 -89q56 0 98.5 36.5t68.5 98t45 137t33 157.5t27 155q33 174 81 228q-78 -27 -141.5 -85.5t-63.5 -127.5q0 -31 21 -31q-2 -14 -20.5 -14t-33 15
t-14.5 43q0 59 58.5 114.5t131 86t124.5 30.5z" />
    <glyph glyph-name="Icircumflex" unicode="&#xce;" horiz-adv-x="587" 
d="M562.5 922q8.5 0 12.5 -8l60 -117h-29l-45 76l-130 -76h-30q97 80 145 117q8 8 16.5 8zM589 762q16 0 19 -12l1 -4q-29 0 -49.5 -37t-30.5 -97.5t-22 -138t-22.5 -158.5t-33.5 -158.5t-53.5 -138t-84.5 -97.5t-128 -37t-121.5 44t-54.5 107q-2 21 -2 52.5t11.5 84
t55 96.5t99.5 44q15 0 23.5 -9t11.5 -27q-90 0 -142 -89q-33 -58 -33 -116q0 -31 10 -63q28 -89 131 -89q56 0 98.5 36.5t68.5 98t45 137t33 157.5t27 155q33 174 81 228q-78 -27 -141.5 -85.5t-63.5 -127.5q0 -31 21 -31q-2 -14 -20.5 -14t-33 15t-14.5 43q0 59 58.5 114.5
t131 86t124.5 30.5z" />
    <glyph glyph-name="Idieresis" unicode="&#xcf;" horiz-adv-x="587" 
d="M450 814q-21 0 -21 40q0 24 13 51t37 27q20 0 20 -23q0 -21 -37 -77zM593 814q-21 0 -21 40q0 24 12.5 51t36.5 27q21 0 21 -23q0 -24 -36 -77zM589 762q16 0 19 -12l1 -4q-29 0 -49.5 -37t-30.5 -97.5t-22 -138t-22.5 -158.5t-33.5 -158.5t-53.5 -138t-84.5 -97.5
t-128 -37t-121.5 44t-54.5 107q-2 21 -2 52.5t11.5 84t55 96.5t99.5 44q15 0 23.5 -9t11.5 -27q-90 0 -142 -89q-33 -58 -33 -116q0 -31 10 -63q28 -89 131 -89q56 0 98.5 36.5t68.5 98t45 137t33 157.5t27 155q33 174 81 228q-78 -27 -141.5 -85.5t-63.5 -127.5
q0 -31 21 -31q-2 -14 -20.5 -14t-33 15t-14.5 43q0 59 58.5 114.5t131 86t124.5 30.5z" />
    <glyph glyph-name="Eth" unicode="&#xd0;" horiz-adv-x="750" 
d="M44 478q-37 0 -37 52t54 116q90 108 250 125l55 3q182 0 264 -145q49 -89 49 -205q0 -48 -8 -101q-29 -178 -138 -302q-120 -137 -279.5 -137t-202.5 89q-13 28 -13 59.5t17 66.5q33 64 90 64q5 0 6.5 -5.5t-1 -11.5t-7.5 -6q-34 0 -59 -44q-16 -31 -16 -57t10 -48
q32 -68 153 -68q137 0 248 140q100 126 129 296q10 55 10 104q0 109 -49 184q-65 101 -204 101q-174 0 -261 -117q-44 -60 -44 -112q0 -21 9 -21q-6 -20 -25 -20zM409 374q-3 0 -130 -5q-47 -232 -47 -337q0 -13 -14 -13q-30 0 -30 80q0 135 21 267q-64 -2 -80 -2
q-29 0 -33 20q1 15 12 18q4 -6 21 -6h85q25 136 65.5 222.5t78.5 86.5q16 0 16 -16q-48 -100 -89 -292q53 1 136 1q8 0 8 -8q0 -16 -20 -16z" />
    <glyph glyph-name="Ntilde" unicode="&#xd1;" horiz-adv-x="693" 
d="M398 871q-25 0 -48 -41h-31q8 25 27 44q35 35 73 35q18 0 45.5 -23.5t43.5 -23.5t27.5 8.5t21.5 26.5h30q-13 -29 -41 -53.5t-51.5 -24.5t-53 26t-43.5 26zM528 26q0 -139 62 -139q38 0 68 59q5 10 17 6q6 -2 3 -8.5t-8 -16t-17.5 -29t-31 -32t-38.5 -12.5
q-121 0 -121 191q0 197 129 613l16 51q2 8 -4.5 8t-12.5 -5q-56 -49 -119.5 -144.5t-116.5 -201.5q-98 -194 -142 -302.5t-73 -108.5q-21 0 -21 22v2q12 27 46 149q60 213 68 380q1 12 1 22q0 65 -23 113t-81 48t-83 -53q-8 -17 -8 -29t7 -12q-2 -14 -23 -14t-21 27
q0 41 41.5 73t102.5 32q145 0 145 -264q0 -57 -10 -116h9q232 441 359 441q45 0 45 -50q-31 -77 -69 -210q-96 -328 -96 -490z" />
    <glyph glyph-name="Ograve" unicode="&#xd2;" horiz-adv-x="684" 
d="M416 962q37 -36 70.5 -76.5t33.5 -49.5t-11 -9t-46.5 25.5t-74.5 63.5q-15 14 -15 24.5t6 20.5t16 10t21 -9zM564 468q0 183 -83 183q0 7 7 13q13 11 32 11q67 0 88 -104q9 -42 9 -89q0 -89 -31 -198q-52 -187 -157 -279q-72 -63 -155 -63q-135 0 -183 137
q-23 64 -23 142t22 169q45 181 147 290q88 94 189 94q28 0 43 -12.5t15 -25.5l1 -12q-10 4 -37 4q-108 0 -191.5 -138t-102.5 -311q-5 -44 -5 -81q0 -114 45 -175q36 -47 94 -47q121 0 198.5 165.5t77.5 326.5z" />
    <glyph glyph-name="Oacute" unicode="&#xd3;" horiz-adv-x="684" 
d="M575 928q-30 -36 -66 -69t-46 -33t-10 10t23 46.5t44.5 61t32 24.5t19.5 -4.5t9 -14t-6 -21.5zM564 468q0 183 -83 183q0 7 7 13q13 11 32 11q67 0 88 -104q9 -42 9 -89q0 -89 -31 -198q-52 -187 -157 -279q-72 -63 -155 -63q-135 0 -183 137q-23 64 -23 142t22 169
q45 181 147 290q88 94 189 94q28 0 43 -12.5t15 -25.5l1 -12q-10 4 -37 4q-108 0 -191.5 -138t-102.5 -311q-5 -44 -5 -81q0 -114 45 -175q36 -47 94 -47q121 0 198.5 165.5t77.5 326.5z" />
    <glyph glyph-name="Ocircumflex" unicode="&#xd4;" horiz-adv-x="684" 
d="M519.5 944q8.5 0 11.5 -7l60 -117h-29l-45 76l-130 -76h-29q96 80 144 117q9 7 17.5 7zM564 468q0 183 -83 183q0 7 7 13q13 11 32 11q67 0 88 -104q9 -42 9 -89q0 -89 -31 -198q-52 -187 -157 -279q-72 -63 -155 -63q-135 0 -183 137q-23 64 -23 142t22 169
q45 181 147 290q88 94 189 94q28 0 43 -12.5t15 -25.5l1 -12q-10 4 -37 4q-108 0 -191.5 -138t-102.5 -311q-5 -44 -5 -81q0 -114 45 -175q36 -47 94 -47q121 0 198.5 165.5t77.5 326.5z" />
    <glyph glyph-name="Otilde" unicode="&#xd5;" horiz-adv-x="684" 
d="M496 895.5q28 -23.5 50 -23.5t42 36h31q-2 -3 -4.5 -8.5t-12.5 -19t-20 -24.5q-28 -27 -54 -27t-55.5 26.5t-42.5 26.5t-25 -10t-24 -31h-31q16 47 62 69q18 9 37 9t47 -23.5zM564 468q0 183 -83 183q0 7 7 13q13 11 32 11q67 0 88 -104q9 -42 9 -89q0 -89 -31 -198
q-52 -187 -157 -279q-72 -63 -155 -63q-135 0 -183 137q-23 64 -23 142t22 169q45 181 147 290q88 94 189 94q28 0 43 -12.5t15 -25.5l1 -12q-10 4 -37 4q-108 0 -191.5 -138t-102.5 -311q-5 -44 -5 -81q0 -114 45 -175q36 -47 94 -47q121 0 198.5 165.5t77.5 326.5z" />
    <glyph glyph-name="Odieresis" unicode="&#xd6;" horiz-adv-x="684" 
d="M424 816q-21 0 -21 40q0 24 12.5 51t36.5 27q21 0 21 -24q0 -20 -37 -76zM566 816q-21 0 -21 40q0 24 13 51t37 27q20 0 20 -24q0 -20 -37 -76zM564 468q0 183 -83 183q0 7 7 13q13 11 32 11q67 0 88 -104q9 -42 9 -89q0 -89 -31 -198q-52 -187 -157 -279
q-72 -63 -155 -63q-135 0 -183 137q-23 64 -23 142t22 169q45 181 147 290q88 94 189 94q28 0 43 -12.5t15 -25.5l1 -12q-10 4 -37 4q-108 0 -191.5 -138t-102.5 -311q-5 -44 -5 -81q0 -114 45 -175q36 -47 94 -47q121 0 198.5 165.5t77.5 326.5z" />
    <glyph glyph-name="multiply" unicode="&#xd7;" horiz-adv-x="587" 
d="M65 6q-6 -6 -11 -6t-5 12t17.5 32.5t173.5 207.5q-16 27 -43 73t-47 80t-31 53q-14 22 5 22q21 0 45 -37q7 -13 91 -168q87 107 172 205q6 6 10.5 6t7.5 -5.5t3 -11.5q0 -18 -30 -54.5t-148 -167.5q58 -111 103 -189q9 -14 -2 -14q-15 0 -35 34q-40 74 -86 146
q-150 -169 -190 -218z" />
    <glyph glyph-name="Oslash" unicode="&#xd8;" horiz-adv-x="684" 
d="M525 674q94 -6 94 -193q0 -163 -86 -337t-222 -198q-11 -36 -25 -83t-16.5 -54t-7.5 -7q-3 0 -10 3.5t-7 14.5t3 20q21 71 30 102h-4q-135 0 -183 137q-23 64 -23 142t22 169q45 181 147 290q88 94 189 94q28 0 43 -12.5t15 -25.5l1 -12q-10 4 -37 4
q-108 0 -191.5 -138.5t-103.5 -311.5q-5 -43 -5 -80q0 -114 46 -175q35 -46 93 -47q235 831 252 899q3 10 11 10q3 0 7 -2q17 -6 17 -27q0 -14 -20 -82t-29 -100zM514 208q28 86 38 154t10 108q0 131 -48 169q-97 -336 -194 -659q62 14 114 78t80 150z" />
    <glyph glyph-name="Ugrave" unicode="&#xd9;" horiz-adv-x="767" 
d="M516 836q36 -34 70 -75t34 -51t-11 -10t-46 25.5t-62.5 51.5t-27.5 36.5t6.5 20.5t16.5 10t20 -8zM611 36q0 -149 53 -149q28 0 57 59q5 10 13 7.5t8 -6t-10 -25.5t-31.5 -45t-43.5 -23q-104 0 -104 207q0 108 19 229h-10q-153 -290 -236 -290q-101 0 -101 120
q0 48 29.5 145.5t59.5 201.5t30 161q0 120 -98 120q-91 0 -136 -104q-30 -70 -30 -140q0 -34 7 -68q22 -104 93 -104q-7 -14 -19 -14q-90 0 -117 114q-9 36 -9 72q0 77 39 155q58 114 171 114q87 0 126.5 -48.5t39.5 -126t-56 -263t-56 -243t39 -57.5q32 0 96 98
q105 163 184 353q31 75 65 75q22 0 22 -23q-43 -102 -68.5 -246.5t-25.5 -255.5z" />
    <glyph glyph-name="Uacute" unicode="&#xda;" horiz-adv-x="767" 
d="M681 803q-30 -36 -67 -69.5t-46.5 -33.5t-9.5 9.5t22.5 46t54.5 72.5q13 15 23.5 15t17.5 -5q12 -6 12 -15t-7 -20zM611 36q0 -149 53 -149q28 0 57 59q5 10 13 7.5t8 -6t-10 -25.5t-31.5 -45t-43.5 -23q-104 0 -104 207q0 108 19 229h-10q-153 -290 -236 -290
q-101 0 -101 120q0 48 29.5 145.5t59.5 201.5t30 161q0 120 -98 120q-91 0 -136 -104q-30 -70 -30 -140q0 -34 7 -68q22 -104 93 -104q-7 -14 -19 -14q-90 0 -117 114q-9 36 -9 72q0 77 39 155q58 114 171 114q87 0 126.5 -48.5t39.5 -126t-56 -263t-56 -243t39 -57.5
q32 0 96 98q105 163 184 353q31 75 65 75q22 0 22 -23q-43 -102 -68.5 -246.5t-25.5 -255.5z" />
    <glyph glyph-name="Ucircumflex" unicode="&#xdb;" horiz-adv-x="767" 
d="M615.5 866q8.5 0 11.5 -7l60 -118h-28l-46 77l-130 -77h-29q96 80 144 118q9 7 17.5 7zM611 36q0 -149 53 -149q28 0 57 59q5 10 13 7.5t8 -6t-10 -25.5t-31.5 -45t-43.5 -23q-104 0 -104 207q0 108 19 229h-10q-153 -290 -236 -290q-101 0 -101 120q0 48 29.5 145.5
t59.5 201.5t30 161q0 120 -98 120q-91 0 -136 -104q-30 -70 -30 -140q0 -34 7 -68q22 -104 93 -104q-7 -14 -19 -14q-90 0 -117 114q-9 36 -9 72q0 77 39 155q58 114 171 114q87 0 126.5 -48.5t39.5 -126t-56 -263t-56 -243t39 -57.5q32 0 96 98q105 163 184 353
q31 75 65 75q22 0 22 -23q-43 -102 -68.5 -246.5t-25.5 -255.5z" />
    <glyph glyph-name="Udieresis" unicode="&#xdc;" horiz-adv-x="767" 
d="M488 712q-21 0 -21 40q0 23 12.5 50t36.5 27q21 0 21 -23q0 -20 -37 -76zM630 712q-21 0 -21 39q0 24 13 51t37 27q20 0 20 -23q0 -20 -37 -76zM611 36q0 -149 53 -149q28 0 57 59q5 10 13 7.5t8 -6t-10 -25.5t-31.5 -45t-43.5 -23q-104 0 -104 207q0 108 19 229h-10
q-153 -290 -236 -290q-101 0 -101 120q0 48 29.5 145.5t59.5 201.5t30 161q0 120 -98 120q-91 0 -136 -104q-30 -70 -30 -140q0 -34 7 -68q22 -104 93 -104q-7 -14 -19 -14q-90 0 -117 114q-9 36 -9 72q0 77 39 155q58 114 171 114q87 0 126.5 -48.5t39.5 -126t-56 -263
t-56 -243t39 -57.5q32 0 96 98q105 163 184 353q31 75 65 75q22 0 22 -23q-43 -102 -68.5 -246.5t-25.5 -255.5z" />
    <glyph glyph-name="Yacute" unicode="&#xdd;" horiz-adv-x="747" 
d="M667 800q-29 -35 -66 -68.5t-47 -33.5t-10 8q0 11 23 47.5t54 71.5q13 15 23.5 15t20 -5t9.5 -14.5t-7 -20.5zM221 -303q69 0 123.5 36t86.5 78t61 130t39.5 135t21 102t11.5 59t2 9.5l3 16.5t8 41h-7q-140 -272 -226 -272q-100 0 -100 120q0 54 50 228.5t50 253.5
q0 51 -23.5 82.5t-74.5 31.5q-91 0 -136 -104q-30 -70 -30 -140q0 -34 7 -68q22 -104 93 -104q-7 -14 -19 -14q-90 0 -117 114q-9 36 -9 72q0 77 39 155q58 114 171 114q87 0 126.5 -48.5t39.5 -126t-46.5 -247t-46.5 -227t39 -57.5q33 0 93 95q98 151 170 329q28 70 63 70
q22 0 22 -23q-35 -85 -70 -285q-41 -234 -85 -335q-19 -44 -51 -94.5t-69.5 -80t-91 -49.5t-116.5 -20q-153 0 -215 104q-29 50 -29 107q0 31 9 64q23 84 87 115q27 13 48 13q33 0 39 -19l2 -7q-69 0 -108 -72q-25 -47 -25 -86q0 -149 120 -186q32 -10 71 -10z" />
    <glyph glyph-name="Thorn" unicode="&#xde;" horiz-adv-x="503" 
d="M57 417q-36 -15 -49.5 -34.5t-13.5 -30.5q0 -40 59 -47q33 184 64 315q8 37 21 55.5t26 18.5q16 0 15 -18q-21 -105 -77 -371q12 1 36 5q50 161 97 257q48 98 96 145q62 61 127 61q84 0 102 -73q5 -18 5 -38q0 -64 -47 -142q-73 -123 -209 -189q-71 -35 -150 -47
q-10 -27 -23.5 -66.5t-22 -64t-19.5 -54.5t-19 -48.5t-17 -35.5q-16 -32 -28 -32q-21 0 -21 40.5t39 255.5q-44 4 -66.5 23.5t-22.5 43.5t23 51t63 46zM493 685q0 52 -40 55q-83 0 -159 -138q-63 -117 -124 -286q145 37 244 173q71 97 79 182v14zM85 175q11 0 43 105l-32 -2
q-18 -90 -17.5 -96.5t6.5 -6.5z" />
    <glyph glyph-name="germandbls" unicode="&#xdf;" horiz-adv-x="402" 
d="M190 23q40 0 59 32.5t19 74.5t-22 75t-44 64.5t-22 69t24.5 74t53.5 60t53.5 57t24.5 67.5t-17 54.5t-46 20.5q-56 0 -91 -51.5t-51.5 -133.5t-28.5 -181.5t-30 -199.5t-48 -182t-90.5 -133.5t-149.5 -51.5q-107 0 -140 73q-11 26 -11 52.5t15 53.5q24 46 68 46
q20 0 28 -15l2 -5q-44 0 -63 -46q-8 -21 -8 -44t16 -48q28 -43 94 -43t113 51.5t72.5 133.5t44 181.5t36.5 199t42.5 181.5t69.5 133.5t106 51.5t91.5 -28.5t30.5 -66.5t-19 -65.5t-45.5 -49t-53.5 -43t-46 -48t-19 -55.5t17.5 -55.5t38.5 -45.5t38.5 -49t17.5 -71.5
t-36.5 -79t-95 -37.5t-78.5 47q-9 23 -9 46.5t11 48.5q23 47 63 47q25 0 25 -21q-39 -13 -56 -53q-7 -16 -7 -35q0 -58 53 -58z" />
    <glyph glyph-name="agrave" unicode="&#xe0;" horiz-adv-x="478" 
d="M233 684q37 -34 70.5 -74.5t33.5 -50.5t-11 -10t-46 25.5t-74 63.5q-15 14 -15 24.5t6 21t15.5 10.5t20.5 -10zM84 0q-82 0 -82 129q0 77 38 169q53 129 139 176q37 20 69 20t50.5 -14t23.5 -28l6 -13q-3 -17 -17 -17q-16 0 -18.5 7.5t-5.5 13t-14 15t-25 9.5
q-65 0 -118 -117q-60 -135 -60 -254q0 -60 24 -60q19 0 53.5 42.5t72.5 106.5q66 110 107 191q34 72 70 72q19 0 19 -23q-9 -19 -23 -54t-37 -139t-23 -207t31 -103q12 0 22 10.5t18 31.5q3 11 14 11q4 0 6 -3t0 -10t-7 -19.5t-21.5 -33.5t-34.5 -21q-42 0 -64.5 55
t-22.5 130t11 144h-10q-127 -217 -191 -217z" />
    <glyph glyph-name="aacute" unicode="&#xe1;" horiz-adv-x="478" 
d="M372 653q-30 -36 -66 -69t-46 -33t-10 10t23 46.5t44.5 61t32.5 24.5q29 0 29 -20q0 -9 -7 -20zM84 0q-82 0 -82 129q0 77 38 169q53 129 139 176q37 20 69 20t50.5 -14t23.5 -28l6 -13q-3 -17 -17 -17q-16 0 -18.5 7.5t-5.5 13t-14 15t-25 9.5q-65 0 -118 -117
q-60 -135 -60 -254q0 -60 24 -60q19 0 53.5 42.5t72.5 106.5q66 110 107 191q34 72 70 72q19 0 19 -23q-9 -19 -23 -54t-37 -139t-23 -207t31 -103q12 0 22 10.5t18 31.5q3 11 14 11q4 0 6 -3t0 -10t-7 -19.5t-21.5 -33.5t-34.5 -21q-42 0 -64.5 55t-22.5 130t11 144h-10
q-127 -217 -191 -217z" />
    <glyph glyph-name="acircumflex" unicode="&#xe2;" horiz-adv-x="478" 
d="M329 683q7 0 12 -8l60 -118h-29l-45 77l-130 -77h-30q96 80 125.5 103t36.5 23zM84 0q-82 0 -82 129q0 77 38 169q53 129 139 176q37 20 69 20t50.5 -14t23.5 -28l6 -13q-3 -17 -17 -17q-16 0 -18.5 7.5t-5.5 13t-14 15t-25 9.5q-65 0 -118 -117q-60 -135 -60 -254
q0 -60 24 -60q19 0 53.5 42.5t72.5 106.5q66 110 107 191q34 72 70 72q19 0 19 -23q-9 -19 -23 -54t-37 -139t-23 -207t31 -103q12 0 22 10.5t18 31.5q3 11 14 11q4 0 6 -3t0 -10t-7 -19.5t-21.5 -33.5t-34.5 -21q-42 0 -64.5 55t-22.5 130t11 144h-10q-127 -217 -191 -217z
" />
    <glyph glyph-name="atilde" unicode="&#xe3;" horiz-adv-x="478" 
d="M326 627.5q28 -23.5 50 -23.5t42 36h31q-13 -29 -41.5 -53.5t-52 -24.5t-53 26t-42.5 26t-25 -10t-24 -31h-31q16 47 62 69q18 9 37 9t47 -23.5zM84 0q-82 0 -82 129q0 77 38 169q53 129 139 176q37 20 69 20t50.5 -14t23.5 -28l6 -13q-3 -17 -17 -17q-16 0 -18.5 7.5
t-5.5 13t-14 15t-25 9.5q-65 0 -118 -117q-60 -135 -60 -254q0 -60 24 -60q19 0 53.5 42.5t72.5 106.5q66 110 107 191q34 72 70 72q19 0 19 -23q-9 -19 -23 -54t-37 -139t-23 -207t31 -103q12 0 22 10.5t18 31.5q3 11 14 11q4 0 6 -3t0 -10t-7 -19.5t-21.5 -33.5t-34.5 -21
q-42 0 -64.5 55t-22.5 130t11 144h-10q-127 -217 -191 -217z" />
    <glyph glyph-name="adieresis" unicode="&#xe4;" horiz-adv-x="478" 
d="M233 559q-21 0 -21 40q0 24 13 50.5t37 26.5q20 0 20 -23q0 -12 -12 -35.5t-24 -41.5zM376 559q-21 0 -21 41q0 24 12.5 50t36.5 26q21 0 21 -23t-37 -77zM84 0q-82 0 -82 129q0 77 38 169q53 129 139 176q37 20 69 20t50.5 -14t23.5 -28l6 -13q-3 -17 -17 -17
q-16 0 -18.5 7.5t-5.5 13t-14 15t-25 9.5q-65 0 -118 -117q-60 -135 -60 -254q0 -60 24 -60q19 0 53.5 42.5t72.5 106.5q66 110 107 191q34 72 70 72q19 0 19 -23q-9 -19 -23 -54t-37 -139t-23 -207t31 -103q12 0 22 10.5t18 31.5q3 11 14 11q4 0 6 -3t0 -10t-7 -19.5
t-21.5 -33.5t-34.5 -21q-42 0 -64.5 55t-22.5 130t11 144h-10q-127 -217 -191 -217z" />
    <glyph glyph-name="aring" unicode="&#xe5;" horiz-adv-x="478" 
d="M260.5 686q20.5 21 51.5 21t51.5 -21t20.5 -51.5t-20.5 -51.5t-51.5 -21t-51.5 21.5t-20.5 51.5t20.5 51zM281.5 606.5q11.5 -11.5 29 -11.5t29.5 11.5t12 29t-12 29t-29.5 11.5t-29 -11.5t-11.5 -29t11.5 -29zM84 0q-82 0 -82 129q0 77 38 169q53 129 139 176
q37 20 69 20t50.5 -14t23.5 -28l6 -13q-3 -17 -17 -17q-16 0 -18.5 7.5t-5.5 13t-14 15t-25 9.5q-65 0 -118 -117q-60 -135 -60 -254q0 -60 24 -60q19 0 53.5 42.5t72.5 106.5q66 110 107 191q34 72 70 72q19 0 19 -23q-9 -19 -23 -54t-37 -139t-23 -207t31 -103
q12 0 22 10.5t18 31.5q3 11 14 11q4 0 6 -3t0 -10t-7 -19.5t-21.5 -33.5t-34.5 -21q-42 0 -64.5 55t-22.5 130t11 144h-10q-127 -217 -191 -217z" />
    <glyph glyph-name="ae" unicode="&#xe6;" horiz-adv-x="648" 
d="M520 485q76 0 76 -89q0 -51 -34 -107q-52 -83 -136 -92l-18 -1q-15 0 -25 5t-15 15q71 0 130 82q48 66 48 121q0 41 -33 41q-66 0 -123 -103q-61 -112 -61 -230q0 -100 57 -120q11 -4 28 -4t36 8.5t32 20.5q26 24 43 53q4 8 15 8q18 0 16 -6q-2 -11 -21.5 -37t-36 -41.5
t-43 -28t-53.5 -12.5q-86 0 -120 64q-24 45 -24 105q0 26 5 55q-130 -192 -179 -192q-82 0 -82 129q0 77 38 169q53 129 139 176q37 20 69 20t50.5 -14t23.5 -28l6 -13q-3 -17 -17 -17q-16 0 -18.5 7.5t-5.5 13t-14 15t-25 9.5q-65 0 -118 -117q-60 -135 -60 -254
q0 -60 23.5 -60t99 104t118 185t96.5 120.5t113 39.5z" />
    <glyph glyph-name="ccedilla" unicode="&#xe7;" horiz-adv-x="388" 
d="M71 -103q-20 10 24 78q-40 13 -64 47q-29 43 -29 113q0 139 90 257q31 41 73 65.5t81 24.5t57 -23q27 87 69 87q16 0 16 -17q-8 -12 -20.5 -31.5t-33.5 -69.5t-21 -88q0 -13 -11 -13q-13 0 -15 23q0 39 7 73q-6 31 -44 31q-72 0 -126.5 -109t-54.5 -213q0 -130 82 -130
q32 0 60.5 20t40.5 40l13 21q4 9 17 9t13 -6v-3q-4 -11 -22 -35.5t-34.5 -39.5t-42.5 -27.5t-44.5 -12.5t-34.5 2l-28 -51q26 13 59 13q50 0 60 -38q1 -7 1 -15q0 -29 -33.5 -59.5t-91 -30.5t-63.5 31q-4 21 13 30q4 2 10 2q10 0 14 -12q-15 0 -16 -15q-2 -17 21 -22l14 -1
q60 0 87 44q11 18 11 32t-10 25t-28 11t-30.5 -3.5t-21.5 -8t-12 -5.5h-2z" />
    <glyph glyph-name="egrave" unicode="&#xe8;" horiz-adv-x="389" 
d="M192 684q37 -34 70.5 -74.5t33.5 -50.5t-11 -10t-46 25.5t-74 63.5q-15 14 -15 24.5t6 21t16 10.5t20 -10zM261 485q76 0 76 -89q0 -51 -34 -107q-58 -93 -154 -93q-15 0 -25 5t-15 15q71 0 130 82q48 66 48 121q0 41 -33 41q-66 0 -123 -103q-61 -112 -61 -230
q0 -100 57 -120q11 -4 28 -4t36 8.5t32 20.5q26 24 43 53q4 8 15 8q18 0 17 -6q-3 -11 -22.5 -37t-36 -41.5t-43 -28t-53.5 -12.5q-106 0 -135 100q-9 34 -9 70q0 67 31 146q49 120 135 173q47 28 96 28z" />
    <glyph glyph-name="eacute" unicode="&#xe9;" horiz-adv-x="389" 
d="M334 653q-30 -36 -67 -69t-46.5 -33t-9.5 9.5t23 46t54 71.5q13 15 23.5 15t19.5 -4.5t9 -14t-6 -21.5zM261 485q76 0 76 -89q0 -51 -34 -107q-58 -93 -154 -93q-15 0 -25 5t-15 15q71 0 130 82q48 66 48 121q0 41 -33 41q-66 0 -123 -103q-61 -112 -61 -230
q0 -100 57 -120q11 -4 28 -4t36 8.5t32 20.5q26 24 43 53q4 8 15 8q18 0 17 -6q-3 -11 -22.5 -37t-36 -41.5t-43 -28t-53.5 -12.5q-106 0 -135 100q-9 34 -9 70q0 67 31 146q49 120 135 173q47 28 96 28z" />
    <glyph glyph-name="ecircumflex" unicode="&#xea;" horiz-adv-x="389" 
d="M285 683q7 0 11 -8l60 -118h-28l-46 77l-130 -77h-29q96 80 144 118q11 8 18 8zM261 485q76 0 76 -89q0 -51 -34 -107q-58 -93 -154 -93q-15 0 -25 5t-15 15q71 0 130 82q48 66 48 121q0 41 -33 41q-66 0 -123 -103q-61 -112 -61 -230q0 -100 57 -120q11 -4 28 -4t36 8.5
t32 20.5q26 24 43 53q4 8 15 8q18 0 17 -6q-3 -11 -22.5 -37t-36 -41.5t-43 -28t-53.5 -12.5q-106 0 -135 100q-9 34 -9 70q0 67 31 146q49 120 135 173q47 28 96 28z" />
    <glyph glyph-name="edieresis" unicode="&#xeb;" horiz-adv-x="389" 
d="M197 559q-21 0 -21 40q0 24 12.5 50.5t36.5 26.5q21 0 21 -23q0 -12 -12 -35.5t-24 -41.5zM339 559q-21 0 -21 40q0 24 13 50.5t37 26.5q20 0 20 -23q0 -12 -12 -35.5t-24 -41.5zM261 485q76 0 76 -89q0 -51 -34 -107q-58 -93 -154 -93q-15 0 -25 5t-15 15q71 0 130 82
q48 66 48 121q0 41 -33 41q-66 0 -123 -103q-61 -112 -61 -230q0 -100 57 -120q11 -4 28 -4t36 8.5t32 20.5q26 24 43 53q4 8 15 8q18 0 17 -6q-3 -11 -22.5 -37t-36 -41.5t-43 -28t-53.5 -12.5q-106 0 -135 100q-9 34 -9 70q0 67 31 146q49 120 135 173q47 28 96 28z" />
    <glyph glyph-name="igrave" unicode="&#xec;" horiz-adv-x="218" 
d="M26 85q0 148 30.5 264t77.5 116q23 0 23 -25q-10 -26 -25 -69t-39.5 -155.5t-24.5 -200.5q0 -14 -15 -14q-27 0 -27 84zM77 684q37 -35 70.5 -75.5t33.5 -50t-11.5 -9.5t-46.5 25.5t-74 63.5q-15 14 -15 24.5t6 20.5t16 10t21 -9z" />
    <glyph glyph-name="iacute" unicode="&#xed;" horiz-adv-x="218" 
d="M26 85q0 148 30.5 264t77.5 116q23 0 23 -25q-10 -26 -25 -69t-39.5 -155.5t-24.5 -200.5q0 -14 -15 -14q-27 0 -27 84zM258 653q-30 -36 -66 -69t-46 -33t-10 10t23 46.5t44.5 61t32.5 24.5q29 0 29 -20q0 -9 -7 -20z" />
    <glyph glyph-name="icircumflex" unicode="&#xee;" horiz-adv-x="218" 
d="M26 85q0 148 30.5 264t77.5 116q23 0 23 -25q-10 -26 -25 -69t-39.5 -155.5t-24.5 -200.5q0 -14 -15 -14q-27 0 -27 84zM181 682q9 0 12 -7l60 -118h-29l-45 77l-130 -77h-29q96 80 144 118q8 7 17 7z" />
    <glyph glyph-name="idieresis" unicode="&#xef;" horiz-adv-x="218" 
d="M26 85q0 148 30.5 264t77.5 116q23 0 23 -25q-10 -26 -25 -69t-39.5 -155.5t-24.5 -200.5q0 -14 -15 -14q-27 0 -27 84zM85 559q-21 0 -21 41q0 24 12.5 50t36.5 26q21 0 21 -23q0 -12 -12 -35.5t-24 -41.5zM227 559q-21 0 -21 40q0 24 12.5 50.5t36.5 26.5q21 0 21 -23
q0 -12 -12 -35.5t-24 -41.5z" />
    <glyph glyph-name="eth" unicode="&#xf0;" horiz-adv-x="528" 
d="M386 578q53 -80 53 -213q0 -82 -24 -167.5t-94 -154.5t-165.5 -69t-132.5 93q-17 43 -17 90.5t16 98.5q33 104 109 141q32 16 68 16q53 0 83.5 -35.5t30.5 -84.5t-14 -99q-5 -16 -15 -18q-15 -4 -10 10q15 52 15 94t-21 73t-60 31q-69 0 -112 -96q-30 -69 -30 -138
q0 -28 5 -56q17 -96 94 -96q47 0 88 42q75 75 107 246q11 60 11 97q0 113 -25 172l-57 -30q-12 -7 -12 2q0 12 35 32q11 6 24 15q-30 56 -88 56l-8 29q80 0 133 -64q9 5 37 22t42.5 25t14.5 -3q0 -16 -40 -38q-11 -7 -41 -23z" />
    <glyph glyph-name="ntilde" unicode="&#xf1;" horiz-adv-x="448" 
d="M262.5 627.5q27.5 -23.5 50 -23.5t42.5 36h30q-13 -29 -41 -53.5t-51.5 -24.5t-53 26t-43 26t-25.5 -10t-23 -31h-31q16 47 63 69q17 9 36 9t46.5 -23.5zM77 162q129 319 251 319q51 0 51 -49q-7 -23 -18 -60.5t-29.5 -134.5t-18.5 -170q0 -106 31 -106q12 0 23 9.5
t15 9.5q14 0 0 -22q-5 -7 -18.5 -19t-27.5 -12q-38 0 -59.5 54.5t-21.5 141.5q0 138 43 303q4 13 -8 13q-8 0 -18 -8q-48 -42 -101 -139t-83 -173.5t-30 -89t-14 -12.5q-32 0 -32 79q0 149 30.5 270t73.5 121q18 0 18 -22q-46 -149 -66 -303h9z" />
    <glyph glyph-name="ograve" unicode="&#xf2;" horiz-adv-x="413" 
d="M172 738q36 -34 70 -75t34 -51t-11 -10t-47.5 26.5t-73.5 63.5q-15 13 -15 23.5t5 17.5q7 13 17 13t21 -8zM122 -9q-123 0 -123 169q0 95 48 190q61 120 145 120q12 0 20 -6t11 -18q-63 0 -109 -101t-46 -199q0 -119 65 -119q37 0 77 56.5t66.5 148.5t26.5 185v12
q-31 20 -51 50t-20 44t12.5 26.5t25.5 12.5q19 0 37 -34t25 -77q31 -21 54.5 -21t37.5 8q0 -14 -10 -25t-31 -11t-48 10q-1 -96 -29 -193t-78 -162.5t-106 -65.5z" />
    <glyph glyph-name="oacute" unicode="&#xf3;" horiz-adv-x="413" 
d="M318 692q-30 -36 -67 -69t-46.5 -33t-9.5 9.5t23 46t54 71.5q13 15 23.5 15t19.5 -4.5t9 -14t-6 -21.5zM122 -9q-123 0 -123 169q0 95 48 190q61 120 145 120q12 0 20 -6t11 -18q-63 0 -109 -101t-46 -199q0 -119 65 -119q37 0 77 56.5t66.5 148.5t26.5 185v12
q-31 20 -51 50t-20 44t12.5 26.5t25.5 12.5q19 0 37 -34t25 -77q31 -21 54.5 -21t37.5 8q0 -14 -10 -25t-31 -11t-48 10q-1 -96 -29 -193t-78 -162.5t-106 -65.5z" />
    <glyph glyph-name="ocircumflex" unicode="&#xf4;" horiz-adv-x="413" 
d="M278 710q9 0 12 -8l60 -117h-29l-45 76l-130 -76h-29q96 80 144 117q8 8 17 8zM122 -9q-123 0 -123 169q0 95 48 190q61 120 145 120q12 0 20 -6t11 -18q-63 0 -109 -101t-46 -199q0 -119 65 -119q37 0 77 56.5t66.5 148.5t26.5 185v12q-31 20 -51 50t-20 44t12.5 26.5
t25.5 12.5q19 0 37 -34t25 -77q31 -21 54.5 -21t37.5 8q0 -14 -10 -25t-31 -11t-48 10q-1 -96 -29 -193t-78 -162.5t-106 -65.5z" />
    <glyph glyph-name="otilde" unicode="&#xf5;" horiz-adv-x="413" 
d="M173.5 689.5q17.5 8.5 36.5 8.5t46.5 -23.5t43.5 -23.5t27.5 8.5t21.5 26.5h30q-13 -29 -41 -53.5t-51.5 -24.5t-53 26t-43 26t-25.5 -10t-23 -31h-32q8 24 27 43t36.5 27.5zM122 -9q-123 0 -123 169q0 95 48 190q61 120 145 120q12 0 20 -6t11 -18q-63 0 -109 -101
t-46 -199q0 -119 65 -119q37 0 77 56.5t66.5 148.5t26.5 185v12q-31 20 -51 50t-20 44t12.5 26.5t25.5 12.5q19 0 37 -34t25 -77q31 -21 54.5 -21t37.5 8q0 -14 -10 -25t-31 -11t-48 10q-1 -96 -29 -193t-78 -162.5t-106 -65.5z" />
    <glyph glyph-name="odieresis" unicode="&#xf6;" horiz-adv-x="413" 
d="M169 608q-21 0 -21 39q0 24 13 51t37 27q20 0 20 -23q0 -12 -12 -35.5t-24 -40.5zM312 608q-21 0 -21 41q0 23 12.5 49.5t36.5 26.5q20 0 20 -23q0 -24 -36 -76zM122 -9q-123 0 -123 169q0 95 48 190q61 120 145 120q12 0 20 -6t11 -18q-63 0 -109 -101t-46 -199
q0 -119 65 -119q37 0 77 56.5t66.5 148.5t26.5 185v12q-31 20 -51 50t-20 44t12.5 26.5t25.5 12.5q19 0 37 -34t25 -77q31 -21 54.5 -21t37.5 8q0 -14 -10 -25t-31 -11t-48 10q-1 -96 -29 -193t-78 -162.5t-106 -65.5z" />
    <glyph glyph-name="divide" unicode="&#xf7;" horiz-adv-x="560" 
d="M233 117q-21 0 -21 40q0 24 13 51t37 27q20 0 20 -23q0 -24 -36 -77zM257 383q-21 0 -21 39q0 24 13 51t37 27q20 0 20 -23q0 -12 -12 -35.5t-24 -41.5zM446 301l-350 -8q-29 0 -33 20q1 15 12 18q4 -6 21 -6h362q10 0 9 -11q-4 -12 -21 -13z" />
    <glyph glyph-name="oslash" unicode="&#xf8;" horiz-adv-x="399" 
d="M119 -7q-119 8 -119 177q0 93 47 186q60 120 149 131l27 180q1 12 9 12q2 0 5 -1q17 -8 17 -43q0 -25 -44.5 -281.5t-56.5 -327.5q57 17 93.5 109.5t36.5 173.5q0 113 -57 113q1 3 2.5 8t11 13.5t23.5 8.5q67 0 67 -118q0 -103 -53 -214.5t-129 -125.5q-4 -26 -21 -137
q-2 -11 -7 -11q-2 0 -4 1q-11 6 -11 22.5t6.5 68.5t7.5 55zM120 361.5q-31 -68.5 -40 -123t-9 -86.5q0 -118 54 -128q5 37 65 430q-39 -24 -70 -92.5z" />
    <glyph glyph-name="ugrave" unicode="&#xf9;" horiz-adv-x="475" 
d="M350 -75q12 0 22.5 10.5t19.5 32.5q1 9 12 9t8.5 -9t-8 -22t-23 -34.5t-35.5 -21.5q-40 0 -62 50q-23 50 -23 123.5t11 151.5h-9q-121 -211 -186 -211q-77 0 -77 117.5t50 234.5q55 129 97 129q18 0 18 -22q-42 -111 -72 -216t-30 -156.5t24 -51.5q17 0 50.5 41t68.5 100
q75 127 114.5 216t81.5 89q20 0 20 -22q-64 -127 -91 -303q-11 -70 -11 -137q0 -98 30 -98zM204 684q37 -34 71 -75t34 -50.5t-11.5 -9.5t-46.5 25.5t-74 63.5q-15 14 -15 24.5t6 21t16 10.5t20 -10z" />
    <glyph glyph-name="uacute" unicode="&#xfa;" horiz-adv-x="475" 
d="M382 653q-30 -36 -67 -69t-46.5 -33t-9.5 9.5t23 46t54 71.5q13 15 23.5 15t19.5 -4.5t9 -14t-6 -21.5zM350 -75q12 0 22.5 10.5t19.5 32.5q1 9 12 9t8.5 -9t-8 -22t-23 -34.5t-35.5 -21.5q-40 0 -62 50q-23 50 -23 123.5t11 151.5h-9q-121 -211 -186 -211
q-77 0 -77 117.5t50 234.5q55 129 97 129q18 0 18 -22q-42 -111 -72 -216t-30 -156.5t24 -51.5q17 0 50.5 41t68.5 100q75 127 114.5 216t81.5 89q20 0 20 -22q-64 -127 -91 -303q-11 -70 -11 -137q0 -98 30 -98z" />
    <glyph glyph-name="ucircumflex" unicode="&#xfb;" horiz-adv-x="475" 
d="M327 682q9 0 12 -7l60 -118h-29l-45 77l-130 -77h-29q96 80 144 118q8 7 17 7zM350 -75q12 0 22.5 10.5t19.5 32.5q1 9 12 9t8.5 -9t-8 -22t-23 -34.5t-35.5 -21.5q-40 0 -62 50q-23 50 -23 123.5t11 151.5h-9q-121 -211 -186 -211q-77 0 -77 117.5t50 234.5
q55 129 97 129q18 0 18 -22q-42 -111 -72 -216t-30 -156.5t24 -51.5q17 0 50.5 41t68.5 100q75 127 114.5 216t81.5 89q20 0 20 -22q-64 -127 -91 -303q-11 -70 -11 -137q0 -98 30 -98z" />
    <glyph glyph-name="udieresis" unicode="&#xfc;" horiz-adv-x="475" 
d="M223 559q-21 0 -21 41q0 24 12.5 50t36.5 26q20 0 20 -23q0 -24 -36 -77zM365 559q-21 0 -21 40q0 24 12.5 50.5t36.5 26.5q21 0 21 -23q0 -12 -12 -35.5t-24 -41.5zM350 -75q12 0 22.5 10.5t19.5 32.5q1 9 12 9t8.5 -9t-8 -22t-23 -34.5t-35.5 -21.5q-40 0 -62 50
q-23 50 -23 123.5t11 151.5h-9q-121 -211 -186 -211q-77 0 -77 117.5t50 234.5q55 129 97 129q18 0 18 -22q-42 -111 -72 -216t-30 -156.5t24 -51.5q17 0 50.5 41t68.5 100q75 127 114.5 216t81.5 89q20 0 20 -22q-64 -127 -91 -303q-11 -70 -11 -137q0 -98 30 -98z" />
    <glyph glyph-name="yacute" unicode="&#xfd;" horiz-adv-x="465" 
d="M376 653q-28 -35 -65 -68.5t-47 -33.5t-10 8q0 12 23 48.5t54 70.5q13 15 23 15q29 0 29 -20q0 -9 -7 -20zM27 -313q90 0 141 85q44 75 68 187q-181 -4 -278 -138q-6 -9 -19 -3q-7 4 -4 10q43 65 120 110.5t187 49.5q11 50 21 117t23 130h-9q-130 -231 -198 -231
q-76 0 -76 117t50 235.5t91 127.5l6 1q17 0 17 -22q-11 -27 -28 -70.5t-45 -143t-28 -155t24 -55.5q28 0 90 97q91 142 158 288q29 61 62 61q21 0 21 -23q-19 -35 -46 -131t-44 -193.5t-29 -152.5q76 -13 88 -66q2 -9 2 -24.5t-12 -27t-21 -11.5q2 7 1 24.5t-6.5 29.5
t-20.5 25t-39 19q-77 -290 -267 -290q-82 0 -109 58q-1 3 -1 5q0 6 10.5 7.5t15.5 -6.5q18 -41 84 -41z" />
    <glyph glyph-name="thorn" unicode="&#xfe;" horiz-adv-x="481" 
d="M344 494q35 0 54.5 -22t19.5 -60.5t-30.5 -166t-30.5 -177.5q0 -74 27 -74q0 -8 -10 -15.5t-24 -7.5q-65 0 -65 102q0 64 34 192.5t34 164t-28 35.5q-46 0 -89 -93.5t-75.5 -227t-61.5 -266.5q-70 -320 -119 -320q-20 3 -20 66t17.5 213t60.5 389t77 379q10 44 31 67
t35 23q28 0 21 -23q-57 -189 -106.5 -435.5t-70.5 -387.5t-21 -155t1 -14q24 0 65 211q43 217 101 392q30 90 75.5 150.5t97.5 60.5z" />
    <glyph glyph-name="ydieresis" unicode="&#xff;" horiz-adv-x="465" 
d="M215 559q-21 0 -21 40q0 24 13 50.5t37 26.5q20 0 20 -23q0 -12 -12 -35.5t-24 -41.5zM358 559q-21 0 -21 40q0 24 12.5 50.5t36.5 26.5q21 0 21 -23t-37 -77zM27 -313q90 0 141 85q44 75 68 187q-181 -4 -278 -138q-6 -9 -19 -3q-7 4 -4 10q43 65 120 110.5t187 49.5
q11 50 21 117t23 130h-9q-130 -231 -198 -231q-76 0 -76 117t50 235.5t91 127.5l6 1q17 0 17 -22q-11 -27 -28 -70.5t-45 -143t-28 -155t24 -55.5q28 0 90 97q91 142 158 288q29 61 62 61q21 0 21 -23q-19 -35 -46 -131t-44 -193.5t-29 -152.5q76 -13 88 -66q2 -9 2 -24.5
t-12 -27t-21 -11.5q2 7 1 24.5t-6.5 29.5t-20.5 25t-39 19q-77 -290 -267 -290q-82 0 -109 58q-1 3 -1 5q0 6 10.5 7.5t15.5 -6.5q18 -41 84 -41z" />
    <glyph glyph-name="OE" unicode="&#x152;" horiz-adv-x="1121" 
d="M564 468q0 183 -83 183q0 7 7 13q13 11 32 11q66 0 88 -103q9 -43 9 -100t-17 -131q95 105 231 135q-80 29 -80 100t71 134.5t179 63.5q19 0 28 -14t9 -28l-1 -13q-8 4 -35 4q-90 0 -153 -64q-43 -45 -43 -88q0 -84 125 -84q11 0 18.5 -6.5t11.5 -19.5q-173 0 -290 -133
q-109 -124 -109 -275q0 -87 50 -134q39 -38 102 -38q142 0 218 120q49 78 49 165q0 93 -47 110q-7 3 -16 3q13 23 48 23q49 0 64 -65q5 -24 5 -50q0 -61 -30 -134q-54 -126 -163 -177q-60 -28 -129 -28q-113 0 -170.5 62t-56.5 159q-93 -127 -212 -127q-135 0 -183 137
q-23 64 -23 142t22 169q45 181 147 290q88 94 189 94q28 0 43 -12.5t15 -25.5l1 -12q-10 4 -37 4q-108 0 -191.5 -138t-102.5 -311q-5 -44 -5 -81q0 -114 45 -175q36 -47 94 -47q121 0 198.5 165.5t77.5 326.5zM1072 548q0 -5 -9 -5q-26 0 -26 15q0 102 23 164.5t61 62.5
q9 0 16.5 -7.5t7.5 -18.5q-46 -46 -65 -134q-8 -37 -8 -77z" />
    <glyph glyph-name="oe" unicode="&#x153;" horiz-adv-x="643" 
d="M515 485q77 0 77 -90q0 -50 -35 -106q-52 -83 -136 -92l-18 -1q-15 0 -24.5 5t-14.5 15q71 0 130 82q47 65 47 120q0 42 -33 42q-71 0 -127.5 -110.5t-56.5 -217.5q0 -129 83 -129q50 0 94 53q10 12 20 29q3 8 17 8t14 -6v-2q-5 -14 -23 -37.5t-34.5 -39t-43 -28
t-53.5 -12.5q-63 0 -98 35t-44 94q-63 -106 -134 -106q-123 0 -123 173q0 99 52 199q65 124 157 124q12 0 20 -6t11 -18q-69 0 -119.5 -106.5t-50.5 -210.5q0 -119 64 -119q51 0 98 99q52 108 52 213q0 81 -43 81q0 10 10.5 19.5t23.5 9.5q52 0 57 -80q80 116 184 116z" />
    <glyph glyph-name="Scaron" unicode="&#x160;" horiz-adv-x="603" 
d="M367 975h28l65 -76l111 76h31q-97 -80 -145 -118q-21 -17 -31 0zM49 -41q0 -74 78 -89q15 -3 34 -3q125 0 198 80.5t73 202.5q0 48 -17.5 88.5t-43.5 67t-56.5 53.5t-56.5 49t-43.5 53t-17.5 66q0 92 82.5 169.5t177.5 77.5q19 0 28 -14t9 -28l-1 -13q-7 4 -35 4
q-64 0 -124 -60t-60 -139q0 -32 17.5 -62.5t43.5 -53.5t56 -51.5t56 -56t43.5 -67t17.5 -83.5q0 -121 -100 -215t-247 -94q-124 0 -157 80q-26 66 20 146t133 108q32 10 57 10t34.5 -8.5t12.5 -26.5q-94 0 -161 -76q-51 -57 -51 -115zM513 512q0 -5 -9.5 -5t-17.5 4t-8 11
q0 102 23 164t61 62q10 0 17 -7t7 -18q-45 -45 -65 -135q-8 -36 -8 -76z" />
    <glyph glyph-name="scaron" unicode="&#x161;" horiz-adv-x="379" 
d="M265 702q-9 0 -13 7l-60 119h29l65 -77l111 77h30q-97 -80 -145 -119q-8 -7 -17 -7zM71 34q0 -70 45 -70q42 0 78.5 69t36.5 174q0 51 -18.5 144t-18.5 121.5t2 37.5q-13 -21 -75 -139.5t-110 -187.5q-4 -4 -11 -2.5t-11.5 6t-4.5 6.5t1 3q47 68 109.5 187.5t104.5 178.5
t83 59q21 0 21 -18q0 -12 -17 -32q-54 -61 -54 -125q0 -38 29 -146.5t29 -157.5q0 -88 -49 -149.5t-111 -61.5q-88 0 -88 101q0 76 46.5 159t93.5 112q9 6 11.5 -7t-3.5 -17q-53 -30 -92 -128q-27 -69 -27 -117z" />
    <glyph glyph-name="Ydieresis" unicode="&#x178;" horiz-adv-x="747" 
d="M481 643q-21 0 -21 40q0 24 13 50.5t37 26.5q20 0 20 -23q0 -12 -12 -35.5t-24 -41.5zM624 643q-21 0 -21 40q0 24 12.5 50.5t36.5 26.5q21 0 21 -23t-37 -77zM221 -303q69 0 123.5 36t86.5 78t61 130t39.5 135t21 102t11.5 59t2 9.5l3 16.5t8 41h-7q-140 -272 -226 -272
q-100 0 -100 120q0 54 50 228.5t50 253.5q0 51 -23.5 82.5t-74.5 31.5q-91 0 -136 -104q-30 -70 -30 -140q0 -34 7 -68q22 -104 93 -104q-7 -14 -19 -14q-90 0 -117 114q-9 36 -9 72q0 77 39 155q58 114 171 114q87 0 126.5 -48.5t39.5 -126t-46.5 -247t-46.5 -227t39 -57.5
q33 0 93 95q98 151 170 329q28 70 63 70q22 0 22 -23q-35 -85 -70 -285q-41 -234 -85 -335q-19 -44 -51 -94.5t-69.5 -80t-91 -49.5t-116.5 -20q-153 0 -215 104q-29 50 -29 107q0 31 9 64q23 84 87 115q27 13 48 13q33 0 39 -19l2 -7q-69 0 -108 -72q-25 -47 -25 -86
q0 -149 120 -186q32 -10 71 -10z" />
    <glyph glyph-name="Zcaron" unicode="&#x17d;" horiz-adv-x="668" 
d="M540 850q-9 0 -13 7l-60 118h29l65 -76l111 76h30q-97 -80 -145 -118q-8 -7 -17 -7zM494 749.5q88 -23.5 114.5 -23.5t56.5 24t53 24q9 0 14.5 -10t4.5 -18.5t-1 -9.5q-32 0 -75 -77q-32 -56 -77.5 -152.5t-64.5 -135.5q52 2 70 2q10 0 8.5 -12t-15 -12t-24 -1t-27 -2
t-26.5 -2q-127 -251 -248 -341q31 -14 132.5 -64t158.5 -71.5t88 -21.5t49 5.5t28 13.5q20 16 27 35q16 0 16 -25q0 -42 -37 -67.5t-85 -25.5t-108 22t-98.5 43t-115 68t-98.5 60q-61 -32 -119 -32q-84 0 -108 44q-7 12 -7 26.5t19 32t67.5 17.5t147.5 -42q91 77 211 313
q-48 -6 -84.5 -6t-40.5 24q1 15 12 18q5 -6 40 -6t90 3q15 29 45 89.5t47 93.5q44 89 82 143q-22 -5 -47.5 -5t-114.5 24t-134 24q-114 0 -161 -94q-24 -47 -24 -85.5t7 -66.5q18 -68 65 -79l16 -2q-5 -23 -33 -23q-59 0 -85 68q-12 34 -12 74t18 88q40 104 143 140
q47 17 99.5 17t140.5 -23.5zM8 9q0 -18 25 -28.5t63 -10.5t82 26q-86 42 -123.5 42t-45.5 -21q-1 -4 -1 -8z" />
    <glyph glyph-name="zcaron" unicode="&#x17e;" horiz-adv-x="417" 
d="M243.5 558q-8.5 0 -12.5 7l-60 119h28l65 -77l112 77h30q-97 -81 -145 -119q-9 -7 -17.5 -7zM-11 -336q-78 0 -78 75q0 66 67.5 155.5t169.5 128.5q5 2 10 -2.5t5 -10t-6 -8.5q-103 -38 -173 -140q-47 -70 -47 -115t35 -46q83 0 181 114q83 96 112 192q10 33 10 55
q0 47 -44 47q-34 0 -83 -22.5t-63 -22.5q-23 0 -29 34l-2 12q74 0 150 102q64 88 78 171q2 15 2 27q0 48 -39 49q-40 0 -78.5 -30.5t-63 -70t-39.5 -71.5t-15 -39t-9.5 -9.5t-19 2.5t-9.5 16.5t19 47t49.5 77t77 73.5t92 32t70.5 -30t25 -78q0 -129 -132 -245q12 2 19 2
q94 0 94 -104q0 -75 -56 -171q-69 -117 -169 -169q-56 -28 -111 -28z" />
    <glyph glyph-name="florin" unicode="&#x192;" horiz-adv-x="522" 
d="M143 433q-28 0 -33 25q0 20 12 23q4 -6 21 -6t57 2q46 222 136 277q36 22 82 22q20 0 19 -15q-1 -10 -7 -10q-73 0 -113 -77q-35 -68 -59 -193q117 9 142 9q9 0 7.5 -12t-25.5 -12t-130 -20q-12 -73 -26.5 -195.5t-26.5 -194t-25 -125t-34.5 -107t-47.5 -87.5
q-61 -77 -152 -77q-61 0 -99 32t-45 78q-2 16 -2 39t9 59.5t45 68.5t83 32q13 0 21.5 -5.5t11.5 -17.5q-73 0 -115 -67q-25 -40 -25 -80q0 -19 6 -37q24 -65 98 -67q51 0 89.5 34.5t60.5 86t40 133.5t27.5 153t22.5 171.5t25 163.5q-38 -4 -50 -4zM448 615q-12 0 -13 20
q0 63 21.5 116t53.5 53q12 0 12 -15q-7 -11 -13 -20t-12.5 -21t-13.5 -27t-13 -30q-13 -33 -13 -64q0 -12 -9 -12z" />
    <glyph glyph-name="circumflex" unicode="&#x2c6;" horiz-adv-x="457" 
d="M310 682q9 0 12 -7l60 -118h-29l-45 77l-130 -77h-29q96 80 144 118q8 7 17 7z" />
    <glyph glyph-name="tilde" unicode="&#x2dc;" horiz-adv-x="467" 
d="M282.5 627.5q27.5 -23.5 50 -23.5t42.5 36h30q-13 -29 -41 -53.5t-51.5 -24.5t-53 26t-43 26t-25.5 -10t-24 -31h-31q16 47 63 69q18 9 37 9t46.5 -23.5z" />
    <glyph glyph-name="endash" unicode="&#x2013;" horiz-adv-x="562" 
d="M437 249l-361 -2q-10 0 -10 9q0 24 44 28l355 -8q10 0 9 -9q-6 -17 -37 -18z" />
    <glyph glyph-name="emdash" unicode="&#x2014;" horiz-adv-x="750" 
d="M579 249l-503 -2q-10 0 -10 9q0 24 44 28l498 -8q9 0 9 -7q0 -1 -1 -3q-4 -17 -37 -17z" />
    <glyph glyph-name="quoteleft" unicode="&#x2018;" horiz-adv-x="141" 
d="M28 568q-28 0 -28 36q0 54 37 92q18 19 38 19q13 0 15 -9v-3q-17 0 -27 -33.5t-10 -67.5t-25 -34z" />
    <glyph glyph-name="quoteright" unicode="&#x2019;" horiz-adv-x="226" 
d="M162 613q10 34 10 68t27 34t27 -36q0 -54 -38 -92q-18 -19 -38 -19q-13 0 -15 11q17 0 27 34z" />
    <glyph glyph-name="quotesinglbase" unicode="&#x201a;" horiz-adv-x="204" 
d="M55 10.5q10 33.5 10 67.5t27 34t27 -36q0 -55 -38 -93q-18 -18 -31 -18q-20 0 -22 9v3q17 0 27 33.5z" />
    <glyph glyph-name="quotedblleft" unicode="&#x201c;" horiz-adv-x="291" 
d="M28 568q-28 0 -28 36q0 54 37 92q18 19 38 19q13 0 15 -9v-3q-17 0 -27 -33.5t-10 -67.5t-25 -34zM156 568q-28 0 -28 36q0 54 37 92q19 18 32 19q19 0 21 -9v-3q-17 0 -26.5 -33.5t-9.5 -67.5t-26 -34z" />
    <glyph glyph-name="quotedblright" unicode="&#x201d;" horiz-adv-x="320" 
d="M251 613q10 34 10 68t27 34t27 -36q0 -54 -38 -92q-18 -19 -38 -19q-13 0 -15 11q17 0 27 34zM158 715q28 0 28 -36q0 -54 -37 -92q-19 -18 -32 -19q-19 0 -21 8v3q17 0 27 34t10 68t25 34z" />
    <glyph glyph-name="quotedblbase" unicode="&#x201e;" horiz-adv-x="318" 
d="M55 10.5q10 33.5 10 67.5t27 34t27 -36q0 -55 -38 -93q-18 -18 -31 -18q-20 0 -22 9v3q17 0 27 33.5zM162 10.5q10 33.5 10 67.5t27 34t27 -36q0 -54 -38 -92q-18 -19 -38 -19q-13 0 -14 9l-1 3q17 0 27 33.5z" />
    <glyph glyph-name="dagger" unicode="&#x2020;" horiz-adv-x="473" 
d="M96 442l128 -1q60 216 68 241q10 30 31 30q18 0 16 -42q-1 -22 -11.5 -57.5t-54.5 -171.5h149q8 0 8 -8q0 -16 -21 -16q-55 0 -145 -3q-133 -418 -157 -505q-6 -18 -16.5 -18t-10.5 14q0 23 16 75.5t119 431.5q-98 -2 -123.5 -2t-28.5 22q-1 16 12 17q4 -7 21 -7z" />
    <glyph glyph-name="daggerdbl" unicode="&#x2021;" horiz-adv-x="267" 
d="M96 442l128 -1q60 216 68 241q10 30 31 30q18 0 16 -42q-1 -22 -11.5 -57.5t-54.5 -171.5h149q8 0 8 -8q0 -16 -21 -16q-55 0 -145 -3l-18 -57q-12 -38 -18 -58h162q9 0 7.5 -12t-26.5 -12t-153 -4q-96 -306 -111 -362q-6 -18 -16.5 -18t-10.5 14q0 23 20.5 90t76.5 275
q-92 -2 -117 -2t-29 20q1 15 12 18q4 -6 21 -6l121 -1q15 50 30 113q-98 -2 -123.5 -2t-28.5 22q-1 16 12 17q4 -7 21 -7z" />
    <glyph glyph-name="bullet" unicode="&#x2022;" horiz-adv-x="335" 
d="M195 425.5q19 -18.5 19 -45.5t-19 -46.5t-46 -19.5t-46 19.5t-19 46.5t19 45.5t46 18.5t46 -18.5z" />
    <glyph glyph-name="ellipsis" unicode="&#x2026;" horiz-adv-x="676" 
d="M69 -7q-21 0 -21 39q0 24 13 51t37 27q20 0 20 -23q0 -12 -12 -35.5t-24 -41.5zM295 -7q-21 0 -21 41q0 23 12.5 49.5t36.5 26.5q21 0 21 -23q0 -12 -12 -35.5t-24 -41.5zM520 -7q-21 0 -21 40q0 23 12.5 50t36.5 27q21 0 21 -23t-37 -77z" />
    <glyph glyph-name="perthousand" unicode="&#x2030;" horiz-adv-x="1013" 
d="M142 -91q-10 0 -10 13.5t21 56.5t146 317.5t127 278.5q11 19 22.5 19t15.5 -10t0 -29t-16 -43t-79 -156q-175 -347 -214 -433q-7 -14 -13 -14zM223 424q0 90 -44 90q-28 0 -49 -24q-14 -13 -21 -10t-5 7q32 47 85 47q75 0 75 -109q0 -57 -29 -119q-43 -95 -110 -95
q-38 0 -60 25q-24 27 -24 64.5t8 71t31 63t52 37.5q7 1 8.5 -7.5t-2.5 -10.5q-28 -10 -42 -56t-14 -81q0 -86 43 -86t70.5 66t27.5 127zM516 176q0 90 -44 90q-28 0 -49 -23q-13 -13 -25 -9q-3 1 -1 5q31 48 84 48q59 0 72 -71q4 -19 4 -39q0 -56 -29 -118q-43 -95 -110 -95
q-38 0 -60 24q-24 28 -24 65.5t8 71t31 62.5t52 37q6 2 7 -2.5t2 -7.5q0 -5 -3 -8q-28 -9 -42 -55.5t-14 -81.5q0 -86 43 -86t70.5 66t27.5 127zM794 176q0 90 -44 90q-26 0 -43.5 -18t-29.5 -14q-4 1 -1 5q31 48 84 48q59 0 72 -71q3 -19 3 -39q0 -56 -28 -118
q-38 -82 -95 -94l-15 -1q-63 0 -80 60q-6 22 -6 52.5t17 70.5q27 64 75 77q8 2 9 -9q0 -7 -3 -9q-28 -9 -42 -55.5t-14 -81.5q0 -86 43.5 -86t70.5 66t27 127z" />
    <glyph glyph-name="guilsinglleft" unicode="&#x2039;" horiz-adv-x="367" 
d="M206 61q-171 196 -171 210q0 7 9 13l228 145v-32l-179 -137l113 -165v-34z" />
    <glyph glyph-name="guilsinglright" unicode="&#x203a;" horiz-adv-x="413" 
d="M134 429q170 -197 170 -210q0 -7 -8 -13l-228 -145v32l179 137l-113 164v35z" />
    <glyph glyph-name="Euro" unicode="&#x20ac;" horiz-adv-x="595" 
d="M377 243q-1 0 -188 -5q-2 -23 -2 -65t16 -86q21 -59 71 -59q81 0 143 101q11 17 27 13t9 -14q-81 -129 -180 -129q-84 0 -121.5 63t-37.5 151q0 11 1 23q-33 -1 -79 -1q-29 0 -33 20q1 15 12 18q5 -6 21 -6h81q7 57 26 118q-37 -1 -88 -1q-30 0 -33 22q-1 16 12 17
q4 -6 21 -6h100q40 104 109.5 170.5t154.5 66.5q54 0 80 -31t26 -60t-21 -37q-18 -3 -21 14q0 19 -4.5 36.5t-23 34.5t-49.5 17q-56 0 -103 -59t-78 -152h184q10 0 7.5 -12.5t-20.5 -12.5q-34 0 -180 -4q-14 -53 -25 -121h199q9 0 7.5 -12t-20.5 -12z" />
    <glyph glyph-name="trademark" unicode="&#x2122;" horiz-adv-x="611" 
d="M540 724q-17 -43 -29 -99t-12 -86t16 -30q11 0 17 11q2 2 6.5 2t4.5 -2q-12 -24 -34 -24q-30 0 -30 52t38 170q1 2 -0.5 3.5t-4.5 -2.5q-43 -42 -76 -130q-17 -47 -27 -47q-5 0 -5 5q32 104 32 146q0 14 -5 14q-13 0 -37 -43.5t-39.5 -92.5t-30.5 -49q-6 0 -5 4t1 8
q32 95 32 133.5t-14 38.5l6 10q25 0 25 -49q0 -11 -1 -25q43 79 68 79q21 0 21 -31q0 -10 -7 -43q47 89 77 89q13 0 13 -12zM178 593q13 27 31.5 27t18.5 -8v-2q-30 0 -42 -34q-5 -13 -5 -25.5t9.5 -19.5t17.5 -7q21 0 35.5 25.5t20.5 58.5q15 91 33 116h-1q-66 0 -78 -38
q-6 -22 7 -29q2 -1 4 -1q0 -8 -11 -8q-16 0 -16 28t29 43t62.5 15t55.5 14l22 13q7 0 7 -3.5t-1 -6.5q-12 -20 -57 -27q-15 -8 -30 -113q-6 -38 -26 -69t-52 -31q-42 0 -42 49q0 17 8 33z" />
  </font>
</defs>
</svg>
