<?xml version="1.0" standalone="no"?>
<!DOCTYPE svg PUBLIC "-//W3C//DTD SVG 1.1//EN" "http://www.w3.org/Graphics/SVG/1.1/DTD/svg11.dtd" >
<svg xmlns="http://www.w3.org/2000/svg" xmlns:xlink="http://www.w3.org/1999/xlink" version="1.1">
<metadata>
Created by FontForge 20170731 at Mon Mar  6 07:36:49 2023
 By Aleksey,,,
FactoryType
</metadata>
<defs>
<font id="QueenSerifFREE" horiz-adv-x="0" >
  <font-face 
    font-family="Queen Serif FREE"
    font-weight="400"
    font-stretch="normal"
    units-per-em="1000"
    panose-1="0 0 0 0 0 0 0 0 0 0"
    ascent="800"
    descent="-200"
    x-height="496"
    cap-height="661"
    bbox="-75 -217 626 700"
    underline-thickness="0"
    underline-position="0"
    unicode-range="U+000A-00AD"
  />
<missing-glyph horiz-adv-x="527" 
d="M50 700h427v-700h-427v700zM78 680l185 -309l186 309h-371zM251 350l-180 300v-601zM264 329l-185 -308h370zM276 350l181 -303v605z" />
    <glyph glyph-name=".notdef" horiz-adv-x="527" 
d="M50 700h427v-700h-427v700zM78 680l185 -309l186 309h-371zM251 350l-180 300v-601zM264 329l-185 -308h370zM276 350l181 -303v605z" />
    <glyph glyph-name=".null" 
 />
    <glyph glyph-name=".null" 
 />
    <glyph glyph-name="nonmarkingreturn" horiz-adv-x="333" 
 />
    <glyph glyph-name="controlLF" unicode="&#xa;" 
 />
    <glyph glyph-name="controlCR" unicode="&#xd;" 
 />
    <glyph glyph-name="space" unicode=" " horiz-adv-x="191" 
 />
    <glyph glyph-name="zero" unicode="0" horiz-adv-x="483" 
d="M241.5 661q52.5 0 97 -44t70.5 -120.5t26 -166t-26 -166t-70.5 -120.5t-97 -44t-97 44t-70.5 120.5t-26 166t26 166t70.5 120.5t97 44zM241 15q65 0 111 92.5t46 223.5t-46 223.5t-111 92.5t-110.5 -92.5t-45.5 -223.5t45.5 -223.5t110.5 -92.5z" />
    <glyph glyph-name="one" unicode="1" horiz-adv-x="207" 
d="M79 0q8 0 14 7.5t6 15.5v619q-38 -25 -54 -124l19 143h72v-637q0 -8 6 -16t14 -8h-77z" />
    <glyph glyph-name="two" unicode="2" horiz-adv-x="372" 
d="M224 37q19 0 30.5 2.5t23.5 12t19.5 30.5t12.5 55l-18 -137h-245v5q0 33 9 66l0.5 1.5t1.5 2.5q0 1 1 3q2 7 5 14q14 38 43.5 79t59 75.5t57 72t45.5 83t18 94.5q0 75 -27 111t-69 40h-5h-5q-34 0 -62 -20q-31 -26 -39.5 -73.5t0.5 -93.5t30 -89l-63 124q-1 57 28 105
q3 4 5 8h1q36 52 100 53h1h1h10h1q23 -3 43 -11t41 -25.5t33 -50.5t12 -78q0 -55 -20 -102.5t-52 -84t-66 -71t-66.5 -79t-48.5 -91.5q-5 -15 -7 -31h161z" />
    <glyph glyph-name="three" unicode="3" horiz-adv-x="369" 
d="M269 335q50 -77 50 -169q0 -47 -13 -80.5t-34.5 -51.5t-44.5 -26t-48 -8h-2h-3q-27 0 -53 10q-37 15 -58 48.5t-18 73.5l14 -1q-3 -35 15.5 -65t51.5 -43q26 -11 54 -9h6q2 0 3 1q44 5 69 42.5t25 109.5t-31.5 141.5t-61.5 92.5h-1q-21 -7 -42 -10l-2 14h4q22 4 41 12
t37.5 22.5t30 39.5t11.5 58q0 43 -19 71.5t-53 36.5q-33 7 -66 -4q-18 -8 -31.5 -23t-22.5 -40t-13.5 -42.5t-10.5 -51.5l-3 -12l13 136v1q1 0 1 1q25 32 63.5 44.5t77.5 2.5q42 -10 71 -41t29 -81q0 -88 -100 -128h0.5t0.5 -1q39 -29 63 -71z" />
    <glyph glyph-name="four" unicode="4" horiz-adv-x="407" 
d="M342 142h-35v-118q0 -9 6 -16.5t15 -7.5h-78q8 0 14 7.5t6 16.5v118h-236v33l2 4l234 461q0 8 -5.5 14t-14.5 7h57v-478q20 7 32.5 29.5t20.5 70.5zM270 179v430l-219 -430h219z" />
    <glyph glyph-name="five" unicode="5" horiz-adv-x="365" 
d="M153 499q47 0 85 -40.5t57.5 -97t19.5 -112.5q0 -42 -8.5 -83t-25 -78.5t-45 -61.5t-64.5 -27q-5 -1 -9 -1q-52 0 -85 41t-33 105h14q0 -58 29 -95t75 -37q51 0 83 68.5t32 168.5q0 96 -37.5 165.5t-86.5 70.5h-1q-40 0 -74 -38l-13 3l1 211h7h191l19 -146
q-11 66 -30.5 87.5t-55.5 21.5h-117l-2 -157q31 31 74 32z" />
    <glyph glyph-name="six" unicode="6" horiz-adv-x="440" 
d="M252 404q55 -11 98 -66.5t43 -143.5q0 -61 -27.5 -108.5t-69.5 -70.5q-26 -17 -58 -17v0h-1v0q-5 0 -12 1q-54 3 -95.5 54t-61.5 121.5t-20 143.5q0 75 22.5 152t68.5 134t103 59h1.5h0.5h2h0.5h1.5h2h11q20 -2 37 -11t27 -21.5t14.5 -20t6.5 -13.5l0.5 -0.5t0.5 -1.5v0
l-24 -133q3 32 4 55t-1.5 49t-10 42.5t-24 28t-40.5 13.5h-6q-8 -1 -15 -2q-58 -15 -101.5 -110t-43.5 -219q0 -33 3 -64q6 57 41 104q37 48 98 48h0.5h1.5q11 0 23 -3zM237 12q46 0 83 48t37 134q0 81 -29.5 132t-73.5 64h-1h-2q-1 1 -6 2q-5 0 -6.5 0.5t-5.5 0.5h-6
q-54 0 -87 -43q-48 -60 -42 -167q16 -73 47.5 -116t67.5 -53q12 -2 24 -2z" />
    <glyph glyph-name="seven" unicode="7" horiz-adv-x="330" 
d="M53 661h238v-31l-2 -6q-43 -116 -78 -290t-35 -334h-37q0 101 17 208.5t42.5 194.5t43.5 137.5t32 83.5h-153q-36 0 -55.5 -21.5t-30.5 -87.5z" />
    <glyph glyph-name="eight" unicode="8" horiz-adv-x="466" 
d="M268 400q65 -14 108 -69.5t43 -128.5q0 -84 -54.5 -143t-132 -59t-132 59t-54.5 143q0 73 43 128.5t108 69.5q-46 11 -76 46.5t-30 81.5q0 55 41.5 94t100 39t100 -39t41.5 -94q0 -46 -30 -81.5t-76 -46.5zM128 528q0 -50 30.5 -85t74 -35t74 35t30.5 85t-30.5 85.5
t-74 35.5t-74 -35.5t-30.5 -85.5zM233 13q62 0 105.5 55.5t43.5 133.5t-43.5 133t-105.5 55t-106 -55t-44 -133t44 -133.5t106 -55.5z" />
    <glyph glyph-name="nine" unicode="9" horiz-adv-x="440" 
d="M214 663q54 -4 96 -55t61.5 -121.5t19.5 -143.5q0 -75 -22 -151.5t-68 -133.5t-104 -60h-1h-4h-3h-9q-21 2 -38 11t-27 21t-14.5 20t-7.5 14v0.5t-1 1.5h1h-1l25 133q-17 -153 39 -181q15 -6 30 -6h3q3 -1 6 0q7 0 14 1q59 15 102.5 110t43.5 219q0 34 -3 65
q-7 -58 -42 -104q-37 -49 -98 -49h-1q-12 0 -23 3q-56 11 -99 66.5t-43 144.5q0 60 28 107.5t70 70.5q26 17 57 17h1h1h11zM299 311q49 60 42 167q-16 73 -47 116t-68 53q-11 2 -23 3q-47 -1 -83.5 -49t-36.5 -133q0 -82 29 -133t73 -63l3 -1q2 -1 6 -1q5 -1 6.5 -1.5
t5.5 -0.5h6q55 0 87 43z" />
    <glyph glyph-name="A" unicode="A" horiz-adv-x="390" 
d="M271 0q21 8 24.5 32t-4.5 58l-39 169q-16 38 -46 38q-42 0 -90.5 -62t-70.5 -153q-8 -31 -5 -51.5t22 -30.5h-50l146 638q0 9 -5.5 15.5t-14.5 7.5h60l130 -569q18 -76 62 -92h-119zM206 311q22 0 38 -16l-75 331l-101 -441q29 57 66 91.5t72 34.5z" />
    <glyph glyph-name="A" unicode="&#xc5;" horiz-adv-x="390" 
d="M271 0q21 8 24.5 32t-4.5 58l-39 169q-16 38 -46 38q-42 0 -90.5 -62t-70.5 -153q-8 -31 -5 -51.5t22 -30.5h-50l146 638q0 9 -5.5 15.5t-14.5 7.5h60l130 -569q18 -76 62 -92h-119zM206 311q22 0 38 -16l-75 331l-101 -441q29 57 66 91.5t72 34.5z" />
    <glyph glyph-name="A" unicode="&#xc4;" horiz-adv-x="390" 
d="M271 0q21 8 24.5 32t-4.5 58l-39 169q-16 38 -46 38q-42 0 -90.5 -62t-70.5 -153q-8 -31 -5 -51.5t22 -30.5h-50l146 638q0 9 -5.5 15.5t-14.5 7.5h60l130 -569q18 -76 62 -92h-119zM206 311q22 0 38 -16l-75 331l-101 -441q29 57 66 91.5t72 34.5z" />
    <glyph glyph-name="A" unicode="&#xc3;" horiz-adv-x="390" 
d="M271 0q21 8 24.5 32t-4.5 58l-39 169q-16 38 -46 38q-42 0 -90.5 -62t-70.5 -153q-8 -31 -5 -51.5t22 -30.5h-50l146 638q0 9 -5.5 15.5t-14.5 7.5h60l130 -569q18 -76 62 -92h-119zM206 311q22 0 38 -16l-75 331l-101 -441q29 57 66 91.5t72 34.5z" />
    <glyph glyph-name="A" unicode="&#xc2;" horiz-adv-x="390" 
d="M271 0q21 8 24.5 32t-4.5 58l-39 169q-16 38 -46 38q-42 0 -90.5 -62t-70.5 -153q-8 -31 -5 -51.5t22 -30.5h-50l146 638q0 9 -5.5 15.5t-14.5 7.5h60l130 -569q18 -76 62 -92h-119zM206 311q22 0 38 -16l-75 331l-101 -441q29 57 66 91.5t72 34.5z" />
    <glyph glyph-name="A" unicode="&#xc1;" horiz-adv-x="390" 
d="M271 0q21 8 24.5 32t-4.5 58l-39 169q-16 38 -46 38q-42 0 -90.5 -62t-70.5 -153q-8 -31 -5 -51.5t22 -30.5h-50l146 638q0 9 -5.5 15.5t-14.5 7.5h60l130 -569q18 -76 62 -92h-119zM206 311q22 0 38 -16l-75 331l-101 -441q29 57 66 91.5t72 34.5z" />
    <glyph glyph-name="A" unicode="&#xc0;" horiz-adv-x="390" 
d="M271 0q21 8 24.5 32t-4.5 58l-39 169q-16 38 -46 38q-42 0 -90.5 -62t-70.5 -153q-8 -31 -5 -51.5t22 -30.5h-50l146 638q0 9 -5.5 15.5t-14.5 7.5h60l130 -569q18 -76 62 -92h-119zM206 311q22 0 38 -16l-75 331l-101 -441q29 57 66 91.5t72 34.5z" />
    <glyph glyph-name="B" unicode="B" horiz-adv-x="359" 
d="M178 446q64 -21 111 -96.5t47 -165.5q0 -81 -41 -127.5t-111 -54.5q-13 -2 -26 -2h-120q8 1 14 7t6 15v615q0 9 -6 16.5t-14 7.5h104h7q3 -1 4 -1q14 -2 28 -8t28.5 -18t24 -33.5t9.5 -49.5q0 -79 -65 -105zM95 632v-180h47q24 0 44 24t20 75q0 50 -20.5 73t-43.5 23h-40
q-6 -6 -7 -15zM142 14q71 0 114 43t43 127q0 99 -48 176.5t-109 77.5h-47v-404q0 -20 17 -20h30z" />
    <glyph glyph-name="C" unicode="C" horiz-adv-x="413" 
d="M376 96l12 -7q-58 -89 -141 -89h-12q-86 7 -145 98.5t-59 231.5q0 106 43 198t115 122q27 13 58 13q40 0 74 -23q14 -8 26 -19q23 -22 40 -49l-1 -138q-10 138 -67 192q-32 23 -72 24q-26 -1 -49 -11q-58 -31 -94 -123.5t-36 -188.5q0 -70 20.5 -140.5t63 -121
t95.5 -51.5q76 0 129 82z" />
    <glyph glyph-name="C" unicode="&#xc7;" horiz-adv-x="413" 
d="M376 96l12 -7q-58 -89 -141 -89h-12q-86 7 -145 98.5t-59 231.5q0 106 43 198t115 122q27 13 58 13q40 0 74 -23q14 -8 26 -19q23 -22 40 -49l-1 -138q-10 138 -67 192q-32 23 -72 24q-26 -1 -49 -11q-58 -31 -94 -123.5t-36 -188.5q0 -70 20.5 -140.5t63 -121
t95.5 -51.5q76 0 129 82z" />
    <glyph glyph-name="D" unicode="D" horiz-adv-x="401" 
d="M142 661q58 0 112 -54.5t86 -137t32 -163.5q0 -127 -50.5 -204.5t-124.5 -96.5q-19 -5 -39 -5h-120q8 0 14 8t6 16h1v613q-1 9 -6.5 16.5t-14.5 7.5h104zM142 14q50 0 89 28.5t60.5 74t32.5 94t11 95.5q0 83 -27.5 162.5t-72.5 129t-93 49.5h-30q-7 0 -12 -6.5t-5 -13.5
v-593q0 -20 17 -20h30z" />
    <glyph glyph-name="E" unicode="E" horiz-adv-x="351" 
d="M239 14q34 0 54 28t31 95l-18 -137h-268q8 0 14 7.5t6 15.5v615q0 8 -6 15.5t-14 7.5h268l18 -141q-11 68 -31 97.5t-54 29.5h-144v-310l127 1l19 -142q-12 69 -32.5 98.5t-54.5 29.5h-59v-310h144z" />
    <glyph glyph-name="E" unicode="&#xcb;" horiz-adv-x="351" 
d="M239 14q34 0 54 28t31 95l-18 -137h-268q8 0 14 7.5t6 15.5v615q0 8 -6 15.5t-14 7.5h268l18 -141q-11 68 -31 97.5t-54 29.5h-144v-310l127 1l19 -142q-12 69 -32.5 98.5t-54.5 29.5h-59v-310h144z" />
    <glyph glyph-name="E" unicode="&#xca;" horiz-adv-x="351" 
d="M239 14q34 0 54 28t31 95l-18 -137h-268q8 0 14 7.5t6 15.5v615q0 8 -6 15.5t-14 7.5h268l18 -141q-11 68 -31 97.5t-54 29.5h-144v-310l127 1l19 -142q-12 69 -32.5 98.5t-54.5 29.5h-59v-310h144z" />
    <glyph glyph-name="E" unicode="&#xc9;" horiz-adv-x="351" 
d="M239 14q34 0 54 28t31 95l-18 -137h-268q8 0 14 7.5t6 15.5v615q0 8 -6 15.5t-14 7.5h268l18 -141q-11 68 -31 97.5t-54 29.5h-144v-310l127 1l19 -142q-12 69 -32.5 98.5t-54.5 29.5h-59v-310h144z" />
    <glyph glyph-name="E" unicode="&#xc8;" horiz-adv-x="351" 
d="M239 14q34 0 54 28t31 95l-18 -137h-268q8 0 14 7.5t6 15.5v615q0 8 -6 15.5t-14 7.5h268l18 -141q-11 68 -31 97.5t-54 29.5h-144v-310l127 1l19 -142q-12 69 -32.5 98.5t-54.5 29.5h-59v-310h144z" />
    <glyph glyph-name="F" unicode="F" horiz-adv-x="335" 
d="M306 661l18 -137q-17 106 -61 123h-168v-310l127 1l19 -142q-12 69 -32.5 98.5t-54.5 29.5h-59v-300q0 -9 6 -16.5t14 -7.5h-77q8 0 14 7.5t6 15.5v615q0 8 -6 15.5t-14 7.5h268z" />
    <glyph glyph-name="G" unicode="G" horiz-adv-x="450" 
d="M289 299h126v-13h-15v-286l-37 59q-52 -59 -116 -59q-91 0 -153.5 92.5t-62.5 237.5q0 82 25.5 156.5t76 124.5t114.5 50q82 0 140 -91l-1 -1v-135q-9 123 -53 179q-37 33 -86 34q-52 0 -94 -49.5t-63.5 -121.5t-21.5 -145q0 -70 20.5 -141.5t63 -123t95.5 -52.5
q65 0 116 67v205h-36q-32 -2 -51.5 -32t-29.5 -96l18 141h25z" />
    <glyph glyph-name="H" unicode="H" horiz-adv-x="392" 
d="M335 24q0 -8 6 -16t14 -8h-77q8 0 14 7.5t6 15.5v301h-205v-300q0 -8 6 -16t14 -8h-77q8 0 14 7.5t6 15.5v614q0 9 -6 16.5t-14 7.5h78q-9 0 -15 -7.5t-6 -16.5v-299h205v299q0 9 -6 16.5t-14 7.5h77q-8 0 -14 -7.5t-6 -16.5v-613z" />
    <glyph glyph-name="I" unicode="I" horiz-adv-x="150" 
d="M93 24q0 -8 6 -16t14 -8h-77q8 0 14 7.5t6 15.5v614q0 9 -6 16.5t-14 7.5h78q-9 0 -15 -7.5t-6 -16.5v-613z" />
    <glyph glyph-name="I" unicode="&#xcf;" horiz-adv-x="150" 
d="M93 24q0 -8 6 -16t14 -8h-77q8 0 14 7.5t6 15.5v614q0 9 -6 16.5t-14 7.5h78q-9 0 -15 -7.5t-6 -16.5v-613z" />
    <glyph glyph-name="I" unicode="&#xce;" horiz-adv-x="150" 
d="M93 24q0 -8 6 -16t14 -8h-77q8 0 14 7.5t6 15.5v614q0 9 -6 16.5t-14 7.5h78q-9 0 -15 -7.5t-6 -16.5v-613z" />
    <glyph glyph-name="I" unicode="&#xcd;" horiz-adv-x="150" 
d="M93 24q0 -8 6 -16t14 -8h-77q8 0 14 7.5t6 15.5v614q0 9 -6 16.5t-14 7.5h78q-9 0 -15 -7.5t-6 -16.5v-613z" />
    <glyph glyph-name="I" unicode="&#xcc;" horiz-adv-x="150" 
d="M93 24q0 -8 6 -16t14 -8h-77q8 0 14 7.5t6 15.5v614q0 9 -6 16.5t-14 7.5h78q-9 0 -15 -7.5t-6 -16.5v-613z" />
    <glyph glyph-name="J" unicode="J" horiz-adv-x="297" 
d="M185 661h77q-8 0 -14 -7.5t-6 -16.5v-467q0 -65 -17 -99q-11 -25 -30 -44q-20 -20 -48 -25q-13 -3 -26 -2q-12 1 -13 1l-13 3q-26 7 -45 26l-0.5 0.5l-0.5 0.5q-12 11 -22 34t-14 40l-4 17l54 114q-52 -140 -4 -193q1 0 1.5 -1l0.5 -1q17 -14 38 -18q22 -4 43 2
q36 10 53 58q5 12 7.5 34t2.5 37v16v468q0 8 -6 15.5t-14 7.5z" />
    <glyph glyph-name="K" unicode="K" horiz-adv-x="358" 
d="M303 24q0 -8 6 -16t14 -8h-77q8 0 14 7.5t6 16.5v282l-63 99l-110 -233v-148q0 -8 6 -16t15 -8h-78q8 0 14 7.5t6 15.5v614q0 9 -6 16.5t-14 7.5h78q-9 0 -15 -7.5t-6 -16.5v-432l206 436q4 9 -4 14.5t-16 5.5h66q-17 0 -31 -20l-104 -222l93 -144v-251z" />
    <glyph glyph-name="L" unicode="L" horiz-adv-x="328" 
d="M237 14q34 0 54 28t31 95l-18 -137h-268q8 0 14 7.5t6 15.5v615q0 8 -6 15.5t-14 7.5h77q-8 0 -14 -7.5t-6 -15.5v-601q0 -9 5.5 -15.5t14.5 -7.5h124z" />
    <glyph glyph-name="M" unicode="M" horiz-adv-x="459" 
d="M402 24q0 -8 6 -16t14 -8h-77q8 0 14 7.5t6 15.5v550l-126 -522l5 -22h-38l-136 559v-564q0 -8 6 -16t15 -8h-56q9 0 15 8t6 17v614q0 8 -5.5 15t-13.5 7h77q-15 -1 -18 -6.5t-1 -15.5l136 -559l134 551v6q0 9 -6 16.5t-14 7.5h77q-8 0 -14 -7.5t-6 -16.5v-613z" />
    <glyph glyph-name="N" unicode="N" horiz-adv-x="395" 
d="M302 661h58q-9 0 -15.5 -8.5t-6.5 -17.5v-635h-16l-252 612v-586q0 -10 6 -17.5t16 -8.5h-58q9 0 15.5 8.5t6.5 17.5v612q0 8 -5.5 15.5t-13.5 7.5h81q-16 -1 -20 -7t1 -15l225 -548v544q0 10 -6 17.5t-16 8.5z" />
    <glyph glyph-name="N" unicode="&#xd1;" horiz-adv-x="395" 
d="M302 661h58q-9 0 -15.5 -8.5t-6.5 -17.5v-635h-16l-252 612v-586q0 -10 6 -17.5t16 -8.5h-58q9 0 15.5 8.5t6.5 17.5v612q0 8 -5.5 15.5t-13.5 7.5h81q-16 -1 -20 -7t1 -15l225 -548v544q0 10 -6 17.5t-16 8.5z" />
    <glyph glyph-name="O" unicode="O" horiz-adv-x="452" 
d="M229 661.5q53 -0.5 97 -45.5t69.5 -121t24.5 -166t-27.5 -166t-71.5 -119.5t-98 -43t-97 45t-69.5 121t-24.5 166t27.5 165.5t71.5 120t98 43.5zM244 20q42 3 74.5 46.5t49 116t11.5 157.5q-8 128 -58 216.5t-113 84.5q-42 -2 -74.5 -46t-49 -116.5t-11.5 -156.5
q8 -129 58 -217t113 -85z" />
    <glyph glyph-name="O" unicode="&#xd8;" horiz-adv-x="452" 
d="M229 661.5q53 -0.5 97 -45.5t69.5 -121t24.5 -166t-27.5 -166t-71.5 -119.5t-98 -43t-97 45t-69.5 121t-24.5 166t27.5 165.5t71.5 120t98 43.5zM244 20q42 3 74.5 46.5t49 116t11.5 157.5q-8 128 -58 216.5t-113 84.5q-42 -2 -74.5 -46t-49 -116.5t-11.5 -156.5
q8 -129 58 -217t113 -85z" />
    <glyph glyph-name="O" unicode="&#xd6;" horiz-adv-x="452" 
d="M229 661.5q53 -0.5 97 -45.5t69.5 -121t24.5 -166t-27.5 -166t-71.5 -119.5t-98 -43t-97 45t-69.5 121t-24.5 166t27.5 165.5t71.5 120t98 43.5zM244 20q42 3 74.5 46.5t49 116t11.5 157.5q-8 128 -58 216.5t-113 84.5q-42 -2 -74.5 -46t-49 -116.5t-11.5 -156.5
q8 -129 58 -217t113 -85z" />
    <glyph glyph-name="O" unicode="&#xd5;" horiz-adv-x="452" 
d="M229 661.5q53 -0.5 97 -45.5t69.5 -121t24.5 -166t-27.5 -166t-71.5 -119.5t-98 -43t-97 45t-69.5 121t-24.5 166t27.5 165.5t71.5 120t98 43.5zM244 20q42 3 74.5 46.5t49 116t11.5 157.5q-8 128 -58 216.5t-113 84.5q-42 -2 -74.5 -46t-49 -116.5t-11.5 -156.5
q8 -129 58 -217t113 -85z" />
    <glyph glyph-name="O" unicode="&#xd4;" horiz-adv-x="452" 
d="M229 661.5q53 -0.5 97 -45.5t69.5 -121t24.5 -166t-27.5 -166t-71.5 -119.5t-98 -43t-97 45t-69.5 121t-24.5 166t27.5 165.5t71.5 120t98 43.5zM244 20q42 3 74.5 46.5t49 116t11.5 157.5q-8 128 -58 216.5t-113 84.5q-42 -2 -74.5 -46t-49 -116.5t-11.5 -156.5
q8 -129 58 -217t113 -85z" />
    <glyph glyph-name="O" unicode="&#xd3;" horiz-adv-x="452" 
d="M229 661.5q53 -0.5 97 -45.5t69.5 -121t24.5 -166t-27.5 -166t-71.5 -119.5t-98 -43t-97 45t-69.5 121t-24.5 166t27.5 165.5t71.5 120t98 43.5zM244 20q42 3 74.5 46.5t49 116t11.5 157.5q-8 128 -58 216.5t-113 84.5q-42 -2 -74.5 -46t-49 -116.5t-11.5 -156.5
q8 -129 58 -217t113 -85z" />
    <glyph glyph-name="O" unicode="&#xd2;" horiz-adv-x="452" 
d="M229 661.5q53 -0.5 97 -45.5t69.5 -121t24.5 -166t-27.5 -166t-71.5 -119.5t-98 -43t-97 45t-69.5 121t-24.5 166t27.5 165.5t71.5 120t98 43.5zM244 20q42 3 74.5 46.5t49 116t11.5 157.5q-8 128 -58 216.5t-113 84.5q-42 -2 -74.5 -46t-49 -116.5t-11.5 -156.5
q8 -129 58 -217t113 -85z" />
    <glyph glyph-name="P" unicode="P" horiz-adv-x="346" 
d="M156 661q48 0 87 -37.5t59 -93.5t20 -116q0 -104 -46 -174t-110 -75q-5 -1 -10 -1q-35 1 -63 22v-162q0 -8 6 -16t14 -8h-77q8 0 14 7.5t6 15.5v616q0 8 -6 15t-14 7h120zM158 178q39 1 69 40t44 91.5t14 104.5q0 55 -15 107.5t-45 89t-69 36.5h-46q-7 0 -12 -6.5
t-5 -13.5v-423q27 -25 63 -26h1.5h0.5z" />
    <glyph glyph-name="Q" unicode="Q" horiz-adv-x="451" 
d="M419 331q0 -96 -29.5 -176t-78.5 -121l64 -155l-12 -6q-8 12 -18 23q-1 1 -4 3.5t-13 9.5t-23 12t-35 9.5t-48 4.5q-87 0 -115 -56q-2 -3 -3 -5q-4 -10 -6 -20q0 -4 -1 -6v-3q0 -9 1 -18q2 -20 14 -35l-10 -9q-13 16 -17 37l-0.5 1.5t-0.5 2.5q0 4 -1 7v4v9q0 1 1 4
q0 5 1 8q0 4 2 10v1q12 43 49 74t85 31q67 0 125 -57l-46 110q-33 -24 -75 -25q-52 0 -96.5 44.5t-70.5 120.5t-26 165.5t26 166t70.5 120.5t97 44t97 -44t70.5 -120.5t26 -165.5zM283 101l20 -48q40 38 61 116t16 171q-8 127 -58.5 214t-113.5 83q-42 -2 -75 -45
t-49.5 -115t-12.5 -155q8 -127 58 -214.5t114 -83.5q28 2 49 20l-21 52z" />
    <glyph glyph-name="R" unicode="R" horiz-adv-x="351" 
d="M278 24q0 -9 6 -16.5t14 -7.5h-77q8 0 14 7.5t6 16.5v150l-48 75q-7 -3 -14 -5q-1 0 -1 -1h-1q-7 -2 -13 -3h-1h-1q-5 -1 -10 -1h-1h-1q-32 0 -57 21v-236q0 -9 6 -16.5t14 -7.5h-77q8 0 14 7.5t6 16.5v614q0 8 -6 15.5t-14 7.5h120q73 0 119.5 -66t46.5 -157
q0 -60 -34.5 -109.5t-81.5 -73.5l72 -112v-119zM151 253q42 0 88 57t46 128q0 81 -32.5 142t-86.5 67h-6h-1.5h-2.5h-47q-16 -3 -16 -19v-349q23 -27 58 -26z" />
    <glyph glyph-name="S" unicode="S" horiz-adv-x="319" 
d="M140 640q-27 -12 -43 -41.5t-17 -68.5t21.5 -87.5t66.5 -93.5q42 -43 67.5 -88t32 -84t0.5 -73t-25 -58.5t-46 -35.5q-24 -11 -49 -10q-46 0 -77.5 26t-42.5 73l31 127q-22 -104 -9 -150q13 -30 39.5 -47t58.5 -16q6 0 12 1h4q6 1 12 3l4 1q1 0 5 2q29 11 44 41.5
t13.5 71t-26 91t-69.5 97.5q-44 45 -68.5 95.5t-26 93t11.5 77t42 54.5t68 20h1h2q78 0 113 -92l-35 -130q6 44 8.5 70t1 53t-9.5 44q-13 20 -34 31t-44 10h-2h-1h-6q-13 -1 -25 -6h-1.5t-1.5 -1z" />
    <glyph glyph-name="T" unicode="T" horiz-adv-x="405" 
d="M381 661l19 -137q-11 68 -31.5 95.5t-54.5 27.5h-93v-623q0 -9 6 -16.5t14 -7.5h-77q8 0 14 7.5t6 16.5v623h-96q-33 -1 -52.5 -28.5t-30.5 -94.5l18 136v1h358z" />
    <glyph glyph-name="U" unicode="U" horiz-adv-x="367" 
d="M312 628v-234v-244q-1 -61 -38 -108q-23 -29 -58.5 -39t-70.5 4q-32 13 -56 43t-32 66q-5 27 -4 54v458q0 33 -20 33h77q-8 0 -14 -11t-6 -22v-229v-232q-2 -45 17 -86q15 -31 44.5 -48t62.5 -9q34 8 56.5 41t26.5 71q1 13 1 27v465q0 33 -20 33h55q-9 0 -15 -10t-6 -23z
" />
    <glyph glyph-name="U" unicode="&#xdc;" horiz-adv-x="367" 
d="M312 628v-234v-244q-1 -61 -38 -108q-23 -29 -58.5 -39t-70.5 4q-32 13 -56 43t-32 66q-5 27 -4 54v458q0 33 -20 33h77q-8 0 -14 -11t-6 -22v-229v-232q-2 -45 17 -86q15 -31 44.5 -48t62.5 -9q34 8 56.5 41t26.5 71q1 13 1 27v465q0 33 -20 33h55q-9 0 -15 -10t-6 -23z
" />
    <glyph glyph-name="U" unicode="&#xdb;" horiz-adv-x="367" 
d="M312 628v-234v-244q-1 -61 -38 -108q-23 -29 -58.5 -39t-70.5 4q-32 13 -56 43t-32 66q-5 27 -4 54v458q0 33 -20 33h77q-8 0 -14 -11t-6 -22v-229v-232q-2 -45 17 -86q15 -31 44.5 -48t62.5 -9q34 8 56.5 41t26.5 71q1 13 1 27v465q0 33 -20 33h55q-9 0 -15 -10t-6 -23z
" />
    <glyph glyph-name="U" unicode="&#xda;" horiz-adv-x="367" 
d="M312 628v-234v-244q-1 -61 -38 -108q-23 -29 -58.5 -39t-70.5 4q-32 13 -56 43t-32 66q-5 27 -4 54v458q0 33 -20 33h77q-8 0 -14 -11t-6 -22v-229v-232q-2 -45 17 -86q15 -31 44.5 -48t62.5 -9q34 8 56.5 41t26.5 71q1 13 1 27v465q0 33 -20 33h55q-9 0 -15 -10t-6 -23z
" />
    <glyph glyph-name="U" unicode="&#xd9;" horiz-adv-x="367" 
d="M312 628v-234v-244q-1 -61 -38 -108q-23 -29 -58.5 -39t-70.5 4q-32 13 -56 43t-32 66q-5 27 -4 54v458q0 33 -20 33h77q-8 0 -14 -11t-6 -22v-229v-232q-2 -45 17 -86q15 -31 44.5 -48t62.5 -9q34 8 56.5 41t26.5 71q1 13 1 27v465q0 33 -20 33h55q-9 0 -15 -10t-6 -23z
" />
    <glyph glyph-name="V" unicode="V" horiz-adv-x="391" 
d="M330 661h63q-10 0 -18 -8.5t-11 -18.5l-146 -605q15 -22 55 -29h-94l-155 637q-3 9 -10 16.5t-15 7.5h83q-16 -1 -19.5 -6.5t-1.5 -17.5l136 -556q7 -23 11 -33l143 589q1 10 -5 17t-16 7z" />
    <glyph glyph-name="W" unicode="W" horiz-adv-x="600" 
d="M539 661h62q-9 0 -17.5 -8.5t-10.5 -18.5l-147 -605q16 -22 55 -29h-93l-89 363l-81 -334q16 -22 55 -29h-93l-155 637q-3 9 -10 16.5t-15 7.5h83q-16 -1 -19.5 -6.5t-1.5 -17.5q143 -580 147 -589l83 344l-59 245q-3 9 -10 16.5t-15 7.5h83q-16 -1 -19.5 -6.5
t-1.5 -17.5l41 -167l41 167q1 10 -5 17t-16 7h63q-10 0 -18 -8.5t-11 -18.5l-47 -193q95 -384 99 -393l143 589q1 10 -5 17t-16 7z" />
    <glyph glyph-name="X" unicode="X" horiz-adv-x="355" 
d="M278 84q18 -42 35 -59.5t58 -24.5h-100l-109 288l-99 -263q-2 -10 4 -17.5t16 -7.5h-63q18 0 28 25l107 282l-126 333q-11 21 -27 21h85q-16 -1 -19 -8t1 -16l105 -278l105 278q2 9 -4.5 16.5t-16.5 7.5h67q-21 0 -33 -28l-110 -293z" />
    <glyph glyph-name="Y" unicode="Y" horiz-adv-x="318" 
d="M260 661h65q-20 0 -31 -27l-116 -306l1 -1v-303q0 -9 6 -16.5t14 -7.5h-77q8 0 14 7.5t6 16.5v296l-120 317q-4 9 -12 16.5t-16 7.5h85q-16 -1 -19 -8t1 -15l110 -290l109 289q2 10 -4.5 17t-15.5 7z" />
    <glyph glyph-name="Y" unicode="&#x178;" horiz-adv-x="318" 
d="M260 661h65q-20 0 -31 -27l-116 -306l1 -1v-303q0 -9 6 -16.5t14 -7.5h-77q8 0 14 7.5t6 16.5v296l-120 317q-4 9 -12 16.5t-16 7.5h85q-16 -1 -19 -8t1 -15l110 -290l109 289q2 10 -4.5 17t-15.5 7z" />
    <glyph glyph-name="Y" unicode="&#xdd;" horiz-adv-x="318" 
d="M260 661h65q-20 0 -31 -27l-116 -306l1 -1v-303q0 -9 6 -16.5t14 -7.5h-77q8 0 14 7.5t6 16.5v296l-120 317q-4 9 -12 16.5t-16 7.5h85q-16 -1 -19 -8t1 -15l110 -290l109 289q2 10 -4.5 17t-15.5 7z" />
    <glyph glyph-name="Z" unicode="Z" horiz-adv-x="334" 
d="M308 661l1 -12l-120 -316h62v-13h-67l-116 -306h151q35 0 55 27.5t31 95.5l-18 -137h-259v10l1 4l116 306h-60v13h65l119 314h-161q-34 0 -54 -27.5t-31 -95.5l18 137h267z" />
    <glyph glyph-name="a" unicode="a" horiz-adv-x="380" 
d="M353 0h-57v89q-36 -62 -104 -82q-26 -9 -54 -9q-41 -2 -73 25q-21 17 -30 43q-21 54 4.5 96.5t75.5 69.5q19 12 40 20q66 25 100.5 59.5t34.5 73.5q-14 70 -59 90q-41 15 -81 1q-29 -12 -44 -39t-15.5 -57.5t2.5 -59.5t9 -48l5 -19l-51 89q0 61 36 107.5t97 46.5
q5 0 12 -1q64 -3 97.5 -52.5t33.5 -124.5v-294q0 -8 6 -16t15 -8zM188 20q38 12 68 39.5t40 67.5v191q0 13 -1 27q-25 -60 -122 -101q-17 -9 -29 -16.5t-26.5 -18t-24.5 -20.5t-18.5 -23t-12.5 -26.5t-3.5 -30t6.5 -34.5q8 -23 23.5 -37.5t34 -19t34.5 -4t31 5.5z" />
    <glyph glyph-name="a" unicode="&#xe5;" horiz-adv-x="380" 
d="M353 0h-57v89q-36 -62 -104 -82q-26 -9 -54 -9q-41 -2 -73 25q-21 17 -30 43q-21 54 4.5 96.5t75.5 69.5q19 12 40 20q66 25 100.5 59.5t34.5 73.5q-14 70 -59 90q-41 15 -81 1q-29 -12 -44 -39t-15.5 -57.5t2.5 -59.5t9 -48l5 -19l-51 89q0 61 36 107.5t97 46.5
q5 0 12 -1q64 -3 97.5 -52.5t33.5 -124.5v-294q0 -8 6 -16t15 -8zM188 20q38 12 68 39.5t40 67.5v191q0 13 -1 27q-25 -60 -122 -101q-17 -9 -29 -16.5t-26.5 -18t-24.5 -20.5t-18.5 -23t-12.5 -26.5t-3.5 -30t6.5 -34.5q8 -23 23.5 -37.5t34 -19t34.5 -4t31 5.5z" />
    <glyph glyph-name="a" unicode="&#xe4;" horiz-adv-x="380" 
d="M353 0h-57v89q-36 -62 -104 -82q-26 -9 -54 -9q-41 -2 -73 25q-21 17 -30 43q-21 54 4.5 96.5t75.5 69.5q19 12 40 20q66 25 100.5 59.5t34.5 73.5q-14 70 -59 90q-41 15 -81 1q-29 -12 -44 -39t-15.5 -57.5t2.5 -59.5t9 -48l5 -19l-51 89q0 61 36 107.5t97 46.5
q5 0 12 -1q64 -3 97.5 -52.5t33.5 -124.5v-294q0 -8 6 -16t15 -8zM188 20q38 12 68 39.5t40 67.5v191q0 13 -1 27q-25 -60 -122 -101q-17 -9 -29 -16.5t-26.5 -18t-24.5 -20.5t-18.5 -23t-12.5 -26.5t-3.5 -30t6.5 -34.5q8 -23 23.5 -37.5t34 -19t34.5 -4t31 5.5z" />
    <glyph glyph-name="a" unicode="&#xe3;" horiz-adv-x="380" 
d="M353 0h-57v89q-36 -62 -104 -82q-26 -9 -54 -9q-41 -2 -73 25q-21 17 -30 43q-21 54 4.5 96.5t75.5 69.5q19 12 40 20q66 25 100.5 59.5t34.5 73.5q-14 70 -59 90q-41 15 -81 1q-29 -12 -44 -39t-15.5 -57.5t2.5 -59.5t9 -48l5 -19l-51 89q0 61 36 107.5t97 46.5
q5 0 12 -1q64 -3 97.5 -52.5t33.5 -124.5v-294q0 -8 6 -16t15 -8zM188 20q38 12 68 39.5t40 67.5v191q0 13 -1 27q-25 -60 -122 -101q-17 -9 -29 -16.5t-26.5 -18t-24.5 -20.5t-18.5 -23t-12.5 -26.5t-3.5 -30t6.5 -34.5q8 -23 23.5 -37.5t34 -19t34.5 -4t31 5.5z" />
    <glyph glyph-name="a" unicode="&#xe2;" horiz-adv-x="380" 
d="M353 0h-57v89q-36 -62 -104 -82q-26 -9 -54 -9q-41 -2 -73 25q-21 17 -30 43q-21 54 4.5 96.5t75.5 69.5q19 12 40 20q66 25 100.5 59.5t34.5 73.5q-14 70 -59 90q-41 15 -81 1q-29 -12 -44 -39t-15.5 -57.5t2.5 -59.5t9 -48l5 -19l-51 89q0 61 36 107.5t97 46.5
q5 0 12 -1q64 -3 97.5 -52.5t33.5 -124.5v-294q0 -8 6 -16t15 -8zM188 20q38 12 68 39.5t40 67.5v191q0 13 -1 27q-25 -60 -122 -101q-17 -9 -29 -16.5t-26.5 -18t-24.5 -20.5t-18.5 -23t-12.5 -26.5t-3.5 -30t6.5 -34.5q8 -23 23.5 -37.5t34 -19t34.5 -4t31 5.5z" />
    <glyph glyph-name="a" unicode="&#xe1;" horiz-adv-x="380" 
d="M353 0h-57v89q-36 -62 -104 -82q-26 -9 -54 -9q-41 -2 -73 25q-21 17 -30 43q-21 54 4.5 96.5t75.5 69.5q19 12 40 20q66 25 100.5 59.5t34.5 73.5q-14 70 -59 90q-41 15 -81 1q-29 -12 -44 -39t-15.5 -57.5t2.5 -59.5t9 -48l5 -19l-51 89q0 61 36 107.5t97 46.5
q5 0 12 -1q64 -3 97.5 -52.5t33.5 -124.5v-294q0 -8 6 -16t15 -8zM188 20q38 12 68 39.5t40 67.5v191q0 13 -1 27q-25 -60 -122 -101q-17 -9 -29 -16.5t-26.5 -18t-24.5 -20.5t-18.5 -23t-12.5 -26.5t-3.5 -30t6.5 -34.5q8 -23 23.5 -37.5t34 -19t34.5 -4t31 5.5z" />
    <glyph glyph-name="a" unicode="&#xe0;" horiz-adv-x="380" 
d="M353 0h-57v89q-36 -62 -104 -82q-26 -9 -54 -9q-41 -2 -73 25q-21 17 -30 43q-21 54 4.5 96.5t75.5 69.5q19 12 40 20q66 25 100.5 59.5t34.5 73.5q-14 70 -59 90q-41 15 -81 1q-29 -12 -44 -39t-15.5 -57.5t2.5 -59.5t9 -48l5 -19l-51 89q0 61 36 107.5t97 46.5
q5 0 12 -1q64 -3 97.5 -52.5t33.5 -124.5v-294q0 -8 6 -16t15 -8zM188 20q38 12 68 39.5t40 67.5v191q0 13 -1 27q-25 -60 -122 -101q-17 -9 -29 -16.5t-26.5 -18t-24.5 -20.5t-18.5 -23t-12.5 -26.5t-3.5 -30t6.5 -34.5q8 -23 23.5 -37.5t34 -19t34.5 -4t31 5.5z" />
    <glyph glyph-name="b" unicode="b" horiz-adv-x="414" 
d="M222 499q46 0 84.5 -40t58 -97t19.5 -113t-16.5 -110.5t-53 -95.5t-83.5 -44q-5 -1 -9 -1q-41 0 -76.5 51t-57.5 124v-173h-57q8 0 14 7.5t6 15.5v614q0 9 -6 16.5t-14 7.5h57v-299q19 62 55 99.5t79 37.5zM228 13q50 4 84.5 72.5t34.5 163.5q0 93 -36 162t-83 74
q-3 1 -6 1q-49 0 -87 -55t-47 -138v-64q17 -86 55 -151.5t79 -65.5q3 0 6 1z" />
    <glyph glyph-name="c" unicode="c" horiz-adv-x="329" 
d="M291 73l12 -7q-45 -69 -107 -69q-8 0 -15 1q-63 9 -106.5 78t-43.5 170q0 61 20 117.5t59 94.5t86 38q62 0 107 -69l-2 -1l-1 -103q-7 93 -42 135q-26 24 -62 24h-10q-36 -5 -63.5 -42.5t-41 -89t-13.5 -103.5t13.5 -104t43 -90.5t67.5 -41.5q3 -1 4 -1q55 0 95 63z" />
    <glyph glyph-name="c" unicode="&#xe7;" horiz-adv-x="329" 
d="M291 73l12 -7q-45 -69 -107 -69q-8 0 -15 1q-63 9 -106.5 78t-43.5 170q0 61 20 117.5t59 94.5t86 38q62 0 107 -69l-2 -1l-1 -103q-7 93 -42 135q-26 24 -62 24h-10q-36 -5 -63.5 -42.5t-41 -89t-13.5 -103.5t13.5 -104t43 -90.5t67.5 -41.5q3 -1 4 -1q55 0 95 63z" />
    <glyph glyph-name="d" unicode="d" horiz-adv-x="413" 
d="M382 0h-57v171q-22 -71 -57 -120.5t-76 -49.5h-8q-49 3 -85 43.5t-52.5 94.5t-16.5 110q0 53 17.5 106.5t52 93.5t76.5 47h3l1.5 0.5t2.5 0.5h9q42 0 78 -36.5t55 -97.5v275q-1 9 -6.5 16t-13.5 7h57v-637q0 -8 6 -16t14 -8zM192 14q40 0 78 64t55 148v72
q-10 80 -47.5 132.5t-86 52.5t-86.5 -69t-38 -165q0 -94 34 -161.5t83 -72.5q4 -1 8 -1z" />
    <glyph glyph-name="e" unicode="e" horiz-adv-x="333" 
d="M196 12q54 0 95 63l12 -7q-45 -70 -107 -70q-26 0 -49 13q-51 23 -83.5 87t-32.5 151q0 58 19 113t55.5 93.5t81.5 42.5h9q9 0 17 -2q4 -1 7 -2q34 -10 60 -43.5t26 -86.5q0 -47 -67 -100q-15 -11 -44 -32q-63 -45 -80 -72q-21 -35 -10 -75q36 -72 90 -73h1zM94 149
q7 20 27.5 42t45 41t48 39.5t39 45t15.5 49.5q0 77 -33 105q-18 13 -40 14q-7 0 -14 -2h-1q-51 -11 -82 -82t-31 -152q0 -64 21 -125q1 13 5 25z" />
    <glyph glyph-name="e" unicode="&#xeb;" horiz-adv-x="333" 
d="M196 12q54 0 95 63l12 -7q-45 -70 -107 -70q-26 0 -49 13q-51 23 -83.5 87t-32.5 151q0 58 19 113t55.5 93.5t81.5 42.5h9q9 0 17 -2q4 -1 7 -2q34 -10 60 -43.5t26 -86.5q0 -47 -67 -100q-15 -11 -44 -32q-63 -45 -80 -72q-21 -35 -10 -75q36 -72 90 -73h1zM94 149
q7 20 27.5 42t45 41t48 39.5t39 45t15.5 49.5q0 77 -33 105q-18 13 -40 14q-7 0 -14 -2h-1q-51 -11 -82 -82t-31 -152q0 -64 21 -125q1 13 5 25z" />
    <glyph glyph-name="e" unicode="&#xea;" horiz-adv-x="333" 
d="M196 12q54 0 95 63l12 -7q-45 -70 -107 -70q-26 0 -49 13q-51 23 -83.5 87t-32.5 151q0 58 19 113t55.5 93.5t81.5 42.5h9q9 0 17 -2q4 -1 7 -2q34 -10 60 -43.5t26 -86.5q0 -47 -67 -100q-15 -11 -44 -32q-63 -45 -80 -72q-21 -35 -10 -75q36 -72 90 -73h1zM94 149
q7 20 27.5 42t45 41t48 39.5t39 45t15.5 49.5q0 77 -33 105q-18 13 -40 14q-7 0 -14 -2h-1q-51 -11 -82 -82t-31 -152q0 -64 21 -125q1 13 5 25z" />
    <glyph glyph-name="e" unicode="&#xe9;" horiz-adv-x="333" 
d="M196 12q54 0 95 63l12 -7q-45 -70 -107 -70q-26 0 -49 13q-51 23 -83.5 87t-32.5 151q0 58 19 113t55.5 93.5t81.5 42.5h9q9 0 17 -2q4 -1 7 -2q34 -10 60 -43.5t26 -86.5q0 -47 -67 -100q-15 -11 -44 -32q-63 -45 -80 -72q-21 -35 -10 -75q36 -72 90 -73h1zM94 149
q7 20 27.5 42t45 41t48 39.5t39 45t15.5 49.5q0 77 -33 105q-18 13 -40 14q-7 0 -14 -2h-1q-51 -11 -82 -82t-31 -152q0 -64 21 -125q1 13 5 25z" />
    <glyph glyph-name="e" unicode="&#xe8;" horiz-adv-x="333" 
d="M196 12q54 0 95 63l12 -7q-45 -70 -107 -70q-26 0 -49 13q-51 23 -83.5 87t-32.5 151q0 58 19 113t55.5 93.5t81.5 42.5h9q9 0 17 -2q4 -1 7 -2q34 -10 60 -43.5t26 -86.5q0 -47 -67 -100q-15 -11 -44 -32q-63 -45 -80 -72q-21 -35 -10 -75q36 -72 90 -73h1zM94 149
q7 20 27.5 42t45 41t48 39.5t39 45t15.5 49.5q0 77 -33 105q-18 13 -40 14q-7 0 -14 -2h-1q-51 -11 -82 -82t-31 -152q0 -64 21 -125q1 13 5 25z" />
    <glyph glyph-name="f" unicode="f" horiz-adv-x="231" 
d="M231 636q17 -18 20.5 -43t-6.5 -48l-7 3q7 20 2 41t-20 36t-35 17h-10l-10 -1q-10 -2 -19 -6q-53 -27 -53 -124v-15h107l18 -137q-11 67 -31 95t-53 28h-41v-458q0 -9 6 -16.5t14 -7.5h-77q8 0 14 7.5t6 16.5v458h-27v14h27v17l2 22q4 25 13 48t25 43q17 20 41 30
q12 5 25 6l13 1q6 -1 13 -2q26 -5 43 -25z" />
    <glyph glyph-name="g" unicode="g" horiz-adv-x="374" 
d="M342 285q0 -54 -18.5 -100.5t-50.5 -75.5l66 -161l-12 -6q-8 12 -18 23l-3.5 3.5t-13 9.5t-23.5 12t-35 9.5t-48 4.5q-87 0 -115 -56q-2 -3 -3 -5q-4 -10 -6 -20q0 -4 -1 -6v-3q0 -9 1 -18q2 -20 15 -35l-11 -9q-13 16 -17 37v1.5t-1 2.5v7q-1 2 -1 4v9q1 0 1 4q0 5 1 8
q1 4 2 10v1q12 43 49 74t85 31q67 0 125 -57l-49 116q-33 -26 -76 -26q-65 0 -111 61.5t-46 149t46 149.5t111 62t111 -62t46 -149zM247 170l18 -42q46 61 39 162q-6 81 -45 136.5t-88 53t-80 -61t-25 -139t45 -136t89 -53.5q32 3 55 27l-20 48z" />
    <glyph glyph-name="h" unicode="h" horiz-adv-x="430" 
d="M383 24q0 -9 5.5 -16.5t14.5 -7.5h-57q-1 119 -1 249q0 97 -35 164t-82 72q-4 1 -7 1q-50 0 -87.5 -55.5t-46.5 -137.5v-270q0 -9 6 -16t14 -7h-57v639q0 8 -6 14.5t-14 7.5h57v-299q19 62 55 99.5t79 37.5q72 0 117 -71.5t45 -178.5v-225z" />
    <glyph glyph-name="i" unicode="i" horiz-adv-x="139" 
d="M107 0h-57v472q0 9 -6 16.5t-14 7.5h57v-474q0 -8 6 -14.5t14 -7.5zM68.5 634q-11.5 0 -19.5 8t-8 19.5t8 19.5t19.5 8t19.5 -8t8 -19.5t-8 -19.5t-19.5 -8z" />
    <glyph glyph-name="i" unicode="&#xef;" horiz-adv-x="139" 
d="M107 0h-57v472q0 9 -6 16.5t-14 7.5h57v-474q0 -8 6 -14.5t14 -7.5zM68.5 634q-11.5 0 -19.5 8t-8 19.5t8 19.5t19.5 8t19.5 -8t8 -19.5t-8 -19.5t-19.5 -8z" />
    <glyph glyph-name="i" unicode="&#xee;" horiz-adv-x="139" 
d="M107 0h-57v472q0 9 -6 16.5t-14 7.5h57v-474q0 -8 6 -14.5t14 -7.5zM68.5 634q-11.5 0 -19.5 8t-8 19.5t8 19.5t19.5 8t19.5 -8t8 -19.5t-8 -19.5t-19.5 -8z" />
    <glyph glyph-name="i" unicode="&#xed;" horiz-adv-x="139" 
d="M107 0h-57v472q0 9 -6 16.5t-14 7.5h57v-474q0 -8 6 -14.5t14 -7.5zM68.5 634q-11.5 0 -19.5 8t-8 19.5t8 19.5t19.5 8t19.5 -8t8 -19.5t-8 -19.5t-19.5 -8z" />
    <glyph glyph-name="i" unicode="&#xec;" horiz-adv-x="139" 
d="M107 0h-57v472q0 9 -6 16.5t-14 7.5h57v-474q0 -8 6 -14.5t14 -7.5zM68.5 634q-11.5 0 -19.5 8t-8 19.5t8 19.5t19.5 8t19.5 -8t8 -19.5t-8 -19.5t-19.5 -8z" />
    <glyph glyph-name="j" unicode="j" horiz-adv-x="268" 
d="M198.5 634q-11.5 0 -19.5 8t-8 19.5t8 19.5t19.5 8t19.5 -8t8 -19.5t-8 -19.5t-19.5 -8zM180 472q0 9 -6 16.5t-14 7.5h57v-516q0 -44 -11.5 -70t-35.5 -48q-20 -20 -48 -25q-56 -11 -98 29q-11 11 -21 34t-15 40l-4 17l54 113q-52 -138 -4 -192l1 -1l1 -1q17 -15 38 -18
q22 -4 43 2q25 6 44 41t19 104v467z" />
    <glyph glyph-name="k" unicode="k" horiz-adv-x="317" 
d="M276 24q0 -9 6 -16.5t14 -7.5h-77q8 0 14 7t6 16v151h1l-74 114l-79 -136v-128q0 -9 6 -16.5t14 -7.5h-57v637q0 9 -6 16.5t-14 7.5h57v-482l170 293q4 8 -3.5 16t-17.5 8h69q-24 -6 -34 -28l-97 -167l82 -127l20 -31v-119z" />
    <glyph glyph-name="l" unicode="l" horiz-adv-x="137" 
d="M106 0h-57v638q0 9 -6 16t-14 7h57v-637q0 -9 6 -16.5t14 -7.5z" />
    <glyph glyph-name="m" unicode="m" horiz-adv-x="654" 
d="M606 24q0 -8 6 -16t14 -8h-56q-1 119 -1 249q0 81 -22 143.5t-55 84.5q-15 8 -31 9q-40 0 -71.5 -46t-43.5 -119q6 -36 6 -72v-225q0 -9 6 -16.5t14 -7.5h-57q-1 119 -1 249q0 81 -21.5 143.5t-55.5 84.5q-14 8 -31 9q-43 0 -76.5 -54.5t-41.5 -135.5v-273q1 -9 6.5 -16
t13.5 -7h-57v473q0 8 -6 15.5t-14 7.5h57v-128q17 60 48.5 95.5t69.5 35.5q18 0 35 -8q34 -13 59.5 -48.5t38.5 -87.5q16 65 49 104.5t73 39.5q18 0 34 -8q51 -19 81 -85.5t30 -156.5v-225z" />
    <glyph glyph-name="n" unicode="n" horiz-adv-x="399" 
d="M352 24q0 -9 6 -16.5t14 -7.5h-56q-1 119 -1 249q0 94 -28.5 160t-68.5 75q-6 2 -12 2q-43 0 -76.5 -54.5t-41.5 -135.5v-273q1 -8 6.5 -15.5t13.5 -7.5h-57v472q0 9 -6 16.5t-14 7.5h57v-128q18 60 49.5 95.5t68.5 35.5q64 0 105 -72t41 -178v-225z" />
    <glyph glyph-name="n" unicode="&#xf1;" horiz-adv-x="399" 
d="M352 24q0 -9 6 -16.5t14 -7.5h-56q-1 119 -1 249q0 94 -28.5 160t-68.5 75q-6 2 -12 2q-43 0 -76.5 -54.5t-41.5 -135.5v-273q1 -8 6.5 -15.5t13.5 -7.5h-57v472q0 9 -6 16.5t-14 7.5h57v-128q18 60 49.5 95.5t68.5 35.5q64 0 105 -72t41 -178v-225z" />
    <glyph glyph-name="o" unicode="o" horiz-adv-x="424" 
d="M211.5 496q75.5 0 128.5 -73t53 -175.5t-53 -175t-128.5 -72.5t-128.5 72.5t-53 175t53 175.5t128.5 73zM228.5 18.5q58.5 2.5 95 71.5t29.5 164t-53.5 160.5t-105 63t-95 -71.5t-29 -164.5t53.5 -160.5t104.5 -62.5z" />
    <glyph glyph-name="o" unicode="&#xf8;" horiz-adv-x="424" 
d="M211.5 496q75.5 0 128.5 -73t53 -175.5t-53 -175t-128.5 -72.5t-128.5 72.5t-53 175t53 175.5t128.5 73zM228.5 18.5q58.5 2.5 95 71.5t29.5 164t-53.5 160.5t-105 63t-95 -71.5t-29 -164.5t53.5 -160.5t104.5 -62.5z" />
    <glyph glyph-name="o" unicode="&#xf6;" horiz-adv-x="424" 
d="M211.5 496q75.5 0 128.5 -73t53 -175.5t-53 -175t-128.5 -72.5t-128.5 72.5t-53 175t53 175.5t128.5 73zM228.5 18.5q58.5 2.5 95 71.5t29.5 164t-53.5 160.5t-105 63t-95 -71.5t-29 -164.5t53.5 -160.5t104.5 -62.5z" />
    <glyph glyph-name="o" unicode="&#xf5;" horiz-adv-x="424" 
d="M211.5 496q75.5 0 128.5 -73t53 -175.5t-53 -175t-128.5 -72.5t-128.5 72.5t-53 175t53 175.5t128.5 73zM228.5 18.5q58.5 2.5 95 71.5t29.5 164t-53.5 160.5t-105 63t-95 -71.5t-29 -164.5t53.5 -160.5t104.5 -62.5z" />
    <glyph glyph-name="o" unicode="&#xf4;" horiz-adv-x="424" 
d="M211.5 496q75.5 0 128.5 -73t53 -175.5t-53 -175t-128.5 -72.5t-128.5 72.5t-53 175t53 175.5t128.5 73zM228.5 18.5q58.5 2.5 95 71.5t29.5 164t-53.5 160.5t-105 63t-95 -71.5t-29 -164.5t53.5 -160.5t104.5 -62.5z" />
    <glyph glyph-name="o" unicode="&#xf3;" horiz-adv-x="424" 
d="M211.5 496q75.5 0 128.5 -73t53 -175.5t-53 -175t-128.5 -72.5t-128.5 72.5t-53 175t53 175.5t128.5 73zM228.5 18.5q58.5 2.5 95 71.5t29.5 164t-53.5 160.5t-105 63t-95 -71.5t-29 -164.5t53.5 -160.5t104.5 -62.5z" />
    <glyph glyph-name="o" unicode="&#xf2;" horiz-adv-x="424" 
d="M211.5 496q75.5 0 128.5 -73t53 -175.5t-53 -175t-128.5 -72.5t-128.5 72.5t-53 175t53 175.5t128.5 73zM228.5 18.5q58.5 2.5 95 71.5t29.5 164t-53.5 160.5t-105 63t-95 -71.5t-29 -164.5t53.5 -160.5t104.5 -62.5z" />
    <glyph glyph-name="p" unicode="p" horiz-adv-x="414" 
d="M239 496q42 -7 76 -47.5t51.5 -94t17.5 -105.5q0 -56 -16.5 -110t-53 -95t-84.5 -44h-8q-41 0 -76.5 50.5t-57.5 122.5v-338h-57q8 0 14 7.5t6 16.5v613q0 9 -6 16.5t-14 7.5h57v-135q19 62 55 99.5t79 37.5q9 0 17 -2zM223 14q51 0 87.5 68.5t36.5 166.5q0 90 -34 157.5
t-79 76.5q-6 1 -12 1q-49 0 -87 -54.5t-47 -136.5v-64q17 -86 55 -150.5t79 -64.5h1z" />
    <glyph glyph-name="q" unicode="q" horiz-adv-x="415" 
d="M384 -165h-57v343q-22 -74 -57.5 -126t-77.5 -52h-8q-48 3 -84.5 44t-53 95t-16.5 110q0 52 17 105.5t51.5 94t76.5 47.5q8 2 17 2q44 0 80.5 -39t54.5 -103v116q0 9 -6 16.5t-14 7.5h57v-637q0 -9 6 -16.5t14 -7.5zM192 14q41 0 80 68t55 155v37q-5 89 -44 149.5
t-91 60.5q-6 0 -12 -1q-45 -9 -79 -76.5t-34 -157.5q0 -98 36.5 -166.5t87.5 -68.5h1z" />
    <glyph glyph-name="r" unicode="r" horiz-adv-x="325" 
d="M309 429v-1l-1 -102q-3 52 -24 98t-52 57q-9 3 -19 3q-45 0 -79 -53.5t-43 -135.5v-295h-57q8 0 14 8t6 16v448q0 9 -6 16.5t-14 7.5h57v-130q18 60 50.5 96t71.5 36q34 -1 60 -24l1 -1q21 -19 35 -44z" />
    <glyph glyph-name="s" unicode="s" horiz-adv-x="259" 
d="M228 428l-25 -98q9 50 6.5 84.5t-19.5 51.5l-2.5 2.5t-3 2.5t-2.5 2q-2 1 -5 3q-38 20 -74 -3q-22 -17 -28 -48t10.5 -74.5t56.5 -85.5q47 -48 63.5 -101t5.5 -93t-42 -60q-8 -6 -17 -9l-12 -4q-5 0 -5 -1h-4l-4 -1v1h-2q-3 -1 -4 -1q-35 0 -59 20t-33 56v1l23 96
q-22 -102 15 -139q23 -21 54 -20q5 0 10 1h1q16 2 29 11q23 17 27 53t-15 81t-56 83q-42 42 -58.5 89.5t-9 84t32 61t58.5 24.5h1h1q60 0 86 -69v-1z" />
    <glyph glyph-name="t" unicode="t" horiz-adv-x="246" 
d="M214 495l19 -136q-11 68 -31.5 95.5t-54.5 27.5h-55v-458q1 -9 6.5 -16.5t14.5 -7.5h-57v482h-26v14h26v141q0 9 -6 16.5t-15 7.5h57v-165h122v-1z" />
    <glyph glyph-name="u" unicode="u" horiz-adv-x="397" 
d="M365 0h-56v137q-17 -62 -49.5 -100t-71.5 -38h-9q-61 6 -98.5 76t-37.5 172v230q-1 7 -5.5 13t-11.5 6h53q1 -119 1 -249q0 -74 18.5 -133t47.5 -86q19 -15 42 -16q48 0 83 64.5t38 157.5v238q-1 9 -6.5 16.5t-14.5 7.5h57v-474q1 -8 6.5 -14.5t13.5 -7.5z" />
    <glyph glyph-name="u" unicode="&#xfc;" horiz-adv-x="397" 
d="M365 0h-56v137q-17 -62 -49.5 -100t-71.5 -38h-9q-61 6 -98.5 76t-37.5 172v230q-1 7 -5.5 13t-11.5 6h53q1 -119 1 -249q0 -74 18.5 -133t47.5 -86q19 -15 42 -16q48 0 83 64.5t38 157.5v238q-1 9 -6.5 16.5t-14.5 7.5h57v-474q1 -8 6.5 -14.5t13.5 -7.5z" />
    <glyph glyph-name="u" unicode="&#xfb;" horiz-adv-x="397" 
d="M365 0h-56v137q-17 -62 -49.5 -100t-71.5 -38h-9q-61 6 -98.5 76t-37.5 172v230q-1 7 -5.5 13t-11.5 6h53q1 -119 1 -249q0 -74 18.5 -133t47.5 -86q19 -15 42 -16q48 0 83 64.5t38 157.5v238q-1 9 -6.5 16.5t-14.5 7.5h57v-474q1 -8 6.5 -14.5t13.5 -7.5z" />
    <glyph glyph-name="u" unicode="&#xfa;" horiz-adv-x="397" 
d="M365 0h-56v137q-17 -62 -49.5 -100t-71.5 -38h-9q-61 6 -98.5 76t-37.5 172v230q-1 7 -5.5 13t-11.5 6h53q1 -119 1 -249q0 -74 18.5 -133t47.5 -86q19 -15 42 -16q48 0 83 64.5t38 157.5v238q-1 9 -6.5 16.5t-14.5 7.5h57v-474q1 -8 6.5 -14.5t13.5 -7.5z" />
    <glyph glyph-name="u" unicode="&#xf9;" horiz-adv-x="397" 
d="M365 0h-56v137q-17 -62 -49.5 -100t-71.5 -38h-9q-61 6 -98.5 76t-37.5 172v230q-1 7 -5.5 13t-11.5 6h53q1 -119 1 -249q0 -74 18.5 -133t47.5 -86q19 -15 42 -16q48 0 83 64.5t38 157.5v238q-1 9 -6.5 16.5t-14.5 7.5h57v-474q1 -8 6.5 -14.5t13.5 -7.5z" />
    <glyph glyph-name="v" unicode="v" horiz-adv-x="319" 
d="M258 496h62q-10 0 -18 -8.5t-11 -18.5l-113 -469h-38l-115 472q-3 9 -10 16.5t-15 7.5h83q-16 -1 -19.5 -6.5t-1.5 -17.5l109 -444l107 444q1 10 -5 17t-15 7z" />
    <glyph glyph-name="w" unicode="w" horiz-adv-x="495" 
d="M434 496h62q-9 0 -17.5 -8.5t-11.5 -18.5l-113 -469h-38l-69 283l-69 -283h-38l-115 472q-3 9 -10 16.5t-15 7.5h83q-16 -1 -19.5 -6.5t-1.5 -17.5l109 -444l68 285l-38 159q-3 9 -10 16.5t-15 7.5h83q-16 -1 -19.5 -6.5t-1.5 -17.5l109 -444l107 444q1 10 -5 17t-15 7z
" />
    <glyph glyph-name="x" unicode="x" horiz-adv-x="280" 
d="M215 89q2 -7 8 -21.5t8 -18.5l7 -14t8 -13t9 -8.5t12 -8.5t14 -5h-72l-80 210l-70 -186q-2 -9 4.5 -16.5t15.5 -7.5h-64q19 0 30 26l77 204l-91 241q-4 9 -12 17t-17 8h85q-16 -1 -19 -8t2 -16l72 -190l72 190q1 10 -5 17t-16 7h65q-20 0 -31 -27l-78 -207z" />
    <glyph glyph-name="y" unicode="y" horiz-adv-x="338" 
d="M276 496h64q-11 -1 -19.5 -8.5t-10.5 -18.5l-109 -468q-14 -58 -48.5 -103t-78.5 -65q-26 -12 -55 -13q-24 0 -46 11q-27 15 -48 36l12 113q2 -122 52 -141q40 -13 79 6q42 19 74 61.5t46 97.5v2l-165 465q-4 9 -12 17t-17 8h80q-13 -1 -15.5 -6.5t1.5 -13.5l144 -404
l93 400h-1q2 9 -4 16.5t-16 7.5z" />
    <glyph glyph-name="y" unicode="&#xff;" horiz-adv-x="338" 
d="M276 496h64q-11 -1 -19.5 -8.5t-10.5 -18.5l-109 -468q-14 -58 -48.5 -103t-78.5 -65q-26 -12 -55 -13q-24 0 -46 11q-27 15 -48 36l12 113q2 -122 52 -141q40 -13 79 6q42 19 74 61.5t46 97.5v2l-165 465q-4 9 -12 17t-17 8h80q-13 -1 -15.5 -6.5t1.5 -13.5l144 -404
l93 400h-1q2 9 -4 16.5t-16 7.5z" />
    <glyph glyph-name="y" unicode="&#xfd;" horiz-adv-x="338" 
d="M276 496h64q-11 -1 -19.5 -8.5t-10.5 -18.5l-109 -468q-14 -58 -48.5 -103t-78.5 -65q-26 -12 -55 -13q-24 0 -46 11q-27 15 -48 36l12 113q2 -122 52 -141q40 -13 79 6q42 19 74 61.5t46 97.5v2l-165 465q-4 9 -12 17t-17 8h80q-13 -1 -15.5 -6.5t1.5 -13.5l144 -404
l93 400h-1q2 9 -4 16.5t-16 7.5z" />
    <glyph glyph-name="z" unicode="z" horiz-adv-x="316" 
d="M207 14q34 0 54.5 29.5t31.5 97.5l-18 -141h-245v10l2 4l222 468h-145q-34 0 -54.5 -29.5t-31.5 -97.5l18 141h3h238v-17l-219 -465h144z" />
    <glyph glyph-name="nonbreakingspace" unicode="&#xa0;" horiz-adv-x="191" 
 />
    <glyph glyph-name="softhyphen" unicode="&#xad;" 
 />
    </font>
</defs>
</svg>
