<?xml version="1.0" standalone="no"?>
<!DOCTYPE svg PUBLIC "-//W3C//DTD SVG 1.1//EN" "http://www.w3.org/Graphics/SVG/1.1/DTD/svg11.dtd" >
<svg xmlns="http://www.w3.org/2000/svg" xmlns:xlink="http://www.w3.org/1999/xlink" version="1.1">
<metadata>
Created by FontForge 20170731 at Tue Jun 27 02:13:35 2023
 By Aleksey,,,
Copyright (c) 2021 by Putu Eka Hermawan. All rights reserved.
</metadata>
<defs>
<font id="Rottran-Demo-Regular" horiz-adv-x="1118" >
  <font-face 
    font-family="Rottran-Demo"
    font-weight="400"
    font-stretch="normal"
    units-per-em="2048"
    panose-1="0 0 5 0 0 0 0 0 0 0"
    ascent="1638"
    descent="-410"
    x-height="840"
    cap-height="1167"
    bbox="-481 -504 2150 1477"
    underline-thickness="20"
    underline-position="-225"
    unicode-range="U+0020-2265"
  />
<missing-glyph horiz-adv-x="819" 
 />
    <glyph glyph-name=".notdef" horiz-adv-x="819" 
 />
    <glyph glyph-name=".null" horiz-adv-x="0" 
 />
    <glyph glyph-name="nonmarkingreturn" horiz-adv-x="682" 
 />
    <glyph glyph-name="space" unicode=" " horiz-adv-x="532" 
 />
    <glyph glyph-name="exclam" unicode="!" horiz-adv-x="552" 
d="M233 285q-27 0 -40 10.5t-17 40.5l-74 487q-12 74 -31.5 152.5t-19.5 105.5q0 86 78 86h295q78 0 78 -86q0 -27 -19.5 -105.5t-31.5 -152.5l-74 -487q-4 -30 -17.5 -40.5t-40.5 -10.5h-86zM276 -10q-43 0 -73.5 31.5t-30.5 74.5t31 75t73 32q43 0 74 -32t31 -75
t-31 -74.5t-74 -31.5z" />
    <glyph glyph-name="quotedbl" unicode="&#x22;" horiz-adv-x="464" 
d="M66 1020q42 26 55 78q-29 3 -49.5 26.5t-20.5 53.5q0 34 24 58t58 24q32 0 56 -24t24 -58q0 -63 -45.5 -106.5t-101.5 -51.5zM266 1020q39 24 56 78q-29 3 -49.5 26.5t-20.5 53.5q0 34 24 58t56 24q34 0 58 -24t24 -58q0 -63 -45.5 -106.5t-102.5 -51.5z" />
    <glyph glyph-name="numbersign" unicode="#" horiz-adv-x="1269" 
d="M371 0q-78 0 -78 86q0 27 20.5 86t20.5 90v21h-21q-31 0 -90 -20.5t-86 -20.5q-86 0 -86 77v132q0 77 86 77q27 0 86 -20.5t90 -20.5h21v193h-21q-31 0 -90 -20.5t-86 -20.5q-86 0 -86 78v131q0 78 86 78q27 0 86 -20.5t90 -20.5h21v20q0 31 -20.5 90t-20.5 86
q0 86 78 86h131q78 0 78 -86q0 -27 -20.5 -86t-20.5 -90v-20h192v20q0 31 -20.5 90t-20.5 86q0 86 78 86h131q78 0 78 -86q0 -27 -20.5 -86t-20.5 -90v-20h20q31 0 90.5 20.5t86.5 20.5q86 0 86 -78v-131q0 -78 -86 -78q-27 0 -86.5 20.5t-90.5 20.5h-20v-193h20
q31 0 90.5 20.5t86.5 20.5q86 0 86 -77v-132q0 -77 -86 -77q-27 0 -86.5 20.5t-90.5 20.5h-20v-21q0 -31 20.5 -90t20.5 -86q0 -86 -78 -86h-131q-78 0 -78 86q0 27 20.5 86t20.5 90v21h-192v-21q0 -31 20.5 -90t20.5 -86q0 -86 -78 -86h-131zM539 487h192v193h-192v-193z
" />
    <glyph glyph-name="dollar" unicode="$" horiz-adv-x="1011" 
d="M440 -252q-78 0 -78 86q0 27 19 81.5t22 78.5q-158 11 -247.5 62t-89.5 134q0 69 56.5 109.5t131.5 40.5q74 0 127 -37t53 -104q0 -27 -19.5 -58t-19.5 -47q0 -37 23.5 -55.5t58.5 -18.5q105 0 105 103q0 53 -30 110t-77.5 109.5t-105.5 106.5t-115.5 108.5t-105 107
t-77.5 110t-30 110.5q0 122 99.5 196.5t260.5 92.5q-3 24 -21 75.5t-18 77.5q0 86 78 86h131q78 0 78 -86q0 -26 -18 -77.5t-21 -75.5q149 -14 232.5 -65t83.5 -132q0 -69 -57 -109.5t-132 -40.5q-74 0 -127 37.5t-53 104.5q0 27 19.5 58t19.5 46q0 37 -23.5 55.5
t-58.5 18.5q-104 0 -104 -103q0 -53 30 -110t77.5 -109.5t105 -106.5l115 -108t105 -106.5t77.5 -110t30 -110.5q0 -120 -94 -192.5t-248 -92.5q3 -26 22 -81.5t19 -82.5q0 -86 -78 -86h-131z" />
    <glyph glyph-name="percent" unicode="%" horiz-adv-x="1169" 
d="M297 727q-102 0 -174 58.5t-72 166.5t72.5 167t173.5 59t173.5 -59t72.5 -167t-72 -166.5t-174 -58.5zM362 0q-40 0 -40 37q0 19 14 59l379 1045q12 37 53 37h43q41 0 41 -37q0 -20 -14 -60l-379 -1044q-12 -37 -53 -37h-44zM297 743q78 0 78 209t-78 209t-78 -209
t78 -209zM872 -10q-101 0 -173 58.5t-72 166.5t72 166.5t173 58.5q102 0 174 -58.5t72 -166.5t-72 -166.5t-174 -58.5zM872 6q78 0 78 209t-78 209q-77 0 -77 -209t77 -209z" />
    <glyph glyph-name="quotesingle" unicode="'" horiz-adv-x="262" 
d="M66 1020q37 23 55 78q-30 3 -50 26.5t-20 53.5q0 34 23 58t57 24t57 -24t23 -58q0 -63 -44.5 -106.5t-100.5 -51.5z" />
    <glyph glyph-name="parenleft" unicode="(" horiz-adv-x="655" 
d="M549 -57q-93 0 -183.5 47.5t-160.5 127.5t-113 195t-43 242t43 242t113 195t160.5 127.5t183.5 47.5q14 0 14 -6q0 -8 -18 -26q-81 -81 -135 -234.5t-54 -345.5t54 -345.5t135 -234.5q32 -32 4 -32z" />
    <glyph glyph-name="parenright" unicode=")" horiz-adv-x="655" 
d="M104 -57q-14 0 -14 6q0 7 19 26q81 81 134.5 234.5t53.5 345.5t-53.5 345.5t-134.5 234.5q-29 31 -5 32q93 0 183.5 -47.5t160.5 -127.5t113 -195t43 -242t-43 -242t-113 -195t-160.5 -127.5t-183.5 -47.5z" />
    <glyph glyph-name="asterisk" unicode="*" horiz-adv-x="409" 
d="M129 965q-12 0 -35 20q-18 18 -18 33q0 11 15.5 20t48.5 23.5t57 30.5q-2 2 -2 6v2q-27 6 -72 6h-14.5h-13.5h-11.5t-10 0.5t-8 1t-7 2t-5 4t-3.5 5.5t-1 7q0 14 8 33q11 33 27 33q10 0 25 -13t39.5 -36t48.5 -39q0 4 6 4q-6 32 -23.5 74.5t-17.5 54.5q0 23 43 23
q45 0 45 -23q0 -10 -18.5 -53t-24.5 -76q6 0 6 -4q24 16 48.5 39t39.5 36t25 13q15 0 26 -33q8 -19 8 -33q0 -13 -9.5 -16.5t-31.5 -3.5q-72 0 -104 -6v-2q0 -4 -2 -6q24 -16 57 -30.5t48.5 -23.5t15.5 -20q0 -14 -19 -33q-23 -20 -34 -20q-12 0 -20.5 15.5t-22 48.5
t-29.5 58h-4h-4q-16 -25 -29.5 -58t-22 -48.5t-20.5 -15.5z" />
    <glyph glyph-name="plus" unicode="+" horiz-adv-x="804" 
d="M356 227q-22 0 -36.5 15t-14.5 37v241h-203q-22 0 -36.5 14.5t-14.5 36.5t14.5 37t36.5 15h203v241q0 22 14.5 36.5t36.5 14.5h101q22 0 37.5 -14.5t15.5 -36.5v-241h190q22 0 38 -15t16 -37t-15 -36.5t-37 -14.5h-192v-241q0 -22 -14.5 -37t-36.5 -15h-103z" />
    <glyph glyph-name="comma" unicode="," horiz-adv-x="262" 
d="M66 -88q37 23 55 78q-30 3 -50 26.5t-20 53.5q0 34 23 58t57 24t57 -24t23 -58q0 -63 -44.5 -106.5t-100.5 -51.5z" />
    <glyph glyph-name="hyphen" unicode="-" horiz-adv-x="671" 
d="M102 354q-22 0 -36.5 15t-14.5 37v79q0 22 15 38t36 16h465q22 0 38 -15t16 -37v-79q0 -22 -15 -38t-37 -16h-467z" />
    <glyph glyph-name="period" unicode="." horiz-adv-x="286" 
d="M143 -10q-38 0 -65 27t-27 65t27 65t65 27t65.5 -27t27.5 -65t-27.5 -65t-65.5 -27z" />
    <glyph glyph-name="slash" unicode="/" horiz-adv-x="677" 
d="M100 -10q-19 0 -28.5 14t-3.5 33l424 1218q8 19 26 19h74q19 0 29 -14t4 -33l-424 -1219q-7 -18 -27 -18h-74z" />
    <glyph glyph-name="zero" unicode="0" horiz-adv-x="1220" 
d="M610 -10q-269 0 -414 153t-145 441t145 441t414 153t414 -153t145 -441t-145 -441t-414 -153zM610 31q50 0 87.5 42.5t59.5 119.5t33 174.5t11 216.5q0 153 -24 279t-68 200t-99 74q-83 0 -136.5 -159.5t-53.5 -393.5q0 -119 10.5 -216.5t32.5 -174.5t59.5 -119.5
t87.5 -42.5z" />
    <glyph glyph-name="one" unicode="1" horiz-adv-x="552" 
d="M129 0q-78 0 -78 86q0 27 20.5 86t20.5 90v576q0 45 -20.5 98.5t-20.5 81.5q0 72 101 100l145 39q34 10 70 10q94 0 94 -102v-803q0 -31 20.5 -90t20.5 -86q0 -86 -78 -86h-295z" />
    <glyph glyph-name="two" unicode="2" horiz-adv-x="1026" 
d="M162 0q-52 0 -81.5 26t-29.5 64q0 53 30.5 114t79.5 120t108 122t118.5 128t108.5 128.5t79.5 133t30.5 133.5q0 87 -40 127.5t-93 40.5q-32 0 -53 -13t-21 -34q0 -15 19.5 -43.5t19.5 -57.5q0 -67 -54.5 -104t-129.5 -37t-129.5 37t-54.5 104q0 60 61.5 104t156 64.5
t206.5 20.5q92 0 175.5 -15.5t153 -46t111 -82.5t41.5 -119q0 -60 -30.5 -129t-79.5 -133.5t-108 -130t-118.5 -127t-108.5 -115.5t-79.5 -103.5t-30.5 -84.5q0 -22 14.5 -36.5t40.5 -14.5h27q44 0 79 18.5t55.5 46.5t42 60t40 60t49.5 46.5t70 18.5q68 0 102.5 -51
t34.5 -131q0 -60 -39.5 -84.5t-136.5 -24.5h-637z" />
    <glyph glyph-name="three" unicode="3" horiz-adv-x="1015" 
d="M449 -10q-177 0 -287.5 50t-110.5 138q0 67 55 104t130 37t129.5 -37t54.5 -104q0 -29 -19.5 -57t-19.5 -43q0 -22 18.5 -34.5t49.5 -12.5q62 0 104.5 55t42.5 164q0 112 -65 229t-148 164q71 47 117.5 141t46.5 185q0 168 -98 168q-31 0 -49.5 -12.5t-18.5 -34.5
q0 -15 19.5 -43.5t19.5 -57.5q0 -67 -54.5 -104t-129.5 -37t-130 37t-55 104q0 88 110.5 138.5t287.5 50.5q94 0 177 -16.5t148 -48t103 -83.5t38 -117q0 -45 -23 -90.5t-60 -81.5t-65.5 -58.5t-55.5 -39.5q28 -12 54 -26.5t65 -44.5t66.5 -63.5t48 -84.5t20.5 -107
q0 -153 -140 -240t-376 -87z" />
    <glyph glyph-name="four" unicode="4" horiz-adv-x="1175" 
d="M752 0q-78 0 -78 86q0 24 20.5 84.5t20.5 97.5h-555q-48 0 -78.5 24.5t-30.5 65.5q0 56 55 117q45 51 123.5 129t122 124t79.5 105t36 109q0 38 -19.5 84t-19.5 70q0 30 22 50.5t68 20.5h221q27 0 41.5 -0.5t40.5 -6.5t39.5 -17t25 -34t11.5 -56q0 -64 -26.5 -131
t-75.5 -133.5t-96 -120.5t-111.5 -123.5t-98.5 -112.5q-36 -45 -36 -76q0 -47 75 -47h187v58q0 45 -20.5 98.5t-20.5 81.5q0 72 100 100l146 39q34 10 69 10q94 0 94 -102v-332q0 -31 20.5 -90t20.5 -86q0 -86 -77 -86h-295z" />
    <glyph glyph-name="five" unicode="5" horiz-adv-x="1032" 
d="M449 -10q-177 0 -287.5 50t-110.5 138q0 67 55 104t130 37t129.5 -37t54.5 -104q0 -29 -19.5 -57t-19.5 -43q0 -22 18.5 -34.5t49.5 -12.5q70 0 116.5 74t46.5 178q0 61 -17.5 119.5t-60 115.5t-105 100t-160 69t-218.5 26v346q0 49 28.5 78.5t84.5 29.5h477
q79 0 150.5 5.5t87.5 5.5q71 0 71 -66v-90q0 -74 -56 -119t-144 -45q-122 0 -324 25.5t-287 25.5q-47 0 -47 -75v-80q179 -1 315 -13.5t247 -40.5t181.5 -73t108 -111t37.5 -154q0 -74 -36.5 -141t-103 -118.5t-168.5 -82t-224 -30.5z" />
    <glyph glyph-name="six" unicode="6" horiz-adv-x="1140" 
d="M557 -10q-126 0 -225.5 48.5t-159.5 130.5t-90.5 182t-30.5 212q0 95 18.5 181.5t61.5 166.5t107.5 138.5t163 93.5t221.5 35q178 0 288.5 -50.5t110.5 -138.5q0 -67 -54.5 -104t-129.5 -37t-130 37t-55 104q0 29 19.5 57.5t19.5 43.5q0 22 -18 34.5t-49 12.5
q-187 0 -203 -557q36 114 122 187t212 73q155 0 244.5 -107t89.5 -258q0 -70 -20.5 -138.5t-64 -131t-105 -110.5t-150.5 -76.5t-193 -28.5zM559 31q49 0 87 57t56.5 143.5t18.5 182.5q0 107 -34 171t-101 64q-27 0 -55.5 -15t-60.5 -61t-50 -118q2 -183 38 -303.5
t101 -120.5z" />
    <glyph glyph-name="seven" unicode="7" horiz-adv-x="985" 
d="M276 0q-77 0 -77 86q0 92 43.5 191t104 176.5t147 160t147.5 130t133 100t78 57.5q-50 -1 -153 -26.5t-225.5 -50.5t-221.5 -25q-88 0 -144.5 44t-56.5 118v151q0 66 72 66q16 0 87 -5.5t150 -5.5h410q40 0 63 -2.5t43.5 -13t30 -26t17 -48t9 -72t1.5 -104.5
q-41 -41 -72 -73t-81 -96.5t-82.5 -123.5t-57.5 -138.5t-25 -156.5q0 -80 16.5 -145t16.5 -82q0 -86 -78 -86h-295z" />
    <glyph glyph-name="eight" unicode="8" horiz-adv-x="1101" 
d="M549 -10q-138 0 -248.5 42t-180 132t-69.5 215q0 117 82.5 208.5t253.5 127.5q-123 36 -184.5 88.5t-61.5 136.5q0 93 112 165.5t298 72.5q187 0 298.5 -72t111.5 -164q0 -84 -62.5 -138.5t-183.5 -88.5q172 -38 254 -128t82 -206q0 -125 -69.5 -215.5t-181.5 -133
t-251 -42.5zM551 737q42 0 62 58t20 143t-19.5 142t-62.5 57q-42 0 -62 -58.5t-20 -142.5q0 -83 20 -141t62 -58zM551 31q61 0 96 85.5t35 243.5t-35 245t-96 87t-96 -87t-35 -245t35 -243.5t96 -85.5z" />
    <glyph glyph-name="nine" unicode="9" horiz-adv-x="1124" 
d="M502 -10q-178 0 -289 50t-111 138q0 67 55 104t130 37t129.5 -37t54.5 -104q0 -29 -19.5 -57t-19.5 -43q0 -22 18.5 -34.5t49.5 -12.5q177 0 200 499q-39 -88 -107.5 -145t-170.5 -57q-89 0 -160.5 31.5t-117 85.5t-69.5 122t-24 144q0 87 32 168.5t92.5 149t159.5 108.5
t222 41q136 0 237 -42.5t161 -120.5t89 -180.5t29 -230.5q0 -95 -18.5 -181.5t-61.5 -166.5t-107.5 -138t-162.5 -93t-221 -35zM561 518q44 0 83.5 30.5t60.5 88.5v59q0 94 -7.5 171t-24.5 139t-46.5 96.5t-69.5 34.5q-74 0 -116 -94t-42 -230q0 -125 43 -210t119 -85z" />
    <glyph glyph-name="colon" unicode=":" horiz-adv-x="311" 
d="M156 492q-43 0 -74 31.5t-31 74.5t31 75t74 32q42 0 73 -32t31 -75t-30.5 -74.5t-73.5 -31.5zM156 113q-43 0 -74 31.5t-31 74.5t31 75t74 32q42 0 73 -32t31 -75t-30.5 -74.5t-73.5 -31.5z" />
    <glyph glyph-name="semicolon" unicode=";" horiz-adv-x="311" 
d="M156 492q-43 0 -74 31.5t-31 74.5t31 75t74 32q42 0 73 -32t31 -75t-30.5 -74.5t-73.5 -31.5zM70 12q51 34 71 103q-38 4 -64 34.5t-26 69.5q0 43 31 75t74 32q42 0 73 -32t31 -75q0 -83 -58 -139t-132 -68z" />
    <glyph glyph-name="less" unicode="&#x3c;" horiz-adv-x="722" 
d="M631 66q-17 0 -27 10l-553 446l553 447q10 10 27 10q18 0 29.5 -11.5t11.5 -31.5v-150q0 -10 -10 -20l-304 -244l304 -243q10 -10 10 -21v-149q0 -20 -11.5 -31.5t-29.5 -11.5z" />
    <glyph glyph-name="equal" unicode="=" horiz-adv-x="919" 
d="M82 643q-12 0 -21.5 9.5t-9.5 21.5v41q0 12 9.5 21t21.5 9h756q12 0 21 -9t9 -21v-41q0 -12 -9 -21.5t-21 -9.5h-756zM82 422q-12 0 -21.5 9.5t-9.5 21.5v41q0 12 9.5 21t21.5 9h756q12 0 21 -9t9 -21v-41q0 -12 -9 -21.5t-21 -9.5h-756z" />
    <glyph glyph-name="greater" unicode="&#x3e;" horiz-adv-x="722" 
d="M92 66q-18 0 -29.5 11.5t-11.5 31.5v149q0 11 10 21l304 243l-304 244q-10 10 -10 20v150q0 20 11.5 31.5t29.5 11.5q17 0 27 -10l553 -447l-553 -446q-10 -10 -27 -10z" />
    <glyph glyph-name="question" unicode="?" horiz-adv-x="1007" 
d="M369 262q-52 0 -52 51q0 72 28 137t67.5 118t79.5 108t68 130.5t28 162.5t-40 127.5t-93 40.5q-32 0 -53 -13t-21 -34q0 -15 19.5 -43.5t19.5 -57.5q0 -67 -54.5 -104t-129.5 -37t-130 37t-55 104q0 60 61.5 104t156 64.5t206.5 20.5q93 0 175.5 -15.5t152.5 -47
t111.5 -87t41.5 -127.5q0 -58 -32 -113.5t-79.5 -97.5t-103.5 -88.5t-103.5 -87t-79.5 -93t-32 -106.5q0 -26 -10 -39.5t-39 -13.5h-108zM422 -10q-43 0 -74 31.5t-31 74.5t31 75t74 32q42 0 73 -32t31 -75t-30.5 -74.5t-73.5 -31.5z" />
    <glyph glyph-name="A" unicode="A" horiz-adv-x="1357" 
d="M164 0q-123 0 -123 74q0 23 18 56.5t47 74.5t80.5 132t102.5 202l243 530q30 64 51.5 81t59.5 17q39 0 61 -17.5t56 -80.5l364 -686q51 -94 102 -161.5t71 -95t20 -58.5q0 -30 -21 -49t-57 -19h-352q-45 0 -69.5 13.5t-24.5 54.5q0 131 -66 262l-86 170h-301
q-47 -180 -47 -391q0 -61 -28.5 -85t-100.5 -24zM350 541h271l-150 293q-76 -145 -121 -293z" />
    <glyph glyph-name="B" unicode="B" 
d="M231 -10q-89 0 -139.5 35t-50.5 90q0 28 6.5 52t14 41.5t14 59t6.5 99.5v473q0 72 -20.5 147t-20.5 94q0 86 104 86h412q225 0 349 -72t124 -190q0 -82 -58 -149t-175 -105q126 -30 203 -109.5t77 -213.5q0 -46 -13 -93.5t-40 -91.5t-65 -78t-93 -54.5t-118 -20.5
q-46 0 -84 15t-58 33t-45 33t-49 15q-26 0 -52.5 -15t-49 -33t-70 -33t-109.5 -15zM451 653q98 25 154.5 117.5t56.5 190.5q0 176 -105 176q-32 0 -53.5 -17.5t-32.5 -51t-15.5 -72t-4.5 -91.5v-252zM547 117q72 0 117 71.5t45 176.5q0 109 -67 177.5t-191 69.5v-350
q0 -81 25.5 -113t70.5 -32z" />
    <glyph glyph-name="C" unicode="C" horiz-adv-x="1089" 
d="M664 -10q-94 0 -181 19.5t-168.5 64.5t-141.5 112.5t-96 170t-36 229.5q0 288 146 434.5t450 146.5q208 0 310 -47t102 -145q0 -77 -58 -118.5t-137 -41.5q-72 0 -124 34.5t-52 94.5q0 42 24.5 79t24.5 60t-19.5 38.5t-52.5 15.5q-61 0 -109.5 -51t-75 -129t-40.5 -159
t-14 -153q0 -233 89 -370.5t259 -137.5q52 0 96.5 14t69 31t50 31t42.5 14q27 0 27 -30q0 -49 -52 -96.5t-142.5 -79t-190.5 -31.5z" />
    <glyph glyph-name="D" unicode="D" horiz-adv-x="1144" 
d="M231 -10q-89 0 -139.5 35t-50.5 90q0 28 6.5 52t14 41.5t14 59t6.5 99.5v473q0 72 -20.5 147t-20.5 94q0 86 104 86h412q100 0 175 -10.5t148.5 -43.5t120 -89t75 -151t28.5 -226q0 -133 -20 -250t-59 -208.5t-101.5 -145t-141.5 -53.5q-58 0 -104 15t-68.5 33t-48 33
t-49.5 15q-26 0 -52.5 -15t-49 -33t-70 -33t-109.5 -15zM547 117q58 0 102 80t65 200t21 256q0 127 -19 233.5t-60.5 176.5t-98.5 70q-32 0 -53.5 -17t-32.5 -49.5t-15.5 -70.5t-4.5 -91v-643q0 -81 25.5 -113t70.5 -32z" />
    <glyph glyph-name="E" unicode="E" horiz-adv-x="983" 
d="M119 0q-78 0 -78 86q0 27 20.5 86t20.5 90v643q0 31 -20.5 90t-20.5 86q0 86 78 86h647q97 0 136.5 -24t39.5 -84q0 -80 -34.5 -131t-102.5 -51q-49 0 -86 27t-59.5 65t-42.5 76t-47 65t-62 27q-57 0 -57 -99v-430q39 3 79.5 24t70.5 43.5t73 41t86 18.5q61 0 93 -42.5
t32 -102.5q0 -65 -33.5 -112.5t-91.5 -47.5q-43 0 -86 18.5t-73 41t-70.5 43.5t-79.5 24v-428q0 -98 57 -98q35 0 62 27t47 65t42.5 76t59.5 65t86 27q68 0 102.5 -51t34.5 -131q0 -60 -39.5 -84.5t-136.5 -24.5h-647z" />
    <glyph glyph-name="F" unicode="F" horiz-adv-x="983" 
d="M119 0q-78 0 -78 86q0 27 20.5 86t20.5 90v643q0 31 -20.5 90t-20.5 86q0 86 78 86h647q97 0 136.5 -24t39.5 -84q0 -80 -34.5 -131t-102.5 -51q-49 0 -86 27t-59.5 65t-42.5 76t-47 65t-62 27q-57 0 -57 -99v-430q39 3 79.5 24t70.5 43.5t73 41t86 18.5q61 0 93 -42.5
t32 -102.5q0 -65 -33.5 -112.5t-91.5 -47.5q-43 0 -86 18.5t-73 41t-70.5 43.5t-79.5 24v-295q0 -31 20.5 -90t20.5 -86q0 -86 -78 -86h-295z" />
    <glyph glyph-name="G" unicode="G" horiz-adv-x="1128" 
d="M625 -10q-97 0 -181.5 19.5t-159.5 64.5t-128 112.5t-84 169.5t-31 230q0 288 145.5 434.5t448.5 146.5q208 0 310 -47t102 -145q0 -77 -58 -118.5t-137 -41.5q-72 0 -124 34.5t-52 94.5q0 42 24.5 79t24.5 60q0 22 -19.5 36t-52.5 14q-64 0 -112.5 -51.5t-76 -138.5
t-41 -189t-13.5 -217q0 -103 11.5 -192t35 -162.5t64.5 -115.5t95 -42q49 0 76 48t27 115q0 41 -13 77t-29 57t-29 50.5t-13 59.5q0 72 100 100l189 52q45 10 69 10q94 0 94 -102v-234q0 -78 -64.5 -140t-170 -95t-227.5 -33z" />
    <glyph glyph-name="H" unicode="H" horiz-adv-x="1181" 
d="M119 0q-78 0 -78 86q0 27 20.5 86t20.5 90v643q0 31 -20.5 90t-20.5 86q0 86 78 86h295q78 0 78 -86q0 -27 -20.5 -86t-20.5 -90v-305h280v305q0 31 -20.5 90t-20.5 86q0 86 78 86h295q78 0 78 -86q0 -27 -20.5 -86t-20.5 -90v-643q0 -31 20.5 -90t20.5 -86
q0 -86 -78 -86h-295q-78 0 -78 86q0 27 20.5 86t20.5 90v297h-280v-297q0 -31 20.5 -90t20.5 -86q0 -86 -78 -86h-295z" />
    <glyph glyph-name="I" unicode="I" horiz-adv-x="532" 
d="M119 0q-78 0 -78 86q0 27 20.5 86t20.5 90v643q0 31 -20.5 90t-20.5 86q0 86 78 86h295q78 0 78 -86q0 -27 -20.5 -86t-20.5 -90v-643q0 -31 20.5 -90t20.5 -86q0 -86 -78 -86h-295z" />
    <glyph glyph-name="J" unicode="J" horiz-adv-x="940" 
d="M395 -10q-74 0 -135.5 10t-111.5 30.5t-78.5 57t-28.5 86.5q0 71 57.5 111.5t134.5 40.5q72 0 124.5 -35t52.5 -96q0 -37 -19.5 -68.5t-19.5 -48.5q0 -28 18.5 -41.5t48.5 -13.5q50 0 87.5 38.5t37.5 124.5q0 63 -18.5 110t-37 96.5t-18.5 119.5v393q0 31 -20 90t-20 86
q0 86 77 86h295q78 0 78 -86q0 -27 -20.5 -86t-20.5 -90v-393q0 -270 -121.5 -396t-341.5 -126z" />
    <glyph glyph-name="K" unicode="K" horiz-adv-x="1114" 
d="M119 0q-78 0 -78 86q0 27 20.5 86t20.5 90v643q0 31 -20.5 90t-20.5 86q0 86 78 86h295q78 0 78 -86q0 -27 -20.5 -86t-20.5 -90v-217q89 43 154 93.5t100 99.5t51 92.5t16 85.5q0 49 30.5 78.5t98.5 29.5q58 0 90.5 -24.5t32.5 -61.5q0 -98 -134 -205.5t-380 -209.5
q132 -47 261.5 -142.5t215.5 -215.5t86 -222q0 -86 -78 -86h-266q-106 0 -106 86q0 40 18 99t18 108q0 106 -65.5 212t-142.5 140v-383q0 -31 20.5 -90t20.5 -86q0 -86 -78 -86h-295z" />
    <glyph glyph-name="L" unicode="L" horiz-adv-x="983" 
d="M119 0q-78 0 -78 86q0 27 20.5 86t20.5 90v643q0 31 -20.5 90t-20.5 86q0 86 78 86h295q78 0 78 -86q0 -27 -20.5 -86t-20.5 -90v-776q0 -98 57 -98q35 0 62 27t47 65t42.5 76t59.5 65t86 27q68 0 102.5 -51t34.5 -131q0 -60 -39.5 -84.5t-136.5 -24.5h-647z" />
    <glyph glyph-name="M" unicode="M" horiz-adv-x="1556" 
d="M162 -10q-72 0 -96.5 18t-24.5 55q0 32 16.5 72t35.5 76.5t35.5 101t16.5 140.5v252q0 108 -41 217q-16 22 -38 50t-30.5 40t-19 29t-13.5 30t-3 29q0 30 21 48.5t57 18.5h352q29 0 47 -3.5t32.5 -19t14.5 -44.5q0 -41 2 -69.5t18 -84.5t46 -108l297 -502
q58 129 97 253.5t55 220t21 150.5t5 99v14v8q0 86 78 86h295q78 0 78 -86q0 -27 -20.5 -86t-20.5 -90v-643q0 -31 20.5 -90t20.5 -86q0 -86 -78 -86h-295q-78 0 -78 86q0 27 20.5 86t20.5 90v445l-37 -78l-244 -531q-30 -65 -51.5 -81.5t-58.5 -16.5t-58 17t-59 81l-405 686
q-1 2 -3 2q-4 -50 -4 -81v-252q0 -76 16.5 -140.5t36 -101t36 -76.5t16.5 -72q0 -36 -28 -54.5t-101 -18.5z" />
    <glyph glyph-name="N" unicode="N" horiz-adv-x="1089" 
d="M121 -10q-72 0 -96.5 18t-24.5 55q0 32 16 72t36 76.5t36 101t16 140.5v252q0 84 -16 150.5t-36 100t-36 70.5t-16 68q0 29 20.5 51t57.5 22h352q29 0 47 -3.5t32.5 -19t14.5 -44.5q0 -41 2 -69.5t18 -84.5t46 -108l268 -455q17 -31 31 -53q14 65 14 133v252
q0 76 -16.5 140.5t-35.5 100.5t-35.5 76t-16.5 72q0 36 28 55t101 19q71 0 96 -18t25 -56q0 -32 -16.5 -72t-36 -76t-36 -100.5t-16.5 -140.5v-252q0 -84 16.5 -150.5t36 -100t36 -70.5t16.5 -68q0 -29 -20.5 -51.5t-57.5 -22.5h-353q-45 0 -69.5 13.5t-24.5 54.5
q0 42 -2 69.5t-17.5 84t-45.5 108.5l-266 454q-7 10 -18.5 29.5t-14.5 24.5q-15 -69 -15 -133v-252q0 -76 16.5 -140.5t36 -101t36 -76.5t16.5 -72q0 -36 -28 -54.5t-101 -18.5z" />
    <glyph glyph-name="O" unicode="O" horiz-adv-x="1282" 
d="M641 -10q-274 0 -437 155.5t-163 438.5t163 438.5t437 155.5t437 -155.5t163 -438.5t-163 -438.5t-437 -155.5zM641 25q231 0 231 559q0 248 -60 403.5t-171 155.5t-171 -155.5t-60 -403.5q0 -559 231 -559z" />
    <glyph glyph-name="P" unicode="P" 
d="M119 0q-78 0 -78 86q0 27 20.5 86t20.5 90v578q0 72 -20.5 147t-20.5 94q0 86 104 86h412q242 0 381 -89.5t139 -276.5q0 -67 -24.5 -134t-69 -122.5t-116.5 -90t-158 -34.5q-173 0 -258 110v-268q0 -31 20.5 -90t20.5 -86q0 -86 -78 -86h-295zM512 563q64 0 111 47
t68.5 116t21.5 148q0 108 -41.5 185.5t-114.5 77.5q-32 0 -53.5 -17.5t-32.5 -51t-15.5 -72t-4.5 -91.5v-334q31 -8 61 -8z" />
    <glyph glyph-name="Q" unicode="Q" horiz-adv-x="1282" 
d="M911 -344q-125 0 -200.5 92t-102.5 242q-261 11 -414 165.5t-153 428.5q0 283 163 438.5t437 155.5t437 -155.5t163 -438.5q0 -282 -160.5 -436.5t-431.5 -157.5q17 -37 37 -52.5t49 -15.5q27 0 84 25.5t109 25.5q79 0 123.5 -46t44.5 -109q0 -66 -48.5 -114t-136.5 -48z
M641 25q231 0 231 559q0 248 -60 403.5t-171 155.5t-171 -155.5t-60 -403.5q0 -559 231 -559z" />
    <glyph glyph-name="R" unicode="R" 
d="M119 0q-78 0 -78 86q0 27 20.5 86t20.5 90v578q0 72 -20.5 147t-20.5 94q0 86 104 86h412q158 0 272 -35.5t181 -114t67 -196.5q0 -129 -85.5 -222t-237.5 -120q132 -69 225.5 -181.5t93.5 -211.5q0 -86 -78 -86h-266q-106 0 -106 86q0 40 18 99t18 108q0 39 -17 72
t-41 53.5t-55 36t-53.5 22.5t-41.5 10v-225q0 -31 20.5 -90t20.5 -86q0 -86 -78 -86h-295zM451 528q65 0 116.5 31t81.5 81.5t45 109t15 120.5q0 110 -43.5 188.5t-108.5 78.5q-32 0 -53.5 -17.5t-32.5 -51t-15.5 -72t-4.5 -91.5v-377z" />
    <glyph glyph-name="S" unicode="S" horiz-adv-x="991" 
d="M494 -10q-198 0 -313 53t-115 147q0 69 56.5 109.5t131.5 40.5q74 0 127 -37t53 -104q0 -27 -19.5 -58t-19.5 -47q0 -37 23.5 -55.5t58.5 -18.5q105 0 105 103q0 53 -30 110t-77.5 109.5t-105.5 106.5t-115.5 108.5t-105 107t-77.5 110t-30 110.5q0 95 63.5 162.5t165 99
t228.5 31.5q198 0 313 -53t115 -148q0 -69 -57 -109.5t-132 -40.5q-74 0 -127 37.5t-53 104.5q0 27 19.5 58t19.5 46q0 37 -23.5 55.5t-58.5 18.5q-104 0 -104 -103q0 -53 30 -110t77.5 -109.5t105 -106.5l115 -108t105 -106.5t77.5 -110t30 -110.5q0 -95 -63 -162.5
t-164.5 -99t-228.5 -31.5z" />
    <glyph glyph-name="T" unicode="T" horiz-adv-x="1433" 
d="M569 0q-77 0 -77 86q0 27 20 86t20 90v776q0 99 -57 99q-35 0 -62 -27t-47 -65t-42.5 -76t-59.5 -65t-86 -27q-68 0 -102.5 51t-34.5 131q0 60 39.5 84t136.5 24h1000q97 0 136.5 -24t39.5 -84q0 -80 -34.5 -131t-103.5 -51q-49 0 -86 27t-59.5 65t-42.5 76t-47 65
t-62 27q-57 0 -57 -99v-776q0 -31 20.5 -90t20.5 -86q0 -86 -78 -86h-295z" />
    <glyph glyph-name="U" unicode="U" horiz-adv-x="1282" 
d="M641 -10q-51 0 -92 2t-89.5 8.5t-86.5 17.5t-78.5 30t-70.5 44.5t-58 63t-45.5 83.5t-28 107.5t-10.5 134.5v424q0 31 -20.5 90t-20.5 86q0 86 78 86h295q78 0 78 -86q0 -27 -20.5 -86t-20.5 -90v-604q0 -145 54 -207.5t136 -62.5t136 62.5t54 207.5v604q0 31 -20 90
t-20 86q0 86 77 86h295q78 0 78 -86q0 -27 -20.5 -86t-20.5 -90v-424q0 -73 -10.5 -134.5t-28 -107.5t-45.5 -83.5t-58 -63t-70.5 -44.5t-78.5 -30t-86.5 -17.5t-89.5 -8.5t-92 -2z" />
    <glyph glyph-name="V" unicode="V" horiz-adv-x="1398" 
d="M715 0q-39 0 -61 17.5t-56 80.5l-365 686q-40 75 -80.5 134t-62.5 83.5t-35.5 49t-13.5 49.5q0 30 21 48.5t57 18.5h352q29 0 47 -3.5t32.5 -19t14.5 -44.5q0 -131 66 -262l264 -516q66 124 111.5 250.5t65 225t27 159.5t7.5 102q0 61 28.5 84.5t100.5 23.5
q123 0 123 -73q0 -30 -21 -70t-90 -154.5t-137 -240.5l-285 -531q-34 -64 -54.5 -81t-55.5 -17z" />
    <glyph glyph-name="W" unicode="W" horiz-adv-x="2191" 
d="M715 0q-39 0 -61 17.5t-56 80.5l-365 686q-40 75 -80.5 134t-62.5 83.5t-35.5 49t-13.5 49.5q0 30 21 48.5t57 18.5h352q29 0 47 -3.5t32.5 -19t14.5 -44.5q0 -131 66 -262l264 -516q104 194 160 407l-29 55q-40 75 -80.5 134t-62.5 83.5t-35.5 49t-13.5 49.5
q0 30 20.5 48.5t56.5 18.5h353q29 0 47 -3.5t32.5 -19t14.5 -44.5q0 -133 65 -262l265 -516q66 124 111.5 250.5t65 225t26.5 159.5t7 102q0 61 28.5 84.5t101.5 23.5q122 0 122 -73q0 -24 -16 -58.5t-41 -75t-80 -134.5t-110 -197l-285 -531q-34 -63 -55 -80.5t-56 -17.5
q-39 0 -60.5 17.5t-55.5 80.5l-281 529l-285 -529q-34 -64 -54.5 -81t-55.5 -17z" />
    <glyph glyph-name="X" unicode="X" horiz-adv-x="1189" 
d="M166 0q-56 0 -87.5 20t-31.5 58q0 35 35.5 81t84.5 91.5t119 125.5t122 165l-148 243q-47 78 -94 138t-71 84t-39 49t-15 53q0 27 19.5 43t52.5 16h352q29 0 47 -3.5t34 -19t19 -44.5q10 -131 88 -262l101 -166q61 105 99 215t38 172q0 60 30.5 84t102.5 24
q56 0 87.5 -19.5t31.5 -57.5q0 -35 -35.5 -81t-84.5 -91.5t-119 -125.5t-122 -165l148 -244q47 -78 93.5 -138t71 -84t39.5 -49t15 -53q0 -27 -19.5 -43t-52.5 -16h-352q-45 0 -70.5 13.5t-29.5 54.5q-10 131 -88 262l-101 166q-61 -105 -99 -215t-38 -172q0 -61 -30.5 -85
t-102.5 -24z" />
    <glyph glyph-name="Y" unicode="Y" horiz-adv-x="1110" 
d="M436 0q-78 0 -78 86q0 27 20.5 86t20.5 90v240l-166 282q-35 59 -87.5 129t-78.5 112t-26 75q0 30 21 48.5t57 18.5h352q29 0 47 -3.5t32.5 -19t14.5 -44.5q0 -5 -0.5 -30t-0.5 -39t3 -41t9 -48.5t18 -49.5t29 -54l118 -181q78 179 78 326q0 18 -1 50t-1 48q0 45 29 65.5
t100 20.5q123 0 123 -73q0 -28 -32.5 -71.5t-108 -150t-148.5 -243.5l-12 -23v-344q0 -31 20.5 -90t20.5 -86q0 -86 -78 -86h-295z" />
    <glyph glyph-name="Z" unicode="Z" horiz-adv-x="1110" 
d="M123 0q-36 0 -57 19t-21 49q0 31 20.5 58.5t71.5 94.5t101 162l286 551q41 80 41 135q0 68 -67 68q-50 0 -88.5 -22.5t-64 -54.5t-49.5 -64.5t-58 -55t-76 -22.5q-61 0 -91 40t-30 91q0 60 37.5 89t118.5 29h790q36 0 57 -18.5t21 -48.5q0 -31 -21 -59t-72 -95t-100 -162
l-286 -551q-41 -80 -41 -135q0 -67 67 -67q50 0 88.5 22.5t64 54.5t49.5 64.5t58 55t76 22.5q61 0 91 -40t30 -91q0 -61 -37.5 -90t-118.5 -29h-790z" />
    <glyph glyph-name="bracketleft" unicode="[" horiz-adv-x="600" 
d="M51 -88v1378h467q12 0 21.5 -6t9.5 -14t-9.5 -14.5t-21.5 -6.5h-160v-1296h160q12 0 21.5 -6.5t9.5 -14.5t-9.5 -14t-21.5 -6h-467z" />
    <glyph glyph-name="backslash" unicode="\" horiz-adv-x="692" 
d="M518 -10q-19 0 -26 18l-424 1219q-2 4 -2 12q0 15 9.5 25t24.5 10h74q19 0 27 -19l424 -1218q2 -4 2 -12q0 -15 -10 -25t-25 -10h-74z" />
    <glyph glyph-name="bracketright" unicode="]" horiz-adv-x="600" 
d="M82 -88q-12 0 -21.5 5.5t-9.5 12.5q0 8 9.5 14.5t21.5 6.5h160v1298h-160q-12 0 -21.5 6.5t-9.5 14.5t9.5 14t21.5 6h467v-1378h-467z" />
    <glyph glyph-name="underscore" unicode="_" horiz-adv-x="747" 
d="M102 -10q-22 0 -36.5 14.5t-14.5 36.5v31q0 22 14.5 36.5t36.5 14.5h543q22 0 36.5 -14.5t14.5 -36.5v-31q0 -22 -14.5 -36.5t-36.5 -14.5h-543z" />
    <glyph glyph-name="grave" unicode="`" horiz-adv-x="405" 
 />
    <glyph glyph-name="a" unicode="a" horiz-adv-x="1075" 
d="M330 -10q-136 0 -212.5 65t-76.5 158q0 54 20 97t52.5 72t81 50.5t97.5 33.5t111 19t112 9t110 2v157q0 166 -95 166q-27 0 -44 -15.5t-17 -37.5q0 -20 19.5 -52t19.5 -69q0 -61 -52 -96t-124 -35q-77 0 -135 40.5t-58 111.5q0 50 31.5 86.5t87.5 57t123.5 30.5t148.5 10
q231 0 347 -90t116 -299v-94q0 -74 10.5 -118.5t20.5 -72.5t10 -61q0 -55 -50.5 -90t-139.5 -35q-63 0 -110 15t-68.5 33t-45.5 33t-45 15q-20 0 -37 -10t-32 -24t-35 -28t-56 -24t-85 -10zM528 117q45 0 71 32t26 113v193q-60 -6 -104 -28.5t-67 -54t-33.5 -62.5t-10.5 -62
q0 -59 31.5 -95t86.5 -36z" />
    <glyph glyph-name="b" unicode="b" 
d="M231 -10q-89 0 -139.5 35t-50.5 90q0 28 6.5 52t14 41.5t14 59t6.5 99.5v471q0 45 -20.5 98.5t-20.5 81.5q0 72 100 100l146 39q34 10 69 10q95 0 95 -102v-326q36 47 97 79t144 32q96 0 171.5 -36.5t121 -98t69 -137t23.5 -158.5q0 -111 -35.5 -207t-112 -159.5
t-181.5 -63.5q-46 0 -84 15t-58 33t-45 33t-49 15q-26 0 -52.5 -15t-49 -33t-70 -33t-109.5 -15zM547 117q71 0 116.5 92t45.5 213q0 118 -50.5 201.5t-146.5 83.5q-26 0 -61 -9v-436q0 -81 25.5 -113t70.5 -32z" />
    <glyph glyph-name="c" unicode="c" horiz-adv-x="1001" 
d="M553 -10q-243 0 -377.5 120.5t-134.5 319.5q0 420 524 420q82 0 150.5 -10t125 -30.5t88.5 -57t32 -86.5q0 -71 -58 -111.5t-135 -40.5q-72 0 -124 35t-52 96q0 37 19.5 69t19.5 52q0 23 -19.5 38t-54.5 15q-147 0 -147 -307q0 -168 68.5 -268.5t217.5 -100.5
q59 0 105.5 15t75.5 30t45 15q28 0 28 -33q0 -24 -25 -53.5t-71 -58.5t-126 -48.5t-175 -19.5z" />
    <glyph glyph-name="d" unicode="d" horiz-adv-x="1132" 
d="M387 -10q-85 0 -153 36.5t-109 98t-62.5 137t-21.5 158.5t23.5 158.5t69 137t121 98t171.5 36.5q83 0 144.5 -32.5t97.5 -78.5v99q0 45 -20.5 98.5t-20.5 81.5q0 72 100 100l145 39q34 10 70 10q94 0 94 -102v-762q0 -59 28 -107t28 -81q0 -53 -53 -89t-124 -36
q-247 0 -247 252q-13 -17 -29 -53.5t-32 -67.5t-42 -62.5t-71 -50t-107 -18.5zM565 250q62 0 103 43v405q-34 9 -62 9q-91 0 -143.5 -72.5t-52.5 -169.5q0 -88 42.5 -151.5t112.5 -63.5z" />
    <glyph glyph-name="e" unicode="e" horiz-adv-x="1007" 
d="M553 -10q-243 0 -377.5 120.5t-134.5 319.5q0 95 27.5 169t73 120.5t111 76.5t136.5 42t154 12q190 0 307 -70.5t117 -201.5q0 -66 -30.5 -115.5t-76.5 -76t-103 -49.5t-107 -37.5t-90.5 -37.5t-53.5 -51q71 -68 190 -68q59 0 105.5 15t75.5 30t45 15q28 0 28 -33
q0 -24 -25 -53.5t-71 -58.5t-126 -48.5t-175 -19.5zM481 240q9 33 37 75.5t54 78.5t46.5 102t20.5 147q0 83 -25.5 127.5t-68.5 44.5q-54 0 -94.5 -76.5t-40.5 -226.5q0 -180 71 -272z" />
    <glyph glyph-name="f" unicode="f" horiz-adv-x="550" 
d="M119 0q-78 0 -78 86q0 27 20.5 86t20.5 90v516h-98q-41 0 -41 31t41 31h98q9 224 138 338t345 114q82 0 150.5 -10t125 -30.5t88.5 -57t32 -86.5q0 -71 -58 -111.5t-135 -40.5q-72 0 -124 35t-52 96q0 37 19.5 69t19.5 52q0 23 -18.5 38.5t-49.5 15.5q-73 0 -114 -64
t-41 -151q0 -81 39 -144t104 -63q41 0 41 -31t-41 -31h-100v-516q0 -31 20.5 -90t20.5 -86q0 -86 -78 -86h-295z" />
    <glyph glyph-name="g" unicode="g" 
d="M524 -504q-117 0 -211 19.5t-152.5 61.5t-58.5 99q0 59 52.5 91t126.5 32q75 0 132.5 -31.5t57.5 -82.5q0 -26 -19.5 -54.5t-19.5 -50.5q0 -23 27 -38t65 -15q61 0 107.5 33.5t46.5 97.5q0 48 -42.5 84t-106.5 55t-139 39t-139 37t-106.5 48t-42.5 73q0 33 28 59.5
t75.5 42.5t102 25.5t114.5 11.5q-177 27 -279 119t-102 235q0 154 122 250.5t331 110.5q18 96 55 168t100.5 117t147.5 45q88 0 136 -48t48 -114q0 -63 -44.5 -109.5t-123.5 -46.5q-52 0 -108.5 25.5t-83.5 25.5q-54 0 -84 -61h22q237 0 377.5 -98.5t140.5 -264.5
t-140.5 -265t-377.5 -99q-32 0 -49.5 -9t-17.5 -22q0 -21 57 -38t139 -34.5t163.5 -43.5t138.5 -78t57 -125q0 -90 -73 -154t-189 -93.5t-261 -29.5zM559 158q42 0 72.5 27t46.5 75t23.5 104t7.5 123q0 132 -42 230t-108 98t-107.5 -98t-41.5 -230q0 -329 149 -329z" />
    <glyph glyph-name="h" unicode="h" horiz-adv-x="1130" 
d="M913 -10q-247 0 -247 252v204q0 74 -30.5 109t-78.5 35q-51 0 -106 -43v-285q0 -31 20.5 -90t20.5 -86q0 -86 -78 -86h-295q-78 0 -78 86q0 27 20.5 86t20.5 90v576q0 45 -20.5 98.5t-20.5 81.5q0 72 100 100l146 39q34 10 69 10q95 0 95 -102v-467q13 17 29.5 54
t34 67.5t46.5 62t81 50t124 18.5q117 0 192.5 -67t75.5 -183v-297q0 -59 28 -107t28 -81q0 -53 -53 -89t-124 -36z" />
    <glyph glyph-name="i" unicode="i" horiz-adv-x="532" 
d="M246 899q-81 0 -143 57.5t-62 139.5q0 79 62.5 137.5t142.5 58.5t142.5 -58.5t62.5 -137.5q0 -82 -62 -139.5t-143 -57.5zM119 0q-78 0 -78 86q0 27 20.5 86t20.5 90v248q0 45 -20.5 98.5t-20.5 81.5q0 73 100 101l146 38q37 11 69 11q95 0 95 -103v-475q0 -31 20.5 -90
t20.5 -86q0 -86 -78 -86h-295z" />
    <glyph glyph-name="j" unicode="j" horiz-adv-x="544" 
d="M258 899q-81 0 -143 57.5t-62 139.5q0 79 62.5 137.5t142.5 58.5t142.5 -58.5t62.5 -137.5q0 -82 -62 -139.5t-143 -57.5zM-80 -504q-166 0 -283.5 53.5t-117.5 143.5q0 68 55.5 105.5t132.5 37.5q73 0 126.5 -35.5t53.5 -99.5q0 -37 -19.5 -69t-19.5 -52q0 -23 22.5 -38
t55.5 -15q168 0 168 309v674q0 45 -20.5 98.5t-20.5 81.5q0 73 101 101l145 38q37 11 70 11q94 0 94 -103v-766q0 -104 -32 -186.5t-84.5 -135.5t-124 -88.5t-146.5 -50t-156 -14.5z" />
    <glyph glyph-name="k" unicode="k" horiz-adv-x="1114" 
d="M119 0q-78 0 -78 86q0 27 20.5 86t20.5 90v576q0 45 -20.5 98.5t-20.5 81.5q0 72 100 100l146 39q34 10 69 10q95 0 95 -102v-520q165 56 222 89q85 50 85 114q0 40 34 66t93 26q60 0 92.5 -25t32.5 -67q0 -20 -7 -38.5t-22 -34t-31.5 -29t-44 -26t-49.5 -22t-57.5 -19.5
t-59.5 -16.5t-64.5 -15t-62.5 -13t-63 -12.5q123 -35 242.5 -105.5t200.5 -161t81 -169.5q0 -86 -78 -86h-266q-106 0 -106 86q0 28 7 74.5t7 77.5q0 105 -49 173t-137 93v-242q0 -31 20.5 -90t20.5 -86q0 -86 -78 -86h-295z" />
    <glyph glyph-name="l" unicode="l" horiz-adv-x="532" 
d="M119 0q-78 0 -78 86q0 27 20.5 86t20.5 90v576q0 45 -20.5 98.5t-20.5 81.5q0 72 100 100l146 39q34 10 69 10q95 0 95 -102v-803q0 -31 20.5 -90t20.5 -86q0 -86 -78 -86h-295z" />
    <glyph glyph-name="m" unicode="m" horiz-adv-x="1632" 
d="M1415 -10q-248 0 -248 252v204q0 76 -19.5 110t-60.5 34q-39 0 -94 -43v-285q0 -31 20.5 -90t20.5 -86q0 -86 -78 -86h-294q-78 0 -78 86q0 27 20.5 86t20.5 90v184q0 76 -19.5 110t-60.5 34q-39 0 -94 -43v-285q0 -31 20.5 -90t20.5 -86q0 -86 -78 -86h-295
q-78 0 -78 86q0 27 20.5 86t20.5 90v248q0 45 -20.5 98.5t-20.5 81.5q0 73 100 101l146 38q37 11 69 11q95 0 95 -103v-139q13 17 29 54t32.5 67.5t43.5 62t75 50t114 18.5q115 0 181.5 -66t66.5 -184v-2q13 17 29.5 54t33 67.5t43.5 62t75 50t114 18.5q115 0 181.5 -66
t66.5 -184v-297q0 -59 27.5 -107t27.5 -81q0 -53 -52.5 -89t-123.5 -36z" />
    <glyph glyph-name="n" unicode="n" horiz-adv-x="1130" 
d="M913 -10q-247 0 -247 252v204q0 74 -30.5 109t-78.5 35q-51 0 -106 -43v-285q0 -31 20.5 -90t20.5 -86q0 -86 -78 -86h-295q-78 0 -78 86q0 27 20.5 86t20.5 90v248q0 45 -20.5 98.5t-20.5 81.5q0 73 100 101l146 38q37 11 69 11q95 0 95 -103v-139q13 17 29.5 54
t34 67.5t46.5 62t81 50t124 18.5q117 0 192.5 -67t75.5 -183v-297q0 -59 28 -107t28 -81q0 -53 -53 -89t-124 -36z" />
    <glyph glyph-name="o" unicode="o" 
d="M559 -10q-242 0 -380 110.5t-138 319.5t138 319.5t380 110.5t380 -110.5t138 -319.5t-138 -319.5t-380 -110.5zM559 25q150 0 150 395q0 168 -41.5 281.5t-108.5 113.5t-108 -113t-41 -282q0 -395 149 -395z" />
    <glyph glyph-name="p" unicode="p" 
d="M119 -369q-78 0 -78 86q0 27 20.5 86.5t20.5 90.5v579q0 58 -6.5 99.5t-14 59t-14 41.5t-6.5 52q0 55 50.5 90t139.5 35q62 0 109.5 -15t70 -33t49 -33t52.5 -15q24 0 49 15t45 33t58 33t84 15q105 0 181.5 -63.5t112 -159.5t35.5 -207q0 -83 -23.5 -158.5t-69 -137
t-121 -98t-171.5 -36.5q-83 0 -144 32t-97 78v-206q0 -31 20.5 -90.5t20.5 -86.5q0 -86 -78 -86h-295zM512 133q96 0 146.5 83.5t50.5 201.5q0 121 -45.5 213t-116.5 92q-45 0 -70.5 -32t-25.5 -113v-437q31 -8 61 -8z" />
    <glyph glyph-name="q" unicode="q" 
d="M705 -369q-78 0 -78 86q0 27 20.5 86.5t20.5 90.5v206q-36 -46 -97.5 -78t-144.5 -32q-96 0 -171.5 36.5t-121 98t-69 137t-23.5 158.5q0 82 21.5 158t61 137.5t104 98t143.5 36.5q46 0 83.5 -15t57.5 -33t45 -33t49 -15q26 0 52.5 15t49 33t70 33t109.5 15
q89 0 139.5 -35t50.5 -90q0 -28 -6.5 -52t-14 -41.5t-14 -59t-6.5 -99.5v-579q0 -31 20.5 -90.5t20.5 -86.5q0 -86 -78 -86h-294zM606 133q31 0 62 8v437q0 81 -26 113t-71 32q-71 0 -116 -92t-45 -213q0 -118 50 -201.5t146 -83.5z" />
    <glyph glyph-name="r" unicode="r" horiz-adv-x="944" 
d="M119 0q-78 0 -78 86q0 27 20.5 86t20.5 90v248q0 45 -20.5 98.5t-20.5 81.5q0 73 100 101l146 38q37 11 69 11q95 0 95 -103v-129q13 17 33.5 53t39 65t45.5 59.5t64.5 47.5t83.5 17q86 0 136 -56.5t50 -131.5q0 -74 -47.5 -127.5t-132.5 -53.5q-41 0 -79 14.5
t-61.5 31.5t-48 31.5t-42.5 14.5q-22 0 -41 -16v-295q0 -31 20.5 -90t20.5 -86q0 -86 -78 -86h-295z" />
    <glyph glyph-name="s" unicode="s" horiz-adv-x="946" 
d="M442 -10q-185 0 -293 40t-108 120q0 62 57 97.5t133 35.5q73 0 126 -33t53 -92q0 -28 -19.5 -57.5t-19.5 -41.5q0 -19 20.5 -29t50.5 -10q39 0 67 18t28 56q0 52 -51 104.5t-124 98.5t-146 94t-124 107t-51 120q0 75 63.5 128.5t166.5 78.5t233 25q185 0 293 -40
t108 -120q0 -62 -57 -97.5t-133 -35.5q-73 0 -125.5 32.5t-52.5 92.5q0 28 19 57t19 41q0 19 -20.5 29t-50.5 10q-39 0 -66.5 -18t-27.5 -56q0 -52 51 -104.5t124 -98.5t145.5 -94t123.5 -107t51 -120q0 -75 -63.5 -128.5t-166.5 -78t-233 -24.5z" />
    <glyph glyph-name="t" unicode="t" horiz-adv-x="571" 
d="M317 -10q-67 0 -115 21t-73 58t-36 79.5t-11 93.5v536q-41 0 -41 31t41 31q50 0 86 33.5t57.5 82t41.5 96.5t48.5 81.5t67.5 33.5q31 0 49.5 -19.5t18.5 -57.5v-250h59q41 0 41 -31t-41 -31h-59v-475q0 -47 13.5 -81.5t27.5 -59.5t14 -47q0 -53 -55 -89t-134 -36z" />
    <glyph glyph-name="u" unicode="u" horiz-adv-x="1130" 
d="M350 -10q-117 0 -192.5 67t-75.5 183v338q0 31 -20.5 90t-20.5 86q0 86 78 86h295q78 0 78 -86q0 -27 -20.5 -86t-20.5 -90v-185q0 -74 30 -108.5t78 -34.5q59 0 107 43v285q0 31 -20.5 90t-20.5 86q0 86 77 86h295q78 0 78 -86q0 -27 -20.5 -86t-20.5 -90v-275
q0 -59 28 -107t28 -81q0 -53 -53 -89t-124 -36q-247 0 -247 252q-13 -17 -29.5 -54t-34 -67.5t-47 -62t-81.5 -50t-124 -18.5z" />
    <glyph glyph-name="v" unicode="v" horiz-adv-x="925" 
d="M438 0q-39 0 -60.5 17.5t-55.5 80.5l-191 359q-34 64 -85 131.5t-79 109.5t-28 74q0 30 20.5 49t56.5 19h353q45 0 69.5 -13.5t24.5 -54.5q0 -101 17 -163q14 -50 40 -99l101 -188q53 121 53 233q0 44 -10.5 108t-10.5 91q0 45 29 65.5t100 20.5q123 0 123 -74
q0 -24 -16 -58.5t-41.5 -74.5t-80 -134t-110.5 -198l-108 -203q-32 -62 -54 -80t-57 -18z" />
    <glyph glyph-name="w" unicode="w" horiz-adv-x="1550" 
d="M438 0q-39 0 -60.5 17.5t-55.5 80.5l-191 359q-34 64 -85 131.5t-79 109.5t-28 74q0 30 20.5 49t56.5 19h353q45 0 69.5 -13.5t24.5 -54.5q0 -101 17 -163q14 -50 40 -99l101 -188q60 142 53 262q-13 17 -34 45t-31.5 43t-23 34.5t-17.5 35t-5 30.5q0 30 21 49t57 19h352
q45 0 69.5 -13.5t24.5 -54.5q0 -46 1 -70.5t15 -81.5t42 -110l100 -188q53 121 53 233q0 44 -10 108t-10 91q0 45 29 65.5t100 20.5q123 0 123 -74q0 -24 -16 -58.5t-41.5 -74.5t-80 -134t-110.5 -198l-108 -203q-32 -62 -54 -80t-57 -18q-39 0 -61 17.5t-56 80.5l-196 369
q-65 -113 -93 -166l-108 -203q-32 -62 -54 -80t-57 -18z" />
    <glyph glyph-name="x" unicode="x" horiz-adv-x="919" 
d="M94 0q-45 0 -69.5 22t-24.5 64q0 40 26 83.5t55.5 73t80.5 76t74 70.5l-80 123q-33 51 -78 107t-61.5 85.5t-16.5 67.5q0 30 21 49t57 19h344q78 0 78 -86q0 -97 43 -164l67 -105q31 61 31 115q0 32 -15.5 81t-15.5 73q0 45 29.5 65.5t77.5 20.5h57q45 0 69.5 -22
t24.5 -64q0 -40 -26 -83.5t-55 -73t-80 -76t-74 -70.5l80 -123q28 -39 64 -85.5t51.5 -67t27.5 -49t12 -58.5t-20.5 -49t-56.5 -19h-345q-77 0 -77 86q0 97 -43 164l-68 104q-31 -61 -31 -114q0 -32 15.5 -81t15.5 -73q0 -86 -106 -86h-58z" />
    <glyph glyph-name="y" unicode="y" horiz-adv-x="905" 
d="M201 -504q-96 0 -162 49.5t-66 132.5q0 75 56 116.5t133 41.5q73 0 126.5 -34.5t53.5 -94.5q0 -18 -5 -35t-5 -22q0 -19 20 -19q28 0 52 71.5t63 236.5q4 20 4 28q0 33 -43 33q-36 0 -53.5 16t-52.5 82l-191 359q-34 64 -85 131.5t-79 109.5t-28 74q0 30 20.5 49t56.5 19
h353q45 0 69.5 -13.5t24.5 -54.5q0 -101 17 -163q14 -50 40 -99l101 -184q53 121 53 231q0 44 -10.5 107t-10.5 90q0 45 29 65.5t100 20.5q123 0 123 -74q0 -30 -32 -89t-100 -171.5t-116 -204.5q-58 -111 -99.5 -229.5t-58.5 -199.5t-39 -157t-47.5 -121t-77.5 -71.5
t-134 -26.5z" />
    <glyph glyph-name="z" unicode="z" horiz-adv-x="962" 
d="M119 0q-36 0 -57 19t-21 49q0 38 16.5 67.5t61.5 85.5t78 107l311 481q-43 0 -77.5 -16t-56.5 -40.5t-45.5 -53t-43 -53t-49.5 -40.5t-66 -16q-55 0 -88 45t-33 96q0 58 33.5 83.5t101.5 25.5h647q36 0 57 -19t21 -49q0 -38 -16 -67.5t-61 -85.5t-78 -107l-312 -481
q56 0 99.5 22.5t71 54.5t53 64.5t59.5 55t76 22.5q61 0 91 -40t30 -91q0 -61 -37.5 -90t-118.5 -29h-647z" />
    <glyph glyph-name="braceleft" unicode="{" horiz-adv-x="696" 
d="M569 -78q-75 0 -134.5 24.5t-98.5 67.5t-69.5 96t-54.5 114.5t-46 118t-51.5 112t-63.5 90.5q34 35 63.5 90.5t51.5 112t46 118t54.5 114t69.5 95.5t98.5 67.5t134.5 24.5q33 0 33 -8q0 -10 -35 -37q-44 -37 -72 -101t-41 -131.5t-25 -134t-34 -124.5t-57 -86
q35 -28 57 -86t34 -124.5t25 -134.5t41 -132t72 -101q35 -27 35 -37q0 -8 -33 -8z" />
    <glyph glyph-name="braceright" unicode="}" horiz-adv-x="696" 
d="M127 -78q-33 0 -33 8q0 10 35 37q44 37 72 101t41 132t25 134.5t34 124.5t57 86q-35 28 -57 86t-34 124.5t-25 134t-41 131.5t-72 101q-35 27 -35 37q0 8 33 8q75 0 134.5 -24.5t98.5 -67.5t69.5 -95.5t54.5 -114t46 -118t51.5 -112t63.5 -90.5q-34 -35 -63.5 -90.5
t-51.5 -112t-46 -118t-54.5 -114.5t-69.5 -96t-98.5 -67.5t-134.5 -24.5z" />
    <glyph glyph-name="asciitilde" unicode="~" horiz-adv-x="1292" 
d="M979 260q-92 0 -201.5 17.5t-194 39t-187.5 39t-185 17.5q-97 0 -137 -72q-10 -16 -17 -16q-6 0 -6 18q0 62 15.5 118.5t46 103t82.5 74.5t118 28q116 0 256.5 -28.5t275 -56.5t236.5 -28q98 0 138 72q10 16 16 16t6 -18q0 -62 -15.5 -118.5t-46 -103t-82.5 -74.5
t-118 -28z" />
    <glyph glyph-name="exclamdown" unicode="&#xa1;" horiz-adv-x="552" 
d="M276 965q-43 0 -73.5 31.5t-30.5 74.5t31 75t73 32q43 0 74 -32t31 -75t-31 -74.5t-74 -31.5zM129 0q-78 0 -78 86q0 27 19.5 105.5t31.5 152.5l74 487q4 30 17 41t40 11h86q27 0 40.5 -11t17.5 -41l74 -487q12 -74 31.5 -152.5t19.5 -105.5q0 -86 -78 -86h-295z" />
    <glyph glyph-name="cent" unicode="&#xa2;" horiz-adv-x="1021" 
d="M526 -260q-77 0 -77 86q0 27 19 83t21 85q-210 18 -324 136t-114 300q0 386 438 418q-1 29 -20.5 86.5t-19.5 85.5q0 86 77 86h131q78 0 78 -86q0 -27 -20.5 -86t-20.5 -90q127 -13 202 -56t75 -122q0 -71 -58 -111.5t-135 -40.5q-72 0 -124 35t-52 96q0 37 19.5 69
t19.5 52q0 23 -19.5 38t-54.5 15q-147 0 -147 -307q0 -80 15.5 -145t48.5 -116.5t89.5 -79.5t133.5 -28q59 0 105 15t75 30t45 15q29 0 29 -33q0 -43 -72 -96t-195 -74q0 -31 20.5 -89t20.5 -85q0 -86 -78 -86h-131z" />
    <glyph glyph-name="sterling" unicode="&#xa3;" horiz-adv-x="1138" 
d="M100 0q-49 0 -49 31q0 19 15.5 41t41 56.5t42.5 72.5q25 57 39 138.5t16.5 136.5t3.5 170t2 153h-14q-21 0 -21 20q0 8 5.5 14.5t15.5 6.5h14q4 94 16 164.5t44.5 142t85 117t140.5 74t208 28.5q160 0 267 -62t107 -163q0 -71 -57.5 -111.5t-134.5 -40.5q-72 0 -124 35
t-52 96q0 37 29.5 89.5t29.5 72.5q0 23 -17.5 38t-47.5 15q-28 0 -48.5 -16t-33 -55t-20 -74t-11 -104.5t-4.5 -113.5t-2 -132h241q10 0 15.5 -6.5t5.5 -14.5q0 -20 -21 -20h-241q-1 -83 -2.5 -135.5t-6 -131.5t-12.5 -131.5t-22 -116.5t-33.5 -107.5t-49 -83t-67.5 -62.5
h213q57 0 100.5 22.5t71.5 54.5t53.5 64.5t59.5 55t76 22.5q61 0 90.5 -39.5t29.5 -91.5q0 -61 -37 -90t-118 -29h-832z" />
    <glyph glyph-name="currency" unicode="&#xa4;" horiz-adv-x="1056" 
d="M190 61q-17 0 -24 13.5t2 27.5l72 105q-111 52 -170.5 147.5t-59.5 229.5q0 128 55.5 221.5t159.5 146.5l-75 113q-7 11 -7 16q0 9 7.5 17t19.5 8h33l88 -127q103 35 237 35q135 0 238 -35l88 127h31q17 0 24 -14t-2 -27l-78 -113q218 -107 218 -368q0 -134 -59.5 -229.5
t-170.5 -145.5l72 -107q6 -9 6 -16q0 -10 -7.5 -17.5t-19.5 -7.5h-32l-86 121q-98 -28 -222 -28t-223 30l-84 -123h-31zM528 195q150 0 150 389q0 103 -18 191t-52.5 143t-79.5 55q-44 0 -79 -55t-52.5 -142.5t-17.5 -191.5q0 -389 149 -389z" />
    <glyph glyph-name="yen" unicode="&#xa5;" horiz-adv-x="1110" 
d="M436 0q-78 0 -78 86q0 27 20.5 86t20.5 90v35h-98q-9 0 -14.5 5t-5.5 11q0 15 20 15h98v102h-98q-9 0 -14.5 5t-5.5 11q0 15 20 15h98v41l-166 282q-35 59 -87.5 129t-78.5 112t-26 75q0 30 21 48.5t57 18.5h352q29 0 47 -3.5t32.5 -19t14.5 -44.5q0 -5 -0.5 -30
t-0.5 -39t3 -41t9 -48.5t18 -49.5t29 -54l118 -181q78 179 78 326q0 18 -1 50t-1 48q0 45 29 65.5t100 20.5q123 0 123 -73q0 -28 -32.5 -71.5t-108 -150t-148.5 -243.5l-12 -23v-145h98q21 0 21 -15q0 -6 -6 -11t-15 -5h-98v-102h98q21 0 21 -15q0 -6 -6 -11t-15 -5h-98
v-35q0 -31 20.5 -90t20.5 -86q0 -86 -78 -86h-295z" />
    <glyph glyph-name="dieresis" unicode="&#xa8;" horiz-adv-x="344" 
 />
    <glyph glyph-name="guillemotleft" unicode="&#xab;" horiz-adv-x="1034" 
d="M342 -10q-24 0 -37 20l-254 410l254 409q14 21 37 21h131q29 0 47.5 -18.5t18.5 -43.5q0 -12 -11 -34l-190 -334l190 -334q11 -22 11 -35q0 -25 -18.5 -43t-47.5 -18h-131zM723 -10q-25 0 -39 24l-213 406l213 405q14 25 39 25h156q29 0 47 -17.5t18 -44.5q0 -17 -8 -30
l-178 -338l178 -338q8 -13 8 -31q0 -27 -18 -44t-47 -17h-156z" />
    <glyph glyph-name="logicalnot" unicode="&#xac;" horiz-adv-x="1198" 
d="M1096 352q-22 0 -37 14.5t-15 36.5v242h-942q-22 0 -36.5 14.5t-14.5 36.5v101q0 22 14.5 37.5t36.5 15.5h1045v-447q0 -22 -14 -36.5t-37 -14.5z" />
    <glyph glyph-name="macron" unicode="&#xaf;" horiz-adv-x="503" 
 />
    <glyph glyph-name="plusminus" unicode="&#xb1;" horiz-adv-x="708" 
d="M283 385q-12 0 -21.5 9.5t-9.5 21.5v221h-170q-12 0 -21.5 9.5t-9.5 21.5v41q0 12 9.5 21t21.5 9h170v222q0 12 9.5 21t21.5 9h143q12 0 21.5 -9t9.5 -21v-222h170q12 0 21 -9t9 -21v-41q0 -12 -9 -21.5t-21 -9.5h-170v-221q0 -12 -9.5 -21.5t-21.5 -9.5h-143zM82 211
q-12 0 -21.5 9.5t-9.5 21.5v41q0 12 9.5 21t21.5 9h545q12 0 21 -9t9 -21v-41q0 -12 -9 -21.5t-21 -9.5h-545z" />
    <glyph glyph-name="acute" unicode="&#xb4;" horiz-adv-x="405" 
 />
    <glyph glyph-name="periodcentered" unicode="&#xb7;" horiz-adv-x="319" 
d="M160 297q-44 0 -76.5 33t-32.5 76t32.5 75.5t76.5 32.5q43 0 75.5 -32.5t32.5 -75.5t-32.5 -76t-75.5 -33z" />
    <glyph glyph-name="cedilla" unicode="&#xb8;" horiz-adv-x="434" 
 />
    <glyph glyph-name="guillemotright" unicode="&#xbb;" horiz-adv-x="1034" 
d="M156 -10q-29 0 -47.5 17.5t-18.5 43.5q0 18 8 31l178 338l-178 338q-8 13 -8 30q0 27 18.5 44.5t47.5 17.5h155q25 0 39 -25l213 -405l-213 -406q-14 -24 -39 -24h-155zM561 -10q-29 0 -47 18t-18 43q0 15 10 35l190 334l-190 334q-10 20 -10 34q0 26 18 44t47 18h131
q23 0 37 -21l254 -409l-254 -410q-13 -20 -37 -20h-131z" />
    <glyph glyph-name="questiondown" unicode="&#xbf;" horiz-adv-x="1007" 
d="M586 965q-43 0 -74 31.5t-31 74.5t31 75t74 32q42 0 73 -32t31 -75t-30.5 -74.5t-73.5 -31.5zM532 -10q-93 0 -175.5 15.5t-152.5 47t-111.5 86.5t-41.5 127q0 58 32 113.5t79.5 97.5t103.5 88.5t103.5 87t79.5 93t32 106.5q0 26 10 39.5t39 13.5h109q51 0 51 -51
q0 -72 -28 -137t-67.5 -117.5t-79 -107.5t-67.5 -130.5t-28 -162.5t40 -127.5t93 -40.5q32 0 53 13t21 34q0 15 -19.5 43t-19.5 57q0 67 54.5 104t129.5 37t129.5 -37t54.5 -104q0 -60 -61.5 -103.5t-156 -64t-206.5 -20.5z" />
    <glyph glyph-name="multiply" unicode="&#xd7;" horiz-adv-x="835" 
d="M143 195q-20 0 -31.5 11.5t-11.5 29.5q0 17 11 28l221 260l-221 260q-11 11 -11 29t11.5 29.5t31.5 11.5h80l195 -229l194 229h80q20 0 31.5 -11.5t11.5 -29.5q0 -19 -10 -29l-221 -260l221 -260q10 -10 10 -28t-11.5 -29.5t-31.5 -11.5h-80l-194 229l-195 -229h-80z" />
    <glyph glyph-name="divide" unicode="&#xf7;" horiz-adv-x="741" 
d="M371 733q-54 0 -93.5 40t-39.5 93t39.5 93t93.5 40q53 0 93 -40.5t40 -92.5t-40 -92.5t-93 -40.5zM82 520q-12 0 -21.5 9.5t-9.5 21.5v41q0 12 9.5 21.5t21.5 9.5h577q12 0 21.5 -9.5t9.5 -21.5v-41q0 -12 -9.5 -21.5t-21.5 -9.5h-577zM371 143q-54 0 -93.5 40t-39.5 93
t39.5 93.5t93.5 40.5q52 0 92.5 -40.5t40.5 -93.5q0 -52 -40 -92.5t-93 -40.5z" />
    <glyph glyph-name="circumflex" unicode="&#x2c6;" horiz-adv-x="450" 
 />
    <glyph glyph-name="caron" unicode="&#x2c7;" horiz-adv-x="409" 
 />
    <glyph glyph-name="breve" unicode="&#x2d8;" horiz-adv-x="409" 
 />
    <glyph glyph-name="dotaccent" unicode="&#x2d9;" horiz-adv-x="159" 
 />
    <glyph glyph-name="ring" unicode="&#x2da;" horiz-adv-x="325" 
 />
    <glyph glyph-name="ogonek" unicode="&#x2db;" horiz-adv-x="376" 
 />
    <glyph glyph-name="tilde" unicode="&#x2dc;" horiz-adv-x="518" 
 />
    <glyph glyph-name="hungarumlaut" unicode="&#x2dd;" horiz-adv-x="735" 
 />
    <glyph glyph-name="endash" unicode="&#x2013;" horiz-adv-x="671" 
d="M102 580q-22 0 -36.5 14.5t-14.5 36.5v80q0 22 14.5 37.5t36.5 15.5h465q22 0 38 -15t16 -36v-80q0 -22 -15 -37.5t-37 -15.5h-467z" />
    <glyph glyph-name="emdash" unicode="&#x2014;" horiz-adv-x="1148" 
d="M102 590q-22 0 -36.5 14.5t-14.5 36.5v80q0 22 14.5 37.5t36.5 15.5h945q22 0 36.5 -14.5t14.5 -36.5v-80q0 -22 -14.5 -37.5t-36.5 -15.5h-945z" />
    <glyph glyph-name="quoteleft" unicode="&#x2018;" horiz-adv-x="262" 
d="M131 1016q-34 0 -57 24t-23 58q0 63 45 106t101 51q-39 -24 -56 -77q30 -3 50 -26.5t20 -53.5q0 -34 -23 -58t-57 -24z" />
    <glyph glyph-name="quoteright" unicode="&#x2019;" horiz-adv-x="262" 
d="M66 1020q37 23 55 78q-30 3 -50 26.5t-20 53.5q0 34 23 58t57 24t57 -24t23 -58q0 -63 -44.5 -106.5t-100.5 -51.5z" />
    <glyph glyph-name="quotesinglbase" unicode="&#x201a;" horiz-adv-x="262" 
d="M66 -88q37 23 55 78q-30 3 -50 26.5t-20 53.5q0 34 23 58t57 24t57 -24t23 -58q0 -63 -44.5 -106.5t-100.5 -51.5z" />
    <glyph glyph-name="quotedblleft" unicode="&#x201c;" horiz-adv-x="454" 
d="M131 1016q-34 0 -57 24t-23 58q0 63 45 106t101 51q-39 -24 -56 -77q30 -3 50 -26.5t20 -53.5q0 -34 -23 -58t-57 -24zM324 1016q-34 0 -57 24t-23 58q0 63 44.5 106t100.5 51q-38 -23 -55 -77q30 -3 49.5 -26.5t19.5 -53.5q0 -34 -23 -58t-56 -24z" />
    <glyph glyph-name="quotedblright" unicode="&#x201d;" horiz-adv-x="454" 
d="M66 1020q37 23 55 78q-30 3 -50 26.5t-20 53.5q0 34 23 58t57 24t57 -24t23 -58q0 -63 -44.5 -106.5t-100.5 -51.5zM258 1020q37 23 55 78q-30 3 -49.5 26.5t-19.5 53.5q0 34 23 58t57 24q33 0 56 -24t23 -58q0 -63 -44.5 -106.5t-100.5 -51.5z" />
    <glyph glyph-name="quotedblbase" unicode="&#x201e;" horiz-adv-x="454" 
d="M66 -88q37 23 55 78q-30 3 -50 26.5t-20 53.5q0 34 23 58t57 24t57 -24t23 -58q0 -63 -44.5 -106.5t-100.5 -51.5zM258 -88q37 23 55 78q-30 3 -49.5 26.5t-19.5 53.5q0 34 23 58t57 24q33 0 56 -24t23 -58q0 -63 -44.5 -106.5t-100.5 -51.5z" />
    <glyph glyph-name="bullet" unicode="&#x2022;" horiz-adv-x="368" 
d="M184 272q-54 0 -93.5 40.5t-39.5 93.5t39.5 93t93.5 40q52 0 92.5 -40.5t40.5 -92.5q0 -53 -40.5 -93.5t-92.5 -40.5z" />
    <glyph glyph-name="ellipsis" unicode="&#x2026;" horiz-adv-x="823" 
d="M131 -10q-32 0 -56 24t-24 58t24 58t56 24q34 0 57 -24t23 -58t-23 -58t-57 -24zM412 -10q-34 0 -57 24t-23 58t23 58t57 24t57 -24t23 -58t-23 -58t-57 -24zM692 -10q-34 0 -57 24t-23 58t23 58t57 24q32 0 56 -24t24 -58t-24 -58t-56 -24z" />
    <glyph glyph-name="guilsinglleft" unicode="&#x2039;" horiz-adv-x="634" 
d="M342 -10q-24 0 -37 20l-254 410l254 409q14 21 37 21h131q29 0 47.5 -18.5t18.5 -43.5q0 -12 -11 -34l-190 -334l190 -334q11 -22 11 -35q0 -25 -18.5 -43t-47.5 -18h-131z" />
    <glyph glyph-name="guilsinglright" unicode="&#x203a;" horiz-adv-x="634" 
d="M162 -10q-29 0 -47.5 18t-18.5 43q0 15 10 35l191 334l-191 334q-10 20 -10 34q0 25 18.5 43.5t47.5 18.5h131q23 0 37 -21l254 -409l-254 -410q-13 -20 -37 -20h-131z" />
    <glyph glyph-name="Euro" unicode="&#x20ac;" horiz-adv-x="1155" 
d="M729 -10q-107 0 -205 26.5t-184 81t-146 149t-79 220.5h-33q-21 0 -21 20q0 8 5.5 14.5t15.5 6.5h29q-5 62 -5 78q0 18 5 90h-29q-21 0 -21 20q0 8 5.5 14.5t15.5 6.5h33q31 224 175.5 337t411.5 113q208 0 310 -47t102 -145q0 -77 -57.5 -118.5t-136.5 -41.5
q-72 0 -124.5 34.5t-52.5 94.5q0 42 25 79t25 60t-19.5 38.5t-52.5 15.5q-54 0 -98.5 -39.5t-72 -104t-43.5 -134.5t-22 -142h228q20 0 20 -21q0 -20 -20 -20h-232v-31q0 -80 8 -137h224q20 0 20 -21q0 -20 -20 -20h-215q29 -155 112.5 -242.5t218.5 -87.5q52 0 96.5 14
t69 31t50 31t42.5 14q27 0 27 -30q0 -49 -52 -96.5t-142.5 -79t-190.5 -31.5z" />
    <glyph glyph-name="partialdiff" unicode="&#x2202;" horiz-adv-x="1150" 
d="M557 -10q-132 0 -233 36t-158.5 97.5t-86 134.5t-28.5 156q0 81 26 156.5t73 136t120 97t160 36.5q208 0 293 -160q-11 103 -37 194t-66.5 167t-100.5 124.5t-134 59.5q65 10 111 10q178 0 316 -76.5t213 -212t75 -307.5q0 -99 -18 -190t-59.5 -176t-103 -147t-154.5 -99
t-208 -37zM557 20q73 0 123.5 151t50.5 353q0 40 -2 58q-17 68 -50 97.5t-73 29.5q-86 0 -136 -107t-50 -268q0 -86 14 -155.5t46 -114t77 -44.5z" />
    <glyph glyph-name="emptyset" unicode="&#x2205;" horiz-adv-x="1449" 
d="M250 -10q-12 0 -20.5 7.5t-8.5 18.5t8 19l62 78q-118 84 -179 208.5t-61 264.5q0 91 25 176t79.5 161t132 132.5t190 89.5t247.5 33q213 0 367 -80l63 80h45q12 0 20.5 -8t8.5 -19q0 -10 -8 -18l-62 -76q119 -82 179.5 -205t60.5 -262q0 -91 -25.5 -177t-80.5 -163
t-133 -135t-190 -91.5t-245 -33.5q-208 0 -365 80l-65 -80h-45zM455 313l510 629q-40 95 -101.5 150t-138.5 55q-94 0 -165.5 -82.5t-105.5 -208.5t-34 -270q0 -145 35 -273zM725 20q94 0 165.5 83.5t105.5 209.5t34 271q0 142 -35 270l-510 -629q40 -95 101.5 -150
t138.5 -55z" />
    <glyph glyph-name="product" unicode="&#x220f;" horiz-adv-x="1142" 
d="M348 0q-22 0 -36.5 16.5t-14.5 42.5v893h-182q-26 0 -45 19t-19 45v98q0 26 19 45t45 19h913q26 0 45 -19t19 -45v-98q0 -26 -19 -45t-45 -19h-182v-893q0 -26 -14.5 -42.5t-36.5 -16.5t-37 16.5t-15 42.5v893h-344v-893q0 -26 -14 -42.5t-37 -16.5z" />
    <glyph glyph-name="summation" unicode="&#x2211;" horiz-adv-x="933" 
d="M106 -70q-25 0 -40 15.5t-15 36.5q0 18 12 36l433 572l-433 571q-12 18 -12 37q0 21 15 36t40 15h748q29 0 29 -14q0 -16 -29 -16h-356q-25 0 -40.5 -15.5t-15.5 -36.5q0 -17 13 -37l409 -540l-409 -541q-13 -19 -13 -37q0 -21 15.5 -36t40.5 -15h356q29 0 29 -16
q0 -15 -29 -15h-748z" />
    <glyph glyph-name="minus" unicode="&#x2212;" horiz-adv-x="731" 
d="M102 520q-22 0 -36.5 14.5t-14.5 36.5t14.5 37t36.5 15h527q22 0 36.5 -15t14.5 -37t-14.5 -36.5t-36.5 -14.5h-527z" />
    <glyph glyph-name="radical" unicode="&#x221a;" horiz-adv-x="1464" 
d="M565 -166q-43 0 -55 39l-315 895q-12 37 -56 37h-67q-9 0 -15 5t-6 11q0 15 21 15h377q43 0 55 -39l201 -572l602 1241q4 11 16 11h51q14 0 21.5 -11.5t1.5 -23.5l-770 -1577q-14 -31 -49 -31h-13z" />
    <glyph glyph-name="infinity" unicode="&#x221e;" horiz-adv-x="1912" 
d="M457 70q-97 0 -176 35.5t-128 95t-75.5 133.5t-26.5 155q0 84 28.5 162t83 141.5t143 101.5t198.5 38q67 0 135 -17t118.5 -38.5t115.5 -63.5t101.5 -69.5t101.5 -78.5q6 -5 9.5 -7.5t9 -7t9.5 -7.5q169 152 358 152q96 0 174 -28.5t126.5 -77t74 -108.5t25.5 -126
q0 -69 -28 -133.5t-79.5 -116.5t-135.5 -83.5t-187 -31.5q-31 0 -63 5t-57 10t-58.5 20t-52.5 22.5t-55 31t-49 31t-52 37.5t-47 36t-50 40.5t-47 38.5q-55 -68 -97 -112.5t-98.5 -89.5t-118.5 -67.5t-130 -22.5zM1470 459q98 0 158 49t60 113q0 60 -58 101.5t-168 41.5
q-175 0 -332 -143q104 -80 182 -121t158 -41zM457 100q51 0 100 16t87.5 39.5t82 64t74 75.5t73.5 88q-109 86 -201 133t-192 47q-126 0 -200 -74.5t-74 -171.5q0 -90 65 -153.5t185 -63.5z" />
    <glyph glyph-name="integral" unicode="&#x222b;" horiz-adv-x="1327" 
d="M446 -246q-82 0 -150.5 10t-125 31t-88 57.5t-31.5 86.5q0 71 58 111t135 40q72 0 124 -35t52 -96q0 -37 -19.5 -69t-19.5 -52q0 -53 65 -53q67 0 96 48t29 140q0 93 -31.5 264.5t-63.5 360.5t-32 324q0 86 12.5 155.5t43 133t79.5 106t125.5 67.5t176.5 25
q82 0 150.5 -10t125 -30.5t88 -57t31.5 -86.5q0 -71 -58 -111.5t-135 -40.5q-72 0 -124 35t-52 96q0 37 19.5 69t19.5 52q0 53 -65 53q-129 0 -129 -188q0 -76 20.5 -202t45 -242t45 -259.5t20.5 -250.5q0 -85 -12.5 -154.5t-43 -131.5t-79.5 -104.5t-125.5 -67
t-176.5 -24.5z" />
    <glyph glyph-name="approxequal" unicode="&#x2248;" horiz-adv-x="1292" 
d="M979 567q-116 0 -256.5 28.5t-275 56.5t-236.5 28q-93 0 -137 -72q-10 -16 -17 -16q-6 0 -6 31q0 82 27 150.5t88 114.5t147 46q92 0 201.5 -17.5t194 -39t187.5 -39t185 -17.5q98 0 138 72q10 16 16 16t6 -18q0 -62 -15.5 -118.5t-46 -103t-82.5 -74.5t-118 -28z
M979 193q-116 0 -256.5 28t-275 56t-236.5 28q-93 0 -137 -72q-10 -16 -17 -16q-6 0 -6 31q0 82 27 150.5t88 114.5t147 46q116 0 256.5 -28.5t275 -56.5t236.5 -28q98 0 138 72q10 17 16 17t6 -19q0 -84 -26 -155t-87 -119.5t-149 -48.5z" />
    <glyph glyph-name="notequal" unicode="&#x2260;" horiz-adv-x="919" 
d="M223 -10q-20 0 -30.5 14t-4.5 33l142 385h-248q-12 0 -21.5 9.5t-9.5 21.5v41q0 12 9.5 21t21.5 9h285l43 119h-328q-12 0 -21.5 9.5t-9.5 21.5v41q0 12 9.5 21t21.5 9h364l152 414q8 19 27 19h71q20 0 30.5 -14.5t4.5 -33.5l-141 -385h248q12 0 21 -9t9 -21v-41
q0 -12 -9 -21.5t-21 -9.5h-285l-43 -119h328q12 0 21 -9t9 -21v-41q0 -12 -9 -21.5t-21 -9.5h-365l-151 -414q-7 -18 -27 -18h-72z" />
    <glyph glyph-name="lessequal" unicode="&#x2264;" horiz-adv-x="571" 
d="M483 328q-13 0 -24 8l-408 274l408 275q11 8 24 8q15 0 26 -11.5t11 -29.5v-119q0 -13 -12 -22l-150 -101l150 -100q12 -9 12 -23v-118q0 -18 -11 -29.5t-26 -11.5zM102 162q-12 0 -21 9.5t-9 21.5v40q0 12 9 21.5t21 9.5h387q12 0 21.5 -9.5t9.5 -21.5v-40
q0 -12 -9.5 -21.5t-21.5 -9.5h-387z" />
    <glyph glyph-name="greaterequal" unicode="&#x2265;" horiz-adv-x="571" 
d="M88 328q-15 0 -26 11.5t-11 29.5v118q0 14 12 23l150 100l-150 101q-12 9 -12 22v119q0 18 11 29.5t26 11.5q14 0 25 -8l407 -275l-407 -274q-11 -8 -25 -8zM82 162q-12 0 -21.5 9.5t-9.5 21.5v40q0 12 9.5 21.5t21.5 9.5h387q12 0 21.5 -9.5t9.5 -21.5v-40
q0 -12 -9.5 -21.5t-21.5 -9.5h-387z" />
    </font>
</defs>
</svg>
