<?xml version="1.0" standalone="no"?>
<!DOCTYPE svg PUBLIC "-//W3C//DTD SVG 1.1//EN" "http://www.w3.org/Graphics/SVG/1.1/DTD/svg11.dtd" >
<svg xmlns="http://www.w3.org/2000/svg" xmlns:xlink="http://www.w3.org/1999/xlink" version="1.1">
<metadata>
Created by FontForge 20170731 at Sat May 29 01:57:15 2021
 By Aleksey,,,
Copyright 2013 The WindSong Project Authors (https://github.com/googlefonts/windsong)
</metadata>
<defs>
<font id="WindSong-Regular" horiz-adv-x="0" >
  <font-face 
    font-family="WindSong"
    font-weight="400"
    font-stretch="normal"
    units-per-em="1000"
    panose-1="0 0 0 0 0 0 0 0 0 0"
    ascent="800"
    descent="-200"
    x-height="238"
    cap-height="549"
    bbox="-708 -693.197 5550.27 869"
    underline-thickness="20"
    underline-position="-163"
    unicode-range="U+0020-FB02"
  />
<missing-glyph horiz-adv-x="495" 
d="M60 0v750h375v-750h-375zM122 63h250v625h-250v-625z" />
    <glyph glyph-name="f_f" unicode="ff" horiz-adv-x="668" 
d="M345 -444q-46 0 -65 24t-19 64q0 51 22 115t56 131t69 126q32 53 72.5 105t81.5 98q-54 -2 -106.5 -3.5t-95.5 -1.5h-29.5t-25.5 1q20 -10 28.5 -34t8.5 -57q0 -41 -12.5 -93t-34 -106.5t-50.5 -105.5t-61.5 -91.5t-66 -64.5t-65.5 -24q-43 0 -61 22t-18 57q0 32 11 70
t28 77t35 73.5t32 58.5q41 68 83 126.5t80 104.5q-6 6 -6 14t6.5 13.5t17.5 3.5l7 -2q32 37 59.5 65.5t49.5 47.5q36 32 62 46.5t42 14.5q17 0 23 -13q3 -6 3 -13q0 -13 -7.5 -23t-8.5 -7q-3 11 -15 11q-18 0 -48 -20t-56 -47q-26 -26 -64 -67q49 -5 122.5 -7.5t150.5 -4.5
q38 42 72.5 75.5t57.5 54.5q36 32 62 46.5t42 14.5q17 0 23 -13q3 -6 3 -13q0 -13 -7.5 -23t-8.5 -7q-3 11 -15 11q-18 0 -48 -20t-56 -47q-37 -29 -83 -80h55q65 0 115 1.5t72 3.5h2q2 0 2 -2q0 -6 -8 -8q-16 -1 -51.5 -3t-84 -4.5t-103.5 -5.5q32 -7 46.5 -40t14.5 -83
q0 -48 -12.5 -106.5t-35 -119.5t-53.5 -117t-68.5 -101t-80 -71.5t-87.5 -26.5zM354 -428q36 0 72 28t69.5 75.5t62 106.5t50 121t33.5 120t12 102q0 41 -12 66t-38 25h-2q-41 -48 -84 -106t-82.5 -121.5t-71 -127t-49.5 -121t-18 -104.5q0 -29 13.5 -46.5t44.5 -17.5z
M58 -347q24 0 52 25.5t57 68t55.5 94.5t47.5 107.5t33 106t12 88.5q0 31 -9.5 50.5t-30.5 21.5q-40 -46 -86 -108.5t-93 -139.5q-18 -32 -39.5 -77.5t-37 -92.5t-15.5 -83q0 -28 12 -44.5t42 -16.5z" />
    <glyph glyph-name="fi" unicode="fi" horiz-adv-x="606" 
d="M11 -444q-47 0 -66 24.5t-19 64.5q0 36 12.5 80.5t31.5 89.5t39.5 85t36.5 67q42 70 87 135.5t88 120.5h-37q-13 0 -19.5 7.5t-6.5 17.5q0 11 6.5 19.5t16.5 5.5q25 -6 71 -9q45 56 82.5 97t62.5 63q36 32 62 46.5t42 14.5q17 0 23 -13q3 -6 3 -13q0 -13 -7.5 -23
t-8.5 -7q-3 11 -15 11q-18 0 -48 -20t-56 -47q-16 -16 -41 -45.5t-57 -67.5q45 -4 94.5 -5.5t92.5 -1.5q23 0 42 0.5t35 1.5q6 2 11 2q11 0 22.5 -5t11.5 -14q0 -5 -4 -10t-8 -8q-16 -12 -44.5 -37.5t-48.5 -50.5q-41 -54 -41 -90q0 -37 41 -37q30 0 56 9.5t52 22.5
q47 23 87.5 50.5t81.5 61.5q11 9 20 15t19 16q2 1 5 1t3 -3t-4 -8q-6 -8 -25 -26.5t-47.5 -41.5t-63 -45.5t-70.5 -38.5q-19 -8 -53.5 -17t-66.5 -9q-28 0 -49 10.5t-21 38.5q0 23 11 48.5t27.5 50t33 43.5t26.5 28q-4 1 -4 5q0 9 15 22q-31 -3 -76.5 -5.5t-95.5 -4.5
t-93 -4q-47 -60 -99.5 -135t-100.5 -157q-15 -28 -33.5 -65t-34.5 -78t-26.5 -79.5t-10.5 -69.5t13 -49.5t46 -18.5q36 0 72 28t69.5 75.5t62 106.5t50 121t33.5 120t12 102q0 41 -12 66t-38 25q-2 0 -2 2q0 5 6 5q39 0 57 -34.5t18 -89.5q0 -48 -12 -106.5t-34.5 -119.5
t-53.5 -117.5t-68.5 -101.5t-80 -71.5t-88.5 -26.5z" />
    <glyph glyph-name="fl" unicode="fl" horiz-adv-x="742" 
d="M11 -444q-47 0 -66 24.5t-19 64.5q0 36 12.5 80.5t31.5 89.5t39.5 85t36.5 67q47 79 93.5 138t82.5 104q-2 2 -2 5q-7 15 -7 29q0 18 9 23.5t10 1.5q3 -20 13 -34q20 25 51 63t68 79t75 77t73.5 58.5t63.5 22.5q21 0 29.5 -7t8.5 -18q0 -13 -10 -26t-21 -16q-3 12 -16 12
q-18 0 -51 -22.5t-71.5 -57t-76 -72t-65.5 -69t-39 -47.5q32 -28 75.5 -40t83.5 -12q37 0 70 9v0.5t1 1.5q17 47 45 96t63 94t73.5 80.5t76 56.5t70.5 21q20 0 28.5 -8.5t8.5 -21.5q0 -31 -20 -65t-52 -68t-70 -65t-75.5 -57t-67.5 -44t-46 -25q-11 -28 -11 -62
q0 -40 19.5 -72.5t64.5 -32.5q30 0 66.5 12.5t73.5 30.5q43 22 83 47.5t70.5 48.5t44.5 36q4 4 6 4q1 0 1 -2q0 -9 -8 -17q-42 -42 -91.5 -79.5t-104.5 -63.5q-33 -15 -69 -23.5t-69 -8.5q-67 0 -92.5 33.5t-25.5 85.5q0 12 1 24.5t3 25.5q-21 -5 -44 -7.5t-46 -2.5
q-52 0 -96 12q0 -3 1 -4q4 -13 5.5 -29.5t1.5 -35.5q0 -45 -9.5 -101.5t-28.5 -115.5t-45 -114.5t-60 -100t-73.5 -70.5t-84.5 -26zM531 185q7 4 32 19.5t59.5 40.5t71.5 55t69.5 63t52.5 65.5t20 60.5q0 9 -9 9q-12 0 -33 -13t-45.5 -33t-47.5 -41t-38 -37
q-34 -37 -70.5 -85.5t-61.5 -103.5zM20 -428q36 0 70 27t64.5 73t55.5 102.5t43.5 116.5t28.5 115.5t10 97.5q0 16 -1.5 30t-5.5 25q-24 8 -40 21q-35 -43 -77.5 -100.5t-92.5 -143.5q-16 -28 -35.5 -66t-37 -80t-28.5 -82t-11 -71q0 -29 13 -47t44 -18z" />
    <glyph glyph-name="c_s" unicode="cs" horiz-adv-x="970" 
d="M750 -43q-43 0 -79 43.5t-49 109.5q-34 -19 -61 -32t-35 -17q-59 -26 -122.5 -45.5t-116.5 -19.5q-27 0 -49.5 6.5t-38.5 19.5q-16 14 -23 30t-7 34q0 33 19.5 66.5t49 61t59.5 41.5q29 14 54.5 20t46.5 6q25 0 41 -8.5t16 -24.5q0 -15 -15.5 -37.5t-36 -40t-34.5 -20.5
q-3 0 -3 6q0 4 4 8q6 5 17 16.5t20.5 25.5t9.5 25q0 16 -27 16q-24 0 -55.5 -14t-62 -38t-52.5 -52.5t-28 -57.5q-1 -3 -1 -6v-5q0 -24 20.5 -41t66.5 -17q47 0 105.5 15.5t119.5 40.5t117 54q-1 2 -1 7q-2 2 -4 8q-3 8 -3 14q0 15 11 15q7 0 14 -10l12 -18q42 23 76.5 45
t56.5 41q5 29 22 61t44.5 54.5t63.5 22.5q11 0 11 -9q0 -8 -9.5 -19t-26.5 -19q-19 -8 -39 -24t-33.5 -38t-13.5 -51q0 -26 5 -57.5t11.5 -59t8.5 -42.5q1 -5 1 -10v-10q11 -2 22.5 -3t22.5 -1q54 0 108 23q75 33 158 98l63 49q2 1 5 1t3 -2q0 -3 -6 -9q-34 -34 -79 -70.5
t-93 -65.5q-36 -22 -76 -32.5t-81 -10.5q-12 0 -24.5 1t-24.5 3q-4 -21 -22 -36t-53 -15zM791 35q2 11 2.5 20.5t0.5 15.5q0 26 -6.5 65t-6.5 74q-18 -16 -51.5 -37.5t-71.5 -42.5q57 -70 133 -95zM747 -14q16 0 25.5 9.5t13.5 22.5q-39 11 -75.5 33t-67.5 54
q7 -43 26.5 -74.5t62.5 -42.5q4 -1 7.5 -1.5t7.5 -0.5z" />
    <glyph glyph-name="d_s" unicode="ds" horiz-adv-x="1162" 
d="M942 -43q-43 0 -79 43.5t-49 109.5q-34 -19 -61 -32t-35 -17q-43 -19 -88.5 -36.5t-89 -28.5t-80.5 -11q-40 0 -56 19.5t-16 47.5q0 29 12 61.5t28 57.5q-2 -1 -17 -17t-38 -39t-49.5 -46t-53 -40t-46.5 -20q-3 -1 -9 -1q-13 0 -24.5 6.5t-19.5 16.5q-8 8 -11.5 19
t-3.5 22q0 28 18 59.5t45.5 61.5t59 53.5t58.5 35.5q23 9 46 9q32 0 57 -17q10 -7 16 -15.5t7 -20.5v-1q0 -12 -8 -12q-5 0 -8 7q-5 12 -15 24.5t-33 12.5q-31 0 -66.5 -21t-68 -53t-54.5 -66.5t-26 -61.5q-1 -4 -1 -8v-8q0 -27 19 -27q9 0 20.5 4.5t21.5 11.5
q57 35 111 80.5t101 95.5q53 56 99.5 111t109.5 103q13 10 24 10q14 0 25.5 -18t11.5 -33q0 -6 -3 -11q-4 -5 -7 -5q-2 0 -2.5 3t-1.5 6q-1 8 -11 8t-22.5 -6.5t-17.5 -9.5q-61 -43 -120 -111q-13 -16 -26 -31.5t-25 -31.5q-9 -12 -25 -38.5t-28.5 -57t-12.5 -54.5
q0 -18 10 -30t35 -12q47 0 105.5 16.5t120 42.5t117.5 56q-1 2 -1 5v5q-2 2 -4 8q-3 8 -3 14q0 15 11 15q7 0 14 -10l13 -20q42 24 76 46.5t56 41.5q5 29 22 61t44.5 54.5t63.5 22.5q11 0 11 -9q0 -8 -9.5 -19t-26.5 -19q-19 -8 -39 -24t-33.5 -38t-13.5 -51q0 -26 5 -57.5
t11.5 -59t8.5 -42.5q1 -5 1 -10v-10q11 -2 22.5 -3t22.5 -1q54 0 108 23q75 33 158 98l63 49q2 1 5 1t3 -2q0 -3 -6 -9q-34 -34 -79 -70.5t-93 -65.5q-36 -22 -76 -32.5t-81 -10.5q-12 0 -24.5 1t-24.5 3q-4 -21 -22 -36t-53 -15zM983 35q2 11 2.5 20.5t0.5 15.5
q0 26 -6.5 65t-6.5 74q-18 -16 -51.5 -37.5t-71.5 -42.5q57 -70 133 -95zM939 -14q16 0 25.5 9.5t13.5 22.5q-39 11 -75.5 33t-67.5 54q7 -43 26.5 -74.5t62.5 -42.5q4 -1 7.5 -1.5t7.5 -0.5z" />
    <glyph glyph-name="e_s" unicode="es" horiz-adv-x="970" 
d="M750 -43q-43 0 -79 43.5t-49 109.5q-34 -19 -61 -32t-35 -17q-59 -26 -122.5 -45.5t-116.5 -19.5q-26 0 -47.5 6t-38.5 19q-17 14 -24.5 31t-7.5 35q0 35 22 70.5t55.5 66t65.5 48.5q11 7 28.5 10.5t33.5 3.5h11.5t9.5 -2q25 -7 36.5 -21t11.5 -31q0 -19 -13.5 -38.5
t-38.5 -31.5q-27 -13 -56.5 -21t-58.5 -8q-7 0 -15 0.5t-16 1.5q-4 2 -2.5 4.5t2.5 3.5q29 0 68.5 10.5t67.5 32.5q39 30 39 55q0 19 -24 19q-19 0 -46 -13q-25 -12 -51.5 -32.5t-50 -45t-38 -50.5t-14.5 -48t18.5 -38.5t63.5 -16.5q47 0 105.5 15.5t119.5 40.5t117 54
q-1 2 -1 7q-2 2 -4 8q-3 8 -3 14q0 15 11 15q7 0 14 -10l12 -18q42 23 76.5 45t56.5 41q5 29 22 61t44.5 54.5t63.5 22.5q11 0 11 -9q0 -8 -9.5 -19t-26.5 -19q-19 -8 -39 -24t-33.5 -38t-13.5 -51q0 -26 5 -57.5t11.5 -59t8.5 -42.5q1 -5 1 -10v-10q11 -2 22.5 -3t22.5 -1
q54 0 108 23q75 33 158 98l63 49q2 1 5 1t3 -2q0 -3 -6 -9q-34 -34 -79 -70.5t-93 -65.5q-36 -22 -76 -32.5t-81 -10.5q-12 0 -24.5 1t-24.5 3q-4 -21 -22 -36t-53 -15zM791 35q2 11 2.5 20.5t0.5 15.5q0 26 -6.5 65t-6.5 74q-18 -16 -51.5 -37.5t-71.5 -42.5
q57 -70 133 -95zM747 -14q16 0 25.5 9.5t13.5 22.5q-39 11 -75.5 33t-67.5 54q7 -43 26.5 -74.5t62.5 -42.5q4 -1 7.5 -1.5t7.5 -0.5z" />
    <glyph glyph-name="g_s" unicode="gs" horiz-adv-x="1008" 
d="M-123 -494q-28 0 -56 8t-46.5 26.5t-18.5 49.5q0 41 31 88t95 88q76 50 161 84.5t172.5 62t169.5 54.5q21 39 34 82.5t13 74.5q0 24 -9 36q-9 -6 -12 -12q-14 -15 -38.5 -40t-55 -51t-61.5 -44t-58 -18q-13 0 -25.5 6t-21.5 19q-11 16 -11 36q0 29 18.5 63t47 66t61 56
t60.5 34q9 3 19.5 5t22.5 2q28 0 53.5 -12t29.5 -43v-3q0 -7 -3.5 -11.5t-6.5 -4.5q-5 0 -5 8q0 5 -2.5 14.5t-11.5 17.5t-27 8q-31 0 -68.5 -21.5t-72.5 -54.5t-59 -68t-28 -62q-1 -4 -1 -7v-6q0 -29 22 -29q16 0 37.5 12.5t41 27.5t27.5 22q27 23 56.5 48.5t57.5 50.5
q-3 1 -3 8t8.5 14t28.5 7q37 0 37 -57q0 -28 -10.5 -68t-32.5 -88q59 21 117.5 49.5t107.5 59.5q-4 20 -6 39q-2 2 -4 8q-3 8 -3 14q0 15 11 15q7 0 14 -10l14 -20t14 -18q12 8 22.5 17t19.5 18l24 21t31.5 26t18.5 12q2 29 18.5 64t45.5 60.5t67 25.5q11 0 11 -9
q0 -8 -9.5 -19t-26.5 -19q-19 -8 -39 -24t-33.5 -38t-13.5 -51q0 -26 5 -57.5t11.5 -59t8.5 -42.5q1 -5 1 -10v-10q11 -2 22.5 -3t22.5 -1q54 0 108 23q75 33 158 98l63 49q2 1 5 1t3 -2q0 -3 -6 -9q-34 -34 -79 -70.5t-93 -65.5q-14 -9 -29.5 -16t-31.5 -12
q-46 -15 -95 -15q-12 0 -24.5 1t-25.5 3q-5 -21 -23 -36t-53 -15q-37 0 -69 32.5t-49 84.5q-54 -34 -115.5 -63t-128.5 -53q-31 -61 -76 -124.5t-101 -122t-117.5 -105t-126 -73.5t-126.5 -27zM828 35q2 11 2.5 20.5t0.5 15.5q0 26 -6.5 65t-6.5 74q-2 -6 -10.5 -17
t-27.5 -30q-15 -15 -31 -28.5t-33 -27.5q49 -50 112 -72zM784 -14q16 0 25 9t14 22q-72 21 -129 74l-10 -6q8 -36 28 -61.5t57 -35.5q5 -1 8.5 -1.5t6.5 -0.5zM-131 -478q60 1 119.5 28t115.5 72t106 99.5t91 111t69 106.5q-81 -28 -164 -54.5t-160 -59t-142 -78.5
q-66 -46 -95 -87.5t-29 -72.5q0 -30 24 -47.5t65 -17.5z" />
    <glyph glyph-name="o_r" unicode="or" horiz-adv-x="905" 
d="M188 -18q-36 0 -51.5 19t-15.5 43q0 8 1 15.5t4 14.5q8 24 25 49t39 44t43 23q4 1 14.5 -3.5t20 -10t9.5 -7.5q2 -2 2.5 -7.5t-6.5 -0.5q-9 6 -27.5 -6t-37 -30.5t-29.5 -30.5q-11 -15 -20.5 -33.5t-9.5 -33.5q0 -12 8 -19.5t28 -7.5q5 0 10.5 0.5t12.5 1.5
q20 4 49.5 18.5t62 37.5t60.5 49q17 15 31 32.5t24 37.5q-55 1 -111 10t-86 25q-13 8 -19 16t-6 15t4.5 11.5t9.5 4.5t9 -3t7.5 -6t7.5 -5q38 22 75 30.5t64 8.5q31 0 55 -13t28 -45q2 -14 0 -26q6 -1 14 -1h16q40 0 94 8t100 27q-1 1 -1 3l-4 15q-1 4 -1 8.5v8.5
q0 14 13.5 35.5t34.5 43.5t44.5 37t42.5 15q9 0 8.5 -7t-0.5 -9q-1 -3 -14 -14.5t-32 -28.5t-37 -35.5t-30.5 -36.5t-12.5 -31q0 -10 11 -16.5t37 -6.5q17 0 35.5 6.5t33 12.5t19.5 6q11 0 22.5 -6.5t11.5 -17.5q0 -5 -4 -10t-8 -8q-16 -12 -43.5 -34t-51.5 -47
q-48 -49 -48 -79q0 -17 15.5 -26.5t40.5 -9.5q39 0 96 21q53 20 106 55t96 71q11 9 20 15t19 16q2 1 4 1q3 0 3 -3t-3 -8q-6 -8 -29 -29.5t-57 -48t-73.5 -51t-79.5 -38.5q-18 -6 -45 -12t-53 -6q-31 0 -54 12.5t-23 45.5q0 28 13 54t31.5 48t35 37.5t23.5 22.5
q-22 -9 -47 -9q-17 0 -32 5.5t-25 18.5q-55 -26 -115 -36.5t-122 -8.5q-12 -41 -43.5 -76t-73 -61.5t-85 -41t-78.5 -14.5zM446 201q4 11 4 23q0 17 -13 29t-45 13q-34 0 -65 -8t-57 -22q38 -17 84 -25t92 -10z" />
    <glyph glyph-name="o_s" unicode="os" horiz-adv-x="924" 
d="M739 -24q-19 0 -45.5 11t-46.5 42q-13 24 -17.5 51.5t-3.5 61.5v3q0 18 8 18q6 0 10 -10q18 -46 51.5 -77t74.5 -45q11 20 11 53q0 23 -6 57t-6 69q0 12 3 27l-8 -4q-16 -8 -43.5 -16.5t-60.5 -16.5t-65 -13.5t-57 -6.5q-15 -1 -30.5 -1.5t-32.5 -0.5q-16 -41 -53.5 -77
t-84 -63t-93 -42t-81.5 -15q-30 1 -43.5 16.5t-13.5 36.5q0 22 11 42q11 23 32 48t46 44t47 23q4 1 13.5 -3.5t18.5 -9.5t9 -7q1 -2 1 -7.5t-6 -0.5q-7 5 -20.5 -1.5t-29.5 -19t-30.5 -25.5t-23.5 -22q-15 -16 -28 -36.5t-13 -36.5q0 -22 30 -22q11 0 26 3q22 4 57 21
t73.5 41.5t72 54t52.5 59.5q-18 1 -54 5t-65 8q-16 2 -31.5 5t-29.5 6q-4 -3 -8 -3q-7 0 -9 8q-13 5 -22 11q-7 4 -7 10q0 10 15 18t25 6q6 -1 13 -7v0.5t1 0.5q19 11 45 19.5t52.5 13.5t45.5 5q30 0 51 -13t21 -45q-1 -7 -1.5 -13.5t-2.5 -13.5q6 -1 12 -1h13q42 0 92 7
t95 18.5t70 24.5q3 2 6 2.5t5 1.5q9 27 26 53t42 43t56 17q11 0 11 -9q0 -8 -9.5 -19t-26.5 -19q-19 -8 -39 -24t-33.5 -38t-13.5 -51q0 -26 4.5 -54.5t10.5 -52.5t8 -38q1 -3 1 -6.5v-6.5q0 -15 -4 -27q7 -1 14 -1.5t14 -0.5q45 0 87 19q38 16 75 41.5t76 54.5l67 52
q2 1 5 1t3 -2q0 -3 -6 -9q-46 -45 -102 -90t-118 -71q-23 -7 -47 -12t-48 -5q-7 0 -15 0.5t-16 1.5q-9 -10 -24 -17t-35 -7zM456 201q8 18 8 32q0 22 -14.5 31t-36.5 9q-35 0 -64.5 -12t-55.5 -32q7 -4 16 -8t20 -6q31 -5 63.5 -8.5t63.5 -5.5zM725 1q16 0 30 11
q-37 15 -66.5 41t-49.5 56q2 -22 6 -40t17 -34q31 -34 63 -34z" />
    <glyph glyph-name="y_l" unicode="yl" horiz-adv-x="912" 
d="M-119 -494q-29 0 -58 7.5t-48 26t-19 50.5v8t1 8q9 52 49.5 97.5t100.5 84.5t129 71.5t133 57.5q59 25 119 49.5t120 49.5q11 29 17.5 56.5t6.5 49.5q0 30 -13 42l-3 -3q-11 -10 -28.5 -30.5t-39 -43t-45.5 -42.5q-27 -22 -54 -36t-50 -14q-14 0 -26.5 6t-21.5 19
q-10 14 -10 33q0 32 23.5 69t57.5 71q3 4 11.5 11.5t14.5 11.5q-4 3 4 15t21.5 22t23.5 4q9 -5 15.5 -10.5t6.5 -11.5t-9 -15l-21 -20q-26 -25 -53 -53t-46 -53t-22 -44q-1 -4 -1 -7v-6q0 -29 22 -29q16 0 37.5 12.5t41 27.5t27.5 22q29 24 56.5 51t54.5 52q-1 6 6 15.5
t31 9.5q37 0 37 -57q0 -41 -21 -101q47 23 99.5 54t101.5 63q5 17 11.5 33t13.5 32q24 51 60.5 103.5t79 96t86 70t80.5 26.5q21 0 29.5 -9t8.5 -23q0 -11 -4.5 -23t-10.5 -22q-30 -54 -82.5 -105.5t-114.5 -95.5t-124 -77q-5 -13 -7.5 -28t-2.5 -30q0 -41 20.5 -74.5
t66.5 -33.5q30 0 66.5 12.5t73.5 30.5q43 22 83 47.5t70.5 48.5t44.5 36q4 4 6 4q1 0 1 -2q0 -9 -8 -17q-42 -42 -91.5 -79.5t-104.5 -63.5q-33 -15 -69 -23.5t-69 -8.5q-51 0 -86.5 25t-36.5 86q0 18 3 36q-52 -34 -102 -61.5t-100 -50.5q-3 -8 -6.5 -16t-7.5 -17
q-28 -61 -72.5 -127t-101 -128t-120 -112.5t-130.5 -80t-132 -30.5zM700 185q39 24 84.5 56t89 70t80 82t57.5 93q0 13 -12 13t-33 -12t-45.5 -30.5t-47.5 -39t-38 -37.5q-34 -37 -70 -80t-65 -115zM-134 -478q62 0 124 29t121 76.5t110 105.5t92 116.5t68 108.5l18 36
q-60 -25 -118 -48.5t-114 -49.5q-69 -31 -139.5 -69t-132.5 -82q-64 -45 -92 -85t-28 -70q0 -31 25.5 -49.5t65.5 -18.5z" />
    <glyph glyph-name="y_p" unicode="yp" horiz-adv-x="1119" 
d="M-127 -495q-30 0 -56.5 9.5t-43.5 28t-17 43.5q0 47 25 86.5t65 72.5t87.5 59t93.5 47t81 37q23 11 57.5 23t75 24t80 23.5t71.5 20.5q11 20 21 47t16 55t6 49q0 29 -12 37l-6 -6q-15 -14 -41 -41t-57.5 -55.5t-64 -48t-59.5 -19.5q-26 0 -43 23q-10 14 -10 33
q0 32 23.5 69t57.5 71q2 3 11 13t18.5 20t13.5 13q-4 3 4 15t21.5 22t23.5 4q9 -5 15.5 -10.5t6.5 -11.5t-9 -15l-21 -20q-19 -19 -42.5 -43t-44.5 -48.5t-35 -46t-16 -35.5q-1 -4 -1 -7v-6q0 -29 22 -29q16 0 37.5 12.5t41 27.5t27.5 22q30 26 58.5 54t56.5 53
q-1 6 4.5 12.5t21.5 8.5q21 2 32.5 -15t11.5 -49q0 -26 -8.5 -60.5t-27.5 -73.5q53 19 113 46.5t115 60.5t93 68l7 7q3 2 5.5 5t4.5 5l20 20l8 7l5 4q12 11 28 23t32 22l-9 10q-5 5 -14.5 11t-21.5 6q-8 0 -18 -5h-1q-4 0 -4 7q0 5 4 10.5t12 6.5q24 2 44.5 -6.5t36.5 -22.5
q14 6 24 6h7q8 -2 8 -4t-7 -5.5t-18 -10.5q23 -25 37.5 -59.5t22 -70.5t7.5 -66q0 -36 -11 -64q7 -1 13.5 -1.5t13.5 -0.5q49 0 104 23q75 33 158 98l63 49q2 1 5 1t3 -2q0 -3 -6 -9q-34 -34 -79 -70.5t-93 -65.5q-9 -5 -18.5 -10t-19.5 -9q-31 -12 -62 -17.5t-63 -5.5h-14
t-14 1q-23 -36 -66 -36q-32 0 -61 17.5t-49.5 48t-26.5 70.5q-1 1 -1 2.5t-1 2.5q-4 8 -3 15q-31 -40 -64 -89t-60.5 -104t-43.5 -113.5t-13 -116.5q0 -8 4 -24t11.5 -28.5t19.5 -12.5q15 0 15 -7q0 -10 -12 -10q-3 0 -16.5 7t-28.5 17.5t-22 20.5q-7 11 -9.5 29.5
t-2.5 25.5q-1 72 25.5 144t67 138t80.5 118q-55 -40 -126 -76.5t-150 -59.5q-50 -98 -116 -182.5t-141 -148.5t-152.5 -99.5t-150.5 -35.5zM936 18q6 14 7.5 30t1.5 25q0 18 -5 48t-17 64.5t-35 66.5q-21 -16 -48.5 -44.5t-57.5 -64.5l-10 -12q6 0 10 -5q32 -40 71 -68
t83 -40zM894 -13q17 0 29 12q-37 8 -72.5 26t-64.5 45q8 -32 29 -51t64 -30q4 -1 7.5 -1.5t7.5 -0.5zM-145 -473q43 0 100.5 21t117 58t108.5 86q23 23 53.5 58.5t61 74.5t54 74t33.5 56q-73 -17 -154 -46t-159 -66.5t-142 -80t-103.5 -86t-43.5 -84.5q-2 -34 18.5 -49.5
t55.5 -15.5z" />
    <glyph glyph-name="y_r" unicode="yr" horiz-adv-x="996" 
d="M-127 -495q-30 0 -56.5 9.5t-43.5 28t-17 43.5q0 47 25 86.5t65 72.5t87.5 59t93.5 47t81 37q23 11 57.5 23t75 24t80 23.5t71.5 20.5q11 20 21 47t16 55t6 49q0 29 -12 37l-6 -6q-15 -14 -41 -41t-57.5 -55.5t-64 -48t-59.5 -19.5q-26 0 -43 23q-10 14 -10 33
q0 32 23.5 69t57.5 71q2 3 11 13t18.5 20t13.5 13q-4 3 4 15t21.5 22t23.5 4q9 -5 15.5 -10.5t6.5 -11.5t-9 -15l-21 -20q-19 -19 -42.5 -43t-44.5 -48.5t-35 -46t-16 -35.5q-1 -4 -1 -7v-6q0 -29 22 -29q16 0 37.5 12.5t41 27.5t27.5 22q30 26 58.5 54t56.5 53
q-1 6 4.5 12.5t21.5 8.5q21 2 32.5 -15t11.5 -49q0 -26 -8.5 -60.5t-27.5 -73.5q74 32 140 72t123 92q9 8 25 25t25 23q-10 8 -16 22.5t-6 34.5q0 14 13.5 35.5t34.5 43.5t44.5 37t42.5 15q9 0 8.5 -7t-0.5 -9q-1 -3 -14 -14.5t-32 -28.5t-37 -35.5t-30.5 -36.5t-12.5 -31
q0 -10 11 -16.5t37 -6.5q17 0 35.5 6.5t33 12.5t19.5 6q11 0 22.5 -6.5t11.5 -17.5q0 -5 -4 -10t-8 -8q-16 -12 -43.5 -34t-51.5 -47q-48 -49 -48 -79q0 -17 15.5 -26.5t40.5 -9.5q39 0 96 21q53 20 106 55t96 71q11 9 20 15t19 16q2 1 4 1q3 0 3 -3t-3 -8q-6 -8 -29 -29.5
t-57 -48t-73.5 -51t-79.5 -38.5q-18 -6 -45 -12t-53 -6q-31 0 -54 12.5t-23 45.5q0 28 13 54t31.5 48t35 37.5t23.5 22.5q-25 -10 -47 -10q-24 0 -42 12q-2 -6 -11 -17t-28 -30q-55 -56 -126 -100.5t-167 -83.5q-50 -98 -116 -183.5t-141 -150t-152.5 -101t-150.5 -36.5z
M-145 -473q43 0 100.5 21t117 58t108.5 86q23 23 53.5 58.5t61 74.5t54 74t33.5 56q-73 -17 -154 -46t-159 -66.5t-142 -80t-103.5 -86t-43.5 -84.5q-2 -34 18.5 -49.5t55.5 -15.5z" />
    <glyph glyph-name=".notdef" horiz-adv-x="495" 
d="M60 0v750h375v-750h-375zM122 63h250v625h-250v-625z" />
    <glyph glyph-name=".null" 
 />
    <glyph glyph-name="nonmarkingreturn" horiz-adv-x="333" 
 />
    <glyph glyph-name="space" unicode=" " horiz-adv-x="350" 
 />
    <glyph glyph-name="exclam" unicode="!" horiz-adv-x="374" 
d="M281 154q-6 0 -6 6q0 2 10.5 25t27 58.5t36 75.5t37 75t30.5 58t16 24q7 2 24.5 -2.5t18.5 -12.5q-50 -70 -95 -144.5t-86 -151.5q-5 -11 -13 -11zM220 -10q-20 0 -20 21q0 8 3 15q5 14 21.5 19t29.5 3q9 -1 9 -12q0 -9 -6 -21t-16.5 -18.5t-20.5 -6.5z" />
    <glyph glyph-name="quotedbl" unicode="&#x22;" horiz-adv-x="358" 
d="M254 361q-1 0 -1 1q0 2 3 7t10 15q22 27 41.5 56t31.5 49q5 3 11 3q10 0 19 -4.5t7 -8.5q-10 -12 -26.5 -30.5t-34.5 -37t-33 -31.5q-6 -6 -15 -12.5t-13 -6.5zM149 361q-1 0 -1 1q0 2 3 7t10 15q22 27 41.5 56t31.5 49q5 3 11 3q10 0 19 -4.5t7 -8.5
q-10 -12 -26.5 -30.5t-34.5 -37t-33 -31.5q-6 -6 -15 -12.5t-13 -6.5z" />
    <glyph glyph-name="numbersign" unicode="#" horiz-adv-x="769" 
d="M300 -81q-13 0 -18 9q-1 4 0.5 17t5.5 33q15 78 53 172q-31 -1 -60.5 -1h-58.5q-22 0 -22 9q0 5 13 9.5t44 5.5q18 0 42 0.5t52 0.5q24 59 57 123q-33 -1 -65 -1h-63q-23 0 -23 9q0 5 13 9.5t44 5.5q20 0 48 0.5t59 0.5q11 21 23 42.5t25 43.5q8 16 22.5 39t34.5 52
q6 4 13 3h4q15 0 17 -10v-5l-52 -80q-28 -43 -51 -84q40 0 79.5 0.5t74.5 0.5q11 20 22.5 41t24.5 43q8 16 22.5 39t34.5 52q6 4 13 3h4q15 0 17 -10v-5l-52 -80q-14 -22 -26.5 -42.5t-24.5 -40.5q23 0 42 -0.5t30 -0.5q24 0 34 -2.5t10 -4.5q0 -3 -12.5 -5.5t-31.5 -2.5
l-83 -3q-19 -34 -35 -66t-30 -62q29 0 53.5 -0.5t37.5 -0.5q44 -1 44 -7q0 -3 -13 -5.5t-31 -3.5l-100 -3q-22 -51 -36 -95t-22 -81q-1 -6 -3 -20t-4 -35q0 -6 -7 -6q-13 0 -18 9q-1 4 0.5 17t5.5 33q8 41 22 85t33 92l-162 -4q-21 -49 -34.5 -92t-21.5 -79q-1 -6 -3 -20
t-4 -35q0 -6 -7 -6zM380 175q40 0 81.5 0.5t78.5 0.5q13 30 28 61.5t32 65.5q-38 -1 -77.5 -2.5t-79.5 -2.5q-19 -33 -34 -63.5t-29 -59.5z" />
    <glyph glyph-name="dollar" unicode="$" horiz-adv-x="494" 
d="M170 -73q-7 0 -7 4q0 17 43 94q-30 9 -52 39t-22 64q0 23 9 23q8 0 10 -19q3 -27 22 -53.5t43 -30.5q23 40 53.5 86t64.5 92q-36 29 -54.5 60t-18.5 56q0 30 32 62.5t90 53.5q40 15 83.5 19t77.5 2q23 23 39.5 38t21.5 15q21 -3 14 -22q-2 -4 -12 -14l-24 -24
q16 -5 24.5 -19t8.5 -29q0 -10 -5 -22q-13 -28 -37 -40.5t-35 -12.5q-7 0 -7 3t6 7q41 32 44 49q2 6 2 9q0 22 -30 29q-47 -50 -97.5 -107t-86.5 -105q12 -13 29 -31t29.5 -38.5t12.5 -42.5q0 -4 -0.5 -7t-1.5 -7q-10 -33 -42.5 -55t-71 -32t-68.5 -7q-8 2 -15.5 3t-14.5 2
q-10 -16 -16.5 -29.5t-11.5 -26.5q-4 -10 -9.5 -23t-19.5 -13zM352 251q38 53 79.5 103t84.5 94q-56 3 -115 -15q-77 -25 -93 -73q-1 -4 -1.5 -7.5t-0.5 -7.5q0 -19 11.5 -43.5t34.5 -50.5zM260 43q28 0 63 7t63 23.5t33 42.5q1 3 1 9q0 19 -18.5 39.5t-49.5 45.5
q-67 -82 -112 -166q5 -1 9.5 -1h10.5z" />
    <glyph glyph-name="percent" unicode="%" horiz-adv-x="500" 
d="M143 -28q-2 -4 -8.5 -4t-3.5 5q21 57 64.5 113.5t99 110.5t108.5 105l28 24q-25 -4 -55.5 -7t-62.5 -2q-10 -31 -38 -54.5t-62.5 -36.5t-66.5 -13q-18 0 -26.5 9.5t-8.5 22.5q0 12 12 30t29 33t32 18q3 0 13 -4.5t10 -6.5q8 -4 5.5 -8t-5.5 -1q-4 3 -14.5 -3t-20.5 -15
t-16 -15q-7 -7 -13.5 -17.5t-6.5 -18.5q0 -11 16 -11h5t6 1q14 3 40 17t51.5 34t39.5 40q-33 2 -62 9t-49 19q-4 3 -4 6q0 5 6.5 8t11.5 2l8 -3q17 9 38.5 14t36.5 5q16 -1 27 -8t11 -24q0 -7 -1 -11q11 -1 22.5 -1.5t22.5 -0.5q24 0 46.5 3t44.5 10l20 16q3 3 10 3h4
q8 0 16 -2t8 -6q-1 -1 -2 -1.5t-2 -2.5q-10 -8 -25.5 -22.5t-36.5 -32.5q-51 -45 -109.5 -99t-110 -111.5t-82.5 -115.5zM303 337q1 3 1.5 6t0.5 6q0 12 -8 17t-19 5q-17 0 -29.5 -5.5t-20.5 -13.5q17 -4 36.5 -8.5t38.5 -6.5zM336 -18q-18 0 -26 9.5t-8 21.5t11.5 30.5
t28.5 33.5t32 18q4 0 13.5 -4.5t9.5 -6.5q8 -4 5.5 -8t-4.5 -1q-5 3 -15 -3t-20 -15t-16 -16q-7 -7 -13.5 -17t-6.5 -18q0 -11 16 -11h5t6 1q14 2 37 14.5t47.5 30.5t41 38t16.5 38q0 11 -8 17t-20 6q-24 0 -38 -14t-30 -29q-4 -4 -8 -4q-11 0 -11 15q0 11 10 17
q17 10 40.5 15.5t39.5 5.5t26.5 -7.5t10.5 -24.5q0 -28 -16.5 -52.5t-42.5 -42t-56 -27.5t-57 -10z" />
    <glyph glyph-name="ampersand" unicode="&#x26;" horiz-adv-x="672" 
d="M268 -37q-34 0 -63.5 9t-47 31t-17.5 59q0 36 24 71.5t58.5 63.5t65.5 40h1q-18 11 -34.5 30.5t-16.5 53.5q0 37 23 69t60.5 57.5t80.5 43.5t83 27q56 14 118 14q41 0 77.5 -8t59.5 -24.5t23 -44.5q0 -19 -15.5 -38.5t-39.5 -36.5t-50.5 -29t-48.5 -16q-5 -1 -9.5 -1.5
t-8.5 -0.5q-14 0 -14 5q0 6 15 9q21 5 47 15t50 24.5t39.5 30.5t15.5 33q0 31 -30.5 42.5t-72.5 11.5q-33 0 -69 -5t-65 -13q-81 -19 -129 -44t-71.5 -51.5t-31 -50t-7.5 -40.5q0 -23 10 -36.5t26 -20.5q14 5 25.5 6.5t19.5 1.5q22 0 22 -11q0 -7 -12.5 -17t-39.5 -19
q-32 -11 -63.5 -38.5t-52 -61t-20.5 -62.5q0 -25 21 -42.5t71 -17.5q35 0 77 10t84 29.5t77 46t56 60t21 71.5v13.5t-2 13.5q0 1 -0.5 1.5l-0.5 0.5q0 5 6 5q5 0 8 -6q8 -15 8 -37q0 -34 -18 -67t-48.5 -61t-67.5 -48q-21 -11 -55.5 -23t-74 -20t-77.5 -8zM374 102
q-5 0 -5 10q0 48 21.5 81.5t72.5 52.5q43 15 97.5 21t112 11t109 16.5t88.5 36.5q15 12 15 20q0 5 -2 10.5t-10 9.5q-1 1 -7.5 4t-9 6t6.5 3q15 0 31 -13t16 -30q0 -25 -29 -44.5t-100 -30.5q-35 -6 -79 -11t-90 -12t-87 -16t-69 -23q-33 -16 -55 -41.5t-22 -52.5
q0 -8 -5 -8z" />
    <glyph glyph-name="quotesingle" unicode="'" horiz-adv-x="65" 
d="M149 361q-1 0 -1 1q0 2 3 7t10 15q22 27 41.5 56t31.5 49q5 3 11 3q10 0 19 -4.5t7 -8.5q-10 -12 -26.5 -30.5t-34.5 -37t-33 -31.5q-6 -6 -15 -12.5t-13 -6.5z" />
    <glyph glyph-name="parenleft" unicode="(" horiz-adv-x="318" 
d="M245 -136q-27 11 -47.5 59.5t-20.5 118.5q0 23 2.5 47.5t8.5 49.5q9 42 36.5 93t69 103t93 96t109.5 73t119 33h1q4 0 7.5 -2t3.5 -5q0 -4 -11 -7q-47 -9 -96 -38.5t-95.5 -72.5t-85.5 -93.5t-66 -103t-37 -100.5q-7 -37 -11.5 -68.5t-4.5 -58.5q0 -32 6 -58.5t17 -50.5
q1 -3 6 -10.5t-4 -4.5z" />
    <glyph glyph-name="parenright" unicode=")" horiz-adv-x="370" 
d="M-8 -139q-4 0 -7.5 2t-3.5 5q0 4 11 7q47 9 96 38.5t95.5 72.5t85.5 93.5t66 103t37 100.5q8 38 12 69t4 58q0 32 -6 58.5t-17 50.5q-1 3 -6 10.5t4 4.5q27 -10 47.5 -58.5t20.5 -119.5q0 -22 -2.5 -46.5t-8.5 -50.5q-9 -42 -36.5 -93t-69 -103t-93 -96t-109.5 -72.5
t-119 -33.5h-1z" />
    <glyph glyph-name="asterisk" unicode="*" horiz-adv-x="500" 
d="M276 293q-4 0 -6 4t1 8l94 131l-142 12q-7 0 -7 7t8 9l150 11l-32 133q-3 7 4 9q7 5 10 -3l55 -120l112 121q3 3 7 3t6 -3.5t-1 -8.5l-94 -131l142 -11q7 -2 7 -8q0 -2 -2 -5t-7 -3l-149 -12l32 -132q0 -1 0.5 -1.5l0.5 -0.5q0 -5 -5 -8q-8 -2 -10 4l-56 119l-111 -121
q-3 -3 -7 -3z" />
    <glyph glyph-name="plus" unicode="+" horiz-adv-x="377" 
d="M247 10q-2 0 -2 6t1.5 15t2.5 14q1 6 6 23t11.5 38t13 39.5t10.5 27.5q-8 0 -26 -2t-36 -3.5t-27 -1.5q-5 0 -13 8q-8 10 -8 15q1 1 2 1.5l1 0.5q14 2 27 3.5t34 2.5t55 1q10 26 16 43t12.5 34.5t16.5 44.5q2 5 11.5 9.5t17.5 4.5q11 0 11 -9l-9.5 -28.5t-12.5 -35
t-25 -63.5q56 -1 81 -4t44 -8q4 -1 4 -3q-2 -5 -11 -5q-27 0 -54 -1t-74 -3q-22 -47 -34 -73t-17 -38t-7 -17t-5 -10.5t-10 -19.5q0 -1 -3 -3.5t-4 -2.5z" />
    <glyph glyph-name="comma" unicode="," horiz-adv-x="306" 
d="M204 -92q-4 0 -4 3t9 12q6 6 20 25.5t20 40.5q-10 0 -17 8.5t-7 18.5q0 16 12 25.5t28 9.5q26 0 26 -21q0 -13 -9 -31q-11 -24 -28 -51t-42 -38q-6 -2 -8 -2z" />
    <glyph glyph-name="hyphen" unicode="-" horiz-adv-x="512" 
d="M223 168q-10 0 -10 7q0 5 7.5 10.5t23.5 9.5q12 2 36.5 3.5t44.5 1.5q11 0 23 0.5t26 0.5q17 0 36.5 -1.5t41.5 -6.5q23 -6 23 -9q0 -2 -6.5 -3.5t-16.5 -2.5q-52 -3 -112.5 -6.5t-116.5 -3.5z" />
    <glyph glyph-name="period" unicode="." horiz-adv-x="315" 
d="M251 -10q-20 0 -20 21q0 8 3 15q5 14 21.5 19t29.5 3q9 -1 9 -12q0 -9 -6 -21t-16.5 -18.5t-20.5 -6.5z" />
    <glyph glyph-name="slash" unicode="/" horiz-adv-x="449" 
d="M129 -34q-4 0 -9.5 3t-4.5 7q2 9 30 46q123 169 390 386q17 14 42.5 34t60.5 45q8 5 15 3q20 0 17 -13q0 -1 -3 -4l-92 -70q-152 -118 -250 -213.5t-152 -167.5q-4 -6 -13 -18.5t-21 -32.5q-3 -5 -10 -5z" />
    <glyph glyph-name="zero" unicode="0" horiz-adv-x="590" 
d="M262 -50q-31 1 -59.5 14.5t-45.5 35.5q-25 36 -25 84q0 10 1 20.5t3 21.5q14 64 48 119t88 104q29 23 66.5 44t83.5 40q43 20 82 27.5t68 7.5q35 0 34 -7q-1 -3 -4 -3.5t-6 -1.5q-68 -7 -137.5 -36.5t-130.5 -77t-104 -109.5t-58 -136q-3 -13 -3 -27q0 -40 25.5 -71
t82.5 -31q44 0 95 20t102.5 54t95.5 77t74 89.5t39 91.5q2 11 3 21t1 19q0 28 -15 44t-56 16q-38 0 -94.5 -17t-115.5 -52q-11 -6 -34.5 -24t-48.5 -39.5t-40 -39.5q-1 -1 -1.5 -1h-0.5q-11 0 1 18t39 43t59 46q42 26 85.5 44t82 28t64.5 10q62 0 86 -28.5t24 -67.5
q0 -9 -1 -18t-3 -18q-12 -52 -44 -101.5t-78 -93t-101 -75.5t-113.5 -49.5t-113.5 -14.5z" />
    <glyph glyph-name="one" unicode="1" horiz-adv-x="348" 
d="M51 -50q-9 0 -14.5 6.5t-5.5 14.5t6.5 17t22.5 14q29 9 65 14t73 6v1q0 3 1 7q26 50 50.5 112.5t47.5 123t41 104.5q-1 0 -15 -10.5t-35.5 -26.5t-42.5 -32.5t-36.5 -28t-17.5 -12.5q-8 -8 -16 -8q-5 0 -5 6q0 4 2.5 7t6.5 9q6 6 27 23t49.5 40.5t58.5 48t54.5 45
t37.5 31.5q1 1 7 1q32 0 35 -33q-41 -56 -82.5 -126.5t-79 -143t-66.5 -137.5q47 1 91.5 1.5t80.5 4.5q6 0 7.5 -6t-4.5 -5q-49 -4 -110 -14t-120.5 -23.5t-104.5 -28.5q-6 -2 -9 -2z" />
    <glyph glyph-name="two" unicode="2" horiz-adv-x="672" 
d="M655 -102q-2 0 -2 2q0 4 4 9q18 32 18 52q0 38 -44 52.5t-109 14.5q-52 0 -111.5 -7t-116 -17t-101.5 -20t-69 -16h-3q-8 0 -13.5 6t-5.5 13t4.5 13t15.5 10l46 8q25 8 55 28t59 36q48 27 94 60t98 76q157 124 157 185q0 40 -57 40q-52 0 -99.5 -13.5t-86 -33.5
t-63.5 -38t-33 -27q12 -10 22.5 -22t17.5 -25q10 -19 10 -32q0 -11 -7 -16.5t-18 -5.5q-15 0 -33.5 10t-30 28t-7.5 40q2 8 5.5 18t10.5 16q-5 4 -10.5 9.5t-13.5 12.5q-4 3 -4 6q0 5 6 5q5 0 9 -4q12 -14 23 -21q7 8 30.5 28.5t66 42.5t102.5 33q17 3 42 6t51 3
q30 0 56.5 -6.5t42.5 -24t12 -50.5q-9 -40 -43.5 -78t-84.5 -75t-106.5 -71.5t-109.5 -66t-93 -60.5q69 13 138.5 22t136.5 9q59 0 114 -9q23 -4 47 -22t24 -51q0 -15 -6.5 -32.5t-22.5 -39.5q-7 -10 -14 -10zM313 253q6 0 6 9q0 8 -4 18q-7 11 -14 20t-20 19
q0 -4 1.5 -21.5t17.5 -37.5q8 -7 13 -7z" />
    <glyph glyph-name="three" unicode="3" horiz-adv-x="540" 
d="M197 -76q-38 0 -71 8t-52.5 27t-19.5 52q0 28 18 55t47 50.5t62 41.5t63 27q2 1 6 1t4 -3q0 -5 -9 -10q-32 -12 -66.5 -37.5t-58 -59t-23.5 -70.5t26 -51.5t63 -14.5q29 0 62.5 7t61.5 16q64 21 109 51t73.5 63.5t42 64t13.5 51.5q0 37 -25 59t-81 17h-2q-29 -5 -40.5 -7
t-19.5 -3q-7 -2 -13.5 -3t-11.5 0q-12 0 -9 10q2 21 31 17q2 -1 5.5 -1t7.5 -2h7.5t5.5 -2q22 2 39 8t45 25q35 23 49 41.5t14 32.5t-11.5 23.5t-29.5 10.5q-8 1 -16.5 1.5t-16.5 0.5q-47 0 -86.5 -14t-60.5 -40q-5 -5 -8 -5q-4 0 -4 6q0 3 2 8t7 10q41 41 90.5 54t90.5 13
q13 0 24 -1t20 -2q21 -3 38.5 -17.5t17.5 -35.5q0 -29 -21 -52.5t-53 -40.5t-65 -28q24 1 48.5 -3t44 -14.5t27.5 -32.5q7 -18 7 -40q0 -41 -25 -79t-63.5 -70t-79.5 -55t-74 -34q-34 -10 -75 -17t-81 -7z" />
    <glyph glyph-name="four" unicode="4" horiz-adv-x="475" 
d="M273 -74q-6 0 -6 8q0 7 8 28q16 33 32 69.5t32 74.5q-50 6 -93.5 16.5t-78.5 15.5q-14 -16 -30 -22t-31 -6q-23 0 -39.5 9.5t-16.5 19.5q0 6 8 11q13 7 27 9.5t30 2.5q12 0 24.5 -1t25.5 -3q21 17 56 47.5t76.5 68t84 76.5t79.5 74.5t62 60.5q1 1 7 1q8 0 24.5 -9.5
t16.5 -20.5q0 -5 -4 -8q-49 -63 -97 -147.5t-90 -170.5q46 2 93 10t88.5 24t71 40.5t41.5 58.5q3 10 5.5 19t2.5 17q0 18 -14 25q-5 4 -5 7q0 6 8 4q14 -5 20.5 -19t6.5 -31q0 -12 -3 -23q-15 -50 -49 -83t-80.5 -51t-99.5 -24q-14 -1 -27.5 -1.5t-27.5 -0.5h-21.5t-21.5 1
q-20 -41 -38 -79.5t-33 -73.5q-4 -11 -11.5 -17.5t-12.5 -6.5zM350 128q29 66 55.5 130t47.5 115q-19 -19 -48.5 -44t-63 -51.5t-65.5 -51.5t-56 -44t-35 -28q22 -4 42 -9.5t38 -8.5q38 -8 85 -8z" />
    <glyph glyph-name="five" unicode="5" horiz-adv-x="504" 
d="M216 -60q-38 0 -71 8.5t-52.5 27.5t-19.5 52q0 28 18 55t47 50.5t62 41t63 27.5q2 1 5 1q5 0 5 -4t-9 -9q-24 -9 -52 -26t-52.5 -39.5t-40.5 -48.5t-16 -53q0 -37 28.5 -51.5t68.5 -14.5q32 0 66.5 7t62.5 16q85 28 137.5 71t77 86.5t24.5 72.5q0 42 -26.5 58.5
t-61.5 16.5q-19 0 -39.5 -4t-37.5 -10l-22 -8t-13 -4h-1l-6 -13q-8 -9 -18 -9q-4 0 -7 0.5t-7 1.5q-6 1 -6 9q0 6 2.5 12.5t3.5 10.5q14 27 33.5 57.5t47.5 66.5q-7 6 -15 12.5t-7 7.5q1 6 11.5 14t23 13.5t16.5 3.5q1 0 2 0.5t2 0.5q13 0 25 -8q7 0 35.5 1.5t66 3.5
t72.5 3.5t55 0.5q8 -1 8 -7q0 -8 -10 -8q-25 0 -69.5 -5t-92.5 -13.5t-87 -20.5q-15 -15 -31.5 -43.5t-29.5 -51.5q-2 -4 -5 -11.5t-7 -15.5q21 9 54.5 16t67.5 7q37 0 68.5 -11.5t43.5 -41.5q7 -18 7 -40q0 -41 -25 -79t-63.5 -70t-79.5 -54.5t-74 -33.5q-34 -10 -75 -17.5
t-81 -7.5z" />
    <glyph glyph-name="six" unicode="6" horiz-adv-x="468" 
d="M226 -42q-39 0 -70.5 16t-48.5 52q-12 27 -12 56q0 50 31 102t83.5 101t116 89.5t130 67.5t124.5 36h3q13 0 13 -6q0 -5 -18 -8q-49 -6 -102 -30t-103.5 -58.5t-94.5 -75t-76 -80t-48 -72.5q-8 -19 -14 -41.5t-6 -45.5q0 -28 12 -51.5t42 -29.5q12 -3 25 -3
q38 0 80.5 18.5t80 47t64 60.5t32.5 59q1 2 1 5v5q0 17 -13.5 27t-36.5 10q-37 0 -94 -30.5t-119 -101.5q-7 -4 -11 -2t-3 4q49 65 96.5 100t89 48.5t70.5 13.5q16 0 27.5 -2.5t18.5 -6.5q12 -6 17.5 -18.5t5.5 -29.5q0 -22 -9 -47t-26 -45q-30 -39 -73.5 -69t-92 -47.5
t-92.5 -17.5z" />
    <glyph glyph-name="seven" unicode="7" horiz-adv-x="432" 
d="M174 -97q-48 0 -48 43q0 18 9.5 42.5t29.5 53.5q8 12 32.5 39.5t59.5 63.5t75.5 75.5t81.5 75.5t77 64t61 41q-20 7 -40 13t-40 8q-30 6 -70 6q-50 0 -103.5 -11t-93.5 -34t-52 -61q-8 -18 -8 -29q0 -14 10 -18q2 -1 2 -4q0 -4 -5.5 -6t-8.5 -1q-15 5 -27 22.5t-12 33.5
q0 5 1 8q14 47 50 74.5t85.5 39t101.5 11.5q47 0 91.5 -8t76.5 -19l60 -17l25 7h5q17 0 17 -9q0 -7 -14 -13q21 -9 21 -16q0 -4 -8 -4q-11 0 -31 11q-9 6 -36 -11t-66 -50.5t-83 -77.5t-87 -91t-78 -91t-56 -79t-21 -54q0 -9 7 -14q5 -3 10.5 -6.5t5.5 -5.5t-7 -2z" />
    <glyph glyph-name="eight" unicode="8" horiz-adv-x="444" 
d="M192 -17q-37 0 -59.5 17t-22.5 52q0 31 19 59.5t48 54.5t60.5 49t57.5 43q-10 21 -15 44t-5 41q0 54 39.5 92.5t111.5 38.5h11.5t12.5 -1q33 -4 64 -14t49 -38q21 11 30.5 16t15 7.5t13.5 5.5q4 2 10 2t6 -4t-14 -14q-19 -10 -31.5 -17.5t-20.5 -9.5q4 -7 6.5 -18.5
t2.5 -16.5q0 -20 -7 -20q-4 0 -6.5 4.5t-3.5 8.5q-1 2 -2 9t-10 21q-4 0 -36.5 -19t-76.5 -48q-89 -59 -91 -69q35 -67 35 -120q0 -65 -53 -111q-31 -25 -66 -35t-72 -10zM338 282q12 9 37.5 24t56.5 33t61.5 36t52.5 31q-4 9 -19 20.5t-37 20t-46 8.5q-30 0 -60.5 -11.5
t-50.5 -34t-20 -54.5q0 -13 6.5 -31t18.5 -42zM203 -1q64 0 100.5 33t36.5 88v14.5t-2 14.5q-2 14 -12 38.5t-22 46.5q-12 -10 -43 -33t-57 -53q-28 -34 -37 -58t-9 -44q0 -47 45 -47z" />
    <glyph glyph-name="nine" unicode="9" horiz-adv-x="420" 
d="M104 -77q-13 0 -13 6q0 4 17 7q62 11 122.5 47t113 84.5t89.5 100t52 94.5q7 20 12.5 44.5t5.5 48.5q0 34 -16.5 59.5t-60.5 25.5q-40 0 -76.5 -15.5t-67 -40t-52.5 -52.5q-17 -22 -28.5 -48.5t-11.5 -49.5q0 -22 13 -36.5t44 -14.5q9 0 19 1t22 4q35 8 77.5 35.5
t82.5 64.5h2q5 0 5.5 -3.5t-1.5 -6.5q-42 -51 -85.5 -78.5t-82 -38t-66.5 -10.5q-13 0 -24 2t-18 4q-19 8 -29.5 22.5t-12.5 32.5q0 3 -0.5 6.5t-0.5 6.5q0 47 29 90t74.5 77t96 54t92.5 20q62 0 87.5 -33t30.5 -86q1 -4 1 -9v-10q0 -54 -27.5 -108t-74 -102.5t-103.5 -88.5
t-117.5 -67.5t-115.5 -38.5h-4z" />
    <glyph glyph-name="colon" unicode=":" horiz-adv-x="294" 
d="M324 262q-20 0 -20 21q0 8 3 15q5 14 21.5 19t29.5 3q9 -1 9 -12q0 -9 -6 -21t-16.5 -18.5t-20.5 -6.5zM221 -10q-20 0 -20 21q0 8 3 15q5 14 21.5 19t29.5 3q9 -1 9 -12q0 -9 -6 -21t-16.5 -18.5t-20.5 -6.5z" />
    <glyph glyph-name="semicolon" unicode=";" horiz-adv-x="294" 
d="M329 262q-20 0 -20 21q0 8 3 15q5 14 21.5 19t29.5 3q9 -1 9 -12q0 -9 -6 -21t-16.5 -18.5t-20.5 -6.5zM171 -92q-4 0 -4 3t9 12q6 6 20 25.5t20 40.5q-10 0 -17 8.5t-7 18.5q0 16 12 25.5t28 9.5q26 0 26 -21q0 -13 -9 -31q-11 -24 -28 -51t-42 -38q-6 -2 -8 -2z" />
    <glyph glyph-name="less" unicode="&#x3c;" horiz-adv-x="373" 
d="M275 53q-3 0 -7 8q-12 26 -34 57.5t-47 62t-46 53.5q-2 2 0 6q2 5 23 25t61 57q35 32 65 56t44 36q13 10 21 10q9 0 9 -8q0 -5 -4 -9l-36 -33t-51 -47.5t-48 -48t-29 -34.5q17 -41 35.5 -74t32.5 -53t15 -24q3 -9 3 -19q0 -8 -2 -14.5t-5 -6.5z" />
    <glyph glyph-name="equal" unicode="=" horiz-adv-x="377" 
d="M232 229q-26 0 -26 7q0 13 45 25q11 3 26 4t34 1q23 0 47 -0.5t67 -4.5q38 -3 38 -10q0 -8 -38 -8q-55 0 -98 -5t-95 -9zM196 104q-26 0 -26 7q0 13 46 25q23 6 59 6q23 0 45 -2.5t65 -7.5q39 -3 39 -10q0 -6 -39 -8q-37 -2 -66.5 -4.5t-58 -4t-64.5 -1.5z" />
    <glyph glyph-name="greater" unicode="&#x3e;" horiz-adv-x="318" 
d="M160 47q-9 0 -9 8q0 5 4 9l36 33t51 47.5t48.5 48t28.5 34.5q-16 41 -35 74t-32.5 53.5t-15.5 23.5q-3 9 -3 19q0 8 2 14.5t5 6.5t7 -8q12 -26 34 -57.5t47.5 -62t45.5 -53.5q2 -2 0 -6q-1 -5 -22 -24.5t-62 -57.5q-35 -32 -65 -56t-44 -36q-13 -10 -21 -10z" />
    <glyph glyph-name="question" unicode="?" horiz-adv-x="562" 
d="M330 133q-6 0 -6 12q0 6 3 15q13 30 40.5 61t62 61t68.5 57q68 54 110 102t42 73q0 33 -50 33q-45 0 -86.5 -11.5t-75.5 -28.5t-56 -32.5t-29 -23.5q11 -10 20 -20t15 -21q8 -16 8 -28q0 -19 -21 -19q-13 0 -29 9t-26 24.5t-7 34.5q2 7 4.5 15.5t9.5 13.5q-4 3 -9 8
t-12 11q-3 3 -3 5q0 3 4 4t8 -3l20 -18q6 6 23.5 21.5t48 32.5t75 29.5t102.5 12.5h22.5t23.5 -2q26 -2 42.5 -14.5t16.5 -38.5v-6.5t-1 -7.5q-7 -35 -40 -72.5t-79 -75t-93.5 -73.5t-84.5 -68.5t-52 -58.5q-1 -13 -9 -13zM371 383q5 0 5 9q0 8 -3 14q-5 11 -11.5 18
t-17.5 17q0 -4 1.5 -19.5t14.5 -31.5q7 -7 11 -7zM287 -10q-20 0 -20 21q0 8 3 15q5 14 21.5 19t29.5 3q9 -1 9 -12q0 -9 -6 -21t-16.5 -18.5t-20.5 -6.5z" />
    <glyph glyph-name="at" unicode="@" horiz-adv-x="673" 
d="M404 -4q-71 0 -118 34t-47 92q0 8 1 17t3 18q11 44 42 86.5t76 79t96.5 62.5t101.5 36q25 5 47 7.5t41 2.5q68 0 99.5 -28t31.5 -69q0 -39 -26 -84t-74 -84q-22 -19 -43 -27t-36 -8q-33 0 -33 28q0 15 5 31.5t11 29.5q-10 -10 -29 -28t-43 -36.5t-48.5 -31t-46.5 -12.5
t-37 16q-10 10 -10 27q0 20 14 43.5t36 46.5t48.5 40.5t51.5 25.5q36 11 55 11q22 0 31.5 -11.5t12.5 -32.5v-1q0 -8 -5.5 -11t-5.5 4q0 6 -3.5 18t-23.5 12q-23 0 -53.5 -15.5t-60 -39t-49.5 -48.5t-23 -43q-4 -32 20 -32q13 0 29.5 8t31 18t20.5 15l106 86q4 2 9 2
q11 0 16 -5q2 -2 2 -5q0 -4 -2 -9t-4 -12q-18 -36 -18 -55q0 -18 15 -15q8 3 18 9t20 13q39 35 60.5 77t21.5 79t-23.5 62t-74.5 25q-16 0 -34 -2.5t-39 -8.5q-44 -12 -90 -39t-86.5 -62t-68.5 -74.5t-36 -77.5q-1 -9 -2.5 -18t-1.5 -17q0 -43 27.5 -73t90.5 -30
q77 0 133 17.5t99 48.5t78 73q16 19 23 19q4 0 4 -7q0 -10 -3 -16q-16 -41 -65.5 -76t-118.5 -55.5t-146 -20.5z" />
    <glyph glyph-name="A" unicode="A" horiz-adv-x="1006" 
d="M-5 -215q-17 0 -39.5 10.5t-32.5 36.5q-5 13 -5 25q0 29 21 63t55 70q37 38 96 86t133 100.5t156 104.5t165.5 98t161 81t143 54t110.5 16q37 -2 63.5 -34t26.5 -82q0 -41 -13.5 -91.5t-35 -103.5t-47.5 -100q41 5 78.5 14.5t61 26t21.5 40.5v2q0 9 4 9q7 0 7 -16
q0 -27 -26.5 -46t-67.5 -30t-85 -17q-6 -13 -15 -38t-12 -43q-1 -3 -1 -6.5v-7.5q0 -10 1.5 -18t1.5 -11q2 -14 -9.5 -24t-22.5 -10q-14 0 -15 13q-1 2 -1 11q-5 14 -16.5 34.5t-24 40.5t-24 34.5t-16.5 15.5q-7 2 -47 9q-25 5 -64.5 11t-77 15.5t-60.5 22.5q-28 16 -28 35
q0 9 5 15q9 11 23.5 16t33.5 5q29 0 63.5 -10t68 -26t61 -34.5t41.5 -36.5q8 -1 20 -1.5t27 -0.5q30 0 66 3q21 51 40.5 109.5t32 113t12.5 91.5q0 42 -22.5 58.5t-57.5 16.5q-56 0 -124.5 -22t-144.5 -60t-154 -87t-153 -102.5t-140.5 -106.5t-117.5 -100t-84 -82
q-34 -37 -34 -81q0 -18 7.5 -34t23.5 -27q7 -6 7 -10q0 -8 -20 -8zM761 121q-15 11 -42 25t-57.5 25t-59.5 13h-11q-22 0 -22 -8q0 -5 8.5 -11.5t16.5 -9.5q20 -7 52 -14.5t64.5 -13t50.5 -6.5zM886 4l2 12t2 13q4 17 8.5 35t10.5 34q-25 -1 -47 -2t-37 0q14 -16 31.5 -41
t29.5 -51z" />
    <glyph glyph-name="B" unicode="B" horiz-adv-x="1577" 
d="M1280 -132q-65 0 -126.5 10t-107.5 27q-42 16 -86.5 43t-83 63.5t-62 79.5t-23.5 89q0 14 2.5 29t8.5 30q-29 2 -48 9.5t-19 27.5q0 14 14 18.5t32 4.5q13 0 25 -1t20 -1t12 2q1 1 4 1q7 0 7 -8q0 -3 -3.5 -6.5t-11.5 -5.5l-6 -21q5 -1 10.5 -1h11.5q11 0 21.5 0.5
t17.5 0.5t27.5 -0.5t41.5 -2t29 -5.5q9 -5 9 -9q0 -3 -5 -3q-4 0 -8 1q-22 3 -49 3t-56 -1.5t-55 -2.5q-6 -30 -6 -58q0 -93 63 -152.5t171 -94.5q41 -13 93 -21t107 -8q62 0 121.5 11.5t108.5 38t76 70.5q11 17 16 33.5t5 32.5q0 41 -28.5 72t-72.5 48.5t-91 17.5
q-6 0 -6.5 -1.5t-7.5 -1.5q-16 0 -25 13.5t-9 19.5q0 10 11 12.5t22.5 2.5h13.5q22 5 60 19t81.5 32.5t82.5 36.5q53 25 75.5 46t22.5 38q0 23 -31 39.5t-78.5 27.5t-99 16.5t-92.5 5.5q-110 0 -235.5 -9t-256 -26t-255 -42t-233.5 -56t-192 -69t-130 -80.5t-47 -90.5
q0 -21 17 -38.5t44 -29.5t58 -19t60 -7q22 0 22 -4q0 -3 -11 -6t-23 -3q-36 0 -74 8.5t-70.5 24.5t-52.5 38t-20 48q0 48 46.5 91.5t129.5 81.5t193 69.5t237 56.5t261.5 42t267.5 26t253 9q112 0 195.5 -12t129.5 -33.5t46 -51.5q0 -23 -31 -50.5t-99 -57.5
q-31 -14 -69 -28.5t-75 -26.5t-66.5 -20.5t-43.5 -10.5q69 -10 123 -37.5t84.5 -67t30.5 -85.5q0 -19 -5.5 -39t-18.5 -40q-27 -45 -77 -71.5t-112 -38.5t-127 -12zM1109 40q-22 15 -29.5 29.5t-5.5 31.5q1 5 3 11t2 11q6 26 30.5 63t58 76t66.5 72t54 52q44 34 53 32
q10 -1 19.5 -10.5t9.5 -17.5q0 -7 -3.5 -9t-5.5 -4q-25 -11 -57 -35.5t-65.5 -57t-62.5 -68t-48 -69.5t-22 -61q-1 -10 2 -19t10 -19q2 -4 2 -6q0 -8 -11 -2zM812 261q3 5 5.5 10t6.5 9h-9q-5 0 -9.5 -1.5t-5.5 -7.5v-1q0 -6 12 -9z" />
    <glyph glyph-name="C" unicode="C" horiz-adv-x="1025" 
d="M450 -126q-133 0 -228 27.5t-146 81t-51 129.5q0 83 45 161t127 140t194.5 97.5t248.5 32.5q29 -1 61.5 -12.5t46.5 -21.5l52 36t42 37q14 15 22 15q3 0 3 -3q0 -4 -6 -13q-16 -21 -42 -41.5t-55 -40.5q22 -18 22 -37q0 -28 -21 -50.5t-48.5 -35.5t-49.5 -13
q-30 0 -30 23q0 18 21 47q12 17 29.5 31.5t37.5 28.5q-10 7 -28 10.5t-44 5.5q-10 1 -19 1.5t-19 0.5q-76 0 -155 -23t-152 -62.5t-131 -91t-92 -109.5t-34 -116q0 -91 86.5 -144t272.5 -53q39 0 84 3q99 6 203.5 25.5t207.5 55t197 89.5t172 130q1 1 3 1t3 -3t-2 -7
q-72 -81 -165.5 -141.5t-198.5 -101.5t-211.5 -62.5t-203.5 -25.5q-13 -1 -25 -1h-24zM678 394q7 0 20 10q27 23 32.5 45.5t6.5 29.5q-19 -15 -32 -26t-24 -26q-9 -13 -9 -25q0 -8 6 -8z" />
    <glyph glyph-name="D" unicode="D" horiz-adv-x="1929" 
d="M1333 -95q-74 0 -139 12.5t-112 37.5q-16 9 -16 14q0 2 3 2t7.5 -1t11.5 -3q65 -17 123.5 -23.5t116.5 -5.5q32 1 81 7t108 17.5t121 28.5t120.5 40t104.5 52q47 29 78 66.5t31 78.5q0 35 -27 72.5t-89 74.5q-63 39 -151 62.5t-192.5 34.5t-219.5 11q-119 0 -244 -10.5
t-247 -29.5t-234 -45t-207 -57t-166 -65t-111 -69t-40 -70q0 -21 17 -37.5t44 -27.5t57 -16.5t55 -5.5q4 0 19.5 -1t30.5 0h2q8 0 14 -2.5t6 -6.5q0 -5 -9 -8q-11 -4 -27.5 -5.5t-32.5 -1.5q-32 0 -67.5 10t-67 28t-51.5 41.5t-20 49.5q0 49 51.5 94t143 85t211.5 72.5
t258 56t282.5 36t284.5 12.5q131 0 250.5 -12.5t217 -39t162.5 -68.5q56 -36 90 -84t34 -111q0 -48 -28 -86.5t-76 -68.5t-108.5 -52.5t-125.5 -38.5t-127.5 -25.5t-114.5 -14t-86 -4.5zM893 -103q-13 5 -24.5 19.5t-11.5 25.5t8 28.5t20 36t23 34.5t17 24q20 27 47 61.5
t56 70.5t55 67q5 6 4.5 7t-5.5 5q-2 1 -2 5q0 7 5 12q23 24 47 39t26 15q8 0 19.5 -13.5t11.5 -21.5q0 -1 -10 -13.5t-26.5 -31t-34 -38.5t-32.5 -37q-50 -55 -97 -115.5t-81 -113.5q-10 -16 -10 -21q0 -3 3 -3q5 0 22 10q9 5 31.5 16t48.5 25.5t44 26.5q6 3 7.5 1t-3.5 -7
q-7 -7 -20.5 -16l-28.5 -19q-8 -5 -24.5 -17.5t-34.5 -27.5t-30 -28q-6 -7 -12 -7t-8 1z" />
    <glyph glyph-name="E" unicode="E" horiz-adv-x="1075" 
d="M548 -112q-123 0 -207 24.5t-126.5 66t-42.5 93.5q0 53 27 101q-26 0 -47.5 0.5t-35.5 0.5q-28 0 -38 8t-12 19q-1 11 11 15.5t31 4.5q30 0 68 -11q8 -1 19 -2t25 -3q40 53 107 95.5t150 73.5t171 50q-21 7 -41 13t-39 13q-47 16 -108.5 31.5t-126 26.5t-121.5 11
q-58 0 -102 -15t-60 -51q-4 -9 -4 -21q0 -13 7 -27t24 -31q19 -20 50.5 -40.5t59.5 -34.5q7 -2 15 -8t11.5 -9.5t-4.5 -1.5q-14 3 -44 17t-60.5 33.5t-47.5 38.5q-16 21 -24 41.5t-8 37.5q0 16 5 26q19 42 67.5 59t111.5 17q56 0 117.5 -10.5t121 -27t108.5 -34.5
q26 -10 61.5 -21.5t75.5 -24.5q52 9 103 14t98 5q10 0 19 -0.5t18 -0.5q90 -4 147.5 -27.5t76.5 -53.5q6 -9 6 -21q0 -13 -10.5 -24.5t-37.5 -11.5q-5 0 -10.5 0.5t-12.5 1.5q-84 11 -183.5 36t-192.5 53q-83 -14 -168 -41t-156.5 -66.5t-114.5 -93.5q47 -2 103 -3t111 -1
q50 0 95 1t74 4h8q11 0 11 -3q0 -2 -10.5 -5.5t-35.5 -8.5q-31 -6 -79 -9t-104 -4t-111 -1h-82q-28 -47 -28 -100q0 -46 40 -82.5t134 -54.5q35 -7 77 -10t91 -3q87 0 183.5 15.5t194 47.5t187.5 82t164 118q1 1 3 1t3 -3t-2 -6q-47 -52 -107 -93.5t-127 -74.5
q-78 -38 -161 -64t-164.5 -40t-154.5 -16q-10 0 -20 -0.5t-20 -0.5zM1087 333q20 0 28 8t8 17q0 8 -3 12q-17 26 -72.5 39t-129.5 13q-33 0 -72 -3t-83 -8q57 -17 113.5 -32.5t106 -27t84.5 -16.5q5 -1 10.5 -1.5t9.5 -0.5z" />
    <glyph glyph-name="F" unicode="F" horiz-adv-x="1233" 
d="M877 -124q-5 0 -5 4q0 7 14 20q20 19 58 58.5t84 92.5t89 111q-74 -11 -150 -20.5t-145 -9.5q-13 0 -25.5 0.5t-24.5 1.5q-31 2 -46 11.5t-15 18.5q0 7 8.5 12t24.5 4q57 -3 128 -3q64 0 131.5 2.5t131.5 6.5q50 62 74.5 112t24.5 88q0 65 -68 96t-200 31
q-58 0 -135.5 -5.5t-165 -16.5t-176 -28t-168.5 -40.5t-143 -52.5t-99.5 -64.5t-36.5 -77.5q0 -30 32.5 -50t82 -29.5t99.5 -9.5q11 0 21.5 0.5t20.5 1.5h6q17 0 17 -6q0 -4 -12 -7q-9 -2 -31.5 -3.5t-44 -2t-30.5 -0.5q-43 0 -87.5 12.5t-74 36t-29.5 56.5q0 51 33.5 91.5
t92 72t134.5 55t163 40t176.5 26t174.5 14t158 4.5q95 0 170 -13t118.5 -46.5t43.5 -96.5q0 -40 -21 -87t-57 -96l153 17h1q6 0 6 -6t-7 -7q-9 -1 -32 -4t-51 -7t-52 -7t-33 -5q-44 -58 -97 -113t-102.5 -99.5t-85.5 -73.5q-12 -10 -21 -10z" />
    <glyph glyph-name="G" unicode="G" horiz-adv-x="1175" 
d="M482 -497q-32 -1 -64.5 8t-53.5 31t-21 59v9.5t1 8.5q9 55 46.5 103.5t94.5 91t125 77.5t136.5 62.5t130 46.5t104.5 29q32 8 62 9q23 46 36.5 100.5t13.5 96.5q0 34 -9 50q-23 -54 -76.5 -104t-126.5 -93.5t-156.5 -76t-167 -50.5t-156.5 -18q-120 0 -182.5 43.5
t-62.5 110.5q0 28 11 59t33 63q-73 14 -105 52t-32 82q0 34 22 71.5t64 59.5q7 4 17 4q5 0 6.5 -2t-5.5 -6q-39 -23 -64.5 -59t-25.5 -68q0 -40 32.5 -72.5t102.5 -43.5q8 11 18 21.5t20 21.5q48 48 119.5 93t155 80t169 55.5t160.5 20.5q38 0 65.5 -10t27.5 -36
q0 -17 -12 -35t-28.5 -33.5t-30.5 -26.5q-42 -32 -110 -63t-152.5 -56t-178 -40t-186.5 -15q-30 -34 -44 -63.5t-14 -55.5q0 -41 30 -69.5t80.5 -43t110.5 -14.5q69 0 148.5 19t159.5 52t151 75.5t123.5 89.5t75.5 94q-1 0 -1.5 0.5t-1.5 0.5q-4 2 -4 8q0 8 8.5 18t30.5 10
q23 0 34.5 -22t11.5 -60t-11 -88.5t-37 -105.5l-9 -19q14 -1 27 -1.5t26 -2.5q35 -4 66.5 -14.5t38.5 -29.5q1 -1 1 -3q0 -4 -4.5 -5.5t-6.5 2.5q-7 14 -35.5 22t-62.5 10q-15 2 -30 2t-30 -1q-34 -69 -84 -141.5t-110.5 -139t-128 -119.5t-138 -84t-138.5 -32zM266 232h12
q59 0 134 11.5t154 34t151 56t126 78.5q20 17 39.5 38.5t19.5 37.5q0 11 -11.5 17.5t-40.5 6.5q-38 0 -85.5 -10.5t-98 -27.5t-97.5 -38t-85 -42q-58 -34 -116 -76t-102 -86zM466 -479q67 0 134 32t131 85.5t120.5 118.5t102 132t76.5 125q-27 -3 -54 -9
q-75 -15 -158.5 -47.5t-166 -77.5t-154.5 -99q-70 -52 -101.5 -99t-31.5 -82q0 -36 28 -57.5t74 -21.5z" />
    <glyph glyph-name="H" unicode="H" horiz-adv-x="1729" 
d="M1607 -59q-11 0 -14 12q-1 2 -1 4.5t-1 6.5q-6 14 -19.5 35t-28.5 42t-28 36t-18 16q-7 2 -47 9q-25 5 -64 11t-77 15.5t-61 22.5q-28 16 -28 35q0 9 5 15q11 15 43 15q28 0 64 -10.5t72 -26t65 -32.5t42 -30q21 -3 62 -3h22.5t23.5 1q26 74 61 146.5t74 135t76 103.5
q6 7 21.5 18t35 20.5t35.5 9.5q14 0 22.5 -11t5.5 -39q-1 -3 -7 -3.5t-6 2.5q0 2 0.5 4.5t0.5 3.5q0 16 -10 16q-8 0 -20.5 -9.5t-25 -22t-21.5 -22.5t-10 -12q-33 -41 -70 -97.5t-70 -119t-55 -121.5q42 4 80 13t61.5 26t21.5 44v2q0 9 4 9q7 0 7 -16q0 -27 -26.5 -46
t-67.5 -30t-85 -17q-7 -24 -13 -46t-6 -42q0 -12 2.5 -22.5t3.5 -13.5q4 -14 -8 -25.5t-23 -11.5zM856 -125q-5 0 -5 4q0 6 15 20q19 18 51.5 52.5t72 80.5t79.5 97t73 101.5t53.5 94t20.5 74.5q0 12 -3 21q-12 34 -49 54t-91 28.5t-119 8.5q-68 0 -142 -7.5t-147 -19
t-137 -25t-112 -25.5t-72 -20q-82 -26 -145.5 -55.5t-101.5 -61.5t-44 -68q-3 -21 13.5 -37t45 -26.5t61 -16t61.5 -5.5q4 0 21.5 -1t33.5 0h3q8 0 14 -2.5t6 -6.5t-11 -8q-13 -4 -32 -5.5t-36 -1.5q-35 0 -73.5 10t-71 27.5t-51.5 40.5t-16 49q15 116 285 198
q22 7 67.5 17.5t108.5 22.5t135.5 22.5t149 17.5t148.5 7t134.5 -8.5t109 -28.5t71 -53.5t18.5 -83.5q-5 -43 -32.5 -95t-69.5 -106t-90.5 -105.5t-95 -94t-82.5 -71.5q-13 -10 -22 -10zM1466 121q-37 23 -77 38t-83 18q-4 1 -8 1h-7q-17 0 -17 -5q0 -4 8.5 -9.5t16.5 -8.5
q20 -6 52 -14t64.5 -13.5t50.5 -6.5zM1591 4l2 12t2 13q4 17 8.5 35t10.5 34q-25 -1 -47 -2t-37 0q14 -16 31.5 -41t29.5 -51z" />
    <glyph glyph-name="I" unicode="I" horiz-adv-x="929" 
d="M221 -157q-107 0 -157 44t-50 106q0 82 74 162q-31 1 -51 8.5t-20 28.5q0 14 14 18.5t32 4.5q13 0 25 -1t20 -1t12 2q2 1 4 1q7 0 7 -7q0 -4 -5.5 -8.5t-19.5 -4.5h-9q-5 0 -9.5 -1.5t-5.5 -7.5v-1q0 -5 8 -7.5t19 -3.5l14 12q14 11 21 11q9 0 9 -7q0 -4 -6 -9l-9 -8
q10 0 18.5 0.5t14.5 0.5q7 0 27.5 -0.5t41.5 -2t29 -5.5q9 -5 9 -9q0 -3 -5 -3q-4 0 -8 1q-22 3 -48 3q-24 0 -50 -1.5t-51 -2.5q-37 -36 -54.5 -72.5t-17.5 -69.5q0 -57 50.5 -96t144.5 -39q81 0 166.5 29t165.5 73.5t146 92.5q-1 11 -2.5 23.5t-1.5 25.5q0 49 11.5 106.5
t34.5 114t56.5 103t77.5 75t97 28.5q32 0 51.5 -20t19.5 -56q0 -29 -14.5 -68t-48.5 -86q-41 -57 -104.5 -119.5t-133.5 -116.5q2 -22 8 -50.5t16 -55t26 -43.5t37 -17q18 0 37.5 10.5t37.5 27t29 33.5q3 4 6 4q2 0 2.5 -4t-2.5 -8q-29 -46 -57.5 -67.5t-66.5 -21.5
q-33 0 -57 25t-38 62t-19 74q-70 -51 -152 -99t-170 -79t-176 -31zM758 104q62 48 118 105t93 109q40 56 57.5 98.5t17.5 69.5q0 23 -11 35t-30 12q-25 0 -61 -23t-77 -70q-36 -42 -60.5 -100.5t-36.5 -120t-10 -115.5z" />
    <glyph glyph-name="J" unicode="J" horiz-adv-x="1250" 
d="M439 -460q-36 0 -71.5 8.5t-58.5 28.5t-23 54q0 5 0.5 9.5t1.5 8.5q12 62 70 117.5t144 100.5q57 30 127.5 59t149 53t158 40t153.5 20q13 18 24 36t21 35q38 66 66 133.5t28 119.5q0 35 -18.5 58t-48.5 36.5t-65 20t-70 8.5t-62 2q-86 0 -186 -14t-201.5 -39t-194 -60
t-165.5 -77t-115 -89.5t-42 -98.5q0 -36 22 -58.5t56.5 -33t69.5 -10.5q21 0 40 3q3 1 6.5 1h6.5q8 0 13.5 -1t5.5 -3q0 -3 -14 -7q-34 -9 -71 -9q-46 0 -85.5 14.5t-64 42.5t-24.5 67q0 58 34 107.5t93 89.5t136 72t164.5 55.5t177 39t173.5 23t154 7.5q60 0 115 -8
t97.5 -27t67 -50t24.5 -76q0 -33 -11 -78t-30 -92.5t-43 -88.5q-7 -13 -15 -25.5t-16 -24.5q11 0 22.5 -0.5t22.5 -1.5q40 -4 75.5 -13.5t43.5 -27.5q1 -1 1 -3q0 -4 -5 -5.5t-7 2.5q-7 14 -39.5 21t-70.5 10q-13 1 -27 1h-28q-49 -71 -112 -141t-134.5 -131.5t-147.5 -109
t-151.5 -74.5t-146.5 -27zM425 -443q67 0 139 27.5t144 75t139.5 107.5t126 125.5t103.5 127.5q-103 -8 -212 -38t-211.5 -75.5t-188.5 -99.5q-81 -49 -116.5 -94t-35.5 -80q0 -34 30.5 -55t81.5 -21z" />
    <glyph glyph-name="K" unicode="K" horiz-adv-x="1350" 
d="M585 -285q-4 0 -9.5 2.5t-4.5 5.5q23 63 93.5 141.5t169.5 160.5l-13 10q-45 -51 -84 -91.5t-60 -57.5q-13 -10 -22 -10q-5 0 -5 4q0 7 14 20q6 6 27.5 30.5t50.5 58t56 65.5q-26 23 -51.5 46t-50.5 48q-3 3 -3 7q0 11 12 11q6 0 13 -6q47 -46 96 -87q14 17 26 31t19 23
q19 22 45.5 53.5t52.5 68t43 73.5t17 70q0 8 -1.5 15.5t-3.5 14.5q-19 51 -82 71t-146 20q-60 0 -125 -8t-128.5 -20t-118.5 -26t-95 -26t-58 -20q-97 -40 -159.5 -87.5t-69.5 -101.5q-3 -21 10.5 -37.5t36 -27.5t48 -16.5t47.5 -5.5q3 0 16.5 -1t26.5 0h2q7 0 12 -2.5
t5 -6.5q0 -3 -9 -8q-10 -4 -24.5 -5.5t-28.5 -1.5q-28 0 -58 10t-56 28t-41 41t-12 50q6 57 69 108t169 93q16 7 55.5 18t94 24.5t118.5 25t130.5 19t129.5 7.5q74 0 135 -13.5t97 -46.5t36 -90v-10.5t-1 -10.5q-3 -25 -21 -61t-46 -78t-62.5 -86t-70.5 -85l17 -13
q86 71 186 141t203.5 134.5t202.5 118.5t186 93.5t152 58.5q18 6 33 6q30 0 30 -22q0 -15 -14 -36q-4 -7 -13 -15t-14 -8q-2 0 -2 3t3 10q13 26 13 36q0 9 -11 9q-4 0 -9 -1t-11 -3q-55 -15 -136 -53.5t-177.5 -93.5t-199.5 -120.5t-203.5 -137t-188.5 -141.5
q144 -97 311 -147t347 -50q18 0 42.5 3.5t48 12.5t38.5 24.5t15 38.5q0 12 -4 24q-1 4 -1.5 7t-0.5 6q0 12 6 12t12 -15q9 -25 9 -46q0 -35 -21.5 -58t-55 -36t-70.5 -18.5t-68 -5.5q-176 2 -335 64.5t-296 165.5q-104 -84 -177.5 -158.5t-93.5 -127.5q-1 -2 -6 -2z" />
    <glyph glyph-name="L" unicode="L" horiz-adv-x="493" 
d="M875 -258q-20 0 -40 2t-40 5q-69 12 -138 46t-138.5 82t-137 102.5t-133.5 106.5q-7 -12 -20 -41t-30.5 -61t-36.5 -55t-37 -23q-12 0 -23 12q-12 14 -23.5 42.5t-21.5 63.5t-18 70.5t-13 64t-6 42.5q-2 38 8.5 51.5t20.5 13.5q24 0 67 -39t110 -96l52 97q-2 2 -14 8
t-27 18t-26.5 31t-11.5 46q0 4 0.5 9t1.5 9q3 15 9 15q5 0 5 -9q0 -5 -0.5 -9t-0.5 -8q0 -26 10 -43t23.5 -27t24.5 -14.5t14 -6.5q43 87 89 169t98 147.5t112 103.5t131 38q52 0 74 -25.5t22 -62.5q0 -30 -12.5 -63t-33.5 -61q-32 -42 -82 -89.5t-110.5 -89t-126 -66.5
t-127.5 -24q-6 -13 -17.5 -35.5t-23.5 -45l-20 -37.5q83 -68 169 -131t176.5 -110t184.5 -69q26 -6 51.5 -9.5t48.5 -3.5q50 0 84 18t34 59q0 13 -5 31q-3 9 -3 16q0 10 4 10t10 -17q11 -35 11 -58q0 -38 -21 -60t-54.5 -31t-72.5 -9zM326 239q60 6 114.5 29.5t100.5 54
t80 61t53 49.5q49 50 76 100.5t27 86.5q0 25 -14 40t-44 15q-41 0 -83.5 -25.5t-83 -67t-77 -91t-66.5 -98.5t-51.5 -90t-31.5 -64zM111 -42q14 -2 40.5 41.5t63.5 113.5q-54 45 -89.5 77t-55.5 33h-2q-17 0 -17 -22q0 -15 4.5 -49t12.5 -73.5t19 -73t24 -47.5z" />
    <glyph glyph-name="M" unicode="M" horiz-adv-x="1733" 
d="M912 -160q-10 0 -18 7.5t-8 18.5q0 10 17 42.5t45 81.5t61.5 106.5t67 118t61.5 115.5q23 46 39.5 92t16.5 83q0 41 -26 66t-91 25q-82 0 -176 -18.5t-191 -51.5t-189.5 -76.5t-173.5 -94t-142.5 -104t-96.5 -106.5t-35 -101q0 -43 23 -58t54 -15q23 0 46.5 5t42.5 9
q3 1 8 1q14 0 14 -6q0 -4 -8 -7q-23 -7 -48 -11.5t-49 -4.5q-49 0 -84 22t-35 77q0 49 35 102t97 107.5t144 105t177.5 94.5t197 77.5t202 52t192.5 18.5q87 0 122.5 -29.5t35.5 -79.5q0 -40 -18 -89t-45 -102q-21 -42 -46 -87.5t-48 -86.5t-39 -70t-19 -39q17 23 45 60.5
t64 82.5t76.5 90.5t81.5 84.5t80.5 64.5t72.5 29.5q5 1 10 1h9q23 0 36.5 -9.5t13.5 -27.5q0 -14 -11 -36q-9 -17 -26 -50.5t-35 -72t-30 -71t-12 -47.5q5 3 24.5 20.5t44 40t45 41t28.5 23.5q11 8 22 8q21 0 30 -22q7 -16 12.5 -44t10.5 -58.5t11 -56t14 -36.5
q7 -10 18.5 -15t24.5 -5q14 0 28.5 4t28.5 11q42 21 86.5 52.5t85.5 65.5l63 52q8 6 10 6q6 0 -9.5 -22.5t-50.5 -51.5q-43 -35 -90 -68.5t-92 -53.5q-31 -14 -54.5 -20.5t-40.5 -6.5q-32 0 -47.5 20.5t-22.5 56t-15 79.5q-4 29 -9.5 49t-18.5 20q-7 0 -17 -7
q-14 -9 -36.5 -29.5t-46.5 -44t-41.5 -42.5t-22.5 -26q-8 -11 -16 -11q-14 0 -14 22q0 5 7.5 26.5t19.5 53.5t26 67t28 68t24 55q3 6 5.5 16.5t2.5 20.5q0 11 -4.5 19t-15.5 8t-30 -10q-50 -27 -103.5 -76t-106 -110t-101.5 -126.5t-91 -128t-73 -112.5q-7 -11 -19 -11z" />
    <glyph glyph-name="N" unicode="N" horiz-adv-x="993" 
d="M239 -165q-38 0 -73 9q-46 14 -82.5 42t-54.5 73q-1 5 -1.5 8t-0.5 5q0 7 3 7q6 0 11 -17q17 -44 51 -70.5t81 -34.5q13 -3 25.5 -4t25.5 -1q44 0 85.5 13t75.5 32q43 23 95.5 68.5t108.5 105t108.5 126.5t95.5 134t69 127q-28 56 -80 79.5t-117 23.5q-25 0 -52 -3
q-136 -16 -253.5 -80.5t-212.5 -150.5q-32 -29 -62 -60t-48.5 -59t-18.5 -49q0 -6 -6 -6q-5 0 -8 8q-3 11 -5.5 20t-2.5 16q0 5 2 11q8 25 30.5 53.5t53.5 57t63 53.5q101 79 219 132.5t243 66.5q30 3 59 3q65 0 119.5 -18.5t90.5 -62.5l6 18q7 19 11 19q3 0 5 -5.5t2 -12.5
q0 -6 -1 -8l-11 -28q10 -16 18 -34t13 -39q8 -34 11.5 -70t3.5 -73q0 -30 -2 -59.5t-5 -58.5q25 58 60.5 121.5t78.5 123t91.5 106t100.5 72.5t105 21q18 -1 33 -13.5t15 -32.5q0 -7 -3 -16q-1 -3 -3.5 -6t-4.5 -3q-3 0 -2 11q4 23 -13.5 28t-38.5 5q-40 0 -86 -30
t-93.5 -78.5t-91.5 -107t-79.5 -117t-58.5 -106.5q-5 -11 -9.5 -22.5t-9.5 -22.5q-4 -25 -9 -48.5t-10 -44.5q-2 -8 -16 -17q-9 -42 -9 -75q-1 -11 -8 -11t-7 7q-1 5 -1 10v10q0 24 6 51h-3q-15 0 -11 13q10 37 19 88t15.5 108.5t6.5 115.5q0 27 -1.5 53t-5.5 51
q-2 14 -5.5 26.5t-7.5 24.5q-39 -85 -92.5 -172.5t-115 -165.5t-124.5 -137t-122 -87q-37 -17 -84 -28.5t-94 -11.5z" />
    <glyph glyph-name="O" unicode="O" horiz-adv-x="1089" 
d="M633 -50q-80 0 -118 41.5t-38 102.5q0 60 33.5 129t96.5 129q32 30 76 60t95 55t105 40t105 15q25 0 48 -7.5t23 -25.5q0 -6 -1 -9q-5 -16 -17.5 -26t-26.5 -19q-1 -1 -5.5 0t-0.5 5l12 14q8 14 8 23q0 23 -51 23q-43 0 -93 -18t-99.5 -47.5t-92 -63.5t-70.5 -66
q-61 -71 -88 -128.5t-27 -99.5q0 -53 35 -81t90 -28q37 0 89.5 15.5t111.5 44.5t116 69t103 88.5t74 104.5t28 116q0 65 -37 108.5t-99.5 70.5t-142 38.5t-165.5 11.5q-89 0 -183 -14.5t-181.5 -43t-157 -71t-110.5 -98.5t-41 -126q0 -37 18 -72t73 -52q20 -6 50 -12t46 -5
h4q15 0 15 -4q0 -3 -12 -6q-7 -1 -14.5 -1.5t-15.5 -0.5q-31 0 -65 8q-67 19 -104.5 59.5t-37.5 86.5q0 67 41.5 124t113 103.5t164 79t195 50t204.5 17.5q42 0 95 -3t108.5 -12t107.5 -26t94 -44t66.5 -66t24.5 -94q0 -63 -27 -122t-73.5 -110.5t-105.5 -93.5t-123.5 -72.5
t-127.5 -47t-118 -16.5z" />
    <glyph glyph-name="P" unicode="P" horiz-adv-x="1307" 
d="M247 155q-42 0 -82.5 10.5t-67.5 34.5t-30 63q-5 64 44 115.5t140 90.5t214 65t268 39t301 13q71 0 143 -3q77 -3 153 -14t138 -30t99.5 -44t37.5 -56q0 -25 -29.5 -53t-96.5 -59q-56 -26 -126.5 -43.5t-145 -26.5t-143.5 -12q-24 -1 -33 1t-9 6q0 5 9.5 9.5t16.5 3.5
q21 -3 47 -3q51 0 112.5 10.5t123.5 31t114 49.5q49 27 70 51t21 43q0 22 -22.5 40t-59.5 31.5t-82 23t-91 15t-85 7.5q-34 2 -68.5 3t-69.5 1q-110 0 -223.5 -9t-220.5 -26.5t-199.5 -43.5t-163 -61t-110 -79t-39.5 -96q0 -30 15.5 -47t40 -24.5t51.5 -9.5t50 -2
q8 0 14.5 -3t6.5 -7q0 -3 -8 -4q-6 -1 -12.5 -1h-12.5zM895 -22q-20 2 -30 18.5t-10 43.5q0 28 12.5 65.5t34 79.5t47.5 81q31 47 62 87.5t59.5 65t49.5 24.5q11 0 23.5 -10t12.5 -20q0 -7 -3 -10l-5 -5q-27 -15 -61.5 -48.5t-70.5 -76.5t-66 -88.5t-48.5 -86t-18.5 -67.5
q0 -10 3 -21t13 -16q5 -2 5 -9q0 -8 -9 -7z" />
    <glyph glyph-name="Q" unicode="Q" horiz-adv-x="936" 
d="M953 -276q-13 0 -25.5 1t-22.5 2q-70 8 -134.5 38t-124.5 71.5t-119 83.5q-8 -1 -16 -1.5t-16 -0.5q-92 0 -128 43t-30 107q-51 42 -86 69.5t-54 28.5h-2q-17 0 -17 -22q0 -20 6 -50t17.5 -55.5t27.5 -33.5q5 -2 5 -5q0 -2 -3 -3t-8 1q-19 9 -36 35t-28 56.5t-13 54.5
q-2 38 8.5 51.5t20.5 13.5q23 0 63 -35t101 -88q10 63 49 134.5t95 132.5q41 45 96 80t115.5 55.5t117.5 20.5q17 -1 30.5 -7.5t13.5 -20.5q0 -18 -12 -29t-23 -21q-1 -1 -4 -0.5t-1 4.5l9 14q6 11 6 20q0 20 -34 20q-36 0 -78.5 -17t-85 -45.5t-80 -63t-64.5 -69.5
q-54 -72 -83.5 -130.5t-37.5 -102.5q17 -13 35 -28t38 -29q22 -16 43.5 -31.5t43.5 -29.5q62 11 135.5 46t145 90t125.5 126q47 62 70 116.5t23 100.5q0 96 -92 154.5t-259 70.5q-37 3 -76 3q-72 0 -145 -10t-139.5 -29.5t-120.5 -50t-88.5 -71t-42.5 -92.5q-1 -4 -1 -7.5
v-7.5q0 -31 18.5 -56t49.5 -41.5t66 -23.5q15 -1 15 -5q0 -3 -11 -4q-21 -1 -41.5 2t-39.5 9q-55 20 -81.5 57.5t-21.5 76.5q9 51 46.5 94t96 76t131 55.5t153 34.5t161.5 12q38 0 75 -3q83 -6 154.5 -25t126 -50t85 -75t30.5 -101q0 -49 -25 -107t-81 -126
q-55 -68 -125.5 -121.5t-145 -89t-141.5 -47.5q113 -70 201 -104.5t169 -51.5q12 -2 28 -4t33 -2q27 0 53 6.5t42.5 23.5t16.5 47q0 27 -8.5 50.5t-22.5 42.5q-2 2 -2 6q0 3 4 3q5 0 14 -6q23 -17 31.5 -45.5t8.5 -49.5q0 -36 -16.5 -59t-42.5 -35.5t-56.5 -17t-57.5 -4.5z
M480 -62q5 0 10.5 0.5t10.5 0.5l-63 48l-72 57q-4 -52 25 -79t89 -27z" />
    <glyph glyph-name="R" unicode="R" horiz-adv-x="1364" 
d="M1663 -180h-19t-17 1q-80 4 -156.5 30.5t-147 67.5t-132 88.5t-111.5 95t-85 86.5q-65 -86 -134 -153t-131 -97q-72 -33 -157 -33q-49 0 -94.5 13.5t-79 43t-48.5 76.5q-1 5 -1.5 8t-0.5 5q0 7 3 7q6 0 11 -17q17 -44 51 -70.5t81 -34.5q13 -3 25.5 -4t25.5 -1
q44 0 85.5 13t75.5 32q54 29 124.5 94t138.5 146q-36 40 -68 69.5t-46 30.5h-2q-17 0 -17 -22q0 -31 12 -54.5t36 -34.5q4 -2 4 -5q0 -7 -11 -2q-28 14 -50.5 39t-22.5 64q0 32 15 39.5t25 7.5q19 1 54 -32.5t81 -88.5q62 76 116.5 156t85.5 150q-116 -1 -241.5 -13
t-247.5 -35t-230.5 -55.5t-192 -74t-131.5 -92t-48 -108.5q0 -29 17.5 -44t44.5 -19.5t54 -4.5q10 0 19.5 0.5t18.5 0.5h2q8 0 13 -3t5 -6q0 -4 -8 -5q-22 -3 -44 -3q-40 0 -75.5 10t-58 33t-22.5 60q0 57 43.5 107.5t122.5 92.5t185.5 75t233 56t265 35t281.5 12h2l14 38
q7 19 11 19q3 0 5 -5.5t2 -12.5q0 -6 -1 -8q-3 -7 -6 -15t-7 -16q74 0 145 -7.5t128.5 -22.5t92 -37.5t34.5 -51.5q0 -25 -30.5 -56t-100.5 -66q-58 -29 -129.5 -50t-146.5 -34t-145 -20q-7 -1 -12.5 -1h-10.5q-20 0 -19 6q-3 -3 -5.5 -6.5t-4.5 -6.5q43 -50 103.5 -97.5
t130 -88.5t140 -74t133.5 -54t110 -27q27 -4 52.5 -6t47.5 -2q61 0 98 16t37 50q0 10 -5 27q-1 3 -1.5 6t-0.5 6q0 9 5 9t9 -12q9 -22 9 -39q0 -29 -20.5 -47.5t-53 -28.5t-68.5 -14t-67 -4zM1017 218q11 9 24 9q6 -1 12 -1h13q52 0 117.5 13.5t134 38.5t126.5 59
q52 31 74.5 56t22.5 45q0 22 -22 38t-58.5 27.5t-80.5 18.5t-89.5 10t-84.5 3h-6q-34 -77 -81 -159t-102 -158z" />
    <glyph glyph-name="S" unicode="S" horiz-adv-x="547" 
d="M319 -131q-72 0 -132.5 34.5t-101 89.5t-54.5 116q-39 5 -68.5 19t-31.5 30q0 9 5.5 15t21.5 6q14 0 31 -4q21 -4 31.5 -15.5t13.5 -21.5q45 -5 121.5 -11t165.5 -8l-2 6l-2 6q-5 14 -9 26.5t-8 22.5q-22 65 -42 134.5t-17 131.5q3 55 36.5 93t85.5 61.5t111 34t112 10.5
q59 0 115 -9.5t101 -28.5t71.5 -47.5t26.5 -66.5q0 -27 -22.5 -50.5t-57.5 -41.5t-71.5 -28t-65.5 -10q-6 0 -9 3.5t-3 7.5q0 11 12 11q28 0 61 7.5t63.5 21.5t50 33t19.5 43q0 34 -28.5 56t-73 34.5t-93.5 17.5t-90 5q-98 0 -159.5 -17t-96 -43t-49.5 -55t-18 -53t-3 -37
q0 -56 16 -112t35 -107q4 -10 10 -23.5t10 -25.5l4 -11h32q75 0 148.5 5t137.5 18.5t110 36.5q2 1 5 1q2 0 2 -2q0 -5 -10 -13q-32 -22 -97 -37.5t-147.5 -23.5t-169.5 -10q16 -34 33 -77t17 -79q0 -30 -18 -49.5t-65 -19.5zM291 -92q30 0 47 15t17 44q0 27 -7 60t-18 66
q-80 -1 -155 3t-131 13q29 -68 69 -110.5t83.5 -63.5t80.5 -26q4 -1 7.5 -1h6.5z" />
    <glyph glyph-name="T" unicode="T" horiz-adv-x="763" 
d="M209 -172q-43 0 -77 10q-49 15 -88 47t-59 82q-3 9 -3 14q0 8 4 8q7 0 12 -19q18 -49 54.5 -78.5t86.5 -38.5q29 -6 55 -6q47 0 91.5 14.5t81.5 36.5q40 22 88 64t100 97.5t103 118.5t96 128t80.5 126.5t55.5 112.5q-54 3 -120 3q-75 0 -157.5 -5t-164 -15.5t-154 -27.5
t-128.5 -41t-88.5 -55t-32.5 -71q0 -26 24 -46.5t62.5 -35.5t84 -24t87.5 -12q10 -1 16.5 -3.5t6.5 -5.5q0 -4 -11 -5q-4 -1 -9.5 -1h-11.5q-24 0 -52 3t-39 4q-44 5 -87.5 22.5t-72 45.5t-28.5 62q0 54 40 93t109 65.5t156 42.5t181 23t184 7q119 0 210 -9l6 17q7 19 11 19
q3 0 5 -5.5t2 -12.5q0 -6 -1 -8l-2 -6t-2 -5q5 -1 9.5 -1.5t8.5 -0.5q100 -11 179.5 -32t129 -48.5t56.5 -60.5q3 -13 3 -24q0 -16 -4.5 -24.5t-9.5 -8.5q-9 0 -13 19q-9 42 -42 71.5t-80 48t-99.5 29t-99.5 14.5l-44 4q-30 -72 -73.5 -153t-96.5 -161.5t-110.5 -151.5
t-115.5 -125t-111 -80q-40 -19 -91 -32t-101 -13z" />
    <glyph glyph-name="U" unicode="U" horiz-adv-x="1248" 
d="M1167 -107q-27 0 -43 13t-23.5 32t-9.5 38.5t-2 31.5q0 43 9.5 89t25 90.5t31.5 80.5q4 9 8 18.5t8 18.5q-21 -25 -53 -61t-70 -74.5t-78 -74.5t-76 -62q-30 -22 -61.5 -33.5t-57.5 -11.5q-23 0 -38 10.5t-15 32.5q0 20 13 49t44 69q15 20 41 51.5t56 70t57 79.5t44 80.5
t17 72.5q0 38 -31 62.5t-108 24.5q-93 0 -188 -23.5t-183.5 -65t-165 -94.5t-134 -112.5t-90 -120t-32.5 -115.5q0 -45 18 -60.5t44 -15.5q18 0 38 5l36 9q2 1 7 1q12 0 12 -6q0 -4 -7 -7q-19 -7 -40 -11t-41 -4q-42 0 -71.5 22t-29.5 79q0 56 33 117t92.5 121t139 113.5
t172 94.5t192.5 65t200 24q92 0 143 -26t51 -74q0 -19 -7 -37q-12 -33 -40 -75t-62 -86.5t-65 -85t-50 -69.5q-28 -43 -41 -72.5t-13 -46.5q0 -22 22 -22q23 0 67 25.5t96 69.5q15 13 44 40.5t65 65.5t72.5 82.5t66.5 90.5q23 37 39 59.5t41 22.5q7 0 19 -4.5t21 -10.5
t5 -13q-5 -9 -15 -22t-19.5 -23t-14.5 -12q-34 -37 -64.5 -89.5t-53.5 -112.5t-35 -120q-2 -12 -7.5 -35.5t-5.5 -47.5q0 -28 14 -49.5t54 -16.5q32 5 53.5 13t31.5 15q5 4 9 4t4 -3q0 -6 -14 -14q-24 -15 -47.5 -24.5t-53.5 -9.5z" />
    <glyph glyph-name="V" unicode="V" horiz-adv-x="1180" 
d="M835 -60q-14 0 -29 4.5t-15 14.5q0 4 5 11l54 68q32 41 63 90t56 100t39.5 98t14.5 83q0 24 -8 43q-19 44 -81.5 60.5t-159.5 16.5h-29t-30 -1q-19 -1 -66 -5.5t-110 -14t-133 -25t-137 -38t-122 -52t-87.5 -67.5t-32.5 -86q0 -25 18.5 -45.5t61.5 -34.5q32 -10 76 -15
t84 -5q10 0 18.5 0.5t17.5 0.5q11 0 22.5 -1.5t16.5 -4t-6 -5.5q-14 -4 -41.5 -6.5t-60.5 -2.5q-40 0 -80 5t-67 16q-49 20 -70.5 47.5t-21.5 56.5q0 50 30 89.5t81.5 71t116 54.5t134 39t135.5 26.5t121 15.5t89 6q13 1 25.5 1h25.5q84 0 154 -14t112 -49.5t42 -100.5
q0 -40 -18.5 -89.5t-47.5 -100t-59 -94.5t-52 -73q35 38 86 90t112 110.5t126.5 114.5t128.5 102t118 73.5t95 27.5q14 2 24.5 -6t10.5 -22q0 -8 -4 -16q-2 -4 -8.5 -9t-3.5 5q4 9 4 15t-6 6q-1 0 -3.5 -0.5t-5.5 -1.5q-61 -15 -136 -57t-153 -101t-152 -127t-134 -136
q-23 -26 -43.5 -48.5t-20.5 -35.5q-7 -10 -21.5 -26t-27.5 -29.5t-18 -14.5q-8 -2 -17 -2z" />
    <glyph glyph-name="W" unicode="W" horiz-adv-x="1550" 
d="M835 -60q-14 0 -29 4.5t-15 14.5q0 4 5 11l54 68q32 41 61.5 93.5t52.5 109t36.5 109.5t13.5 94q0 28 -8 50q-20 47 -76.5 67t-133.5 20h-18t-18 -1q-60 -2 -136 -15.5t-156.5 -36.5t-156.5 -54t-136.5 -69.5t-96.5 -83t-36 -93.5q0 -24 20 -40.5t53 -27t73 -15.5t80 -5
q8 0 15.5 0.5t14.5 0.5h3q8 0 14 -2t6 -4q0 -4 -12 -7q-14 -3 -37.5 -4.5t-44.5 -2t-30 -0.5q-43 0 -86 12.5t-71 36.5t-28 57q0 59 32 109t86.5 90t124.5 70.5t147.5 52t153.5 33.5t143 14q14 1 26.5 1h25.5q82 0 150 -15t109 -53t41 -107q0 -43 -17 -98.5t-44 -112.5
t-55.5 -105.5t-50.5 -77.5q35 38 86 90t112.5 111t125.5 114l13 29q18 27 28.5 46t22 28.5t30.5 9.5q7 0 20.5 -4.5t23.5 -11.5t6 -14q-5 -10 -18 -24.5t-26 -25.5t-19 -12q-13 -2 -28.5 -27t-30 -64t-23.5 -83.5t-9 -85.5q0 -50 18 -85t63 -35q50 0 96 24t86.5 62.5
t72.5 84.5t54 90q16 31 28 77.5t12 92.5q0 35 -8.5 64t-29.5 46.5t-57 17.5q-18 0 -44 -8q-11 0 -11 4t8 7q31 11 59 11q49 0 78 -20t42 -53t13 -72q0 -52 -17.5 -106t-43.5 -92q-28 -43 -66.5 -86.5t-84 -79.5t-96 -58t-102.5 -22q-43 0 -67 24.5t-33.5 63t-9.5 79.5
q0 47 8 88.5t16 60.5l10 24q-57 -51 -110.5 -105t-94.5 -101q-23 -26 -45.5 -51.5t-22.5 -38.5q-7 -10 -21.5 -26t-27.5 -29.5t-18 -14.5q-8 -2 -17 -2z" />
    <glyph glyph-name="X" unicode="X" horiz-adv-x="1180" 
d="M500 -143q-14 0 -25 9.5t-11 24.5q0 8 5 18q3 5 10 11t5 -6q-5 -15 -5 -19q0 -6 6 -6q5 0 12 3q45 13 112 50.5t146 93t162.5 124.5t161.5 145q3 81 -17 143.5t-75 97.5t-158 35q-7 0 -14 -0.5t-15 -0.5q-60 -2 -136 -15.5t-156.5 -36.5t-156.5 -54t-136.5 -69.5
t-96.5 -83t-36 -93.5q0 -24 20 -40.5t53 -27t73 -15.5t80 -5q8 0 15.5 0.5t14.5 0.5h3q8 0 14 -2t6 -4q0 -4 -12 -7q-14 -3 -37.5 -4.5t-44.5 -2t-30 -0.5q-43 0 -86 12.5t-71 36.5t-28 57q0 59 32 109t86.5 90t124.5 70.5t147.5 52t153.5 33.5t143 14q13 1 25 1h24
q121 0 193 -28t106 -82.5t40 -133.5q71 73 129 146.5t95 141.5q3 6 13 13t17 7q6 0 6 -7t-7.5 -24t-27.5 -46q-14 -22 -46.5 -61t-78 -88.5t-99.5 -105.5q1 -7 1 -15v-16q0 -46 -6 -97q-21 -192 -69 -235q-10 -8 -16 -8q-8 0 -14 8.5t-6 22.5q0 16 9 37q13 29 23.5 67.5
t16.5 81.5q4 26 7 52t4 51q-60 -60 -125 -120t-129 -113.5t-123 -95t-108.5 -66t-84.5 -25.5q-3 -1 -8 -1z" />
    <glyph glyph-name="Y" unicode="Y" horiz-adv-x="829" 
d="M171 -556q-30 0 -59 9t-48 29t-19 54q0 5 0.5 10t1.5 11q10 55 49 104.5t97.5 93t127 80t138 65t131 49t105.5 31.5q16 4 31 6.5t31 3.5q0 2 2 4q18 31 35.5 79t32.5 102t24 104.5t9 86.5q0 11 -1 20.5t-3 16.5q-62 -83 -120.5 -150.5t-117.5 -132.5q-46 -52 -92.5 -96.5
t-90.5 -71.5q-31 -20 -65 -20q-31 0 -53 21.5t-22 68.5q0 27 8.5 70.5t22 90t28.5 82.5l30 81l18 34q-51 -43 -108.5 -78.5t-111.5 -56.5t-95 -21q-42 0 -59.5 15t-17.5 37q0 25 17.5 55t45.5 58t58 45q8 5 17.5 6t4.5 -2q-20 -16 -42 -39.5t-38 -50.5t-20 -55
q-1 -22 8 -34.5t36 -11.5q54 3 115 34t120.5 78t109.5 97l5 5q17 30 34.5 57.5t32.5 44.5t24 17q7 0 19.5 -4.5t22 -11t5.5 -12.5q-16 -22 -43.5 -63t-59 -94t-61 -112.5t-49.5 -119.5q-5 -14 -13.5 -41.5t-15 -58.5t-6.5 -57q0 -22 7 -36t24 -14q11 0 25 6t33 19
q29 19 75.5 63t97.5 96q64 64 126.5 133.5t117.5 146.5l-10 5q-10 4 -10 14q0 7 8.5 13t30.5 6q31 0 47 -29.5t14 -79.5q-1 -24 -11.5 -66t-27 -93t-37 -103t-41.5 -95q13 0 26 -0.5t26 -1.5q35 -4 66 -13.5t38 -28.5q1 -1 1 -1.5v-0.5q0 -4 -5 -6t-6 2q-7 14 -35.5 21.5
t-62.5 8.5q-7 0 -14.5 0.5t-15.5 0.5q-7 0 -14 -0.5t-15 -0.5q-59 -111 -131 -206.5t-153 -168t-167 -113t-173 -40.5zM169 -538q66 3 131.5 33.5t127.5 81.5t119 115t106.5 134.5t89.5 140.5q-13 -2 -26.5 -5t-27.5 -6q-75 -16 -159.5 -50t-168 -81t-157.5 -102
q-73 -55 -105.5 -103t-32.5 -83q0 -36 28.5 -56t74.5 -19z" />
    <glyph glyph-name="Z" unicode="Z" horiz-adv-x="638" 
d="M928 -336q-8 0 -15.5 0.5t-15.5 1.5q-7 1 -23.5 3t-34 5t-28.5 6q-8 3 -8 6q0 2 6 3t13 0q36 -6 71 -6q46 0 80.5 12t39.5 39q1 4 1 7.5v7.5q0 41 -38 83.5t-102.5 82t-144 71.5t-163.5 53.5t-161 26.5q-9 1 -18.5 1.5t-19.5 0.5q-39 -37 -81.5 -69t-83.5 -51.5
t-78 -19.5q-15 0 -25 6t-7 12q2 2 11.5 -1.5t28.5 -1.5q20 3 53.5 22t71 46.5t69.5 55.5q-58 -3 -116 -18.5t-101.5 -44.5t-56.5 -74q-6 -18 -14 -18q-12 0 -12 28q0 12 5 30q9 26 52 50.5t110.5 41.5t147.5 19q41 37 86.5 84.5t93.5 97t96 96t94 83t88 56.5q-23 8 -48.5 15
t-52.5 11q-22 3 -47 5t-53 2q-53 0 -110 -7t-108 -22t-88 -39t-51 -58q-4 -9 -7 -18t-3 -17q0 -15 15 -22q7 -4 7 -6t-3.5 -3.5t-6.5 -0.5q-16 5 -23 18t-7 29q0 11 3 21q20 57 69.5 90t116 47t135.5 14q59 0 114.5 -8t98.5 -21l71 -21q8 2 19 -0.5t18 -1.5q3 1 9 1
q18 0 18 -10q0 -9 -17 -16q10 -4 18.5 -10t15.5 -13q3 -3 3 -7t-3 -6t-9 2q-18 13 -46 25q-44 -22 -100.5 -64t-119.5 -96.5t-126.5 -114t-120.5 -115.5l48 -2q83 -3 171 -23t170 -53t147 -74.5t103.5 -88.5t38.5 -96q0 -4 -0.5 -9t-1.5 -10q-7 -31 -45.5 -46t-82.5 -15z
" />
    <glyph glyph-name="bracketleft" unicode="[" horiz-adv-x="441" 
d="M289 -97q-24 0 -48.5 1t-46.5 3q-31 3 -50.5 12.5t-19.5 23.5q0 28 14.5 74.5t40 104t58 120t68 123t70.5 112.5t66.5 89.5t54.5 52.5q24 17 67 17q34 0 73.5 -3t62.5 -8q19 -3 19 -10q0 -6 -20 -6q-13 0 -34.5 1t-46.5 1q-28 0 -55 -2.5t-40 -10.5q-18 -16 -50.5 -58.5
t-71 -101.5t-77.5 -125t-72 -130.5t-53 -118t-20 -86.5q0 -25 19 -35.5t48 -15.5q16 -2 34 -3t36 -1q32 0 60 2t44 3h3q10 0 10 -6q0 -4 -8.5 -9.5t-27.5 -6.5q-10 -1 -40 -2t-67 -1z" />
    <glyph glyph-name="backslash" unicode="\" horiz-adv-x="406" 
d="M431 -78q-9 0 -21 14q-15 19 -40.5 61.5t-56 99t-61 118t-56.5 119t-42 101.5q-11 33 -11 49q0 19 15 19q14 0 18 -10q9 -41 28.5 -93t44.5 -109t52.5 -113t52.5 -104.5t45 -84.5t30 -52q5 -8 5 -12q0 -3 -3 -3z" />
    <glyph glyph-name="bracketright" unicode="]" horiz-adv-x="500" 
d="M266 -101q-22 0 -53 2t-59.5 4.5t-44.5 5.5q-22 3 -22 13q0 6 19 6q8 0 21 -0.5t29 -0.5q30 0 66 1.5t69 5t53 9.5q23 15 57 58.5t73 105.5t77 132.5t69 138.5t50 124t19 89q-9 4 -34 6.5t-56.5 4t-60.5 1.5q-16 0 -29.5 -0.5t-22.5 -1.5h-2q-10 0 -10 8q0 5 5.5 10
t18.5 6q8 1 30 1.5t49 1t51 0.5q11 0 21 -0.5t17 -0.5q40 -2 55 -12t15 -24q0 -28 -14.5 -74.5t-40 -104t-57.5 -120t-67 -122.5t-69 -112.5t-64 -89.5t-51 -53q-8 -6 -28.5 -10t-42.5 -6t-36 -2z" />
    <glyph glyph-name="asciicircum" unicode="^" horiz-adv-x="370" 
d="M340 319q-16 12 -33.5 33.5t-32 39.5t-21.5 20q-20 -11 -47 -25t-53.5 -27.5t-45 -22.5t-21.5 -9q-8 0 -2 10q1 2 15 11t35 22t44 27t41.5 25t26.5 15q6 3 13 6t14 3q13 0 23 -15q10 -16 24.5 -45t31.5 -53q2 -2 2 -6q0 -5 -6 -7.5t-8 -1.5z" />
    <glyph glyph-name="underscore" unicode="_" horiz-adv-x="769" 
d="M13 -121q-12 0 -12 10q0 5 6.5 9t21.5 5q25 1 70.5 1t104 0.5t122.5 0.5q69 0 139 -0.5t133 -1t110.5 -2t71.5 -3.5q5 -1 10.5 -4t5.5 -6q0 -5 -16 -5h-66t-111.5 -0.5t-137.5 -1l-146 -1t-136 -1t-108 -0.5h-62z" />
    <glyph glyph-name="grave" unicode="`" horiz-adv-x="401" 
d="M288 383q0 -4 -13 -1t-21 7q-18 8 -41.5 18.5t-45.5 21.5t-36 19q-3 5 9 15t22 8q19 -15 47.5 -34.5t58.5 -37.5q20 -12 20 -16z" />
    <glyph glyph-name="a" unicode="a" horiz-adv-x="557" 
d="M464 -11q-30 0 -52.5 15t-22.5 56q1 21 7.5 43.5t14.5 42.5q-13 -15 -39 -40t-58.5 -50.5t-66.5 -43.5t-64 -18t-49 22q-13 14 -13 38q0 28 18.5 61t49 64.5t66 56.5t69.5 36q47 15 74 15q29 0 42.5 -15.5t17.5 -44.5v-3q0 -7 -3.5 -11.5t-6.5 -4.5q-5 0 -5 8
q0 5 -1.5 14.5t-9 18t-25.5 8.5q-25 0 -57 -14t-65 -37.5t-62 -51t-48 -54.5t-22 -48q-1 -3 -1 -6v-5q0 -18 7.5 -25t19.5 -7q18 0 41.5 11t43.5 25t28 21q32 27 72 59.5t71 60.5q5 3 11 3q14 0 23 -7q3 -3 3 -8t-2.5 -12.5t-6.5 -16.5q-17 -35 -28 -63t-11 -47
q0 -30 33 -30q25 0 74 18q53 20 106 55t96 71q11 9 20 15t19 16q2 1 5 1t3 -3t-4 -8q-6 -8 -29 -29.5t-57 -48t-73.5 -51t-79.5 -38.5q-15 -5 -34.5 -9.5t-38.5 -4.5z" />
    <glyph glyph-name="b" unicode="b" horiz-adv-x="580" 
d="M170 -12q-10 0 -15.5 10t-5.5 19q0 37 33 101q35 70 88 142t117 136.5t130 111.5q5 4 11.5 7t13.5 3q14 0 25 -19t10 -32q0 -3 -2.5 -9.5t-6.5 -6.5q-1 0 -3 4t-3 5q-6 8 -15 8q-3 0 -5 -1q-52 -23 -99.5 -63.5t-89.5 -90t-75 -99.5t-56.5 -93t-34.5 -70q24 32 59.5 64
t78.5 59t88.5 43.5t87.5 16.5q38 0 56 -16t21 -32q39 7 76.5 10.5t66.5 5.5t41 2q2 0 7.5 -2t5.5 -4q0 -3 -13 -3q-49 -1 -95.5 -7t-87.5 -15q0 -37 -27.5 -68.5t-69 -55.5t-85.5 -37.5t-78 -13.5q-24 0 -38 9.5t-14 25.5q0 18 20 41q21 23 88 55t171 52q-1 23 -15.5 30.5
t-28.5 7.5q-20 0 -44 -6t-44 -14q-35 -14 -76.5 -41t-78 -60.5t-56.5 -65.5l-23 -37q-3 -7 -10 -7zM325 19q22 0 52 9t58 26q44 29 72.5 60.5t35.5 50.5q-81 -19 -139.5 -44.5t-84.5 -45.5q-29 -23 -29 -38q0 -9 9.5 -13.5t25.5 -4.5z" />
    <glyph glyph-name="c" unicode="c" horiz-adv-x="423" 
d="M291 -13q-23 0 -43.5 5t-37.5 15q-24 15 -34.5 34t-10.5 41q0 34 20.5 68.5t51 62.5t60.5 42q29 14 54.5 20t46.5 6q25 0 41 -8.5t16 -24.5q0 -15 -15.5 -37.5t-36 -40t-34.5 -20.5q-3 0 -3 6q0 4 4 8q6 5 17 16.5t20.5 25.5t9.5 25q0 16 -27 16q-26 0 -60 -16.5
t-66 -43.5t-53 -58.5t-21 -61.5q0 -23 14.5 -36.5t37 -19t46.5 -5.5q12 0 24 1t22 3q52 11 105.5 38t103.5 62t90 70q2 1 5 1q4 0 4 -2q0 -3 -4 -8q-7 -12 -28.5 -31t-49 -39t-53.5 -37.5t-43 -27.5q-37 -21 -83 -35t-90 -14z" />
    <glyph glyph-name="d" unicode="d" horiz-adv-x="568" 
d="M463 -15q-42 -3 -58.5 16.5t-16.5 48.5t12 62.5t28 58.5q-2 -1 -17 -17t-38 -39t-49.5 -46t-53 -40t-46.5 -20q-3 -1 -9 -1q-13 0 -24.5 6.5t-19.5 16.5q-8 8 -11.5 19t-3.5 22q0 28 18 59.5t45.5 61.5t59 53.5t58.5 35.5q23 9 46 9q32 0 57 -17q10 -7 16 -15.5t7 -20.5
v-1q0 -12 -8 -12q-5 0 -8 7q-5 12 -15 24.5t-33 12.5q-31 0 -66.5 -21t-68 -53t-54.5 -66.5t-26 -61.5q-1 -4 -1 -8v-8q0 -27 19 -27q9 0 20.5 4.5t21.5 11.5q57 35 111 80.5t101 95.5q53 56 99.5 111t109.5 103q13 10 24 10q14 0 25.5 -18t11.5 -33q0 -6 -3 -11
q-4 -5 -7 -5q-2 0 -2.5 3t-1.5 6q-1 8 -11 8t-22.5 -6.5t-17.5 -9.5q-61 -43 -120 -111q-13 -16 -26 -31.5t-25 -31.5q-9 -12 -25 -38.5t-28.5 -57t-12.5 -54.5q0 -18 10 -30t35 -12q50 0 94.5 23t83.5 48q75 48 144 107q3 3 5 3t2 -3t-4 -9q-10 -13 -47 -47.5t-92 -70.5
q-46 -31 -91 -50t-101 -24z" />
    <glyph glyph-name="e" unicode="e" horiz-adv-x="374" 
d="M286 -2q-22 0 -43.5 6.5t-40.5 21.5q-33 27 -33 65q0 34 22.5 68.5t55.5 64.5t65 48q11 7 28.5 10.5t33.5 3.5h11.5t9.5 -2q25 -7 36.5 -21t11.5 -31q0 -25 -16 -42.5t-40.5 -29t-51 -18.5t-49 -9.5t-33.5 -2.5q-23 0 -34 3q-18 -27 -22 -49q-1 -3 -1 -6.5v-6.5
q0 -22 18.5 -38.5t63.5 -16.5q41 1 86.5 19t90 46.5t84.5 60t71 58.5q2 2 5 2t3.5 -3t-2.5 -8q-11 -16 -38 -39t-58.5 -47t-58 -42t-37.5 -24q-30 -16 -66 -28.5t-72 -12.5zM241 142q8 0 18 1t21 3q15 3 38 10.5t46.5 19.5t39.5 28.5t16 36.5q0 19 -24 19q-19 0 -46 -13
q-31 -15 -65.5 -43.5t-58.5 -60.5q3 -1 7 -1h8z" />
    <glyph glyph-name="f" unicode="f" horiz-adv-x="371" 
d="M85 -294q-39 0 -55 20t-16 51q0 29 9.5 63t24.5 68.5t31 65t29 51.5q36 59 75 110t76 94q-3 5 -3 10q0 9 7 15.5t18 4.5q1 0 2 -0.5t2 -0.5q32 35 61 63.5t51 48.5q36 32 62 46.5t42 14.5q17 0 23 -13q3 -6 3 -13q0 -13 -7.5 -23t-8.5 -7q-3 11 -15 11q-18 0 -48 -20
t-56 -47l-64 -66q30 -3 63.5 -4.5t66.5 -1.5q27 0 53.5 1t49.5 4h2q2 0 2 -2q0 -6 -8 -8q-30 -1 -69 -7.5t-79.5 -13t-77.5 -7.5q20 -11 29.5 -35.5t9.5 -56.5q0 -45 -16 -100.5t-44 -110.5t-64 -101.5t-77.5 -75t-83.5 -28.5zM90 -281q34 0 69.5 29.5t68 77t58.5 104
t41 111t15 96.5q0 32 -9.5 52.5t-31.5 24.5q-1 0 -3 0.5t-4 0.5q-37 -43 -78 -97.5t-81 -120.5q-17 -28 -38 -69.5t-36.5 -84t-15.5 -74.5q0 -22 10 -36t35 -14z" />
    <glyph glyph-name="g" unicode="g" horiz-adv-x="481" 
d="M42 -392q-21 0 -43 5.5t-37.5 20.5t-15.5 44q0 37 20.5 70.5t52.5 62t67 50.5q43 28 93 53t104 42t108 19q19 38 30.5 78t11.5 70q0 25 -9 37q-9 -6 -12 -12q-14 -15 -38.5 -40t-55 -51t-61.5 -44t-58 -18q-13 0 -25.5 6t-21.5 19q-11 16 -11 36q0 29 18.5 63t47 66
t61 56t60.5 34q9 3 19.5 5t22.5 2q28 0 53.5 -12t29.5 -43v-3q0 -7 -3.5 -11.5t-6.5 -4.5q-5 0 -5 8q0 5 -2.5 14.5t-11.5 17.5t-27 8q-31 0 -68.5 -21.5t-72.5 -54.5t-59 -68t-28 -62q-1 -4 -1 -7v-6q0 -29 22 -29q16 0 37.5 12.5t41 27.5t27.5 22q27 23 56.5 48.5
t57.5 50.5q-3 2 -3 8t5.5 13.5t20.5 7.5q26 0 36 -16.5t10 -41.5q0 -34 -14.5 -79.5t-33.5 -86.5q24 -1 50.5 -8.5t31.5 -25.5q2 -3 -1 -5t-4 2q-7 14 -33.5 19t-49.5 4q-8 -19 -16.5 -35t-15.5 -29q-33 -60 -75.5 -112t-90 -91.5t-95 -62t-90.5 -22.5zM31 -377
q53 0 101.5 28.5t93 76.5t83.5 107.5t72 121.5q-88 -10 -173 -55t-156 -104q-43 -35 -62.5 -66.5t-19.5 -55.5t16.5 -38.5t44.5 -14.5z" />
    <glyph glyph-name="h" unicode="h" horiz-adv-x="641" 
d="M518 -17q-41 0 -66 19.5t-36 52t-11 70.5q0 25 4 50.5t11 50.5q-17 -18 -45 -43t-60 -52t-61.5 -51.5t-50.5 -41.5t-27 -21q4 -7 4 -13q0 -14 -16 -14q-7 0 -15 5t-13 16q-3 8 -3 18q0 27 19 71t44 91q-3 -1 -7 -1q-8 0 -8 4t6 8q22 13 27 23q21 44 51 91t65.5 91.5
t73.5 80t75 56.5t70 21q21 0 29.5 -9t8.5 -23q0 -11 -4.5 -23t-10.5 -22q-30 -54 -84.5 -105.5t-121 -97t-133.5 -80.5q-18 -35 -33 -69t-23 -60t-5 -38q7 4 29.5 23t53.5 46.5t64.5 57.5t64 57t50.5 44q12 30 24 30t31 -30q2 -4 2 -7q0 -6 -2 -12.5t-4 -9.5
q-21 -32 -32 -67t-11 -67q0 -42 21 -71t66 -29q23 0 51 8t62 27q44 21 89 51t82 60q11 9 20.5 15t19.5 16q2 1 5 1t3 -3t-4 -8q-6 -7 -27 -26t-51.5 -43t-66 -47t-71.5 -40q-20 -10 -54.5 -20.5t-68.5 -10.5zM245 228q43 26 90.5 58t93 70.5t82.5 83t58 93.5q0 13 -12 13
t-33 -12t-45.5 -30.5t-47.5 -39t-38 -37.5q-24 -25 -49.5 -53.5t-51.5 -66.5q-11 -17 -23 -37.5t-24 -41.5z" />
    <glyph glyph-name="i" unicode="i" horiz-adv-x="311" 
d="M335 303q-18 0 -18 20q0 8 4 16q3 8 20 13.5t36.5 8t30.5 2.5q9 0 9 -1q0 -2 -10 -6t-21 -10t-15 -14q-5 -13 -15.5 -21t-20.5 -8zM199 -8q-28 0 -49 10.5t-21 38.5q0 31 16.5 60t37.5 52.5t35 35.5q-9 2 3 18t35 26q6 2 11 2q11 0 22.5 -5t11.5 -14q0 -5 -4 -10t-8 -8
q-16 -12 -44.5 -37.5t-48.5 -50.5q-37 -47 -37 -73q0 -28 45 -28q37 0 72.5 11.5t66.5 27.5q49 25 91 60.5t87 71.5q2 1 5 1t3 -3t-4 -8q-6 -8 -25 -26.5t-47.5 -41.5t-63 -45.5t-70.5 -38.5q-19 -8 -53.5 -17t-66.5 -9z" />
    <glyph glyph-name="j" unicode="j" horiz-adv-x="279" 
d="M294 303q-18 0 -18 20q0 8 4 16q3 8 20 13.5t36.5 8t30.5 2.5q9 0 9 -1q0 -2 -10 -6t-21 -10t-15 -14q-5 -13 -15.5 -21t-20.5 -8zM-338 -494q-28 0 -56 8t-46.5 26.5t-18.5 49.5v8t1 8q8 47 42 88.5t85.5 78t112 67t122.5 54t117 40t94 24.5q14 3 28 5t27 3q22 41 36 90
t14 84q0 20 -5 32.5t-17 14.5q-3 1 -3 8.5t8.5 14.5t28.5 7q19 0 27.5 -16t8.5 -44q0 -69 -46 -173l-4 -8t-4 -9q23 0 47 -3q32 -4 60 -12.5t35 -25.5q0 -1 0.5 -1.5l0.5 -0.5q0 -4 -4 -5.5t-6 2.5q-6 13 -32 19.5t-56 8.5q-14 2 -27 2t-27 -1q-31 -60 -76.5 -122.5
t-100.5 -120t-116 -103t-124.5 -72t-125.5 -26.5zM-349 -478q61 0 121.5 27.5t118 73.5t108 102t91.5 113.5t69 107.5q-12 -1 -24 -3t-25 -5q-67 -13 -142 -41t-149 -67t-139 -85q-64 -45 -92 -85t-28 -70q0 -31 25.5 -49.5t65.5 -18.5z" />
    <glyph glyph-name="k" unicode="k" horiz-adv-x="601" 
d="M174 -20q-11 0 -15 10t-6 21t-2 22q0 32 13.5 68.5t35.5 77.5q-3 -1 -7 -1q-8 0 -8 4t6 8q22 13 27 23q21 44 52 92.5t68 94.5t77.5 83.5t81.5 60t78 22.5q27 0 39.5 -12.5t12.5 -32.5q0 -27 -20 -58q-23 -37 -62 -72.5t-87.5 -68.5t-101 -61.5t-101.5 -51.5
q-20 -38 -38.5 -77.5t-26.5 -77.5l-0.5 -8.5t-0.5 -17.5q8 9 16.5 18t16.5 18q21 21 54 50.5t71 60.5q3 23 10 39q6 17 13 24t14 7q8 0 14 -7.5t8 -16.5q44 33 87.5 60.5t80 44.5t58.5 17q28 0 28 -21q0 -10 -10 -20.5t-29 -13.5q-55 -8 -111.5 -33.5t-108.5 -61.5
q-14 -34 -14 -71q0 -29 10 -55.5t31.5 -43t56.5 -16.5q34 0 73 14t78.5 35.5t75 46.5t61.5 46q11 9 20.5 15t19.5 16q2 1 5 1t3 -3t-4 -8q-6 -7 -27 -26t-51.5 -43t-66 -47t-71.5 -40q-20 -10 -54.5 -20.5t-68.5 -10.5q-45 0 -75.5 24.5t-44.5 63t-13 79.5
q-34 -28 -68.5 -61t-64.5 -68q-5 -6 -12 -18.5t-12 -16.5q-6 -6 -14 -6zM267 233q78 43 135.5 77t102 73.5t81.5 96.5q4 5 10.5 18.5t6.5 24.5q0 15 -15 15t-38.5 -10.5t-49.5 -27t-50 -36.5t-41 -39q-42 -47 -80.5 -93.5t-61.5 -98.5z" />
    <glyph glyph-name="l" unicode="l" horiz-adv-x="448" 
d="M308 -18q-51 0 -86.5 25t-36.5 86q0 10 2 27t4 29q-2 -1 -6 -1q-8 0 -8 6q0 3 4 7q19 12 23 22q16 43 43 89.5t61 90.5t72 79t75.5 55.5t70.5 20.5q20 0 28.5 -8.5t8.5 -21.5q0 -31 -20 -65t-52 -68t-70 -65t-75.5 -57t-67.5 -44t-46 -25q-11 -28 -11 -62
q0 -40 19.5 -72.5t64.5 -32.5q30 0 66.5 12.5t73.5 30.5q43 22 83 47.5t70.5 48.5t44.5 36q4 4 6 4q1 0 1 -2q0 -9 -8 -17q-42 -42 -91.5 -79.5t-104.5 -63.5q-33 -15 -69 -23.5t-69 -8.5zM235 185q7 4 32 19.5t59.5 40.5t71.5 55t69.5 63t52.5 65.5t20 60.5q0 9 -9 9
q-12 0 -33 -13t-45.5 -33t-47.5 -41t-38 -37q-34 -37 -70.5 -85.5t-61.5 -103.5z" />
    <glyph glyph-name="m" unicode="m" horiz-adv-x="686" 
d="M112 -31q-19 0 -19 10q0 5 4.5 11.5t5.5 8.5q8 19 28 51.5t47 69.5t55.5 70.5t53 55t39.5 21.5q4 0 16.5 -6.5t18.5 -10.5q5 -3 5 -8q0 -8 -7 -8h-5q-14 0 -39.5 -19t-55 -48t-57.5 -60t-47.5 -56.5t-24.5 -36.5q11 13 36 35.5t56 48t63 48.5t59 38t42 15q17 0 33.5 -14
t16.5 -29q0 -16 -5.5 -37t-12 -39.5t-10.5 -28.5q9 7 25 28t34.5 44.5t33.5 36.5q11 10 18.5 13.5t11.5 3.5q8 0 11 -7.5t4 -14.5q3 -12 7 -33.5t13.5 -45t28.5 -40.5q8 -7 18 -9.5t22 -2.5q20 0 43 6.5t40 14.5q42 21 82 50t81 63l63 52q8 6 10 6q5 0 -10.5 -22.5
t-49.5 -51.5q-24 -19 -56 -44t-67.5 -47.5t-71.5 -37.5q-19 -7 -36.5 -12t-34.5 -5q-37 0 -59.5 16.5t-34 41t-17 48t-10.5 37.5q-17 -15 -34.5 -37.5t-32 -43.5t-22.5 -31q-10 -13 -23 -13q-8 0 -14 6t-6 18q0 14 6.5 34.5t13 42t6.5 37.5q0 14 -6 19.5t-15 5.5
q-12 0 -27 -7.5t-26 -14.5q-10 -7 -31.5 -24.5t-47.5 -40t-51 -46.5q-32 -30 -55 -52.5t-30 -22.5z" />
    <glyph glyph-name="n" unicode="n" horiz-adv-x="533" 
d="M134 -8h-4q-10 0 -10 12q0 10 4.5 20.5t5.5 13.5q8 17 25.5 45t39.5 59.5t46 60t45 46.5t36 18q4 0 16.5 -6.5t18.5 -10.5q5 -3 5 -8q0 -8 -7 -8h-5q-3 0 -6 -0.5t-9 -3.5q-15 -7 -37 -25.5t-46 -44t-45.5 -51.5t-36.5 -47t-20 -31q9 14 30 34.5t48.5 42.5t57 40.5
t56.5 29.5q23 10 41 10q24 0 34.5 -16t14 -39.5t5.5 -47.5q4 -38 16 -53t31 -15q14 0 32 6.5t39 16.5q42 21 86.5 52.5t85.5 65.5l63 52q8 6 10 6q6 0 -9.5 -22.5t-50.5 -51.5q-27 -22 -60.5 -48t-70 -49t-73 -38t-68.5 -15q-30 0 -44.5 16.5t-20.5 41t-10 49.5t-12.5 41.5
t-28.5 16.5q-13 0 -30 -7t-41 -24q-32 -22 -57.5 -44.5t-46.5 -43.5q-7 -7 -17 -18t-17.5 -19.5t-8.5 -8.5z" />
    <glyph glyph-name="o" unicode="o" horiz-adv-x="450" 
d="M188 -18q-36 0 -51.5 19t-15.5 43q0 8 1 15.5t4 14.5q8 24 25 49t39 44t43 23q4 1 14.5 -3.5t20 -10t9.5 -7.5q2 -2 2.5 -7.5t-6.5 -0.5q-9 6 -27.5 -6t-37 -30.5t-29.5 -30.5q-11 -15 -20.5 -33.5t-9.5 -33.5q0 -12 8 -19.5t28 -7.5q5 0 10.5 0.5t12.5 1.5
q20 4 49.5 18.5t62 37.5t60.5 49q17 15 32.5 35t25.5 40q-37 1 -75.5 3.5t-71.5 9t-53 17.5q-13 8 -19 16t-6 15t4.5 11.5t9.5 4.5t9 -3t7.5 -6t7.5 -5q38 22 75 30.5t64 8.5q31 0 55 -13t28 -45q2 -14 0 -26q17 -1 34 -1h32q30 0 62.5 4.5t60 11.5t41.5 14q7 4 11 4t4 -3
q0 -7 -16 -14q-22 -10 -67.5 -20.5t-95.5 -12.5q-13 -1 -31 -1.5t-39 -0.5q-10 -41 -41.5 -77t-74 -63.5t-86.5 -43t-79 -15.5zM446 201q4 11 4 23q0 17 -13 29t-45 13q-34 0 -65 -8t-57 -22q38 -17 84 -25t92 -10z" />
    <glyph glyph-name="p" unicode="p" horiz-adv-x="566" 
d="M56 -278q-2 0 -13 4.5t-22.5 11.5t-17.5 13q-6 8 -8 20.5t-2 15.5q0 42 20.5 94.5t52.5 106.5t67.5 103t66 84t47.5 48q-7 -1 -14 -1.5t-13 -0.5q-10 0 -10 4q1 9 15.5 21.5t35 22.5t37.5 10q10 0 17 -4q10 2 33 5t52 3q32 0 67.5 -7t64.5 -29q11 -8 22.5 -26t11.5 -39
q39 6 73.5 10t61.5 4q20 0 30 -3l8 -4t6 -5t-13 -2q-24 2 -72 -4t-96 -15q-7 -34 -31.5 -61t-59.5 -46.5t-74 -32.5t-75 -19t-62 -6q-30 0 -53 10.5t-23 29.5q0 8 5 17t16 19q21 18 70 36.5t117 36.5t145 31q4 9 4 21q0 24 -18 37.5t-45.5 19t-58.5 5.5q-33 0 -62.5 -4.5
t-46.5 -9.5q-10 -4 -34.5 -29t-57.5 -64t-67 -87.5t-63 -100t-45.5 -100.5t-14.5 -89q0 -5 2 -15.5t7 -19.5t15 -9q12 0 12 -5q0 -6 -10 -6zM257 29q27 0 66.5 8t75.5 24q41 17 75 42.5t52 51.5q-50 -11 -100.5 -24.5t-93 -28t-70.5 -29.5q-21 -10 -30 -18.5t-9 -13.5
q0 -12 34 -12z" />
    <glyph glyph-name="q" unicode="q" horiz-adv-x="557" 
d="M141 -415q-39 0 -39 38q0 17 8.5 41t27.5 54q14 24 38 62.5t54 85.5t62 97t63 97.5t56 85.5q-13 -15 -39 -40t-58.5 -50.5t-66.5 -43.5t-64 -18t-49 22q-13 14 -13 38q0 28 18.5 61t49 64.5t66 56.5t69.5 36q47 15 74 15q29 0 42.5 -15.5t17.5 -44.5v-3q0 -7 -3.5 -11.5
t-6.5 -4.5q-5 0 -5 8q0 5 -1.5 14.5t-9 18t-25.5 8.5q-25 0 -57 -14t-65 -37.5t-62 -51t-48 -54.5t-22 -48q-1 -3 -1 -6v-5q0 -18 7.5 -25t19.5 -7q18 0 41.5 11t43.5 25t28 21q32 27 72 59.5t71 60.5q5 3 11 3q14 0 23 -7q4 -4 4 -10q0 -13 -10 -27q-16 -22 -35.5 -49
t-42.5 -58q3 -6 6 -18q22 -17 55 -17q22 0 49.5 8t61.5 27q44 21 88 51t80 60q11 9 20 15t19 16q2 1 5 1t3 -3t-4 -8q-6 -7 -26.5 -26t-50 -43t-64.5 -47t-70 -40q-13 -7 -36 -15.5t-48 -15t-48 -6.5q-20 0 -32 4q0 -41 -8.5 -88.5t-25 -94t-40.5 -85.5q-34 -56 -79 -92
t-99 -36zM160 -395q26 3 67.5 37t78.5 95q29 47 49 113t18 138q-9 4 -17 11q-39 -55 -85.5 -123t-99.5 -153q-18 -28 -26 -51t-8 -39q0 -30 23 -28z" />
    <glyph glyph-name="r" unicode="r" horiz-adv-x="452" 
d="M349 -13q-33 0 -58.5 12.5t-25.5 46.5q0 28 13.5 53.5t32.5 46.5t36 36.5t24 22.5q-25 -10 -47 -10q-14 0 -27 4t-23 13l-7 -10q-7 -10 -24.5 -28t-34.5 -32q-43 -36 -90.5 -68t-93.5 -53t-86 -24q-4 0 -9 1.5t-5 3.5q0 3 18 7q35 7 77.5 29.5t88 54t87.5 65.5
q17 14 36.5 32t34.5 32q-11 15 -11 36q0 23 12.5 46.5t32.5 43.5t42.5 32.5t41.5 12.5q16 0 16 -13q0 -9 -8 -15q-7 -6 -23.5 -22.5t-35.5 -37.5t-34 -40.5t-19 -31.5q4 -7 11 -12.5t27 -5.5q17 0 35.5 6.5t33 12.5t19.5 6q11 0 22.5 -6.5t11.5 -17.5q0 -12 -7 -18
q-16 -12 -43.5 -34t-51.5 -47q-25 -25 -37 -46t-12 -35q0 -16 14 -25t39 -9q38 0 95 21q7 2 14 5.5t14 6.5q58 26 110 64t103 81q2 1 4 1q3 0 3 -3t-3 -8q-6 -8 -29 -29.5t-57 -48t-73.5 -51t-79.5 -38.5q-17 -6 -42.5 -11t-51.5 -5z" />
    <glyph glyph-name="s" unicode="s" horiz-adv-x="463" 
d="M259 -55q-33 0 -61 26.5t-47 70.5q-7 14 -10.5 26.5t-7.5 22.5q-29 -22 -55.5 -39t-44.5 -25q-5 0 -5 7q0 4 3 9t10 9q18 11 38 24t40 27q-8 5 -15 10.5t-11 12.5q-2 3 -2 10q0 14 9.5 28.5t18.5 14.5t12 -15l6 -27l2 -2q2 -3 3.5 -6t3.5 -6q47 35 91.5 74t77.5 73
l0.5 0.5t0.5 1.5q9 30 34.5 57.5t59.5 27.5q13 0 24 -4q9 -4 9 -13t-8.5 -16.5t-23.5 -4.5q-4 1 -7 1h-6q-14 0 -24 -5.5t-20 -15.5q-18 -19 -23 -54.5t-5 -77.5q0 -19 0.5 -38t0.5 -38q0 -20 -1 -39.5t-4 -36.5q5 0 10.5 -0.5t11.5 -0.5q32 0 64.5 6t60.5 18
q38 17 74.5 40.5t75.5 51.5q12 9 33 27.5t33 27.5q2 1 4 1q5 0 5 -5q0 -4 -4 -8q-42 -41 -98 -85t-123 -73q-37 -13 -76 -19.5t-77 -4.5q-7 -21 -20.5 -33.5t-36.5 -12.5zM271 24q10 26 15.5 63t10.5 78.5t12 77.5q-31 -30 -72 -66t-82 -69q22 -29 50.5 -51t65.5 -33z
M232 -13q15 0 28 15q-31 11 -57 30t-47 50q14 -35 33.5 -65t42.5 -30z" />
    <glyph glyph-name="t" unicode="t" horiz-adv-x="375" 
d="M219 -23q-34 0 -59.5 13t-25.5 50q0 28 18 60.5t47.5 68t63.5 69.5q-29 -2 -53 3q-13 3 -19.5 10.5t-6.5 14.5q0 8 6.5 13.5t16.5 3.5q20 -3 43.5 -5.5t48.5 -4.5q29 27 57.5 51.5t50.5 44.5q-3 3 -3 8q0 10 12 22t31 20q6 2 12 2q12 0 24 -4.5t12 -12.5q0 -6 -11 -18
t-16 -15q-17 -10 -51.5 -37t-74.5 -63h37q29 0 57 1t52 3h2q2 0 2 -2q0 -6 -7 -8q-36 -1 -82 -9.5t-92 -13.5q-37 -35 -70 -72t-53.5 -69.5t-20.5 -56.5q0 -22 19 -33t50 -11q49 0 112 23q7 2 13.5 5t13.5 6q47 21 92.5 52.5t82.5 62.5q11 9 20 15t19 16q2 1 4 1q3 0 3 -3
t-3 -8q-6 -8 -29 -29.5t-57 -48t-73.5 -51t-79.5 -38.5q-20 -7 -58.5 -16.5t-76.5 -9.5z" />
    <glyph glyph-name="u" unicode="u" horiz-adv-x="556" 
d="M457 -10q-42 0 -58 20t-16 49q0 21 7 44t15 43q-14 -15 -38 -40t-53 -50.5t-59.5 -43t-56.5 -17.5q-13 0 -25 6t-21 19q-10 14 -10 33q0 32 23.5 69t57.5 71q3 4 11.5 11.5t14.5 11.5q-4 3 4 15t21.5 22t23.5 4q9 -5 15.5 -10.5t6.5 -11.5t-9 -15l-21 -20
q-26 -25 -53 -52.5t-46 -53t-22 -44.5q-1 -4 -1 -7v-6q0 -29 22 -29q16 0 37.5 12.5t41 27.5t27.5 22q32 27 67 57.5t67 58.5q5 3 11 3q12 0 19 -7q3 -3 3 -8q0 -12 -11 -33t-22.5 -45t-14.5 -45q-1 -4 -1 -7v-6q0 -19 10.5 -26t26.5 -7q20 0 41.5 6.5t34.5 11.5
q53 20 106.5 56.5t97.5 70.5q11 8 21 15.5t20 16.5q8 6 10 6q1 0 1 -1q0 -2 -3 -7t-5 -9q-12 -18 -46.5 -48t-80 -60t-92.5 -50q-25 -10 -49 -16.5t-50 -6.5z" />
    <glyph glyph-name="v" unicode="v" horiz-adv-x="384" 
d="M142 -18q-4 0 -18 3.5t-12 10.5q5 15 12 30.5t13 29.5q13 29 25 59t21 60q2 8 7.5 26t5.5 33q0 19 -11 19q-7 -3 -10 -10t-8 -7t-5 9q0 14 13.5 19t23.5 5q22 0 30 -12t8 -30q0 -15 -3.5 -31.5t-8.5 -30.5q-5 -16 -16 -41t-23 -49t-20 -38q42 52 86.5 98t86.5 81.5
t78.5 55.5t61.5 20q8 0 14.5 -4t6.5 -12q0 -4 -3 -12q-1 -4 -6 -6t-2 3q2 4 2 5q0 3 -8 3q-17 0 -49.5 -19.5t-72 -50.5t-78.5 -66t-69 -66t-43 -51q-8 -13 -16 -23.5t-13 -10.5z" />
    <glyph glyph-name="w" unicode="w" horiz-adv-x="706" 
d="M187 -11q-19 0 -37.5 8.5t-18.5 31.5q0 16 8.5 42t22 54.5t29 54t29.5 41.5t23 16q4 0 13 -4.5t17 -11t8 -12.5q0 -1 -1.5 -7t-7.5 -9q-16 -7 -36 -26t-39 -44t-31.5 -51t-12.5 -48q0 -14 14 -14t39 13t53 32.5t53.5 39t42 33t17.5 14.5l57 42q8 5 13 5q10 0 16 -8.5
t6 -19.5q0 -8 -0.5 -15t-0.5 -15q0 -43 18.5 -77t63.5 -34q36 0 66 19.5t48.5 52t18.5 72.5q0 9 -3 19q-14 0 -29.5 2.5t-26 11t-10.5 26.5q0 15 15 15q16 0 37 -11.5t29 -22.5q11 -1 19.5 -1.5t10.5 -0.5q11 -1 22.5 -1h23.5q27 0 50.5 1.5t33.5 5.5h1q3 0 3 -3q0 -6 -6 -8
q-11 -4 -36 -7t-54.5 -5t-56.5 -2q2 -7 3.5 -14t1.5 -15q0 -28 -14.5 -55t-38.5 -49t-51 -35t-53 -13q-47 0 -75 21.5t-41.5 56t-18.5 72.5q-14 -14 -37.5 -34t-51.5 -42.5t-55.5 -42t-49.5 -32t-33 -12.5z" />
    <glyph glyph-name="x" unicode="x" horiz-adv-x="616" 
d="M55 -82q-6 0 -6 4q0 10 22 20q67 32 135 75.5t134 91.5q-18 28 -32.5 55t-24.5 47q-6 -3 -23 -16.5t-37.5 -30t-38 -31t-24.5 -19.5q-7 -6 -14 -6q-6 0 -4 7t19 20l55 50q17 16 32.5 33t29.5 34q11 12 19 12q10 0 18 -10.5t14 -26.5q8 -23 21.5 -47t26.5 -45q38 29 75 57
t73 54q20 14 35.5 27.5t34.5 26.5q0 1 0.5 2t0.5 2q0 8 -10 7.5t-15 -0.5h-9q-10 0 -8 5q14 8 34.5 14t25.5 6q25 0 25 -17q0 -8 -5.5 -18t-12.5 -17q-13 -11 -28.5 -23t-32.5 -25q-37 -28 -80.5 -59t-89.5 -63q16 -22 29.5 -37t20.5 -21q23 -20 46.5 -31.5t50.5 -11.5
q25 0 52 10q53 20 106 55t95 71q11 9 20.5 15t19.5 16q2 1 4 1q3 0 3 -3t-3 -8q-6 -8 -29 -29.5t-57 -48t-73.5 -51t-79.5 -38.5q-26 -10 -48.5 -14t-41.5 -4q-31 0 -54.5 10.5t-42.5 28.5q-28 27 -55 66q-71 -48 -141 -90t-126 -71q-21 -11 -31 -11z" />
    <glyph glyph-name="y" unicode="y" horiz-adv-x="427" 
d="M-123 -494q-28 0 -56 8t-46.5 26.5t-18.5 49.5v8t1 8q8 47 42 88.5t85.5 78t112 67t122.5 54t117 40t94 24.5q14 3 28 5t27 3q21 39 34 82.5t13 74.5t-13 41l-3 -3q-16 -16 -47 -51.5t-66 -64.5q-27 -22 -54 -36t-50 -14q-14 0 -26.5 6t-21.5 19q-10 14 -10 33
q0 32 23.5 69t57.5 71q3 4 11.5 11.5t14.5 11.5q-4 3 4 15t21.5 22t23.5 4q9 -5 15.5 -10.5t6.5 -11.5t-9 -15l-21 -20q-26 -25 -53 -52.5t-46 -53t-22 -44.5q-1 -4 -1 -7v-6q0 -29 22 -29q16 0 37.5 12.5t41 27.5t27.5 22q29 24 56.5 51t54.5 52q-1 6 6 15.5t31 9.5
q37 0 37 -57q0 -28 -10.5 -68.5t-32.5 -88.5l-4 -8t-4 -9q23 0 47 -3q32 -4 60 -12.5t35 -25.5q0 -1 0.5 -1.5l0.5 -0.5q0 -4 -4 -5.5t-6 2.5q-6 13 -32 19.5t-56 8.5q-14 2 -27 2t-27 -1q-31 -60 -76.5 -122.5t-100.5 -120t-116 -103t-124.5 -72t-125.5 -26.5zM-134 -478
q61 0 121.5 27.5t118 73.5t108 102t91.5 113.5t69 107.5q-12 -1 -24 -3t-25 -5q-67 -13 -142.5 -41t-149 -67t-138.5 -85q-64 -45 -92 -85t-28 -70q0 -31 25.5 -49.5t65.5 -18.5z" />
    <glyph glyph-name="z" unicode="z" horiz-adv-x="498" 
d="M587 -77q-2 0 -2 2t3 8q15 26 15 44q0 32 -36.5 43.5t-90.5 11.5q-43 0 -92.5 -5.5t-97 -14t-85 -17t-57.5 -13.5h-2q-7 0 -12 5t-5 11q0 13 17 19q2 0 4 0.5t3 0.5l3 3q29 14 57.5 26t56.5 25q9 4 33 17t54.5 31t59 37t47 36.5t18.5 29.5q0 8 -12 11.5t-31 3.5
q-28 0 -63.5 -5t-64.5 -11.5t-38 -10.5q-7 -3 -15.5 -6t-17.5 -11q-3 -2 -6 -7t-3 -11q0 -7 2 -11q0 -2 -2 -2q-6 0 -7 4q-4 6 -12.5 17.5t-8.5 24.5q0 16 31 29t83 20t115 5q13 0 34.5 -4t39 -12t17.5 -22q0 -7 -5.5 -15.5t-19.5 -19.5q-22 -18 -54 -38.5t-68.5 -40.5
t-70 -36.5t-58.5 -27.5l-45 -19q66 13 133.5 23t133.5 10q25 0 49.5 -1.5t48.5 -6.5q20 -4 39.5 -18t19.5 -42q0 -12 -5.5 -27.5t-18.5 -33.5q-5 -9 -11 -9z" />
    <glyph glyph-name="braceleft" unicode="{" horiz-adv-x="261" 
d="M132 -132q-21 0 -41.5 5t-32 20t-7.5 46q3 21 16 46t30.5 51t32.5 51t21 46q3 9 3 16q0 22 -21.5 32t-56.5 10q-2 0 -2 2t3 5t7 2q61 5 94 30.5t59 83.5q19 39 32 66t25 40q23 26 60 40t82 14q9 0 9 -5q0 -7 -12 -7q-42 0 -67 -15.5t-40.5 -41.5t-28.5 -58.5t-32 -66.5
q-18 -33 -54 -58t-80 -27q22 -1 37.5 -14.5t15.5 -35.5q0 -4 -0.5 -8t-1.5 -8q-9 -26 -27 -57.5t-35.5 -64.5t-25.5 -64q-4 -13 -4 -25q0 -23 17.5 -31.5t47.5 -11.5q5 -1 4.5 -3.5t-3.5 -2.5q-6 0 -12 -0.5t-12 -0.5z" />
    <glyph glyph-name="bar" unicode="|" horiz-adv-x="300" 
d="M122 -96q-4 0 -4 4q0 3 5 11q12 19 37 64.5t56.5 106.5t62.5 127.5t55.5 129.5t35.5 111q2 9 16 9q17 0 17 -20q0 -16 -11 -49q-15 -43 -40.5 -98.5t-55 -114.5t-59.5 -113.5t-55 -95.5t-40 -59q-11 -13 -20 -13z" />
    <glyph glyph-name="braceright" unicode="}" horiz-adv-x="340" 
d="M-1 -135q-9 0 -9 5q0 7 12 7q42 0 67 15.5t40.5 41.5t28.5 58.5t32 66.5q17 33 53.5 58.5t79.5 26.5q-22 2 -37 14.5t-15 34.5q0 4 0.5 8.5t1.5 8.5q9 27 27 58t35.5 64t25.5 64q4 13 4 25q0 23 -17.5 31.5t-47.5 11.5q-4 1 -4 3.5t3 2.5q6 0 12 0.5t12 0.5q22 0 42 -5
t31.5 -20t7.5 -46q-3 -21 -16 -46t-30.5 -51t-32.5 -51t-21 -46q-3 -9 -3 -16q0 -22 21.5 -32t56.5 -10q2 0 2 -2t-3 -5t-7 -2q-61 -5 -94 -30t-59 -84q-19 -39 -32 -66t-25 -40q-23 -26 -60 -40t-82 -14z" />
    <glyph glyph-name="asciitilde" unicode="~" horiz-adv-x="303" 
d="M202 396q-19 0 -49 13q-34 14 -50 14q-17 0 -33 -13t-21 -13q-1 1 -1 3q0 15 42 40q16 10 37 10q8 0 20 -2.5t28 -7.5t27.5 -8t19.5 -3q25 0 41 22q6 0 6 -4q0 -15 -39 -42q-13 -9 -28 -9z" />
    <glyph glyph-name="uni00A0" unicode="&#xa0;" horiz-adv-x="350" 
 />
    <glyph glyph-name="exclamdown" unicode="&#xa1;" horiz-adv-x="448" 
d="M311 263q-9 2 -9 12q0 9 6 21t16.5 18.5t20.5 6.5q9 0 15 -6t6 -15q0 -4 -1 -7.5t-3 -7.5q-5 -13 -21.5 -18t-29.5 -4zM133 -165q-7 -2 -24 3t-19 12q50 71 95.5 145t85.5 151q5 11 13 11q6 0 6 -6q0 -2 -10.5 -25t-27 -58.5t-36 -75.5t-37 -75t-30.5 -58t-16 -24z" />
    <glyph glyph-name="cent" unicode="&#xa2;" horiz-adv-x="494" 
d="M148 -70q-11 2 -11 10q2 9 12 34q22 57 43 89t34 52q-13 11 -20.5 27.5t-7.5 37.5q0 71 90 140q40 31 74 41.5t57 8.5q8 11 27.5 35t43 50.5t43.5 46t29 22.5q5 6 16 6q15 -3 14 -13q0 -1 -1 -2t-2 -3q-18 -18 -38.5 -38t-47 -48t-61.5 -71q7 -7 7 -18q0 -14 -8.5 -30
t-21 -27t-25.5 -11q-4 1 -3 7q0 8 6.5 15t6.5 16q3 16 -4.5 22.5t-21.5 6.5q-20 0 -45 -11.5t-39 -28.5q-21 -25 -32.5 -48.5t-16.5 -47.5q-1 -5 -1.5 -10t-0.5 -10q0 -29 18.5 -46t55.5 -17q73 0 165 86q14 11 20 11q7 0 7 -4q-2 -9 -19.5 -24t-41 -31.5t-46.5 -30
t-35 -18.5q-33 -15 -66 -15q-26 0 -56 11q-14 -19 -27.5 -39.5t-29 -51t-37.5 -79.5q-1 0 -1.5 -1t-1.5 -1z" />
    <glyph glyph-name="sterling" unicode="&#xa3;" horiz-adv-x="486" 
d="M704 -195q-12 0 -23 0.5t-19 1.5q-55 7 -102 32t-93 64t-98 87.5t-118 100.5q-10 -16 -26.5 -44.5t-34.5 -59.5t-33 -54.5t-23 -28.5q-7 -4 -20.5 2.5t-12.5 11.5q-12 14 -23.5 42.5t-21.5 63.5t-18 70.5t-13 64t-6 42.5q-2 38 8.5 51.5t20.5 13.5q24 0 67 -39t110 -96
q21 39 42 80.5t38 76.5t27 53h-143q-8 0 -8 7q0 8 18 8h142q44 88 86.5 149t79.5 96q69 67 116 67q30 0 47 -20q12 -15 12 -37v-7.5t-1 -7.5q-13 -79 -109 -122q-6 -3 -10 -3q-5 0 -5 4q2 4 6 9t12 10q11 6 24 17q28 23 43.5 49.5t15.5 57.5q0 27 -23 27q-6 0 -14 -3
q-62 -19 -139 -123q-15 -21 -38 -62t-58 -101h176q5 0 5 -6q0 -9 -23 -9h-168q-31 -55 -58.5 -116.5t-59.5 -118.5q62 -51 111 -93.5t93.5 -76t91 -56.5t102.5 -36q50 -11 87 -11q40 0 63.5 13.5t23.5 44.5q0 6 -1 13.5t-3 14.5q-1 4 -1.5 7t-0.5 5q0 8 3 8q4 0 8 -13
q7 -21 7 -39q0 -34 -22 -51.5t-54 -24t-62 -6.5zM110 -71q15 16 43 67.5t65 121.5q-54 45 -91 74.5t-57 30.5h-2q-17 0 -17 -22q0 -12 3 -39.5t8 -62.5t12.5 -69.5t16.5 -62t19 -38.5z" />
    <glyph glyph-name="currency" unicode="&#xa4;" horiz-adv-x="537" 
d="M400 149q-2 0 -4.5 0.5t-6.5 1.5t-8.5 6t-6.5 10q-7 11 -15 31.5t-16 46.5q-43 -27 -85 -27q-32 0 -55 17q-21 -22 -44.5 -43t-33.5 -28q-9 -7 -16 -3q-10 6 -10 15q0 5 3 9q11 20 79 75q-11 20 -11 47q0 19 8 43q9 27 27 51t41 42q-30 63 -30 82q0 15 23 19q1 0 1.5 0.5
t1.5 0.5q7 0 11 -8q5 -10 11 -28.5t13 -44.5q36 19 70 19q30 0 52 -16q21 26 38.5 44t28.5 28q9 9 18 9q26 0 17 -16q-5 -9 -25.5 -30.5t-56.5 -55.5q7 -10 11 -23.5t4 -28.5q0 -20 -8 -44q-16 -49 -57 -85q20 -42 29.5 -68t10.5 -36v-4q0 -8 -9 -8zM271 250q35 0 69.5 29
t47.5 70q3 9 4 17.5t1 15.5q0 29 -16 48t-44 19q-35 0 -69.5 -29.5t-48.5 -70.5q-5 -18 -5 -32q0 -29 16.5 -48t44.5 -19z" />
    <glyph glyph-name="yen" unicode="&#xa5;" horiz-adv-x="412" 
d="M249 -15q-10 0 -9 6q2 15 12 41.5t23.5 56.5t24.5 53q-19 -1 -35.5 -2t-14.5 -1q-3 0 -8 6q-3 6 -3 11l1 2q4 1 25.5 2t43.5 2q3 8 9.5 22t13.5 34q-6 0 -29 -3q-16 -3 -28 -3q-2 0 -7 8q-5 7 -5 9v2q8 2 26.5 3t48.5 1q4 11 6 33.5t2 50.5t-2 57t-4 51q-2 9 22 9
q22 0 22 -53q0 -11 -1 -24.5t-3 -29.5q-3 -29 -7.5 -52.5t-12.5 -41.5h3q27 26 57 57.5t70 63.5q55 47 89 67.5t44 20.5q5 0 7 -1l-3 -7q-72 -46 -131 -95.5t-109 -106.5q20 -1 42.5 -3t26.5 -4l2 -2q0 -3 -4 -3q-12 0 -36.5 -0.5t-44.5 -1.5q-11 -15 -17.5 -31t-14.5 -31
h38q20 0 31.5 -0.5t16.5 -3.5q2 0 2 -2q0 -5 -5 -5q-19 0 -41 -2.5t-51 -4.5q-13 -30 -28 -70t-26 -72q-4 -13 -29 -13z" />
    <glyph glyph-name="brokenbar" unicode="&#xa6;" horiz-adv-x="300" 
d="M291 243q27 59 48 115.5t31 99.5q2 9 16 9q17 0 17 -20q0 -16 -11 -49q-11 -31 -27.5 -69t-36.5 -79zM122 -96q-4 0 -4 4q0 3 5 11q11 17 31.5 54t47 87t53.5 106l34 5q-28 -56 -56.5 -107.5t-52 -90t-38.5 -56.5q-11 -13 -20 -13z" />
    <glyph glyph-name="section" unicode="&#xa7;" horiz-adv-x="520" 
d="M268 -194q-52 0 -98 24t-80 63t-50 82l-2 6t-1 4q0 3 2 3q4 0 15 -10q50 -82 100.5 -115t87.5 -33q25 0 41 12t18 31q0 3 0.5 6t0.5 6q0 25 -8.5 55t-19.5 59t-18 51q-12 36 -27 74t-25 76t-8 72q2 48 34 80t78 51q-4 18 -6 35.5t-1 34.5q2 46 30.5 77.5t73 50t94.5 27
t95 8.5q44 0 89 -8.5t83 -25t61 -40.5t23 -55q0 -22 -17.5 -40t-45 -30.5t-57 -19t-52.5 -6.5q-13 0 -13 5q0 3 8 3q23 0 50.5 6t52 17.5t40.5 27t16 34.5q0 28 -23 46t-59.5 28.5t-76.5 14.5t-74 4q-79 0 -130 -13.5t-79 -34t-40.5 -42.5t-15.5 -40.5t-3 -27.5
q0 -46 13 -91t29 -88q20 -52 37.5 -93t21.5 -49q6 -16 8.5 -28.5t2.5 -23.5q0 -25 -12 -38t-28.5 -17t-29.5 -4q-48 0 -94 22q17 -42 30.5 -73t17.5 -39q6 -16 8.5 -28.5t2.5 -23.5q0 -25 -12 -38t-28.5 -17t-29.5 -4zM346 31q26 0 42 12t18 31q0 3 0.5 6t0.5 6
q0 25 -8.5 55t-19.5 59.5t-18 50.5q-10 28 -22 57t-21 59q-45 -20 -64 -46.5t-23.5 -49.5t-4.5 -33q0 -46 13 -91t29 -88q0 -2 1 -2q42 -26 77 -26z" />
    <glyph glyph-name="dieresis" unicode="&#xa8;" horiz-adv-x="370" 
d="M249 369q-20 0 -20 21q0 8 3 15q5 13 19.5 17.5t27.5 4.5t13 -12q0 -9 -6 -21t-16.5 -18.5t-20.5 -6.5zM125 369q-20 0 -20 21q0 8 3 15q5 13 19.5 17.5t27.5 4.5t13 -12q0 -9 -6 -21t-16.5 -18.5t-20.5 -6.5z" />
    <glyph glyph-name="copyright" unicode="&#xa9;" horiz-adv-x="695" 
d="M367 29q-78 0 -127 35.5t-49 120.5q0 48 22.5 96.5t61 91.5t86.5 76.5t99.5 53t99.5 19.5q93 0 132 -43t39 -115q0 -48 -22 -96t-59.5 -91t-85 -76.5t-98.5 -52.5t-99 -19zM385 54q53 0 107 26t99.5 69.5t73.5 97t28 109.5q0 60 -31 99t-96 39q-69 0 -130.5 -26
t-108 -70.5t-73.5 -100t-27 -113.5q0 -70 44 -100t114 -30zM382 127q-32 0 -54.5 14.5t-22.5 49.5q0 43 22.5 85.5t59 77.5t81.5 56t90 21q43 0 43 -37q0 -27 -21 -23l2 12t1 11q0 9 -5 15.5t-22 6.5q-26 0 -64.5 -17.5t-74.5 -58.5q-73 -84 -73 -152q0 -42 40 -42
q20 0 47 9.5t60 28.5q64 37 60 38q2 0 2 -2q0 -16 -16 -32.5t-42 -30t-56 -22t-57 -8.5z" />
    <glyph glyph-name="ordfeminine" unicode="&#xaa;" horiz-adv-x="557" 
d="M444 485q-30 0 -52.5 15t-22.5 56q1 21 7.5 43.5t14.5 42.5q-13 -15 -39 -40t-58.5 -50.5t-66.5 -43.5t-64 -18t-49 22q-13 14 -13 38q0 28 18.5 61t49 64.5t66 56.5t69.5 36q47 15 74 15q29 0 42.5 -15.5t17.5 -44.5v-3q0 -7 -3.5 -11.5t-6.5 -4.5q-5 0 -5 8
q0 5 -1.5 14.5t-9 18t-25.5 8.5q-25 0 -57 -14t-65 -37.5t-62 -51t-48 -54.5t-22 -48q-1 -3 -1 -6v-5q0 -18 7.5 -25t19.5 -7q18 0 41.5 11t43.5 25t28 21q32 27 72 59.5t71 60.5q5 3 11 3q14 0 23 -7q3 -3 3 -8t-2.5 -12.5t-6.5 -16.5q-17 -35 -28 -63t-11 -47
q0 -30 33 -30q25 0 74 18q53 20 106 55t96 71q11 9 20 15t19 16q2 1 5 1t3 -3t-4 -8q-6 -8 -29 -29.5t-57 -48t-73.5 -51t-79.5 -38.5q-15 -5 -34.5 -9.5t-38.5 -4.5z" />
    <glyph glyph-name="guillemotleft" unicode="&#xab;" horiz-adv-x="544" 
d="M452 53q-3 0 -7 8q-12 26 -34 57.5t-47 62t-46 53.5q-2 2 0 6q2 5 23 25t61 57q35 32 65 56t44 36q13 10 21 10q9 0 9 -8q0 -5 -4 -9l-36 -33t-51 -47.5t-48 -48t-29 -34.5q17 -41 35.5 -74t32.5 -53t15 -24q3 -9 3 -19q0 -8 -2 -14.5t-5 -6.5zM275 53q-3 0 -7 8
q-12 26 -34 57.5t-47 62t-46 53.5q-2 2 0 6q2 5 23 25t61 57q35 32 65 56t44 36q13 10 21 10q9 0 9 -8q0 -5 -4 -9l-36 -33t-51 -47.5t-48 -48t-29 -34.5q17 -41 35.5 -74t32.5 -53t15 -24q3 -9 3 -19q0 -8 -2 -14.5t-5 -6.5z" />
    <glyph glyph-name="logicalnot" unicode="&#xac;" horiz-adv-x="411" 
d="M333 56v86h-325v31q89 0 178 0.5t178 0.5v-118h-31z" />
    <glyph glyph-name="uni00AD" unicode="&#xad;" horiz-adv-x="512" 
d="M223 168q-10 0 -10 7q0 5 7.5 10.5t23.5 9.5q12 2 36.5 3.5t44.5 1.5q11 0 23 0.5t26 0.5q17 0 36.5 -1.5t41.5 -6.5q23 -6 23 -9q0 -2 -6.5 -3.5t-16.5 -2.5q-52 -3 -112.5 -6.5t-116.5 -3.5z" />
    <glyph glyph-name="registered" unicode="&#xae;" horiz-adv-x="689" 
d="M367 29q-78 0 -127 35.5t-49 120.5q0 48 22.5 96.5t61 91.5t86.5 76.5t99.5 53t99.5 19.5q93 0 132 -43t39 -115q0 -48 -22 -96t-59.5 -91t-85 -76.5t-98.5 -52.5t-99 -19zM385 54q53 0 107 26t99.5 69.5t73.5 97t28 109.5q0 60 -31 99t-96 39q-69 0 -130.5 -26
t-108 -70.5t-73.5 -100t-27 -113.5q0 -70 44 -100t114 -30zM303 127q-7 0 -14 2t-9 6q11 2 26.5 25t33 57.5t34.5 71.5t31 68t21 46q3 7 19.5 14.5t71.5 20.5q33 -2 48 -18.5t15 -38.5q0 -31 -27.5 -61.5t-75.5 -38.5l-34 -1q12 -28 28 -57t36.5 -49t43.5 -20q20 0 36 15
q-6 -8 -13 -16.5t-15 -16.5q-14 -7 -28 -7q-26 0 -48.5 21.5t-40 55t-30.5 68.5l5 7.5t9 7.5q44 0 70.5 14t38.5 34t12 39t-10 32t-27 13q-25 0 -36 -8.5t-23 -29.5q-26 -44 -48.5 -94t-45.5 -103q-14 -33 -21.5 -44.5t-24.5 -14.5h-8z" />
    <glyph glyph-name="macron" unicode="&#xaf;" horiz-adv-x="228" 
d="M39 378q-20 0 -20 7q0 13 35 25q17 6 45 6q17 0 40.5 -2t52.5 -6q26 -3 26 -10q0 -8 -26 -8q-18 0 -54 -3q-15 -1 -38.5 -5t-55.5 -4h-5z" />
    <glyph glyph-name="degree" unicode="&#xb0;" horiz-adv-x="500" 
d="M259 218q-40 0 -63.5 25t-23.5 63q0 23 7 44q13 37 40 67t61 48t68 18q40 0 63.5 -25t23.5 -63q0 -19 -8 -45q-12 -36 -39 -66t-61 -48t-68 -18zM272 250q35 0 69.5 29t47.5 70q3 9 4 17.5t1 15.5q0 29 -16 48t-44 19q-35 0 -69.5 -29.5t-48.5 -70.5q-5 -18 -5 -32
q0 -29 16.5 -48t44.5 -19z" />
    <glyph glyph-name="plusminus" unicode="&#xb1;" horiz-adv-x="486" 
d="M299 85q-2 0 -2 6t1.5 15t2.5 14q1 6 6 23t11.5 38t13 39.5t10.5 27.5q-8 0 -26 -2t-36 -3.5t-27 -1.5q-5 0 -13 8q-8 10 -8 15q1 1 2 1.5l1 0.5q14 2 27.5 3.5t34 2.5t54.5 1q10 26 16 43t12.5 34.5t16.5 44.5q2 5 11.5 9.5t17.5 4.5q11 0 11 -9l-9.5 -28.5t-12.5 -35
t-25 -63.5q56 -1 81 -4t44 -8q4 -1 4 -3q-2 -5 -11 -5q-27 0 -54 -1t-74 -3q-22 -47 -34 -73t-17 -38t-7 -17t-5 -10.5t-10 -19.5q0 -1 -3 -3.5t-4 -2.5zM159 4q-10 0 -10 7q0 5 7.5 10.5t23.5 9.5q12 2 36.5 3.5t44.5 1.5q11 0 23 0.5t26 0.5q17 0 36.5 -1.5t41.5 -6.5
q23 -6 23 -9q0 -2 -6.5 -3.5t-16.5 -2.5q-52 -3 -112.5 -6.5t-116.5 -3.5z" />
    <glyph glyph-name="uni00B2" unicode="&#xb2;" horiz-adv-x="560" 
d="M488 280q-2 0 -2 2t3 8q15 26 15 44q0 32 -36.5 43.5t-90.5 11.5q-43 0 -92.5 -5.5t-97 -14t-85 -17t-57.5 -13.5h-2q-7 0 -12 5t-5 11q0 13 17 19l39 7q20 7 45 23.5t50 29.5q40 23 78 50.5t82 63.5q121 96 130 148q5 39 -47 39q-43 0 -82.5 -11.5t-71.5 -27.5
t-53.5 -31t-27.5 -23q10 -9 19 -18.5t14 -20.5q8 -15 8 -27q0 -10 -6 -14.5t-14 -4.5q-13 0 -28 8.5t-24.5 23.5t-6.5 34q2 7 4.5 15t8.5 13q-4 3 -8.5 7.5t-11.5 10.5q-3 3 -3 5q0 3 4 4t8 -3l10 -10t9 -7q6 6 26 23t55 35.5t85 27.5l35 5t43 3q25 0 47 -5.5t35 -20
t10 -42.5q-7 -33 -36 -65t-70.5 -62.5t-88.5 -59t-91.5 -55t-77.5 -50.5q57 11 114.5 18t113.5 7q25 0 49 -1.5t47 -5.5q20 -4 39.5 -18t19.5 -42q0 -12 -5.5 -27.5t-18.5 -33.5q-5 -9 -11 -9zM202 577q5 0 5 8t-3 14q-9 17 -28 33q0 -4 1.5 -18.5t14.5 -30.5q6 -6 10 -6z
" />
    <glyph glyph-name="uni00B3" unicode="&#xb3;" horiz-adv-x="528" 
d="M161 305q-48 0 -83.5 16.5t-35.5 56.5q0 32 26 61t62.5 51.5t69.5 32.5q2 1 5 1q4 0 4 -3q0 -5 -8 -8q-26 -10 -55 -31t-48.5 -49t-19.5 -59t22 -42.5t53 -11.5q25 0 51.5 5.5t50.5 12.5q71 23 115 59t64 72.5t20 60.5q0 31 -21 49t-68 14h-1q-25 -4 -34 -5.5t-16 -2.5
q-10 -3 -17 -3q-12 0 -12 7q0 19 26 16q2 -1 4.5 -1t6.5 -2q8 0 11 -1q18 1 32 6t38 21q29 18 40.5 34t11.5 28t-9.5 19.5t-24.5 8.5q-7 1 -14 1.5t-14 0.5q-38 0 -71 -12t-51 -33q-4 -4 -7 -4t-3 4q0 8 8 16q33 34 74.5 44.5t75.5 10.5q11 0 20.5 -0.5t16.5 -1.5
q19 -2 34 -15.5t13 -33.5q-2 -23 -20 -41.5t-43.5 -32t-52.5 -22.5q29 1 59.5 -7t40.5 -35q6 -16 6 -33q0 -34 -21 -66t-53 -58.5t-66.5 -45.5t-61.5 -28q-28 -9 -62.5 -15t-67.5 -6z" />
    <glyph glyph-name="acute" unicode="&#xb4;" horiz-adv-x="293" 
d="M89 379q-4 0 -4 2q0 4 20 15q30 17 58.5 37t47.5 35q11 2 22.5 -8t8.5 -15q-14 -8 -36 -19t-45.5 -21.5t-41.5 -18.5q-6 -2 -15.5 -4.5t-14.5 -2.5z" />
    <glyph glyph-name="uni03BC" unicode="&#xb5;" horiz-adv-x="555" 
d="M61 -278q-2 0 -13 4.5t-22.5 11.5t-17.5 13q-6 8 -8 20.5t-2 15.5q0 41 20 92.5t51 105t65.5 101.5t65.5 83.5t49 50.5q-3 1 -6.5 1h-6.5h-9q-11 0 -11 6q0 8 14.5 20t35 22t37.5 10q10 0 17 -4l-3 -28q-12 -5 -44.5 -38.5t-71.5 -83.5q-29 -46 -32 -75q-1 -4 -1 -7v-6
q0 -29 22 -29q16 0 37.5 12.5t41 27.5t27.5 22q32 27 67 57.5t67 58.5q5 3 11 3q10 0 16 -6q3 -3 3 -8q0 -13 -12.5 -37t-25.5 -50.5t-13 -48.5q0 -20 11.5 -27.5t27.5 -7.5q20 0 43 7t36 12q53 20 106 55t96 71q11 9 20.5 16.5t19.5 17.5q7 7 9 7q1 0 1 -2t-2.5 -7l-4.5 -9
q-9 -15 -33.5 -38t-58 -48t-72 -47t-76 -36t-69.5 -14q-46 0 -63 20.5t-17 49.5q0 21 7 44t15 43q-14 -15 -38 -40t-53 -50.5t-59.5 -43t-56.5 -17.5q-13 0 -25 6t-21 19q-4 5 -6 11.5t-3 13.5q-30 -45 -55.5 -92.5t-40 -92.5t-12.5 -83q0 -5 2 -15.5t7 -19.5t15 -9
q12 0 12 -5q0 -6 -10 -6z" />
    <glyph glyph-name="paragraph" unicode="&#xb6;" horiz-adv-x="664" 
d="M82 -113q-1 0 -1 2q0 4 9 20q40 75 90 160.5t103 175.5t102 176q-38 -17 -84.5 -28.5t-103.5 -11.5q-37 0 -54 13t-17 33q0 16 9 34q17 32 52.5 63t72.5 55q29 20 72 38t92 33.5t97 25.5l3 7q6 11 12 11q7 0 12 -13q25 5 48 7.5t43 4.5q9 0 12 -1q8 6 14.5 -6t4.5 -25
q-3 -18 -24.5 -60.5t-55 -101t-74.5 -125.5t-83.5 -135.5t-82 -130.5t-70 -110.5t-47.5 -75.5q-22 -34 -31 -34q-1 0 -1 2q0 4 9 20q37 68 82 146.5t93.5 160.5t96 163t88.5 156t70 137l-2 6q-10 0 -33.5 -3.5t-54.5 -11.5v-3q-1 -7 -7 -20.5t-21.5 -41.5t-44.5 -78
t-76.5 -129t-118 -194t-169.5 -275q-22 -36 -31 -36z" />
    <glyph glyph-name="periodcentered" unicode="&#xb7;" horiz-adv-x="361" 
d="M314 222q-20 0 -20 21q0 8 3 15q5 14 21.5 19t29.5 3q9 -1 9 -12q0 -9 -6 -21t-16.5 -18.5t-20.5 -6.5z" />
    <glyph glyph-name="cedilla" unicode="&#xb8;" horiz-adv-x="224" 
d="M24 -280q-9 0 -9 11q0 5 9 8l36 6t36 5q35 11 35 58q0 13 -26 50q-26 38 -26 57q0 35 19 60q20 27 51 27q11 0 12 -7q-22 -4 -34 -22t-12 -41q0 -11 29 -48q29 -38 29 -65q0 -47 -53 -76q-44 -23 -96 -23z" />
    <glyph glyph-name="uni00B9" unicode="&#xb9;" horiz-adv-x="366" 
d="M48 312q-3 -1 -8 -1q-16 0 -16 17q0 7 5.5 14.5t18.5 11.5q24 8 54 11.5t61 4.5v1q0 3 1 6q21 42 42 94t40 102.5t34 86.5q-1 0 -13 -9t-29.5 -22t-35.5 -26.5t-30.5 -23t-14.5 -10.5q-7 -7 -13 -7q-4 0 -4 5t7 13q5 5 22.5 19.5t41.5 34t48.5 40t45.5 37.5t31 26
q1 1 6 1q28 0 29 -28q-34 -47 -68.5 -105.5t-65.5 -119t-56 -114.5q39 1 76.5 1t67.5 4q5 0 6 -5t-4 -4q-41 -3 -91.5 -11.5t-100 -19.5t-87.5 -24z" />
    <glyph glyph-name="ordmasculine" unicode="&#xba;" horiz-adv-x="450" 
d="M141 485q-36 0 -51.5 19t-15.5 43q0 8 1 15.5t4 14.5q8 24 25 49t39 44t43 23q4 1 14.5 -3.5t20 -10t9.5 -7.5q2 -2 2.5 -7.5t-6.5 -0.5q-9 6 -27.5 -6t-37 -30.5t-29.5 -30.5q-11 -15 -20.5 -33.5t-9.5 -33.5q0 -12 8 -19.5t28 -7.5q5 0 10.5 0.5t12.5 1.5
q20 4 49.5 18.5t62 37.5t60.5 49q17 15 32.5 35t25.5 40q-37 1 -75.5 3.5t-71.5 9t-53 17.5q-13 8 -19 16t-6 15t4.5 11.5t9.5 4.5t9 -3t7.5 -6t7.5 -5q38 22 75 30.5t64 8.5q31 0 55 -13t28 -45q2 -14 0 -26q17 -1 34 -1h32q30 0 62.5 4.5t60 11.5t41.5 14q7 4 11 4t4 -3
q0 -7 -16 -14q-22 -10 -67.5 -20.5t-95.5 -12.5q-13 -1 -31 -1.5t-39 -0.5q-10 -41 -41.5 -77t-74 -63.5t-86.5 -43t-79 -15.5zM399 704q4 11 4 23q0 17 -13 29t-45 13q-34 0 -65 -8t-57 -22q38 -17 84 -25t92 -10z" />
    <glyph glyph-name="guillemotright" unicode="&#xbb;" horiz-adv-x="577" 
d="M332 47q-9 0 -9 8q0 5 4 9l36 33t51 47.5t48.5 48t28.5 34.5q-16 41 -35 74t-32.5 53.5t-15.5 23.5q-3 9 -3 19q0 8 2 14.5t5 6.5t7 -8q12 -26 34 -57.5t47.5 -62t45.5 -53.5q2 -2 0 -6q-1 -5 -22 -24.5t-62 -57.5q-35 -32 -65 -56t-44 -36q-13 -10 -21 -10zM155 47
q-9 0 -9 8q0 5 4 9l36 33t51 47.5t48.5 48t28.5 34.5q-16 41 -35 74t-32.5 53.5t-15.5 23.5q-3 9 -3 19q0 8 2 14.5t5 6.5t7 -8q12 -26 34 -57.5t47.5 -62t45.5 -53.5q2 -2 0 -6q-1 -5 -22 -24.5t-62 -57.5q-35 -32 -65 -56t-44 -36q-13 -10 -21 -10z" />
    <glyph glyph-name="onequarter" unicode="&#xbc;" horiz-adv-x="916" 
d="M48 312q-3 -1 -8 -1q-16 0 -16 17q0 7 5.5 14.5t18.5 11.5q24 8 54 11.5t61 4.5v1q0 3 1 6q21 42 42 94t40 102.5t34 86.5q-1 0 -13 -9t-29.5 -22t-35.5 -26.5t-30.5 -23t-14.5 -10.5q-7 -7 -13 -7q-4 0 -4 5t7 13q5 5 22.5 19.5t41.5 34t48.5 40t45.5 37.5t31 26
q1 1 6 1q28 0 29 -28q-34 -47 -68.5 -105.5t-65.5 -119t-56 -114.5q39 1 76.5 1t67.5 4q5 0 6 -5t-4 -4q-41 -3 -91.5 -11.5t-100 -19.5t-87.5 -24zM208 87q-4 0 -9.5 3t-4.5 7q2 9 30 46q123 169 390 386q17 14 42.5 34t60.5 45q8 5 15 3q20 0 17 -13q0 -1 -3 -4l-92 -70
q-152 -118 -250 -213.5t-152 -167.5q-4 -6 -13 -18.5t-21 -32.5q-3 -5 -10 -5zM546 -62q-5 0 -5 7q0 8 7 23q13 28 26.5 58.5t26.5 61.5q-42 5 -78 14t-65 13q-12 -13 -25 -18.5t-26 -5.5q-19 0 -32.5 8.5t-13.5 16.5q0 6 6 9q11 6 23.5 8t25.5 2q19 0 40 -3q17 14 46 39.5
t64 56.5t70.5 63.5t66.5 62t51 50.5q1 1 6 1q6 0 16 -5.5t16 -12.5t-1 -14q-40 -52 -80.5 -122.5t-75.5 -142.5q51 2 102.5 14t90.5 36t52 61q3 8 5 16t2 15q0 15 -12 20q-4 3 -4 5q0 6 7 4q12 -4 17 -16t5 -26v-9.5t-2 -9.5q-19 -63 -72.5 -93t-118.5 -38
q-12 -1 -23.5 -1.5t-22.5 -0.5h-18t-18 1q-16 -34 -31 -66.5t-28 -61.5q-8 -20 -20 -20zM610 107q24 55 46.5 108t39.5 96q-20 -20 -52.5 -47t-68 -55t-63.5 -50t-39 -31q18 -4 34.5 -8t31.5 -7q30 -6 71 -6z" />
    <glyph glyph-name="onehalf" unicode="&#xbd;" horiz-adv-x="886" 
d="M48 312q-3 -1 -8 -1q-16 0 -16 17q0 7 5.5 14.5t18.5 11.5q24 8 54 11.5t61 4.5v1q0 3 1 6q21 42 42 94t40 102.5t34 86.5q-1 0 -13 -9t-29.5 -22t-35.5 -26.5t-30.5 -23t-14.5 -10.5q-7 -7 -13 -7q-4 0 -4 5t7 13q5 5 22.5 19.5t41.5 34t48.5 40t45.5 37.5t31 26
q1 1 6 1q28 0 29 -28q-34 -47 -68.5 -105.5t-65.5 -119t-56 -114.5q39 1 76.5 1t67.5 4q5 0 6 -5t-4 -4q-41 -3 -91.5 -11.5t-100 -19.5t-87.5 -24zM208 87q-4 0 -9.5 3t-4.5 7q2 9 30 46q123 169 390 386q17 14 42.5 34t60.5 45q8 5 15 3q20 0 17 -13q0 -1 -3 -4l-92 -70
q-152 -118 -250 -213.5t-152 -167.5q-4 -6 -13 -18.5t-21 -32.5q-3 -5 -10 -5zM841 -86q-2 0 -2 2t3 8q15 26 15 44q0 32 -36.5 43.5t-90.5 11.5q-43 0 -92.5 -5.5t-97 -14t-85 -17t-57.5 -13.5h-2q-7 0 -12 5t-5 11q0 13 17 19l39 7q20 7 45 23.5t50 29.5q40 23 78 50.5
t82 63.5q121 96 130 148q5 39 -47 39q-43 0 -82.5 -11.5t-71.5 -27.5t-53.5 -31t-27.5 -23q10 -9 19 -18.5t14 -20.5q8 -15 8 -27q0 -10 -6 -14.5t-14 -4.5q-13 0 -28 8.5t-24.5 23.5t-6.5 34q2 7 4.5 15t8.5 13q-4 3 -8.5 7.5t-11.5 10.5q-3 3 -3 5q0 3 4 4t8 -3l10 -10
t9 -7q6 6 26 23t55 35.5t85 27.5l35 5t43 3q25 0 47 -5.5t35 -20t10 -42.5q-7 -33 -36 -65t-70.5 -62.5t-88.5 -59t-91.5 -55t-77.5 -50.5q57 11 114.5 18t113.5 7q25 0 49 -1.5t47 -5.5q20 -4 39.5 -18t19.5 -42q0 -12 -5.5 -27.5t-18.5 -33.5q-5 -9 -11 -9zM555 211
q5 0 5 8t-3 14q-9 17 -28 33q0 -4 1.5 -18.5t14.5 -30.5q6 -6 10 -6z" />
    <glyph glyph-name="threequarters" unicode="&#xbe;" horiz-adv-x="981" 
d="M161 305q-48 0 -83.5 16.5t-35.5 56.5q0 32 26 61t62.5 51.5t69.5 32.5q2 1 5 1q4 0 4 -3q0 -5 -8 -8q-26 -10 -55 -31t-48.5 -49t-19.5 -59t22 -42.5t53 -11.5q25 0 51.5 5.5t50.5 12.5q71 23 115 59t64 72.5t20 60.5q0 31 -21 49t-68 14h-1q-25 -4 -34 -5.5t-16 -2.5
q-10 -3 -17 -3q-12 0 -12 7q0 19 26 16q2 -1 4.5 -1t6.5 -2q8 0 11 -1q18 1 32 6t38 21q29 18 40.5 34t11.5 28t-9.5 19.5t-24.5 8.5q-7 1 -14 1.5t-14 0.5q-38 0 -71 -12t-51 -33q-4 -4 -7 -4t-3 4q0 8 8 16q33 34 74.5 44.5t75.5 10.5q11 0 20.5 -0.5t16.5 -1.5
q19 -2 34 -15.5t13 -33.5q-2 -23 -20 -41.5t-43.5 -32t-52.5 -22.5q29 1 59.5 -7t40.5 -35q6 -16 6 -33q0 -34 -21 -66t-53 -58.5t-66.5 -45.5t-61.5 -28q-28 -9 -62.5 -15t-67.5 -6zM282 87q-4 0 -9.5 3t-4.5 7q2 9 30 46q123 169 390 386q17 14 42.5 34t60.5 45q8 5 15 3
q20 0 17 -13q0 -1 -3 -4l-92 -70q-152 -118 -250 -213.5t-152 -167.5q-4 -6 -13 -18.5t-21 -32.5q-3 -5 -10 -5zM587 -62q-5 0 -5 7q0 8 7 23q13 28 26.5 58.5t26.5 61.5q-42 5 -78 14t-65 13q-12 -13 -25 -18.5t-26 -5.5q-19 0 -32.5 8.5t-13.5 16.5q0 6 6 9q11 6 23.5 8
t25.5 2q19 0 40 -3q17 14 46 39.5t64 56.5t70.5 63.5t66.5 62t51 50.5q1 1 6 1q6 0 16 -5.5t16 -12.5t-1 -14q-40 -52 -80.5 -122.5t-75.5 -142.5q51 2 102.5 14t90.5 36t52 61q3 8 5 16t2 15q0 15 -12 20q-4 3 -4 5q0 6 7 4q12 -4 17 -16t5 -26v-9.5t-2 -9.5
q-19 -63 -72.5 -93t-118.5 -38q-12 -1 -23.5 -1.5t-22.5 -0.5h-18t-18 1q-16 -34 -31 -66.5t-28 -61.5q-8 -20 -20 -20zM651 107q24 55 46.5 108t39.5 96q-20 -20 -52.5 -47t-68 -55t-63.5 -50t-39 -31q18 -4 34.5 -8t31.5 -7q30 -6 71 -6z" />
    <glyph glyph-name="questiondown" unicode="&#xbf;" horiz-adv-x="500" 
d="M375 263q-9 2 -9 12q0 9 6 21t16.5 18.5t20.5 6.5q9 0 15 -6t6 -15q0 -4 -1 -7.5t-3 -7.5q-5 -13 -21.5 -18t-29.5 -4zM112 -252q-11 0 -22.5 0.5t-23.5 1.5q-25 2 -42 15t-17 38v6.5t1 7.5q7 35 40 72.5t79 75t93.5 73.5t84.5 68.5t52 58.5q1 13 9 13q6 0 6 -12
q0 -6 -3 -15q-13 -29 -40.5 -60.5t-62 -61.5t-68.5 -57q-68 -54 -110 -101.5t-42 -73.5q0 -33 50 -33q45 0 86.5 11.5t75.5 28.5t56 32.5t29 23.5q-10 10 -19.5 20t-15.5 21q-8 16 -8 28q0 19 21 19q14 0 29.5 -9t26 -24t6.5 -35q-1 -7 -4 -15.5t-10 -13.5q5 -3 9.5 -8
t11.5 -11q3 -3 3 -5q0 -3 -3.5 -4t-8.5 3l-20 18q-6 -6 -23.5 -21.5t-48 -32.5t-74.5 -29.5t-103 -12.5zM352 -130q0 5 -1 20t-15 31q-7 7 -11 7q-5 0 -5 -9q0 -8 3 -14q5 -10 12 -17.5t17 -17.5z" />
    <glyph glyph-name="Agrave" unicode="&#xc0;" horiz-adv-x="1006" 
d="M-5 -215q-17 0 -39.5 10.5t-32.5 36.5q-5 13 -5 25q0 29 21 63t55 70q37 38 96 86t133 100.5t156 104.5t165.5 98t161 81t143 54t110.5 16q37 -2 63.5 -34t26.5 -82q0 -41 -13.5 -91.5t-35 -103.5t-47.5 -100q41 5 78.5 14.5t61 26t21.5 40.5v2q0 9 4 9q7 0 7 -16
q0 -27 -26.5 -46t-67.5 -30t-85 -17q-6 -13 -15 -38t-12 -43q-1 -3 -1 -6.5v-7.5q0 -10 1.5 -18t1.5 -11q2 -14 -9.5 -24t-22.5 -10q-14 0 -15 13q-1 2 -1 11q-5 14 -16.5 34.5t-24 40.5t-24 34.5t-16.5 15.5q-7 2 -47 9q-25 5 -64.5 11t-77 15.5t-60.5 22.5q-28 16 -28 35
q0 9 5 15q9 11 23.5 16t33.5 5q29 0 63.5 -10t68 -26t61 -34.5t41.5 -36.5q8 -1 20 -1.5t27 -0.5q30 0 66 3q21 51 40.5 109.5t32 113t12.5 91.5q0 42 -22.5 58.5t-57.5 16.5q-56 0 -124.5 -22t-144.5 -60t-154 -87t-153 -102.5t-140.5 -106.5t-117.5 -100t-84 -82
q-34 -37 -34 -81q0 -18 7.5 -34t23.5 -27q7 -6 7 -10q0 -8 -20 -8zM761 121q-15 11 -42 25t-57.5 25t-59.5 13h-11q-22 0 -22 -8q0 -5 8.5 -11.5t16.5 -9.5q20 -7 52 -14.5t64.5 -13t50.5 -6.5zM886 4l2 12t2 13q4 17 8.5 35t10.5 34q-25 -1 -47 -2t-37 0q14 -16 31.5 -41
t29.5 -51zM1025.79 589.541q0 -3.40039 -11.0498 -0.850586t-17.8496 5.9502q-15.2998 6.7998 -35.2734 15.7246q-19.9746 8.9248 -38.6738 18.2744q-18.7002 9.34961 -30.5996 16.1494q-2.5498 4.25 7.64941 12.75q10.2002 8.49902 18.7002 6.7998
q16.1494 -12.75 40.374 -29.3242q24.2236 -16.5752 49.7227 -31.874q17 -10.2002 17 -13.5996z" />
    <glyph glyph-name="Aacute" unicode="&#xc1;" horiz-adv-x="1006" 
d="M-5 -215q-17 0 -39.5 10.5t-32.5 36.5q-5 13 -5 25q0 29 21 63t55 70q37 38 96 86t133 100.5t156 104.5t165.5 98t161 81t143 54t110.5 16q37 -2 63.5 -34t26.5 -82q0 -41 -13.5 -91.5t-35 -103.5t-47.5 -100q41 5 78.5 14.5t61 26t21.5 40.5v2q0 9 4 9q7 0 7 -16
q0 -27 -26.5 -46t-67.5 -30t-85 -17q-6 -13 -15 -38t-12 -43q-1 -3 -1 -6.5v-7.5q0 -10 1.5 -18t1.5 -11q2 -14 -9.5 -24t-22.5 -10q-14 0 -15 13q-1 2 -1 11q-5 14 -16.5 34.5t-24 40.5t-24 34.5t-16.5 15.5q-7 2 -47 9q-25 5 -64.5 11t-77 15.5t-60.5 22.5q-28 16 -28 35
q0 9 5 15q9 11 23.5 16t33.5 5q29 0 63.5 -10t68 -26t61 -34.5t41.5 -36.5q8 -1 20 -1.5t27 -0.5q30 0 66 3q21 51 40.5 109.5t32 113t12.5 91.5q0 42 -22.5 58.5t-57.5 16.5q-56 0 -124.5 -22t-144.5 -60t-154 -87t-153 -102.5t-140.5 -106.5t-117.5 -100t-84 -82
q-34 -37 -34 -81q0 -18 7.5 -34t23.5 -27q7 -6 7 -10q0 -8 -20 -8zM761 121q-15 11 -42 25t-57.5 25t-59.5 13h-11q-22 0 -22 -8q0 -5 8.5 -11.5t16.5 -9.5q20 -7 52 -14.5t64.5 -13t50.5 -6.5zM886 4l2 12t2 13q4 17 8.5 35t10.5 34q-25 -1 -47 -2t-37 0q14 -16 31.5 -41
t29.5 -51zM931.647 589.141q-3.39941 0 -3.39941 1.7002q0 3.39941 16.999 12.749q25.5 14.4502 49.7236 31.4492q24.2246 17 40.374 29.75q9.34961 1.69922 19.125 -6.80078q9.77441 -8.49902 7.22461 -12.749q-11.8994 -6.7998 -30.5996 -16.1494
q-18.6992 -9.34961 -38.6738 -18.2744t-35.2734 -15.7246q-5.10059 -1.7002 -13.1748 -3.8252q-8.0752 -2.125 -12.3252 -2.125z" />
    <glyph glyph-name="Acircumflex" unicode="&#xc2;" horiz-adv-x="1006" 
d="M-5 -215q-17 0 -39.5 10.5t-32.5 36.5q-5 13 -5 25q0 29 21 63t55 70q37 38 96 86t133 100.5t156 104.5t165.5 98t161 81t143 54t110.5 16q37 -2 63.5 -34t26.5 -82q0 -41 -13.5 -91.5t-35 -103.5t-47.5 -100q41 5 78.5 14.5t61 26t21.5 40.5v2q0 9 4 9q7 0 7 -16
q0 -27 -26.5 -46t-67.5 -30t-85 -17q-6 -13 -15 -38t-12 -43q-1 -3 -1 -6.5v-7.5q0 -10 1.5 -18t1.5 -11q2 -14 -9.5 -24t-22.5 -10q-14 0 -15 13q-1 2 -1 11q-5 14 -16.5 34.5t-24 40.5t-24 34.5t-16.5 15.5q-7 2 -47 9q-25 5 -64.5 11t-77 15.5t-60.5 22.5q-28 16 -28 35
q0 9 5 15q9 11 23.5 16t33.5 5q29 0 63.5 -10t68 -26t61 -34.5t41.5 -36.5q8 -1 20 -1.5t27 -0.5q30 0 66 3q21 51 40.5 109.5t32 113t12.5 91.5q0 42 -22.5 58.5t-57.5 16.5q-56 0 -124.5 -22t-144.5 -60t-154 -87t-153 -102.5t-140.5 -106.5t-117.5 -100t-84 -82
q-34 -37 -34 -81q0 -18 7.5 -34t23.5 -27q7 -6 7 -10q0 -8 -20 -8zM761 121q-15 11 -42 25t-57.5 25t-59.5 13h-11q-22 0 -22 -8q0 -5 8.5 -11.5t16.5 -9.5q20 -7 52 -14.5t64.5 -13t50.5 -6.5zM886 4l2 12t2 13q4 17 8.5 35t10.5 34q-25 -1 -47 -2t-37 0q14 -16 31.5 -41
t29.5 -51zM861.217 581.892q-3.39941 0 -2.68555 3.40039q1.07227 5.09961 9.79395 10.1992q14.8936 10.2002 38.9336 25.499q24.04 15.2998 50.8984 31.875q26.8574 16.5742 50.1152 30.1738q8.32129 -0.849609 31.1953 -41.6484q6.66992 -12.75 11.8184 -24.6494
q5.14941 -11.9004 7.12012 -18.7002q2.50586 -4.25 1.25586 -10.1992q-0.893555 -4.25 -4.31543 -6.375q-3.4209 -2.125 -4.58496 0.424805q-6.17773 11.0498 -16.6504 25.9248q-10.4736 14.874 -19.2686 27.624q-8.79492 12.749 -13.001 16.999
q-10.6006 -5.94922 -29.0723 -16.999q-18.4727 -11.0498 -42.5801 -24.6494q-27.0156 -15.2998 -44.5049 -21.6748q-17.4893 -6.37402 -21.918 -7.22461h-2.5498z" />
    <glyph glyph-name="Atilde" unicode="&#xc3;" horiz-adv-x="1006" 
d="M-5 -215q-17 0 -39.5 10.5t-32.5 36.5q-5 13 -5 25q0 29 21 63t55 70q37 38 96 86t133 100.5t156 104.5t165.5 98t161 81t143 54t110.5 16q37 -2 63.5 -34t26.5 -82q0 -41 -13.5 -91.5t-35 -103.5t-47.5 -100q41 5 78.5 14.5t61 26t21.5 40.5v2q0 9 4 9q7 0 7 -16
q0 -27 -26.5 -46t-67.5 -30t-85 -17q-6 -13 -15 -38t-12 -43q-1 -3 -1 -6.5v-7.5q0 -10 1.5 -18t1.5 -11q2 -14 -9.5 -24t-22.5 -10q-14 0 -15 13q-1 2 -1 11q-5 14 -16.5 34.5t-24 40.5t-24 34.5t-16.5 15.5q-7 2 -47 9q-25 5 -64.5 11t-77 15.5t-60.5 22.5q-28 16 -28 35
q0 9 5 15q9 11 23.5 16t33.5 5q29 0 63.5 -10t68 -26t61 -34.5t41.5 -36.5q8 -1 20 -1.5t27 -0.5q30 0 66 3q21 51 40.5 109.5t32 113t12.5 91.5q0 42 -22.5 58.5t-57.5 16.5q-56 0 -124.5 -22t-144.5 -60t-154 -87t-153 -102.5t-140.5 -106.5t-117.5 -100t-84 -82
q-34 -37 -34 -81q0 -18 7.5 -34t23.5 -27q7 -6 7 -10q0 -8 -20 -8zM761 121q-15 11 -42 25t-57.5 25t-59.5 13h-11q-22 0 -22 -8q0 -5 8.5 -11.5t16.5 -9.5q20 -7 52 -14.5t64.5 -13t50.5 -6.5zM886 4l2 12t2 13q4 17 8.5 35t10.5 34q-25 -1 -47 -2t-37 0q14 -16 31.5 -41
t29.5 -51zM996.396 589.891q-16.999 0 -42.499 11.0498q-28.8984 11.8994 -41.6484 11.8994q-14.4492 0 -28.0488 -11.0488q-13.5996 -11.0498 -18.7002 -11.0498q-0.849609 0.849609 -0.849609 1.69922q0 6.7998 9.34961 15.2998t27.1992 19.5498
q13.5996 8.49902 30.5986 8.49902q15.2998 0 40.7988 -8.49902q13.5996 -4.25 23.375 -6.7998q9.77441 -2.5498 16.5742 -2.5498q20.3994 0 35.6992 17.8486q5.09961 0 5.09961 -3.39941q0 -5.9502 -8.07422 -15.2998q-8.0752 -9.34961 -25.9248 -20.3994
q-11.0498 -6.7998 -22.9492 -6.7998z" />
    <glyph glyph-name="Adieresis" unicode="&#xc4;" horiz-adv-x="1006" 
d="M-5 -215q-17 0 -39.5 10.5t-32.5 36.5q-5 13 -5 25q0 29 21 63t55 70q37 38 96 86t133 100.5t156 104.5t165.5 98t161 81t143 54t110.5 16q37 -2 63.5 -34t26.5 -82q0 -41 -13.5 -91.5t-35 -103.5t-47.5 -100q41 5 78.5 14.5t61 26t21.5 40.5v2q0 9 4 9q7 0 7 -16
q0 -27 -26.5 -46t-67.5 -30t-85 -17q-6 -13 -15 -38t-12 -43q-1 -3 -1 -6.5v-7.5q0 -10 1.5 -18t1.5 -11q2 -14 -9.5 -24t-22.5 -10q-14 0 -15 13q-1 2 -1 11q-5 14 -16.5 34.5t-24 40.5t-24 34.5t-16.5 15.5q-7 2 -47 9q-25 5 -64.5 11t-77 15.5t-60.5 22.5q-28 16 -28 35
q0 9 5 15q9 11 23.5 16t33.5 5q29 0 63.5 -10t68 -26t61 -34.5t41.5 -36.5q8 -1 20 -1.5t27 -0.5q30 0 66 3q21 51 40.5 109.5t32 113t12.5 91.5q0 42 -22.5 58.5t-57.5 16.5q-56 0 -124.5 -22t-144.5 -60t-154 -87t-153 -102.5t-140.5 -106.5t-117.5 -100t-84 -82
q-34 -37 -34 -81q0 -18 7.5 -34t23.5 -27q7 -6 7 -10q0 -8 -20 -8zM761 121q-15 11 -42 25t-57.5 25t-59.5 13h-11q-22 0 -22 -8q0 -5 8.5 -11.5t16.5 -9.5q20 -7 52 -14.5t64.5 -13t50.5 -6.5zM886 4l2 12t2 13q4 17 8.5 35t10.5 34q-25 -1 -47 -2t-37 0q14 -16 31.5 -41
t29.5 -51zM1025 590q-20 0 -20 21q0 8 3 15q5 13 19.5 17.5t27.5 4.5t13 -12q0 -9 -6 -21t-16.5 -18.5t-20.5 -6.5zM901 590q-20 0 -20 21q0 8 3 15q5 13 19.5 17.5t27.5 4.5t13 -12q0 -9 -6 -21t-16.5 -18.5t-20.5 -6.5z" />
    <glyph glyph-name="Aring" unicode="&#xc5;" horiz-adv-x="1006" 
d="M-5 -215q-17 0 -39.5 10.5t-32.5 36.5q-5 13 -5 25q0 29 21 63t55 70q37 38 96 86t133 100.5t156 104.5t165.5 98t161 81t143 54t110.5 16q37 -2 63.5 -34t26.5 -82q0 -41 -13.5 -91.5t-35 -103.5t-47.5 -100q41 5 78.5 14.5t61 26t21.5 40.5v2q0 9 4 9q7 0 7 -16
q0 -27 -26.5 -46t-67.5 -30t-85 -17q-6 -13 -15 -38t-12 -43q-1 -3 -1 -6.5v-7.5q0 -10 1.5 -18t1.5 -11q2 -14 -9.5 -24t-22.5 -10q-14 0 -15 13q-1 2 -1 11q-5 14 -16.5 34.5t-24 40.5t-24 34.5t-16.5 15.5q-7 2 -47 9q-25 5 -64.5 11t-77 15.5t-60.5 22.5q-28 16 -28 35
q0 9 5 15q9 11 23.5 16t33.5 5q29 0 63.5 -10t68 -26t61 -34.5t41.5 -36.5q8 -1 20 -1.5t27 -0.5q30 0 66 3q21 51 40.5 109.5t32 113t12.5 91.5q0 42 -22.5 58.5t-57.5 16.5q-56 0 -124.5 -22t-144.5 -60t-154 -87t-153 -102.5t-140.5 -106.5t-117.5 -100t-84 -82
q-34 -37 -34 -81q0 -18 7.5 -34t23.5 -27q7 -6 7 -10q0 -8 -20 -8zM761 121q-15 11 -42 25t-57.5 25t-59.5 13h-11q-22 0 -22 -8q0 -5 8.5 -11.5t16.5 -9.5q20 -7 52 -14.5t64.5 -13t50.5 -6.5zM886 4l2 12t2 13q4 17 8.5 35t10.5 34q-25 -1 -47 -2t-37 0q14 -16 31.5 -41
t29.5 -51zM965 584q-27 0 -38.5 13.5t-11.5 32.5q0 26 12 48.5t32.5 37t45.5 14.5q19 0 31 -15q12 -16 12 -37q0 -27 -12.5 -48.5t-31.5 -33.5t-39 -12zM967 603q24 0 40 24q17 25 17 49q0 36 -22 36q-10 0 -22 -12.5t-20 -31.5t-8 -39q0 -26 15 -26z" />
    <glyph glyph-name="AE" unicode="&#xc6;" horiz-adv-x="1863" 
d="M-5 -215q-17 0 -39.5 10.5t-32.5 36.5q-5 13 -5 25q0 29 21 63t55 70q37 38 96 86t133 100.5t156 104.5t165.5 98t161 81t143 54t110.5 16q37 -2 63.5 -34t26.5 -82q0 -32 -11 -77t-29 -95q76 61 168.5 111.5t194.5 88.5t209 59.5t213 24.5q49 1 84.5 -10t35.5 -44
q0 -23 -15 -50.5t-38 -49t-47 -26.5h-3q-7 0 -7 3q0 4 7 8q23 15 36.5 38.5t13.5 45.5q0 23 -17 39.5t-55 16.5q-67 0 -146.5 -13t-163 -37.5t-165 -58t-154 -74t-128.5 -87.5q11 2 52.5 3.5t100 3t121.5 1.5q71 0 137.5 -2.5t103.5 -7.5q36 -6 36 -13q0 -5 -14 -9t-27 -4
q-25 0 -58 1t-71 1q-56 0 -118.5 -1t-121.5 -3.5t-107 -6t-77 -8.5q-18 -34 -26.5 -63t-8.5 -53q0 -45 25.5 -75t68 -47t96 -24.5t108.5 -7.5q17 0 33 0.5t32 1.5q133 9 270 41t265.5 95.5t232.5 164.5q1 1 3 1t3 -3t-2 -7q-52 -60 -117 -108t-137 -86q-123 -64 -257 -98.5
t-256 -39.5q-15 -1 -30.5 -1h-30.5q-62 0 -120.5 7t-107 24t-80.5 47t-42 76q-13 -23 -26 -44t-25 -38q-6 -7 -8 -7t-2 5q0 6 3 13q19 41 43 99.5t46 120.5q-43 -4 -92 -7t-96 -3q-37 0 -71.5 2.5t-60.5 8.5q1 7 1.5 18.5t5.5 21t18 9.5q9 0 18 -4q7 -2 41 -4.5t80 -3.5
t89 -1q24 0 45 0.5t36 1.5q23 65 38 123t15 92q0 42 -22.5 58.5t-57.5 16.5q-56 0 -124.5 -22t-144.5 -60t-154 -87t-153 -102.5t-140.5 -106.5t-117.5 -100t-84 -82q-34 -37 -34 -81q0 -18 7.5 -34t23.5 -27q7 -6 7 -10q0 -8 -20 -8z" />
    <glyph glyph-name="Ccedilla" unicode="&#xc7;" horiz-adv-x="600" 
d="M450 -126q-133 0 -228 27.5t-146 81t-51 129.5q0 83 45 161t127 140t194.5 97.5t248.5 32.5q29 -1 61.5 -12.5t46.5 -21.5l52 36t42 37q14 15 22 15q3 0 3 -3q0 -4 -6 -13q-16 -21 -42 -41.5t-55 -40.5q22 -18 22 -37q0 -28 -21 -50.5t-48.5 -35.5t-49.5 -13
q-30 0 -30 23q0 18 21 47q12 17 29.5 31.5t37.5 28.5q-10 7 -28 10.5t-44 5.5q-10 1 -19 1.5t-19 0.5q-76 0 -155 -23t-152 -62.5t-131 -91t-92 -109.5t-34 -116q0 -91 86.5 -144t272.5 -53q39 0 84 3q99 6 203.5 25.5t207.5 55t197 89.5t172 130q1 1 3 1t3 -3t-2 -7
q-72 -81 -165.5 -141.5t-198.5 -101.5t-211.5 -62.5t-203.5 -25.5q-13 -1 -25 -1h-24zM678 394q7 0 20 10q27 23 32.5 45.5t6.5 29.5q-19 -15 -32 -26t-24 -26q-9 -13 -9 -25q0 -8 6 -8zM302 -396q-9 0 -9 11q0 5 9 8l36 6t36 5q35 11 35 58q0 13 -26 50q-26 38 -26 57
q0 35 19 60q20 27 51 27q11 0 12 -7q-22 -4 -34 -22t-12 -41q0 -11 29 -48q29 -38 29 -65q0 -47 -53 -76q-44 -23 -96 -23z" />
    <glyph glyph-name="Egrave" unicode="&#xc8;" horiz-adv-x="1075" 
d="M548 -112q-123 0 -207 24.5t-126.5 66t-42.5 93.5q0 53 27 101q-26 0 -47.5 0.5t-35.5 0.5q-28 0 -38 8t-12 19q-1 11 11 15.5t31 4.5q30 0 68 -11q8 -1 19 -2t25 -3q40 53 107 95.5t150 73.5t171 50q-21 7 -41 13t-39 13q-47 16 -108.5 31.5t-126 26.5t-121.5 11
q-58 0 -102 -15t-60 -51q-4 -9 -4 -21q0 -13 7 -27t24 -31q19 -20 50.5 -40.5t59.5 -34.5q7 -2 15 -8t11.5 -9.5t-4.5 -1.5q-14 3 -44 17t-60.5 33.5t-47.5 38.5q-16 21 -24 41.5t-8 37.5q0 16 5 26q19 42 67.5 59t111.5 17q56 0 117.5 -10.5t121 -27t108.5 -34.5
q26 -10 61.5 -21.5t75.5 -24.5q52 9 103 14t98 5q10 0 19 -0.5t18 -0.5q90 -4 147.5 -27.5t76.5 -53.5q6 -9 6 -21q0 -13 -10.5 -24.5t-37.5 -11.5q-5 0 -10.5 0.5t-12.5 1.5q-84 11 -183.5 36t-192.5 53q-83 -14 -168 -41t-156.5 -66.5t-114.5 -93.5q47 -2 103 -3t111 -1
q50 0 95 1t74 4h8q11 0 11 -3q0 -2 -10.5 -5.5t-35.5 -8.5q-31 -6 -79 -9t-104 -4t-111 -1h-82q-28 -47 -28 -100q0 -46 40 -82.5t134 -54.5q35 -7 77 -10t91 -3q87 0 183.5 15.5t194 47.5t187.5 82t164 118q1 1 3 1t3 -3t-2 -6q-47 -52 -107 -93.5t-127 -74.5
q-78 -38 -161 -64t-164.5 -40t-154.5 -16q-10 0 -20 -0.5t-20 -0.5zM1087 333q20 0 28 8t8 17q0 8 -3 12q-17 26 -72.5 39t-129.5 13q-33 0 -72 -3t-83 -8q57 -17 113.5 -32.5t106 -27t84.5 -16.5q5 -1 10.5 -1.5t9.5 -0.5zM973.793 510.541q0 -3.40039 -11.0498 -0.850586
t-17.8496 5.9502q-15.2998 6.7998 -35.2734 15.7246q-19.9746 8.9248 -38.6738 18.2744q-18.7002 9.34961 -30.5996 16.1494q-2.5498 4.25 7.64941 12.75q10.2002 8.49902 18.7002 6.7998q16.1494 -12.75 40.374 -29.3242q24.2236 -16.5752 49.7227 -31.874
q17 -10.2002 17 -13.5996z" />
    <glyph glyph-name="Eacute" unicode="&#xc9;" horiz-adv-x="1075" 
d="M548 -112q-123 0 -207 24.5t-126.5 66t-42.5 93.5q0 53 27 101q-26 0 -47.5 0.5t-35.5 0.5q-28 0 -38 8t-12 19q-1 11 11 15.5t31 4.5q30 0 68 -11q8 -1 19 -2t25 -3q40 53 107 95.5t150 73.5t171 50q-21 7 -41 13t-39 13q-47 16 -108.5 31.5t-126 26.5t-121.5 11
q-58 0 -102 -15t-60 -51q-4 -9 -4 -21q0 -13 7 -27t24 -31q19 -20 50.5 -40.5t59.5 -34.5q7 -2 15 -8t11.5 -9.5t-4.5 -1.5q-14 3 -44 17t-60.5 33.5t-47.5 38.5q-16 21 -24 41.5t-8 37.5q0 16 5 26q19 42 67.5 59t111.5 17q56 0 117.5 -10.5t121 -27t108.5 -34.5
q26 -10 61.5 -21.5t75.5 -24.5q52 9 103 14t98 5q10 0 19 -0.5t18 -0.5q90 -4 147.5 -27.5t76.5 -53.5q6 -9 6 -21q0 -13 -10.5 -24.5t-37.5 -11.5q-5 0 -10.5 0.5t-12.5 1.5q-84 11 -183.5 36t-192.5 53q-83 -14 -168 -41t-156.5 -66.5t-114.5 -93.5q47 -2 103 -3t111 -1
q50 0 95 1t74 4h8q11 0 11 -3q0 -2 -10.5 -5.5t-35.5 -8.5q-31 -6 -79 -9t-104 -4t-111 -1h-82q-28 -47 -28 -100q0 -46 40 -82.5t134 -54.5q35 -7 77 -10t91 -3q87 0 183.5 15.5t194 47.5t187.5 82t164 118q1 1 3 1t3 -3t-2 -6q-47 -52 -107 -93.5t-127 -74.5
q-78 -38 -161 -64t-164.5 -40t-154.5 -16q-10 0 -20 -0.5t-20 -0.5zM1087 333q20 0 28 8t8 17q0 8 -3 12q-17 26 -72.5 39t-129.5 13q-33 0 -72 -3t-83 -8q57 -17 113.5 -32.5t106 -27t84.5 -16.5q5 -1 10.5 -1.5t9.5 -0.5zM879.647 510.141q-3.39941 0 -3.39941 1.7002
q0 3.39941 16.999 12.749q25.5 14.4502 49.7236 31.4492q24.2246 17 40.374 29.75q9.34961 1.69922 19.125 -6.80078q9.77441 -8.49902 7.22461 -12.749q-11.8994 -6.7998 -30.5996 -16.1494q-18.6992 -9.34961 -38.6738 -18.2744t-35.2734 -15.7246
q-5.10059 -1.7002 -13.1748 -3.8252q-8.0752 -2.125 -12.3252 -2.125z" />
    <glyph glyph-name="Ecircumflex" unicode="&#xca;" horiz-adv-x="1075" 
d="M548 -112q-123 0 -207 24.5t-126.5 66t-42.5 93.5q0 53 27 101q-26 0 -47.5 0.5t-35.5 0.5q-28 0 -38 8t-12 19q-1 11 11 15.5t31 4.5q30 0 68 -11q8 -1 19 -2t25 -3q40 53 107 95.5t150 73.5t171 50q-21 7 -41 13t-39 13q-47 16 -108.5 31.5t-126 26.5t-121.5 11
q-58 0 -102 -15t-60 -51q-4 -9 -4 -21q0 -13 7 -27t24 -31q19 -20 50.5 -40.5t59.5 -34.5q7 -2 15 -8t11.5 -9.5t-4.5 -1.5q-14 3 -44 17t-60.5 33.5t-47.5 38.5q-16 21 -24 41.5t-8 37.5q0 16 5 26q19 42 67.5 59t111.5 17q56 0 117.5 -10.5t121 -27t108.5 -34.5
q26 -10 61.5 -21.5t75.5 -24.5q52 9 103 14t98 5q10 0 19 -0.5t18 -0.5q90 -4 147.5 -27.5t76.5 -53.5q6 -9 6 -21q0 -13 -10.5 -24.5t-37.5 -11.5q-5 0 -10.5 0.5t-12.5 1.5q-84 11 -183.5 36t-192.5 53q-83 -14 -168 -41t-156.5 -66.5t-114.5 -93.5q47 -2 103 -3t111 -1
q50 0 95 1t74 4h8q11 0 11 -3q0 -2 -10.5 -5.5t-35.5 -8.5q-31 -6 -79 -9t-104 -4t-111 -1h-82q-28 -47 -28 -100q0 -46 40 -82.5t134 -54.5q35 -7 77 -10t91 -3q87 0 183.5 15.5t194 47.5t187.5 82t164 118q1 1 3 1t3 -3t-2 -6q-47 -52 -107 -93.5t-127 -74.5
q-78 -38 -161 -64t-164.5 -40t-154.5 -16q-10 0 -20 -0.5t-20 -0.5zM1087 333q20 0 28 8t8 17q0 8 -3 12q-17 26 -72.5 39t-129.5 13q-33 0 -72 -3t-83 -8q57 -17 113.5 -32.5t106 -27t84.5 -16.5q5 -1 10.5 -1.5t9.5 -0.5zM809.217 502.892q-3.39941 0 -2.68555 3.40039
q1.07227 5.09961 9.79395 10.1992q14.8936 10.2002 38.9336 25.499q24.04 15.2998 50.8984 31.875q26.8574 16.5742 50.1152 30.1738q8.32129 -0.849609 31.1953 -41.6484q6.66992 -12.75 11.8184 -24.6494q5.14941 -11.9004 7.12012 -18.7002
q2.50586 -4.25 1.25586 -10.1992q-0.893555 -4.25 -4.31543 -6.375q-3.4209 -2.125 -4.58496 0.424805q-6.17773 11.0498 -16.6504 25.9248q-10.4736 14.874 -19.2686 27.624q-8.79492 12.749 -13.001 16.999q-10.6006 -5.94922 -29.0723 -16.999
q-18.4727 -11.0498 -42.5801 -24.6494q-27.0156 -15.2998 -44.5049 -21.6748q-17.4893 -6.37402 -21.918 -7.22461h-2.5498z" />
    <glyph glyph-name="Edieresis" unicode="&#xcb;" horiz-adv-x="1075" 
d="M548 -112q-123 0 -207 24.5t-126.5 66t-42.5 93.5q0 53 27 101q-26 0 -47.5 0.5t-35.5 0.5q-28 0 -38 8t-12 19q-1 11 11 15.5t31 4.5q30 0 68 -11q8 -1 19 -2t25 -3q40 53 107 95.5t150 73.5t171 50q-21 7 -41 13t-39 13q-47 16 -108.5 31.5t-126 26.5t-121.5 11
q-58 0 -102 -15t-60 -51q-4 -9 -4 -21q0 -13 7 -27t24 -31q19 -20 50.5 -40.5t59.5 -34.5q7 -2 15 -8t11.5 -9.5t-4.5 -1.5q-14 3 -44 17t-60.5 33.5t-47.5 38.5q-16 21 -24 41.5t-8 37.5q0 16 5 26q19 42 67.5 59t111.5 17q56 0 117.5 -10.5t121 -27t108.5 -34.5
q26 -10 61.5 -21.5t75.5 -24.5q52 9 103 14t98 5q10 0 19 -0.5t18 -0.5q90 -4 147.5 -27.5t76.5 -53.5q6 -9 6 -21q0 -13 -10.5 -24.5t-37.5 -11.5q-5 0 -10.5 0.5t-12.5 1.5q-84 11 -183.5 36t-192.5 53q-83 -14 -168 -41t-156.5 -66.5t-114.5 -93.5q47 -2 103 -3t111 -1
q50 0 95 1t74 4h8q11 0 11 -3q0 -2 -10.5 -5.5t-35.5 -8.5q-31 -6 -79 -9t-104 -4t-111 -1h-82q-28 -47 -28 -100q0 -46 40 -82.5t134 -54.5q35 -7 77 -10t91 -3q87 0 183.5 15.5t194 47.5t187.5 82t164 118q1 1 3 1t3 -3t-2 -6q-47 -52 -107 -93.5t-127 -74.5
q-78 -38 -161 -64t-164.5 -40t-154.5 -16q-10 0 -20 -0.5t-20 -0.5zM1087 333q20 0 28 8t8 17q0 8 -3 12q-17 26 -72.5 39t-129.5 13q-33 0 -72 -3t-83 -8q57 -17 113.5 -32.5t106 -27t84.5 -16.5q5 -1 10.5 -1.5t9.5 -0.5zM973 511q-20 0 -20 21q0 8 3 15q5 13 19.5 17.5
t27.5 4.5t13 -12q0 -9 -6 -21t-16.5 -18.5t-20.5 -6.5zM849 511q-20 0 -20 21q0 8 3 15q5 13 19.5 17.5t27.5 4.5t13 -12q0 -9 -6 -21t-16.5 -18.5t-20.5 -6.5z" />
    <glyph glyph-name="Igrave" unicode="&#xcc;" horiz-adv-x="929" 
d="M221 -157q-107 0 -157 44t-50 106q0 82 74 162q-31 1 -51 8.5t-20 28.5q0 14 14 18.5t32 4.5q13 0 25 -1t20 -1t12 2q2 1 4 1q7 0 7 -7q0 -4 -5.5 -8.5t-19.5 -4.5h-9q-5 0 -9.5 -1.5t-5.5 -7.5v-1q0 -5 8 -7.5t19 -3.5l14 12q14 11 21 11q9 0 9 -7q0 -4 -6 -9l-9 -8
q10 0 18.5 0.5t14.5 0.5q7 0 27.5 -0.5t41.5 -2t29 -5.5q9 -5 9 -9q0 -3 -5 -3q-4 0 -8 1q-22 3 -48 3q-24 0 -50 -1.5t-51 -2.5q-37 -36 -54.5 -72.5t-17.5 -69.5q0 -57 50.5 -96t144.5 -39q81 0 166.5 29t165.5 73.5t146 92.5q-1 11 -2.5 23.5t-1.5 25.5q0 49 11.5 106.5
t34.5 114t56.5 103t77.5 75t97 28.5q32 0 51.5 -20t19.5 -56q0 -29 -14.5 -68t-48.5 -86q-41 -57 -104.5 -119.5t-133.5 -116.5q2 -22 8 -50.5t16 -55t26 -43.5t37 -17q18 0 37.5 10.5t37.5 27t29 33.5q3 4 6 4q2 0 2.5 -4t-2.5 -8q-29 -46 -57.5 -67.5t-66.5 -21.5
q-33 0 -57 25t-38 62t-19 74q-70 -51 -152 -99t-170 -79t-176 -31zM758 104q62 48 118 105t93 109q40 56 57.5 98.5t17.5 69.5q0 23 -11 35t-30 12q-25 0 -61 -23t-77 -70q-36 -42 -60.5 -100.5t-36.5 -120t-10 -115.5zM1056.79 608.541q0 -3.40039 -11.0498 -0.850586
t-17.8496 5.9502q-15.2998 6.7998 -35.2734 15.7246q-19.9746 8.9248 -38.6738 18.2744q-18.7002 9.34961 -30.5996 16.1494q-2.5498 4.25 7.64941 12.75q10.2002 8.49902 18.7002 6.7998q16.1494 -12.75 40.374 -29.3242q24.2236 -16.5752 49.7227 -31.874
q17 -10.2002 17 -13.5996z" />
    <glyph glyph-name="Iacute" unicode="&#xcd;" horiz-adv-x="929" 
d="M221 -157q-107 0 -157 44t-50 106q0 82 74 162q-31 1 -51 8.5t-20 28.5q0 14 14 18.5t32 4.5q13 0 25 -1t20 -1t12 2q2 1 4 1q7 0 7 -7q0 -4 -5.5 -8.5t-19.5 -4.5h-9q-5 0 -9.5 -1.5t-5.5 -7.5v-1q0 -5 8 -7.5t19 -3.5l14 12q14 11 21 11q9 0 9 -7q0 -4 -6 -9l-9 -8
q10 0 18.5 0.5t14.5 0.5q7 0 27.5 -0.5t41.5 -2t29 -5.5q9 -5 9 -9q0 -3 -5 -3q-4 0 -8 1q-22 3 -48 3q-24 0 -50 -1.5t-51 -2.5q-37 -36 -54.5 -72.5t-17.5 -69.5q0 -57 50.5 -96t144.5 -39q81 0 166.5 29t165.5 73.5t146 92.5q-1 11 -2.5 23.5t-1.5 25.5q0 49 11.5 106.5
t34.5 114t56.5 103t77.5 75t97 28.5q32 0 51.5 -20t19.5 -56q0 -29 -14.5 -68t-48.5 -86q-41 -57 -104.5 -119.5t-133.5 -116.5q2 -22 8 -50.5t16 -55t26 -43.5t37 -17q18 0 37.5 10.5t37.5 27t29 33.5q3 4 6 4q2 0 2.5 -4t-2.5 -8q-29 -46 -57.5 -67.5t-66.5 -21.5
q-33 0 -57 25t-38 62t-19 74q-70 -51 -152 -99t-170 -79t-176 -31zM758 104q62 48 118 105t93 109q40 56 57.5 98.5t17.5 69.5q0 23 -11 35t-30 12q-25 0 -61 -23t-77 -70q-36 -42 -60.5 -100.5t-36.5 -120t-10 -115.5zM962.647 608.141q-3.39941 0 -3.39941 1.7002
q0 3.39941 16.999 12.749q25.5 14.4502 49.7236 31.4492q24.2246 17 40.374 29.75q9.34961 1.69922 19.125 -6.80078q9.77441 -8.49902 7.22461 -12.749q-11.8994 -6.7998 -30.5996 -16.1494q-18.6992 -9.34961 -38.6738 -18.2744t-35.2734 -15.7246
q-5.10059 -1.7002 -13.1748 -3.8252q-8.0752 -2.125 -12.3252 -2.125z" />
    <glyph glyph-name="Icircumflex" unicode="&#xce;" horiz-adv-x="929" 
d="M221 -157q-107 0 -157 44t-50 106q0 82 74 162q-31 1 -51 8.5t-20 28.5q0 14 14 18.5t32 4.5q13 0 25 -1t20 -1t12 2q2 1 4 1q7 0 7 -7q0 -4 -5.5 -8.5t-19.5 -4.5h-9q-5 0 -9.5 -1.5t-5.5 -7.5v-1q0 -5 8 -7.5t19 -3.5l14 12q14 11 21 11q9 0 9 -7q0 -4 -6 -9l-9 -8
q10 0 18.5 0.5t14.5 0.5q7 0 27.5 -0.5t41.5 -2t29 -5.5q9 -5 9 -9q0 -3 -5 -3q-4 0 -8 1q-22 3 -48 3q-24 0 -50 -1.5t-51 -2.5q-37 -36 -54.5 -72.5t-17.5 -69.5q0 -57 50.5 -96t144.5 -39q81 0 166.5 29t165.5 73.5t146 92.5q-1 11 -2.5 23.5t-1.5 25.5q0 49 11.5 106.5
t34.5 114t56.5 103t77.5 75t97 28.5q32 0 51.5 -20t19.5 -56q0 -29 -14.5 -68t-48.5 -86q-41 -57 -104.5 -119.5t-133.5 -116.5q2 -22 8 -50.5t16 -55t26 -43.5t37 -17q18 0 37.5 10.5t37.5 27t29 33.5q3 4 6 4q2 0 2.5 -4t-2.5 -8q-29 -46 -57.5 -67.5t-66.5 -21.5
q-33 0 -57 25t-38 62t-19 74q-70 -51 -152 -99t-170 -79t-176 -31zM758 104q62 48 118 105t93 109q40 56 57.5 98.5t17.5 69.5q0 23 -11 35t-30 12q-25 0 -61 -23t-77 -70q-36 -42 -60.5 -100.5t-36.5 -120t-10 -115.5zM892.217 600.892q-3.39941 0 -2.68555 3.40039
q1.07227 5.09961 9.79395 10.1992q14.8936 10.2002 38.9336 25.499q24.04 15.2998 50.8984 31.875q26.8574 16.5742 50.1152 30.1738q8.32129 -0.849609 31.1953 -41.6484q6.66992 -12.75 11.8184 -24.6494q5.14941 -11.9004 7.12012 -18.7002
q2.50586 -4.25 1.25586 -10.1992q-0.893555 -4.25 -4.31543 -6.375q-3.4209 -2.125 -4.58496 0.424805q-6.17773 11.0498 -16.6504 25.9248q-10.4736 14.874 -19.2686 27.624q-8.79492 12.749 -13.001 16.999q-10.6006 -5.94922 -29.0723 -16.999
q-18.4727 -11.0498 -42.5801 -24.6494q-27.0156 -15.2998 -44.5049 -21.6748q-17.4893 -6.37402 -21.918 -7.22461h-2.5498z" />
    <glyph glyph-name="Idieresis" unicode="&#xcf;" horiz-adv-x="929" 
d="M221 -157q-107 0 -157 44t-50 106q0 82 74 162q-31 1 -51 8.5t-20 28.5q0 14 14 18.5t32 4.5q13 0 25 -1t20 -1t12 2q2 1 4 1q7 0 7 -7q0 -4 -5.5 -8.5t-19.5 -4.5h-9q-5 0 -9.5 -1.5t-5.5 -7.5v-1q0 -5 8 -7.5t19 -3.5l14 12q14 11 21 11q9 0 9 -7q0 -4 -6 -9l-9 -8
q10 0 18.5 0.5t14.5 0.5q7 0 27.5 -0.5t41.5 -2t29 -5.5q9 -5 9 -9q0 -3 -5 -3q-4 0 -8 1q-22 3 -48 3q-24 0 -50 -1.5t-51 -2.5q-37 -36 -54.5 -72.5t-17.5 -69.5q0 -57 50.5 -96t144.5 -39q81 0 166.5 29t165.5 73.5t146 92.5q-1 11 -2.5 23.5t-1.5 25.5q0 49 11.5 106.5
t34.5 114t56.5 103t77.5 75t97 28.5q32 0 51.5 -20t19.5 -56q0 -29 -14.5 -68t-48.5 -86q-41 -57 -104.5 -119.5t-133.5 -116.5q2 -22 8 -50.5t16 -55t26 -43.5t37 -17q18 0 37.5 10.5t37.5 27t29 33.5q3 4 6 4q2 0 2.5 -4t-2.5 -8q-29 -46 -57.5 -67.5t-66.5 -21.5
q-33 0 -57 25t-38 62t-19 74q-70 -51 -152 -99t-170 -79t-176 -31zM758 104q62 48 118 105t93 109q40 56 57.5 98.5t17.5 69.5q0 23 -11 35t-30 12q-25 0 -61 -23t-77 -70q-36 -42 -60.5 -100.5t-36.5 -120t-10 -115.5zM1056 609q-20 0 -20 21q0 8 3 15q5 13 19.5 17.5
t27.5 4.5t13 -12q0 -9 -6 -21t-16.5 -18.5t-20.5 -6.5zM932 609q-20 0 -20 21q0 8 3 15q5 13 19.5 17.5t27.5 4.5t13 -12q0 -9 -6 -21t-16.5 -18.5t-20.5 -6.5z" />
    <glyph glyph-name="Eth" unicode="&#xd0;" horiz-adv-x="2013" 
d="M1333 -95q-74 0 -139 12.5t-112 37.5q-16 9 -16 14q0 2 3 2t7.5 -1t11.5 -3q65 -17 123.5 -23.5t116.5 -5.5q32 1 81 7t108 17.5t121 28.5t120.5 40t104.5 52q47 29 78 66.5t31 78.5q0 35 -27 72.5t-89 74.5q-63 39 -151 62.5t-192.5 34.5t-219.5 11q-119 0 -244 -10.5
t-247 -29.5t-234 -45t-207 -57t-166 -65t-111 -69t-40 -70q0 -21 17 -37.5t44 -27.5t57 -16.5t55 -5.5q4 0 19.5 -1t30.5 0h2q8 0 14 -2.5t6 -6.5q0 -5 -9 -8q-11 -4 -27.5 -5.5t-32.5 -1.5q-32 0 -67.5 10t-67 28t-51.5 41.5t-20 49.5q0 49 51.5 94t143 85t211.5 72.5
t258 56t282.5 36t284.5 12.5q131 0 250.5 -12.5t217 -39t162.5 -68.5q56 -36 90 -84t34 -111q0 -48 -28 -86.5t-76 -68.5t-108.5 -52.5t-125.5 -38.5t-127.5 -25.5t-114.5 -14t-86 -4.5zM893 -103q-13 5 -24.5 19.5t-11.5 25.5t8 28.5t20 36t23 34.5t17 24l41 53
q-19 -1 -38 -1h-36q-10 0 -10 7q0 5 7.5 10.5t23.5 9.5q11 2 34 3.5t42 1.5q23 29 47.5 59t46.5 56q5 6 4.5 7t-5.5 5q-2 1 -2 5q0 7 5 12q23 24 47 39t26 15q8 0 19.5 -13.5t11.5 -21.5q0 -1 -10 -13.5t-26.5 -31t-34 -38.5t-32.5 -37q-10 -10 -19 -20.5t-18 -21.5
q16 0 34 -1.5t38 -6.5q23 -6 23 -9q0 -2 -6.5 -3.5t-16.5 -2.5l-97 -6q-33 -40 -63 -80.5t-53 -77.5q-10 -16 -10 -21q0 -3 3 -3q5 0 22 10q9 5 31.5 16t48.5 25.5t44 26.5q6 3 7.5 1t-3.5 -7q-7 -7 -20.5 -16l-28.5 -19q-8 -5 -24.5 -17.5t-34.5 -27.5t-30 -28
q-6 -7 -12 -7t-8 1z" />
    <glyph glyph-name="Ntilde" unicode="&#xd1;" horiz-adv-x="993" 
d="M239 -165q-38 0 -73 9q-46 14 -82.5 42t-54.5 73q-1 5 -1.5 8t-0.5 5q0 7 3 7q6 0 11 -17q17 -44 51 -70.5t81 -34.5q13 -3 25.5 -4t25.5 -1q44 0 85.5 13t75.5 32q43 23 95.5 68.5t108.5 105t108.5 126.5t95.5 134t69 127q-28 56 -80 79.5t-117 23.5q-25 0 -52 -3
q-136 -16 -253.5 -80.5t-212.5 -150.5q-32 -29 -62 -60t-48.5 -59t-18.5 -49q0 -6 -6 -6q-5 0 -8 8q-3 11 -5.5 20t-2.5 16q0 5 2 11q8 25 30.5 53.5t53.5 57t63 53.5q101 79 219 132.5t243 66.5q30 3 59 3q65 0 119.5 -18.5t90.5 -62.5l6 18q7 19 11 19q3 0 5 -5.5t2 -12.5
q0 -6 -1 -8l-11 -28q10 -16 18 -34t13 -39q8 -34 11.5 -70t3.5 -73q0 -30 -2 -59.5t-5 -58.5q25 58 60.5 121.5t78.5 123t91.5 106t100.5 72.5t105 21q18 -1 33 -13.5t15 -32.5q0 -7 -3 -16q-1 -3 -3.5 -6t-4.5 -3q-3 0 -2 11q4 23 -13.5 28t-38.5 5q-40 0 -86 -30
t-93.5 -78.5t-91.5 -107t-79.5 -117t-58.5 -106.5q-5 -11 -9.5 -22.5t-9.5 -22.5q-4 -25 -9 -48.5t-10 -44.5q-2 -8 -16 -17q-9 -42 -9 -75q-1 -11 -8 -11t-7 7q-1 5 -1 10v10q0 24 6 51h-3q-15 0 -11 13q10 37 19 88t15.5 108.5t6.5 115.5q0 27 -1.5 53t-5.5 51
q-2 14 -5.5 26.5t-7.5 24.5q-39 -85 -92.5 -172.5t-115 -165.5t-124.5 -137t-122 -87q-37 -17 -84 -28.5t-94 -11.5zM1069.4 633.891q-16.999 0 -42.499 11.0498q-28.8984 11.8994 -41.6484 11.8994q-14.4492 0 -28.0488 -11.0488q-13.5996 -11.0498 -18.7002 -11.0498
q-0.849609 0.849609 -0.849609 1.69922q0 6.7998 9.34961 15.2998t27.1992 19.5498q13.5996 8.49902 30.5986 8.49902q15.2998 0 40.7988 -8.49902q13.5996 -4.25 23.375 -6.7998q9.77441 -2.5498 16.5742 -2.5498q20.3994 0 35.6992 17.8486q5.09961 0 5.09961 -3.39941
q0 -5.9502 -8.07422 -15.2998q-8.0752 -9.34961 -25.9248 -20.3994q-11.0498 -6.7998 -22.9492 -6.7998z" />
    <glyph glyph-name="Ograve" unicode="&#xd2;" horiz-adv-x="1089" 
d="M633 -50q-80 0 -118 41.5t-38 102.5q0 60 33.5 129t96.5 129q32 30 76 60t95 55t105 40t105 15q25 0 48 -7.5t23 -25.5q0 -6 -1 -9q-5 -16 -17.5 -26t-26.5 -19q-1 -1 -5.5 0t-0.5 5l12 14q8 14 8 23q0 23 -51 23q-43 0 -93 -18t-99.5 -47.5t-92 -63.5t-70.5 -66
q-61 -71 -88 -128.5t-27 -99.5q0 -53 35 -81t90 -28q37 0 89.5 15.5t111.5 44.5t116 69t103 88.5t74 104.5t28 116q0 65 -37 108.5t-99.5 70.5t-142 38.5t-165.5 11.5q-89 0 -183 -14.5t-181.5 -43t-157 -71t-110.5 -98.5t-41 -126q0 -37 18 -72t73 -52q20 -6 50 -12t46 -5
h4q15 0 15 -4q0 -3 -12 -6q-7 -1 -14.5 -1.5t-15.5 -0.5q-31 0 -65 8q-67 19 -104.5 59.5t-37.5 86.5q0 67 41.5 124t113 103.5t164 79t195 50t204.5 17.5q42 0 95 -3t108.5 -12t107.5 -26t94 -44t66.5 -66t24.5 -94q0 -63 -27 -122t-73.5 -110.5t-105.5 -93.5t-123.5 -72.5
t-127.5 -47t-118 -16.5zM1154.79 664.541q0 -3.40039 -11.0498 -0.850586t-17.8496 5.9502q-15.2998 6.7998 -35.2734 15.7246q-19.9746 8.9248 -38.6738 18.2744q-18.7002 9.34961 -30.5996 16.1494q-2.5498 4.25 7.64941 12.75q10.2002 8.49902 18.7002 6.7998
q16.1494 -12.75 40.374 -29.3242q24.2236 -16.5752 49.7227 -31.874q17 -10.2002 17 -13.5996z" />
    <glyph glyph-name="Oacute" unicode="&#xd3;" horiz-adv-x="1089" 
d="M633 -50q-80 0 -118 41.5t-38 102.5q0 60 33.5 129t96.5 129q32 30 76 60t95 55t105 40t105 15q25 0 48 -7.5t23 -25.5q0 -6 -1 -9q-5 -16 -17.5 -26t-26.5 -19q-1 -1 -5.5 0t-0.5 5l12 14q8 14 8 23q0 23 -51 23q-43 0 -93 -18t-99.5 -47.5t-92 -63.5t-70.5 -66
q-61 -71 -88 -128.5t-27 -99.5q0 -53 35 -81t90 -28q37 0 89.5 15.5t111.5 44.5t116 69t103 88.5t74 104.5t28 116q0 65 -37 108.5t-99.5 70.5t-142 38.5t-165.5 11.5q-89 0 -183 -14.5t-181.5 -43t-157 -71t-110.5 -98.5t-41 -126q0 -37 18 -72t73 -52q20 -6 50 -12t46 -5
h4q15 0 15 -4q0 -3 -12 -6q-7 -1 -14.5 -1.5t-15.5 -0.5q-31 0 -65 8q-67 19 -104.5 59.5t-37.5 86.5q0 67 41.5 124t113 103.5t164 79t195 50t204.5 17.5q42 0 95 -3t108.5 -12t107.5 -26t94 -44t66.5 -66t24.5 -94q0 -63 -27 -122t-73.5 -110.5t-105.5 -93.5t-123.5 -72.5
t-127.5 -47t-118 -16.5zM1060.65 664.141q-3.39941 0 -3.39941 1.7002q0 3.39941 16.999 12.749q25.5 14.4502 49.7236 31.4492q24.2246 17 40.374 29.75q9.34961 1.69922 19.125 -6.80078q9.77441 -8.49902 7.22461 -12.749q-11.8994 -6.7998 -30.5996 -16.1494
q-18.6992 -9.34961 -38.6738 -18.2744t-35.2734 -15.7246q-5.10059 -1.7002 -13.1748 -3.8252q-8.0752 -2.125 -12.3252 -2.125z" />
    <glyph glyph-name="Ocircumflex" unicode="&#xd4;" horiz-adv-x="1089" 
d="M633 -50q-80 0 -118 41.5t-38 102.5q0 60 33.5 129t96.5 129q32 30 76 60t95 55t105 40t105 15q25 0 48 -7.5t23 -25.5q0 -6 -1 -9q-5 -16 -17.5 -26t-26.5 -19q-1 -1 -5.5 0t-0.5 5l12 14q8 14 8 23q0 23 -51 23q-43 0 -93 -18t-99.5 -47.5t-92 -63.5t-70.5 -66
q-61 -71 -88 -128.5t-27 -99.5q0 -53 35 -81t90 -28q37 0 89.5 15.5t111.5 44.5t116 69t103 88.5t74 104.5t28 116q0 65 -37 108.5t-99.5 70.5t-142 38.5t-165.5 11.5q-89 0 -183 -14.5t-181.5 -43t-157 -71t-110.5 -98.5t-41 -126q0 -37 18 -72t73 -52q20 -6 50 -12t46 -5
h4q15 0 15 -4q0 -3 -12 -6q-7 -1 -14.5 -1.5t-15.5 -0.5q-31 0 -65 8q-67 19 -104.5 59.5t-37.5 86.5q0 67 41.5 124t113 103.5t164 79t195 50t204.5 17.5q42 0 95 -3t108.5 -12t107.5 -26t94 -44t66.5 -66t24.5 -94q0 -63 -27 -122t-73.5 -110.5t-105.5 -93.5t-123.5 -72.5
t-127.5 -47t-118 -16.5zM990.217 656.892q-3.39941 0 -2.68555 3.40039q1.07227 5.09961 9.79395 10.1992q14.8936 10.2002 38.9336 25.499q24.04 15.2998 50.8984 31.875q26.8574 16.5742 50.1152 30.1738q8.32129 -0.849609 31.1953 -41.6484
q6.66992 -12.75 11.8184 -24.6494q5.14941 -11.9004 7.12012 -18.7002q2.50586 -4.25 1.25586 -10.1992q-0.893555 -4.25 -4.31543 -6.375q-3.4209 -2.125 -4.58496 0.424805q-6.17773 11.0498 -16.6504 25.9248q-10.4736 14.874 -19.2686 27.624
q-8.79492 12.749 -13.001 16.999q-10.6006 -5.94922 -29.0723 -16.999q-18.4727 -11.0498 -42.5801 -24.6494q-27.0156 -15.2998 -44.5049 -21.6748q-17.4893 -6.37402 -21.918 -7.22461h-2.5498z" />
    <glyph glyph-name="Otilde" unicode="&#xd5;" horiz-adv-x="1089" 
d="M633 -50q-80 0 -118 41.5t-38 102.5q0 60 33.5 129t96.5 129q32 30 76 60t95 55t105 40t105 15q25 0 48 -7.5t23 -25.5q0 -6 -1 -9q-5 -16 -17.5 -26t-26.5 -19q-1 -1 -5.5 0t-0.5 5l12 14q8 14 8 23q0 23 -51 23q-43 0 -93 -18t-99.5 -47.5t-92 -63.5t-70.5 -66
q-61 -71 -88 -128.5t-27 -99.5q0 -53 35 -81t90 -28q37 0 89.5 15.5t111.5 44.5t116 69t103 88.5t74 104.5t28 116q0 65 -37 108.5t-99.5 70.5t-142 38.5t-165.5 11.5q-89 0 -183 -14.5t-181.5 -43t-157 -71t-110.5 -98.5t-41 -126q0 -37 18 -72t73 -52q20 -6 50 -12t46 -5
h4q15 0 15 -4q0 -3 -12 -6q-7 -1 -14.5 -1.5t-15.5 -0.5q-31 0 -65 8q-67 19 -104.5 59.5t-37.5 86.5q0 67 41.5 124t113 103.5t164 79t195 50t204.5 17.5q42 0 95 -3t108.5 -12t107.5 -26t94 -44t66.5 -66t24.5 -94q0 -63 -27 -122t-73.5 -110.5t-105.5 -93.5t-123.5 -72.5
t-127.5 -47t-118 -16.5zM1125.4 664.891q-16.999 0 -42.499 11.0498q-28.8984 11.8994 -41.6484 11.8994q-14.4492 0 -28.0488 -11.0488q-13.5996 -11.0498 -18.7002 -11.0498q-0.849609 0.849609 -0.849609 1.69922q0 6.7998 9.34961 15.2998t27.1992 19.5498
q13.5996 8.49902 30.5986 8.49902q15.2998 0 40.7988 -8.49902q13.5996 -4.25 23.375 -6.7998q9.77441 -2.5498 16.5742 -2.5498q20.3994 0 35.6992 17.8486q5.09961 0 5.09961 -3.39941q0 -5.9502 -8.07422 -15.2998q-8.0752 -9.34961 -25.9248 -20.3994
q-11.0498 -6.7998 -22.9492 -6.7998z" />
    <glyph glyph-name="Odieresis" unicode="&#xd6;" horiz-adv-x="1089" 
d="M633 -50q-80 0 -118 41.5t-38 102.5q0 60 33.5 129t96.5 129q32 30 76 60t95 55t105 40t105 15q25 0 48 -7.5t23 -25.5q0 -6 -1 -9q-5 -16 -17.5 -26t-26.5 -19q-1 -1 -5.5 0t-0.5 5l12 14q8 14 8 23q0 23 -51 23q-43 0 -93 -18t-99.5 -47.5t-92 -63.5t-70.5 -66
q-61 -71 -88 -128.5t-27 -99.5q0 -53 35 -81t90 -28q37 0 89.5 15.5t111.5 44.5t116 69t103 88.5t74 104.5t28 116q0 65 -37 108.5t-99.5 70.5t-142 38.5t-165.5 11.5q-89 0 -183 -14.5t-181.5 -43t-157 -71t-110.5 -98.5t-41 -126q0 -37 18 -72t73 -52q20 -6 50 -12t46 -5
h4q15 0 15 -4q0 -3 -12 -6q-7 -1 -14.5 -1.5t-15.5 -0.5q-31 0 -65 8q-67 19 -104.5 59.5t-37.5 86.5q0 67 41.5 124t113 103.5t164 79t195 50t204.5 17.5q42 0 95 -3t108.5 -12t107.5 -26t94 -44t66.5 -66t24.5 -94q0 -63 -27 -122t-73.5 -110.5t-105.5 -93.5t-123.5 -72.5
t-127.5 -47t-118 -16.5zM1154 665q-20 0 -20 21q0 8 3 15q5 13 19.5 17.5t27.5 4.5t13 -12q0 -9 -6 -21t-16.5 -18.5t-20.5 -6.5zM1030 665q-20 0 -20 21q0 8 3 15q5 13 19.5 17.5t27.5 4.5t13 -12q0 -9 -6 -21t-16.5 -18.5t-20.5 -6.5z" />
    <glyph glyph-name="multiply" unicode="&#xd7;" horiz-adv-x="407" 
d="M174 54q-7 0 -9.5 2.5t-1.5 10.5q3 10 35.5 41.5t96.5 84.5q-21 78 -16 99q3 14 26 14q8 0 12 -10t6.5 -30.5t3.5 -47.5l21 19l39 34q26 20 44 30t28 8q-3 -7 -37 -37t-92 -77q1 -13 5.5 -28t14.5 -31h-1q24 -35 49 -35q6 0 15 4l-1 -1q6 4 11 5t9 1l2 -7v-1
q-3 -13 -26 -24q-10 -5 -20 -8.5t-17 -3.5q-30 0 -53 42q-16 30 -20 60q-19 -19 -45.5 -46t-63.5 -62q-9 -6 -15 -6z" />
    <glyph glyph-name="Oslash" unicode="&#xd8;" horiz-adv-x="1089" 
d="M523 -86q-4 0 -5 5t-1 11q0 8 1 10q0 7 19 34q-30 19 -45 50.5t-15 69.5q0 59 33.5 128.5t96.5 129.5q33 31 80 62.5t101.5 57t111.5 39.5t109 10q17 -2 31.5 -8.5t17.5 -18.5q10 8 20.5 16.5t23.5 18.5q-38 39 -99.5 62t-136.5 33.5t-156 10.5q-89 0 -183 -14.5
t-181.5 -43t-157 -71t-110.5 -98.5t-41 -126q0 -37 18 -72t73 -52q20 -6 50 -12t46 -5h4q15 0 15 -4q0 -3 -12 -6q-7 -1 -14.5 -1.5t-15.5 -0.5q-31 0 -65 8q-67 19 -104.5 59.5t-37.5 86.5q0 67 41.5 124t113 103.5t164 79t195 50t204.5 17.5q45 0 102 -3.5t116.5 -14
t114 -30.5t93.5 -53l38 27q9 6 19 4q27 0 22 -17q0 -1 -4 -5l-47 -36q20 -23 31 -52t11 -65q0 -63 -27 -122t-73.5 -110.5t-105.5 -93.5t-123.5 -72.5t-127.5 -47t-118 -16.5q-21 0 -39 3.5t-33 8.5q-5 -8 -11.5 -18t-14.5 -23q-3 -7 -12 -7zM549 -9l7 8q77 105 191 219
t280 250q1 3 1 8q0 11 -11.5 17.5t-39.5 6.5q-43 0 -93 -18t-99.5 -47.5t-92 -63.5t-70.5 -66q-61 -71 -88 -128.5t-27 -99.5q0 -29 11.5 -50.5t30.5 -35.5zM632 -32q37 0 89.5 15.5t111.5 44.5t116 69t103 88.5t74 104.5t28 116q0 27 -7 50.5t-20 43.5l-32 -25
q-195 -151 -321 -274t-195 -215l-6 -8q13 -4 28 -7t31 -3z" />
    <glyph glyph-name="Ugrave" unicode="&#xd9;" horiz-adv-x="1248" 
d="M1167 -107q-27 0 -43 13t-23.5 32t-9.5 38.5t-2 31.5q0 43 9.5 89t25 90.5t31.5 80.5q4 9 8 18.5t8 18.5q-21 -25 -53 -61t-70 -74.5t-78 -74.5t-76 -62q-30 -22 -61.5 -33.5t-57.5 -11.5q-23 0 -38 10.5t-15 32.5q0 20 13 49t44 69q15 20 41 51.5t56 70t57 79.5t44 80.5
t17 72.5q0 38 -31 62.5t-108 24.5q-93 0 -188 -23.5t-183.5 -65t-165 -94.5t-134 -112.5t-90 -120t-32.5 -115.5q0 -45 18 -60.5t44 -15.5q18 0 38 5l36 9q2 1 7 1q12 0 12 -6q0 -4 -7 -7q-19 -7 -40 -11t-41 -4q-42 0 -71.5 22t-29.5 79q0 56 33 117t92.5 121t139 113.5
t172 94.5t192.5 65t200 24q92 0 143 -26t51 -74q0 -19 -7 -37q-12 -33 -40 -75t-62 -86.5t-65 -85t-50 -69.5q-28 -43 -41 -72.5t-13 -46.5q0 -22 22 -22q23 0 67 25.5t96 69.5q15 13 44 40.5t65 65.5t72.5 82.5t66.5 90.5q23 37 39 59.5t41 22.5q7 0 19 -4.5t21 -10.5
t5 -13q-5 -9 -15 -22t-19.5 -23t-14.5 -12q-34 -37 -64.5 -89.5t-53.5 -112.5t-35 -120q-2 -12 -7.5 -35.5t-5.5 -47.5q0 -28 14 -49.5t54 -16.5q32 5 53.5 13t31.5 15q5 4 9 4t4 -3q0 -6 -14 -14q-24 -15 -47.5 -24.5t-53.5 -9.5zM1235.79 596.541
q0 -3.40039 -11.0498 -0.850586t-17.8496 5.9502q-15.2998 6.7998 -35.2734 15.7246q-19.9746 8.9248 -38.6738 18.2744q-18.7002 9.34961 -30.5996 16.1494q-2.5498 4.25 7.64941 12.75q10.2002 8.49902 18.7002 6.7998q16.1494 -12.75 40.374 -29.3242
q24.2236 -16.5752 49.7227 -31.874q17 -10.2002 17 -13.5996z" />
    <glyph glyph-name="Uacute" unicode="&#xda;" horiz-adv-x="1248" 
d="M1167 -107q-27 0 -43 13t-23.5 32t-9.5 38.5t-2 31.5q0 43 9.5 89t25 90.5t31.5 80.5q4 9 8 18.5t8 18.5q-21 -25 -53 -61t-70 -74.5t-78 -74.5t-76 -62q-30 -22 -61.5 -33.5t-57.5 -11.5q-23 0 -38 10.5t-15 32.5q0 20 13 49t44 69q15 20 41 51.5t56 70t57 79.5t44 80.5
t17 72.5q0 38 -31 62.5t-108 24.5q-93 0 -188 -23.5t-183.5 -65t-165 -94.5t-134 -112.5t-90 -120t-32.5 -115.5q0 -45 18 -60.5t44 -15.5q18 0 38 5l36 9q2 1 7 1q12 0 12 -6q0 -4 -7 -7q-19 -7 -40 -11t-41 -4q-42 0 -71.5 22t-29.5 79q0 56 33 117t92.5 121t139 113.5
t172 94.5t192.5 65t200 24q92 0 143 -26t51 -74q0 -19 -7 -37q-12 -33 -40 -75t-62 -86.5t-65 -85t-50 -69.5q-28 -43 -41 -72.5t-13 -46.5q0 -22 22 -22q23 0 67 25.5t96 69.5q15 13 44 40.5t65 65.5t72.5 82.5t66.5 90.5q23 37 39 59.5t41 22.5q7 0 19 -4.5t21 -10.5
t5 -13q-5 -9 -15 -22t-19.5 -23t-14.5 -12q-34 -37 -64.5 -89.5t-53.5 -112.5t-35 -120q-2 -12 -7.5 -35.5t-5.5 -47.5q0 -28 14 -49.5t54 -16.5q32 5 53.5 13t31.5 15q5 4 9 4t4 -3q0 -6 -14 -14q-24 -15 -47.5 -24.5t-53.5 -9.5zM1141.65 596.141
q-3.39941 0 -3.39941 1.7002q0 3.39941 16.999 12.749q25.5 14.4502 49.7236 31.4492q24.2246 17 40.374 29.75q9.34961 1.69922 19.125 -6.80078q9.77441 -8.49902 7.22461 -12.749q-11.8994 -6.7998 -30.5996 -16.1494q-18.6992 -9.34961 -38.6738 -18.2744
t-35.2734 -15.7246q-5.10059 -1.7002 -13.1748 -3.8252q-8.0752 -2.125 -12.3252 -2.125z" />
    <glyph glyph-name="Ucircumflex" unicode="&#xdb;" horiz-adv-x="1248" 
d="M1167 -107q-27 0 -43 13t-23.5 32t-9.5 38.5t-2 31.5q0 43 9.5 89t25 90.5t31.5 80.5q4 9 8 18.5t8 18.5q-21 -25 -53 -61t-70 -74.5t-78 -74.5t-76 -62q-30 -22 -61.5 -33.5t-57.5 -11.5q-23 0 -38 10.5t-15 32.5q0 20 13 49t44 69q15 20 41 51.5t56 70t57 79.5t44 80.5
t17 72.5q0 38 -31 62.5t-108 24.5q-93 0 -188 -23.5t-183.5 -65t-165 -94.5t-134 -112.5t-90 -120t-32.5 -115.5q0 -45 18 -60.5t44 -15.5q18 0 38 5l36 9q2 1 7 1q12 0 12 -6q0 -4 -7 -7q-19 -7 -40 -11t-41 -4q-42 0 -71.5 22t-29.5 79q0 56 33 117t92.5 121t139 113.5
t172 94.5t192.5 65t200 24q92 0 143 -26t51 -74q0 -19 -7 -37q-12 -33 -40 -75t-62 -86.5t-65 -85t-50 -69.5q-28 -43 -41 -72.5t-13 -46.5q0 -22 22 -22q23 0 67 25.5t96 69.5q15 13 44 40.5t65 65.5t72.5 82.5t66.5 90.5q23 37 39 59.5t41 22.5q7 0 19 -4.5t21 -10.5
t5 -13q-5 -9 -15 -22t-19.5 -23t-14.5 -12q-34 -37 -64.5 -89.5t-53.5 -112.5t-35 -120q-2 -12 -7.5 -35.5t-5.5 -47.5q0 -28 14 -49.5t54 -16.5q32 5 53.5 13t31.5 15q5 4 9 4t4 -3q0 -6 -14 -14q-24 -15 -47.5 -24.5t-53.5 -9.5zM1071.22 588.892
q-3.39941 0 -2.68555 3.40039q1.07227 5.09961 9.79395 10.1992q14.8936 10.2002 38.9336 25.499q24.04 15.2998 50.8984 31.875q26.8574 16.5742 50.1152 30.1738q8.32129 -0.849609 31.1953 -41.6484q6.66992 -12.75 11.8184 -24.6494q5.14941 -11.9004 7.12012 -18.7002
q2.50586 -4.25 1.25586 -10.1992q-0.893555 -4.25 -4.31543 -6.375q-3.4209 -2.125 -4.58496 0.424805q-6.17773 11.0498 -16.6504 25.9248q-10.4736 14.874 -19.2686 27.624q-8.79492 12.749 -13.001 16.999q-10.6006 -5.94922 -29.0723 -16.999
q-18.4727 -11.0498 -42.5801 -24.6494q-27.0156 -15.2998 -44.5049 -21.6748q-17.4893 -6.37402 -21.918 -7.22461h-2.5498z" />
    <glyph glyph-name="Udieresis" unicode="&#xdc;" horiz-adv-x="1248" 
d="M1167 -107q-27 0 -43 13t-23.5 32t-9.5 38.5t-2 31.5q0 43 9.5 89t25 90.5t31.5 80.5q4 9 8 18.5t8 18.5q-21 -25 -53 -61t-70 -74.5t-78 -74.5t-76 -62q-30 -22 -61.5 -33.5t-57.5 -11.5q-23 0 -38 10.5t-15 32.5q0 20 13 49t44 69q15 20 41 51.5t56 70t57 79.5t44 80.5
t17 72.5q0 38 -31 62.5t-108 24.5q-93 0 -188 -23.5t-183.5 -65t-165 -94.5t-134 -112.5t-90 -120t-32.5 -115.5q0 -45 18 -60.5t44 -15.5q18 0 38 5l36 9q2 1 7 1q12 0 12 -6q0 -4 -7 -7q-19 -7 -40 -11t-41 -4q-42 0 -71.5 22t-29.5 79q0 56 33 117t92.5 121t139 113.5
t172 94.5t192.5 65t200 24q92 0 143 -26t51 -74q0 -19 -7 -37q-12 -33 -40 -75t-62 -86.5t-65 -85t-50 -69.5q-28 -43 -41 -72.5t-13 -46.5q0 -22 22 -22q23 0 67 25.5t96 69.5q15 13 44 40.5t65 65.5t72.5 82.5t66.5 90.5q23 37 39 59.5t41 22.5q7 0 19 -4.5t21 -10.5
t5 -13q-5 -9 -15 -22t-19.5 -23t-14.5 -12q-34 -37 -64.5 -89.5t-53.5 -112.5t-35 -120q-2 -12 -7.5 -35.5t-5.5 -47.5q0 -28 14 -49.5t54 -16.5q32 5 53.5 13t31.5 15q5 4 9 4t4 -3q0 -6 -14 -14q-24 -15 -47.5 -24.5t-53.5 -9.5zM1235 597q-20 0 -20 21q0 8 3 15
q5 13 19.5 17.5t27.5 4.5t13 -12q0 -9 -6 -21t-16.5 -18.5t-20.5 -6.5zM1111 597q-20 0 -20 21q0 8 3 15q5 13 19.5 17.5t27.5 4.5t13 -12q0 -9 -6 -21t-16.5 -18.5t-20.5 -6.5z" />
    <glyph glyph-name="Yacute" unicode="&#xdd;" horiz-adv-x="829" 
d="M171 -556q-30 0 -59 9t-48 29t-19 54q0 5 0.5 10t1.5 11q10 55 49 104.5t97.5 93t127 80t138 65t131 49t105.5 31.5q16 4 31 6.5t31 3.5q0 2 2 4q18 31 35.5 79t32.5 102t24 104.5t9 86.5q0 11 -1 20.5t-3 16.5q-62 -83 -120.5 -150.5t-117.5 -132.5q-46 -52 -92.5 -96.5
t-90.5 -71.5q-31 -20 -65 -20q-31 0 -53 21.5t-22 68.5q0 27 8.5 70.5t22 90t28.5 82.5l30 81l18 34q-51 -43 -108.5 -78.5t-111.5 -56.5t-95 -21q-42 0 -59.5 15t-17.5 37q0 25 17.5 55t45.5 58t58 45q8 5 17.5 6t4.5 -2q-20 -16 -42 -39.5t-38 -50.5t-20 -55
q-1 -22 8 -34.5t36 -11.5q54 3 115 34t120.5 78t109.5 97l5 5q17 30 34.5 57.5t32.5 44.5t24 17q7 0 19.5 -4.5t22 -11t5.5 -12.5q-16 -22 -43.5 -63t-59 -94t-61 -112.5t-49.5 -119.5q-5 -14 -13.5 -41.5t-15 -58.5t-6.5 -57q0 -22 7 -36t24 -14q11 0 25 6t33 19
q29 19 75.5 63t97.5 96q64 64 126.5 133.5t117.5 146.5l-10 5q-10 4 -10 14q0 7 8.5 13t30.5 6q31 0 47 -29.5t14 -79.5q-1 -24 -11.5 -66t-27 -93t-37 -103t-41.5 -95q13 0 26 -0.5t26 -1.5q35 -4 66 -13.5t38 -28.5q1 -1 1 -1.5v-0.5q0 -4 -5 -6t-6 2q-7 14 -35.5 21.5
t-62.5 8.5q-7 0 -14.5 0.5t-15.5 0.5q-7 0 -14 -0.5t-15 -0.5q-59 -111 -131 -206.5t-153 -168t-167 -113t-173 -40.5zM169 -538q66 3 131.5 33.5t127.5 81.5t119 115t106.5 134.5t89.5 140.5q-13 -2 -26.5 -5t-27.5 -6q-75 -16 -159.5 -50t-168 -81t-157.5 -102
q-73 -55 -105.5 -103t-32.5 -83q0 -36 28.5 -56t74.5 -19zM697.647 552.141q-3.39941 0 -3.39941 1.7002q0 3.39941 16.999 12.749q25.5 14.4502 49.7236 31.4492q24.2246 17 40.374 29.75q9.34961 1.69922 19.125 -6.80078q9.77441 -8.49902 7.22461 -12.749
q-11.8994 -6.7998 -30.5996 -16.1494q-18.6992 -9.34961 -38.6738 -18.2744t-35.2734 -15.7246q-5.10059 -1.7002 -13.1748 -3.8252q-8.0752 -2.125 -12.3252 -2.125z" />
    <glyph glyph-name="Thorn" unicode="&#xde;" horiz-adv-x="566" 
d="M151 -138q-2 0 -13 4.5t-22.5 11.5t-17.5 13q-5 7 -7.5 19t-2.5 16q0 42 19.5 93.5t51 105t65.5 100.5q45 63 79 113.5t61 95.5t51.5 90.5t51.5 99t61 120.5q3 6 12 -7.5t9 -35.5q0 -12 -4 -23q-8 -21 -25 -53.5t-37 -67.5t-38 -67t-28 -52.5t-7 -22.5q10 2 33 5t52 3
q32 0 67.5 -7t64.5 -29q11 -8 22 -26t12 -35q1 -39 -21 -69.5t-58 -53t-77.5 -37t-80.5 -21.5t-67 -7q-30 0 -53 10.5t-23 29.5q0 8 5 17t16 19q17 14 54.5 30t89.5 31q38 11 58 16t26 5q7 0 -6.5 -7.5t-38 -18.5t-51.5 -23t-48.5 -21t-28.5 -13q-21 -10 -30 -18.5t-9 -13.5
q0 -12 34 -12q27 0 66.5 8t75.5 24q40 17 72.5 41t52 49.5t19.5 47.5q0 24 -18 37.5t-45.5 19t-58.5 5.5q-33 0 -62.5 -4.5t-46.5 -9.5q-10 -4 -34.5 -29t-57.5 -64t-67 -87.5t-63 -100t-45.5 -100.5t-14.5 -89q0 -5 2 -15.5t7 -19.5t15 -9q12 0 12 -5q0 -6 -10 -6z" />
    <glyph glyph-name="germandbls" unicode="&#xdf;" horiz-adv-x="643" 
d="M-237 -367q-17 0 -35 3.5t-35 10.5q-23 8 -47.5 28.5t-26.5 47.5q5 14 11.5 18.5t6.5 -0.5q-1 -14 1 -26t9 -20q16 -24 37 -34.5t45 -10.5q31 0 64.5 13.5t65.5 34t59.5 44t45.5 42.5q47 50 90 108.5t80.5 118.5t69 115.5t55.5 98.5q20 36 43 82.5t49 95t57 89.5t67 66.5
t78 25.5q59 0 93 -35.5t29 -85.5q-6 -55 -31.5 -95t-62.5 -61t-80 -21q-16 0 -31 3q-9 -16 -9 -39q0 -30 11.5 -66t26.5 -71.5t26 -63t11 -39.5q79 2 143 28q38 16 75 41.5t76 54.5l67 52q2 1 5 1t3 -2q0 -3 -6 -9q-46 -45 -102 -90t-118 -71q-31 -10 -69 -19t-76 -9
q-7 -36 -22 -54t-35 -18q-21 0 -41 20q-37 37 -60 52t-36 18.5t-20 7.5q-22 12 -22 28q0 10 9 17t20 7q8 0 16 -5q22 -17 61 -30t81 -18q1 5 1.5 9.5t0.5 9.5q0 33 -11.5 75.5t-23 85.5t-11.5 77q0 26 10 42q21 -6 41 -6q43 0 78 23t56 63.5t21 91.5q0 32 -16.5 53.5
t-54.5 21.5q-32 0 -66.5 -26t-68 -67.5t-63.5 -88t-53.5 -88.5t-37.5 -68q-29 -54 -64.5 -118t-76 -129.5t-85.5 -126.5t-93.5 -109t-100 -76t-104.5 -28zM455 -42q8 0 13.5 9.5t11.5 28.5q-38 5 -73.5 14t-46.5 13q10 -5 27 -17t32 -26q25 -22 36 -22z" />
    <glyph glyph-name="agrave" unicode="&#xe0;" horiz-adv-x="557" 
d="M464 -11q-30 0 -52.5 15t-22.5 56q1 21 7.5 43.5t14.5 42.5q-13 -15 -39 -40t-58.5 -50.5t-66.5 -43.5t-64 -18t-49 22q-13 14 -13 38q0 28 18.5 61t49 64.5t66 56.5t69.5 36q47 15 74 15q29 0 42.5 -15.5t17.5 -44.5v-3q0 -7 -3.5 -11.5t-6.5 -4.5q-5 0 -5 8
q0 5 -1.5 14.5t-9 18t-25.5 8.5q-25 0 -57 -14t-65 -37.5t-62 -51t-48 -54.5t-22 -48q-1 -3 -1 -6v-5q0 -18 7.5 -25t19.5 -7q18 0 41.5 11t43.5 25t28 21q32 27 72 59.5t71 60.5q5 3 11 3q14 0 23 -7q3 -3 3 -8t-2.5 -12.5t-6.5 -16.5q-17 -35 -28 -63t-11 -47
q0 -30 33 -30q25 0 74 18q53 20 106 55t96 71q11 9 20 15t19 16q2 1 5 1t3 -3t-4 -8q-6 -8 -29 -29.5t-57 -48t-73.5 -51t-79.5 -38.5q-15 -5 -34.5 -9.5t-38.5 -4.5zM453.793 345.541q0 -3.40039 -11.0498 -0.850586t-17.8496 5.9502q-15.2998 6.7998 -35.2734 15.7246
q-19.9746 8.9248 -38.6738 18.2744q-18.7002 9.34961 -30.5996 16.1494q-2.5498 4.25 7.64941 12.75q10.2002 8.49902 18.7002 6.7998q16.1494 -12.75 40.374 -29.3242q24.2236 -16.5752 49.7227 -31.874q17 -10.2002 17 -13.5996z" />
    <glyph glyph-name="aacute" unicode="&#xe1;" horiz-adv-x="557" 
d="M464 -11q-30 0 -52.5 15t-22.5 56q1 21 7.5 43.5t14.5 42.5q-13 -15 -39 -40t-58.5 -50.5t-66.5 -43.5t-64 -18t-49 22q-13 14 -13 38q0 28 18.5 61t49 64.5t66 56.5t69.5 36q47 15 74 15q29 0 42.5 -15.5t17.5 -44.5v-3q0 -7 -3.5 -11.5t-6.5 -4.5q-5 0 -5 8
q0 5 -1.5 14.5t-9 18t-25.5 8.5q-25 0 -57 -14t-65 -37.5t-62 -51t-48 -54.5t-22 -48q-1 -3 -1 -6v-5q0 -18 7.5 -25t19.5 -7q18 0 41.5 11t43.5 25t28 21q32 27 72 59.5t71 60.5q5 3 11 3q14 0 23 -7q3 -3 3 -8t-2.5 -12.5t-6.5 -16.5q-17 -35 -28 -63t-11 -47
q0 -30 33 -30q25 0 74 18q53 20 106 55t96 71q11 9 20 15t19 16q2 1 5 1t3 -3t-4 -8q-6 -8 -29 -29.5t-57 -48t-73.5 -51t-79.5 -38.5q-15 -5 -34.5 -9.5t-38.5 -4.5zM359.647 345.141q-3.39941 0 -3.39941 1.7002q0 3.39941 16.999 12.749q25.5 14.4502 49.7236 31.4492
q24.2246 17 40.374 29.75q9.34961 1.69922 19.125 -6.80078q9.77441 -8.49902 7.22461 -12.749q-11.8994 -6.7998 -30.5996 -16.1494q-18.6992 -9.34961 -38.6738 -18.2744t-35.2734 -15.7246q-5.10059 -1.7002 -13.1748 -3.8252q-8.0752 -2.125 -12.3252 -2.125z" />
    <glyph glyph-name="acircumflex" unicode="&#xe2;" horiz-adv-x="557" 
d="M464 -11q-30 0 -52.5 15t-22.5 56q1 21 7.5 43.5t14.5 42.5q-13 -15 -39 -40t-58.5 -50.5t-66.5 -43.5t-64 -18t-49 22q-13 14 -13 38q0 28 18.5 61t49 64.5t66 56.5t69.5 36q47 15 74 15q29 0 42.5 -15.5t17.5 -44.5v-3q0 -7 -3.5 -11.5t-6.5 -4.5q-5 0 -5 8
q0 5 -1.5 14.5t-9 18t-25.5 8.5q-25 0 -57 -14t-65 -37.5t-62 -51t-48 -54.5t-22 -48q-1 -3 -1 -6v-5q0 -18 7.5 -25t19.5 -7q18 0 41.5 11t43.5 25t28 21q32 27 72 59.5t71 60.5q5 3 11 3q14 0 23 -7q3 -3 3 -8t-2.5 -12.5t-6.5 -16.5q-17 -35 -28 -63t-11 -47
q0 -30 33 -30q25 0 74 18q53 20 106 55t96 71q11 9 20 15t19 16q2 1 5 1t3 -3t-4 -8q-6 -8 -29 -29.5t-57 -48t-73.5 -51t-79.5 -38.5q-15 -5 -34.5 -9.5t-38.5 -4.5zM289.217 337.892q-3.39941 0 -2.68555 3.40039q1.07227 5.09961 9.79395 10.1992
q14.8936 10.2002 38.9336 25.499q24.04 15.2998 50.8984 31.875q26.8574 16.5742 50.1152 30.1738q8.32129 -0.849609 31.1953 -41.6484q6.66992 -12.75 11.8184 -24.6494q5.14941 -11.9004 7.12012 -18.7002q2.50586 -4.25 1.25586 -10.1992
q-0.893555 -4.25 -4.31543 -6.375q-3.4209 -2.125 -4.58496 0.424805q-6.17773 11.0498 -16.6504 25.9248q-10.4736 14.874 -19.2686 27.624q-8.79492 12.749 -13.001 16.999q-10.6006 -5.94922 -29.0723 -16.999q-18.4727 -11.0498 -42.5801 -24.6494
q-27.0156 -15.2998 -44.5049 -21.6748q-17.4893 -6.37402 -21.918 -7.22461h-2.5498z" />
    <glyph glyph-name="atilde" unicode="&#xe3;" horiz-adv-x="557" 
d="M464 -11q-30 0 -52.5 15t-22.5 56q1 21 7.5 43.5t14.5 42.5q-13 -15 -39 -40t-58.5 -50.5t-66.5 -43.5t-64 -18t-49 22q-13 14 -13 38q0 28 18.5 61t49 64.5t66 56.5t69.5 36q47 15 74 15q29 0 42.5 -15.5t17.5 -44.5v-3q0 -7 -3.5 -11.5t-6.5 -4.5q-5 0 -5 8
q0 5 -1.5 14.5t-9 18t-25.5 8.5q-25 0 -57 -14t-65 -37.5t-62 -51t-48 -54.5t-22 -48q-1 -3 -1 -6v-5q0 -18 7.5 -25t19.5 -7q18 0 41.5 11t43.5 25t28 21q32 27 72 59.5t71 60.5q5 3 11 3q14 0 23 -7q3 -3 3 -8t-2.5 -12.5t-6.5 -16.5q-17 -35 -28 -63t-11 -47
q0 -30 33 -30q25 0 74 18q53 20 106 55t96 71q11 9 20 15t19 16q2 1 5 1t3 -3t-4 -8q-6 -8 -29 -29.5t-57 -48t-73.5 -51t-79.5 -38.5q-15 -5 -34.5 -9.5t-38.5 -4.5zM424.396 345.891q-16.999 0 -42.499 11.0498q-28.8984 11.8994 -41.6484 11.8994
q-14.4492 0 -28.0488 -11.0488q-13.5996 -11.0498 -18.7002 -11.0498q-0.849609 0.849609 -0.849609 1.69922q0 6.7998 9.34961 15.2998t27.1992 19.5498q13.5996 8.49902 30.5986 8.49902q15.2998 0 40.7988 -8.49902q13.5996 -4.25 23.375 -6.7998
q9.77441 -2.5498 16.5742 -2.5498q20.3994 0 35.6992 17.8486q5.09961 0 5.09961 -3.39941q0 -5.9502 -8.07422 -15.2998q-8.0752 -9.34961 -25.9248 -20.3994q-11.0498 -6.7998 -22.9492 -6.7998z" />
    <glyph glyph-name="adieresis" unicode="&#xe4;" horiz-adv-x="557" 
d="M464 -11q-30 0 -52.5 15t-22.5 56q1 21 7.5 43.5t14.5 42.5q-13 -15 -39 -40t-58.5 -50.5t-66.5 -43.5t-64 -18t-49 22q-13 14 -13 38q0 28 18.5 61t49 64.5t66 56.5t69.5 36q47 15 74 15q29 0 42.5 -15.5t17.5 -44.5v-3q0 -7 -3.5 -11.5t-6.5 -4.5q-5 0 -5 8
q0 5 -1.5 14.5t-9 18t-25.5 8.5q-25 0 -57 -14t-65 -37.5t-62 -51t-48 -54.5t-22 -48q-1 -3 -1 -6v-5q0 -18 7.5 -25t19.5 -7q18 0 41.5 11t43.5 25t28 21q32 27 72 59.5t71 60.5q5 3 11 3q14 0 23 -7q3 -3 3 -8t-2.5 -12.5t-6.5 -16.5q-17 -35 -28 -63t-11 -47
q0 -30 33 -30q25 0 74 18q53 20 106 55t96 71q11 9 20 15t19 16q2 1 5 1t3 -3t-4 -8q-6 -8 -29 -29.5t-57 -48t-73.5 -51t-79.5 -38.5q-15 -5 -34.5 -9.5t-38.5 -4.5zM453 346q-20 0 -20 21q0 8 3 15q5 13 19.5 17.5t27.5 4.5t13 -12q0 -9 -6 -21t-16.5 -18.5t-20.5 -6.5z
M329 346q-20 0 -20 21q0 8 3 15q5 13 19.5 17.5t27.5 4.5t13 -12q0 -9 -6 -21t-16.5 -18.5t-20.5 -6.5z" />
    <glyph glyph-name="aring" unicode="&#xe5;" horiz-adv-x="557" 
d="M464 -11q-30 0 -52.5 15t-22.5 56q1 21 7.5 43.5t14.5 42.5q-13 -15 -39 -40t-58.5 -50.5t-66.5 -43.5t-64 -18t-49 22q-13 14 -13 38q0 28 18.5 61t49 64.5t66 56.5t69.5 36q47 15 74 15q29 0 42.5 -15.5t17.5 -44.5v-3q0 -7 -3.5 -11.5t-6.5 -4.5q-5 0 -5 8
q0 5 -1.5 14.5t-9 18t-25.5 8.5q-25 0 -57 -14t-65 -37.5t-62 -51t-48 -54.5t-22 -48q-1 -3 -1 -6v-5q0 -18 7.5 -25t19.5 -7q18 0 41.5 11t43.5 25t28 21q32 27 72 59.5t71 60.5q5 3 11 3q14 0 23 -7q3 -3 3 -8t-2.5 -12.5t-6.5 -16.5q-17 -35 -28 -63t-11 -47
q0 -30 33 -30q25 0 74 18q53 20 106 55t96 71q11 9 20 15t19 16q2 1 5 1t3 -3t-4 -8q-6 -8 -29 -29.5t-57 -48t-73.5 -51t-79.5 -38.5q-15 -5 -34.5 -9.5t-38.5 -4.5zM393 340q-27 0 -38.5 13.5t-11.5 32.5q0 26 12 48.5t32.5 37t45.5 14.5q19 0 31 -15q12 -16 12 -37
q0 -27 -12.5 -48.5t-31.5 -33.5t-39 -12zM395 359q24 0 40 24q17 25 17 49q0 36 -22 36q-10 0 -22 -12.5t-20 -31.5t-8 -39q0 -26 15 -26z" />
    <glyph glyph-name="ae" unicode="&#xe6;" horiz-adv-x="851" 
d="M465 -12q-34 0 -55 15.5t-21 56.5q1 21 7.5 43.5t14.5 42.5q-13 -15 -39 -40t-58.5 -50.5t-66.5 -43.5t-64 -18t-49 22q-13 14 -13 38q0 28 18.5 61t49 64.5t66 56.5t69.5 36q47 15 74 15q29 0 42.5 -15.5t17.5 -44.5v-3q0 -7 -3.5 -11.5t-6.5 -4.5q-5 0 -5 8
q0 5 -1.5 14.5t-9 18t-25.5 8.5q-25 0 -57 -14t-65 -37.5t-62 -51t-48 -54.5t-22 -48q-1 -3 -1 -6v-5q0 -18 7.5 -25t19.5 -7q18 0 41.5 11t43.5 25t28 21q32 27 72 59.5t71 60.5q5 3 11 3q14 0 23 -7q3 -3 3 -8t-2.5 -12.5t-6.5 -16.5q-14 -29 -22 -53.5t-8 -42.5
q0 -43 46 -43q29 0 78 18l50 20q-4 12 -4 28v8.5t1 8.5q6 50 33.5 95t67 74t80.5 29q31 0 44.5 -15t13.5 -38q0 -30 -21 -62q-24 -38 -70.5 -71t-99.5 -58q9 -18 27 -26t43 -8q35 0 78 13.5t83 33.5q41 21 82 49t74.5 55.5t52.5 45.5l4 2q2 0 2 -3q0 -4 -4 -11
q-8 -13 -32.5 -36t-57.5 -49t-67 -48.5t-61 -34.5q-28 -13 -75.5 -25.5t-91.5 -12.5q-31 0 -55.5 8.5t-38.5 29.5q-45 -18 -85.5 -28t-64.5 -10zM646 62q41 21 84.5 51t68.5 67q8 11 15 26.5t7 28.5q0 11 -6.5 17.5t-23.5 6.5q-24 0 -48.5 -17t-45 -43t-34.5 -55.5
t-17 -53.5q-1 -16 0 -28z" />
    <glyph glyph-name="ccedilla" unicode="&#xe7;" horiz-adv-x="423" 
d="M291 -13q-23 0 -43.5 5t-37.5 15q-24 15 -34.5 34t-10.5 41q0 34 20.5 68.5t51 62.5t60.5 42q29 14 54.5 20t46.5 6q25 0 41 -8.5t16 -24.5q0 -15 -15.5 -37.5t-36 -40t-34.5 -20.5q-3 0 -3 6q0 4 4 8q6 5 17 16.5t20.5 25.5t9.5 25q0 16 -27 16q-26 0 -60 -16.5
t-66 -43.5t-53 -58.5t-21 -61.5q0 -23 14.5 -36.5t37 -19t46.5 -5.5q12 0 24 1t22 3q52 11 105.5 38t103.5 62t90 70q2 1 5 1q4 0 4 -2q0 -3 -4 -8q-7 -12 -28.5 -31t-49 -39t-53.5 -37.5t-43 -27.5q-37 -21 -83 -35t-90 -14zM174 -287q-9 0 -9 11q0 5 9 8l36 6t36 5
q35 11 35 58q0 13 -26 50q-26 38 -26 57q0 35 19 60q20 27 51 27q11 0 12 -7q-22 -4 -34 -22t-12 -41q0 -11 29 -48q29 -38 29 -65q0 -47 -53 -76q-44 -23 -96 -23z" />
    <glyph glyph-name="egrave" unicode="&#xe8;" horiz-adv-x="374" 
d="M286 -2q-22 0 -43.5 6.5t-40.5 21.5q-33 27 -33 65q0 34 22.5 68.5t55.5 64.5t65 48q11 7 28.5 10.5t33.5 3.5h11.5t9.5 -2q25 -7 36.5 -21t11.5 -31q0 -25 -16 -42.5t-40.5 -29t-51 -18.5t-49 -9.5t-33.5 -2.5q-23 0 -34 3q-18 -27 -22 -49q-1 -3 -1 -6.5v-6.5
q0 -22 18.5 -38.5t63.5 -16.5q41 1 86.5 19t90 46.5t84.5 60t71 58.5q2 2 5 2t3.5 -3t-2.5 -8q-11 -16 -38 -39t-58.5 -47t-58 -42t-37.5 -24q-30 -16 -66 -28.5t-72 -12.5zM241 142q8 0 18 1t21 3q15 3 38 10.5t46.5 19.5t39.5 28.5t16 36.5q0 19 -24 19q-19 0 -46 -13
q-31 -15 -65.5 -43.5t-58.5 -60.5q3 -1 7 -1h8zM448.793 345.541q0 -3.40039 -11.0498 -0.850586t-17.8496 5.9502q-15.2998 6.7998 -35.2734 15.7246q-19.9746 8.9248 -38.6738 18.2744q-18.7002 9.34961 -30.5996 16.1494q-2.5498 4.25 7.64941 12.75
q10.2002 8.49902 18.7002 6.7998q16.1494 -12.75 40.374 -29.3242q24.2236 -16.5752 49.7227 -31.874q17 -10.2002 17 -13.5996z" />
    <glyph glyph-name="eacute" unicode="&#xe9;" horiz-adv-x="374" 
d="M286 -2q-22 0 -43.5 6.5t-40.5 21.5q-33 27 -33 65q0 34 22.5 68.5t55.5 64.5t65 48q11 7 28.5 10.5t33.5 3.5h11.5t9.5 -2q25 -7 36.5 -21t11.5 -31q0 -25 -16 -42.5t-40.5 -29t-51 -18.5t-49 -9.5t-33.5 -2.5q-23 0 -34 3q-18 -27 -22 -49q-1 -3 -1 -6.5v-6.5
q0 -22 18.5 -38.5t63.5 -16.5q41 1 86.5 19t90 46.5t84.5 60t71 58.5q2 2 5 2t3.5 -3t-2.5 -8q-11 -16 -38 -39t-58.5 -47t-58 -42t-37.5 -24q-30 -16 -66 -28.5t-72 -12.5zM241 142q8 0 18 1t21 3q15 3 38 10.5t46.5 19.5t39.5 28.5t16 36.5q0 19 -24 19q-19 0 -46 -13
q-31 -15 -65.5 -43.5t-58.5 -60.5q3 -1 7 -1h8zM354.647 345.141q-3.39941 0 -3.39941 1.7002q0 3.39941 16.999 12.749q25.5 14.4502 49.7236 31.4492q24.2246 17 40.374 29.75q9.34961 1.69922 19.125 -6.80078q9.77441 -8.49902 7.22461 -12.749
q-11.8994 -6.7998 -30.5996 -16.1494q-18.6992 -9.34961 -38.6738 -18.2744t-35.2734 -15.7246q-5.10059 -1.7002 -13.1748 -3.8252q-8.0752 -2.125 -12.3252 -2.125z" />
    <glyph glyph-name="ecircumflex" unicode="&#xea;" horiz-adv-x="374" 
d="M286 -2q-22 0 -43.5 6.5t-40.5 21.5q-33 27 -33 65q0 34 22.5 68.5t55.5 64.5t65 48q11 7 28.5 10.5t33.5 3.5h11.5t9.5 -2q25 -7 36.5 -21t11.5 -31q0 -25 -16 -42.5t-40.5 -29t-51 -18.5t-49 -9.5t-33.5 -2.5q-23 0 -34 3q-18 -27 -22 -49q-1 -3 -1 -6.5v-6.5
q0 -22 18.5 -38.5t63.5 -16.5q41 1 86.5 19t90 46.5t84.5 60t71 58.5q2 2 5 2t3.5 -3t-2.5 -8q-11 -16 -38 -39t-58.5 -47t-58 -42t-37.5 -24q-30 -16 -66 -28.5t-72 -12.5zM241 142q8 0 18 1t21 3q15 3 38 10.5t46.5 19.5t39.5 28.5t16 36.5q0 19 -24 19q-19 0 -46 -13
q-31 -15 -65.5 -43.5t-58.5 -60.5q3 -1 7 -1h8zM284.217 337.892q-3.39941 0 -2.68555 3.40039q1.07227 5.09961 9.79395 10.1992q14.8936 10.2002 38.9336 25.499q24.04 15.2998 50.8984 31.875q26.8574 16.5742 50.1152 30.1738q8.32129 -0.849609 31.1953 -41.6484
q6.66992 -12.75 11.8184 -24.6494q5.14941 -11.9004 7.12012 -18.7002q2.50586 -4.25 1.25586 -10.1992q-0.893555 -4.25 -4.31543 -6.375q-3.4209 -2.125 -4.58496 0.424805q-6.17773 11.0498 -16.6504 25.9248q-10.4736 14.874 -19.2686 27.624
q-8.79492 12.749 -13.001 16.999q-10.6006 -5.94922 -29.0723 -16.999q-18.4727 -11.0498 -42.5801 -24.6494q-27.0156 -15.2998 -44.5049 -21.6748q-17.4893 -6.37402 -21.918 -7.22461h-2.5498z" />
    <glyph glyph-name="edieresis" unicode="&#xeb;" horiz-adv-x="374" 
d="M286 -2q-22 0 -43.5 6.5t-40.5 21.5q-33 27 -33 65q0 34 22.5 68.5t55.5 64.5t65 48q11 7 28.5 10.5t33.5 3.5h11.5t9.5 -2q25 -7 36.5 -21t11.5 -31q0 -25 -16 -42.5t-40.5 -29t-51 -18.5t-49 -9.5t-33.5 -2.5q-23 0 -34 3q-18 -27 -22 -49q-1 -3 -1 -6.5v-6.5
q0 -22 18.5 -38.5t63.5 -16.5q41 1 86.5 19t90 46.5t84.5 60t71 58.5q2 2 5 2t3.5 -3t-2.5 -8q-11 -16 -38 -39t-58.5 -47t-58 -42t-37.5 -24q-30 -16 -66 -28.5t-72 -12.5zM241 142q8 0 18 1t21 3q15 3 38 10.5t46.5 19.5t39.5 28.5t16 36.5q0 19 -24 19q-19 0 -46 -13
q-31 -15 -65.5 -43.5t-58.5 -60.5q3 -1 7 -1h8zM448 346q-20 0 -20 21q0 8 3 15q5 13 19.5 17.5t27.5 4.5t13 -12q0 -9 -6 -21t-16.5 -18.5t-20.5 -6.5zM324 346q-20 0 -20 21q0 8 3 15q5 13 19.5 17.5t27.5 4.5t13 -12q0 -9 -6 -21t-16.5 -18.5t-20.5 -6.5z" />
    <glyph glyph-name="igrave" unicode="&#xec;" horiz-adv-x="311" 
d="M199 -8q-28 0 -49 10.5t-21 38.5q0 31 16.5 60t37.5 52.5t35 35.5q-9 2 3 18t35 26q6 2 11 2q11 0 22.5 -5t11.5 -14q0 -5 -4 -10t-8 -8q-16 -12 -44.5 -37.5t-48.5 -50.5q-37 -47 -37 -73q0 -28 45 -28q37 0 72.5 11.5t66.5 27.5q49 25 91 60.5t87 71.5q2 1 5 1t3 -3
t-4 -8q-6 -8 -25 -26.5t-47.5 -41.5t-63 -45.5t-70.5 -38.5q-19 -8 -53.5 -17t-66.5 -9zM355.793 289.541q0 -3.40039 -11.0498 -0.850586t-17.8496 5.9502q-15.2998 6.7998 -35.2734 15.7246q-19.9746 8.9248 -38.6738 18.2744q-18.7002 9.34961 -30.5996 16.1494
q-2.5498 4.25 7.64941 12.75q10.2002 8.49902 18.7002 6.7998q16.1494 -12.75 40.374 -29.3242q24.2236 -16.5752 49.7227 -31.874q17 -10.2002 17 -13.5996z" />
    <glyph glyph-name="iacute" unicode="&#xed;" horiz-adv-x="311" 
d="M199 -8q-28 0 -49 10.5t-21 38.5q0 31 16.5 60t37.5 52.5t35 35.5q-9 2 3 18t35 26q6 2 11 2q11 0 22.5 -5t11.5 -14q0 -5 -4 -10t-8 -8q-16 -12 -44.5 -37.5t-48.5 -50.5q-37 -47 -37 -73q0 -28 45 -28q37 0 72.5 11.5t66.5 27.5q49 25 91 60.5t87 71.5q2 1 5 1t3 -3
t-4 -8q-6 -8 -25 -26.5t-47.5 -41.5t-63 -45.5t-70.5 -38.5q-19 -8 -53.5 -17t-66.5 -9zM261.647 289.141q-3.39941 0 -3.39941 1.7002q0 3.39941 16.999 12.749q25.5 14.4502 49.7236 31.4492q24.2246 17 40.374 29.75q9.34961 1.69922 19.125 -6.80078
q9.77441 -8.49902 7.22461 -12.749q-11.8994 -6.7998 -30.5996 -16.1494q-18.6992 -9.34961 -38.6738 -18.2744t-35.2734 -15.7246q-5.10059 -1.7002 -13.1748 -3.8252q-8.0752 -2.125 -12.3252 -2.125z" />
    <glyph glyph-name="icircumflex" unicode="&#xee;" horiz-adv-x="311" 
d="M199 -8q-28 0 -49 10.5t-21 38.5q0 31 16.5 60t37.5 52.5t35 35.5q-9 2 3 18t35 26q6 2 11 2q11 0 22.5 -5t11.5 -14q0 -5 -4 -10t-8 -8q-16 -12 -44.5 -37.5t-48.5 -50.5q-37 -47 -37 -73q0 -28 45 -28q37 0 72.5 11.5t66.5 27.5q49 25 91 60.5t87 71.5q2 1 5 1t3 -3
t-4 -8q-6 -8 -25 -26.5t-47.5 -41.5t-63 -45.5t-70.5 -38.5q-19 -8 -53.5 -17t-66.5 -9zM191.217 281.892q-3.39941 0 -2.68555 3.40039q1.07227 5.09961 9.79395 10.1992q14.8936 10.2002 38.9336 25.499q24.04 15.2998 50.8984 31.875q26.8574 16.5742 50.1152 30.1738
q8.32129 -0.849609 31.1953 -41.6484q6.66992 -12.75 11.8184 -24.6494q5.14941 -11.9004 7.12012 -18.7002q2.50586 -4.25 1.25586 -10.1992q-0.893555 -4.25 -4.31543 -6.375q-3.4209 -2.125 -4.58496 0.424805q-6.17773 11.0498 -16.6504 25.9248
q-10.4736 14.874 -19.2686 27.624q-8.79492 12.749 -13.001 16.999q-10.6006 -5.94922 -29.0723 -16.999q-18.4727 -11.0498 -42.5801 -24.6494q-27.0156 -15.2998 -44.5049 -21.6748q-17.4893 -6.37402 -21.918 -7.22461h-2.5498z" />
    <glyph glyph-name="idieresis" unicode="&#xef;" horiz-adv-x="311" 
d="M199 -8q-28 0 -49 10.5t-21 38.5q0 31 16.5 60t37.5 52.5t35 35.5q-9 2 3 18t35 26q6 2 11 2q11 0 22.5 -5t11.5 -14q0 -5 -4 -10t-8 -8q-16 -12 -44.5 -37.5t-48.5 -50.5q-37 -47 -37 -73q0 -28 45 -28q37 0 72.5 11.5t66.5 27.5q49 25 91 60.5t87 71.5q2 1 5 1t3 -3
t-4 -8q-6 -8 -25 -26.5t-47.5 -41.5t-63 -45.5t-70.5 -38.5q-19 -8 -53.5 -17t-66.5 -9zM355 290q-20 0 -20 21q0 8 3 15q5 13 19.5 17.5t27.5 4.5t13 -12q0 -9 -6 -21t-16.5 -18.5t-20.5 -6.5zM231 290q-20 0 -20 21q0 8 3 15q5 13 19.5 17.5t27.5 4.5t13 -12q0 -9 -6 -21
t-16.5 -18.5t-20.5 -6.5z" />
    <glyph glyph-name="eth" unicode="&#xf0;" horiz-adv-x="568" 
d="M215 8q-13 0 -24.5 6.5t-19.5 16.5q-8 8 -11.5 19t-3.5 22q0 28 18 59.5t45.5 61.5t59 53.5t58.5 35.5q23 9 46 9q32 0 57 -17q8 -6 14.5 -13t7.5 -17q33 49 62 106t46 113q-25 -8 -50.5 -16t-49.5 -15q-1 0 -2 -0.5t-3 -0.5q-8 0 -8 8q0 12 25 26q11 6 35 14t44 14l18 5
q4 20 6.5 38.5t2.5 36.5q0 47 -19.5 70.5t-50.5 23.5q-19 0 -39 -8.5t-34 -26.5q-7 -9 -11 -9q-5 0 -2 11q6 20 33 37.5t59 17.5q28 0 51.5 -16.5t37.5 -44.5t14 -63q0 -13 -1.5 -27t-3.5 -28q14 4 31.5 7t36.5 4h9q17 0 17 -4q0 -6 -21 -11q-19 -7 -39 -14t-42 -14
q-18 -68 -57 -136t-87.5 -127t-96.5 -102q-24 -23 -53 -47.5t-56.5 -41t-48.5 -16.5zM202 24q9 0 20.5 4.5t21.5 11.5q31 19 61 41t59 47q20 17 42 42.5t44 56.5l-3 5q-5 12 -15 24.5t-33 12.5q-31 0 -66.5 -21t-68 -53t-54.5 -66.5t-26 -61.5q-1 -4 -1 -8v-8q0 -27 19 -27z
" />
    <glyph glyph-name="ntilde" unicode="&#xf1;" horiz-adv-x="533" 
d="M134 -8h-4q-10 0 -10 12q0 10 4.5 20.5t5.5 13.5q8 17 25.5 45t39.5 59.5t46 60t45 46.5t36 18q4 0 16.5 -6.5t18.5 -10.5q5 -3 5 -8q0 -8 -7 -8h-5q-3 0 -6 -0.5t-9 -3.5q-15 -7 -37 -25.5t-46 -44t-45.5 -51.5t-36.5 -47t-20 -31q9 14 30 34.5t48.5 42.5t57 40.5
t56.5 29.5q23 10 41 10q24 0 34.5 -16t14 -39.5t5.5 -47.5q4 -38 16 -53t31 -15q14 0 32 6.5t39 16.5q42 21 86.5 52.5t85.5 65.5l63 52q8 6 10 6q6 0 -9.5 -22.5t-50.5 -51.5q-27 -22 -60.5 -48t-70 -49t-73 -38t-68.5 -15q-30 0 -44.5 16.5t-20.5 41t-10 49.5t-12.5 41.5
t-28.5 16.5q-13 0 -30 -7t-41 -24q-32 -22 -57.5 -44.5t-46.5 -43.5q-7 -7 -17 -18t-17.5 -19.5t-8.5 -8.5zM379.396 326.891q-16.999 0 -42.499 11.0498q-28.8984 11.8994 -41.6484 11.8994q-14.4492 0 -28.0488 -11.0488q-13.5996 -11.0498 -18.7002 -11.0498
q-0.849609 0.849609 -0.849609 1.69922q0 6.7998 9.34961 15.2998t27.1992 19.5498q13.5996 8.49902 30.5986 8.49902q15.2998 0 40.7988 -8.49902q13.5996 -4.25 23.375 -6.7998q9.77441 -2.5498 16.5742 -2.5498q20.3994 0 35.6992 17.8486q5.09961 0 5.09961 -3.39941
q0 -5.9502 -8.07422 -15.2998q-8.0752 -9.34961 -25.9248 -20.3994q-11.0498 -6.7998 -22.9492 -6.7998z" />
    <glyph glyph-name="ograve" unicode="&#xf2;" horiz-adv-x="450" 
d="M188 -18q-36 0 -51.5 19t-15.5 43q0 8 1 15.5t4 14.5q8 24 25 49t39 44t43 23q4 1 14.5 -3.5t20 -10t9.5 -7.5q2 -2 2.5 -7.5t-6.5 -0.5q-9 6 -27.5 -6t-37 -30.5t-29.5 -30.5q-11 -15 -20.5 -33.5t-9.5 -33.5q0 -12 8 -19.5t28 -7.5q5 0 10.5 0.5t12.5 1.5
q20 4 49.5 18.5t62 37.5t60.5 49q17 15 32.5 35t25.5 40q-37 1 -75.5 3.5t-71.5 9t-53 17.5q-13 8 -19 16t-6 15t4.5 11.5t9.5 4.5t9 -3t7.5 -6t7.5 -5q38 22 75 30.5t64 8.5q31 0 55 -13t28 -45q2 -14 0 -26q17 -1 34 -1h32q30 0 62.5 4.5t60 11.5t41.5 14q7 4 11 4t4 -3
q0 -7 -16 -14q-22 -10 -67.5 -20.5t-95.5 -12.5q-13 -1 -31 -1.5t-39 -0.5q-10 -41 -41.5 -77t-74 -63.5t-86.5 -43t-79 -15.5zM446 201q4 11 4 23q0 17 -13 29t-45 13q-34 0 -65 -8t-57 -22q38 -17 84 -25t92 -10zM456.793 343.541q0 -3.40039 -11.0498 -0.850586
t-17.8496 5.9502q-15.2998 6.7998 -35.2734 15.7246q-19.9746 8.9248 -38.6738 18.2744q-18.7002 9.34961 -30.5996 16.1494q-2.5498 4.25 7.64941 12.75q10.2002 8.49902 18.7002 6.7998q16.1494 -12.75 40.374 -29.3242q24.2236 -16.5752 49.7227 -31.874
q17 -10.2002 17 -13.5996z" />
    <glyph glyph-name="oacute" unicode="&#xf3;" horiz-adv-x="450" 
d="M188 -18q-36 0 -51.5 19t-15.5 43q0 8 1 15.5t4 14.5q8 24 25 49t39 44t43 23q4 1 14.5 -3.5t20 -10t9.5 -7.5q2 -2 2.5 -7.5t-6.5 -0.5q-9 6 -27.5 -6t-37 -30.5t-29.5 -30.5q-11 -15 -20.5 -33.5t-9.5 -33.5q0 -12 8 -19.5t28 -7.5q5 0 10.5 0.5t12.5 1.5
q20 4 49.5 18.5t62 37.5t60.5 49q17 15 32.5 35t25.5 40q-37 1 -75.5 3.5t-71.5 9t-53 17.5q-13 8 -19 16t-6 15t4.5 11.5t9.5 4.5t9 -3t7.5 -6t7.5 -5q38 22 75 30.5t64 8.5q31 0 55 -13t28 -45q2 -14 0 -26q17 -1 34 -1h32q30 0 62.5 4.5t60 11.5t41.5 14q7 4 11 4t4 -3
q0 -7 -16 -14q-22 -10 -67.5 -20.5t-95.5 -12.5q-13 -1 -31 -1.5t-39 -0.5q-10 -41 -41.5 -77t-74 -63.5t-86.5 -43t-79 -15.5zM446 201q4 11 4 23q0 17 -13 29t-45 13q-34 0 -65 -8t-57 -22q38 -17 84 -25t92 -10zM362.647 343.141q-3.39941 0 -3.39941 1.7002
q0 3.39941 16.999 12.749q25.5 14.4502 49.7236 31.4492q24.2246 17 40.374 29.75q9.34961 1.69922 19.125 -6.80078q9.77441 -8.49902 7.22461 -12.749q-11.8994 -6.7998 -30.5996 -16.1494q-18.6992 -9.34961 -38.6738 -18.2744t-35.2734 -15.7246
q-5.10059 -1.7002 -13.1748 -3.8252q-8.0752 -2.125 -12.3252 -2.125z" />
    <glyph glyph-name="ocircumflex" unicode="&#xf4;" horiz-adv-x="450" 
d="M188 -18q-36 0 -51.5 19t-15.5 43q0 8 1 15.5t4 14.5q8 24 25 49t39 44t43 23q4 1 14.5 -3.5t20 -10t9.5 -7.5q2 -2 2.5 -7.5t-6.5 -0.5q-9 6 -27.5 -6t-37 -30.5t-29.5 -30.5q-11 -15 -20.5 -33.5t-9.5 -33.5q0 -12 8 -19.5t28 -7.5q5 0 10.5 0.5t12.5 1.5
q20 4 49.5 18.5t62 37.5t60.5 49q17 15 32.5 35t25.5 40q-37 1 -75.5 3.5t-71.5 9t-53 17.5q-13 8 -19 16t-6 15t4.5 11.5t9.5 4.5t9 -3t7.5 -6t7.5 -5q38 22 75 30.5t64 8.5q31 0 55 -13t28 -45q2 -14 0 -26q17 -1 34 -1h32q30 0 62.5 4.5t60 11.5t41.5 14q7 4 11 4t4 -3
q0 -7 -16 -14q-22 -10 -67.5 -20.5t-95.5 -12.5q-13 -1 -31 -1.5t-39 -0.5q-10 -41 -41.5 -77t-74 -63.5t-86.5 -43t-79 -15.5zM446 201q4 11 4 23q0 17 -13 29t-45 13q-34 0 -65 -8t-57 -22q38 -17 84 -25t92 -10zM292.217 335.892q-3.39941 0 -2.68555 3.40039
q1.07227 5.09961 9.79395 10.1992q14.8936 10.2002 38.9336 25.499q24.04 15.2998 50.8984 31.875q26.8574 16.5742 50.1152 30.1738q8.32129 -0.849609 31.1953 -41.6484q6.66992 -12.75 11.8184 -24.6494q5.14941 -11.9004 7.12012 -18.7002
q2.50586 -4.25 1.25586 -10.1992q-0.893555 -4.25 -4.31543 -6.375q-3.4209 -2.125 -4.58496 0.424805q-6.17773 11.0498 -16.6504 25.9248q-10.4736 14.874 -19.2686 27.624q-8.79492 12.749 -13.001 16.999q-10.6006 -5.94922 -29.0723 -16.999
q-18.4727 -11.0498 -42.5801 -24.6494q-27.0156 -15.2998 -44.5049 -21.6748q-17.4893 -6.37402 -21.918 -7.22461h-2.5498z" />
    <glyph glyph-name="otilde" unicode="&#xf5;" horiz-adv-x="450" 
d="M188 -18q-36 0 -51.5 19t-15.5 43q0 8 1 15.5t4 14.5q8 24 25 49t39 44t43 23q4 1 14.5 -3.5t20 -10t9.5 -7.5q2 -2 2.5 -7.5t-6.5 -0.5q-9 6 -27.5 -6t-37 -30.5t-29.5 -30.5q-11 -15 -20.5 -33.5t-9.5 -33.5q0 -12 8 -19.5t28 -7.5q5 0 10.5 0.5t12.5 1.5
q20 4 49.5 18.5t62 37.5t60.5 49q17 15 32.5 35t25.5 40q-37 1 -75.5 3.5t-71.5 9t-53 17.5q-13 8 -19 16t-6 15t4.5 11.5t9.5 4.5t9 -3t7.5 -6t7.5 -5q38 22 75 30.5t64 8.5q31 0 55 -13t28 -45q2 -14 0 -26q17 -1 34 -1h32q30 0 62.5 4.5t60 11.5t41.5 14q7 4 11 4t4 -3
q0 -7 -16 -14q-22 -10 -67.5 -20.5t-95.5 -12.5q-13 -1 -31 -1.5t-39 -0.5q-10 -41 -41.5 -77t-74 -63.5t-86.5 -43t-79 -15.5zM446 201q4 11 4 23q0 17 -13 29t-45 13q-34 0 -65 -8t-57 -22q38 -17 84 -25t92 -10zM427.396 343.891q-16.999 0 -42.499 11.0498
q-28.8984 11.8994 -41.6484 11.8994q-14.4492 0 -28.0488 -11.0488q-13.5996 -11.0498 -18.7002 -11.0498q-0.849609 0.849609 -0.849609 1.69922q0 6.7998 9.34961 15.2998t27.1992 19.5498q13.5996 8.49902 30.5986 8.49902q15.2998 0 40.7988 -8.49902
q13.5996 -4.25 23.375 -6.7998q9.77441 -2.5498 16.5742 -2.5498q20.3994 0 35.6992 17.8486q5.09961 0 5.09961 -3.39941q0 -5.9502 -8.07422 -15.2998q-8.0752 -9.34961 -25.9248 -20.3994q-11.0498 -6.7998 -22.9492 -6.7998z" />
    <glyph glyph-name="odieresis" unicode="&#xf6;" horiz-adv-x="450" 
d="M188 -18q-36 0 -51.5 19t-15.5 43q0 8 1 15.5t4 14.5q8 24 25 49t39 44t43 23q4 1 14.5 -3.5t20 -10t9.5 -7.5q2 -2 2.5 -7.5t-6.5 -0.5q-9 6 -27.5 -6t-37 -30.5t-29.5 -30.5q-11 -15 -20.5 -33.5t-9.5 -33.5q0 -12 8 -19.5t28 -7.5q5 0 10.5 0.5t12.5 1.5
q20 4 49.5 18.5t62 37.5t60.5 49q17 15 32.5 35t25.5 40q-37 1 -75.5 3.5t-71.5 9t-53 17.5q-13 8 -19 16t-6 15t4.5 11.5t9.5 4.5t9 -3t7.5 -6t7.5 -5q38 22 75 30.5t64 8.5q31 0 55 -13t28 -45q2 -14 0 -26q17 -1 34 -1h32q30 0 62.5 4.5t60 11.5t41.5 14q7 4 11 4t4 -3
q0 -7 -16 -14q-22 -10 -67.5 -20.5t-95.5 -12.5q-13 -1 -31 -1.5t-39 -0.5q-10 -41 -41.5 -77t-74 -63.5t-86.5 -43t-79 -15.5zM446 201q4 11 4 23q0 17 -13 29t-45 13q-34 0 -65 -8t-57 -22q38 -17 84 -25t92 -10zM456 344q-20 0 -20 21q0 8 3 15q5 13 19.5 17.5t27.5 4.5
t13 -12q0 -9 -6 -21t-16.5 -18.5t-20.5 -6.5zM332 344q-20 0 -20 21q0 8 3 15q5 13 19.5 17.5t27.5 4.5t13 -12q0 -9 -6 -21t-16.5 -18.5t-20.5 -6.5z" />
    <glyph glyph-name="divide" unicode="&#xf7;" horiz-adv-x="486" 
d="M335 262q-20 0 -20 21q0 8 3 15q5 14 21.5 19t29.5 3q9 -1 9 -12q0 -9 -6 -21t-16.5 -18.5t-20.5 -6.5zM250 158q-15 0 -29 1t-26 3q-14 2 -20 9.5t-6 14.5q0 8 6 13t16 3q38 -5 87.5 -8t98.5 -3q28 0 54 1t49 3q3 0 3 -5q0 -4 -2 -8.5t-5 -5.5q-46 -1 -108 -9.5
t-118 -8.5zM232 -10q-20 0 -20 21q0 8 3 15q5 14 21.5 19t29.5 3q9 -1 9 -12q0 -9 -6 -21t-16.5 -18.5t-20.5 -6.5z" />
    <glyph glyph-name="oslash" unicode="&#xf8;" horiz-adv-x="450" 
d="M136 -100q-2 0 -6 2.5t-4 5.5q1 3 6.5 12.5t15.5 24.5q6 10 12.5 19t13.5 19q-28 4 -40.5 21.5t-12.5 39.5q0 8 1 15.5t4 14.5q8 24 25 49t39 44t43 23q4 1 14.5 -3.5t20 -10t9.5 -7.5q2 -2 2.5 -7.5t-6.5 -0.5q-9 6 -27.5 -6t-37 -30.5t-29.5 -30.5q-11 -15 -20.5 -33.5
t-9.5 -33.5q0 -12 8.5 -19.5t28.5 -7.5q32 42 74 89t93 97q-35 4 -65.5 10t-49.5 16q-13 8 -19 16t-6 15t4.5 11.5t9.5 4.5t9 -3t7.5 -6t7.5 -5q38 22 75 30.5t64 8.5q15 0 28.5 -2.5t24.5 -9.5q11 10 24.5 21.5t29.5 24.5q5 4 10 2q15 0 12 -10q0 -2 -2 -4
q-10 -9 -24.5 -20.5t-32.5 -28.5q5 -6 8.5 -13.5t4.5 -17.5q2 -14 0 -26q17 -1 34 -1h32q30 0 62.5 4.5t60 11.5t41.5 14q7 4 11 4t4 -3q0 -7 -16 -14q-22 -10 -67.5 -20.5t-95.5 -12.5q-13 -1 -31 -1.5t-39 -0.5q-10 -40 -40.5 -75.5t-72 -63t-84.5 -43t-79 -17.5
q-7 -10 -13.5 -19t-12.5 -18l-24 -41q-1 -4 -7 -4zM375 208q11 11 23.5 22.5t25.5 23.5l4 4q-7 4 -16 5.5t-20 2.5q-34 0 -65 -8t-57 -22q23 -10 50 -17t55 -11zM446 201q2 6 3 11.5t1 10.5q0 10 -5 20l-44 -39zM208 2q20 4 49.5 18.5t62 37.5t60.5 49q17 15 32.5 35
t25.5 40q-14 0 -29 0.5t-30 1.5q-55 -52 -97.5 -97.5t-73.5 -84.5z" />
    <glyph glyph-name="ugrave" unicode="&#xf9;" horiz-adv-x="556" 
d="M457 -10q-42 0 -58 20t-16 49q0 21 7 44t15 43q-14 -15 -38 -40t-53 -50.5t-59.5 -43t-56.5 -17.5q-13 0 -25 6t-21 19q-10 14 -10 33q0 32 23.5 69t57.5 71q3 4 11.5 11.5t14.5 11.5q-4 3 4 15t21.5 22t23.5 4q9 -5 15.5 -10.5t6.5 -11.5t-9 -15l-21 -20
q-26 -25 -53 -52.5t-46 -53t-22 -44.5q-1 -4 -1 -7v-6q0 -29 22 -29q16 0 37.5 12.5t41 27.5t27.5 22q32 27 67 57.5t67 58.5q5 3 11 3q12 0 19 -7q3 -3 3 -8q0 -12 -11 -33t-22.5 -45t-14.5 -45q-1 -4 -1 -7v-6q0 -19 10.5 -26t26.5 -7q20 0 41.5 6.5t34.5 11.5
q53 20 106.5 56.5t97.5 70.5q11 8 21 15.5t20 16.5q8 6 10 6q1 0 1 -1q0 -2 -3 -7t-5 -9q-12 -18 -46.5 -48t-80 -60t-92.5 -50q-25 -10 -49 -16.5t-50 -6.5zM452.793 308.541q0 -3.40039 -11.0498 -0.850586t-17.8496 5.9502q-15.2998 6.7998 -35.2734 15.7246
q-19.9746 8.9248 -38.6738 18.2744q-18.7002 9.34961 -30.5996 16.1494q-2.5498 4.25 7.64941 12.75q10.2002 8.49902 18.7002 6.7998q16.1494 -12.75 40.374 -29.3242q24.2236 -16.5752 49.7227 -31.874q17 -10.2002 17 -13.5996z" />
    <glyph glyph-name="uacute" unicode="&#xfa;" horiz-adv-x="556" 
d="M457 -10q-42 0 -58 20t-16 49q0 21 7 44t15 43q-14 -15 -38 -40t-53 -50.5t-59.5 -43t-56.5 -17.5q-13 0 -25 6t-21 19q-10 14 -10 33q0 32 23.5 69t57.5 71q3 4 11.5 11.5t14.5 11.5q-4 3 4 15t21.5 22t23.5 4q9 -5 15.5 -10.5t6.5 -11.5t-9 -15l-21 -20
q-26 -25 -53 -52.5t-46 -53t-22 -44.5q-1 -4 -1 -7v-6q0 -29 22 -29q16 0 37.5 12.5t41 27.5t27.5 22q32 27 67 57.5t67 58.5q5 3 11 3q12 0 19 -7q3 -3 3 -8q0 -12 -11 -33t-22.5 -45t-14.5 -45q-1 -4 -1 -7v-6q0 -19 10.5 -26t26.5 -7q20 0 41.5 6.5t34.5 11.5
q53 20 106.5 56.5t97.5 70.5q11 8 21 15.5t20 16.5q8 6 10 6q1 0 1 -1q0 -2 -3 -7t-5 -9q-12 -18 -46.5 -48t-80 -60t-92.5 -50q-25 -10 -49 -16.5t-50 -6.5zM358.647 308.141q-3.39941 0 -3.39941 1.7002q0 3.39941 16.999 12.749q25.5 14.4502 49.7236 31.4492
q24.2246 17 40.374 29.75q9.34961 1.69922 19.125 -6.80078q9.77441 -8.49902 7.22461 -12.749q-11.8994 -6.7998 -30.5996 -16.1494q-18.6992 -9.34961 -38.6738 -18.2744t-35.2734 -15.7246q-5.10059 -1.7002 -13.1748 -3.8252q-8.0752 -2.125 -12.3252 -2.125z" />
    <glyph glyph-name="ucircumflex" unicode="&#xfb;" horiz-adv-x="556" 
d="M457 -10q-42 0 -58 20t-16 49q0 21 7 44t15 43q-14 -15 -38 -40t-53 -50.5t-59.5 -43t-56.5 -17.5q-13 0 -25 6t-21 19q-10 14 -10 33q0 32 23.5 69t57.5 71q3 4 11.5 11.5t14.5 11.5q-4 3 4 15t21.5 22t23.5 4q9 -5 15.5 -10.5t6.5 -11.5t-9 -15l-21 -20
q-26 -25 -53 -52.5t-46 -53t-22 -44.5q-1 -4 -1 -7v-6q0 -29 22 -29q16 0 37.5 12.5t41 27.5t27.5 22q32 27 67 57.5t67 58.5q5 3 11 3q12 0 19 -7q3 -3 3 -8q0 -12 -11 -33t-22.5 -45t-14.5 -45q-1 -4 -1 -7v-6q0 -19 10.5 -26t26.5 -7q20 0 41.5 6.5t34.5 11.5
q53 20 106.5 56.5t97.5 70.5q11 8 21 15.5t20 16.5q8 6 10 6q1 0 1 -1q0 -2 -3 -7t-5 -9q-12 -18 -46.5 -48t-80 -60t-92.5 -50q-25 -10 -49 -16.5t-50 -6.5zM288.217 300.892q-3.39941 0 -2.68555 3.40039q1.07227 5.09961 9.79395 10.1992q14.8936 10.2002 38.9336 25.499
q24.04 15.2998 50.8984 31.875q26.8574 16.5742 50.1152 30.1738q8.32129 -0.849609 31.1953 -41.6484q6.66992 -12.75 11.8184 -24.6494q5.14941 -11.9004 7.12012 -18.7002q2.50586 -4.25 1.25586 -10.1992q-0.893555 -4.25 -4.31543 -6.375
q-3.4209 -2.125 -4.58496 0.424805q-6.17773 11.0498 -16.6504 25.9248q-10.4736 14.874 -19.2686 27.624q-8.79492 12.749 -13.001 16.999q-10.6006 -5.94922 -29.0723 -16.999q-18.4727 -11.0498 -42.5801 -24.6494q-27.0156 -15.2998 -44.5049 -21.6748
q-17.4893 -6.37402 -21.918 -7.22461h-2.5498z" />
    <glyph glyph-name="udieresis" unicode="&#xfc;" horiz-adv-x="556" 
d="M457 -10q-42 0 -58 20t-16 49q0 21 7 44t15 43q-14 -15 -38 -40t-53 -50.5t-59.5 -43t-56.5 -17.5q-13 0 -25 6t-21 19q-10 14 -10 33q0 32 23.5 69t57.5 71q3 4 11.5 11.5t14.5 11.5q-4 3 4 15t21.5 22t23.5 4q9 -5 15.5 -10.5t6.5 -11.5t-9 -15l-21 -20
q-26 -25 -53 -52.5t-46 -53t-22 -44.5q-1 -4 -1 -7v-6q0 -29 22 -29q16 0 37.5 12.5t41 27.5t27.5 22q32 27 67 57.5t67 58.5q5 3 11 3q12 0 19 -7q3 -3 3 -8q0 -12 -11 -33t-22.5 -45t-14.5 -45q-1 -4 -1 -7v-6q0 -19 10.5 -26t26.5 -7q20 0 41.5 6.5t34.5 11.5
q53 20 106.5 56.5t97.5 70.5q11 8 21 15.5t20 16.5q8 6 10 6q1 0 1 -1q0 -2 -3 -7t-5 -9q-12 -18 -46.5 -48t-80 -60t-92.5 -50q-25 -10 -49 -16.5t-50 -6.5zM452 309q-20 0 -20 21q0 8 3 15q5 13 19.5 17.5t27.5 4.5t13 -12q0 -9 -6 -21t-16.5 -18.5t-20.5 -6.5zM328 309
q-20 0 -20 21q0 8 3 15q5 13 19.5 17.5t27.5 4.5t13 -12q0 -9 -6 -21t-16.5 -18.5t-20.5 -6.5z" />
    <glyph glyph-name="yacute" unicode="&#xfd;" horiz-adv-x="427" 
d="M-123 -494q-28 0 -56 8t-46.5 26.5t-18.5 49.5v8t1 8q8 47 42 88.5t85.5 78t112 67t122.5 54t117 40t94 24.5q14 3 28 5t27 3q21 39 34 82.5t13 74.5t-13 41l-3 -3q-16 -16 -47 -51.5t-66 -64.5q-27 -22 -54 -36t-50 -14q-14 0 -26.5 6t-21.5 19q-10 14 -10 33
q0 32 23.5 69t57.5 71q3 4 11.5 11.5t14.5 11.5q-4 3 4 15t21.5 22t23.5 4q9 -5 15.5 -10.5t6.5 -11.5t-9 -15l-21 -20q-26 -25 -53 -52.5t-46 -53t-22 -44.5q-1 -4 -1 -7v-6q0 -29 22 -29q16 0 37.5 12.5t41 27.5t27.5 22q29 24 56.5 51t54.5 52q-1 6 6 15.5t31 9.5
q37 0 37 -57q0 -28 -10.5 -68.5t-32.5 -88.5l-4 -8t-4 -9q23 0 47 -3q32 -4 60 -12.5t35 -25.5q0 -1 0.5 -1.5l0.5 -0.5q0 -4 -4 -5.5t-6 2.5q-6 13 -32 19.5t-56 8.5q-14 2 -27 2t-27 -1q-31 -60 -76.5 -122.5t-100.5 -120t-116 -103t-124.5 -72t-125.5 -26.5zM-134 -478
q61 0 121.5 27.5t118 73.5t108 102t91.5 113.5t69 107.5q-12 -1 -24 -3t-25 -5q-67 -13 -142.5 -41t-149 -67t-138.5 -85q-64 -45 -92 -85t-28 -70q0 -31 25.5 -49.5t65.5 -18.5zM355.647 302.141q-3.39941 0 -3.39941 1.7002q0 3.39941 16.999 12.749
q25.5 14.4502 49.7236 31.4492q24.2246 17 40.374 29.75q9.34961 1.69922 19.125 -6.80078q9.77441 -8.49902 7.22461 -12.749q-11.8994 -6.7998 -30.5996 -16.1494q-18.6992 -9.34961 -38.6738 -18.2744t-35.2734 -15.7246q-5.10059 -1.7002 -13.1748 -3.8252
q-8.0752 -2.125 -12.3252 -2.125z" />
    <glyph glyph-name="thorn" unicode="&#xfe;" horiz-adv-x="300" 
d="M-32 -291q-4 0 -4 4q0 5 5 11q11 17 31 53t45.5 85.5t52.5 105.5t51 111q4 10 8.5 19.5t9.5 19.5q35 70 88 142t117 136.5t130 111.5q5 4 11.5 7t13.5 3q14 0 25 -19t10 -32q0 -3 -2.5 -9.5t-6.5 -6.5q-1 0 -3 4t-3 5q-6 8 -15 8q-3 0 -5 -1q-52 -23 -99.5 -63.5
t-89.5 -90t-75 -99.5t-56.5 -93t-34.5 -70q24 32 59.5 64t78.5 59t88.5 43.5t87.5 16.5q38 0 56 -16t21 -32q39 7 76.5 10.5t66.5 5.5t41 2q2 0 7.5 -2t5.5 -4q0 -3 -13 -3q-49 -1 -95.5 -7t-87.5 -15q0 -37 -27.5 -68.5t-69 -55.5t-85.5 -37.5t-78 -13.5q-24 0 -38 9.5
t-14 25.5q0 18 20 41q21 23 88 55t171 52q-1 23 -15.5 30.5t-28.5 7.5q-20 0 -44 -6t-44 -14q-35 -14 -76.5 -41t-78 -60.5t-56.5 -65.5l-23 -37q-3 -7 -10 -7q-6 0 -11 5q-29 -59 -59.5 -114t-56 -96.5t-40.5 -60.5q-11 -13 -20 -13zM310 19q22 0 52 9t58 26
q44 29 72.5 60.5t35.5 50.5q-81 -19 -139.5 -44.5t-84.5 -45.5q-29 -23 -29 -38q0 -9 9.5 -13.5t25.5 -4.5z" />
    <glyph glyph-name="ydieresis" unicode="&#xff;" horiz-adv-x="427" 
d="M-123 -494q-28 0 -56 8t-46.5 26.5t-18.5 49.5v8t1 8q8 47 42 88.5t85.5 78t112 67t122.5 54t117 40t94 24.5q14 3 28 5t27 3q21 39 34 82.5t13 74.5t-13 41l-3 -3q-16 -16 -47 -51.5t-66 -64.5q-27 -22 -54 -36t-50 -14q-14 0 -26.5 6t-21.5 19q-10 14 -10 33
q0 32 23.5 69t57.5 71q3 4 11.5 11.5t14.5 11.5q-4 3 4 15t21.5 22t23.5 4q9 -5 15.5 -10.5t6.5 -11.5t-9 -15l-21 -20q-26 -25 -53 -52.5t-46 -53t-22 -44.5q-1 -4 -1 -7v-6q0 -29 22 -29q16 0 37.5 12.5t41 27.5t27.5 22q29 24 56.5 51t54.5 52q-1 6 6 15.5t31 9.5
q37 0 37 -57q0 -28 -10.5 -68.5t-32.5 -88.5l-4 -8t-4 -9q23 0 47 -3q32 -4 60 -12.5t35 -25.5q0 -1 0.5 -1.5l0.5 -0.5q0 -4 -4 -5.5t-6 2.5q-6 13 -32 19.5t-56 8.5q-14 2 -27 2t-27 -1q-31 -60 -76.5 -122.5t-100.5 -120t-116 -103t-124.5 -72t-125.5 -26.5zM-134 -478
q61 0 121.5 27.5t118 73.5t108 102t91.5 113.5t69 107.5q-12 -1 -24 -3t-25 -5q-67 -13 -142.5 -41t-149 -67t-138.5 -85q-64 -45 -92 -85t-28 -70q0 -31 25.5 -49.5t65.5 -18.5zM449 303q-20 0 -20 21q0 8 3 15q5 13 19.5 17.5t27.5 4.5t13 -12q0 -9 -6 -21t-16.5 -18.5
t-20.5 -6.5zM325 303q-20 0 -20 21q0 8 3 15q5 13 19.5 17.5t27.5 4.5t13 -12q0 -9 -6 -21t-16.5 -18.5t-20.5 -6.5z" />
    <glyph glyph-name="Amacron" unicode="&#x100;" horiz-adv-x="1006" 
d="M-5 -215q-17 0 -39.5 10.5t-32.5 36.5q-5 13 -5 25q0 29 21 63t55 70q37 38 96 86t133 100.5t156 104.5t165.5 98t161 81t143 54t110.5 16q37 -2 63.5 -34t26.5 -82q0 -41 -13.5 -91.5t-35 -103.5t-47.5 -100q41 5 78.5 14.5t61 26t21.5 40.5v2q0 9 4 9q7 0 7 -16
q0 -27 -26.5 -46t-67.5 -30t-85 -17q-6 -13 -15 -38t-12 -43q-1 -3 -1 -6.5v-7.5q0 -10 1.5 -18t1.5 -11q2 -14 -9.5 -24t-22.5 -10q-14 0 -15 13q-1 2 -1 11q-5 14 -16.5 34.5t-24 40.5t-24 34.5t-16.5 15.5q-7 2 -47 9q-25 5 -64.5 11t-77 15.5t-60.5 22.5q-28 16 -28 35
q0 9 5 15q9 11 23.5 16t33.5 5q29 0 63.5 -10t68 -26t61 -34.5t41.5 -36.5q8 -1 20 -1.5t27 -0.5q30 0 66 3q21 51 40.5 109.5t32 113t12.5 91.5q0 42 -22.5 58.5t-57.5 16.5q-56 0 -124.5 -22t-144.5 -60t-154 -87t-153 -102.5t-140.5 -106.5t-117.5 -100t-84 -82
q-34 -37 -34 -81q0 -18 7.5 -34t23.5 -27q7 -6 7 -10q0 -8 -20 -8zM761 121q-15 11 -42 25t-57.5 25t-59.5 13h-11q-22 0 -22 -8q0 -5 8.5 -11.5t16.5 -9.5q20 -7 52 -14.5t64.5 -13t50.5 -6.5zM886 4l2 12t2 13q4 17 8.5 35t10.5 34q-25 -1 -47 -2t-37 0q14 -16 31.5 -41
t29.5 -51zM879 588q-20 0 -20 7q0 13 35 25q17 6 45 6q17 0 40.5 -2t52.5 -6q26 -3 26 -10q0 -8 -26 -8q-18 0 -54 -3q-15 -1 -38.5 -5t-55.5 -4h-5z" />
    <glyph glyph-name="amacron" unicode="&#x101;" horiz-adv-x="557" 
d="M464 -11q-30 0 -52.5 15t-22.5 56q1 21 7.5 43.5t14.5 42.5q-13 -15 -39 -40t-58.5 -50.5t-66.5 -43.5t-64 -18t-49 22q-13 14 -13 38q0 28 18.5 61t49 64.5t66 56.5t69.5 36q47 15 74 15q29 0 42.5 -15.5t17.5 -44.5v-3q0 -7 -3.5 -11.5t-6.5 -4.5q-5 0 -5 8
q0 5 -1.5 14.5t-9 18t-25.5 8.5q-25 0 -57 -14t-65 -37.5t-62 -51t-48 -54.5t-22 -48q-1 -3 -1 -6v-5q0 -18 7.5 -25t19.5 -7q18 0 41.5 11t43.5 25t28 21q32 27 72 59.5t71 60.5q5 3 11 3q14 0 23 -7q3 -3 3 -8t-2.5 -12.5t-6.5 -16.5q-17 -35 -28 -63t-11 -47
q0 -30 33 -30q25 0 74 18q53 20 106 55t96 71q11 9 20 15t19 16q2 1 5 1t3 -3t-4 -8q-6 -8 -29 -29.5t-57 -48t-73.5 -51t-79.5 -38.5q-15 -5 -34.5 -9.5t-38.5 -4.5zM307 344q-20 0 -20 7q0 13 35 25q17 6 45 6q17 0 40.5 -2t52.5 -6q26 -3 26 -10q0 -8 -26 -8
q-18 0 -54 -3q-15 -1 -38.5 -5t-55.5 -4h-5z" />
    <glyph glyph-name="Abreve" unicode="&#x102;" horiz-adv-x="1006" 
d="M-5 -215q-17 0 -39.5 10.5t-32.5 36.5q-5 13 -5 25q0 29 21 63t55 70q37 38 96 86t133 100.5t156 104.5t165.5 98t161 81t143 54t110.5 16q37 -2 63.5 -34t26.5 -82q0 -41 -13.5 -91.5t-35 -103.5t-47.5 -100q41 5 78.5 14.5t61 26t21.5 40.5v2q0 9 4 9q7 0 7 -16
q0 -27 -26.5 -46t-67.5 -30t-85 -17q-6 -13 -15 -38t-12 -43q-1 -3 -1 -6.5v-7.5q0 -10 1.5 -18t1.5 -11q2 -14 -9.5 -24t-22.5 -10q-14 0 -15 13q-1 2 -1 11q-5 14 -16.5 34.5t-24 40.5t-24 34.5t-16.5 15.5q-7 2 -47 9q-25 5 -64.5 11t-77 15.5t-60.5 22.5q-28 16 -28 35
q0 9 5 15q9 11 23.5 16t33.5 5q29 0 63.5 -10t68 -26t61 -34.5t41.5 -36.5q8 -1 20 -1.5t27 -0.5q30 0 66 3q21 51 40.5 109.5t32 113t12.5 91.5q0 42 -22.5 58.5t-57.5 16.5q-56 0 -124.5 -22t-144.5 -60t-154 -87t-153 -102.5t-140.5 -106.5t-117.5 -100t-84 -82
q-34 -37 -34 -81q0 -18 7.5 -34t23.5 -27q7 -6 7 -10q0 -8 -20 -8zM761 121q-15 11 -42 25t-57.5 25t-59.5 13h-11q-22 0 -22 -8q0 -5 8.5 -11.5t16.5 -9.5q20 -7 52 -14.5t64.5 -13t50.5 -6.5zM886 4l2 12t2 13q4 17 8.5 35t10.5 34q-25 -1 -47 -2t-37 0q14 -16 31.5 -41
t29.5 -51zM963 589q-37 0 -60.5 22.5t-23.5 51.5q0 10 5 10q2 0 7 -2t9 -11q12 -24 30 -32.5t37 -8.5q20 0 42 10t38 35q6 9 11 9q7 0 7 -7q0 -3 -2 -11q-12 -35 -38.5 -50.5t-61.5 -15.5z" />
    <glyph glyph-name="abreve" unicode="&#x103;" horiz-adv-x="557" 
d="M464 -11q-30 0 -52.5 15t-22.5 56q1 21 7.5 43.5t14.5 42.5q-13 -15 -39 -40t-58.5 -50.5t-66.5 -43.5t-64 -18t-49 22q-13 14 -13 38q0 28 18.5 61t49 64.5t66 56.5t69.5 36q47 15 74 15q29 0 42.5 -15.5t17.5 -44.5v-3q0 -7 -3.5 -11.5t-6.5 -4.5q-5 0 -5 8
q0 5 -1.5 14.5t-9 18t-25.5 8.5q-25 0 -57 -14t-65 -37.5t-62 -51t-48 -54.5t-22 -48q-1 -3 -1 -6v-5q0 -18 7.5 -25t19.5 -7q18 0 41.5 11t43.5 25t28 21q32 27 72 59.5t71 60.5q5 3 11 3q14 0 23 -7q3 -3 3 -8t-2.5 -12.5t-6.5 -16.5q-17 -35 -28 -63t-11 -47
q0 -30 33 -30q25 0 74 18q53 20 106 55t96 71q11 9 20 15t19 16q2 1 5 1t3 -3t-4 -8q-6 -8 -29 -29.5t-57 -48t-73.5 -51t-79.5 -38.5q-15 -5 -34.5 -9.5t-38.5 -4.5zM391 345q-37 0 -60.5 22.5t-23.5 51.5q0 10 5 10q2 0 7 -2t9 -11q12 -24 30 -32.5t37 -8.5q20 0 42 10
t38 35q6 9 11 9q7 0 7 -7q0 -3 -2 -11q-12 -35 -38.5 -50.5t-61.5 -15.5z" />
    <glyph glyph-name="Aogonek" unicode="&#x104;" horiz-adv-x="1006" 
d="M-5 -215q-17 0 -39.5 10.5t-32.5 36.5q-5 13 -5 25q0 29 21 63t55 70q37 38 96 86t133 100.5t156 104.5t165.5 98t161 81t143 54t110.5 16q37 -2 63.5 -34t26.5 -82q0 -41 -13.5 -91.5t-35 -103.5t-47.5 -100q41 5 78.5 14.5t61 26t21.5 40.5v2q0 9 4 9q7 0 7 -16
q0 -27 -26.5 -46t-67.5 -30t-85 -17q-6 -13 -15 -38t-12 -43q-1 -3 -1 -6.5v-7.5q0 -10 1.5 -18t1.5 -11q2 -14 -9.5 -24t-22.5 -10q-14 0 -15 13q-1 2 -1 11q-5 14 -16.5 34.5t-24 40.5t-24 34.5t-16.5 15.5q-7 2 -47 9q-25 5 -64.5 11t-77 15.5t-60.5 22.5q-28 16 -28 35
q0 9 5 15q9 11 23.5 16t33.5 5q29 0 63.5 -10t68 -26t61 -34.5t41.5 -36.5q8 -1 20 -1.5t27 -0.5q30 0 66 3q21 51 40.5 109.5t32 113t12.5 91.5q0 42 -22.5 58.5t-57.5 16.5q-56 0 -124.5 -22t-144.5 -60t-154 -87t-153 -102.5t-140.5 -106.5t-117.5 -100t-84 -82
q-34 -37 -34 -81q0 -18 7.5 -34t23.5 -27q7 -6 7 -10q0 -8 -20 -8zM761 121q-15 11 -42 25t-57.5 25t-59.5 13h-11q-22 0 -22 -8q0 -5 8.5 -11.5t16.5 -9.5q20 -7 52 -14.5t64.5 -13t50.5 -6.5zM886 4l2 12t2 13q4 17 8.5 35t10.5 34q-25 -1 -47 -2t-37 0q14 -16 31.5 -41
t29.5 -51zM898 -188q-55 0 -55 42q0 27 19 69q21 47 44 49l3 -3q-34 -47 -34 -88t45 -41q15 0 45 11q29 12 30 12q11 0 11 -9q0 -14 -48 -29q-39 -13 -60 -13z" />
    <glyph glyph-name="aogonek" unicode="&#x105;" horiz-adv-x="557" 
d="M464 -11q-30 0 -52.5 15t-22.5 56q1 21 7.5 43.5t14.5 42.5q-13 -15 -39 -40t-58.5 -50.5t-66.5 -43.5t-64 -18t-49 22q-13 14 -13 38q0 28 18.5 61t49 64.5t66 56.5t69.5 36q47 15 74 15q29 0 42.5 -15.5t17.5 -44.5v-3q0 -7 -3.5 -11.5t-6.5 -4.5q-5 0 -5 8
q0 5 -1.5 14.5t-9 18t-25.5 8.5q-25 0 -57 -14t-65 -37.5t-62 -51t-48 -54.5t-22 -48q-1 -3 -1 -6v-5q0 -18 7.5 -25t19.5 -7q18 0 41.5 11t43.5 25t28 21q32 27 72 59.5t71 60.5q5 3 11 3q14 0 23 -7q3 -3 3 -8t-2.5 -12.5t-6.5 -16.5q-17 -35 -28 -63t-11 -47
q0 -30 33 -30q25 0 74 18q53 20 106 55t96 71q11 9 20 15t19 16q2 1 5 1t3 -3t-4 -8q-6 -8 -29 -29.5t-57 -48t-73.5 -51t-79.5 -38.5q-15 -5 -34.5 -9.5t-38.5 -4.5zM463 -164q-55 0 -55 42q0 27 19 69q21 47 44 49l3 -3q-34 -47 -34 -88t45 -41q15 0 45 11q29 12 30 12
q11 0 11 -9q0 -14 -48 -29q-39 -13 -60 -13z" />
    <glyph glyph-name="Cacute" unicode="&#x106;" horiz-adv-x="1025" 
d="M450 -126q-133 0 -228 27.5t-146 81t-51 129.5q0 83 45 161t127 140t194.5 97.5t248.5 32.5q29 -1 61.5 -12.5t46.5 -21.5l52 36t42 37q14 15 22 15q3 0 3 -3q0 -4 -6 -13q-16 -21 -42 -41.5t-55 -40.5q22 -18 22 -37q0 -28 -21 -50.5t-48.5 -35.5t-49.5 -13
q-30 0 -30 23q0 18 21 47q12 17 29.5 31.5t37.5 28.5q-10 7 -28 10.5t-44 5.5q-10 1 -19 1.5t-19 0.5q-76 0 -155 -23t-152 -62.5t-131 -91t-92 -109.5t-34 -116q0 -91 86.5 -144t272.5 -53q39 0 84 3q99 6 203.5 25.5t207.5 55t197 89.5t172 130q1 1 3 1t3 -3t-2 -7
q-72 -81 -165.5 -141.5t-198.5 -101.5t-211.5 -62.5t-203.5 -25.5q-13 -1 -25 -1h-24zM678 394q7 0 20 10q27 23 32.5 45.5t6.5 29.5q-19 -15 -32 -26t-24 -26q-9 -13 -9 -25q0 -8 6 -8zM540.647 615.141q-3.39941 0 -3.39941 1.7002q0 3.39941 16.999 12.749
q25.5 14.4502 49.7236 31.4492q24.2246 17 40.374 29.75q9.34961 1.69922 19.125 -6.80078q9.77441 -8.49902 7.22461 -12.749q-11.8994 -6.7998 -30.5996 -16.1494q-18.6992 -9.34961 -38.6738 -18.2744t-35.2734 -15.7246q-5.10059 -1.7002 -13.1748 -3.8252
q-8.0752 -2.125 -12.3252 -2.125z" />
    <glyph glyph-name="cacute" unicode="&#x107;" horiz-adv-x="423" 
d="M291 -13q-23 0 -43.5 5t-37.5 15q-24 15 -34.5 34t-10.5 41q0 34 20.5 68.5t51 62.5t60.5 42q29 14 54.5 20t46.5 6q25 0 41 -8.5t16 -24.5q0 -15 -15.5 -37.5t-36 -40t-34.5 -20.5q-3 0 -3 6q0 4 4 8q6 5 17 16.5t20.5 25.5t9.5 25q0 16 -27 16q-26 0 -60 -16.5
t-66 -43.5t-53 -58.5t-21 -61.5q0 -23 14.5 -36.5t37 -19t46.5 -5.5q12 0 24 1t22 3q52 11 105.5 38t103.5 62t90 70q2 1 5 1q4 0 4 -2q0 -3 -4 -8q-7 -12 -28.5 -31t-49 -39t-53.5 -37.5t-43 -27.5q-37 -21 -83 -35t-90 -14zM360.647 344.141q-3.39941 0 -3.39941 1.7002
q0 3.39941 16.999 12.749q25.5 14.4502 49.7236 31.4492q24.2246 17 40.374 29.75q9.34961 1.69922 19.125 -6.80078q9.77441 -8.49902 7.22461 -12.749q-11.8994 -6.7998 -30.5996 -16.1494q-18.6992 -9.34961 -38.6738 -18.2744t-35.2734 -15.7246
q-5.10059 -1.7002 -13.1748 -3.8252q-8.0752 -2.125 -12.3252 -2.125z" />
    <glyph glyph-name="Ccircumflex" unicode="&#x108;" horiz-adv-x="1025" 
d="M450 -126q-133 0 -228 27.5t-146 81t-51 129.5q0 83 45 161t127 140t194.5 97.5t248.5 32.5q29 -1 61.5 -12.5t46.5 -21.5l52 36t42 37q14 15 22 15q3 0 3 -3q0 -4 -6 -13q-16 -21 -42 -41.5t-55 -40.5q22 -18 22 -37q0 -28 -21 -50.5t-48.5 -35.5t-49.5 -13
q-30 0 -30 23q0 18 21 47q12 17 29.5 31.5t37.5 28.5q-10 7 -28 10.5t-44 5.5q-10 1 -19 1.5t-19 0.5q-76 0 -155 -23t-152 -62.5t-131 -91t-92 -109.5t-34 -116q0 -91 86.5 -144t272.5 -53q39 0 84 3q99 6 203.5 25.5t207.5 55t197 89.5t172 130q1 1 3 1t3 -3t-2 -7
q-72 -81 -165.5 -141.5t-198.5 -101.5t-211.5 -62.5t-203.5 -25.5q-13 -1 -25 -1h-24zM678 394q7 0 20 10q27 23 32.5 45.5t6.5 29.5q-19 -15 -32 -26t-24 -26q-9 -13 -9 -25q0 -8 6 -8zM470.217 607.892q-3.39941 0 -2.68555 3.40039q1.07227 5.09961 9.79395 10.1992
q14.8936 10.2002 38.9336 25.499q24.04 15.2998 50.8984 31.875q26.8574 16.5742 50.1152 30.1738q8.32129 -0.849609 31.1953 -41.6484q6.66992 -12.75 11.8184 -24.6494q5.14941 -11.9004 7.12012 -18.7002q2.50586 -4.25 1.25586 -10.1992
q-0.893555 -4.25 -4.31543 -6.375q-3.4209 -2.125 -4.58496 0.424805q-6.17773 11.0498 -16.6504 25.9248q-10.4736 14.874 -19.2686 27.624q-8.79492 12.749 -13.001 16.999q-10.6006 -5.94922 -29.0723 -16.999q-18.4727 -11.0498 -42.5801 -24.6494
q-27.0156 -15.2998 -44.5049 -21.6748q-17.4893 -6.37402 -21.918 -7.22461h-2.5498z" />
    <glyph glyph-name="ccircumflex" unicode="&#x109;" horiz-adv-x="423" 
d="M291 -13q-23 0 -43.5 5t-37.5 15q-24 15 -34.5 34t-10.5 41q0 34 20.5 68.5t51 62.5t60.5 42q29 14 54.5 20t46.5 6q25 0 41 -8.5t16 -24.5q0 -15 -15.5 -37.5t-36 -40t-34.5 -20.5q-3 0 -3 6q0 4 4 8q6 5 17 16.5t20.5 25.5t9.5 25q0 16 -27 16q-26 0 -60 -16.5
t-66 -43.5t-53 -58.5t-21 -61.5q0 -23 14.5 -36.5t37 -19t46.5 -5.5q12 0 24 1t22 3q52 11 105.5 38t103.5 62t90 70q2 1 5 1q4 0 4 -2q0 -3 -4 -8q-7 -12 -28.5 -31t-49 -39t-53.5 -37.5t-43 -27.5q-37 -21 -83 -35t-90 -14zM290.217 336.892q-3.39941 0 -2.68555 3.40039
q1.07227 5.09961 9.79395 10.1992q14.8936 10.2002 38.9336 25.499q24.04 15.2998 50.8984 31.875q26.8574 16.5742 50.1152 30.1738q8.32129 -0.849609 31.1953 -41.6484q6.66992 -12.75 11.8184 -24.6494q5.14941 -11.9004 7.12012 -18.7002
q2.50586 -4.25 1.25586 -10.1992q-0.893555 -4.25 -4.31543 -6.375q-3.4209 -2.125 -4.58496 0.424805q-6.17773 11.0498 -16.6504 25.9248q-10.4736 14.874 -19.2686 27.624q-8.79492 12.749 -13.001 16.999q-10.6006 -5.94922 -29.0723 -16.999
q-18.4727 -11.0498 -42.5801 -24.6494q-27.0156 -15.2998 -44.5049 -21.6748q-17.4893 -6.37402 -21.918 -7.22461h-2.5498z" />
    <glyph glyph-name="Cdotaccent" unicode="&#x10a;" horiz-adv-x="1025" 
d="M450 -126q-133 0 -228 27.5t-146 81t-51 129.5q0 83 45 161t127 140t194.5 97.5t248.5 32.5q29 -1 61.5 -12.5t46.5 -21.5l52 36t42 37q14 15 22 15q3 0 3 -3q0 -4 -6 -13q-16 -21 -42 -41.5t-55 -40.5q22 -18 22 -37q0 -28 -21 -50.5t-48.5 -35.5t-49.5 -13
q-30 0 -30 23q0 18 21 47q12 17 29.5 31.5t37.5 28.5q-10 7 -28 10.5t-44 5.5q-10 1 -19 1.5t-19 0.5q-76 0 -155 -23t-152 -62.5t-131 -91t-92 -109.5t-34 -116q0 -91 86.5 -144t272.5 -53q39 0 84 3q99 6 203.5 25.5t207.5 55t197 89.5t172 130q1 1 3 1t3 -3t-2 -7
q-72 -81 -165.5 -141.5t-198.5 -101.5t-211.5 -62.5t-203.5 -25.5q-13 -1 -25 -1h-24zM678 394q7 0 20 10q27 23 32.5 45.5t6.5 29.5q-19 -15 -32 -26t-24 -26q-9 -13 -9 -25q0 -8 6 -8zM590 614q-20 0 -20 21q0 8 3 15q5 13 19.5 17.5t27.5 4.5t13 -12q0 -9 -6 -21
t-16.5 -18.5t-20.5 -6.5z" />
    <glyph glyph-name="cdotaccent" unicode="&#x10b;" horiz-adv-x="423" 
d="M291 -13q-23 0 -43.5 5t-37.5 15q-24 15 -34.5 34t-10.5 41q0 34 20.5 68.5t51 62.5t60.5 42q29 14 54.5 20t46.5 6q25 0 41 -8.5t16 -24.5q0 -15 -15.5 -37.5t-36 -40t-34.5 -20.5q-3 0 -3 6q0 4 4 8q6 5 17 16.5t20.5 25.5t9.5 25q0 16 -27 16q-26 0 -60 -16.5
t-66 -43.5t-53 -58.5t-21 -61.5q0 -23 14.5 -36.5t37 -19t46.5 -5.5q12 0 24 1t22 3q52 11 105.5 38t103.5 62t90 70q2 1 5 1q4 0 4 -2q0 -3 -4 -8q-7 -12 -28.5 -31t-49 -39t-53.5 -37.5t-43 -27.5q-37 -21 -83 -35t-90 -14zM410 343q-20 0 -20 21q0 8 3 15q5 13 19.5 17.5
t27.5 4.5t13 -12q0 -9 -6 -21t-16.5 -18.5t-20.5 -6.5z" />
    <glyph glyph-name="Ccaron" unicode="&#x10c;" horiz-adv-x="1025" 
d="M450 -126q-133 0 -228 27.5t-146 81t-51 129.5q0 83 45 161t127 140t194.5 97.5t248.5 32.5q29 -1 61.5 -12.5t46.5 -21.5l52 36t42 37q14 15 22 15q3 0 3 -3q0 -4 -6 -13q-16 -21 -42 -41.5t-55 -40.5q22 -18 22 -37q0 -28 -21 -50.5t-48.5 -35.5t-49.5 -13
q-30 0 -30 23q0 18 21 47q12 17 29.5 31.5t37.5 28.5q-10 7 -28 10.5t-44 5.5q-10 1 -19 1.5t-19 0.5q-76 0 -155 -23t-152 -62.5t-131 -91t-92 -109.5t-34 -116q0 -91 86.5 -144t272.5 -53q39 0 84 3q99 6 203.5 25.5t207.5 55t197 89.5t172 130q1 1 3 1t3 -3t-2 -7
q-72 -81 -165.5 -141.5t-198.5 -101.5t-211.5 -62.5t-203.5 -25.5q-13 -1 -25 -1h-24zM678 394q7 0 20 10q27 23 32.5 45.5t6.5 29.5q-19 -15 -32 -26t-24 -26q-9 -13 -9 -25q0 -8 6 -8zM563 611q-10 1 -47 49q-18 23 -26 37.5t-8 19.5q5 9 10 9q13 0 71 -79q10 10 28.5 22
t45.5 27q29 17 48 25t27 9q3 -1 3 -5q0 -5 -9 -11q-46 -30 -80.5 -55t-57.5 -45z" />
    <glyph glyph-name="ccaron" unicode="&#x10d;" horiz-adv-x="423" 
d="M291 -13q-23 0 -43.5 5t-37.5 15q-24 15 -34.5 34t-10.5 41q0 34 20.5 68.5t51 62.5t60.5 42q29 14 54.5 20t46.5 6q25 0 41 -8.5t16 -24.5q0 -15 -15.5 -37.5t-36 -40t-34.5 -20.5q-3 0 -3 6q0 4 4 8q6 5 17 16.5t20.5 25.5t9.5 25q0 16 -27 16q-26 0 -60 -16.5
t-66 -43.5t-53 -58.5t-21 -61.5q0 -23 14.5 -36.5t37 -19t46.5 -5.5q12 0 24 1t22 3q52 11 105.5 38t103.5 62t90 70q2 1 5 1q4 0 4 -2q0 -3 -4 -8q-7 -12 -28.5 -31t-49 -39t-53.5 -37.5t-43 -27.5q-37 -21 -83 -35t-90 -14zM383 340q-10 1 -47 49q-18 23 -26 37.5t-8 19.5
q5 9 10 9q13 0 71 -79q10 10 28.5 22t45.5 27q29 17 48 25t27 9q3 -1 3 -5q0 -5 -9 -11q-46 -30 -80.5 -55t-57.5 -45z" />
    <glyph glyph-name="Dcaron" unicode="&#x10e;" horiz-adv-x="1929" 
d="M1333 -95q-74 0 -139 12.5t-112 37.5q-16 9 -16 14q0 2 3 2t7.5 -1t11.5 -3q65 -17 123.5 -23.5t116.5 -5.5q32 1 81 7t108 17.5t121 28.5t120.5 40t104.5 52q47 29 78 66.5t31 78.5q0 35 -27 72.5t-89 74.5q-63 39 -151 62.5t-192.5 34.5t-219.5 11q-119 0 -244 -10.5
t-247 -29.5t-234 -45t-207 -57t-166 -65t-111 -69t-40 -70q0 -21 17 -37.5t44 -27.5t57 -16.5t55 -5.5q4 0 19.5 -1t30.5 0h2q8 0 14 -2.5t6 -6.5q0 -5 -9 -8q-11 -4 -27.5 -5.5t-32.5 -1.5q-32 0 -67.5 10t-67 28t-51.5 41.5t-20 49.5q0 49 51.5 94t143 85t211.5 72.5
t258 56t282.5 36t284.5 12.5q131 0 250.5 -12.5t217 -39t162.5 -68.5q56 -36 90 -84t34 -111q0 -48 -28 -86.5t-76 -68.5t-108.5 -52.5t-125.5 -38.5t-127.5 -25.5t-114.5 -14t-86 -4.5zM893 -103q-13 5 -24.5 19.5t-11.5 25.5t8 28.5t20 36t23 34.5t17 24q20 27 47 61.5
t56 70.5t55 67q5 6 4.5 7t-5.5 5q-2 1 -2 5q0 7 5 12q23 24 47 39t26 15q8 0 19.5 -13.5t11.5 -21.5q0 -1 -10 -13.5t-26.5 -31t-34 -38.5t-32.5 -37q-50 -55 -97 -115.5t-81 -113.5q-10 -16 -10 -21q0 -3 3 -3q5 0 22 10q9 5 31.5 16t48.5 25.5t44 26.5q6 3 7.5 1t-3.5 -7
q-7 -7 -20.5 -16l-28.5 -19q-8 -5 -24.5 -17.5t-34.5 -27.5t-30 -28q-6 -7 -12 -7t-8 1zM1446 596q-10 1 -47 49q-18 23 -26 37.5t-8 19.5q5 9 10 9q13 0 71 -79q10 10 28.5 22t45.5 27q29 17 48 25t27 9q3 -1 3 -5q0 -5 -9 -11q-46 -30 -80.5 -55t-57.5 -45z" />
    <glyph glyph-name="dcaron" unicode="&#x10f;" horiz-adv-x="568" 
d="M463 -15q-42 -3 -58.5 16.5t-16.5 48.5t12 62.5t28 58.5q-2 -1 -17 -17t-38 -39t-49.5 -46t-53 -40t-46.5 -20q-3 -1 -9 -1q-13 0 -24.5 6.5t-19.5 16.5q-8 8 -11.5 19t-3.5 22q0 28 18 59.5t45.5 61.5t59 53.5t58.5 35.5q23 9 46 9q32 0 57 -17q10 -7 16 -15.5t7 -20.5
v-1q0 -12 -8 -12q-5 0 -8 7q-5 12 -15 24.5t-33 12.5q-31 0 -66.5 -21t-68 -53t-54.5 -66.5t-26 -61.5q-1 -4 -1 -8v-8q0 -27 19 -27q9 0 20.5 4.5t21.5 11.5q57 35 111 80.5t101 95.5q53 56 99.5 111t109.5 103q13 10 24 10q14 0 25.5 -18t11.5 -33q0 -6 -3 -11
q-4 -5 -7 -5q-2 0 -2.5 3t-1.5 6q-1 8 -11 8t-22.5 -6.5t-17.5 -9.5q-61 -43 -120 -111q-13 -16 -26 -31.5t-25 -31.5q-9 -12 -25 -38.5t-28.5 -57t-12.5 -54.5q0 -18 10 -30t35 -12q50 0 94.5 23t83.5 48q75 48 144 107q3 3 5 3t2 -3t-4 -9q-10 -13 -47 -47.5t-92 -70.5
q-46 -31 -91 -50t-101 -24zM751 309q-2 1 -4 0.5t-4 0.5q-4 0 -3 3q0 3 11 10q8 5 26 20.5t29 34.5q-10 2 -11 12t0 20q2 13 12 19.5t19 6.5q15 0 22.5 -7.5t7.5 -15.5q0 -7 -4 -15t-12 -18q-17 -21 -39.5 -43.5t-49.5 -27.5z" />
    <glyph glyph-name="Dcroat" unicode="&#x110;" horiz-adv-x="2013" 
d="M1333 -95q-74 0 -139 12.5t-112 37.5q-16 9 -16 14q0 2 3 2t7.5 -1t11.5 -3q65 -17 123.5 -23.5t116.5 -5.5q32 1 81 7t108 17.5t121 28.5t120.5 40t104.5 52q47 29 78 66.5t31 78.5q0 35 -27 72.5t-89 74.5q-63 39 -151 62.5t-192.5 34.5t-219.5 11q-119 0 -244 -10.5
t-247 -29.5t-234 -45t-207 -57t-166 -65t-111 -69t-40 -70q0 -21 17 -37.5t44 -27.5t57 -16.5t55 -5.5q4 0 19.5 -1t30.5 0h2q8 0 14 -2.5t6 -6.5q0 -5 -9 -8q-11 -4 -27.5 -5.5t-32.5 -1.5q-32 0 -67.5 10t-67 28t-51.5 41.5t-20 49.5q0 49 51.5 94t143 85t211.5 72.5
t258 56t282.5 36t284.5 12.5q131 0 250.5 -12.5t217 -39t162.5 -68.5q56 -36 90 -84t34 -111q0 -48 -28 -86.5t-76 -68.5t-108.5 -52.5t-125.5 -38.5t-127.5 -25.5t-114.5 -14t-86 -4.5zM893 -103q-13 5 -24.5 19.5t-11.5 25.5t8 28.5t20 36t23 34.5t17 24l41 53
q-19 -1 -38 -1h-36q-10 0 -10 7q0 5 7.5 10.5t23.5 9.5q11 2 34 3.5t42 1.5q23 29 47.5 59t46.5 56q5 6 4.5 7t-5.5 5q-2 1 -2 5q0 7 5 12q23 24 47 39t26 15q8 0 19.5 -13.5t11.5 -21.5q0 -1 -10 -13.5t-26.5 -31t-34 -38.5t-32.5 -37q-10 -10 -19 -20.5t-18 -21.5
q16 0 34 -1.5t38 -6.5q23 -6 23 -9q0 -2 -6.5 -3.5t-16.5 -2.5l-97 -6q-33 -40 -63 -80.5t-53 -77.5q-10 -16 -10 -21q0 -3 3 -3q5 0 22 10q9 5 31.5 16t48.5 25.5t44 26.5q6 3 7.5 1t-3.5 -7q-7 -7 -20.5 -16l-28.5 -19q-8 -5 -24.5 -17.5t-34.5 -27.5t-30 -28
q-6 -7 -12 -7t-8 1z" />
    </font>
</defs>
</svg>
